<?xml version="1.0" encoding="utf-8" standalone="no"?>
<!DOCTYPE svg PUBLIC "-//W3C//DTD SVG 1.1//EN"
  "http://www.w3.org/Graphics/SVG/1.1/DTD/svg11.dtd">
<svg xmlns:xlink="http://www.w3.org/1999/xlink" width="349.495342pt" height="216pt" viewBox="0 0 349.495342 216" xmlns="http://www.w3.org/2000/svg" version="1.1">
 <metadata>
  <rdf:RDF xmlns:dc="http://purl.org/dc/elements/1.1/" xmlns:cc="http://creativecommons.org/ns#" xmlns:rdf="http://www.w3.org/1999/02/22-rdf-syntax-ns#">
   <cc:Work>
    <dc:type rdf:resource="http://purl.org/dc/dcmitype/StillImage"/>
    <dc:date>2021-11-27T16:50:44.900108</dc:date>
    <dc:format>image/svg+xml</dc:format>
    <dc:creator>
     <cc:Agent>
      <dc:title>Matplotlib v3.5.0, https://matplotlib.org/</dc:title>
     </cc:Agent>
    </dc:creator>
   </cc:Work>
  </rdf:RDF>
 </metadata>
 <defs>
  <style type="text/css">*{stroke-linejoin: round; stroke-linecap: butt}</style>
 </defs>
 <g id="figure_1">
  <g id="patch_1">
   <path d="M 0 216 
L 349.495342 216 
L 349.495342 0 
L 0 0 
z
" style="fill: #ffffff"/>
  </g>
  <g id="axes_1">
   <g id="patch_2">
    <path d="M 36.140312 189.033828 
L 338.965342 189.033828 
L 338.965342 10.53 
L 36.140312 10.53 
z
" style="fill: #ffffff"/>
   </g>
   <g id="patch_3">
    <path d="M 49.905087 189.033828 
L 55.410996 189.033828 
L 55.410996 119.937254 
L 49.905087 119.937254 
z
" clip-path="url(#pe158912d90)" style="fill: #1f77b4"/>
   </g>
   <g id="patch_4">
    <path d="M 55.410996 189.033828 
L 60.916906 189.033828 
L 60.916906 71.439282 
L 55.410996 71.439282 
z
" clip-path="url(#pe158912d90)" style="fill: #1f77b4"/>
   </g>
   <g id="patch_5">
    <path d="M 60.916906 189.033828 
L 66.422815 189.033828 
L 66.422815 41.193234 
L 60.916906 41.193234 
z
" clip-path="url(#pe158912d90)" style="fill: #1f77b4"/>
   </g>
   <g id="patch_6">
    <path d="M 66.422815 189.033828 
L 71.928725 189.033828 
L 71.928725 19.290924 
L 66.422815 19.290924 
z
" clip-path="url(#pe158912d90)" style="fill: #1f77b4"/>
   </g>
   <g id="patch_7">
    <path d="M 71.928725 189.033828 
L 77.434635 189.033828 
L 77.434635 19.030182 
L 71.928725 19.030182 
z
" clip-path="url(#pe158912d90)" style="fill: #1f77b4"/>
   </g>
   <g id="patch_8">
    <path d="M 77.434635 189.033828 
L 82.940544 189.033828 
L 82.940544 31.80653 
L 77.434635 31.80653 
z
" clip-path="url(#pe158912d90)" style="fill: #1f77b4"/>
   </g>
   <g id="patch_9">
    <path d="M 82.940544 189.033828 
L 88.446454 189.033828 
L 88.446454 24.50576 
L 82.940544 24.50576 
z
" clip-path="url(#pe158912d90)" style="fill: #1f77b4"/>
   </g>
   <g id="patch_10">
    <path d="M 88.446454 189.033828 
L 93.952364 189.033828 
L 93.952364 33.892464 
L 88.446454 33.892464 
z
" clip-path="url(#pe158912d90)" style="fill: #1f77b4"/>
   </g>
   <g id="patch_11">
    <path d="M 93.952364 189.033828 
L 99.458273 189.033828 
L 99.458273 38.064333 
L 93.952364 38.064333 
z
" clip-path="url(#pe158912d90)" style="fill: #1f77b4"/>
   </g>
   <g id="patch_12">
    <path d="M 99.458273 189.033828 
L 104.964183 189.033828 
L 104.964183 42.236201 
L 99.458273 42.236201 
z
" clip-path="url(#pe158912d90)" style="fill: #1f77b4"/>
   </g>
   <g id="patch_13">
    <path d="M 104.964183 189.033828 
L 110.470092 189.033828 
L 110.470092 54.230324 
L 104.964183 54.230324 
z
" clip-path="url(#pe158912d90)" style="fill: #1f77b4"/>
   </g>
   <g id="patch_14">
    <path d="M 110.470092 189.033828 
L 115.976002 189.033828 
L 115.976002 54.230324 
L 110.470092 54.230324 
z
" clip-path="url(#pe158912d90)" style="fill: #1f77b4"/>
   </g>
   <g id="patch_15">
    <path d="M 115.976002 189.033828 
L 121.481912 189.033828 
L 121.481912 77.697085 
L 115.976002 77.697085 
z
" clip-path="url(#pe158912d90)" style="fill: #1f77b4"/>
   </g>
   <g id="patch_16">
    <path d="M 121.481912 189.033828 
L 126.987821 189.033828 
L 126.987821 72.221507 
L 121.481912 72.221507 
z
" clip-path="url(#pe158912d90)" style="fill: #1f77b4"/>
   </g>
   <g id="patch_17">
    <path d="M 126.987821 189.033828 
L 132.493731 189.033828 
L 132.493731 93.863075 
L 126.987821 93.863075 
z
" clip-path="url(#pe158912d90)" style="fill: #1f77b4"/>
   </g>
   <g id="patch_18">
    <path d="M 132.493731 189.033828 
L 137.99964 189.033828 
L 137.99964 111.072033 
L 132.493731 111.072033 
z
" clip-path="url(#pe158912d90)" style="fill: #1f77b4"/>
   </g>
   <g id="patch_19">
    <path d="M 137.99964 189.033828 
L 143.50555 189.033828 
L 143.50555 113.157968 
L 137.99964 113.157968 
z
" clip-path="url(#pe158912d90)" style="fill: #1f77b4"/>
   </g>
   <g id="patch_20">
    <path d="M 143.50555 189.033828 
L 149.01146 189.033828 
L 149.01146 121.501705 
L 143.50555 121.501705 
z
" clip-path="url(#pe158912d90)" style="fill: #1f77b4"/>
   </g>
   <g id="patch_21">
    <path d="M 149.01146 189.033828 
L 154.517369 189.033828 
L 154.517369 136.885471 
L 149.01146 136.885471 
z
" clip-path="url(#pe158912d90)" style="fill: #1f77b4"/>
   </g>
   <g id="patch_22">
    <path d="M 154.517369 189.033828 
L 160.023279 189.033828 
L 160.023279 144.446982 
L 154.517369 144.446982 
z
" clip-path="url(#pe158912d90)" style="fill: #1f77b4"/>
   </g>
   <g id="patch_23">
    <path d="M 160.023279 189.033828 
L 165.529189 189.033828 
L 165.529189 153.051461 
L 160.023279 153.051461 
z
" clip-path="url(#pe158912d90)" style="fill: #1f77b4"/>
   </g>
   <g id="patch_24">
    <path d="M 165.529189 189.033828 
L 171.035098 189.033828 
L 171.035098 155.398137 
L 165.529189 155.398137 
z
" clip-path="url(#pe158912d90)" style="fill: #1f77b4"/>
   </g>
   <g id="patch_25">
    <path d="M 171.035098 189.033828 
L 176.541008 189.033828 
L 176.541008 158.787781 
L 171.035098 158.787781 
z
" clip-path="url(#pe158912d90)" style="fill: #1f77b4"/>
   </g>
   <g id="patch_26">
    <path d="M 176.541008 189.033828 
L 182.046917 189.033828 
L 182.046917 162.959649 
L 176.541008 162.959649 
z
" clip-path="url(#pe158912d90)" style="fill: #1f77b4"/>
   </g>
   <g id="patch_27">
    <path d="M 182.046917 189.033828 
L 187.552827 189.033828 
L 187.552827 167.653002 
L 182.046917 167.653002 
z
" clip-path="url(#pe158912d90)" style="fill: #1f77b4"/>
   </g>
   <g id="patch_28">
    <path d="M 187.552827 189.033828 
L 193.058737 189.033828 
L 193.058737 174.171546 
L 187.552827 174.171546 
z
" clip-path="url(#pe158912d90)" style="fill: #1f77b4"/>
   </g>
   <g id="patch_29">
    <path d="M 193.058737 189.033828 
L 198.564646 189.033828 
L 198.564646 168.95671 
L 193.058737 168.95671 
z
" clip-path="url(#pe158912d90)" style="fill: #1f77b4"/>
   </g>
   <g id="patch_30">
    <path d="M 198.564646 189.033828 
L 204.070556 189.033828 
L 204.070556 175.735997 
L 198.564646 175.735997 
z
" clip-path="url(#pe158912d90)" style="fill: #1f77b4"/>
   </g>
   <g id="patch_31">
    <path d="M 204.070556 189.033828 
L 209.576466 189.033828 
L 209.576466 179.386382 
L 204.070556 179.386382 
z
" clip-path="url(#pe158912d90)" style="fill: #1f77b4"/>
   </g>
   <g id="patch_32">
    <path d="M 209.576466 189.033828 
L 215.082375 189.033828 
L 215.082375 183.818992 
L 209.576466 183.818992 
z
" clip-path="url(#pe158912d90)" style="fill: #1f77b4"/>
   </g>
   <g id="patch_33">
    <path d="M 215.082375 189.033828 
L 220.588285 189.033828 
L 220.588285 178.343415 
L 215.082375 178.343415 
z
" clip-path="url(#pe158912d90)" style="fill: #1f77b4"/>
   </g>
   <g id="patch_34">
    <path d="M 220.588285 189.033828 
L 226.094194 189.033828 
L 226.094194 182.776025 
L 220.588285 182.776025 
z
" clip-path="url(#pe158912d90)" style="fill: #1f77b4"/>
   </g>
   <g id="patch_35">
    <path d="M 226.094194 189.033828 
L 231.600104 189.033828 
L 231.600104 183.558251 
L 226.094194 183.558251 
z
" clip-path="url(#pe158912d90)" style="fill: #1f77b4"/>
   </g>
   <g id="patch_36">
    <path d="M 231.600104 189.033828 
L 237.106014 189.033828 
L 237.106014 185.383443 
L 231.600104 185.383443 
z
" clip-path="url(#pe158912d90)" style="fill: #1f77b4"/>
   </g>
   <g id="patch_37">
    <path d="M 237.106014 189.033828 
L 242.611923 189.033828 
L 242.611923 186.42641 
L 237.106014 186.42641 
z
" clip-path="url(#pe158912d90)" style="fill: #1f77b4"/>
   </g>
   <g id="patch_38">
    <path d="M 242.611923 189.033828 
L 248.117833 189.033828 
L 248.117833 186.42641 
L 242.611923 186.42641 
z
" clip-path="url(#pe158912d90)" style="fill: #1f77b4"/>
   </g>
   <g id="patch_39">
    <path d="M 248.117833 189.033828 
L 253.623742 189.033828 
L 253.623742 188.773086 
L 248.117833 188.773086 
z
" clip-path="url(#pe158912d90)" style="fill: #1f77b4"/>
   </g>
   <g id="patch_40">
    <path d="M 253.623742 189.033828 
L 259.129652 189.033828 
L 259.129652 188.251603 
L 253.623742 188.251603 
z
" clip-path="url(#pe158912d90)" style="fill: #1f77b4"/>
   </g>
   <g id="patch_41">
    <path d="M 259.129652 189.033828 
L 264.635562 189.033828 
L 264.635562 188.251603 
L 259.129652 188.251603 
z
" clip-path="url(#pe158912d90)" style="fill: #1f77b4"/>
   </g>
   <g id="patch_42">
    <path d="M 264.635562 189.033828 
L 270.141471 189.033828 
L 270.141471 188.512345 
L 264.635562 188.512345 
z
" clip-path="url(#pe158912d90)" style="fill: #1f77b4"/>
   </g>
   <g id="patch_43">
    <path d="M 270.141471 189.033828 
L 275.647381 189.033828 
L 275.647381 188.773086 
L 270.141471 188.773086 
z
" clip-path="url(#pe158912d90)" style="fill: #1f77b4"/>
   </g>
   <g id="patch_44">
    <path d="M 275.647381 189.033828 
L 281.153291 189.033828 
L 281.153291 187.990861 
L 275.647381 187.990861 
z
" clip-path="url(#pe158912d90)" style="fill: #1f77b4"/>
   </g>
   <g id="patch_45">
    <path d="M 281.153291 189.033828 
L 286.6592 189.033828 
L 286.6592 188.251603 
L 281.153291 188.251603 
z
" clip-path="url(#pe158912d90)" style="fill: #1f77b4"/>
   </g>
   <g id="patch_46">
    <path d="M 286.6592 189.033828 
L 292.16511 189.033828 
L 292.16511 188.512345 
L 286.6592 188.512345 
z
" clip-path="url(#pe158912d90)" style="fill: #1f77b4"/>
   </g>
   <g id="patch_47">
    <path d="M 292.16511 189.033828 
L 297.671019 189.033828 
L 297.671019 188.773086 
L 292.16511 188.773086 
z
" clip-path="url(#pe158912d90)" style="fill: #1f77b4"/>
   </g>
   <g id="patch_48">
    <path d="M 297.671019 189.033828 
L 303.176929 189.033828 
L 303.176929 188.773086 
L 297.671019 188.773086 
z
" clip-path="url(#pe158912d90)" style="fill: #1f77b4"/>
   </g>
   <g id="patch_49">
    <path d="M 303.176929 189.033828 
L 308.682839 189.033828 
L 308.682839 189.033828 
L 303.176929 189.033828 
z
" clip-path="url(#pe158912d90)" style="fill: #1f77b4"/>
   </g>
   <g id="patch_50">
    <path d="M 308.682839 189.033828 
L 314.188748 189.033828 
L 314.188748 189.033828 
L 308.682839 189.033828 
z
" clip-path="url(#pe158912d90)" style="fill: #1f77b4"/>
   </g>
   <g id="patch_51">
    <path d="M 314.188748 189.033828 
L 319.694658 189.033828 
L 319.694658 189.033828 
L 314.188748 189.033828 
z
" clip-path="url(#pe158912d90)" style="fill: #1f77b4"/>
   </g>
   <g id="patch_52">
    <path d="M 319.694658 189.033828 
L 325.200568 189.033828 
L 325.200568 188.773086 
L 319.694658 188.773086 
z
" clip-path="url(#pe158912d90)" style="fill: #1f77b4"/>
   </g>
   <g id="matplotlib.axis_1">
    <g id="xtick_1">
     <g id="line2d_1">
      <defs>
       <path id="md9721eada2" d="M 0 0 
L 0 3.5 
" style="stroke: #000000; stroke-width: 0.8"/>
      </defs>
      <g>
       <use xlink:href="#md9721eada2" x="49.800108" y="189.033828" style="stroke: #000000; stroke-width: 0.8"/>
      </g>
     </g>
     <g id="text_1">
      <!-- 0.0000 -->
      <g transform="translate(32.742178 203.442305)scale(0.0975 -0.0975)">
       <defs>
        <path id="DejaVuSans-30" d="M 2034 4250 
Q 1547 4250 1301 3770 
Q 1056 3291 1056 2328 
Q 1056 1369 1301 889 
Q 1547 409 2034 409 
Q 2525 409 2770 889 
Q 3016 1369 3016 2328 
Q 3016 3291 2770 3770 
Q 2525 4250 2034 4250 
z
M 2034 4750 
Q 2819 4750 3233 4129 
Q 3647 3509 3647 2328 
Q 3647 1150 3233 529 
Q 2819 -91 2034 -91 
Q 1250 -91 836 529 
Q 422 1150 422 2328 
Q 422 3509 836 4129 
Q 1250 4750 2034 4750 
z
" transform="scale(0.015625)"/>
        <path id="DejaVuSans-2e" d="M 684 794 
L 1344 794 
L 1344 0 
L 684 0 
L 684 794 
z
" transform="scale(0.015625)"/>
       </defs>
       <use xlink:href="#DejaVuSans-30"/>
       <use xlink:href="#DejaVuSans-2e" x="63.623047"/>
       <use xlink:href="#DejaVuSans-30" x="95.410156"/>
       <use xlink:href="#DejaVuSans-30" x="159.033203"/>
       <use xlink:href="#DejaVuSans-30" x="222.65625"/>
       <use xlink:href="#DejaVuSans-30" x="286.279297"/>
      </g>
     </g>
    </g>
    <g id="xtick_2">
     <g id="line2d_2">
      <g>
       <use xlink:href="#md9721eada2" x="112.91143" y="189.033828" style="stroke: #000000; stroke-width: 0.8"/>
      </g>
     </g>
     <g id="text_2">
      <!-- 0.0001 -->
      <g transform="translate(95.8535 203.442305)scale(0.0975 -0.0975)">
       <defs>
        <path id="DejaVuSans-31" d="M 794 531 
L 1825 531 
L 1825 4091 
L 703 3866 
L 703 4441 
L 1819 4666 
L 2450 4666 
L 2450 531 
L 3481 531 
L 3481 0 
L 794 0 
L 794 531 
z
" transform="scale(0.015625)"/>
       </defs>
       <use xlink:href="#DejaVuSans-30"/>
       <use xlink:href="#DejaVuSans-2e" x="63.623047"/>
       <use xlink:href="#DejaVuSans-30" x="95.410156"/>
       <use xlink:href="#DejaVuSans-30" x="159.033203"/>
       <use xlink:href="#DejaVuSans-30" x="222.65625"/>
       <use xlink:href="#DejaVuSans-31" x="286.279297"/>
      </g>
     </g>
    </g>
    <g id="xtick_3">
     <g id="line2d_3">
      <g>
       <use xlink:href="#md9721eada2" x="176.022752" y="189.033828" style="stroke: #000000; stroke-width: 0.8"/>
      </g>
     </g>
     <g id="text_3">
      <!-- 0.0002 -->
      <g transform="translate(158.964822 203.442305)scale(0.0975 -0.0975)">
       <defs>
        <path id="DejaVuSans-32" d="M 1228 531 
L 3431 531 
L 3431 0 
L 469 0 
L 469 531 
Q 828 903 1448 1529 
Q 2069 2156 2228 2338 
Q 2531 2678 2651 2914 
Q 2772 3150 2772 3378 
Q 2772 3750 2511 3984 
Q 2250 4219 1831 4219 
Q 1534 4219 1204 4116 
Q 875 4013 500 3803 
L 500 4441 
Q 881 4594 1212 4672 
Q 1544 4750 1819 4750 
Q 2544 4750 2975 4387 
Q 3406 4025 3406 3419 
Q 3406 3131 3298 2873 
Q 3191 2616 2906 2266 
Q 2828 2175 2409 1742 
Q 1991 1309 1228 531 
z
" transform="scale(0.015625)"/>
       </defs>
       <use xlink:href="#DejaVuSans-30"/>
       <use xlink:href="#DejaVuSans-2e" x="63.623047"/>
       <use xlink:href="#DejaVuSans-30" x="95.410156"/>
       <use xlink:href="#DejaVuSans-30" x="159.033203"/>
       <use xlink:href="#DejaVuSans-30" x="222.65625"/>
       <use xlink:href="#DejaVuSans-32" x="286.279297"/>
      </g>
     </g>
    </g>
    <g id="xtick_4">
     <g id="line2d_4">
      <g>
       <use xlink:href="#md9721eada2" x="239.134073" y="189.033828" style="stroke: #000000; stroke-width: 0.8"/>
      </g>
     </g>
     <g id="text_4">
      <!-- 0.0003 -->
      <g transform="translate(222.076144 203.442305)scale(0.0975 -0.0975)">
       <defs>
        <path id="DejaVuSans-33" d="M 2597 2516 
Q 3050 2419 3304 2112 
Q 3559 1806 3559 1356 
Q 3559 666 3084 287 
Q 2609 -91 1734 -91 
Q 1441 -91 1130 -33 
Q 819 25 488 141 
L 488 750 
Q 750 597 1062 519 
Q 1375 441 1716 441 
Q 2309 441 2620 675 
Q 2931 909 2931 1356 
Q 2931 1769 2642 2001 
Q 2353 2234 1838 2234 
L 1294 2234 
L 1294 2753 
L 1863 2753 
Q 2328 2753 2575 2939 
Q 2822 3125 2822 3475 
Q 2822 3834 2567 4026 
Q 2313 4219 1838 4219 
Q 1578 4219 1281 4162 
Q 984 4106 628 3988 
L 628 4550 
Q 988 4650 1302 4700 
Q 1616 4750 1894 4750 
Q 2613 4750 3031 4423 
Q 3450 4097 3450 3541 
Q 3450 3153 3228 2886 
Q 3006 2619 2597 2516 
z
" transform="scale(0.015625)"/>
       </defs>
       <use xlink:href="#DejaVuSans-30"/>
       <use xlink:href="#DejaVuSans-2e" x="63.623047"/>
       <use xlink:href="#DejaVuSans-30" x="95.410156"/>
       <use xlink:href="#DejaVuSans-30" x="159.033203"/>
       <use xlink:href="#DejaVuSans-30" x="222.65625"/>
       <use xlink:href="#DejaVuSans-33" x="286.279297"/>
      </g>
     </g>
    </g>
    <g id="xtick_5">
     <g id="line2d_5">
      <g>
       <use xlink:href="#md9721eada2" x="302.245395" y="189.033828" style="stroke: #000000; stroke-width: 0.8"/>
      </g>
     </g>
     <g id="text_5">
      <!-- 0.0004 -->
      <g transform="translate(285.187466 203.442305)scale(0.0975 -0.0975)">
       <defs>
        <path id="DejaVuSans-34" d="M 2419 4116 
L 825 1625 
L 2419 1625 
L 2419 4116 
z
M 2253 4666 
L 3047 4666 
L 3047 1625 
L 3713 1625 
L 3713 1100 
L 3047 1100 
L 3047 0 
L 2419 0 
L 2419 1100 
L 313 1100 
L 313 1709 
L 2253 4666 
z
" transform="scale(0.015625)"/>
       </defs>
       <use xlink:href="#DejaVuSans-30"/>
       <use xlink:href="#DejaVuSans-2e" x="63.623047"/>
       <use xlink:href="#DejaVuSans-30" x="95.410156"/>
       <use xlink:href="#DejaVuSans-30" x="159.033203"/>
       <use xlink:href="#DejaVuSans-30" x="222.65625"/>
       <use xlink:href="#DejaVuSans-34" x="286.279297"/>
      </g>
     </g>
    </g>
   </g>
   <g id="matplotlib.axis_2">
    <g id="ytick_1">
     <g id="line2d_6">
      <defs>
       <path id="m56976bfa04" d="M 0 0 
L -3.5 0 
" style="stroke: #000000; stroke-width: 0.8"/>
      </defs>
      <g>
       <use xlink:href="#m56976bfa04" x="36.140312" y="189.033828" style="stroke: #000000; stroke-width: 0.8"/>
      </g>
     </g>
     <g id="text_6">
      <!-- 0 -->
      <g transform="translate(22.936875 192.738066)scale(0.0975 -0.0975)">
       <use xlink:href="#DejaVuSans-30"/>
      </g>
     </g>
    </g>
    <g id="ytick_2">
     <g id="line2d_7">
      <g>
       <use xlink:href="#m56976bfa04" x="36.140312" y="162.959649" style="stroke: #000000; stroke-width: 0.8"/>
      </g>
     </g>
     <g id="text_7">
      <!-- 100 -->
      <g transform="translate(10.53 166.663888)scale(0.0975 -0.0975)">
       <use xlink:href="#DejaVuSans-31"/>
       <use xlink:href="#DejaVuSans-30" x="63.623047"/>
       <use xlink:href="#DejaVuSans-30" x="127.246094"/>
      </g>
     </g>
    </g>
    <g id="ytick_3">
     <g id="line2d_8">
      <g>
       <use xlink:href="#m56976bfa04" x="36.140312" y="136.885471" style="stroke: #000000; stroke-width: 0.8"/>
      </g>
     </g>
     <g id="text_8">
      <!-- 200 -->
      <g transform="translate(10.53 140.589709)scale(0.0975 -0.0975)">
       <use xlink:href="#DejaVuSans-32"/>
       <use xlink:href="#DejaVuSans-30" x="63.623047"/>
       <use xlink:href="#DejaVuSans-30" x="127.246094"/>
      </g>
     </g>
    </g>
    <g id="ytick_4">
     <g id="line2d_9">
      <g>
       <use xlink:href="#m56976bfa04" x="36.140312" y="110.811292" style="stroke: #000000; stroke-width: 0.8"/>
      </g>
     </g>
     <g id="text_9">
      <!-- 300 -->
      <g transform="translate(10.53 114.51553)scale(0.0975 -0.0975)">
       <use xlink:href="#DejaVuSans-33"/>
       <use xlink:href="#DejaVuSans-30" x="63.623047"/>
       <use xlink:href="#DejaVuSans-30" x="127.246094"/>
      </g>
     </g>
    </g>
    <g id="ytick_5">
     <g id="line2d_10">
      <g>
       <use xlink:href="#m56976bfa04" x="36.140312" y="84.737113" style="stroke: #000000; stroke-width: 0.8"/>
      </g>
     </g>
     <g id="text_10">
      <!-- 400 -->
      <g transform="translate(10.53 88.441351)scale(0.0975 -0.0975)">
       <use xlink:href="#DejaVuSans-34"/>
       <use xlink:href="#DejaVuSans-30" x="63.623047"/>
       <use xlink:href="#DejaVuSans-30" x="127.246094"/>
      </g>
     </g>
    </g>
    <g id="ytick_6">
     <g id="line2d_11">
      <g>
       <use xlink:href="#m56976bfa04" x="36.140312" y="58.662934" style="stroke: #000000; stroke-width: 0.8"/>
      </g>
     </g>
     <g id="text_11">
      <!-- 500 -->
      <g transform="translate(10.53 62.367172)scale(0.0975 -0.0975)">
       <defs>
        <path id="DejaVuSans-35" d="M 691 4666 
L 3169 4666 
L 3169 4134 
L 1269 4134 
L 1269 2991 
Q 1406 3038 1543 3061 
Q 1681 3084 1819 3084 
Q 2600 3084 3056 2656 
Q 3513 2228 3513 1497 
Q 3513 744 3044 326 
Q 2575 -91 1722 -91 
Q 1428 -91 1123 -41 
Q 819 9 494 109 
L 494 744 
Q 775 591 1075 516 
Q 1375 441 1709 441 
Q 2250 441 2565 725 
Q 2881 1009 2881 1497 
Q 2881 1984 2565 2268 
Q 2250 2553 1709 2553 
Q 1456 2553 1204 2497 
Q 953 2441 691 2322 
L 691 4666 
z
" transform="scale(0.015625)"/>
       </defs>
       <use xlink:href="#DejaVuSans-35"/>
       <use xlink:href="#DejaVuSans-30" x="63.623047"/>
       <use xlink:href="#DejaVuSans-30" x="127.246094"/>
      </g>
     </g>
    </g>
    <g id="ytick_7">
     <g id="line2d_12">
      <g>
       <use xlink:href="#m56976bfa04" x="36.140312" y="32.588755" style="stroke: #000000; stroke-width: 0.8"/>
      </g>
     </g>
     <g id="text_12">
      <!-- 600 -->
      <g transform="translate(10.53 36.292994)scale(0.0975 -0.0975)">
       <defs>
        <path id="DejaVuSans-36" d="M 2113 2584 
Q 1688 2584 1439 2293 
Q 1191 2003 1191 1497 
Q 1191 994 1439 701 
Q 1688 409 2113 409 
Q 2538 409 2786 701 
Q 3034 994 3034 1497 
Q 3034 2003 2786 2293 
Q 2538 2584 2113 2584 
z
M 3366 4563 
L 3366 3988 
Q 3128 4100 2886 4159 
Q 2644 4219 2406 4219 
Q 1781 4219 1451 3797 
Q 1122 3375 1075 2522 
Q 1259 2794 1537 2939 
Q 1816 3084 2150 3084 
Q 2853 3084 3261 2657 
Q 3669 2231 3669 1497 
Q 3669 778 3244 343 
Q 2819 -91 2113 -91 
Q 1303 -91 875 529 
Q 447 1150 447 2328 
Q 447 3434 972 4092 
Q 1497 4750 2381 4750 
Q 2619 4750 2861 4703 
Q 3103 4656 3366 4563 
z
" transform="scale(0.015625)"/>
       </defs>
       <use xlink:href="#DejaVuSans-36"/>
       <use xlink:href="#DejaVuSans-30" x="63.623047"/>
       <use xlink:href="#DejaVuSans-30" x="127.246094"/>
      </g>
     </g>
    </g>
   </g>
   <g id="patch_53">
    <path d="M 36.140312 189.033828 
L 36.140312 10.53 
" style="fill: none; stroke: #000000; stroke-width: 0.8; stroke-linejoin: miter; stroke-linecap: square"/>
   </g>
   <g id="patch_54">
    <path d="M 338.965342 189.033828 
L 338.965342 10.53 
" style="fill: none; stroke: #000000; stroke-width: 0.8; stroke-linejoin: miter; stroke-linecap: square"/>
   </g>
   <g id="patch_55">
    <path d="M 36.140312 189.033828 
L 338.965342 189.033828 
" style="fill: none; stroke: #000000; stroke-width: 0.8; stroke-linejoin: miter; stroke-linecap: square"/>
   </g>
   <g id="patch_56">
    <path d="M 36.140312 10.53 
L 338.965342 10.53 
" style="fill: none; stroke: #000000; stroke-width: 0.8; stroke-linejoin: miter; stroke-linecap: square"/>
   </g>
  </g>
 </g>
 <defs>
  <clipPath id="pe158912d90">
   <rect x="36.140312" y="10.53" width="302.825029" height="178.503828"/>
  </clipPath>
 </defs>
</svg>
