<?xml version="1.0" encoding="utf-8" standalone="no"?>
<!DOCTYPE svg PUBLIC "-//W3C//DTD SVG 1.1//EN"
  "http://www.w3.org/Graphics/SVG/1.1/DTD/svg11.dtd">
<svg height="326.154687pt" version="1.1" viewBox="0 0 321.504687 326.154687" width="321.504687pt" xmlns="http://www.w3.org/2000/svg" xmlns:xlink="http://www.w3.org/1999/xlink">
 <metadata>
  <rdf:RDF xmlns:cc="http://creativecommons.org/ns#" xmlns:dc="http://purl.org/dc/elements/1.1/" xmlns:rdf="http://www.w3.org/1999/02/22-rdf-syntax-ns#">
   <cc:Work>
    <dc:type rdf:resource="http://purl.org/dc/dcmitype/StillImage"/>
    <dc:date>2021-06-24T07:26:05.894252</dc:date>
    <dc:format>image/svg+xml</dc:format>
    <dc:creator>
     <cc:Agent>
      <dc:title>Matplotlib v3.4.2, https://matplotlib.org/</dc:title>
     </cc:Agent>
    </dc:creator>
   </cc:Work>
  </rdf:RDF>
 </metadata>
 <defs>
  <style type="text/css">*{stroke-linecap:butt;stroke-linejoin:round;}</style>
 </defs>
 <g id="figure_1">
  <g id="patch_1">
   <path d="M 0 326.154687 
L 321.504687 326.154687 
L 321.504687 0 
L 0 0 
z
" style="fill:none;"/>
  </g>
  <g id="axes_1">
   <g id="patch_2">
    <path d="M 35.304688 289.598437 
L 314.304688 289.598437 
L 314.304688 17.798437 
L 35.304688 17.798437 
z
" style="fill:#ffffff;"/>
   </g>
   <g id="PathCollection_1">
    <defs>
     <path d="M 0 3 
C 0.795609 3 1.55874 2.683901 2.12132 2.12132 
C 2.683901 1.55874 3 0.795609 3 0 
C 3 -0.795609 2.683901 -1.55874 2.12132 -2.12132 
C 1.55874 -2.683901 0.795609 -3 0 -3 
C -0.795609 -3 -1.55874 -2.683901 -2.12132 -2.12132 
C -2.683901 -1.55874 -3 -0.795609 -3 0 
C -3 0.795609 -2.683901 1.55874 -2.12132 2.12132 
C -1.55874 2.683901 -0.795609 3 0 3 
z
" id="m797de0f262" style="stroke:#1f77b4;"/>
    </defs>
    <g clip-path="url(#p0522bdb74d)">
     <use style="fill:#1f77b4;stroke:#1f77b4;" x="187.596846" xlink:href="#m797de0f262" y="66.270303"/>
    </g>
   </g>
   <g id="matplotlib.axis_1">
    <g id="xtick_1">
     <g id="line2d_1">
      <defs>
       <path d="M 0 0 
L 0 3.5 
" id="me42b1b4bc7" style="stroke:#000000;stroke-width:0.8;"/>
      </defs>
      <g>
       <use style="stroke:#000000;stroke-width:0.8;" x="50.815965" xlink:href="#me42b1b4bc7" y="289.598437"/>
      </g>
     </g>
     <g id="text_1">
      <!-- −15 -->
      <g transform="translate(40.263622 304.196875)scale(0.1 -0.1)">
       <defs>
        <path d="M 678 2272 
L 4684 2272 
L 4684 1741 
L 678 1741 
L 678 2272 
z
" id="DejaVuSans-2212" transform="scale(0.015625)"/>
        <path d="M 794 531 
L 1825 531 
L 1825 4091 
L 703 3866 
L 703 4441 
L 1819 4666 
L 2450 4666 
L 2450 531 
L 3481 531 
L 3481 0 
L 794 0 
L 794 531 
z
" id="DejaVuSans-31" transform="scale(0.015625)"/>
        <path d="M 691 4666 
L 3169 4666 
L 3169 4134 
L 1269 4134 
L 1269 2991 
Q 1406 3038 1543 3061 
Q 1681 3084 1819 3084 
Q 2600 3084 3056 2656 
Q 3513 2228 3513 1497 
Q 3513 744 3044 326 
Q 2575 -91 1722 -91 
Q 1428 -91 1123 -41 
Q 819 9 494 109 
L 494 744 
Q 775 591 1075 516 
Q 1375 441 1709 441 
Q 2250 441 2565 725 
Q 2881 1009 2881 1497 
Q 2881 1984 2565 2268 
Q 2250 2553 1709 2553 
Q 1456 2553 1204 2497 
Q 953 2441 691 2322 
L 691 4666 
z
" id="DejaVuSans-35" transform="scale(0.015625)"/>
       </defs>
       <use xlink:href="#DejaVuSans-2212"/>
       <use x="83.789062" xlink:href="#DejaVuSans-31"/>
       <use x="147.412109" xlink:href="#DejaVuSans-35"/>
      </g>
     </g>
    </g>
    <g id="xtick_2">
     <g id="line2d_2">
      <g>
       <use style="stroke:#000000;stroke-width:0.8;" x="92.214537" xlink:href="#me42b1b4bc7" y="289.598437"/>
      </g>
     </g>
     <g id="text_2">
      <!-- −10 -->
      <g transform="translate(81.662193 304.196875)scale(0.1 -0.1)">
       <defs>
        <path d="M 2034 4250 
Q 1547 4250 1301 3770 
Q 1056 3291 1056 2328 
Q 1056 1369 1301 889 
Q 1547 409 2034 409 
Q 2525 409 2770 889 
Q 3016 1369 3016 2328 
Q 3016 3291 2770 3770 
Q 2525 4250 2034 4250 
z
M 2034 4750 
Q 2819 4750 3233 4129 
Q 3647 3509 3647 2328 
Q 3647 1150 3233 529 
Q 2819 -91 2034 -91 
Q 1250 -91 836 529 
Q 422 1150 422 2328 
Q 422 3509 836 4129 
Q 1250 4750 2034 4750 
z
" id="DejaVuSans-30" transform="scale(0.015625)"/>
       </defs>
       <use xlink:href="#DejaVuSans-2212"/>
       <use x="83.789062" xlink:href="#DejaVuSans-31"/>
       <use x="147.412109" xlink:href="#DejaVuSans-30"/>
      </g>
     </g>
    </g>
    <g id="xtick_3">
     <g id="line2d_3">
      <g>
       <use style="stroke:#000000;stroke-width:0.8;" x="133.613109" xlink:href="#me42b1b4bc7" y="289.598437"/>
      </g>
     </g>
     <g id="text_3">
      <!-- −5 -->
      <g transform="translate(126.242015 304.196875)scale(0.1 -0.1)">
       <use xlink:href="#DejaVuSans-2212"/>
       <use x="83.789062" xlink:href="#DejaVuSans-35"/>
      </g>
     </g>
    </g>
    <g id="xtick_4">
     <g id="line2d_4">
      <g>
       <use style="stroke:#000000;stroke-width:0.8;" x="175.01168" xlink:href="#me42b1b4bc7" y="289.598437"/>
      </g>
     </g>
     <g id="text_4">
      <!-- 0 -->
      <g transform="translate(171.83043 304.196875)scale(0.1 -0.1)">
       <use xlink:href="#DejaVuSans-30"/>
      </g>
     </g>
    </g>
    <g id="xtick_5">
     <g id="line2d_5">
      <g>
       <use style="stroke:#000000;stroke-width:0.8;" x="216.410252" xlink:href="#me42b1b4bc7" y="289.598437"/>
      </g>
     </g>
     <g id="text_5">
      <!-- 5 -->
      <g transform="translate(213.229002 304.196875)scale(0.1 -0.1)">
       <use xlink:href="#DejaVuSans-35"/>
      </g>
     </g>
    </g>
    <g id="xtick_6">
     <g id="line2d_6">
      <g>
       <use style="stroke:#000000;stroke-width:0.8;" x="257.808824" xlink:href="#me42b1b4bc7" y="289.598437"/>
      </g>
     </g>
     <g id="text_6">
      <!-- 10 -->
      <g transform="translate(251.446324 304.196875)scale(0.1 -0.1)">
       <use xlink:href="#DejaVuSans-31"/>
       <use x="63.623047" xlink:href="#DejaVuSans-30"/>
      </g>
     </g>
    </g>
    <g id="xtick_7">
     <g id="line2d_7">
      <g>
       <use style="stroke:#000000;stroke-width:0.8;" x="299.207395" xlink:href="#me42b1b4bc7" y="289.598437"/>
      </g>
     </g>
     <g id="text_7">
      <!-- 15 -->
      <g transform="translate(292.844895 304.196875)scale(0.1 -0.1)">
       <use xlink:href="#DejaVuSans-31"/>
       <use x="63.623047" xlink:href="#DejaVuSans-35"/>
      </g>
     </g>
    </g>
    <g id="text_8">
     <!-- 1e−6 -->
     <g transform="translate(287.046875 316.875)scale(0.1 -0.1)">
      <defs>
       <path d="M 3597 1894 
L 3597 1613 
L 953 1613 
Q 991 1019 1311 708 
Q 1631 397 2203 397 
Q 2534 397 2845 478 
Q 3156 559 3463 722 
L 3463 178 
Q 3153 47 2828 -22 
Q 2503 -91 2169 -91 
Q 1331 -91 842 396 
Q 353 884 353 1716 
Q 353 2575 817 3079 
Q 1281 3584 2069 3584 
Q 2775 3584 3186 3129 
Q 3597 2675 3597 1894 
z
M 3022 2063 
Q 3016 2534 2758 2815 
Q 2500 3097 2075 3097 
Q 1594 3097 1305 2825 
Q 1016 2553 972 2059 
L 3022 2063 
z
" id="DejaVuSans-65" transform="scale(0.015625)"/>
       <path d="M 2113 2584 
Q 1688 2584 1439 2293 
Q 1191 2003 1191 1497 
Q 1191 994 1439 701 
Q 1688 409 2113 409 
Q 2538 409 2786 701 
Q 3034 994 3034 1497 
Q 3034 2003 2786 2293 
Q 2538 2584 2113 2584 
z
M 3366 4563 
L 3366 3988 
Q 3128 4100 2886 4159 
Q 2644 4219 2406 4219 
Q 1781 4219 1451 3797 
Q 1122 3375 1075 2522 
Q 1259 2794 1537 2939 
Q 1816 3084 2150 3084 
Q 2853 3084 3261 2657 
Q 3669 2231 3669 1497 
Q 3669 778 3244 343 
Q 2819 -91 2113 -91 
Q 1303 -91 875 529 
Q 447 1150 447 2328 
Q 447 3434 972 4092 
Q 1497 4750 2381 4750 
Q 2619 4750 2861 4703 
Q 3103 4656 3366 4563 
z
" id="DejaVuSans-36" transform="scale(0.015625)"/>
      </defs>
      <use xlink:href="#DejaVuSans-31"/>
      <use x="63.623047" xlink:href="#DejaVuSans-65"/>
      <use x="125.146484" xlink:href="#DejaVuSans-2212"/>
      <use x="208.935547" xlink:href="#DejaVuSans-36"/>
     </g>
    </g>
   </g>
   <g id="matplotlib.axis_2">
    <g id="ytick_1">
     <g id="line2d_8">
      <defs>
       <path d="M 0 0 
L -3.5 0 
" id="mef77737cd6" style="stroke:#000000;stroke-width:0.8;"/>
      </defs>
      <g>
       <use style="stroke:#000000;stroke-width:0.8;" x="35.304688" xlink:href="#mef77737cd6" y="277.894153"/>
      </g>
     </g>
     <g id="text_9">
      <!-- −15 -->
      <g transform="translate(7.2 281.693371)scale(0.1 -0.1)">
       <use xlink:href="#DejaVuSans-2212"/>
       <use x="83.789062" xlink:href="#DejaVuSans-31"/>
       <use x="147.412109" xlink:href="#DejaVuSans-35"/>
      </g>
     </g>
    </g>
    <g id="ytick_2">
     <g id="line2d_9">
      <g>
       <use style="stroke:#000000;stroke-width:0.8;" x="35.304688" xlink:href="#mef77737cd6" y="236.495581"/>
      </g>
     </g>
     <g id="text_10">
      <!-- −10 -->
      <g transform="translate(7.2 240.2948)scale(0.1 -0.1)">
       <use xlink:href="#DejaVuSans-2212"/>
       <use x="83.789062" xlink:href="#DejaVuSans-31"/>
       <use x="147.412109" xlink:href="#DejaVuSans-30"/>
      </g>
     </g>
    </g>
    <g id="ytick_3">
     <g id="line2d_10">
      <g>
       <use style="stroke:#000000;stroke-width:0.8;" x="35.304688" xlink:href="#mef77737cd6" y="195.097009"/>
      </g>
     </g>
     <g id="text_11">
      <!-- −5 -->
      <g transform="translate(13.5625 198.896228)scale(0.1 -0.1)">
       <use xlink:href="#DejaVuSans-2212"/>
       <use x="83.789062" xlink:href="#DejaVuSans-35"/>
      </g>
     </g>
    </g>
    <g id="ytick_4">
     <g id="line2d_11">
      <g>
       <use style="stroke:#000000;stroke-width:0.8;" x="35.304688" xlink:href="#mef77737cd6" y="153.698437"/>
      </g>
     </g>
     <g id="text_12">
      <!-- 0 -->
      <g transform="translate(21.942187 157.497656)scale(0.1 -0.1)">
       <use xlink:href="#DejaVuSans-30"/>
      </g>
     </g>
    </g>
    <g id="ytick_5">
     <g id="line2d_12">
      <g>
       <use style="stroke:#000000;stroke-width:0.8;" x="35.304688" xlink:href="#mef77737cd6" y="112.299866"/>
      </g>
     </g>
     <g id="text_13">
      <!-- 5 -->
      <g transform="translate(21.942187 116.099085)scale(0.1 -0.1)">
       <use xlink:href="#DejaVuSans-35"/>
      </g>
     </g>
    </g>
    <g id="ytick_6">
     <g id="line2d_13">
      <g>
       <use style="stroke:#000000;stroke-width:0.8;" x="35.304688" xlink:href="#mef77737cd6" y="70.901294"/>
      </g>
     </g>
     <g id="text_14">
      <!-- 10 -->
      <g transform="translate(15.579687 74.700513)scale(0.1 -0.1)">
       <use xlink:href="#DejaVuSans-31"/>
       <use x="63.623047" xlink:href="#DejaVuSans-30"/>
      </g>
     </g>
    </g>
    <g id="ytick_7">
     <g id="line2d_14">
      <g>
       <use style="stroke:#000000;stroke-width:0.8;" x="35.304688" xlink:href="#mef77737cd6" y="29.502722"/>
      </g>
     </g>
     <g id="text_15">
      <!-- 15 -->
      <g transform="translate(15.579687 33.301941)scale(0.1 -0.1)">
       <use xlink:href="#DejaVuSans-31"/>
       <use x="63.623047" xlink:href="#DejaVuSans-35"/>
      </g>
     </g>
    </g>
    <g id="text_16">
     <!-- 1e−6 -->
     <g transform="translate(35.304688 14.798437)scale(0.1 -0.1)">
      <use xlink:href="#DejaVuSans-31"/>
      <use x="63.623047" xlink:href="#DejaVuSans-65"/>
      <use x="125.146484" xlink:href="#DejaVuSans-2212"/>
      <use x="208.935547" xlink:href="#DejaVuSans-36"/>
     </g>
    </g>
   </g>
   <g id="line2d_15">
    <path clip-path="url(#p0522bdb74d)" d="M 134.027094 30.152983 
L 141.478837 41.675572 
L 146.03268 48.297281 
L 149.758552 53.307119 
L 153.070437 57.364479 
L 155.968337 60.556249 
L 158.452252 62.99487 
L 160.936166 65.136213 
L 163.42008 66.96127 
L 165.490009 68.228769 
L 167.559937 69.257509 
L 169.629866 70.041148 
L 171.699795 70.574854 
L 173.769723 70.855337 
L 175.839652 70.880866 
L 177.90958 70.651286 
L 179.979509 70.168012 
L 182.049438 69.434022 
L 184.119366 68.453842 
L 186.189295 67.233516 
L 188.259223 65.780567 
L 190.743138 63.742677 
L 193.227052 61.40087 
L 195.710966 58.775933 
L 198.608866 55.386875 
L 201.920752 51.133417 
L 205.646623 45.944078 
L 210.200466 39.167027 
L 215.582281 30.803083 
L 215.582281 30.803083 
" style="fill:none;stroke:#000000;stroke-linecap:square;stroke-width:1.5;"/>
   </g>
   <g id="line2d_16">
    <path clip-path="url(#p0522bdb74d)" d="M 134.027094 277.243892 
L 141.478837 265.721303 
L 146.03268 259.099594 
L 149.758552 254.089756 
L 153.070437 250.032396 
L 155.968337 246.840626 
L 158.452252 244.402005 
L 160.936166 242.260662 
L 163.42008 240.435605 
L 165.490009 239.168106 
L 167.559937 238.139366 
L 169.629866 237.355727 
L 171.699795 236.822021 
L 173.769723 236.541538 
L 175.839652 236.516009 
L 177.90958 236.745589 
L 179.979509 237.228863 
L 182.049438 237.962853 
L 184.119366 238.943033 
L 186.189295 240.163359 
L 188.259223 241.616308 
L 190.743138 243.654198 
L 193.227052 245.996005 
L 195.710966 248.620942 
L 198.608866 252.01 
L 201.920752 256.263458 
L 205.646623 261.452797 
L 210.200466 268.229848 
L 215.582281 276.593792 
L 215.582281 276.593792 
" style="fill:none;stroke:#000000;stroke-linecap:square;stroke-width:1.5;"/>
   </g>
   <g id="line2d_17">
    <path clip-path="url(#p0522bdb74d)" d="M 187.596846 241.126572 
L 187.774626 239.366255 
L 187.948789 237.605576 
L 188.119335 235.844543 
L 188.286264 234.083164 
L 188.449574 232.321446 
L 188.609265 230.559395 
L 188.765336 228.797021 
L 188.917786 227.034329 
L 189.066616 225.271329 
L 189.211824 223.508026 
L 189.35341 221.744428 
L 189.491372 219.980544 
L 189.625711 218.21638 
L 189.756427 216.451943 
L 189.883517 214.687242 
L 190.006982 212.922284 
L 190.126822 211.157075 
L 190.243035 209.391624 
L 190.355622 207.625939 
L 190.464582 205.860025 
L 190.569914 204.093892 
L 190.671618 202.327546 
L 190.769693 200.560994 
L 190.864139 198.794245 
L 190.954957 197.027306 
L 191.042144 195.260184 
L 191.125702 193.492886 
L 191.205629 191.725421 
L 191.281925 189.957795 
L 191.35459 188.190016 
L 191.423624 186.422092 
L 191.489027 184.654029 
L 191.550797 182.885836 
L 191.608935 181.11752 
L 191.663441 179.349088 
L 191.714314 177.580548 
L 191.761554 175.811907 
L 191.805161 174.043173 
L 191.845134 172.274353 
L 191.881475 170.505455 
L 191.914181 168.736485 
L 191.943254 166.967452 
L 191.968694 165.198364 
L 191.990499 163.429226 
L 192.00867 161.660048 
L 192.023207 159.890836 
L 192.03411 158.121598 
L 192.041378 156.352341 
L 192.045012 154.583073 
L 192.045012 152.813802 
L 192.041378 151.044534 
L 192.03411 149.275277 
L 192.023207 147.506039 
L 192.00867 145.736827 
L 191.990499 143.967649 
L 191.968694 142.198511 
L 191.943254 140.429423 
L 191.914181 138.66039 
L 191.881475 136.89142 
L 191.845134 135.122522 
L 191.805161 133.353702 
L 191.761554 131.584968 
L 191.714314 129.816327 
L 191.663441 128.047787 
L 191.608935 126.279355 
L 191.550797 124.511039 
L 191.489027 122.742846 
L 191.423624 120.974783 
L 191.35459 119.206859 
L 191.281925 117.43908 
L 191.205629 115.671454 
L 191.125702 113.903989 
L 191.042144 112.136691 
L 190.954957 110.369569 
L 190.864139 108.60263 
L 190.769693 106.835881 
L 190.671618 105.069329 
L 190.569914 103.302983 
L 190.464582 101.53685 
L 190.355622 99.770936 
L 190.243035 98.005251 
L 190.126822 96.2398 
L 190.006982 94.474591 
L 189.883517 92.709633 
L 189.756427 90.944932 
L 189.625711 89.180495 
L 189.491372 87.416331 
L 189.35341 85.652447 
L 189.211824 83.888849 
L 189.066616 82.125546 
L 188.917786 80.362546 
L 188.765336 78.599854 
L 188.609265 76.83748 
L 188.449574 75.075429 
L 188.286264 73.313711 
L 188.119335 71.552332 
L 187.948789 69.791299 
L 187.774626 68.03062 
L 187.596846 66.270303 
" style="fill:none;stroke:#0000ff;stroke-linecap:square;stroke-width:1.5;"/>
   </g>
   <g id="patch_3">
    <path d="M 35.304688 289.598437 
L 35.304688 17.798437 
" style="fill:none;stroke:#000000;stroke-linecap:square;stroke-linejoin:miter;stroke-width:0.8;"/>
   </g>
   <g id="patch_4">
    <path d="M 314.304688 289.598437 
L 314.304688 17.798437 
" style="fill:none;stroke:#000000;stroke-linecap:square;stroke-linejoin:miter;stroke-width:0.8;"/>
   </g>
   <g id="patch_5">
    <path d="M 35.304688 289.598437 
L 314.304688 289.598437 
" style="fill:none;stroke:#000000;stroke-linecap:square;stroke-linejoin:miter;stroke-width:0.8;"/>
   </g>
   <g id="patch_6">
    <path d="M 35.304688 17.798437 
L 314.304688 17.798437 
" style="fill:none;stroke:#000000;stroke-linecap:square;stroke-linejoin:miter;stroke-width:0.8;"/>
   </g>
  </g>
 </g>
 <defs>
  <clipPath id="p0522bdb74d">
   <rect height="271.8" width="279" x="35.304688" y="17.798437"/>
  </clipPath>
 </defs>
</svg>