<?xml version="1.0" encoding="utf-8" standalone="no"?>
<!DOCTYPE svg PUBLIC "-//W3C//DTD SVG 1.1//EN"
  "http://www.w3.org/Graphics/SVG/1.1/DTD/svg11.dtd">
<svg height="238.8pt" version="1.1" viewBox="0 0 238.854167 238.8" width="238.854167pt" xmlns="http://www.w3.org/2000/svg" xmlns:xlink="http://www.w3.org/1999/xlink">
 <metadata>
  <rdf:RDF xmlns:cc="http://creativecommons.org/ns#" xmlns:dc="http://purl.org/dc/elements/1.1/" xmlns:rdf="http://www.w3.org/1999/02/22-rdf-syntax-ns#">
   <cc:Work>
    <dc:type rdf:resource="http://purl.org/dc/dcmitype/StillImage"/>
    <dc:date>2022-07-13T10:53:26.004075</dc:date>
    <dc:format>image/svg+xml</dc:format>
    <dc:creator>
     <cc:Agent>
      <dc:title>Matplotlib v3.4.3, https://matplotlib.org/</dc:title>
     </cc:Agent>
    </dc:creator>
   </cc:Work>
  </rdf:RDF>
 </metadata>
 <defs>
  <style type="text/css">*{stroke-linecap:butt;stroke-linejoin:round;}</style>
 </defs>
 <g id="figure_1">
  <g id="patch_1">
   <path d="M 0 238.8 
L 238.854167 238.8 
L 238.854167 0 
L 0 0 
z
" style="fill:none;"/>
  </g>
  <g id="axes_1">
   <g id="PathCollection_1">
    <path clip-path="url(#pa708ab6723)" d="M 17.427083 230.587593 
C 19.863662 230.587593 22.200772 229.619531 23.923693 227.89661 
C 25.646614 226.173689 26.614677 223.836578 26.614677 221.4 
C 26.614677 218.963422 25.646614 216.626311 23.923693 214.90339 
C 22.200772 213.180469 19.863662 212.212407 17.427083 212.212407 
C 14.990505 212.212407 12.653395 213.180469 10.930474 214.90339 
C 9.207553 216.626311 8.23949 218.963422 8.23949 221.4 
C 8.23949 223.836578 9.207553 226.173689 10.930474 227.89661 
C 12.653395 229.619531 14.990505 230.587593 17.427083 230.587593 
z
" style="fill:#800000;stroke:#800000;"/>
    <path clip-path="url(#pa708ab6723)" d="M 17.427083 204.23985 
C 18.887429 204.23985 20.288158 203.659648 21.320778 202.627028 
C 22.353398 201.594408 22.9336 200.193679 22.9336 198.733333 
C 22.9336 197.272988 22.353398 195.872258 21.320778 194.839638 
C 20.288158 193.807018 18.887429 193.226817 17.427083 193.226817 
C 15.966738 193.226817 14.566008 193.807018 13.533388 194.839638 
C 12.500768 195.872258 11.920567 197.272988 11.920567 198.733333 
C 11.920567 200.193679 12.500768 201.594408 13.533388 202.627028 
C 14.566008 203.659648 15.966738 204.23985 17.427083 204.23985 
z
" style="fill:#800000;stroke:#800000;"/>
    <path clip-path="url(#pa708ab6723)" d="M 17.427083 184.697451 
C 19.715994 184.697451 21.911465 183.788057 23.529969 182.169553 
C 25.148474 180.551048 26.057867 178.355577 26.057867 176.066667 
C 26.057867 173.777756 25.148474 171.582285 23.529969 169.963781 
C 21.911465 168.345276 19.715994 167.435883 17.427083 167.435883 
C 15.138173 167.435883 12.942702 168.345276 11.324197 169.963781 
C 9.705693 171.582285 8.796299 173.777756 8.796299 176.066667 
C 8.796299 178.355577 9.705693 180.551048 11.324197 182.169553 
C 12.942702 183.788057 15.138173 184.697451 17.427083 184.697451 
z
" style="fill:#800000;stroke:#800000;"/>
    <path clip-path="url(#pa708ab6723)" d="M 17.427083 162.498856 
C 19.840128 162.498856 22.154666 161.540144 23.860946 159.833863 
C 25.567227 158.127583 26.52594 155.813045 26.52594 153.4 
C 26.52594 150.986955 25.567227 148.672417 23.860946 146.966137 
C 22.154666 145.259856 19.840128 144.301144 17.427083 144.301144 
C 15.014038 144.301144 12.699501 145.259856 10.99322 146.966137 
C 9.28694 148.672417 8.328227 150.986955 8.328227 153.4 
C 8.328227 155.813045 9.28694 158.127583 10.99322 159.833863 
C 12.699501 161.540144 15.014038 162.498856 17.427083 162.498856 
z
" style="fill:#800000;stroke:#800000;"/>
    <path clip-path="url(#pa708ab6723)" d="M 17.427083 138.780159 
C 19.561126 138.780159 21.608052 137.932295 23.117048 136.423298 
C 24.626045 134.914302 25.473909 132.867376 25.473909 130.733333 
C 25.473909 128.59929 24.626045 126.552365 23.117048 125.043368 
C 21.608052 123.534372 19.561126 122.686507 17.427083 122.686507 
C 15.29304 122.686507 13.246115 123.534372 11.737118 125.043368 
C 10.228122 126.552365 9.380257 128.59929 9.380257 130.733333 
C 9.380257 132.867376 10.228122 134.914302 11.737118 136.423298 
C 13.246115 137.932295 15.29304 138.780159 17.427083 138.780159 
z
" style="fill:#800000;stroke:#800000;"/>
    <path clip-path="url(#pa708ab6723)" d="M 17.427083 114.776832 
C 19.20664 114.776832 20.91355 114.069807 22.171887 112.81147 
C 23.430223 111.553133 24.137249 109.846223 24.137249 108.066667 
C 24.137249 106.28711 23.430223 104.5802 22.171887 103.321863 
C 20.91355 102.063527 19.20664 101.356501 17.427083 101.356501 
C 15.647527 101.356501 13.940617 102.063527 12.68228 103.321863 
C 11.423943 104.5802 10.716918 106.28711 10.716918 108.066667 
C 10.716918 109.846223 11.423943 111.553133 12.68228 112.81147 
C 13.940617 114.069807 15.647527 114.776832 17.427083 114.776832 
z
" style="fill:#800000;stroke:#800000;"/>
    <path clip-path="url(#pa708ab6723)" d="M 17.427083 91.965039 
C 19.168152 91.965039 20.838145 91.273305 22.069267 90.042183 
C 23.300388 88.811062 23.992122 87.141069 23.992122 85.4 
C 23.992122 83.658931 23.300388 81.988938 22.069267 80.757817 
C 20.838145 79.526695 19.168152 78.834961 17.427083 78.834961 
C 15.686015 78.834961 14.016021 79.526695 12.7849 80.757817 
C 11.553779 81.988938 10.862045 83.658931 10.862045 85.4 
C 10.862045 87.141069 11.553779 88.811062 12.7849 90.042183 
C 14.016021 91.273305 15.686015 91.965039 17.427083 91.965039 
z
" style="fill:#800000;stroke:#800000;"/>
    <path clip-path="url(#pa708ab6723)" d="M 17.427083 71.878512 
C 19.852413 71.878512 22.178734 70.914918 23.893701 69.199951 
C 25.608668 67.484984 26.572262 65.158663 26.572262 62.733333 
C 26.572262 60.308004 25.608668 57.981683 23.893701 56.266716 
C 22.178734 54.551749 19.852413 53.588155 17.427083 53.588155 
C 15.001754 53.588155 12.675433 54.551749 10.960466 56.266716 
C 9.245499 57.981683 8.281905 60.308004 8.281905 62.733333 
C 8.281905 65.158663 9.245499 67.484984 10.960466 69.199951 
C 12.675433 70.914918 15.001754 71.878512 17.427083 71.878512 
z
" style="fill:#800000;stroke:#800000;"/>
    <path clip-path="url(#pa708ab6723)" d="M 17.427083 46.470828 
C 19.125487 46.470828 20.754557 45.796046 21.95551 44.595093 
C 23.156462 43.39414 23.831245 41.76507 23.831245 40.066667 
C 23.831245 38.368263 23.156462 36.739193 21.95551 35.53824 
C 20.754557 34.337288 19.125487 33.662505 17.427083 33.662505 
C 15.72868 33.662505 14.09961 34.337288 12.898657 35.53824 
C 11.697704 36.739193 11.022922 38.368263 11.022922 40.066667 
C 11.022922 41.76507 11.697704 43.39414 12.898657 44.595093 
C 14.09961 45.796046 15.72868 46.470828 17.427083 46.470828 
z
" style="fill:#800000;stroke:#800000;"/>
    <path clip-path="url(#pa708ab6723)" d="M 17.427083 23.332325 
C 19.000354 23.332325 20.5094 22.707258 21.621871 21.594787 
C 22.734341 20.482317 23.359408 18.973271 23.359408 17.4 
C 23.359408 15.826729 22.734341 14.317683 21.621871 13.205213 
C 20.5094 12.092742 19.000354 11.467675 17.427083 11.467675 
C 15.853812 11.467675 14.344767 12.092742 13.232296 13.205213 
C 12.119826 14.317683 11.494758 15.826729 11.494758 17.4 
C 11.494758 18.973271 12.119826 20.482317 13.232296 21.594787 
C 14.344767 22.707258 15.853812 23.332325 17.427083 23.332325 
z
" style="fill:#800000;stroke:#800000;"/>
    <path clip-path="url(#pa708ab6723)" d="M 40.09375 230.244041 
C 42.439217 230.244041 44.688936 229.312177 46.347431 227.653681 
C 48.005927 225.995186 48.937791 223.745467 48.937791 221.4 
C 48.937791 219.054533 48.005927 216.804814 46.347431 215.146319 
C 44.688936 213.487823 42.439217 212.555959 40.09375 212.555959 
C 37.748283 212.555959 35.498564 213.487823 33.840069 215.146319 
C 32.181573 216.804814 31.249709 219.054533 31.249709 221.4 
C 31.249709 223.745467 32.181573 225.995186 33.840069 227.653681 
C 35.498564 229.312177 37.748283 230.244041 40.09375 230.244041 
z
" style="fill:#e40000;stroke:#e40000;"/>
    <path clip-path="url(#pa708ab6723)" d="M 40.09375 208.609215 
C 42.712864 208.609215 45.225059 207.56863 47.077053 205.716636 
C 48.929047 203.864643 49.969632 201.352448 49.969632 198.733333 
C 49.969632 196.114219 48.929047 193.602024 47.077053 191.75003 
C 45.225059 189.898037 42.712864 188.857451 40.09375 188.857451 
C 37.474636 188.857451 34.962441 189.898037 33.110447 191.75003 
C 31.258453 193.602024 30.217868 196.114219 30.217868 198.733333 
C 30.217868 201.352448 31.258453 203.864643 33.110447 205.716636 
C 34.962441 207.56863 37.474636 208.609215 40.09375 208.609215 
z
" style="fill:#f10800;stroke:#f10800;"/>
    <path clip-path="url(#pa708ab6723)" d="M 40.09375 181.462105 
C 41.524637 181.462105 42.897111 180.893608 43.908901 179.881818 
C 44.920691 178.870028 45.489188 177.497554 45.489188 176.066667 
C 45.489188 174.63578 44.920691 173.263305 43.908901 172.251516 
C 42.897111 171.239726 41.524637 170.671228 40.09375 170.671228 
C 38.662863 170.671228 37.290389 171.239726 36.278599 172.251516 
C 35.266809 173.263305 34.698312 174.63578 34.698312 176.066667 
C 34.698312 177.497554 35.266809 178.870028 36.278599 179.881818 
C 37.290389 180.893608 38.662863 181.462105 40.09375 181.462105 
z
" style="fill:#f10800;stroke:#f10800;"/>
    <path clip-path="url(#pa708ab6723)" d="M 40.09375 161.507875 
C 42.243984 161.507875 44.306439 160.653578 45.826884 159.133134 
C 47.347328 157.612689 48.201625 155.550234 48.201625 153.4 
C 48.201625 151.249766 47.347328 149.187311 45.826884 147.666866 
C 44.306439 146.146422 42.243984 145.292125 40.09375 145.292125 
C 37.943516 145.292125 35.881061 146.146422 34.360616 147.666866 
C 32.840172 149.187311 31.985875 151.249766 31.985875 153.4 
C 31.985875 155.550234 32.840172 157.612689 34.360616 159.133134 
C 35.881061 160.653578 37.943516 161.507875 40.09375 161.507875 
z
" style="fill:#e40000;stroke:#e40000;"/>
    <path clip-path="url(#pa708ab6723)" d="M 40.09375 140.081499 
C 42.572913 140.081499 44.950869 139.096517 46.703901 137.343485 
C 48.456934 135.590452 49.441916 133.212496 49.441916 130.733333 
C 49.441916 128.254171 48.456934 125.876215 46.703901 124.123182 
C 44.950869 122.370149 42.572913 121.385168 40.09375 121.385168 
C 37.614587 121.385168 35.236631 122.370149 33.483599 124.123182 
C 31.730566 125.876215 30.745584 128.254171 30.745584 130.733333 
C 30.745584 133.212496 31.730566 135.590452 33.483599 137.343485 
C 35.236631 139.096517 37.614587 140.081499 40.09375 140.081499 
z
" style="fill:#e40000;stroke:#e40000;"/>
    <path clip-path="url(#pa708ab6723)" d="M 40.09375 116.608812 
C 42.359154 116.608812 44.532077 115.708758 46.133959 114.106876 
C 47.735841 112.504994 48.635896 110.33207 48.635896 108.066667 
C 48.635896 105.801263 47.735841 103.62834 46.133959 102.026458 
C 44.532077 100.424575 42.359154 99.524521 40.09375 99.524521 
C 37.828346 99.524521 35.655423 100.424575 34.053541 102.026458 
C 32.451659 103.62834 31.551604 105.801263 31.551604 108.066667 
C 31.551604 110.33207 32.451659 112.504994 34.053541 114.106876 
C 35.655423 115.708758 37.828346 116.608812 40.09375 116.608812 
z
" style="fill:#ff1300;stroke:#ff1300;"/>
    <path clip-path="url(#pa708ab6723)" d="M 40.09375 94.391102 
C 42.478218 94.391102 44.765346 93.443743 46.451419 91.757669 
C 48.137493 90.071596 49.084852 87.784468 49.084852 85.4 
C 49.084852 83.015532 48.137493 80.728404 46.451419 79.042331 
C 44.765346 77.356257 42.478218 76.408898 40.09375 76.408898 
C 37.709282 76.408898 35.422154 77.356257 33.736081 79.042331 
C 32.050007 80.728404 31.102648 83.015532 31.102648 85.4 
C 31.102648 87.784468 32.050007 90.071596 33.736081 91.757669 
C 35.422154 93.443743 37.709282 94.391102 40.09375 94.391102 
z
" style="fill:#ff1e00;stroke:#ff1e00;"/>
    <path clip-path="url(#pa708ab6723)" d="M 40.09375 69.794525 
C 41.9664 69.794525 43.762603 69.050514 45.086767 67.72635 
C 46.41093 66.402187 47.154942 64.605983 47.154942 62.733333 
C 47.154942 60.860683 46.41093 59.06448 45.086767 57.740317 
C 43.762603 56.416153 41.9664 55.672141 40.09375 55.672141 
C 38.2211 55.672141 36.424897 56.416153 35.100733 57.740317 
C 33.77657 59.06448 33.032558 60.860683 33.032558 62.733333 
C 33.032558 64.605983 33.77657 66.402187 35.100733 67.72635 
C 36.424897 69.050514 38.2211 69.794525 40.09375 69.794525 
z
" style="fill:#ff1e00;stroke:#ff1e00;"/>
    <path clip-path="url(#pa708ab6723)" d="M 40.09375 49.811723 
C 42.678169 49.811723 45.157085 48.784922 46.984545 46.957462 
C 48.812006 45.130002 49.838806 42.651086 49.838806 40.066667 
C 49.838806 37.482248 48.812006 35.003332 46.984545 33.175871 
C 45.157085 31.348411 42.678169 30.32161 40.09375 30.32161 
C 37.509331 30.32161 35.030415 31.348411 33.202955 33.175871 
C 31.375494 35.003332 30.348694 37.482248 30.348694 40.066667 
C 30.348694 42.651086 31.375494 45.130002 33.202955 46.957462 
C 35.030415 48.784922 37.509331 49.811723 40.09375 49.811723 
z
" style="fill:#ff3400;stroke:#ff3400;"/>
    <path clip-path="url(#pa708ab6723)" d="M 40.09375 26.362283 
C 42.470575 26.362283 44.750372 25.417961 46.431041 23.737291 
C 48.111711 22.056622 49.056033 19.776825 49.056033 17.4 
C 49.056033 15.023175 48.111711 12.743378 46.431041 11.062709 
C 44.750372 9.382039 42.470575 8.437717 40.09375 8.437717 
C 37.716925 8.437717 35.437128 9.382039 33.756459 11.062709 
C 32.075789 12.743378 31.131467 15.023175 31.131467 17.4 
C 31.131467 19.776825 32.075789 22.056622 33.756459 23.737291 
C 35.437128 25.417961 37.716925 26.362283 40.09375 26.362283 
z
" style="fill:#ff3b00;stroke:#ff3b00;"/>
    <path clip-path="url(#pa708ab6723)" d="M 62.760417 229.641661 
C 64.946131 229.641661 67.042618 228.773268 68.588151 227.227735 
C 70.133685 225.682201 71.002078 223.585714 71.002078 221.4 
C 71.002078 219.214286 70.133685 217.117799 68.588151 215.572265 
C 67.042618 214.026732 64.946131 213.158339 62.760417 213.158339 
C 60.574703 213.158339 58.478215 214.026732 56.932682 215.572265 
C 55.387149 217.117799 54.518755 219.214286 54.518755 221.4 
C 54.518755 223.585714 55.387149 225.682201 56.932682 227.227735 
C 58.478215 228.773268 60.574703 229.641661 62.760417 229.641661 
z
" style="fill:#ff5d00;stroke:#ff5d00;"/>
    <path clip-path="url(#pa708ab6723)" d="M 62.760417 204.984076 
C 64.418133 204.984076 66.008177 204.325458 67.180359 203.153276 
C 68.352542 201.981093 69.011159 200.39105 69.011159 198.733333 
C 69.011159 197.075617 68.352542 195.485573 67.180359 194.313391 
C 66.008177 193.141208 64.418133 192.482591 62.760417 192.482591 
C 61.1027 192.482591 59.512657 193.141208 58.340474 194.313391 
C 57.168292 195.485573 56.509674 197.075617 56.509674 198.733333 
C 56.509674 200.39105 57.168292 201.981093 58.340474 203.153276 
C 59.512657 204.325458 61.1027 204.984076 62.760417 204.984076 
z
" style="fill:#ff6400;stroke:#ff6400;"/>
    <path clip-path="url(#pa708ab6723)" d="M 62.760417 183.532002 
C 64.740247 183.532002 66.639255 182.745407 68.039206 181.345456 
C 69.439157 179.945505 70.225752 178.046497 70.225752 176.066667 
C 70.225752 174.086837 69.439157 172.187829 68.039206 170.787877 
C 66.639255 169.387926 64.740247 168.601331 62.760417 168.601331 
C 60.780587 168.601331 58.881579 169.387926 57.481627 170.787877 
C 56.081676 172.187829 55.295081 174.086837 55.295081 176.066667 
C 55.295081 178.046497 56.081676 179.945505 57.481627 181.345456 
C 58.881579 182.745407 60.780587 183.532002 62.760417 183.532002 
z
" style="fill:#ff7a00;stroke:#ff7a00;"/>
    <path clip-path="url(#pa708ab6723)" d="M 62.760417 162.198184 
C 65.093722 162.198184 67.331776 161.271151 68.981672 159.621255 
C 70.631568 157.971359 71.5586 155.733306 71.5586 153.4 
C 71.5586 151.066694 70.631568 148.828641 68.981672 147.178745 
C 67.331776 145.528849 65.093722 144.601816 62.760417 144.601816 
C 60.427111 144.601816 58.189058 145.528849 56.539161 147.178745 
C 54.889265 148.828641 53.962233 151.066694 53.962233 153.4 
C 53.962233 155.733306 54.889265 157.971359 56.539161 159.621255 
C 58.189058 161.271151 60.427111 162.198184 62.760417 162.198184 
z
" style="fill:#ff5200;stroke:#ff5200;"/>
    <path clip-path="url(#pa708ab6723)" d="M 62.760417 138.522247 
C 64.826061 138.522247 66.807379 137.701558 68.26801 136.240927 
C 69.728641 134.780296 70.54933 132.798977 70.54933 130.733333 
C 70.54933 128.667689 69.728641 126.686371 68.26801 125.22574 
C 66.807379 123.765109 64.826061 122.94442 62.760417 122.94442 
C 60.694773 122.94442 58.713454 123.765109 57.252823 125.22574 
C 55.792192 126.686371 54.971503 128.667689 54.971503 130.733333 
C 54.971503 132.798977 55.792192 134.780296 57.252823 136.240927 
C 58.713454 137.701558 60.694773 138.522247 62.760417 138.522247 
z
" style="fill:#ff4300;stroke:#ff4300;"/>
    <path clip-path="url(#pa708ab6723)" d="M 62.760417 115.819323 
C 64.816445 115.819323 66.788541 115.002454 68.242373 113.548623 
C 69.696204 112.094791 70.513073 110.122695 70.513073 108.066667 
C 70.513073 106.010638 69.696204 104.038542 68.242373 102.584711 
C 66.788541 101.130879 64.816445 100.31401 62.760417 100.31401 
C 60.704388 100.31401 58.732292 101.130879 57.278461 102.584711 
C 55.824629 104.038542 55.00776 106.010638 55.00776 108.066667 
C 55.00776 110.122695 55.824629 112.094791 57.278461 113.548623 
C 58.732292 115.002454 60.704388 115.819323 62.760417 115.819323 
z
" style="fill:#ff5500;stroke:#ff5500;"/>
    <path clip-path="url(#pa708ab6723)" d="M 62.760417 93.964225 
C 65.031676 93.964225 67.210215 93.061844 68.816238 91.455821 
C 70.42226 89.849799 71.324641 87.671259 71.324641 85.4 
C 71.324641 83.128741 70.42226 80.950201 68.816238 79.344179 
C 67.210215 77.738156 65.031676 76.835775 62.760417 76.835775 
C 60.489158 76.835775 58.310618 77.738156 56.704595 79.344179 
C 55.098573 80.950201 54.196192 83.128741 54.196192 85.4 
C 54.196192 87.671259 55.098573 89.849799 56.704595 91.455821 
C 58.310618 93.061844 60.489158 93.964225 62.760417 93.964225 
z
" style="fill:#ff5900;stroke:#ff5900;"/>
    <path clip-path="url(#pa708ab6723)" d="M 62.760417 70.845412 
C 64.911765 70.845412 66.975289 69.990672 68.496522 68.469439 
C 70.017755 66.948206 70.872495 64.884682 70.872495 62.733333 
C 70.872495 60.581985 70.017755 58.518461 68.496522 56.997228 
C 66.975289 55.475995 64.911765 54.621255 62.760417 54.621255 
C 60.609068 54.621255 58.545544 55.475995 57.024311 56.997228 
C 55.503078 58.518461 54.648338 60.581985 54.648338 62.733333 
C 54.648338 64.884682 55.503078 66.948206 57.024311 68.469439 
C 58.545544 69.990672 60.609068 70.845412 62.760417 70.845412 
z
" style="fill:#ff7e00;stroke:#ff7e00;"/>
    <path clip-path="url(#pa708ab6723)" d="M 62.760417 48.767095 
C 65.067797 48.767095 67.280984 47.850363 68.912549 46.218799 
C 70.544113 44.587234 71.460845 42.374047 71.460845 40.066667 
C 71.460845 37.759286 70.544113 35.546099 68.912549 33.914535 
C 67.280984 32.28297 65.067797 31.366238 62.760417 31.366238 
C 60.453036 31.366238 58.239849 32.28297 56.608285 33.914535 
C 54.97672 35.546099 54.059988 37.759286 54.059988 40.066667 
C 54.059988 42.374047 54.97672 44.587234 56.608285 46.218799 
C 58.239849 47.850363 60.453036 48.767095 62.760417 48.767095 
z
" style="fill:#ff6000;stroke:#ff6000;"/>
    <path clip-path="url(#pa708ab6723)" d="M 62.760417 25.893552 
C 65.012933 25.893552 67.173495 24.998618 68.766265 23.405848 
C 70.359035 21.813079 71.253969 19.652516 71.253969 17.4 
C 71.253969 15.147484 70.359035 12.986921 68.766265 11.394152 
C 67.173495 9.801382 65.012933 8.906448 62.760417 8.906448 
C 60.5079 8.906448 58.347338 9.801382 56.754568 11.394152 
C 55.161799 12.986921 54.266865 15.147484 54.266865 17.4 
C 54.266865 19.652516 55.161799 21.813079 56.754568 23.405848 
C 58.347338 24.998618 60.5079 25.893552 62.760417 25.893552 
z
" style="fill:#ff6c00;stroke:#ff6c00;"/>
    <path clip-path="url(#pa708ab6723)" d="M 85.427083 230.719607 
C 87.898672 230.719607 90.269364 229.737635 92.017041 227.989957 
C 93.764718 226.24228 94.746691 223.871589 94.746691 221.4 
C 94.746691 218.928411 93.764718 216.55772 92.017041 214.810043 
C 90.269364 213.062365 87.898672 212.080393 85.427083 212.080393 
C 82.955495 212.080393 80.584803 213.062365 78.837126 214.810043 
C 77.089449 216.55772 76.107476 218.928411 76.107476 221.4 
C 76.107476 223.871589 77.089449 226.24228 78.837126 227.989957 
C 80.584803 229.737635 82.955495 230.719607 85.427083 230.719607 
z
" style="fill:#ffb900;stroke:#ffb900;"/>
    <path clip-path="url(#pa708ab6723)" d="M 85.427083 206.883119 
C 87.588432 206.883119 89.661548 206.024407 91.189852 204.496102 
C 92.718157 202.967798 93.576869 200.894682 93.576869 198.733333 
C 93.576869 196.571985 92.718157 194.498869 91.189852 192.970564 
C 89.661548 191.44226 87.588432 190.583547 85.427083 190.583547 
C 83.265735 190.583547 81.192619 191.44226 79.664314 192.970564 
C 78.13601 194.498869 77.277297 196.571985 77.277297 198.733333 
C 77.277297 200.894682 78.13601 202.967798 79.664314 204.496102 
C 81.192619 206.024407 83.265735 206.883119 85.427083 206.883119 
z
" style="fill:#ffcc00;stroke:#ffcc00;"/>
    <path clip-path="url(#pa708ab6723)" d="M 85.427083 185.777923 
C 88.002539 185.777923 90.472857 184.754684 92.293979 182.933562 
C 94.115101 181.11244 95.13834 178.642122 95.13834 176.066667 
C 95.13834 173.491211 94.115101 171.020893 92.293979 169.199771 
C 90.472857 167.378649 88.002539 166.35541 85.427083 166.35541 
C 82.851628 166.35541 80.38131 167.378649 78.560188 169.199771 
C 76.739066 171.020893 75.715827 173.491211 75.715827 176.066667 
C 75.715827 178.642122 76.739066 181.11244 78.560188 182.933562 
C 80.38131 184.754684 82.851628 185.777923 85.427083 185.777923 
z
" style="fill:#ffc100;stroke:#ffc100;"/>
    <path clip-path="url(#pa708ab6723)" d="M 85.427083 160.599455 
C 87.336401 160.599455 89.167775 159.840875 90.517867 158.490783 
C 91.867958 157.140692 92.626538 155.309318 92.626538 153.4 
C 92.626538 151.490682 91.867958 149.659308 90.517867 148.309217 
C 89.167775 146.959125 87.336401 146.200545 85.427083 146.200545 
C 83.517766 146.200545 81.686392 146.959125 80.3363 148.309217 
C 78.986209 149.659308 78.227629 151.490682 78.227629 153.4 
C 78.227629 155.309318 78.986209 157.140692 80.3363 158.490783 
C 81.686392 159.840875 83.517766 160.599455 85.427083 160.599455 
z
" style="fill:#ffc100;stroke:#ffc100;"/>
    <path clip-path="url(#pa708ab6723)" d="M 85.427083 136.678518 
C 87.003765 136.678518 88.516082 136.052096 89.630964 134.937214 
C 90.745846 133.822332 91.372268 132.310015 91.372268 130.733333 
C 91.372268 129.156652 90.745846 127.644335 89.630964 126.529453 
C 88.516082 125.41457 87.003765 124.788148 85.427083 124.788148 
C 83.850402 124.788148 82.338085 125.41457 81.223203 126.529453 
C 80.10832 127.644335 79.481898 129.156652 79.481898 130.733333 
C 79.481898 132.310015 80.10832 133.822332 81.223203 134.937214 
C 82.338085 136.052096 83.850402 136.678518 85.427083 136.678518 
z
" style="fill:#ffc100;stroke:#ffc100;"/>
    <path clip-path="url(#pa708ab6723)" d="M 85.427083 115.172744 
C 87.311637 115.172744 89.119258 114.424003 90.451839 113.091422 
C 91.78442 111.758842 92.533161 109.95122 92.533161 108.066667 
C 92.533161 106.182113 91.78442 104.374492 90.451839 103.041911 
C 89.119258 101.70933 87.311637 100.960589 85.427083 100.960589 
C 83.54253 100.960589 81.734908 101.70933 80.402328 103.041911 
C 79.069747 104.374492 78.321006 106.182113 78.321006 108.066667 
C 78.321006 109.95122 79.069747 111.758842 80.402328 113.091422 
C 81.734908 114.424003 83.54253 115.172744 85.427083 115.172744 
z
" style="fill:#ffd000;stroke:#ffd000;"/>
    <path clip-path="url(#pa708ab6723)" d="M 85.427083 91.486096 
C 87.041135 91.486096 88.589296 90.844827 89.730603 89.70352 
C 90.87191 88.562213 91.51318 87.014052 91.51318 85.4 
C 91.51318 83.785948 90.87191 82.237787 89.730603 81.09648 
C 88.589296 79.955173 87.041135 79.313904 85.427083 79.313904 
C 83.813032 79.313904 82.26487 79.955173 81.123563 81.09648 
C 79.982257 82.237787 79.340987 83.785948 79.340987 85.4 
C 79.340987 87.014052 79.982257 88.562213 81.123563 89.70352 
C 82.26487 90.844827 83.813032 91.486096 85.427083 91.486096 
z
" style="fill:#ffd300;stroke:#ffd300;"/>
    <path clip-path="url(#pa708ab6723)" d="M 85.427083 72.143201 
C 87.922609 72.143201 90.316261 71.151718 92.080864 69.387114 
C 93.845468 67.622511 94.836951 65.228859 94.836951 62.733333 
C 94.836951 60.237807 93.845468 57.844156 92.080864 56.079552 
C 90.316261 54.314949 87.922609 53.323466 85.427083 53.323466 
C 82.931557 53.323466 80.537906 54.314949 78.773302 56.079552 
C 77.008699 57.844156 76.017216 60.237807 76.017216 62.733333 
C 76.017216 65.228859 77.008699 67.622511 78.773302 69.387114 
C 80.537906 71.151718 82.931557 72.143201 85.427083 72.143201 
z
" style="fill:#ffea00;stroke:#ffea00;"/>
    <path clip-path="url(#pa708ab6723)" d="M 85.427083 45.741685 
C 86.932116 45.741685 88.375709 45.143729 89.439927 44.079511 
C 90.504146 43.015292 91.102102 41.571699 91.102102 40.066667 
C 91.102102 38.561634 90.504146 37.118041 89.439927 36.053823 
C 88.375709 34.989604 86.932116 34.391648 85.427083 34.391648 
C 83.922051 34.391648 82.478458 34.989604 81.414239 36.053823 
C 80.350021 37.118041 79.752065 38.561634 79.752065 40.066667 
C 79.752065 41.571699 80.350021 43.015292 81.414239 44.079511 
C 82.478458 45.143729 83.922051 45.741685 85.427083 45.741685 
z
" style="fill:#ffcc00;stroke:#ffcc00;"/>
    <path clip-path="url(#pa708ab6723)" d="M 85.427083 25.999997 
C 87.707829 25.999997 89.895469 25.093847 91.5082 23.481116 
C 93.120931 21.868385 94.027081 19.680746 94.027081 17.4 
C 94.027081 15.119254 93.120931 12.931615 91.5082 11.318884 
C 89.895469 9.706153 87.707829 8.800003 85.427083 8.800003 
C 83.146337 8.800003 80.958698 9.706153 79.345967 11.318884 
C 77.733236 12.931615 76.827086 15.119254 76.827086 17.4 
C 76.827086 19.680746 77.733236 21.868385 79.345967 23.481116 
C 80.958698 25.093847 83.146337 25.999997 85.427083 25.999997 
z
" style="fill:#ffa300;stroke:#ffa300;"/>
    <path clip-path="url(#pa708ab6723)" d="M 108.09375 229.663675 
C 110.285302 229.663675 112.387389 228.792962 113.937051 227.243301 
C 115.486712 225.693639 116.357425 223.591552 116.357425 221.4 
C 116.357425 219.208448 115.486712 217.106361 113.937051 215.556699 
C 112.387389 214.007038 110.285302 213.136325 108.09375 213.136325 
C 105.902198 213.136325 103.800111 214.007038 102.250449 215.556699 
C 100.700788 217.106361 99.830075 219.208448 99.830075 221.4 
C 99.830075 223.591552 100.700788 225.693639 102.250449 227.243301 
C 103.800111 228.792962 105.902198 229.663675 108.09375 229.663675 
z
" style="fill:#ebff0c;stroke:#ebff0c;"/>
    <path clip-path="url(#pa708ab6723)" d="M 108.09375 208.107158 
C 110.579717 208.107158 112.964201 207.119473 114.722045 205.361629 
C 116.47989 203.603784 117.467575 201.219301 117.467575 198.733333 
C 117.467575 196.247366 116.47989 193.862883 114.722045 192.105038 
C 112.964201 190.347194 110.579717 189.359508 108.09375 189.359508 
C 105.607783 189.359508 103.223299 190.347194 101.465455 192.105038 
C 99.70761 193.862883 98.719925 196.247366 98.719925 198.733333 
C 98.719925 201.219301 99.70761 203.603784 101.465455 205.361629 
C 103.223299 207.119473 105.607783 208.107158 108.09375 208.107158 
z
" style="fill:#ebff0c;stroke:#ebff0c;"/>
    <path clip-path="url(#pa708ab6723)" d="M 108.09375 182.636559 
C 109.836106 182.636559 111.507334 181.944314 112.739366 180.712282 
C 113.971397 179.480251 114.663642 177.809023 114.663642 176.066667 
C 114.663642 174.324311 113.971397 172.653083 112.739366 171.421051 
C 111.507334 170.18902 109.836106 169.496774 108.09375 169.496774 
C 106.351394 169.496774 104.680166 170.18902 103.448134 171.421051 
C 102.216103 172.653083 101.523858 174.324311 101.523858 176.066667 
C 101.523858 177.809023 102.216103 179.480251 103.448134 180.712282 
C 104.680166 181.944314 106.351394 182.636559 108.09375 182.636559 
z
" style="fill:#caff2c;stroke:#caff2c;"/>
    <path clip-path="url(#pa708ab6723)" d="M 108.09375 162.917122 
C 110.61772 162.917122 113.038655 161.914338 114.823372 160.129622 
C 116.608088 158.344905 117.610872 155.92397 117.610872 153.4 
C 117.610872 150.87603 116.608088 148.455095 114.823372 146.670378 
C 113.038655 144.885662 110.61772 143.882878 108.09375 143.882878 
C 105.56978 143.882878 103.148845 144.885662 101.364128 146.670378 
C 99.579412 148.455095 98.576628 150.87603 98.576628 153.4 
C 98.576628 155.92397 99.579412 158.344905 101.364128 160.129622 
C 103.148845 161.914338 105.56978 162.917122 108.09375 162.917122 
z
" style="fill:#d1ff26;stroke:#d1ff26;"/>
    <path clip-path="url(#pa708ab6723)" d="M 108.09375 138.093243 
C 110.045621 138.093243 111.917811 137.317756 113.297992 135.937575 
C 114.678173 134.557394 115.453659 132.685204 115.453659 130.733333 
C 115.453659 128.781463 114.678173 126.909273 113.297992 125.529092 
C 111.917811 124.148911 110.045621 123.373424 108.09375 123.373424 
C 106.141879 123.373424 104.269689 124.148911 102.889508 125.529092 
C 101.509327 126.909273 100.733841 128.781463 100.733841 130.733333 
C 100.733841 132.685204 101.509327 134.557394 102.889508 135.937575 
C 104.269689 137.317756 106.141879 138.093243 108.09375 138.093243 
z
" style="fill:#beff39;stroke:#beff39;"/>
    <path clip-path="url(#pa708ab6723)" d="M 108.09375 117.188636 
C 110.512925 117.188636 112.833342 116.227488 114.543956 114.516873 
C 116.254571 112.806258 117.215719 110.485841 117.215719 108.066667 
C 117.215719 105.647492 116.254571 103.327075 114.543956 101.61646 
C 112.833342 99.905845 110.512925 98.944697 108.09375 98.944697 
C 105.674575 98.944697 103.354158 99.905845 101.643544 101.61646 
C 99.932929 103.327075 98.971781 105.647492 98.971781 108.066667 
C 98.971781 110.485841 99.932929 112.806258 101.643544 114.516873 
C 103.354158 116.227488 105.674575 117.188636 108.09375 117.188636 
z
" style="fill:#b1ff46;stroke:#b1ff46;"/>
    <path clip-path="url(#pa708ab6723)" d="M 108.09375 92.48201 
C 109.971921 92.48201 111.77342 91.735805 113.101487 90.407737 
C 114.429555 89.07967 115.17576 87.278171 115.17576 85.4 
C 115.17576 83.521829 114.429555 81.72033 113.101487 80.392263 
C 111.77342 79.064195 109.971921 78.31799 108.09375 78.31799 
C 106.215579 78.31799 104.41408 79.064195 103.086013 80.392263 
C 101.757945 81.72033 101.01174 83.521829 101.01174 85.4 
C 101.01174 87.278171 101.757945 89.07967 103.086013 90.407737 
C 104.41408 91.735805 106.215579 92.48201 108.09375 92.48201 
z
" style="fill:#b7ff40;stroke:#b7ff40;"/>
    <path clip-path="url(#pa708ab6723)" d="M 108.09375 72.35246 
C 110.644772 72.35246 113.091655 71.338928 114.8955 69.535083 
C 116.699345 67.731238 117.712877 65.284356 117.712877 62.733333 
C 117.712877 60.182311 116.699345 57.735429 114.8955 55.931584 
C 113.091655 54.127739 110.644772 53.114207 108.09375 53.114207 
C 105.542728 53.114207 103.095845 54.127739 101.292 55.931584 
C 99.488155 57.735429 98.474623 60.182311 98.474623 62.733333 
C 98.474623 65.284356 99.488155 67.731238 101.292 69.535083 
C 103.095845 71.338928 105.542728 72.35246 108.09375 72.35246 
z
" style="fill:#c7ff30;stroke:#c7ff30;"/>
    <path clip-path="url(#pa708ab6723)" d="M 108.09375 47.297462 
C 110.011379 47.297462 111.850726 46.53558 113.206694 45.179611 
C 114.562663 43.823642 115.324545 41.984296 115.324545 40.066667 
C 115.324545 38.149037 114.562663 36.309691 113.206694 34.953722 
C 111.850726 33.597754 110.011379 32.835871 108.09375 32.835871 
C 106.176121 32.835871 104.336774 33.597754 102.980806 34.953722 
C 101.624837 36.309691 100.862955 38.149037 100.862955 40.066667 
C 100.862955 41.984296 101.624837 43.823642 102.980806 45.179611 
C 104.336774 46.53558 106.176121 47.297462 108.09375 47.297462 
z
" style="fill:#a7ff50;stroke:#a7ff50;"/>
    <path clip-path="url(#pa708ab6723)" d="M 108.09375 23.78108 
C 109.786032 23.78108 111.409231 23.108729 112.605855 21.912105 
C 113.802479 20.715481 114.47483 19.092282 114.47483 17.4 
C 114.47483 15.707718 113.802479 14.084519 112.605855 12.887895 
C 111.409231 11.691271 109.786032 11.01892 108.09375 11.01892 
C 106.401468 11.01892 104.778269 11.691271 103.581645 12.887895 
C 102.385021 14.084519 101.71267 15.707718 101.71267 17.4 
C 101.71267 19.092282 102.385021 20.715481 103.581645 21.912105 
C 104.778269 23.108729 106.401468 23.78108 108.09375 23.78108 
z
" style="fill:#beff39;stroke:#beff39;"/>
    <path clip-path="url(#pa708ab6723)" d="M 130.760417 228.957384 
C 132.764658 228.957384 134.687082 228.161091 136.104294 226.743878 
C 137.521507 225.326665 138.317801 223.404242 138.317801 221.4 
C 138.317801 219.395758 137.521507 217.473335 136.104294 216.056122 
C 134.687082 214.638909 132.764658 213.842616 130.760417 213.842616 
C 128.756175 213.842616 126.833752 214.638909 125.416539 216.056122 
C 123.999326 217.473335 123.203032 219.395758 123.203032 221.4 
C 123.203032 223.404242 123.999326 225.326665 125.416539 226.743878 
C 126.833752 228.161091 128.756175 228.957384 130.760417 228.957384 
z
" style="fill:#80ff77;stroke:#80ff77;"/>
    <path clip-path="url(#pa708ab6723)" d="M 130.760417 204.696679 
C 132.341915 204.696679 133.858851 204.068344 134.977139 202.950056 
C 136.095427 201.831768 136.723763 200.314831 136.723763 198.733333 
C 136.723763 197.151835 136.095427 195.634899 134.977139 194.516611 
C 133.858851 193.398323 132.341915 192.769987 130.760417 192.769987 
C 129.178919 192.769987 127.661982 193.398323 126.543694 194.516611 
C 125.425406 195.634899 124.797071 197.151835 124.797071 198.733333 
C 124.797071 200.314831 125.425406 201.831768 126.543694 202.950056 
C 127.661982 204.068344 129.178919 204.696679 130.760417 204.696679 
z
" style="fill:#6dff8a;stroke:#6dff8a;"/>
    <path clip-path="url(#pa708ab6723)" d="M 130.760417 185.44748 
C 133.248237 185.44748 135.634498 184.459058 137.393653 182.699903 
C 139.152808 180.940748 140.14123 178.554487 140.14123 176.066667 
C 140.14123 173.578846 139.152808 171.192585 137.393653 169.43343 
C 135.634498 167.674275 133.248237 166.685853 130.760417 166.685853 
C 128.272596 166.685853 125.886335 167.674275 124.12718 169.43343 
C 122.368025 171.192585 121.379603 173.578846 121.379603 176.066667 
C 121.379603 178.554487 122.368025 180.940748 124.12718 182.699903 
C 125.886335 184.459058 128.272596 185.44748 130.760417 185.44748 
z
" style="fill:#4dffaa;stroke:#4dffaa;"/>
    <path clip-path="url(#pa708ab6723)" d="M 130.760417 159.702307 
C 132.431808 159.702307 134.034969 159.038256 135.216821 157.856404 
C 136.398673 156.674552 137.062724 155.071391 137.062724 153.4 
C 137.062724 151.728609 136.398673 150.125448 135.216821 148.943596 
C 134.034969 147.761744 132.431808 147.097693 130.760417 147.097693 
C 129.089025 147.097693 127.485865 147.761744 126.304013 148.943596 
C 125.12216 150.125448 124.458109 151.728609 124.458109 153.4 
C 124.458109 155.071391 125.12216 156.674552 126.304013 157.856404 
C 127.485865 159.038256 129.089025 159.702307 130.760417 159.702307 
z
" style="fill:#66ff90;stroke:#66ff90;"/>
    <path clip-path="url(#pa708ab6723)" d="M 130.760417 138.25049 
C 132.75399 138.25049 134.66618 137.458435 136.075849 136.048766 
C 137.485518 134.639097 138.277573 132.726907 138.277573 130.733333 
C 138.277573 128.73976 137.485518 126.82757 136.075849 125.417901 
C 134.66618 124.008232 132.75399 123.216177 130.760417 123.216177 
C 128.766843 123.216177 126.854653 124.008232 125.444984 125.417901 
C 124.035315 126.82757 123.24326 128.73976 123.24326 130.733333 
C 123.24326 132.726907 124.035315 134.639097 125.444984 136.048766 
C 126.854653 137.458435 128.766843 138.25049 130.760417 138.25049 
z
" style="fill:#87ff70;stroke:#87ff70;"/>
    <path clip-path="url(#pa708ab6723)" d="M 130.760417 117.909171 
C 133.370679 117.909171 135.874384 116.872103 137.720118 115.026368 
C 139.565853 113.180634 140.602921 110.676929 140.602921 108.066667 
C 140.602921 105.456404 139.565853 102.952699 137.720118 101.106965 
C 135.874384 99.261231 133.370679 98.224162 130.760417 98.224162 
C 128.150154 98.224162 125.646449 99.261231 123.800715 101.106965 
C 121.954981 102.952699 120.917912 105.456404 120.917912 108.066667 
C 120.917912 110.676929 121.954981 113.180634 123.800715 115.026368 
C 125.646449 116.872103 128.150154 117.909171 130.760417 117.909171 
z
" style="fill:#8aff6d;stroke:#8aff6d;"/>
    <path clip-path="url(#pa708ab6723)" d="M 130.760417 95.4 
C 133.412448 95.4 135.956215 94.346337 137.831484 92.471068 
C 139.706754 90.595799 140.760417 88.052031 140.760417 85.4 
C 140.760417 82.747969 139.706754 80.204201 137.831484 78.328932 
C 135.956215 76.453663 133.412448 75.4 130.760417 75.4 
C 128.108386 75.4 125.564618 76.453663 123.689349 78.328932 
C 121.81408 80.204201 120.760417 82.747969 120.760417 85.4 
C 120.760417 88.052031 121.81408 90.595799 123.689349 92.471068 
C 125.564618 94.346337 128.108386 95.4 130.760417 95.4 
z
" style="fill:#83ff73;stroke:#83ff73;"/>
    <path clip-path="url(#pa708ab6723)" d="M 130.760417 70.588909 
C 132.84374 70.588909 134.842015 69.761196 136.315147 68.288064 
C 137.788279 66.814932 138.615992 64.816656 138.615992 62.733333 
C 138.615992 60.65001 137.788279 58.651735 136.315147 57.178603 
C 134.842015 55.705471 132.84374 54.877758 130.760417 54.877758 
C 128.677094 54.877758 126.678818 55.705471 125.205686 57.178603 
C 123.732554 58.651735 122.904841 60.65001 122.904841 62.733333 
C 122.904841 64.816656 123.732554 66.814932 125.205686 68.288064 
C 126.678818 69.761196 128.677094 70.588909 130.760417 70.588909 
z
" style="fill:#73ff83;stroke:#73ff83;"/>
    <path clip-path="url(#pa708ab6723)" d="M 130.760417 49.466732 
C 133.253343 49.466732 135.644501 48.476282 137.407266 46.713516 
C 139.170032 44.950751 140.160482 42.559593 140.160482 40.066667 
C 140.160482 37.57374 139.170032 35.182582 137.407266 33.419817 
C 135.644501 31.657052 133.253343 30.666602 130.760417 30.666602 
C 128.26749 30.666602 125.876332 31.657052 124.113567 33.419817 
C 122.350802 35.182582 121.360352 37.57374 121.360352 40.066667 
C 121.360352 42.559593 122.350802 44.950751 124.113567 46.713516 
C 125.876332 48.476282 128.26749 49.466732 130.760417 49.466732 
z
" style="fill:#53ffa4;stroke:#53ffa4;"/>
    <path clip-path="url(#pa708ab6723)" d="M 130.760417 24.251397 
C 132.577428 24.251397 134.320265 23.52949 135.605086 22.244669 
C 136.889907 20.959848 137.611813 19.217012 137.611813 17.4 
C 137.611813 15.582988 136.889907 13.840152 135.605086 12.555331 
C 134.320265 11.27051 132.577428 10.548603 130.760417 10.548603 
C 128.943405 10.548603 127.200569 11.27051 125.915748 12.555331 
C 124.630926 13.840152 123.90902 15.582988 123.90902 17.4 
C 123.90902 19.217012 124.630926 20.959848 125.915748 22.244669 
C 127.200569 23.52949 128.943405 24.251397 130.760417 24.251397 
z
" style="fill:#3cffba;stroke:#3cffba;"/>
    <path clip-path="url(#pa708ab6723)" d="M 153.427083 229.87798 
C 155.67547 229.87798 157.832071 228.984686 159.42192 227.394837 
C 161.01177 225.804988 161.905063 223.648387 161.905063 221.4 
C 161.905063 219.151613 161.01177 216.995012 159.42192 215.405163 
C 157.832071 213.815314 155.67547 212.92202 153.427083 212.92202 
C 151.178697 212.92202 149.022096 213.815314 147.432246 215.405163 
C 145.842397 216.995012 144.949104 219.151613 144.949104 221.4 
C 144.949104 223.648387 145.842397 225.804988 147.432246 227.394837 
C 149.022096 228.984686 151.178697 229.87798 153.427083 229.87798 
z
" style="fill:#23ffd4;stroke:#23ffd4;"/>
    <path clip-path="url(#pa708ab6723)" d="M 153.427083 208.422982 
C 155.996808 208.422982 158.46163 207.40202 160.2787 205.58495 
C 162.09577 203.76788 163.116732 201.303058 163.116732 198.733333 
C 163.116732 196.163608 162.09577 193.698787 160.2787 191.881717 
C 158.46163 190.064647 155.996808 189.043685 153.427083 189.043685 
C 150.857358 189.043685 148.392537 190.064647 146.575467 191.881717 
C 144.758397 193.698787 143.737435 196.163608 143.737435 198.733333 
C 143.737435 201.303058 144.758397 203.76788 146.575467 205.58495 
C 148.392537 207.40202 150.857358 208.422982 153.427083 208.422982 
z
" style="fill:#02e8f4;stroke:#02e8f4;"/>
    <path clip-path="url(#pa708ab6723)" d="M 153.427083 184.273337 
C 155.603518 184.273337 157.691104 183.40863 159.230076 181.869659 
C 160.769047 180.330687 161.633754 178.243101 161.633754 176.066667 
C 161.633754 173.890232 160.769047 171.802646 159.230076 170.263674 
C 157.691104 168.724703 155.603518 167.859996 153.427083 167.859996 
C 151.250649 167.859996 149.163063 168.724703 147.624091 170.263674 
C 146.08512 171.802646 145.220413 173.890232 145.220413 176.066667 
C 145.220413 178.243101 146.08512 180.330687 147.624091 181.869659 
C 149.163063 183.40863 151.250649 184.273337 153.427083 184.273337 
z
" style="fill:#06ecf1;stroke:#06ecf1;"/>
    <path clip-path="url(#pa708ab6723)" d="M 153.427083 161.84745 
C 155.667373 161.84745 157.816208 160.957373 159.400332 159.373249 
C 160.984457 157.789125 161.874533 155.64029 161.874533 153.4 
C 161.874533 151.15971 160.984457 149.010875 159.400332 147.426751 
C 157.816208 145.842627 155.667373 144.95255 153.427083 144.95255 
C 151.186793 144.95255 149.037958 145.842627 147.453834 147.426751 
C 145.86971 149.010875 144.979633 151.15971 144.979633 153.4 
C 144.979633 155.64029 145.86971 157.789125 147.453834 159.373249 
C 149.037958 160.957373 151.186793 161.84745 153.427083 161.84745 
z
" style="fill:#00d0ff;stroke:#00d0ff;"/>
    <path clip-path="url(#pa708ab6723)" d="M 153.427083 136.359796 
C 154.919239 136.359796 156.35048 135.766957 157.405593 134.711843 
C 158.460707 133.65673 159.053546 132.225489 159.053546 130.733333 
C 159.053546 129.241178 158.460707 127.809936 157.405593 126.754823 
C 156.35048 125.69971 154.919239 125.10687 153.427083 125.10687 
C 151.934928 125.10687 150.503686 125.69971 149.448573 126.754823 
C 148.39346 127.809936 147.80062 129.241178 147.80062 130.733333 
C 147.80062 132.225489 148.39346 133.65673 149.448573 134.711843 
C 150.503686 135.766957 151.934928 136.359796 153.427083 136.359796 
z
" style="fill:#16ffe1;stroke:#16ffe1;"/>
    <path clip-path="url(#pa708ab6723)" d="M 153.427083 115.453596 
C 155.38612 115.453596 157.265183 114.675262 158.650431 113.290014 
C 160.035679 111.904766 160.814013 110.025703 160.814013 108.066667 
C 160.814013 106.10763 160.035679 104.228567 158.650431 102.843319 
C 157.265183 101.458071 155.38612 100.679737 153.427083 100.679737 
C 151.468047 100.679737 149.588984 101.458071 148.203736 102.843319 
C 146.818488 104.228567 146.040154 106.10763 146.040154 108.066667 
C 146.040154 110.025703 146.818488 111.904766 148.203736 113.290014 
C 149.588984 114.675262 151.468047 115.453596 153.427083 115.453596 
z
" style="fill:#43ffb4;stroke:#43ffb4;"/>
    <path clip-path="url(#pa708ab6723)" d="M 153.427083 91.27908 
C 154.986234 91.27908 156.481735 90.659623 157.584221 89.557137 
C 158.686707 88.454652 159.306163 86.95915 159.306163 85.4 
C 159.306163 83.84085 158.686707 82.345348 157.584221 81.242863 
C 156.481735 80.140377 154.986234 79.52092 153.427083 79.52092 
C 151.867933 79.52092 150.372432 80.140377 149.269946 81.242863 
C 148.16746 82.345348 147.548003 83.84085 147.548003 85.4 
C 147.548003 86.95915 148.16746 88.454652 149.269946 89.557137 
C 150.372432 90.659623 151.867933 91.27908 153.427083 91.27908 
z
" style="fill:#16ffe1;stroke:#16ffe1;"/>
    <path clip-path="url(#pa708ab6723)" d="M 153.427083 69.863506 
C 155.318027 69.863506 157.131777 69.112226 158.468877 67.775127 
C 159.805976 66.438027 160.557256 64.624277 160.557256 62.733333 
C 160.557256 60.842389 159.805976 59.028639 158.468877 57.69154 
C 157.131777 56.354441 155.318027 55.603161 153.427083 55.603161 
C 151.536139 55.603161 149.722389 56.354441 148.38529 57.69154 
C 147.048191 59.028639 146.296911 60.842389 146.296911 62.733333 
C 146.296911 64.624277 147.048191 66.438027 148.38529 67.775127 
C 149.722389 69.112226 151.536139 69.863506 153.427083 69.863506 
z
" style="fill:#00e0fb;stroke:#00e0fb;"/>
    <path clip-path="url(#pa708ab6723)" d="M 153.427083 47.323367 
C 155.351583 47.323367 157.197519 46.558755 158.558345 45.197928 
C 159.919172 43.837102 160.683783 41.991166 160.683783 40.066667 
C 160.683783 38.142167 159.919172 36.296231 158.558345 34.935405 
C 157.197519 33.574578 155.351583 32.809967 153.427083 32.809967 
C 151.502584 32.809967 149.656648 33.574578 148.295822 34.935405 
C 146.934995 36.296231 146.170383 38.142167 146.170383 40.066667 
C 146.170383 41.991166 146.934995 43.837102 148.295822 45.197928 
C 149.656648 46.558755 151.502584 47.323367 153.427083 47.323367 
z
" style="fill:#00ccff;stroke:#00ccff;"/>
    <path clip-path="url(#pa708ab6723)" d="M 153.427083 26.597431 
C 155.86627 26.597431 158.205883 25.628331 159.930649 23.903566 
C 161.655415 22.1788 162.624514 19.839187 162.624514 17.4 
C 162.624514 14.960813 161.655415 12.6212 159.930649 10.896434 
C 158.205883 9.171669 155.86627 8.202569 153.427083 8.202569 
C 150.987896 8.202569 148.648283 9.171669 146.923518 10.896434 
C 145.198752 12.6212 144.229653 14.960813 144.229653 17.4 
C 144.229653 19.839187 145.198752 22.1788 146.923518 23.903566 
C 148.648283 25.628331 150.987896 26.597431 153.427083 26.597431 
z
" style="fill:#00b4ff;stroke:#00b4ff;"/>
    <path clip-path="url(#pa708ab6723)" d="M 176.09375 227.0308 
C 177.587056 227.0308 179.0194 226.437503 180.075327 225.381577 
C 181.131253 224.32565 181.72455 222.893306 181.72455 221.4 
C 181.72455 219.906694 181.131253 218.47435 180.075327 217.418423 
C 179.0194 216.362497 177.587056 215.7692 176.09375 215.7692 
C 174.600444 215.7692 173.1681 216.362497 172.112173 217.418423 
C 171.056247 218.47435 170.46295 219.906694 170.46295 221.4 
C 170.46295 222.893306 171.056247 224.32565 172.112173 225.381577 
C 173.1681 226.437503 174.600444 227.0308 176.09375 227.0308 
z
" style="fill:#0078ff;stroke:#0078ff;"/>
    <path clip-path="url(#pa708ab6723)" d="M 176.09375 206.464945 
C 178.144197 206.464945 180.11094 205.650293 181.560825 204.200408 
C 183.01071 202.750523 183.825361 200.783781 183.825361 198.733333 
C 183.825361 196.682886 183.01071 194.716144 181.560825 193.266259 
C 180.11094 191.816373 178.144197 191.001722 176.09375 191.001722 
C 174.043303 191.001722 172.07656 191.816373 170.626675 193.266259 
C 169.17679 194.716144 168.362139 196.682886 168.362139 198.733333 
C 168.362139 200.783781 169.17679 202.750523 170.626675 204.200408 
C 172.07656 205.650293 174.043303 206.464945 176.09375 206.464945 
z
" style="fill:#0080ff;stroke:#0080ff;"/>
    <path clip-path="url(#pa708ab6723)" d="M 176.09375 183.244522 
C 177.997339 183.244522 179.823219 182.488218 181.16926 181.142177 
C 182.515301 179.796136 183.271605 177.970256 183.271605 176.066667 
C 183.271605 174.163077 182.515301 172.337198 181.16926 170.991157 
C 179.823219 169.645116 177.997339 168.888812 176.09375 168.888812 
C 174.190161 168.888812 172.364281 169.645116 171.01824 170.991157 
C 169.672199 172.337198 168.915895 174.163077 168.915895 176.066667 
C 168.915895 177.970256 169.672199 179.796136 171.01824 181.142177 
C 172.364281 182.488218 174.190161 183.244522 176.09375 183.244522 
z
" style="fill:#0080ff;stroke:#0080ff;"/>
    <path clip-path="url(#pa708ab6723)" d="M 176.09375 162.042645 
C 178.385806 162.042645 180.584294 161.132001 182.205023 159.511273 
C 183.825751 157.890544 184.736395 155.692056 184.736395 153.4 
C 184.736395 151.107944 183.825751 148.909456 182.205023 147.288727 
C 180.584294 145.667999 178.385806 144.757355 176.09375 144.757355 
C 173.801694 144.757355 171.603206 145.667999 169.982477 147.288727 
C 168.361749 148.909456 167.451105 151.107944 167.451105 153.4 
C 167.451105 155.692056 168.361749 157.890544 169.982477 159.511273 
C 171.603206 161.132001 173.801694 162.042645 176.09375 162.042645 
z
" style="fill:#0080ff;stroke:#0080ff;"/>
    <path clip-path="url(#pa708ab6723)" d="M 176.09375 138.067222 
C 178.03872 138.067222 179.904291 137.294477 181.279592 135.919176 
C 182.654894 134.543874 183.427639 132.678303 183.427639 130.733333 
C 183.427639 128.788363 182.654894 126.922792 181.279592 125.547491 
C 179.904291 124.17219 178.03872 123.399445 176.09375 123.399445 
C 174.14878 123.399445 172.283209 124.17219 170.907908 125.547491 
C 169.532606 126.922792 168.759861 128.788363 168.759861 130.733333 
C 168.759861 132.678303 169.532606 134.543874 170.907908 135.919176 
C 172.283209 137.294477 174.14878 138.067222 176.09375 138.067222 
z
" style="fill:#0064ff;stroke:#0064ff;"/>
    <path clip-path="url(#pa708ab6723)" d="M 176.09375 113.717512 
C 177.592372 113.717512 179.029816 113.122104 180.089501 112.062418 
C 181.149187 111.002732 181.744596 109.565288 181.744596 108.066667 
C 181.744596 106.568045 181.149187 105.130601 180.089501 104.070915 
C 179.029816 103.01123 177.592372 102.415821 176.09375 102.415821 
C 174.595128 102.415821 173.157684 103.01123 172.097999 104.070915 
C 171.038313 105.130601 170.442904 106.568045 170.442904 108.066667 
C 170.442904 109.565288 171.038313 111.002732 172.097999 112.062418 
C 173.157684 113.122104 174.595128 113.717512 176.09375 113.717512 
z
" style="fill:#007cff;stroke:#007cff;"/>
    <path clip-path="url(#pa708ab6723)" d="M 176.09375 95.004051 
C 178.640774 95.004051 181.083822 93.992108 182.88484 92.19109 
C 184.685858 90.390072 185.697801 87.947024 185.697801 85.4 
C 185.697801 82.852976 184.685858 80.409928 182.88484 78.60891 
C 181.083822 76.807892 178.640774 75.795949 176.09375 75.795949 
C 173.546726 75.795949 171.103678 76.807892 169.30266 78.60891 
C 167.501642 80.409928 166.489699 82.852976 166.489699 85.4 
C 166.489699 87.947024 167.501642 90.390072 169.30266 92.19109 
C 171.103678 93.992108 173.546726 95.004051 176.09375 95.004051 
z
" style="fill:#0058ff;stroke:#0058ff;"/>
    <path clip-path="url(#pa708ab6723)" d="M 176.09375 71.889183 
C 178.52191 71.889183 180.850945 70.924465 182.567913 69.207497 
C 184.284881 67.490528 185.249599 65.161493 185.249599 62.733333 
C 185.249599 60.305174 184.284881 57.976138 182.567913 56.25917 
C 180.850945 54.542202 178.52191 53.577484 176.09375 53.577484 
C 173.66559 53.577484 171.336555 54.542202 169.619587 56.25917 
C 167.902619 57.976138 166.937901 60.305174 166.937901 62.733333 
C 166.937901 65.161493 167.902619 67.490528 169.619587 69.207497 
C 171.336555 70.924465 173.66559 71.889183 176.09375 71.889183 
z
" style="fill:#005cff;stroke:#005cff;"/>
    <path clip-path="url(#pa708ab6723)" d="M 176.09375 49.663893 
C 178.638964 49.663893 181.080275 48.652668 182.880013 46.85293 
C 184.679752 45.053192 185.690976 42.611881 185.690976 40.066667 
C 185.690976 37.521453 184.679752 35.080141 182.880013 33.280403 
C 181.080275 31.480665 178.638964 30.469441 176.09375 30.469441 
C 173.548536 30.469441 171.107225 31.480665 169.307487 33.280403 
C 167.507748 35.080141 166.496524 37.521453 166.496524 40.066667 
C 166.496524 42.611881 167.507748 45.053192 169.307487 46.85293 
C 171.107225 48.652668 173.548536 49.663893 176.09375 49.663893 
z
" style="fill:#0054ff;stroke:#0054ff;"/>
    <path clip-path="url(#pa708ab6723)" d="M 176.09375 25.075562 
C 178.129333 25.075562 180.081817 24.266816 181.521192 22.827442 
C 182.960566 21.388067 183.769312 19.435583 183.769312 17.4 
C 183.769312 15.364417 182.960566 13.411933 181.521192 11.972558 
C 180.081817 10.533184 178.129333 9.724438 176.09375 9.724438 
C 174.058167 9.724438 172.105683 10.533184 170.666308 11.972558 
C 169.226934 13.411933 168.418188 15.364417 168.418188 17.4 
C 168.418188 19.435583 169.226934 21.388067 170.666308 22.827442 
C 172.105683 24.266816 174.058167 25.075562 176.09375 25.075562 
z
" style="fill:#0054ff;stroke:#0054ff;"/>
    <path clip-path="url(#pa708ab6723)" d="M 198.760417 229.912785 
C 201.018034 229.912785 203.183488 229.015824 204.779865 227.419448 
C 206.376241 225.823072 207.273201 223.657617 207.273201 221.4 
C 207.273201 219.142383 206.376241 216.976928 204.779865 215.380552 
C 203.183488 213.784176 201.018034 212.887215 198.760417 212.887215 
C 196.5028 212.887215 194.337345 213.784176 192.740969 215.380552 
C 191.144593 216.976928 190.247632 219.142383 190.247632 221.4 
C 190.247632 223.657617 191.144593 225.823072 192.740969 227.419448 
C 194.337345 229.015824 196.5028 229.912785 198.760417 229.912785 
z
" style="fill:#0000df;stroke:#0000df;"/>
    <path clip-path="url(#pa708ab6723)" d="M 198.760417 206.84687 
C 200.912152 206.84687 202.976047 205.991977 204.497554 204.47047 
C 206.01906 202.948964 206.873953 200.885068 206.873953 198.733333 
C 206.873953 196.581598 206.01906 194.517703 204.497554 192.996196 
C 202.976047 191.47469 200.912152 190.619797 198.760417 190.619797 
C 196.608682 190.619797 194.544786 191.47469 193.02328 192.996196 
C 191.501773 194.517703 190.64688 196.581598 190.64688 198.733333 
C 190.64688 200.885068 191.501773 202.948964 193.02328 204.47047 
C 194.544786 205.991977 196.608682 206.84687 198.760417 206.84687 
z
" style="fill:#0000ff;stroke:#0000ff;"/>
    <path clip-path="url(#pa708ab6723)" d="M 198.760417 184.546623 
C 201.009327 184.546623 203.166431 183.653121 204.756651 182.062901 
C 206.346871 180.472681 207.240373 178.315577 207.240373 176.066667 
C 207.240373 173.817756 206.346871 171.660652 204.756651 170.070432 
C 203.166431 168.480212 201.009327 167.586711 198.760417 167.586711 
C 196.511506 167.586711 194.354402 168.480212 192.764182 170.070432 
C 191.173962 171.660652 190.280461 173.817756 190.280461 176.066667 
C 190.280461 178.315577 191.173962 180.472681 192.764182 182.062901 
C 194.354402 183.653121 196.511506 184.546623 198.760417 184.546623 
z
" style="fill:#0014ff;stroke:#0014ff;"/>
    <path clip-path="url(#pa708ab6723)" d="M 198.760417 160.308179 
C 200.592487 160.308179 202.349767 159.58029 203.645237 158.28482 
C 204.940706 156.989351 205.668596 155.232071 205.668596 153.4 
C 205.668596 151.567929 204.940706 149.810649 203.645237 148.51518 
C 202.349767 147.21971 200.592487 146.491821 198.760417 146.491821 
C 196.928346 146.491821 195.171066 147.21971 193.875596 148.51518 
C 192.580127 149.810649 191.852238 151.567929 191.852238 153.4 
C 191.852238 155.232071 192.580127 156.989351 193.875596 158.28482 
C 195.171066 159.58029 196.928346 160.308179 198.760417 160.308179 
z
" style="fill:#0000ff;stroke:#0000ff;"/>
    <path clip-path="url(#pa708ab6723)" d="M 198.760417 137.840279 
C 200.645201 137.840279 202.453043 137.091447 203.785786 135.758703 
C 205.11853 134.425959 205.867363 132.618117 205.867363 130.733333 
C 205.867363 128.848549 205.11853 127.040707 203.785786 125.707964 
C 202.453043 124.37522 200.645201 123.626387 198.760417 123.626387 
C 196.875633 123.626387 195.067791 124.37522 193.735047 125.707964 
C 192.402303 127.040707 191.653471 128.848549 191.653471 130.733333 
C 191.653471 132.618117 192.402303 134.425959 193.735047 135.758703 
C 195.067791 137.091447 196.875633 137.840279 198.760417 137.840279 
z
" style="fill:#0000ff;stroke:#0000ff;"/>
    <path clip-path="url(#pa708ab6723)" d="M 198.760417 113.603513 
C 200.228806 113.603513 201.637251 113.020116 202.675559 111.981809 
C 203.713866 110.943501 204.297263 109.535056 204.297263 108.066667 
C 204.297263 106.598278 203.713866 105.189833 202.675559 104.151525 
C 201.637251 103.113217 200.228806 102.52982 198.760417 102.52982 
C 197.292028 102.52982 195.883583 103.113217 194.845275 104.151525 
C 193.806967 105.189833 193.22357 106.598278 193.22357 108.066667 
C 193.22357 109.535056 193.806967 110.943501 194.845275 111.981809 
C 195.883583 113.020116 197.292028 113.603513 198.760417 113.603513 
z
" style="fill:#0000ff;stroke:#0000ff;"/>
    <path clip-path="url(#pa708ab6723)" d="M 198.760417 92.518047 
C 200.648145 92.518047 202.458811 91.768045 203.793636 90.433219 
C 205.128461 89.098394 205.878464 87.287728 205.878464 85.4 
C 205.878464 83.512272 205.128461 81.701606 203.793636 80.366781 
C 202.458811 79.031955 200.648145 78.281953 198.760417 78.281953 
C 196.872689 78.281953 195.062023 79.031955 193.727197 80.366781 
C 192.392372 81.701606 191.64237 83.512272 191.64237 85.4 
C 191.64237 87.287728 192.392372 89.098394 193.727197 90.433219 
C 195.062023 91.768045 196.872689 92.518047 198.760417 92.518047 
z
" style="fill:#0000fa;stroke:#0000fa;"/>
    <path clip-path="url(#pa708ab6723)" d="M 198.760417 69.535653 
C 200.564413 69.535653 202.294765 68.818918 203.570383 67.5433 
C 204.846001 66.267682 205.562736 64.53733 205.562736 62.733333 
C 205.562736 60.929337 204.846001 59.198985 203.570383 57.923367 
C 202.294765 56.647749 200.564413 55.931014 198.760417 55.931014 
C 196.95642 55.931014 195.226068 56.647749 193.95045 57.923367 
C 192.674832 59.198985 191.958097 60.929337 191.958097 62.733333 
C 191.958097 64.53733 192.674832 66.267682 193.95045 67.5433 
C 195.226068 68.818918 196.95642 69.535653 198.760417 69.535653 
z
" style="fill:#0000ff;stroke:#0000ff;"/>
    <path clip-path="url(#pa708ab6723)" d="M 198.760417 48.373796 
C 200.963493 48.373796 203.076634 47.498505 204.634444 45.940694 
C 206.192255 44.382884 207.067546 42.269743 207.067546 40.066667 
C 207.067546 37.86359 206.192255 35.750449 204.634444 34.192639 
C 203.076634 32.634829 200.963493 31.759537 198.760417 31.759537 
C 196.55734 31.759537 194.444199 32.634829 192.886389 34.192639 
C 191.328579 35.750449 190.453287 37.86359 190.453287 40.066667 
C 190.453287 42.269743 191.328579 44.382884 192.886389 45.940694 
C 194.444199 47.498505 196.55734 48.373796 198.760417 48.373796 
z
" style="fill:#0000ff;stroke:#0000ff;"/>
    <path clip-path="url(#pa708ab6723)" d="M 198.760417 25.741451 
C 200.972595 25.741451 203.094467 24.862543 204.658713 23.298296 
C 206.222959 21.73405 207.101867 19.612179 207.101867 17.4 
C 207.101867 15.187821 206.222959 13.06595 204.658713 11.501704 
C 203.094467 9.937457 200.972595 9.058549 198.760417 9.058549 
C 196.548238 9.058549 194.426367 9.937457 192.86212 11.501704 
C 191.297874 13.06595 190.418966 15.187821 190.418966 17.4 
C 190.418966 19.612179 191.297874 21.73405 192.86212 23.298296 
C 194.426367 24.862543 196.548238 25.741451 198.760417 25.741451 
z
" style="fill:#0000f6;stroke:#0000f6;"/>
    <path clip-path="url(#pa708ab6723)" d="M 221.427083 229.341467 
C 223.533185 229.341467 225.55331 228.504704 227.042548 227.015465 
C 228.531787 225.526226 229.36855 223.506102 229.36855 221.4 
C 229.36855 219.293898 228.531787 217.273774 227.042548 215.784535 
C 225.55331 214.295296 223.533185 213.458533 221.427083 213.458533 
C 219.320982 213.458533 217.300857 214.295296 215.811618 215.784535 
C 214.32238 217.273774 213.485617 219.293898 213.485617 221.4 
C 213.485617 223.506102 214.32238 225.526226 215.811618 227.015465 
C 217.300857 228.504704 219.320982 229.341467 221.427083 229.341467 
z
" style="fill:#000080;stroke:#000080;"/>
    <path clip-path="url(#pa708ab6723)" d="M 221.427083 205.799228 
C 223.300981 205.799228 225.09838 205.054721 226.423426 203.729676 
C 227.748471 202.40463 228.492978 200.607231 228.492978 198.733333 
C 228.492978 196.859436 227.748471 195.062037 226.423426 193.736991 
C 225.09838 192.411946 223.300981 191.667438 221.427083 191.667438 
C 219.553186 191.667438 217.755787 192.411946 216.430741 193.736991 
C 215.105696 195.062037 214.361188 196.859436 214.361188 198.733333 
C 214.361188 200.607231 215.105696 202.40463 216.430741 203.729676 
C 217.755787 205.054721 219.553186 205.799228 221.427083 205.799228 
z
" style="fill:#000080;stroke:#000080;"/>
    <path clip-path="url(#pa708ab6723)" d="M 221.427083 181.850827 
C 222.961061 181.850827 224.432417 181.241371 225.517102 180.156686 
C 226.601788 179.072 227.211244 177.600644 227.211244 176.066667 
C 227.211244 174.532689 226.601788 173.061333 225.517102 171.976648 
C 224.432417 170.891962 222.961061 170.282506 221.427083 170.282506 
C 219.893106 170.282506 218.42175 170.891962 217.337064 171.976648 
C 216.252379 173.061333 215.642923 174.532689 215.642923 176.066667 
C 215.642923 177.600644 216.252379 179.072 217.337064 180.156686 
C 218.42175 181.241371 219.893106 181.850827 221.427083 181.850827 
z
" style="fill:#000080;stroke:#000080;"/>
    <path clip-path="url(#pa708ab6723)" d="M 221.427083 163.368218 
C 224.070686 163.368218 226.606369 162.317904 228.475678 160.448594 
C 230.344987 158.579285 231.395301 156.043602 231.395301 153.4 
C 231.395301 150.756398 230.344987 148.220715 228.475678 146.351406 
C 226.606369 144.482096 224.070686 143.431782 221.427083 143.431782 
C 218.783481 143.431782 216.247798 144.482096 214.378489 146.351406 
C 212.50918 148.220715 211.458865 150.756398 211.458865 153.4 
C 211.458865 156.043602 212.50918 158.579285 214.378489 160.448594 
C 216.247798 162.317904 218.783481 163.368218 221.427083 163.368218 
z
" style="fill:#000080;stroke:#000080;"/>
    <path clip-path="url(#pa708ab6723)" d="M 221.427083 138.034529 
C 223.363383 138.034529 225.220638 137.265229 226.589808 135.896058 
C 227.958979 134.526888 228.728279 132.669633 228.728279 130.733333 
C 228.728279 128.797034 227.958979 126.939779 226.589808 125.570608 
C 225.220638 124.201438 223.363383 123.432138 221.427083 123.432138 
C 219.490784 123.432138 217.633529 124.201438 216.264358 125.570608 
C 214.895188 126.939779 214.125888 128.797034 214.125888 130.733333 
C 214.125888 132.669633 214.895188 134.526888 216.264358 135.896058 
C 217.633529 137.265229 219.490784 138.034529 221.427083 138.034529 
z
" style="fill:#000080;stroke:#000080;"/>
    <path clip-path="url(#pa708ab6723)" d="M 221.427083 116.097991 
C 223.557016 116.097991 225.599998 115.25176 227.106087 113.745671 
C 228.612177 112.239581 229.458408 110.196599 229.458408 108.066667 
C 229.458408 105.936734 228.612177 103.893752 227.106087 102.387663 
C 225.599998 100.881573 223.557016 100.035342 221.427083 100.035342 
C 219.297151 100.035342 217.254169 100.881573 215.748079 102.387663 
C 214.24199 103.893752 213.395759 105.936734 213.395759 108.066667 
C 213.395759 110.196599 214.24199 112.239581 215.748079 113.745671 
C 217.254169 115.25176 219.297151 116.097991 221.427083 116.097991 
z
" style="fill:#000080;stroke:#000080;"/>
    <path clip-path="url(#pa708ab6723)" d="M 221.427083 95.361932 
C 224.069019 95.361932 226.603103 94.31228 228.471233 92.44415 
C 230.339363 90.576019 231.389015 88.041935 231.389015 85.4 
C 231.389015 82.758065 230.339363 80.223981 228.471233 78.35585 
C 226.603103 76.48772 224.069019 75.438068 221.427083 75.438068 
C 218.785148 75.438068 216.251064 76.48772 214.382934 78.35585 
C 212.514803 80.223981 211.465151 82.758065 211.465151 85.4 
C 211.465151 88.041935 212.514803 90.576019 214.382934 92.44415 
C 216.251064 94.31228 218.785148 95.361932 221.427083 95.361932 
z
" style="fill:#000080;stroke:#000080;"/>
    <path clip-path="url(#pa708ab6723)" d="M 221.427083 70.517345 
C 223.491427 70.517345 225.471499 69.697172 226.931211 68.237461 
C 228.390922 66.777749 229.211095 64.797677 229.211095 62.733333 
C 229.211095 60.668989 228.390922 58.688918 226.931211 57.229206 
C 225.471499 55.769495 223.491427 54.949322 221.427083 54.949322 
C 219.362739 54.949322 217.382668 55.769495 215.922956 57.229206 
C 214.463245 58.688918 213.643072 60.668989 213.643072 62.733333 
C 213.643072 64.797677 214.463245 66.777749 215.922956 68.237461 
C 217.382668 69.697172 219.362739 70.517345 221.427083 70.517345 
z
" style="fill:#000080;stroke:#000080;"/>
    <path clip-path="url(#pa708ab6723)" d="M 221.427083 47.261299 
C 223.335122 47.261299 225.165269 46.503227 226.514456 45.15404 
C 227.863643 43.804853 228.621715 41.974705 228.621715 40.066667 
C 228.621715 38.158628 227.863643 36.328481 226.514456 34.979294 
C 225.165269 33.630107 223.335122 32.872035 221.427083 32.872035 
C 219.519045 32.872035 217.688897 33.630107 216.33971 34.979294 
C 214.990523 36.328481 214.232451 38.158628 214.232451 40.066667 
C 214.232451 41.974705 214.990523 43.804853 216.33971 45.15404 
C 217.688897 46.503227 219.519045 47.261299 221.427083 47.261299 
z
" style="fill:#000080;stroke:#000080;"/>
    <path clip-path="url(#pa708ab6723)" d="M 221.427083 25.541602 
C 223.586261 25.541602 225.657296 24.683751 227.184065 23.156982 
C 228.710835 21.630212 229.568685 19.559178 229.568685 17.4 
C 229.568685 15.240822 228.710835 13.169788 227.184065 11.643018 
C 225.657296 10.116249 223.586261 9.258398 221.427083 9.258398 
C 219.267905 9.258398 217.196871 10.116249 215.670101 11.643018 
C 214.143332 13.169788 213.285482 15.240822 213.285482 17.4 
C 213.285482 19.559178 214.143332 21.630212 215.670101 23.156982 
C 217.196871 24.683751 219.267905 25.541602 221.427083 25.541602 
z
" style="fill:#000080;stroke:#000080;"/>
   </g>
   <g id="LineCollection_1">
    <path clip-path="url(#pa708ab6723)" d="M 17.427083 221.4 
L 17.427083 198.733333 
" style="fill:none;stroke:#000080;stroke-width:3;"/>
    <path clip-path="url(#pa708ab6723)" d="M 17.427083 198.733333 
L 17.427083 176.066667 
" style="fill:none;stroke:#000080;stroke-width:3;"/>
    <path clip-path="url(#pa708ab6723)" d="M 17.427083 176.066667 
L 17.427083 153.4 
" style="fill:none;stroke:#000080;stroke-width:3;"/>
    <path clip-path="url(#pa708ab6723)" d="M 17.427083 153.4 
L 17.427083 130.733333 
" style="fill:none;stroke:#000080;stroke-width:3;"/>
    <path clip-path="url(#pa708ab6723)" d="M 17.427083 130.733333 
L 17.427083 108.066667 
" style="fill:none;stroke:#000080;stroke-width:3;"/>
    <path clip-path="url(#pa708ab6723)" d="M 17.427083 108.066667 
L 17.427083 85.4 
" style="fill:none;stroke:#000080;stroke-width:3;"/>
    <path clip-path="url(#pa708ab6723)" d="M 17.427083 85.4 
L 17.427083 62.733333 
" style="fill:none;stroke:#000080;stroke-width:3;"/>
    <path clip-path="url(#pa708ab6723)" d="M 17.427083 62.733333 
L 17.427083 40.066667 
" style="fill:none;stroke:#000080;stroke-width:3;"/>
    <path clip-path="url(#pa708ab6723)" d="M 17.427083 40.066667 
L 17.427083 17.4 
" style="fill:none;stroke:#000080;stroke-width:3;"/>
    <path clip-path="url(#pa708ab6723)" d="M 40.09375 221.4 
L 40.09375 198.733333 
" style="fill:none;stroke:#0000ff;stroke-width:3;"/>
    <path clip-path="url(#pa708ab6723)" d="M 40.09375 198.733333 
L 40.09375 176.066667 
" style="fill:none;stroke:#000080;stroke-width:3;"/>
    <path clip-path="url(#pa708ab6723)" d="M 40.09375 176.066667 
L 40.09375 153.4 
" style="fill:none;stroke:#00008d;stroke-width:3;"/>
    <path clip-path="url(#pa708ab6723)" d="M 40.09375 153.4 
L 40.09375 130.733333 
" style="fill:none;stroke:#000080;stroke-width:3;"/>
    <path clip-path="url(#pa708ab6723)" d="M 40.09375 130.733333 
L 40.09375 108.066667 
" style="fill:none;stroke:#0044ff;stroke-width:3;"/>
    <path clip-path="url(#pa708ab6723)" d="M 40.09375 108.066667 
L 40.09375 85.4 
" style="fill:none;stroke:#000cff;stroke-width:3;"/>
    <path clip-path="url(#pa708ab6723)" d="M 40.09375 85.4 
L 40.09375 62.733333 
" style="fill:none;stroke:#000089;stroke-width:3;"/>
    <path clip-path="url(#pa708ab6723)" d="M 40.09375 62.733333 
L 40.09375 40.066667 
" style="fill:none;stroke:#0000ff;stroke-width:3;"/>
    <path clip-path="url(#pa708ab6723)" d="M 40.09375 40.066667 
L 40.09375 17.4 
" style="fill:none;stroke:#0000e8;stroke-width:3;"/>
    <path clip-path="url(#pa708ab6723)" d="M 62.760417 221.4 
L 62.760417 198.733333 
" style="fill:none;stroke:#000092;stroke-width:3;"/>
    <path clip-path="url(#pa708ab6723)" d="M 62.760417 198.733333 
L 62.760417 176.066667 
" style="fill:none;stroke:#0000bb;stroke-width:3;"/>
    <path clip-path="url(#pa708ab6723)" d="M 62.760417 176.066667 
L 62.760417 153.4 
" style="fill:none;stroke:#0064ff;stroke-width:3;"/>
    <path clip-path="url(#pa708ab6723)" d="M 62.760417 153.4 
L 62.760417 130.733333 
" style="fill:none;stroke:#0000f6;stroke-width:3;"/>
    <path clip-path="url(#pa708ab6723)" d="M 62.760417 130.733333 
L 62.760417 108.066667 
" style="fill:none;stroke:#0000ff;stroke-width:3;"/>
    <path clip-path="url(#pa708ab6723)" d="M 62.760417 108.066667 
L 62.760417 85.4 
" style="fill:none;stroke:#000096;stroke-width:3;"/>
    <path clip-path="url(#pa708ab6723)" d="M 62.760417 85.4 
L 62.760417 62.733333 
" style="fill:none;stroke:#0098ff;stroke-width:3;"/>
    <path clip-path="url(#pa708ab6723)" d="M 62.760417 62.733333 
L 62.760417 40.066667 
" style="fill:none;stroke:#0054ff;stroke-width:3;"/>
    <path clip-path="url(#pa708ab6723)" d="M 62.760417 40.066667 
L 62.760417 17.4 
" style="fill:none;stroke:#0000df;stroke-width:3;"/>
    <path clip-path="url(#pa708ab6723)" d="M 85.427083 221.4 
L 85.427083 198.733333 
" style="fill:none;stroke:#000cff;stroke-width:3;"/>
    <path clip-path="url(#pa708ab6723)" d="M 85.427083 198.733333 
L 85.427083 176.066667 
" style="fill:none;stroke:#0000d6;stroke-width:3;"/>
    <path clip-path="url(#pa708ab6723)" d="M 85.427083 176.066667 
L 85.427083 153.4 
" style="fill:none;stroke:#00008d;stroke-width:3;"/>
    <path clip-path="url(#pa708ab6723)" d="M 85.427083 153.4 
L 85.427083 130.733333 
" style="fill:none;stroke:#000080;stroke-width:3;"/>
    <path clip-path="url(#pa708ab6723)" d="M 85.427083 130.733333 
L 85.427083 108.066667 
" style="fill:none;stroke:#00009f;stroke-width:3;"/>
    <path clip-path="url(#pa708ab6723)" d="M 85.427083 108.066667 
L 85.427083 85.4 
" style="fill:none;stroke:#000080;stroke-width:3;"/>
    <path clip-path="url(#pa708ab6723)" d="M 85.427083 85.4 
L 85.427083 62.733333 
" style="fill:none;stroke:#0000c4;stroke-width:3;"/>
    <path clip-path="url(#pa708ab6723)" d="M 85.427083 62.733333 
L 85.427083 40.066667 
" style="fill:none;stroke:#0000bf;stroke-width:3;"/>
    <path clip-path="url(#pa708ab6723)" d="M 85.427083 40.066667 
L 85.427083 17.4 
" style="fill:none;stroke:#0000d6;stroke-width:3;"/>
    <path clip-path="url(#pa708ab6723)" d="M 108.09375 221.4 
L 108.09375 198.733333 
" style="fill:none;stroke:#000084;stroke-width:3;"/>
    <path clip-path="url(#pa708ab6723)" d="M 108.09375 198.733333 
L 108.09375 176.066667 
" style="fill:none;stroke:#0000ff;stroke-width:3;"/>
    <path clip-path="url(#pa708ab6723)" d="M 108.09375 176.066667 
L 108.09375 153.4 
" style="fill:none;stroke:#000092;stroke-width:3;"/>
    <path clip-path="url(#pa708ab6723)" d="M 108.09375 153.4 
L 108.09375 130.733333 
" style="fill:none;stroke:#0000ff;stroke-width:3;"/>
    <path clip-path="url(#pa708ab6723)" d="M 108.09375 130.733333 
L 108.09375 108.066667 
" style="fill:none;stroke:#0000cd;stroke-width:3;"/>
    <path clip-path="url(#pa708ab6723)" d="M 108.09375 108.066667 
L 108.09375 85.4 
" style="fill:none;stroke:#00009b;stroke-width:3;"/>
    <path clip-path="url(#pa708ab6723)" d="M 108.09375 85.4 
L 108.09375 62.733333 
" style="fill:none;stroke:#0000e8;stroke-width:3;"/>
    <path clip-path="url(#pa708ab6723)" d="M 108.09375 62.733333 
L 108.09375 40.066667 
" style="fill:none;stroke:#004cff;stroke-width:3;"/>
    <path clip-path="url(#pa708ab6723)" d="M 108.09375 40.066667 
L 108.09375 17.4 
" style="fill:none;stroke:#0000cd;stroke-width:3;"/>
    <path clip-path="url(#pa708ab6723)" d="M 130.760417 221.4 
L 130.760417 198.733333 
" style="fill:none;stroke:#0000b2;stroke-width:3;"/>
    <path clip-path="url(#pa708ab6723)" d="M 130.760417 198.733333 
L 130.760417 176.066667 
" style="fill:none;stroke:#0000e3;stroke-width:3;"/>
    <path clip-path="url(#pa708ab6723)" d="M 130.760417 176.066667 
L 130.760417 153.4 
" style="fill:none;stroke:#0000e3;stroke-width:3;"/>
    <path clip-path="url(#pa708ab6723)" d="M 130.760417 153.4 
L 130.760417 130.733333 
" style="fill:none;stroke:#0000e8;stroke-width:3;"/>
    <path clip-path="url(#pa708ab6723)" d="M 130.760417 130.733333 
L 130.760417 108.066667 
" style="fill:none;stroke:#000092;stroke-width:3;"/>
    <path clip-path="url(#pa708ab6723)" d="M 130.760417 108.066667 
L 130.760417 85.4 
" style="fill:none;stroke:#0010ff;stroke-width:3;"/>
    <path clip-path="url(#pa708ab6723)" d="M 130.760417 85.4 
L 130.760417 62.733333 
" style="fill:none;stroke:#0008ff;stroke-width:3;"/>
    <path clip-path="url(#pa708ab6723)" d="M 130.760417 62.733333 
L 130.760417 40.066667 
" style="fill:none;stroke:#0084ff;stroke-width:3;"/>
    <path clip-path="url(#pa708ab6723)" d="M 130.760417 40.066667 
L 130.760417 17.4 
" style="fill:none;stroke:#0000fa;stroke-width:3;"/>
    <path clip-path="url(#pa708ab6723)" d="M 153.427083 221.4 
L 153.427083 198.733333 
" style="fill:none;stroke:#09f0ee;stroke-width:3;"/>
    <path clip-path="url(#pa708ab6723)" d="M 153.427083 198.733333 
L 153.427083 176.066667 
" style="fill:none;stroke:#00009f;stroke-width:3;"/>
    <path clip-path="url(#pa708ab6723)" d="M 153.427083 176.066667 
L 153.427083 153.4 
" style="fill:none;stroke:#004cff;stroke-width:3;"/>
    <path clip-path="url(#pa708ab6723)" d="M 153.427083 153.4 
L 153.427083 130.733333 
" style="fill:none;stroke:#0000d1;stroke-width:3;"/>
    <path clip-path="url(#pa708ab6723)" d="M 153.427083 130.733333 
L 153.427083 108.066667 
" style="fill:none;stroke:#0000e3;stroke-width:3;"/>
    <path clip-path="url(#pa708ab6723)" d="M 153.427083 108.066667 
L 153.427083 85.4 
" style="fill:none;stroke:#0000f6;stroke-width:3;"/>
    <path clip-path="url(#pa708ab6723)" d="M 153.427083 85.4 
L 153.427083 62.733333 
" style="fill:none;stroke:#0000bf;stroke-width:3;"/>
    <path clip-path="url(#pa708ab6723)" d="M 153.427083 62.733333 
L 153.427083 40.066667 
" style="fill:none;stroke:#0000d1;stroke-width:3;"/>
    <path clip-path="url(#pa708ab6723)" d="M 153.427083 40.066667 
L 153.427083 17.4 
" style="fill:none;stroke:#0000fa;stroke-width:3;"/>
    <path clip-path="url(#pa708ab6723)" d="M 176.09375 221.4 
L 176.09375 198.733333 
" style="fill:none;stroke:#000089;stroke-width:3;"/>
    <path clip-path="url(#pa708ab6723)" d="M 176.09375 198.733333 
L 176.09375 176.066667 
" style="fill:none;stroke:#000084;stroke-width:3;"/>
    <path clip-path="url(#pa708ab6723)" d="M 176.09375 176.066667 
L 176.09375 153.4 
" style="fill:none;stroke:#000089;stroke-width:3;"/>
    <path clip-path="url(#pa708ab6723)" d="M 176.09375 153.4 
L 176.09375 130.733333 
" style="fill:none;stroke:#0010ff;stroke-width:3;"/>
    <path clip-path="url(#pa708ab6723)" d="M 176.09375 130.733333 
L 176.09375 108.066667 
" style="fill:none;stroke:#0000ad;stroke-width:3;"/>
    <path clip-path="url(#pa708ab6723)" d="M 176.09375 108.066667 
L 176.09375 85.4 
" style="fill:none;stroke:#0000cd;stroke-width:3;"/>
    <path clip-path="url(#pa708ab6723)" d="M 176.09375 85.4 
L 176.09375 62.733333 
" style="fill:none;stroke:#0000cd;stroke-width:3;"/>
    <path clip-path="url(#pa708ab6723)" d="M 176.09375 62.733333 
L 176.09375 40.066667 
" style="fill:none;stroke:#0000ff;stroke-width:3;"/>
    <path clip-path="url(#pa708ab6723)" d="M 176.09375 40.066667 
L 176.09375 17.4 
" style="fill:none;stroke:#000080;stroke-width:3;"/>
    <path clip-path="url(#pa708ab6723)" d="M 198.760417 221.4 
L 198.760417 198.733333 
" style="fill:none;stroke:#00b0ff;stroke-width:3;"/>
    <path clip-path="url(#pa708ab6723)" d="M 198.760417 198.733333 
L 198.760417 176.066667 
" style="fill:none;stroke:#0000ff;stroke-width:3;"/>
    <path clip-path="url(#pa708ab6723)" d="M 198.760417 176.066667 
L 198.760417 153.4 
" style="fill:none;stroke:#0000d6;stroke-width:3;"/>
    <path clip-path="url(#pa708ab6723)" d="M 198.760417 153.4 
L 198.760417 130.733333 
" style="fill:none;stroke:#00009f;stroke-width:3;"/>
    <path clip-path="url(#pa708ab6723)" d="M 198.760417 130.733333 
L 198.760417 108.066667 
" style="fill:none;stroke:#000080;stroke-width:3;"/>
    <path clip-path="url(#pa708ab6723)" d="M 198.760417 108.066667 
L 198.760417 85.4 
" style="fill:none;stroke:#000089;stroke-width:3;"/>
    <path clip-path="url(#pa708ab6723)" d="M 198.760417 85.4 
L 198.760417 62.733333 
" style="fill:none;stroke:#00009b;stroke-width:3;"/>
    <path clip-path="url(#pa708ab6723)" d="M 198.760417 62.733333 
L 198.760417 40.066667 
" style="fill:none;stroke:#00009f;stroke-width:3;"/>
    <path clip-path="url(#pa708ab6723)" d="M 198.760417 40.066667 
L 198.760417 17.4 
" style="fill:none;stroke:#001cff;stroke-width:3;"/>
    <path clip-path="url(#pa708ab6723)" d="M 221.427083 221.4 
L 221.427083 198.733333 
" style="fill:none;stroke:#000080;stroke-width:3;"/>
    <path clip-path="url(#pa708ab6723)" d="M 221.427083 198.733333 
L 221.427083 176.066667 
" style="fill:none;stroke:#000080;stroke-width:3;"/>
    <path clip-path="url(#pa708ab6723)" d="M 221.427083 176.066667 
L 221.427083 153.4 
" style="fill:none;stroke:#000080;stroke-width:3;"/>
    <path clip-path="url(#pa708ab6723)" d="M 221.427083 153.4 
L 221.427083 130.733333 
" style="fill:none;stroke:#000080;stroke-width:3;"/>
    <path clip-path="url(#pa708ab6723)" d="M 221.427083 130.733333 
L 221.427083 108.066667 
" style="fill:none;stroke:#000080;stroke-width:3;"/>
    <path clip-path="url(#pa708ab6723)" d="M 221.427083 108.066667 
L 221.427083 85.4 
" style="fill:none;stroke:#000080;stroke-width:3;"/>
    <path clip-path="url(#pa708ab6723)" d="M 221.427083 85.4 
L 221.427083 62.733333 
" style="fill:none;stroke:#000080;stroke-width:3;"/>
    <path clip-path="url(#pa708ab6723)" d="M 221.427083 62.733333 
L 221.427083 40.066667 
" style="fill:none;stroke:#000080;stroke-width:3;"/>
    <path clip-path="url(#pa708ab6723)" d="M 221.427083 40.066667 
L 221.427083 17.4 
" style="fill:none;stroke:#000080;stroke-width:3;"/>
    <path clip-path="url(#pa708ab6723)" d="M 17.427083 221.4 
L 40.09375 221.4 
" style="fill:none;stroke:#d10000;stroke-width:3;"/>
    <path clip-path="url(#pa708ab6723)" d="M 17.427083 198.733333 
L 40.09375 198.733333 
" style="fill:none;stroke:#002cff;stroke-width:3;"/>
    <path clip-path="url(#pa708ab6723)" d="M 17.427083 176.066667 
L 40.09375 176.066667 
" style="fill:none;stroke:#000cff;stroke-width:3;"/>
    <path clip-path="url(#pa708ab6723)" d="M 17.427083 153.4 
L 40.09375 153.4 
" style="fill:none;stroke:#ffea00;stroke-width:3;"/>
    <path clip-path="url(#pa708ab6723)" d="M 17.427083 130.733333 
L 40.09375 130.733333 
" style="fill:none;stroke:#ffea00;stroke-width:3;"/>
    <path clip-path="url(#pa708ab6723)" d="M 17.427083 108.066667 
L 40.09375 108.066667 
" style="fill:none;stroke:#0cf4eb;stroke-width:3;"/>
    <path clip-path="url(#pa708ab6723)" d="M 17.427083 85.4 
L 40.09375 85.4 
" style="fill:none;stroke:#26ffd1;stroke-width:3;"/>
    <path clip-path="url(#pa708ab6723)" d="M 17.427083 62.733333 
L 40.09375 62.733333 
" style="fill:none;stroke:#94ff63;stroke-width:3;"/>
    <path clip-path="url(#pa708ab6723)" d="M 17.427083 40.066667 
L 40.09375 40.066667 
" style="fill:none;stroke:#5dff9a;stroke-width:3;"/>
    <path clip-path="url(#pa708ab6723)" d="M 17.427083 17.4 
L 40.09375 17.4 
" style="fill:none;stroke:#00d0ff;stroke-width:3;"/>
    <path clip-path="url(#pa708ab6723)" d="M 40.09375 221.4 
L 62.760417 221.4 
" style="fill:none;stroke:#ff6400;stroke-width:3;"/>
    <path clip-path="url(#pa708ab6723)" d="M 40.09375 198.733333 
L 62.760417 198.733333 
" style="fill:none;stroke:#00a8ff;stroke-width:3;"/>
    <path clip-path="url(#pa708ab6723)" d="M 40.09375 176.066667 
L 62.760417 176.066667 
" style="fill:none;stroke:#001cff;stroke-width:3;"/>
    <path clip-path="url(#pa708ab6723)" d="M 40.09375 153.4 
L 62.760417 153.4 
" style="fill:none;stroke:#f4f802;stroke-width:3;"/>
    <path clip-path="url(#pa708ab6723)" d="M 40.09375 130.733333 
L 62.760417 130.733333 
" style="fill:none;stroke:#63ff94;stroke-width:3;"/>
    <path clip-path="url(#pa708ab6723)" d="M 40.09375 108.066667 
L 62.760417 108.066667 
" style="fill:none;stroke:#3cffba;stroke-width:3;"/>
    <path clip-path="url(#pa708ab6723)" d="M 40.09375 85.4 
L 62.760417 85.4 
" style="fill:none;stroke:#a0ff56;stroke-width:3;"/>
    <path clip-path="url(#pa708ab6723)" d="M 40.09375 62.733333 
L 62.760417 62.733333 
" style="fill:none;stroke:#26ffd1;stroke-width:3;"/>
    <path clip-path="url(#pa708ab6723)" d="M 40.09375 40.066667 
L 62.760417 40.066667 
" style="fill:none;stroke:#73ff83;stroke-width:3;"/>
    <path clip-path="url(#pa708ab6723)" d="M 40.09375 17.4 
L 62.760417 17.4 
" style="fill:none;stroke:#3cffba;stroke-width:3;"/>
    <path clip-path="url(#pa708ab6723)" d="M 62.760417 221.4 
L 85.427083 221.4 
" style="fill:none;stroke:#ff7300;stroke-width:3;"/>
    <path clip-path="url(#pa708ab6723)" d="M 62.760417 198.733333 
L 85.427083 198.733333 
" style="fill:none;stroke:#0088ff;stroke-width:3;"/>
    <path clip-path="url(#pa708ab6723)" d="M 62.760417 176.066667 
L 85.427083 176.066667 
" style="fill:none;stroke:#43ffb4;stroke-width:3;"/>
    <path clip-path="url(#pa708ab6723)" d="M 62.760417 153.4 
L 85.427083 153.4 
" style="fill:none;stroke:#8dff6a;stroke-width:3;"/>
    <path clip-path="url(#pa708ab6723)" d="M 62.760417 130.733333 
L 85.427083 130.733333 
" style="fill:none;stroke:#0088ff;stroke-width:3;"/>
    <path clip-path="url(#pa708ab6723)" d="M 62.760417 108.066667 
L 85.427083 108.066667 
" style="fill:none;stroke:#83ff73;stroke-width:3;"/>
    <path clip-path="url(#pa708ab6723)" d="M 62.760417 85.4 
L 85.427083 85.4 
" style="fill:none;stroke:#00a8ff;stroke-width:3;"/>
    <path clip-path="url(#pa708ab6723)" d="M 62.760417 62.733333 
L 85.427083 62.733333 
" style="fill:none;stroke:#ff1600;stroke-width:3;"/>
    <path clip-path="url(#pa708ab6723)" d="M 62.760417 40.066667 
L 85.427083 40.066667 
" style="fill:none;stroke:#0048ff;stroke-width:3;"/>
    <path clip-path="url(#pa708ab6723)" d="M 62.760417 17.4 
L 85.427083 17.4 
" style="fill:none;stroke:#80ff77;stroke-width:3;"/>
    <path clip-path="url(#pa708ab6723)" d="M 85.427083 221.4 
L 108.09375 221.4 
" style="fill:none;stroke:#f4f802;stroke-width:3;"/>
    <path clip-path="url(#pa708ab6723)" d="M 85.427083 198.733333 
L 108.09375 198.733333 
" style="fill:none;stroke:#63ff94;stroke-width:3;"/>
    <path clip-path="url(#pa708ab6723)" d="M 85.427083 176.066667 
L 108.09375 176.066667 
" style="fill:none;stroke:#0ff8e7;stroke-width:3;"/>
    <path clip-path="url(#pa708ab6723)" d="M 85.427083 153.4 
L 108.09375 153.4 
" style="fill:none;stroke:#80ff77;stroke-width:3;"/>
    <path clip-path="url(#pa708ab6723)" d="M 85.427083 130.733333 
L 108.09375 130.733333 
" style="fill:none;stroke:#006cff;stroke-width:3;"/>
    <path clip-path="url(#pa708ab6723)" d="M 85.427083 108.066667 
L 108.09375 108.066667 
" style="fill:none;stroke:#9dff5a;stroke-width:3;"/>
    <path clip-path="url(#pa708ab6723)" d="M 85.427083 85.4 
L 108.09375 85.4 
" style="fill:none;stroke:#006cff;stroke-width:3;"/>
    <path clip-path="url(#pa708ab6723)" d="M 85.427083 62.733333 
L 108.09375 62.733333 
" style="fill:none;stroke:#800000;stroke-width:3;"/>
    <path clip-path="url(#pa708ab6723)" d="M 85.427083 40.066667 
L 108.09375 40.066667 
" style="fill:none;stroke:#005cff;stroke-width:3;"/>
    <path clip-path="url(#pa708ab6723)" d="M 85.427083 17.4 
L 108.09375 17.4 
" style="fill:none;stroke:#43ffb4;stroke-width:3;"/>
    <path clip-path="url(#pa708ab6723)" d="M 108.09375 221.4 
L 130.760417 221.4 
" style="fill:none;stroke:#fbf100;stroke-width:3;"/>
    <path clip-path="url(#pa708ab6723)" d="M 108.09375 198.733333 
L 130.760417 198.733333 
" style="fill:none;stroke:#00dcfe;stroke-width:3;"/>
    <path clip-path="url(#pa708ab6723)" d="M 108.09375 176.066667 
L 130.760417 176.066667 
" style="fill:none;stroke:#83ff73;stroke-width:3;"/>
    <path clip-path="url(#pa708ab6723)" d="M 108.09375 153.4 
L 130.760417 153.4 
" style="fill:none;stroke:#0cf4eb;stroke-width:3;"/>
    <path clip-path="url(#pa708ab6723)" d="M 108.09375 130.733333 
L 130.760417 130.733333 
" style="fill:none;stroke:#00a4ff;stroke-width:3;"/>
    <path clip-path="url(#pa708ab6723)" d="M 108.09375 108.066667 
L 130.760417 108.066667 
" style="fill:none;stroke:#e7ff0f;stroke-width:3;"/>
    <path clip-path="url(#pa708ab6723)" d="M 108.09375 85.4 
L 130.760417 85.4 
" style="fill:none;stroke:#00b4ff;stroke-width:3;"/>
    <path clip-path="url(#pa708ab6723)" d="M 108.09375 62.733333 
L 130.760417 62.733333 
" style="fill:none;stroke:#ffc100;stroke-width:3;"/>
    <path clip-path="url(#pa708ab6723)" d="M 108.09375 40.066667 
L 130.760417 40.066667 
" style="fill:none;stroke:#6dff8a;stroke-width:3;"/>
    <path clip-path="url(#pa708ab6723)" d="M 108.09375 17.4 
L 130.760417 17.4 
" style="fill:none;stroke:#0cf4eb;stroke-width:3;"/>
    <path clip-path="url(#pa708ab6723)" d="M 130.760417 221.4 
L 153.427083 221.4 
" style="fill:none;stroke:#d4ff23;stroke-width:3;"/>
    <path clip-path="url(#pa708ab6723)" d="M 130.760417 198.733333 
L 153.427083 198.733333 
" style="fill:none;stroke:#00b0ff;stroke-width:3;"/>
    <path clip-path="url(#pa708ab6723)" d="M 130.760417 176.066667 
L 153.427083 176.066667 
" style="fill:none;stroke:#ffd300;stroke-width:3;"/>
    <path clip-path="url(#pa708ab6723)" d="M 130.760417 153.4 
L 153.427083 153.4 
" style="fill:none;stroke:#0ff8e7;stroke-width:3;"/>
    <path clip-path="url(#pa708ab6723)" d="M 130.760417 130.733333 
L 153.427083 130.733333 
" style="fill:none;stroke:#0058ff;stroke-width:3;"/>
    <path clip-path="url(#pa708ab6723)" d="M 130.760417 108.066667 
L 153.427083 108.066667 
" style="fill:none;stroke:#63ff94;stroke-width:3;"/>
    <path clip-path="url(#pa708ab6723)" d="M 130.760417 85.4 
L 153.427083 85.4 
" style="fill:none;stroke:#00b8ff;stroke-width:3;"/>
    <path clip-path="url(#pa708ab6723)" d="M 130.760417 62.733333 
L 153.427083 62.733333 
" style="fill:none;stroke:#c1ff36;stroke-width:3;"/>
    <path clip-path="url(#pa708ab6723)" d="M 130.760417 40.066667 
L 153.427083 40.066667 
" style="fill:none;stroke:#ebff0c;stroke-width:3;"/>
    <path clip-path="url(#pa708ab6723)" d="M 130.760417 17.4 
L 153.427083 17.4 
" style="fill:none;stroke:#63ff94;stroke-width:3;"/>
    <path clip-path="url(#pa708ab6723)" d="M 153.427083 221.4 
L 176.09375 221.4 
" style="fill:none;stroke:#007cff;stroke-width:3;"/>
    <path clip-path="url(#pa708ab6723)" d="M 153.427083 198.733333 
L 176.09375 198.733333 
" style="fill:none;stroke:#ffcc00;stroke-width:3;"/>
    <path clip-path="url(#pa708ab6723)" d="M 153.427083 176.066667 
L 176.09375 176.066667 
" style="fill:none;stroke:#56ffa0;stroke-width:3;"/>
    <path clip-path="url(#pa708ab6723)" d="M 153.427083 153.4 
L 176.09375 153.4 
" style="fill:none;stroke:#f4f802;stroke-width:3;"/>
    <path clip-path="url(#pa708ab6723)" d="M 153.427083 130.733333 
L 176.09375 130.733333 
" style="fill:none;stroke:#0064ff;stroke-width:3;"/>
    <path clip-path="url(#pa708ab6723)" d="M 153.427083 108.066667 
L 176.09375 108.066667 
" style="fill:none;stroke:#009cff;stroke-width:3;"/>
    <path clip-path="url(#pa708ab6723)" d="M 153.427083 85.4 
L 176.09375 85.4 
" style="fill:none;stroke:#02e8f4;stroke-width:3;"/>
    <path clip-path="url(#pa708ab6723)" d="M 153.427083 62.733333 
L 176.09375 62.733333 
" style="fill:none;stroke:#b4ff43;stroke-width:3;"/>
    <path clip-path="url(#pa708ab6723)" d="M 153.427083 40.066667 
L 176.09375 40.066667 
" style="fill:none;stroke:#caff2c;stroke-width:3;"/>
    <path clip-path="url(#pa708ab6723)" d="M 153.427083 17.4 
L 176.09375 17.4 
" style="fill:none;stroke:#beff39;stroke-width:3;"/>
    <path clip-path="url(#pa708ab6723)" d="M 176.09375 221.4 
L 198.760417 221.4 
" style="fill:none;stroke:#0088ff;stroke-width:3;"/>
    <path clip-path="url(#pa708ab6723)" d="M 176.09375 198.733333 
L 198.760417 198.733333 
" style="fill:none;stroke:#ffd300;stroke-width:3;"/>
    <path clip-path="url(#pa708ab6723)" d="M 176.09375 176.066667 
L 198.760417 176.066667 
" style="fill:none;stroke:#5aff9d;stroke-width:3;"/>
    <path clip-path="url(#pa708ab6723)" d="M 176.09375 153.4 
L 198.760417 153.4 
" style="fill:none;stroke:#73ff83;stroke-width:3;"/>
    <path clip-path="url(#pa708ab6723)" d="M 176.09375 130.733333 
L 198.760417 130.733333 
" style="fill:none;stroke:#30ffc7;stroke-width:3;"/>
    <path clip-path="url(#pa708ab6723)" d="M 176.09375 108.066667 
L 198.760417 108.066667 
" style="fill:none;stroke:#0030ff;stroke-width:3;"/>
    <path clip-path="url(#pa708ab6723)" d="M 176.09375 85.4 
L 198.760417 85.4 
" style="fill:none;stroke:#77ff80;stroke-width:3;"/>
    <path clip-path="url(#pa708ab6723)" d="M 176.09375 62.733333 
L 198.760417 62.733333 
" style="fill:none;stroke:#19ffde;stroke-width:3;"/>
    <path clip-path="url(#pa708ab6723)" d="M 176.09375 40.066667 
L 198.760417 40.066667 
" style="fill:none;stroke:#ffb200;stroke-width:3;"/>
    <path clip-path="url(#pa708ab6723)" d="M 176.09375 17.4 
L 198.760417 17.4 
" style="fill:none;stroke:#baff3c;stroke-width:3;"/>
    <path clip-path="url(#pa708ab6723)" d="M 198.760417 221.4 
L 221.427083 221.4 
" style="fill:none;stroke:#aaff4d;stroke-width:3;"/>
    <path clip-path="url(#pa708ab6723)" d="M 198.760417 198.733333 
L 221.427083 198.733333 
" style="fill:none;stroke:#80ff77;stroke-width:3;"/>
    <path clip-path="url(#pa708ab6723)" d="M 198.760417 176.066667 
L 221.427083 176.066667 
" style="fill:none;stroke:#008cff;stroke-width:3;"/>
    <path clip-path="url(#pa708ab6723)" d="M 198.760417 153.4 
L 221.427083 153.4 
" style="fill:none;stroke:#9dff5a;stroke-width:3;"/>
    <path clip-path="url(#pa708ab6723)" d="M 198.760417 130.733333 
L 221.427083 130.733333 
" style="fill:none;stroke:#46ffb1;stroke-width:3;"/>
    <path clip-path="url(#pa708ab6723)" d="M 198.760417 108.066667 
L 221.427083 108.066667 
" style="fill:none;stroke:#0028ff;stroke-width:3;"/>
    <path clip-path="url(#pa708ab6723)" d="M 198.760417 85.4 
L 221.427083 85.4 
" style="fill:none;stroke:#90ff66;stroke-width:3;"/>
    <path clip-path="url(#pa708ab6723)" d="M 198.760417 62.733333 
L 221.427083 62.733333 
" style="fill:none;stroke:#19ffde;stroke-width:3;"/>
    <path clip-path="url(#pa708ab6723)" d="M 198.760417 40.066667 
L 221.427083 40.066667 
" style="fill:none;stroke:#9aff5d;stroke-width:3;"/>
    <path clip-path="url(#pa708ab6723)" d="M 198.760417 17.4 
L 221.427083 17.4 
" style="fill:none;stroke:#ffa700;stroke-width:3;"/>
   </g>
  </g>
 </g>
 <defs>
  <clipPath id="pa708ab6723">
   <rect height="224.4" width="224.454167" x="7.2" y="7.2"/>
  </clipPath>
 </defs>
</svg>