<?xml version="1.0" encoding="utf-8" standalone="no"?>
<!DOCTYPE svg PUBLIC "-//W3C//DTD SVG 1.1//EN"
  "http://www.w3.org/Graphics/SVG/1.1/DTD/svg11.dtd">
<svg height="597.954687pt" version="1.1" viewBox="0 0 602.273703 597.954687" width="602.273703pt" xmlns="http://www.w3.org/2000/svg" xmlns:xlink="http://www.w3.org/1999/xlink">
 <metadata>
  <rdf:RDF xmlns:cc="http://creativecommons.org/ns#" xmlns:dc="http://purl.org/dc/elements/1.1/" xmlns:rdf="http://www.w3.org/1999/02/22-rdf-syntax-ns#">
   <cc:Work>
    <dc:type rdf:resource="http://purl.org/dc/dcmitype/StillImage"/>
    <dc:date>2021-06-24T07:26:07.333752</dc:date>
    <dc:format>image/svg+xml</dc:format>
    <dc:creator>
     <cc:Agent>
      <dc:title>Matplotlib v3.4.2, https://matplotlib.org/</dc:title>
     </cc:Agent>
    </dc:creator>
   </cc:Work>
  </rdf:RDF>
 </metadata>
 <defs>
  <style type="text/css">*{stroke-linecap:butt;stroke-linejoin:round;}</style>
 </defs>
 <g id="figure_1">
  <g id="patch_1">
   <path d="M 0 597.954687 
L 602.273703 597.954687 
L 602.273703 0 
L 0 0 
z
" style="fill:none;"/>
  </g>
  <g id="axes_1">
   <g id="patch_2">
    <path d="M 35.304688 264.889347 
L 156.609035 264.889347 
L 156.609035 17.798438 
L 35.304688 17.798438 
z
" style="fill:#ffffff;"/>
   </g>
   <g id="PathCollection_1">
    <defs>
     <path d="M 0 3 
C 0.795609 3 1.55874 2.683901 2.12132 2.12132 
C 2.683901 1.55874 3 0.795609 3 0 
C 3 -0.795609 2.683901 -1.55874 2.12132 -2.12132 
C 1.55874 -2.683901 0.795609 -3 0 -3 
C -0.795609 -3 -1.55874 -2.683901 -2.12132 -2.12132 
C -2.683901 -1.55874 -3 -0.795609 -3 0 
C -3 0.795609 -2.683901 1.55874 -2.12132 2.12132 
C -1.55874 2.683901 -0.795609 3 0 3 
z
" id="m7219894028" style="stroke:#1f77b4;"/>
    </defs>
    <g clip-path="url(#p71d1d8cd5c)">
     <use style="fill:#1f77b4;stroke:#1f77b4;" x="130.343422" xlink:href="#m7219894028" y="87.874055"/>
    </g>
   </g>
   <g id="matplotlib.axis_1">
    <g id="xtick_1">
     <g id="line2d_1">
      <defs>
       <path d="M 0 0 
L 0 3.5 
" id="m6cd0d874ed" style="stroke:#000000;stroke-width:0.8;"/>
      </defs>
      <g>
       <use style="stroke:#000000;stroke-width:0.8;" x="40.368195" xlink:href="#m6cd0d874ed" y="264.889347"/>
      </g>
     </g>
     <g id="text_1">
      <!-- −10 -->
      <g transform="translate(29.815851 279.487784)scale(0.1 -0.1)">
       <defs>
        <path d="M 678 2272 
L 4684 2272 
L 4684 1741 
L 678 1741 
L 678 2272 
z
" id="DejaVuSans-2212" transform="scale(0.015625)"/>
        <path d="M 794 531 
L 1825 531 
L 1825 4091 
L 703 3866 
L 703 4441 
L 1819 4666 
L 2450 4666 
L 2450 531 
L 3481 531 
L 3481 0 
L 794 0 
L 794 531 
z
" id="DejaVuSans-31" transform="scale(0.015625)"/>
        <path d="M 2034 4250 
Q 1547 4250 1301 3770 
Q 1056 3291 1056 2328 
Q 1056 1369 1301 889 
Q 1547 409 2034 409 
Q 2525 409 2770 889 
Q 3016 1369 3016 2328 
Q 3016 3291 2770 3770 
Q 2525 4250 2034 4250 
z
M 2034 4750 
Q 2819 4750 3233 4129 
Q 3647 3509 3647 2328 
Q 3647 1150 3233 529 
Q 2819 -91 2034 -91 
Q 1250 -91 836 529 
Q 422 1150 422 2328 
Q 422 3509 836 4129 
Q 1250 4750 2034 4750 
z
" id="DejaVuSans-30" transform="scale(0.015625)"/>
       </defs>
       <use xlink:href="#DejaVuSans-2212"/>
       <use x="83.789062" xlink:href="#DejaVuSans-31"/>
       <use x="147.412109" xlink:href="#DejaVuSans-30"/>
      </g>
     </g>
    </g>
    <g id="xtick_2">
     <g id="line2d_2">
      <g>
       <use style="stroke:#000000;stroke-width:0.8;" x="85.400841" xlink:href="#m6cd0d874ed" y="264.889347"/>
      </g>
     </g>
     <g id="text_2">
      <!-- 0 -->
      <g transform="translate(82.219591 279.487784)scale(0.1 -0.1)">
       <use xlink:href="#DejaVuSans-30"/>
      </g>
     </g>
    </g>
    <g id="xtick_3">
     <g id="line2d_3">
      <g>
       <use style="stroke:#000000;stroke-width:0.8;" x="130.433487" xlink:href="#m6cd0d874ed" y="264.889347"/>
      </g>
     </g>
     <g id="text_3">
      <!-- 10 -->
      <g transform="translate(124.070987 279.487784)scale(0.1 -0.1)">
       <use xlink:href="#DejaVuSans-31"/>
       <use x="63.623047" xlink:href="#DejaVuSans-30"/>
      </g>
     </g>
    </g>
    <g id="text_4">
     <!-- 1e−6 -->
     <g transform="translate(129.351223 292.165909)scale(0.1 -0.1)">
      <defs>
       <path d="M 3597 1894 
L 3597 1613 
L 953 1613 
Q 991 1019 1311 708 
Q 1631 397 2203 397 
Q 2534 397 2845 478 
Q 3156 559 3463 722 
L 3463 178 
Q 3153 47 2828 -22 
Q 2503 -91 2169 -91 
Q 1331 -91 842 396 
Q 353 884 353 1716 
Q 353 2575 817 3079 
Q 1281 3584 2069 3584 
Q 2775 3584 3186 3129 
Q 3597 2675 3597 1894 
z
M 3022 2063 
Q 3016 2534 2758 2815 
Q 2500 3097 2075 3097 
Q 1594 3097 1305 2825 
Q 1016 2553 972 2059 
L 3022 2063 
z
" id="DejaVuSans-65" transform="scale(0.015625)"/>
       <path d="M 2113 2584 
Q 1688 2584 1439 2293 
Q 1191 2003 1191 1497 
Q 1191 994 1439 701 
Q 1688 409 2113 409 
Q 2538 409 2786 701 
Q 3034 994 3034 1497 
Q 3034 2003 2786 2293 
Q 2538 2584 2113 2584 
z
M 3366 4563 
L 3366 3988 
Q 3128 4100 2886 4159 
Q 2644 4219 2406 4219 
Q 1781 4219 1451 3797 
Q 1122 3375 1075 2522 
Q 1259 2794 1537 2939 
Q 1816 3084 2150 3084 
Q 2853 3084 3261 2657 
Q 3669 2231 3669 1497 
Q 3669 778 3244 343 
Q 2819 -91 2113 -91 
Q 1303 -91 875 529 
Q 447 1150 447 2328 
Q 447 3434 972 4092 
Q 1497 4750 2381 4750 
Q 2619 4750 2861 4703 
Q 3103 4656 3366 4563 
z
" id="DejaVuSans-36" transform="scale(0.015625)"/>
      </defs>
      <use xlink:href="#DejaVuSans-31"/>
      <use x="63.623047" xlink:href="#DejaVuSans-65"/>
      <use x="125.146484" xlink:href="#DejaVuSans-2212"/>
      <use x="208.935547" xlink:href="#DejaVuSans-36"/>
     </g>
    </g>
   </g>
   <g id="matplotlib.axis_2">
    <g id="ytick_1">
     <g id="line2d_4">
      <defs>
       <path d="M 0 0 
L -3.5 0 
" id="m19cb1103a2" style="stroke:#000000;stroke-width:0.8;"/>
      </defs>
      <g>
       <use style="stroke:#000000;stroke-width:0.8;" x="35.304688" xlink:href="#m19cb1103a2" y="231.409184"/>
      </g>
     </g>
     <g id="text_5">
      <!-- −20 -->
      <g transform="translate(7.2 235.208403)scale(0.1 -0.1)">
       <defs>
        <path d="M 1228 531 
L 3431 531 
L 3431 0 
L 469 0 
L 469 531 
Q 828 903 1448 1529 
Q 2069 2156 2228 2338 
Q 2531 2678 2651 2914 
Q 2772 3150 2772 3378 
Q 2772 3750 2511 3984 
Q 2250 4219 1831 4219 
Q 1534 4219 1204 4116 
Q 875 4013 500 3803 
L 500 4441 
Q 881 4594 1212 4672 
Q 1544 4750 1819 4750 
Q 2544 4750 2975 4387 
Q 3406 4025 3406 3419 
Q 3406 3131 3298 2873 
Q 3191 2616 2906 2266 
Q 2828 2175 2409 1742 
Q 1991 1309 1228 531 
z
" id="DejaVuSans-32" transform="scale(0.015625)"/>
       </defs>
       <use xlink:href="#DejaVuSans-2212"/>
       <use x="83.789062" xlink:href="#DejaVuSans-32"/>
       <use x="147.412109" xlink:href="#DejaVuSans-30"/>
      </g>
     </g>
    </g>
    <g id="ytick_2">
     <g id="line2d_5">
      <g>
       <use style="stroke:#000000;stroke-width:0.8;" x="35.304688" xlink:href="#m19cb1103a2" y="186.376538"/>
      </g>
     </g>
     <g id="text_6">
      <!-- −10 -->
      <g transform="translate(7.2 190.175757)scale(0.1 -0.1)">
       <use xlink:href="#DejaVuSans-2212"/>
       <use x="83.789062" xlink:href="#DejaVuSans-31"/>
       <use x="147.412109" xlink:href="#DejaVuSans-30"/>
      </g>
     </g>
    </g>
    <g id="ytick_3">
     <g id="line2d_6">
      <g>
       <use style="stroke:#000000;stroke-width:0.8;" x="35.304688" xlink:href="#m19cb1103a2" y="141.343892"/>
      </g>
     </g>
     <g id="text_7">
      <!-- 0 -->
      <g transform="translate(21.942187 145.143111)scale(0.1 -0.1)">
       <use xlink:href="#DejaVuSans-30"/>
      </g>
     </g>
    </g>
    <g id="ytick_4">
     <g id="line2d_7">
      <g>
       <use style="stroke:#000000;stroke-width:0.8;" x="35.304688" xlink:href="#m19cb1103a2" y="96.311246"/>
      </g>
     </g>
     <g id="text_8">
      <!-- 10 -->
      <g transform="translate(15.579687 100.110465)scale(0.1 -0.1)">
       <use xlink:href="#DejaVuSans-31"/>
       <use x="63.623047" xlink:href="#DejaVuSans-30"/>
      </g>
     </g>
    </g>
    <g id="ytick_5">
     <g id="line2d_8">
      <g>
       <use style="stroke:#000000;stroke-width:0.8;" x="35.304688" xlink:href="#m19cb1103a2" y="51.2786"/>
      </g>
     </g>
     <g id="text_9">
      <!-- 20 -->
      <g transform="translate(15.579687 55.077819)scale(0.1 -0.1)">
       <use xlink:href="#DejaVuSans-32"/>
       <use x="63.623047" xlink:href="#DejaVuSans-30"/>
      </g>
     </g>
    </g>
    <g id="text_10">
     <!-- 1e−6 -->
     <g transform="translate(35.304688 14.798438)scale(0.1 -0.1)">
      <use xlink:href="#DejaVuSans-31"/>
      <use x="63.623047" xlink:href="#DejaVuSans-65"/>
      <use x="125.146484" xlink:href="#DejaVuSans-2212"/>
      <use x="208.935547" xlink:href="#DejaVuSans-36"/>
     </g>
    </g>
   </g>
   <g id="line2d_9">
    <path clip-path="url(#p71d1d8cd5c)" d="M 40.818521 88.575244 
L 41.719174 89.494248 
L 43.070154 90.377515 
L 44.87146 91.230572 
L 47.123092 92.049201 
L 50.275377 92.940818 
L 54.328315 93.823727 
L 58.83158 94.576618 
L 64.235497 95.254478 
L 70.540068 95.806709 
L 77.294965 96.164139 
L 84.500188 96.309445 
L 91.705411 96.222545 
L 98.460308 95.924205 
L 104.764879 95.436072 
L 110.619123 94.76656 
L 115.572714 93.990814 
L 119.625652 93.158268 
L 123.228264 92.191537 
L 125.930222 91.230572 
L 127.731528 90.377515 
L 129.082507 89.494248 
L 129.532834 89.096994 
L 129.532834 89.096994 
" style="fill:none;stroke:#000000;stroke-linecap:square;stroke-width:1.5;"/>
   </g>
   <g id="line2d_10">
    <path clip-path="url(#p71d1d8cd5c)" d="M 40.818521 194.11254 
L 41.719174 193.193536 
L 43.070154 192.31027 
L 44.87146 191.457212 
L 47.123092 190.638583 
L 50.275377 189.746966 
L 54.328315 188.864057 
L 58.83158 188.111166 
L 64.235497 187.433306 
L 70.540068 186.881075 
L 77.294965 186.523645 
L 84.500188 186.378339 
L 91.705411 186.465239 
L 98.460308 186.763579 
L 104.764879 187.251712 
L 110.619123 187.921224 
L 115.572714 188.69697 
L 119.625652 189.529516 
L 123.228264 190.496247 
L 125.930222 191.457212 
L 127.731528 192.31027 
L 129.082507 193.193536 
L 129.532834 193.59079 
L 129.532834 193.59079 
" style="fill:none;stroke:#000000;stroke-linecap:square;stroke-width:1.5;"/>
   </g>
   <g id="line2d_11">
    <path clip-path="url(#p71d1d8cd5c)" d="M 130.343422 194.813729 
L 131.13672 193.932629 
L 131.91675 193.03976 
L 132.683337 192.135323 
L 133.436308 191.21952 
L 134.175496 190.292556 
L 134.900734 189.354638 
L 135.611862 188.405977 
L 136.308719 187.446784 
L 136.99115 186.477274 
L 137.659001 185.497664 
L 138.312125 184.508174 
L 138.950373 183.509025 
L 139.573604 182.500439 
L 140.181678 181.482644 
L 140.774459 180.455867 
L 141.351815 179.420337 
L 141.913615 178.376287 
L 142.459735 177.323949 
L 142.990052 176.26356 
L 143.504448 175.195357 
L 144.002807 174.119579 
L 144.485017 173.036466 
L 144.950972 171.946261 
L 145.400567 170.849208 
L 145.8337 169.745552 
L 146.250276 168.63554 
L 146.650201 167.519422 
L 147.033385 166.397445 
L 147.399743 165.269862 
L 147.749193 164.136926 
L 148.081656 162.998888 
L 148.397058 161.856005 
L 148.695329 160.708531 
L 148.976402 159.556724 
L 149.240213 158.400842 
L 149.486705 157.241142 
L 149.715821 156.077886 
L 149.927511 154.911331 
L 150.121726 153.741741 
L 150.298424 152.569377 
L 150.457566 151.3945 
L 150.599115 150.217374 
L 150.723039 149.038263 
L 150.829312 147.85743 
L 150.917908 146.675139 
L 150.98881 145.491655 
L 151.042 144.307243 
L 151.077466 143.122168 
L 151.095201 141.936695 
L 151.095201 140.751089 
L 151.077466 139.565616 
L 151.042 138.380541 
L 150.98881 137.196129 
L 150.917908 136.012645 
L 150.829312 134.830354 
L 150.723039 133.649521 
L 150.599115 132.47041 
L 150.457566 131.293284 
L 150.298424 130.118407 
L 150.121726 128.946043 
L 149.927511 127.776453 
L 149.715821 126.609899 
L 149.486705 125.446642 
L 149.240213 124.286942 
L 148.976402 123.13106 
L 148.695329 121.979253 
L 148.397058 120.831779 
L 148.081656 119.688896 
L 147.749193 118.550858 
L 147.399743 117.417922 
L 147.033385 116.290339 
L 146.650201 115.168363 
L 146.250276 114.052244 
L 145.8337 112.942232 
L 145.400567 111.838576 
L 144.950972 110.741523 
L 144.485017 109.651318 
L 144.002807 108.568205 
L 143.504448 107.492427 
L 142.990052 106.424224 
L 142.459735 105.363835 
L 141.913615 104.311497 
L 141.351815 103.267447 
L 140.774459 102.231917 
L 140.181678 101.20514 
L 139.573604 100.187345 
L 138.950373 99.17876 
L 138.312125 98.17961 
L 137.659001 97.19012 
L 136.99115 96.21051 
L 136.308719 95.241 
L 135.611862 94.281807 
L 134.900734 93.333146 
L 134.175496 92.395228 
L 133.436308 91.468264 
L 132.683337 90.552461 
L 131.91675 89.648024 
L 131.13672 88.755155 
L 130.343422 87.874055 
" style="fill:none;stroke:#0000ff;stroke-linecap:square;stroke-width:1.5;"/>
   </g>
   <g id="patch_3">
    <path d="M 35.304688 264.889347 
L 35.304688 17.798438 
" style="fill:none;stroke:#000000;stroke-linecap:square;stroke-linejoin:miter;stroke-width:0.8;"/>
   </g>
   <g id="patch_4">
    <path d="M 156.609035 264.889347 
L 156.609035 17.798438 
" style="fill:none;stroke:#000000;stroke-linecap:square;stroke-linejoin:miter;stroke-width:0.8;"/>
   </g>
   <g id="patch_5">
    <path d="M 35.304688 264.889347 
L 156.609035 264.889347 
" style="fill:none;stroke:#000000;stroke-linecap:square;stroke-linejoin:miter;stroke-width:0.8;"/>
   </g>
   <g id="patch_6">
    <path d="M 35.304688 17.798438 
L 156.609035 17.798438 
" style="fill:none;stroke:#000000;stroke-linecap:square;stroke-linejoin:miter;stroke-width:0.8;"/>
   </g>
  </g>
  <g id="axes_2">
   <g id="patch_7">
    <path d="M 180.869905 264.889347 
L 302.174253 264.889347 
L 302.174253 17.798438 
L 180.869905 17.798438 
z
" style="fill:#ffffff;"/>
   </g>
   <g id="PathCollection_2">
    <g clip-path="url(#p0c7b2d6b82)">
     <use style="fill:#1f77b4;stroke:#1f77b4;" x="267.788684" xlink:href="#m7219894028" y="82.494552"/>
    </g>
   </g>
   <g id="matplotlib.axis_3">
    <g id="xtick_4">
     <g id="line2d_12">
      <g>
       <use style="stroke:#000000;stroke-width:0.8;" x="185.974257" xlink:href="#m6cd0d874ed" y="264.889347"/>
      </g>
     </g>
     <g id="text_11">
      <!-- −10 -->
      <g transform="translate(175.421914 279.487784)scale(0.1 -0.1)">
       <use xlink:href="#DejaVuSans-2212"/>
       <use x="83.789062" xlink:href="#DejaVuSans-31"/>
       <use x="147.412109" xlink:href="#DejaVuSans-30"/>
      </g>
     </g>
    </g>
    <g id="xtick_5">
     <g id="line2d_13">
      <g>
       <use style="stroke:#000000;stroke-width:0.8;" x="226.922419" xlink:href="#m6cd0d874ed" y="264.889347"/>
      </g>
     </g>
     <g id="text_12">
      <!-- 0 -->
      <g transform="translate(223.741169 279.487784)scale(0.1 -0.1)">
       <use xlink:href="#DejaVuSans-30"/>
      </g>
     </g>
    </g>
    <g id="xtick_6">
     <g id="line2d_14">
      <g>
       <use style="stroke:#000000;stroke-width:0.8;" x="267.87058" xlink:href="#m6cd0d874ed" y="264.889347"/>
      </g>
     </g>
     <g id="text_13">
      <!-- 10 -->
      <g transform="translate(261.50808 279.487784)scale(0.1 -0.1)">
       <use xlink:href="#DejaVuSans-31"/>
       <use x="63.623047" xlink:href="#DejaVuSans-30"/>
      </g>
     </g>
    </g>
    <g id="text_14">
     <!-- 1e−6 -->
     <g transform="translate(274.91644 292.165909)scale(0.1 -0.1)">
      <use xlink:href="#DejaVuSans-31"/>
      <use x="63.623047" xlink:href="#DejaVuSans-65"/>
      <use x="125.146484" xlink:href="#DejaVuSans-2212"/>
      <use x="208.935547" xlink:href="#DejaVuSans-36"/>
     </g>
    </g>
   </g>
   <g id="matplotlib.axis_4">
    <g id="ytick_6">
     <g id="line2d_15">
      <g>
       <use style="stroke:#000000;stroke-width:0.8;" x="180.869905" xlink:href="#m19cb1103a2" y="264.188376"/>
      </g>
     </g>
     <g id="text_15">
      <!-- −30 -->
      <g transform="translate(152.765217 267.987595)scale(0.1 -0.1)">
       <defs>
        <path d="M 2597 2516 
Q 3050 2419 3304 2112 
Q 3559 1806 3559 1356 
Q 3559 666 3084 287 
Q 2609 -91 1734 -91 
Q 1441 -91 1130 -33 
Q 819 25 488 141 
L 488 750 
Q 750 597 1062 519 
Q 1375 441 1716 441 
Q 2309 441 2620 675 
Q 2931 909 2931 1356 
Q 2931 1769 2642 2001 
Q 2353 2234 1838 2234 
L 1294 2234 
L 1294 2753 
L 1863 2753 
Q 2328 2753 2575 2939 
Q 2822 3125 2822 3475 
Q 2822 3834 2567 4026 
Q 2313 4219 1838 4219 
Q 1578 4219 1281 4162 
Q 984 4106 628 3988 
L 628 4550 
Q 988 4650 1302 4700 
Q 1616 4750 1894 4750 
Q 2613 4750 3031 4423 
Q 3450 4097 3450 3541 
Q 3450 3153 3228 2886 
Q 3006 2619 2597 2516 
z
" id="DejaVuSans-33" transform="scale(0.015625)"/>
       </defs>
       <use xlink:href="#DejaVuSans-2212"/>
       <use x="83.789062" xlink:href="#DejaVuSans-33"/>
       <use x="147.412109" xlink:href="#DejaVuSans-30"/>
      </g>
     </g>
    </g>
    <g id="ytick_7">
     <g id="line2d_16">
      <g>
       <use style="stroke:#000000;stroke-width:0.8;" x="180.869905" xlink:href="#m19cb1103a2" y="223.240215"/>
      </g>
     </g>
     <g id="text_16">
      <!-- −20 -->
      <g transform="translate(152.765217 227.039434)scale(0.1 -0.1)">
       <use xlink:href="#DejaVuSans-2212"/>
       <use x="83.789062" xlink:href="#DejaVuSans-32"/>
       <use x="147.412109" xlink:href="#DejaVuSans-30"/>
      </g>
     </g>
    </g>
    <g id="ytick_8">
     <g id="line2d_17">
      <g>
       <use style="stroke:#000000;stroke-width:0.8;" x="180.869905" xlink:href="#m19cb1103a2" y="182.292054"/>
      </g>
     </g>
     <g id="text_17">
      <!-- −10 -->
      <g transform="translate(152.765217 186.091272)scale(0.1 -0.1)">
       <use xlink:href="#DejaVuSans-2212"/>
       <use x="83.789062" xlink:href="#DejaVuSans-31"/>
       <use x="147.412109" xlink:href="#DejaVuSans-30"/>
      </g>
     </g>
    </g>
    <g id="ytick_9">
     <g id="line2d_18">
      <g>
       <use style="stroke:#000000;stroke-width:0.8;" x="180.869905" xlink:href="#m19cb1103a2" y="141.343892"/>
      </g>
     </g>
     <g id="text_18">
      <!-- 0 -->
      <g transform="translate(167.507405 145.143111)scale(0.1 -0.1)">
       <use xlink:href="#DejaVuSans-30"/>
      </g>
     </g>
    </g>
    <g id="ytick_10">
     <g id="line2d_19">
      <g>
       <use style="stroke:#000000;stroke-width:0.8;" x="180.869905" xlink:href="#m19cb1103a2" y="100.395731"/>
      </g>
     </g>
     <g id="text_19">
      <!-- 10 -->
      <g transform="translate(161.144905 104.194949)scale(0.1 -0.1)">
       <use xlink:href="#DejaVuSans-31"/>
       <use x="63.623047" xlink:href="#DejaVuSans-30"/>
      </g>
     </g>
    </g>
    <g id="ytick_11">
     <g id="line2d_20">
      <g>
       <use style="stroke:#000000;stroke-width:0.8;" x="180.869905" xlink:href="#m19cb1103a2" y="59.447569"/>
      </g>
     </g>
     <g id="text_20">
      <!-- 20 -->
      <g transform="translate(161.144905 63.246788)scale(0.1 -0.1)">
       <use xlink:href="#DejaVuSans-32"/>
       <use x="63.623047" xlink:href="#DejaVuSans-30"/>
      </g>
     </g>
    </g>
    <g id="ytick_12">
     <g id="line2d_21">
      <g>
       <use style="stroke:#000000;stroke-width:0.8;" x="180.869905" xlink:href="#m19cb1103a2" y="18.499408"/>
      </g>
     </g>
     <g id="text_21">
      <!-- 30 -->
      <g transform="translate(161.144905 22.298626)scale(0.1 -0.1)">
       <use xlink:href="#DejaVuSans-33"/>
       <use x="63.623047" xlink:href="#DejaVuSans-30"/>
      </g>
     </g>
    </g>
    <g id="text_22">
     <!-- 1e−6 -->
     <g transform="translate(180.869905 14.798438)scale(0.1 -0.1)">
      <use xlink:href="#DejaVuSans-31"/>
      <use x="63.623047" xlink:href="#DejaVuSans-65"/>
      <use x="125.146484" xlink:href="#DejaVuSans-2212"/>
      <use x="208.935547" xlink:href="#DejaVuSans-36"/>
     </g>
    </g>
   </g>
   <g id="line2d_22">
    <path clip-path="url(#p0c7b2d6b82)" d="M 186.383739 83.982265 
L 187.202702 85.932115 
L 188.021665 87.253416 
L 189.25011 88.775812 
L 190.888037 90.362928 
L 192.935445 91.944968 
L 194.982853 93.244698 
L 197.439742 94.547837 
L 200.306114 95.808279 
L 203.581967 96.987514 
L 207.267301 98.050437 
L 210.952636 98.88257 
L 215.047452 99.574547 
L 219.142268 100.04764 
L 223.646566 100.334483 
L 228.150864 100.38713 
L 232.655161 100.207534 
L 237.159459 99.788936 
L 241.254275 99.187072 
L 245.349091 98.351598 
L 249.034426 97.370085 
L 252.310279 96.279656 
L 255.17665 95.117965 
L 258.043021 93.706061 
L 260.499911 92.223964 
L 262.547319 90.708384 
L 264.185246 89.209396 
L 265.413691 87.806139 
L 266.232654 86.637148 
L 267.051617 85.08926 
L 267.051617 85.08926 
" style="fill:none;stroke:#000000;stroke-linecap:square;stroke-width:1.5;"/>
   </g>
   <g id="line2d_23">
    <path clip-path="url(#p0c7b2d6b82)" d="M 186.383739 198.705519 
L 187.202702 196.755669 
L 188.021665 195.434368 
L 189.25011 193.911972 
L 190.888037 192.324856 
L 192.935445 190.742816 
L 194.982853 189.443086 
L 197.439742 188.139947 
L 200.306114 186.879505 
L 203.581967 185.70027 
L 207.267301 184.637347 
L 210.952636 183.805214 
L 215.047452 183.113237 
L 219.142268 182.640144 
L 223.646566 182.353301 
L 228.150864 182.300655 
L 232.655161 182.48025 
L 237.159459 182.898848 
L 241.254275 183.500712 
L 245.349091 184.336186 
L 249.034426 185.317699 
L 252.310279 186.408128 
L 255.17665 187.56982 
L 258.043021 188.981723 
L 260.499911 190.46382 
L 262.547319 191.9794 
L 264.185246 193.478388 
L 265.413691 194.881645 
L 266.232654 196.050636 
L 267.051617 197.598524 
L 267.051617 197.598524 
" style="fill:none;stroke:#000000;stroke-linecap:square;stroke-width:1.5;"/>
   </g>
   <g id="line2d_24">
    <path clip-path="url(#p0c7b2d6b82)" d="M 267.788684 200.193232 
L 268.865491 199.344117 
L 269.926468 198.475301 
L 270.971252 197.58708 
L 271.99949 196.679756 
L 273.010833 195.753636 
L 274.004936 194.809035 
L 274.981462 193.846274 
L 275.940079 192.865681 
L 276.880462 191.867587 
L 277.802291 190.852333 
L 278.705254 189.820262 
L 279.589043 188.771726 
L 280.453359 187.707081 
L 281.297907 186.626687 
L 282.122401 185.530913 
L 282.926561 184.420131 
L 283.710114 183.294717 
L 284.472793 182.155054 
L 285.214339 181.001529 
L 285.934502 179.834534 
L 286.633035 178.654465 
L 287.309702 177.461724 
L 287.964274 176.256714 
L 288.596526 175.039846 
L 289.206246 173.811533 
L 289.793225 172.572192 
L 290.357265 171.322244 
L 290.898173 170.062113 
L 291.415767 168.792228 
L 291.909869 167.51302 
L 292.380314 166.224923 
L 292.826939 164.928375 
L 293.249595 163.623816 
L 293.648137 162.31169 
L 294.02243 160.992442 
L 294.372347 159.66652 
L 294.697769 158.334375 
L 294.998586 156.996458 
L 295.274695 155.653225 
L 295.526002 154.305132 
L 295.752423 152.952636 
L 295.95388 151.596197 
L 296.130304 150.236276 
L 296.281637 148.873334 
L 296.407826 147.507835 
L 296.508829 146.140243 
L 296.584611 144.771021 
L 296.635147 143.400635 
L 296.660419 142.029551 
L 296.660419 140.658233 
L 296.635147 139.287149 
L 296.584611 137.916763 
L 296.508829 136.547541 
L 296.407826 135.179949 
L 296.281637 133.81445 
L 296.130304 132.451508 
L 295.95388 131.091587 
L 295.752423 129.735148 
L 295.526002 128.382653 
L 295.274695 127.034559 
L 294.998586 125.691326 
L 294.697769 124.35341 
L 294.372347 123.021264 
L 294.02243 121.695342 
L 293.648137 120.376094 
L 293.249595 119.063968 
L 292.826939 117.759409 
L 292.380314 116.462861 
L 291.909869 115.174764 
L 291.415767 113.895556 
L 290.898173 112.625671 
L 290.357265 111.36554 
L 289.793225 110.115592 
L 289.206246 108.876251 
L 288.596526 107.647938 
L 287.964274 106.43107 
L 287.309702 105.22606 
L 286.633035 104.033319 
L 285.934502 102.85325 
L 285.214339 101.686255 
L 284.472793 100.53273 
L 283.710114 99.393067 
L 282.926561 98.267653 
L 282.122401 97.156871 
L 281.297907 96.061097 
L 280.453359 94.980704 
L 279.589043 93.916058 
L 278.705254 92.867522 
L 277.802291 91.835451 
L 276.880462 90.820197 
L 275.940079 89.822103 
L 274.981462 88.84151 
L 274.004936 87.878749 
L 273.010833 86.934148 
L 271.99949 86.008028 
L 270.971252 85.100704 
L 269.926468 84.212483 
L 268.865491 83.343668 
L 267.788684 82.494552 
" style="fill:none;stroke:#0000ff;stroke-linecap:square;stroke-width:1.5;"/>
   </g>
   <g id="patch_8">
    <path d="M 180.869905 264.889347 
L 180.869905 17.798438 
" style="fill:none;stroke:#000000;stroke-linecap:square;stroke-linejoin:miter;stroke-width:0.8;"/>
   </g>
   <g id="patch_9">
    <path d="M 302.174253 264.889347 
L 302.174253 17.798438 
" style="fill:none;stroke:#000000;stroke-linecap:square;stroke-linejoin:miter;stroke-width:0.8;"/>
   </g>
   <g id="patch_10">
    <path d="M 180.869905 264.889347 
L 302.174253 264.889347 
" style="fill:none;stroke:#000000;stroke-linecap:square;stroke-linejoin:miter;stroke-width:0.8;"/>
   </g>
   <g id="patch_11">
    <path d="M 180.869905 17.798438 
L 302.174253 17.798438 
" style="fill:none;stroke:#000000;stroke-linecap:square;stroke-linejoin:miter;stroke-width:0.8;"/>
   </g>
  </g>
  <g id="axes_3">
   <g id="patch_12">
    <path d="M 326.435122 264.889347 
L 447.73947 264.889347 
L 447.73947 17.798438 
L 326.435122 17.798438 
z
" style="fill:#ffffff;"/>
   </g>
   <g id="PathCollection_3">
    <g clip-path="url(#pa2541b3f22)">
     <use style="fill:#1f77b4;stroke:#1f77b4;" x="408.408346" xlink:href="#m7219894028" y="76.462005"/>
    </g>
   </g>
   <g id="matplotlib.axis_5">
    <g id="xtick_7">
     <g id="line2d_25">
      <g>
       <use style="stroke:#000000;stroke-width:0.8;" x="331.564352" xlink:href="#m6cd0d874ed" y="264.889347"/>
      </g>
     </g>
     <g id="text_23">
      <!-- −10 -->
      <g transform="translate(321.012008 279.487784)scale(0.1 -0.1)">
       <use xlink:href="#DejaVuSans-2212"/>
       <use x="83.789062" xlink:href="#DejaVuSans-31"/>
       <use x="147.412109" xlink:href="#DejaVuSans-30"/>
      </g>
     </g>
    </g>
    <g id="xtick_8">
     <g id="line2d_26">
      <g>
       <use style="stroke:#000000;stroke-width:0.8;" x="370.024809" xlink:href="#m6cd0d874ed" y="264.889347"/>
      </g>
     </g>
     <g id="text_24">
      <!-- 0 -->
      <g transform="translate(366.843559 279.487784)scale(0.1 -0.1)">
       <use xlink:href="#DejaVuSans-30"/>
      </g>
     </g>
    </g>
    <g id="xtick_9">
     <g id="line2d_27">
      <g>
       <use style="stroke:#000000;stroke-width:0.8;" x="408.485267" xlink:href="#m6cd0d874ed" y="264.889347"/>
      </g>
     </g>
     <g id="text_25">
      <!-- 10 -->
      <g transform="translate(402.122767 279.487784)scale(0.1 -0.1)">
       <use xlink:href="#DejaVuSans-31"/>
       <use x="63.623047" xlink:href="#DejaVuSans-30"/>
      </g>
     </g>
    </g>
    <g id="xtick_10">
     <g id="line2d_28">
      <g>
       <use style="stroke:#000000;stroke-width:0.8;" x="446.945725" xlink:href="#m6cd0d874ed" y="264.889347"/>
      </g>
     </g>
     <g id="text_26">
      <!-- 20 -->
      <g transform="translate(440.583225 279.487784)scale(0.1 -0.1)">
       <use xlink:href="#DejaVuSans-32"/>
       <use x="63.623047" xlink:href="#DejaVuSans-30"/>
      </g>
     </g>
    </g>
    <g id="text_27">
     <!-- 1e−6 -->
     <g transform="translate(420.481658 292.165909)scale(0.1 -0.1)">
      <use xlink:href="#DejaVuSans-31"/>
      <use x="63.623047" xlink:href="#DejaVuSans-65"/>
      <use x="125.146484" xlink:href="#DejaVuSans-2212"/>
      <use x="208.935547" xlink:href="#DejaVuSans-36"/>
     </g>
    </g>
   </g>
   <g id="matplotlib.axis_6">
    <g id="ytick_13">
     <g id="line2d_29">
      <g>
       <use style="stroke:#000000;stroke-width:0.8;" x="326.435122" xlink:href="#m19cb1103a2" y="256.725265"/>
      </g>
     </g>
     <g id="text_28">
      <!-- −30 -->
      <g transform="translate(298.330435 260.524484)scale(0.1 -0.1)">
       <use xlink:href="#DejaVuSans-2212"/>
       <use x="83.789062" xlink:href="#DejaVuSans-33"/>
       <use x="147.412109" xlink:href="#DejaVuSans-30"/>
      </g>
     </g>
    </g>
    <g id="ytick_14">
     <g id="line2d_30">
      <g>
       <use style="stroke:#000000;stroke-width:0.8;" x="326.435122" xlink:href="#m19cb1103a2" y="218.264807"/>
      </g>
     </g>
     <g id="text_29">
      <!-- −20 -->
      <g transform="translate(298.330435 222.064026)scale(0.1 -0.1)">
       <use xlink:href="#DejaVuSans-2212"/>
       <use x="83.789062" xlink:href="#DejaVuSans-32"/>
       <use x="147.412109" xlink:href="#DejaVuSans-30"/>
      </g>
     </g>
    </g>
    <g id="ytick_15">
     <g id="line2d_31">
      <g>
       <use style="stroke:#000000;stroke-width:0.8;" x="326.435122" xlink:href="#m19cb1103a2" y="179.80435"/>
      </g>
     </g>
     <g id="text_30">
      <!-- −10 -->
      <g transform="translate(298.330435 183.603568)scale(0.1 -0.1)">
       <use xlink:href="#DejaVuSans-2212"/>
       <use x="83.789062" xlink:href="#DejaVuSans-31"/>
       <use x="147.412109" xlink:href="#DejaVuSans-30"/>
      </g>
     </g>
    </g>
    <g id="ytick_16">
     <g id="line2d_32">
      <g>
       <use style="stroke:#000000;stroke-width:0.8;" x="326.435122" xlink:href="#m19cb1103a2" y="141.343892"/>
      </g>
     </g>
     <g id="text_31">
      <!-- 0 -->
      <g transform="translate(313.072622 145.143111)scale(0.1 -0.1)">
       <use xlink:href="#DejaVuSans-30"/>
      </g>
     </g>
    </g>
    <g id="ytick_17">
     <g id="line2d_33">
      <g>
       <use style="stroke:#000000;stroke-width:0.8;" x="326.435122" xlink:href="#m19cb1103a2" y="102.883434"/>
      </g>
     </g>
     <g id="text_32">
      <!-- 10 -->
      <g transform="translate(306.710122 106.682653)scale(0.1 -0.1)">
       <use xlink:href="#DejaVuSans-31"/>
       <use x="63.623047" xlink:href="#DejaVuSans-30"/>
      </g>
     </g>
    </g>
    <g id="ytick_18">
     <g id="line2d_34">
      <g>
       <use style="stroke:#000000;stroke-width:0.8;" x="326.435122" xlink:href="#m19cb1103a2" y="64.422977"/>
      </g>
     </g>
     <g id="text_33">
      <!-- 20 -->
      <g transform="translate(306.710122 68.222195)scale(0.1 -0.1)">
       <use xlink:href="#DejaVuSans-32"/>
       <use x="63.623047" xlink:href="#DejaVuSans-30"/>
      </g>
     </g>
    </g>
    <g id="ytick_19">
     <g id="line2d_35">
      <g>
       <use style="stroke:#000000;stroke-width:0.8;" x="326.435122" xlink:href="#m19cb1103a2" y="25.962519"/>
      </g>
     </g>
     <g id="text_34">
      <!-- 30 -->
      <g transform="translate(306.710122 29.761738)scale(0.1 -0.1)">
       <use xlink:href="#DejaVuSans-33"/>
       <use x="63.623047" xlink:href="#DejaVuSans-30"/>
      </g>
     </g>
    </g>
    <g id="text_35">
     <!-- 1e−6 -->
     <g transform="translate(326.435122 14.798438)scale(0.1 -0.1)">
      <use xlink:href="#DejaVuSans-31"/>
      <use x="63.623047" xlink:href="#DejaVuSans-65"/>
      <use x="125.146484" xlink:href="#DejaVuSans-2212"/>
      <use x="208.935547" xlink:href="#DejaVuSans-36"/>
     </g>
    </g>
   </g>
   <g id="line2d_36">
    <path clip-path="url(#pa2541b3f22)" d="M 331.948956 78.65781 
L 332.718165 81.535711 
L 333.487375 83.4859 
L 334.641188 85.732896 
L 335.795002 87.539162 
L 337.33342 89.536654 
L 339.256443 91.6017 
L 341.179466 93.334513 
L 343.487094 95.093661 
L 345.794721 96.582449 
L 348.486953 98.046182 
L 351.179185 99.265451 
L 354.256022 100.403865 
L 357.332858 101.303454 
L 360.409695 101.987829 
L 363.871136 102.520078 
L 367.332577 102.814249 
L 370.794019 102.877793 
L 374.25546 102.712279 
L 377.716901 102.313591 
L 381.178342 101.671399 
L 384.255179 100.881822 
L 387.332015 99.866376 
L 390.408852 98.596309 
L 393.101084 97.242567 
L 395.793316 95.6169 
L 398.100943 93.955271 
L 400.023966 92.328794 
L 401.946989 90.410445 
L 403.485408 88.585295 
L 405.023826 86.372849 
L 406.17764 84.301697 
L 406.946849 82.576313 
L 407.716058 80.291691 
L 407.716058 80.291691 
" style="fill:none;stroke:#000000;stroke-linecap:square;stroke-width:1.5;"/>
   </g>
   <g id="line2d_37">
    <path clip-path="url(#pa2541b3f22)" d="M 331.948956 204.029974 
L 332.718165 201.152073 
L 333.487375 199.201884 
L 334.641188 196.954888 
L 335.795002 195.148622 
L 337.33342 193.15113 
L 339.256443 191.086084 
L 341.179466 189.353271 
L 343.487094 187.594123 
L 345.794721 186.105336 
L 348.486953 184.641602 
L 351.179185 183.422333 
L 354.256022 182.283919 
L 357.332858 181.38433 
L 360.409695 180.699955 
L 363.871136 180.167706 
L 367.332577 179.873535 
L 370.794019 179.809991 
L 374.25546 179.975505 
L 377.716901 180.374193 
L 381.178342 181.016385 
L 384.255179 181.805962 
L 387.332015 182.821408 
L 390.408852 184.091475 
L 393.101084 185.445217 
L 395.793316 187.070884 
L 398.100943 188.732513 
L 400.023966 190.35899 
L 401.946989 192.277339 
L 403.485408 194.102489 
L 405.023826 196.314935 
L 406.17764 198.386087 
L 406.946849 200.111471 
L 407.716058 202.396093 
L 407.716058 202.396093 
" style="fill:none;stroke:#000000;stroke-linecap:square;stroke-width:1.5;"/>
   </g>
   <g id="line2d_38">
    <path clip-path="url(#pa2541b3f22)" d="M 408.408346 206.225779 
L 409.659401 205.333648 
L 410.8929 204.417397 
L 412.108379 203.477373 
L 413.30538 202.513929 
L 414.483451 201.527428 
L 415.642148 200.518242 
L 416.781036 199.486752 
L 417.899683 198.433346 
L 418.997669 197.358422 
L 420.07458 196.262385 
L 421.13001 195.145647 
L 422.163561 194.00863 
L 423.174843 192.851762 
L 424.163476 191.675479 
L 425.129086 190.480225 
L 426.071311 189.266451 
L 426.989793 188.034613 
L 427.884189 186.785176 
L 428.754159 185.518611 
L 429.599377 184.235395 
L 430.419523 182.936013 
L 431.21429 181.620953 
L 431.983376 180.290712 
L 432.726492 178.94579 
L 433.443359 177.586696 
L 434.133705 176.21394 
L 434.797271 174.828041 
L 435.433807 173.429522 
L 436.043072 172.018908 
L 436.624837 170.596732 
L 437.178883 169.163529 
L 437.705 167.719841 
L 438.202992 166.266211 
L 438.672668 164.803187 
L 439.113854 163.331321 
L 439.526383 161.851167 
L 439.910098 160.363283 
L 440.264856 158.86823 
L 440.590522 157.366572 
L 440.886974 155.858875 
L 441.154101 154.345706 
L 441.3918 152.827637 
L 441.599984 151.305239 
L 441.778573 149.779087 
L 441.927501 148.249755 
L 442.04671 146.71782 
L 442.136156 145.18386 
L 442.195806 143.648452 
L 442.225636 142.112175 
L 442.225636 140.575609 
L 442.195806 139.039332 
L 442.136156 137.503925 
L 442.04671 135.969964 
L 441.927501 134.438029 
L 441.778573 132.908697 
L 441.599984 131.382545 
L 441.3918 129.860147 
L 441.154101 128.342078 
L 440.886974 126.828909 
L 440.590522 125.321212 
L 440.264856 123.819554 
L 439.910098 122.324501 
L 439.526383 120.836617 
L 439.113854 119.356463 
L 438.672668 117.884597 
L 438.202992 116.421573 
L 437.705 114.967943 
L 437.178883 113.524255 
L 436.624837 112.091053 
L 436.043072 110.668876 
L 435.433807 109.258263 
L 434.797271 107.859743 
L 434.133705 106.473844 
L 433.443359 105.101088 
L 432.726492 103.741994 
L 431.983376 102.397073 
L 431.21429 101.066831 
L 430.419523 99.751772 
L 429.599377 98.452389 
L 428.754159 97.169173 
L 427.884189 95.902608 
L 426.989793 94.653171 
L 426.071311 93.421333 
L 425.129086 92.207559 
L 424.163476 91.012305 
L 423.174843 89.836022 
L 422.163561 88.679154 
L 421.13001 87.542137 
L 420.07458 86.425399 
L 418.997669 85.329362 
L 417.899683 84.254438 
L 416.781036 83.201032 
L 415.642148 82.169542 
L 414.483451 81.160356 
L 413.30538 80.173856 
L 412.108379 79.210411 
L 410.8929 78.270387 
L 409.659401 77.354136 
L 408.408346 76.462005 
" style="fill:none;stroke:#0000ff;stroke-linecap:square;stroke-width:1.5;"/>
   </g>
   <g id="patch_13">
    <path d="M 326.435122 264.889347 
L 326.435122 17.798438 
" style="fill:none;stroke:#000000;stroke-linecap:square;stroke-linejoin:miter;stroke-width:0.8;"/>
   </g>
   <g id="patch_14">
    <path d="M 447.73947 264.889347 
L 447.73947 17.798438 
" style="fill:none;stroke:#000000;stroke-linecap:square;stroke-linejoin:miter;stroke-width:0.8;"/>
   </g>
   <g id="patch_15">
    <path d="M 326.435122 264.889347 
L 447.73947 264.889347 
" style="fill:none;stroke:#000000;stroke-linecap:square;stroke-linejoin:miter;stroke-width:0.8;"/>
   </g>
   <g id="patch_16">
    <path d="M 326.435122 17.798438 
L 447.73947 17.798438 
" style="fill:none;stroke:#000000;stroke-linecap:square;stroke-linejoin:miter;stroke-width:0.8;"/>
   </g>
  </g>
  <g id="axes_4">
   <g id="patch_17">
    <path d="M 472.00034 264.889347 
L 593.304688 264.889347 
L 593.304688 17.798438 
L 472.00034 17.798438 
z
" style="fill:#ffffff;"/>
   </g>
   <g id="PathCollection_4">
    <g clip-path="url(#p2e6abd91de)">
     <use style="fill:#1f77b4;stroke:#1f77b4;" x="549.966512" xlink:href="#m7219894028" y="70.758037"/>
    </g>
   </g>
   <g id="matplotlib.axis_7">
    <g id="xtick_11">
     <g id="line2d_39">
      <g>
       <use style="stroke:#000000;stroke-width:0.8;" x="477.149725" xlink:href="#m6cd0d874ed" y="264.889347"/>
      </g>
     </g>
     <g id="text_36">
      <!-- −10 -->
      <g transform="translate(466.597382 279.487784)scale(0.1 -0.1)">
       <use xlink:href="#DejaVuSans-2212"/>
       <use x="83.789062" xlink:href="#DejaVuSans-31"/>
       <use x="147.412109" xlink:href="#DejaVuSans-30"/>
      </g>
     </g>
    </g>
    <g id="xtick_12">
     <g id="line2d_40">
      <g>
       <use style="stroke:#000000;stroke-width:0.8;" x="513.594564" xlink:href="#m6cd0d874ed" y="264.889347"/>
      </g>
     </g>
     <g id="text_37">
      <!-- 0 -->
      <g transform="translate(510.413314 279.487784)scale(0.1 -0.1)">
       <use xlink:href="#DejaVuSans-30"/>
      </g>
     </g>
    </g>
    <g id="xtick_13">
     <g id="line2d_41">
      <g>
       <use style="stroke:#000000;stroke-width:0.8;" x="550.039402" xlink:href="#m6cd0d874ed" y="264.889347"/>
      </g>
     </g>
     <g id="text_38">
      <!-- 10 -->
      <g transform="translate(543.676902 279.487784)scale(0.1 -0.1)">
       <use xlink:href="#DejaVuSans-31"/>
       <use x="63.623047" xlink:href="#DejaVuSans-30"/>
      </g>
     </g>
    </g>
    <g id="xtick_14">
     <g id="line2d_42">
      <g>
       <use style="stroke:#000000;stroke-width:0.8;" x="586.48424" xlink:href="#m6cd0d874ed" y="264.889347"/>
      </g>
     </g>
     <g id="text_39">
      <!-- 20 -->
      <g transform="translate(580.12174 279.487784)scale(0.1 -0.1)">
       <use xlink:href="#DejaVuSans-32"/>
       <use x="63.623047" xlink:href="#DejaVuSans-30"/>
      </g>
     </g>
    </g>
    <g id="text_40">
     <!-- 1e−6 -->
     <g transform="translate(566.046875 292.165909)scale(0.1 -0.1)">
      <use xlink:href="#DejaVuSans-31"/>
      <use x="63.623047" xlink:href="#DejaVuSans-65"/>
      <use x="125.146484" xlink:href="#DejaVuSans-2212"/>
      <use x="208.935547" xlink:href="#DejaVuSans-36"/>
     </g>
    </g>
   </g>
   <g id="matplotlib.axis_8">
    <g id="ytick_20">
     <g id="line2d_43">
      <g>
       <use style="stroke:#000000;stroke-width:0.8;" x="472.00034" xlink:href="#m19cb1103a2" y="250.678407"/>
      </g>
     </g>
     <g id="text_41">
      <!-- −30 -->
      <g transform="translate(443.895652 254.477626)scale(0.1 -0.1)">
       <use xlink:href="#DejaVuSans-2212"/>
       <use x="83.789062" xlink:href="#DejaVuSans-33"/>
       <use x="147.412109" xlink:href="#DejaVuSans-30"/>
      </g>
     </g>
    </g>
    <g id="ytick_21">
     <g id="line2d_44">
      <g>
       <use style="stroke:#000000;stroke-width:0.8;" x="472.00034" xlink:href="#m19cb1103a2" y="214.233569"/>
      </g>
     </g>
     <g id="text_42">
      <!-- −20 -->
      <g transform="translate(443.895652 218.032787)scale(0.1 -0.1)">
       <use xlink:href="#DejaVuSans-2212"/>
       <use x="83.789062" xlink:href="#DejaVuSans-32"/>
       <use x="147.412109" xlink:href="#DejaVuSans-30"/>
      </g>
     </g>
    </g>
    <g id="ytick_22">
     <g id="line2d_45">
      <g>
       <use style="stroke:#000000;stroke-width:0.8;" x="472.00034" xlink:href="#m19cb1103a2" y="177.78873"/>
      </g>
     </g>
     <g id="text_43">
      <!-- −10 -->
      <g transform="translate(443.895652 181.587949)scale(0.1 -0.1)">
       <use xlink:href="#DejaVuSans-2212"/>
       <use x="83.789062" xlink:href="#DejaVuSans-31"/>
       <use x="147.412109" xlink:href="#DejaVuSans-30"/>
      </g>
     </g>
    </g>
    <g id="ytick_23">
     <g id="line2d_46">
      <g>
       <use style="stroke:#000000;stroke-width:0.8;" x="472.00034" xlink:href="#m19cb1103a2" y="141.343892"/>
      </g>
     </g>
     <g id="text_44">
      <!-- 0 -->
      <g transform="translate(458.63784 145.143111)scale(0.1 -0.1)">
       <use xlink:href="#DejaVuSans-30"/>
      </g>
     </g>
    </g>
    <g id="ytick_24">
     <g id="line2d_47">
      <g>
       <use style="stroke:#000000;stroke-width:0.8;" x="472.00034" xlink:href="#m19cb1103a2" y="104.899054"/>
      </g>
     </g>
     <g id="text_45">
      <!-- 10 -->
      <g transform="translate(452.27534 108.698273)scale(0.1 -0.1)">
       <use xlink:href="#DejaVuSans-31"/>
       <use x="63.623047" xlink:href="#DejaVuSans-30"/>
      </g>
     </g>
    </g>
    <g id="ytick_25">
     <g id="line2d_48">
      <g>
       <use style="stroke:#000000;stroke-width:0.8;" x="472.00034" xlink:href="#m19cb1103a2" y="68.454216"/>
      </g>
     </g>
     <g id="text_46">
      <!-- 20 -->
      <g transform="translate(452.27534 72.253434)scale(0.1 -0.1)">
       <use xlink:href="#DejaVuSans-32"/>
       <use x="63.623047" xlink:href="#DejaVuSans-30"/>
      </g>
     </g>
    </g>
    <g id="ytick_26">
     <g id="line2d_49">
      <g>
       <use style="stroke:#000000;stroke-width:0.8;" x="472.00034" xlink:href="#m19cb1103a2" y="32.009377"/>
      </g>
     </g>
     <g id="text_47">
      <!-- 30 -->
      <g transform="translate(452.27534 35.808596)scale(0.1 -0.1)">
       <use xlink:href="#DejaVuSans-33"/>
       <use x="63.623047" xlink:href="#DejaVuSans-30"/>
      </g>
     </g>
    </g>
    <g id="text_48">
     <!-- 1e−6 -->
     <g transform="translate(472.00034 14.798438)scale(0.1 -0.1)">
      <use xlink:href="#DejaVuSans-31"/>
      <use x="63.623047" xlink:href="#DejaVuSans-65"/>
      <use x="125.146484" xlink:href="#DejaVuSans-2212"/>
      <use x="208.935547" xlink:href="#DejaVuSans-36"/>
     </g>
    </g>
   </g>
   <g id="line2d_50">
    <path clip-path="url(#p2e6abd91de)" d="M 477.514174 73.595393 
L 478.24307 77.314135 
L 478.971967 79.834113 
L 480.065312 82.737617 
L 481.158657 85.071623 
L 482.616451 87.652725 
L 484.074245 89.826558 
L 485.896486 92.140557 
L 487.718728 94.118732 
L 489.905419 96.149895 
L 492.092109 97.879896 
L 494.643248 99.584167 
L 497.194386 101.000497 
L 499.745525 102.165198 
L 502.296664 103.103656 
L 505.212251 103.921991 
L 508.127838 104.486717 
L 511.043425 104.809654 
L 513.959012 104.897232 
L 516.874599 104.751152 
L 519.790186 104.368565 
L 522.705773 103.741778 
L 525.256912 102.982695 
L 527.80805 102.013164 
L 530.359189 100.814277 
L 532.910328 99.359352 
L 535.097018 97.879896 
L 537.283708 96.149895 
L 539.470399 94.118732 
L 541.292641 92.140557 
L 543.114883 89.826558 
L 544.572676 87.652725 
L 546.03047 85.071623 
L 547.123815 82.737617 
L 548.21716 79.834113 
L 548.946057 77.314135 
L 549.310505 75.706647 
L 549.310505 75.706647 
" style="fill:none;stroke:#000000;stroke-linecap:square;stroke-width:1.5;"/>
   </g>
   <g id="line2d_51">
    <path clip-path="url(#p2e6abd91de)" d="M 477.514174 209.092391 
L 478.24307 205.373649 
L 478.971967 202.853671 
L 480.065312 199.950167 
L 481.158657 197.616161 
L 482.616451 195.035059 
L 484.074245 192.861227 
L 485.896486 190.547227 
L 487.718728 188.569052 
L 489.905419 186.537889 
L 492.092109 184.807888 
L 494.643248 183.103617 
L 497.194386 181.687287 
L 499.745525 180.522586 
L 502.296664 179.584129 
L 505.212251 178.765793 
L 508.127838 178.201067 
L 511.043425 177.87813 
L 513.959012 177.790553 
L 516.874599 177.936632 
L 519.790186 178.319219 
L 522.705773 178.946006 
L 525.256912 179.705089 
L 527.80805 180.67462 
L 530.359189 181.873507 
L 532.910328 183.328432 
L 535.097018 184.807888 
L 537.283708 186.537889 
L 539.470399 188.569052 
L 541.292641 190.547227 
L 543.114883 192.861227 
L 544.572676 195.035059 
L 546.03047 197.616161 
L 547.123815 199.950167 
L 548.21716 202.853671 
L 548.946057 205.373649 
L 549.310505 206.981137 
L 549.310505 206.981137 
" style="fill:none;stroke:#000000;stroke-linecap:square;stroke-width:1.5;"/>
   </g>
   <g id="line2d_52">
    <path clip-path="url(#p2e6abd91de)" d="M 549.966512 211.929747 
L 551.360224 210.982803 
L 552.734839 210.008345 
L 554.089814 209.006756 
L 555.424614 207.978434 
L 556.73871 206.923784 
L 558.031584 205.843223 
L 559.302726 204.737177 
L 560.551632 203.606085 
L 561.777809 202.450393 
L 562.980774 201.270557 
L 564.160049 200.067043 
L 565.315171 198.840328 
L 566.445682 197.590895 
L 567.551135 196.319239 
L 568.631094 195.025862 
L 569.685133 193.711275 
L 570.712834 192.375997 
L 571.713791 191.020556 
L 572.68761 189.645487 
L 573.633905 188.251334 
L 574.552302 186.838648 
L 575.442439 185.407987 
L 576.303964 183.959915 
L 577.136537 182.495006 
L 577.939828 181.013837 
L 578.71352 179.516995 
L 579.457307 178.00507 
L 580.170897 176.478661 
L 580.854006 174.938369 
L 581.506364 173.384804 
L 582.127715 171.818579 
L 582.717812 170.240314 
L 583.276423 168.650631 
L 583.803326 167.05016 
L 584.298313 165.439531 
L 584.76119 163.819383 
L 585.191772 162.190354 
L 585.589891 160.553088 
L 585.955388 158.908233 
L 586.288119 157.256438 
L 586.587953 155.598356 
L 586.854771 153.934642 
L 587.088468 152.265954 
L 587.288951 150.592949 
L 587.456142 148.916291 
L 587.589973 147.236641 
L 587.690394 145.554662 
L 587.757362 143.87102 
L 587.790854 142.186379 
L 587.790854 140.501405 
L 587.757362 138.816764 
L 587.690394 137.133122 
L 587.589973 135.451143 
L 587.456142 133.771493 
L 587.288951 132.094835 
L 587.088468 130.42183 
L 586.854771 128.753142 
L 586.587953 127.089428 
L 586.288119 125.431346 
L 585.955388 123.779551 
L 585.589891 122.134696 
L 585.191772 120.49743 
L 584.76119 118.868401 
L 584.298313 117.248253 
L 583.803326 115.637624 
L 583.276423 114.037153 
L 582.717812 112.44747 
L 582.127715 110.869205 
L 581.506364 109.30298 
L 580.854006 107.749415 
L 580.170897 106.209123 
L 579.457307 104.682714 
L 578.71352 103.170789 
L 577.939828 101.673947 
L 577.136537 100.192778 
L 576.303964 98.727869 
L 575.442439 97.279797 
L 574.552302 95.849136 
L 573.633905 94.43645 
L 572.68761 93.042297 
L 571.713791 91.667228 
L 570.712834 90.311787 
L 569.685133 88.976509 
L 568.631094 87.661922 
L 567.551135 86.368545 
L 566.445682 85.096889 
L 565.315171 83.847456 
L 564.160049 82.620741 
L 562.980774 81.417228 
L 561.777809 80.237391 
L 560.551632 79.081699 
L 559.302726 77.950607 
L 558.031584 76.844561 
L 556.73871 75.764 
L 555.424614 74.70935 
L 554.089814 73.681028 
L 552.734839 72.679439 
L 551.360224 71.704981 
L 549.966512 70.758037 
" style="fill:none;stroke:#0000ff;stroke-linecap:square;stroke-width:1.5;"/>
   </g>
   <g id="patch_18">
    <path d="M 472.00034 264.889347 
L 472.00034 17.798438 
" style="fill:none;stroke:#000000;stroke-linecap:square;stroke-linejoin:miter;stroke-width:0.8;"/>
   </g>
   <g id="patch_19">
    <path d="M 593.304688 264.889347 
L 593.304688 17.798438 
" style="fill:none;stroke:#000000;stroke-linecap:square;stroke-linejoin:miter;stroke-width:0.8;"/>
   </g>
   <g id="patch_20">
    <path d="M 472.00034 264.889347 
L 593.304688 264.889347 
" style="fill:none;stroke:#000000;stroke-linecap:square;stroke-linejoin:miter;stroke-width:0.8;"/>
   </g>
   <g id="patch_21">
    <path d="M 472.00034 17.798438 
L 593.304688 17.798438 
" style="fill:none;stroke:#000000;stroke-linecap:square;stroke-linejoin:miter;stroke-width:0.8;"/>
   </g>
  </g>
  <g id="axes_5">
   <g id="patch_22">
    <path d="M 35.304688 561.398438 
L 156.609035 561.398438 
L 156.609035 314.307528 
L 35.304688 314.307528 
z
" style="fill:#ffffff;"/>
   </g>
   <g id="PathCollection_5">
    <g clip-path="url(#pf72e0022a3)">
     <use style="fill:#1f77b4;stroke:#1f77b4;" x="151.095201" xlink:href="#m7219894028" y="371.322436"/>
    </g>
   </g>
   <g id="matplotlib.axis_9">
    <g id="xtick_15">
     <g id="line2d_53">
      <g>
       <use style="stroke:#000000;stroke-width:0.8;" x="40.26381" xlink:href="#m6cd0d874ed" y="561.398438"/>
      </g>
     </g>
     <g id="text_49">
      <!-- −10 -->
      <g transform="translate(29.711466 575.996875)scale(0.1 -0.1)">
       <use xlink:href="#DejaVuSans-2212"/>
       <use x="83.789062" xlink:href="#DejaVuSans-31"/>
       <use x="147.412109" xlink:href="#DejaVuSans-30"/>
      </g>
     </g>
    </g>
    <g id="xtick_16">
     <g id="line2d_54">
      <g>
       <use style="stroke:#000000;stroke-width:0.8;" x="95.734977" xlink:href="#m6cd0d874ed" y="561.398438"/>
      </g>
     </g>
     <g id="text_50">
      <!-- 0 -->
      <g transform="translate(92.553727 575.996875)scale(0.1 -0.1)">
       <use xlink:href="#DejaVuSans-30"/>
      </g>
     </g>
    </g>
    <g id="xtick_17">
     <g id="line2d_55">
      <g>
       <use style="stroke:#000000;stroke-width:0.8;" x="151.206144" xlink:href="#m6cd0d874ed" y="561.398438"/>
      </g>
     </g>
     <g id="text_51">
      <!-- 10 -->
      <g transform="translate(144.843644 575.996875)scale(0.1 -0.1)">
       <use xlink:href="#DejaVuSans-31"/>
       <use x="63.623047" xlink:href="#DejaVuSans-30"/>
      </g>
     </g>
    </g>
    <g id="text_52">
     <!-- 1e−6 -->
     <g transform="translate(129.351223 588.675)scale(0.1 -0.1)">
      <use xlink:href="#DejaVuSans-31"/>
      <use x="63.623047" xlink:href="#DejaVuSans-65"/>
      <use x="125.146484" xlink:href="#DejaVuSans-2212"/>
      <use x="208.935547" xlink:href="#DejaVuSans-36"/>
     </g>
    </g>
   </g>
   <g id="matplotlib.axis_10">
    <g id="ytick_27">
     <g id="line2d_56">
      <g>
       <use style="stroke:#000000;stroke-width:0.8;" x="35.304688" xlink:href="#m19cb1103a2" y="548.795317"/>
      </g>
     </g>
     <g id="text_53">
      <!-- −20 -->
      <g transform="translate(7.2 552.594536)scale(0.1 -0.1)">
       <use xlink:href="#DejaVuSans-2212"/>
       <use x="83.789062" xlink:href="#DejaVuSans-32"/>
       <use x="147.412109" xlink:href="#DejaVuSans-30"/>
      </g>
     </g>
    </g>
    <g id="ytick_28">
     <g id="line2d_57">
      <g>
       <use style="stroke:#000000;stroke-width:0.8;" x="35.304688" xlink:href="#m19cb1103a2" y="521.059733"/>
      </g>
     </g>
     <g id="text_54">
      <!-- −15 -->
      <g transform="translate(7.2 524.858952)scale(0.1 -0.1)">
       <defs>
        <path d="M 691 4666 
L 3169 4666 
L 3169 4134 
L 1269 4134 
L 1269 2991 
Q 1406 3038 1543 3061 
Q 1681 3084 1819 3084 
Q 2600 3084 3056 2656 
Q 3513 2228 3513 1497 
Q 3513 744 3044 326 
Q 2575 -91 1722 -91 
Q 1428 -91 1123 -41 
Q 819 9 494 109 
L 494 744 
Q 775 591 1075 516 
Q 1375 441 1709 441 
Q 2250 441 2565 725 
Q 2881 1009 2881 1497 
Q 2881 1984 2565 2268 
Q 2250 2553 1709 2553 
Q 1456 2553 1204 2497 
Q 953 2441 691 2322 
L 691 4666 
z
" id="DejaVuSans-35" transform="scale(0.015625)"/>
       </defs>
       <use xlink:href="#DejaVuSans-2212"/>
       <use x="83.789062" xlink:href="#DejaVuSans-31"/>
       <use x="147.412109" xlink:href="#DejaVuSans-35"/>
      </g>
     </g>
    </g>
    <g id="ytick_29">
     <g id="line2d_58">
      <g>
       <use style="stroke:#000000;stroke-width:0.8;" x="35.304688" xlink:href="#m19cb1103a2" y="493.32415"/>
      </g>
     </g>
     <g id="text_55">
      <!-- −10 -->
      <g transform="translate(7.2 497.123369)scale(0.1 -0.1)">
       <use xlink:href="#DejaVuSans-2212"/>
       <use x="83.789062" xlink:href="#DejaVuSans-31"/>
       <use x="147.412109" xlink:href="#DejaVuSans-30"/>
      </g>
     </g>
    </g>
    <g id="ytick_30">
     <g id="line2d_59">
      <g>
       <use style="stroke:#000000;stroke-width:0.8;" x="35.304688" xlink:href="#m19cb1103a2" y="465.588566"/>
      </g>
     </g>
     <g id="text_56">
      <!-- −5 -->
      <g transform="translate(13.5625 469.387785)scale(0.1 -0.1)">
       <use xlink:href="#DejaVuSans-2212"/>
       <use x="83.789062" xlink:href="#DejaVuSans-35"/>
      </g>
     </g>
    </g>
    <g id="ytick_31">
     <g id="line2d_60">
      <g>
       <use style="stroke:#000000;stroke-width:0.8;" x="35.304688" xlink:href="#m19cb1103a2" y="437.852983"/>
      </g>
     </g>
     <g id="text_57">
      <!-- 0 -->
      <g transform="translate(21.942187 441.652202)scale(0.1 -0.1)">
       <use xlink:href="#DejaVuSans-30"/>
      </g>
     </g>
    </g>
    <g id="ytick_32">
     <g id="line2d_61">
      <g>
       <use style="stroke:#000000;stroke-width:0.8;" x="35.304688" xlink:href="#m19cb1103a2" y="410.117399"/>
      </g>
     </g>
     <g id="text_58">
      <!-- 5 -->
      <g transform="translate(21.942187 413.916618)scale(0.1 -0.1)">
       <use xlink:href="#DejaVuSans-35"/>
      </g>
     </g>
    </g>
    <g id="ytick_33">
     <g id="line2d_62">
      <g>
       <use style="stroke:#000000;stroke-width:0.8;" x="35.304688" xlink:href="#m19cb1103a2" y="382.381816"/>
      </g>
     </g>
     <g id="text_59">
      <!-- 10 -->
      <g transform="translate(15.579687 386.181035)scale(0.1 -0.1)">
       <use xlink:href="#DejaVuSans-31"/>
       <use x="63.623047" xlink:href="#DejaVuSans-30"/>
      </g>
     </g>
    </g>
    <g id="ytick_34">
     <g id="line2d_63">
      <g>
       <use style="stroke:#000000;stroke-width:0.8;" x="35.304688" xlink:href="#m19cb1103a2" y="354.646233"/>
      </g>
     </g>
     <g id="text_60">
      <!-- 15 -->
      <g transform="translate(15.579687 358.445451)scale(0.1 -0.1)">
       <use xlink:href="#DejaVuSans-31"/>
       <use x="63.623047" xlink:href="#DejaVuSans-35"/>
      </g>
     </g>
    </g>
    <g id="ytick_35">
     <g id="line2d_64">
      <g>
       <use style="stroke:#000000;stroke-width:0.8;" x="35.304688" xlink:href="#m19cb1103a2" y="326.910649"/>
      </g>
     </g>
     <g id="text_61">
      <!-- 20 -->
      <g transform="translate(15.579687 330.709868)scale(0.1 -0.1)">
       <use xlink:href="#DejaVuSans-32"/>
       <use x="63.623047" xlink:href="#DejaVuSans-30"/>
      </g>
     </g>
    </g>
    <g id="text_62">
     <!-- 1e−6 -->
     <g transform="translate(35.304688 311.307528)scale(0.1 -0.1)">
      <use xlink:href="#DejaVuSans-31"/>
      <use x="63.623047" xlink:href="#DejaVuSans-65"/>
      <use x="125.146484" xlink:href="#DejaVuSans-2212"/>
      <use x="208.935547" xlink:href="#DejaVuSans-36"/>
     </g>
    </g>
   </g>
   <g id="line2d_65">
    <path clip-path="url(#pf72e0022a3)" d="M 40.818521 371.461843 
L 54.131602 375.533162 
L 61.897565 377.666825 
L 68.554105 379.254643 
L 74.101222 380.364327 
L 79.648338 381.25051 
L 84.640743 381.838826 
L 89.633148 382.216615 
L 94.625553 382.376342 
L 99.617958 382.314817 
L 104.610363 382.03327 
L 109.602768 381.537318 
L 115.149885 380.746972 
L 120.697002 379.723704 
L 126.79883 378.359313 
L 133.45537 376.63227 
L 141.221334 374.382775 
L 150.09672 371.636061 
L 150.09672 371.636061 
" style="fill:none;stroke:#000000;stroke-linecap:square;stroke-width:1.5;"/>
   </g>
   <g id="line2d_66">
    <path clip-path="url(#pf72e0022a3)" d="M 40.818521 504.244123 
L 54.131602 500.172804 
L 61.897565 498.039141 
L 68.554105 496.451323 
L 74.101222 495.341639 
L 79.648338 494.455456 
L 84.640743 493.86714 
L 89.633148 493.48935 
L 94.625553 493.329624 
L 99.617958 493.391148 
L 104.610363 493.672696 
L 109.602768 494.168648 
L 115.149885 494.958994 
L 120.697002 495.982262 
L 126.79883 497.346653 
L 133.45537 499.073696 
L 141.221334 501.323191 
L 150.09672 504.069905 
L 150.09672 504.069905 
" style="fill:none;stroke:#000000;stroke-linecap:square;stroke-width:1.5;"/>
   </g>
   <g id="line2d_67">
    <path clip-path="url(#pf72e0022a3)" d="M 151.095201 504.38353 
L 150.803508 503.060427 
L 150.517678 501.736046 
L 150.237714 500.410411 
L 149.963624 499.08355 
L 149.695413 497.755489 
L 149.433085 496.426252 
L 149.176646 495.095867 
L 148.926101 493.764359 
L 148.681455 492.431755 
L 148.442713 491.098081 
L 148.209878 489.763362 
L 147.982957 488.427625 
L 147.761953 487.090897 
L 147.546871 485.753203 
L 147.337715 484.41457 
L 147.134488 483.075023 
L 146.937196 481.73459 
L 146.745842 480.393296 
L 146.560429 479.051168 
L 146.380961 477.708232 
L 146.207442 476.364515 
L 146.039875 475.020042 
L 145.878264 473.67484 
L 145.722611 472.328936 
L 145.57292 470.982356 
L 145.429194 469.635126 
L 145.291435 468.287273 
L 145.159646 466.938823 
L 145.03383 465.589803 
L 144.913989 464.240239 
L 144.800126 462.890157 
L 144.692242 461.539584 
L 144.59034 460.188547 
L 144.494422 458.837072 
L 144.40449 457.485185 
L 144.320546 456.132913 
L 144.24259 454.780283 
L 144.170625 453.427321 
L 144.104653 452.074053 
L 144.044673 450.720507 
L 143.990689 449.366708 
L 143.9427 448.012684 
L 143.900707 446.65846 
L 143.864712 445.304063 
L 143.834715 443.949521 
L 143.810717 442.594859 
L 143.792718 441.240103 
L 143.780718 439.885282 
L 143.774718 438.53042 
L 143.774718 437.175546 
L 143.780718 435.820684 
L 143.792718 434.465863 
L 143.810717 433.111107 
L 143.834715 431.756445 
L 143.864712 430.401903 
L 143.900707 429.047506 
L 143.9427 427.693282 
L 143.990689 426.339258 
L 144.044673 424.985459 
L 144.104653 423.631912 
L 144.170625 422.278645 
L 144.24259 420.925683 
L 144.320546 419.573052 
L 144.40449 418.220781 
L 144.494422 416.868894 
L 144.59034 415.517419 
L 144.692242 414.166382 
L 144.800126 412.815809 
L 144.913989 411.465727 
L 145.03383 410.116163 
L 145.159646 408.767143 
L 145.291435 407.418693 
L 145.429194 406.07084 
L 145.57292 404.72361 
L 145.722611 403.37703 
L 145.878264 402.031125 
L 146.039875 400.685924 
L 146.207442 399.341451 
L 146.380961 397.997734 
L 146.560429 396.654798 
L 146.745842 395.31267 
L 146.937196 393.971376 
L 147.134488 392.630943 
L 147.337715 391.291396 
L 147.546871 389.952763 
L 147.761953 388.615069 
L 147.982957 387.278341 
L 148.209878 385.942604 
L 148.442713 384.607885 
L 148.681455 383.274211 
L 148.926101 381.941607 
L 149.176646 380.610099 
L 149.433085 379.279714 
L 149.695413 377.950477 
L 149.963624 376.622416 
L 150.237714 375.295555 
L 150.517678 373.96992 
L 150.803508 372.645539 
L 151.095201 371.322436 
" style="fill:none;stroke:#0000ff;stroke-linecap:square;stroke-width:1.5;"/>
   </g>
   <g id="patch_23">
    <path d="M 35.304688 561.398438 
L 35.304688 314.307528 
" style="fill:none;stroke:#000000;stroke-linecap:square;stroke-linejoin:miter;stroke-width:0.8;"/>
   </g>
   <g id="patch_24">
    <path d="M 156.609035 561.398438 
L 156.609035 314.307528 
" style="fill:none;stroke:#000000;stroke-linecap:square;stroke-linejoin:miter;stroke-width:0.8;"/>
   </g>
   <g id="patch_25">
    <path d="M 35.304687 561.398438 
L 156.609035 561.398438 
" style="fill:none;stroke:#000000;stroke-linecap:square;stroke-linejoin:miter;stroke-width:0.8;"/>
   </g>
   <g id="patch_26">
    <path d="M 35.304687 314.307528 
L 156.609035 314.307528 
" style="fill:none;stroke:#000000;stroke-linecap:square;stroke-linejoin:miter;stroke-width:0.8;"/>
   </g>
  </g>
  <g id="axes_6">
   <g id="patch_27">
    <path d="M 180.869905 561.398438 
L 302.174253 561.398438 
L 302.174253 314.307528 
L 180.869905 314.307528 
z
" style="fill:#ffffff;"/>
   </g>
   <g id="PathCollection_6">
    <g clip-path="url(#pfc3c06b333)">
     <use style="fill:#1f77b4;stroke:#1f77b4;" x="292.446194" xlink:href="#m7219894028" y="359.67141"/>
    </g>
   </g>
   <g id="matplotlib.axis_11">
    <g id="xtick_18">
     <g id="line2d_68">
      <g>
       <use style="stroke:#000000;stroke-width:0.8;" x="185.83815" xlink:href="#m6cd0d874ed" y="561.398438"/>
      </g>
     </g>
     <g id="text_63">
      <!-- −10 -->
      <g transform="translate(175.285806 575.996875)scale(0.1 -0.1)">
       <use xlink:href="#DejaVuSans-2212"/>
       <use x="83.789062" xlink:href="#DejaVuSans-31"/>
       <use x="147.412109" xlink:href="#DejaVuSans-30"/>
      </g>
     </g>
    </g>
    <g id="xtick_19">
     <g id="line2d_69">
      <g>
       <use style="stroke:#000000;stroke-width:0.8;" x="240.397026" xlink:href="#m6cd0d874ed" y="561.398438"/>
      </g>
     </g>
     <g id="text_64">
      <!-- 0 -->
      <g transform="translate(237.215776 575.996875)scale(0.1 -0.1)">
       <use xlink:href="#DejaVuSans-30"/>
      </g>
     </g>
    </g>
    <g id="xtick_20">
     <g id="line2d_70">
      <g>
       <use style="stroke:#000000;stroke-width:0.8;" x="294.955903" xlink:href="#m6cd0d874ed" y="561.398438"/>
      </g>
     </g>
     <g id="text_65">
      <!-- 10 -->
      <g transform="translate(288.593403 575.996875)scale(0.1 -0.1)">
       <use xlink:href="#DejaVuSans-31"/>
       <use x="63.623047" xlink:href="#DejaVuSans-30"/>
      </g>
     </g>
    </g>
    <g id="text_66">
     <!-- 1e−6 -->
     <g transform="translate(274.91644 588.675)scale(0.1 -0.1)">
      <use xlink:href="#DejaVuSans-31"/>
      <use x="63.623047" xlink:href="#DejaVuSans-65"/>
      <use x="125.146484" xlink:href="#DejaVuSans-2212"/>
      <use x="208.935547" xlink:href="#DejaVuSans-36"/>
     </g>
    </g>
   </g>
   <g id="matplotlib.axis_12">
    <g id="ytick_36">
     <g id="line2d_71">
      <g>
       <use style="stroke:#000000;stroke-width:0.8;" x="180.869905" xlink:href="#m19cb1103a2" y="546.970736"/>
      </g>
     </g>
     <g id="text_67">
      <!-- −20 -->
      <g transform="translate(152.765217 550.769954)scale(0.1 -0.1)">
       <use xlink:href="#DejaVuSans-2212"/>
       <use x="83.789062" xlink:href="#DejaVuSans-32"/>
       <use x="147.412109" xlink:href="#DejaVuSans-30"/>
      </g>
     </g>
    </g>
    <g id="ytick_37">
     <g id="line2d_72">
      <g>
       <use style="stroke:#000000;stroke-width:0.8;" x="180.869905" xlink:href="#m19cb1103a2" y="492.411859"/>
      </g>
     </g>
     <g id="text_68">
      <!-- −10 -->
      <g transform="translate(152.765217 496.211078)scale(0.1 -0.1)">
       <use xlink:href="#DejaVuSans-2212"/>
       <use x="83.789062" xlink:href="#DejaVuSans-31"/>
       <use x="147.412109" xlink:href="#DejaVuSans-30"/>
      </g>
     </g>
    </g>
    <g id="ytick_38">
     <g id="line2d_73">
      <g>
       <use style="stroke:#000000;stroke-width:0.8;" x="180.869905" xlink:href="#m19cb1103a2" y="437.852983"/>
      </g>
     </g>
     <g id="text_69">
      <!-- 0 -->
      <g transform="translate(167.507405 441.652202)scale(0.1 -0.1)">
       <use xlink:href="#DejaVuSans-30"/>
      </g>
     </g>
    </g>
    <g id="ytick_39">
     <g id="line2d_74">
      <g>
       <use style="stroke:#000000;stroke-width:0.8;" x="180.869905" xlink:href="#m19cb1103a2" y="383.294107"/>
      </g>
     </g>
     <g id="text_70">
      <!-- 10 -->
      <g transform="translate(161.144905 387.093325)scale(0.1 -0.1)">
       <use xlink:href="#DejaVuSans-31"/>
       <use x="63.623047" xlink:href="#DejaVuSans-30"/>
      </g>
     </g>
    </g>
    <g id="ytick_40">
     <g id="line2d_75">
      <g>
       <use style="stroke:#000000;stroke-width:0.8;" x="180.869905" xlink:href="#m19cb1103a2" y="328.73523"/>
      </g>
     </g>
     <g id="text_71">
      <!-- 20 -->
      <g transform="translate(161.144905 332.534449)scale(0.1 -0.1)">
       <use xlink:href="#DejaVuSans-32"/>
       <use x="63.623047" xlink:href="#DejaVuSans-30"/>
      </g>
     </g>
    </g>
    <g id="text_72">
     <!-- 1e−6 -->
     <g transform="translate(180.869905 311.307528)scale(0.1 -0.1)">
      <use xlink:href="#DejaVuSans-31"/>
      <use x="63.623047" xlink:href="#DejaVuSans-65"/>
      <use x="125.146484" xlink:href="#DejaVuSans-2212"/>
      <use x="208.935547" xlink:href="#DejaVuSans-36"/>
     </g>
    </g>
   </g>
   <g id="line2d_76">
    <path clip-path="url(#pfc3c06b333)" d="M 186.383739 358.233219 
L 196.749925 365.70112 
L 202.751402 369.747169 
L 207.661701 372.798786 
L 212.026411 375.262421 
L 215.845532 377.193849 
L 219.664653 378.891438 
L 223.483775 380.334686 
L 226.757307 381.356018 
L 230.03084 382.168561 
L 233.304372 382.765103 
L 236.577905 383.140348 
L 239.851438 383.290966 
L 243.12497 383.21562 
L 246.398503 382.914978 
L 249.672035 382.39171 
L 252.945568 381.650459 
L 256.219101 380.697806 
L 260.038222 379.33057 
L 263.857343 377.703687 
L 267.676465 375.836808 
L 272.041175 373.438407 
L 276.405885 370.793904 
L 281.861772 367.206047 
L 288.408838 362.604178 
L 293.864725 358.633041 
L 293.864725 358.633041 
" style="fill:none;stroke:#000000;stroke-linecap:square;stroke-width:1.5;"/>
   </g>
   <g id="line2d_77">
    <path clip-path="url(#pfc3c06b333)" d="M 186.383739 517.472747 
L 196.749925 510.004846 
L 202.751402 505.958797 
L 207.661701 502.90718 
L 212.026411 500.443545 
L 215.845532 498.512117 
L 219.664653 496.814528 
L 223.483775 495.37128 
L 226.757307 494.349948 
L 230.03084 493.537405 
L 233.304372 492.940863 
L 236.577905 492.565618 
L 239.851438 492.415 
L 243.12497 492.490346 
L 246.398503 492.790988 
L 249.672035 493.314256 
L 252.945568 494.055506 
L 256.219101 495.00816 
L 260.038222 496.375396 
L 263.857343 498.002279 
L 267.676465 499.869158 
L 272.041175 502.267559 
L 276.405885 504.912062 
L 281.861772 508.499919 
L 288.408838 513.101788 
L 293.864725 517.072925 
L 293.864725 517.072925 
" style="fill:none;stroke:#000000;stroke-linecap:square;stroke-width:1.5;"/>
   </g>
   <g id="line2d_78">
    <path clip-path="url(#pfc3c06b333)" d="M 292.446194 516.034556 
L 292.614607 514.46106 
L 292.779595 512.8872 
L 292.941158 511.312986 
L 293.099295 509.738423 
L 293.254006 508.16352 
L 293.405289 506.588284 
L 293.553144 505.012723 
L 293.69757 503.436844 
L 293.838567 501.860654 
L 293.976133 500.284161 
L 294.110269 498.707372 
L 294.240973 497.130296 
L 294.368246 495.552938 
L 294.492085 493.975308 
L 294.612492 492.397411 
L 294.729464 490.819257 
L 294.843002 489.240851 
L 294.953106 487.662203 
L 295.059774 486.083318 
L 295.163006 484.504205 
L 295.262801 482.924871 
L 295.35916 481.345324 
L 295.452081 479.765571 
L 295.541565 478.185619 
L 295.62761 476.605477 
L 295.710217 475.025151 
L 295.789384 473.444649 
L 295.865113 471.863978 
L 295.937401 470.283146 
L 296.00625 468.702161 
L 296.071658 467.12103 
L 296.133625 465.53976 
L 296.192152 463.958359 
L 296.247237 462.376834 
L 296.29888 460.795193 
L 296.347082 459.213444 
L 296.391841 457.631593 
L 296.433159 456.049649 
L 296.471034 454.467619 
L 296.505466 452.88551 
L 296.536456 451.30333 
L 296.564003 449.721086 
L 296.588106 448.138786 
L 296.608767 446.556437 
L 296.625984 444.974047 
L 296.639758 443.391623 
L 296.650088 441.809173 
L 296.656975 440.226705 
L 296.660419 438.644225 
L 296.660419 437.061741 
L 296.656975 435.479261 
L 296.650088 433.896793 
L 296.639758 432.314343 
L 296.625984 430.731919 
L 296.608767 429.149529 
L 296.588106 427.56718 
L 296.564003 425.98488 
L 296.536456 424.402636 
L 296.505466 422.820456 
L 296.471034 421.238347 
L 296.433159 419.656317 
L 296.391841 418.074373 
L 296.347082 416.492522 
L 296.29888 414.910773 
L 296.247237 413.329132 
L 296.192152 411.747607 
L 296.133625 410.166206 
L 296.071658 408.584936 
L 296.00625 407.003805 
L 295.937401 405.42282 
L 295.865113 403.841988 
L 295.789384 402.261317 
L 295.710217 400.680815 
L 295.62761 399.100489 
L 295.541565 397.520347 
L 295.452081 395.940395 
L 295.35916 394.360642 
L 295.262801 392.781094 
L 295.163006 391.201761 
L 295.059774 389.622648 
L 294.953106 388.043763 
L 294.843002 386.465114 
L 294.729464 384.886709 
L 294.612492 383.308554 
L 294.492085 381.730658 
L 294.368246 380.153028 
L 294.240973 378.57567 
L 294.110269 376.998593 
L 293.976133 375.421805 
L 293.838567 373.845312 
L 293.69757 372.269122 
L 293.553144 370.693243 
L 293.405289 369.117682 
L 293.254006 367.542446 
L 293.099295 365.967543 
L 292.941158 364.39298 
L 292.779595 362.818766 
L 292.614607 361.244906 
L 292.446194 359.67141 
" style="fill:none;stroke:#0000ff;stroke-linecap:square;stroke-width:1.5;"/>
   </g>
   <g id="patch_28">
    <path d="M 180.869905 561.398438 
L 180.869905 314.307528 
" style="fill:none;stroke:#000000;stroke-linecap:square;stroke-linejoin:miter;stroke-width:0.8;"/>
   </g>
   <g id="patch_29">
    <path d="M 302.174253 561.398438 
L 302.174253 314.307528 
" style="fill:none;stroke:#000000;stroke-linecap:square;stroke-linejoin:miter;stroke-width:0.8;"/>
   </g>
   <g id="patch_30">
    <path d="M 180.869905 561.398438 
L 302.174253 561.398438 
" style="fill:none;stroke:#000000;stroke-linecap:square;stroke-linejoin:miter;stroke-width:0.8;"/>
   </g>
   <g id="patch_31">
    <path d="M 180.869905 314.307528 
L 302.174253 314.307528 
" style="fill:none;stroke:#000000;stroke-linecap:square;stroke-linejoin:miter;stroke-width:0.8;"/>
   </g>
  </g>
  <g id="axes_7">
   <g id="patch_32">
    <path d="M 326.435122 561.398438 
L 447.73947 561.398438 
L 447.73947 314.307528 
L 326.435122 314.307528 
z
" style="fill:#ffffff;"/>
   </g>
   <g id="PathCollection_7">
    <g clip-path="url(#paddd52b063)">
     <use style="fill:#1f77b4;stroke:#1f77b4;" x="429.331261" xlink:href="#m7219894028" y="355.659341"/>
    </g>
   </g>
   <g id="matplotlib.axis_13">
    <g id="xtick_21">
     <g id="line2d_79">
      <g>
       <use style="stroke:#000000;stroke-width:0.8;" x="331.409741" xlink:href="#m6cd0d874ed" y="561.398438"/>
      </g>
     </g>
     <g id="text_73">
      <!-- −10 -->
      <g transform="translate(320.857397 575.996875)scale(0.1 -0.1)">
       <use xlink:href="#DejaVuSans-2212"/>
       <use x="83.789062" xlink:href="#DejaVuSans-31"/>
       <use x="147.412109" xlink:href="#DejaVuSans-30"/>
      </g>
     </g>
    </g>
    <g id="xtick_22">
     <g id="line2d_80">
      <g>
       <use style="stroke:#000000;stroke-width:0.8;" x="385.331283" xlink:href="#m6cd0d874ed" y="561.398438"/>
      </g>
     </g>
     <g id="text_74">
      <!-- 0 -->
      <g transform="translate(382.150033 575.996875)scale(0.1 -0.1)">
       <use xlink:href="#DejaVuSans-30"/>
      </g>
     </g>
    </g>
    <g id="xtick_23">
     <g id="line2d_81">
      <g>
       <use style="stroke:#000000;stroke-width:0.8;" x="439.252824" xlink:href="#m6cd0d874ed" y="561.398438"/>
      </g>
     </g>
     <g id="text_75">
      <!-- 10 -->
      <g transform="translate(432.890324 575.996875)scale(0.1 -0.1)">
       <use xlink:href="#DejaVuSans-31"/>
       <use x="63.623047" xlink:href="#DejaVuSans-30"/>
      </g>
     </g>
    </g>
    <g id="text_76">
     <!-- 1e−6 -->
     <g transform="translate(420.481658 588.675)scale(0.1 -0.1)">
      <use xlink:href="#DejaVuSans-31"/>
      <use x="63.623047" xlink:href="#DejaVuSans-65"/>
      <use x="125.146484" xlink:href="#DejaVuSans-2212"/>
      <use x="208.935547" xlink:href="#DejaVuSans-36"/>
     </g>
    </g>
   </g>
   <g id="matplotlib.axis_14">
    <g id="ytick_41">
     <g id="line2d_82">
      <g>
       <use style="stroke:#000000;stroke-width:0.8;" x="326.435122" xlink:href="#m19cb1103a2" y="545.696066"/>
      </g>
     </g>
     <g id="text_77">
      <!-- −20 -->
      <g transform="translate(298.330435 549.495285)scale(0.1 -0.1)">
       <use xlink:href="#DejaVuSans-2212"/>
       <use x="83.789062" xlink:href="#DejaVuSans-32"/>
       <use x="147.412109" xlink:href="#DejaVuSans-30"/>
      </g>
     </g>
    </g>
    <g id="ytick_42">
     <g id="line2d_83">
      <g>
       <use style="stroke:#000000;stroke-width:0.8;" x="326.435122" xlink:href="#m19cb1103a2" y="491.774525"/>
      </g>
     </g>
     <g id="text_78">
      <!-- −10 -->
      <g transform="translate(298.330435 495.573743)scale(0.1 -0.1)">
       <use xlink:href="#DejaVuSans-2212"/>
       <use x="83.789062" xlink:href="#DejaVuSans-31"/>
       <use x="147.412109" xlink:href="#DejaVuSans-30"/>
      </g>
     </g>
    </g>
    <g id="ytick_43">
     <g id="line2d_84">
      <g>
       <use style="stroke:#000000;stroke-width:0.8;" x="326.435122" xlink:href="#m19cb1103a2" y="437.852983"/>
      </g>
     </g>
     <g id="text_79">
      <!-- 0 -->
      <g transform="translate(313.072622 441.652202)scale(0.1 -0.1)">
       <use xlink:href="#DejaVuSans-30"/>
      </g>
     </g>
    </g>
    <g id="ytick_44">
     <g id="line2d_85">
      <g>
       <use style="stroke:#000000;stroke-width:0.8;" x="326.435122" xlink:href="#m19cb1103a2" y="383.931441"/>
      </g>
     </g>
     <g id="text_80">
      <!-- 10 -->
      <g transform="translate(306.710122 387.73066)scale(0.1 -0.1)">
       <use xlink:href="#DejaVuSans-31"/>
       <use x="63.623047" xlink:href="#DejaVuSans-30"/>
      </g>
     </g>
    </g>
    <g id="ytick_45">
     <g id="line2d_86">
      <g>
       <use style="stroke:#000000;stroke-width:0.8;" x="326.435122" xlink:href="#m19cb1103a2" y="330.009899"/>
      </g>
     </g>
     <g id="text_81">
      <!-- 20 -->
      <g transform="translate(306.710122 333.809118)scale(0.1 -0.1)">
       <use xlink:href="#DejaVuSans-32"/>
       <use x="63.623047" xlink:href="#DejaVuSans-30"/>
      </g>
     </g>
    </g>
    <g id="text_82">
     <!-- 1e−6 -->
     <g transform="translate(326.435122 311.307528)scale(0.1 -0.1)">
      <use xlink:href="#DejaVuSans-31"/>
      <use x="63.623047" xlink:href="#DejaVuSans-65"/>
      <use x="125.146484" xlink:href="#DejaVuSans-2212"/>
      <use x="208.935547" xlink:href="#DejaVuSans-36"/>
     </g>
    </g>
   </g>
   <g id="line2d_87">
    <path clip-path="url(#paddd52b063)" d="M 331.948956 345.010083 
L 341.115618 355.420973 
L 346.507773 361.22534 
L 350.821496 365.576889 
L 354.596004 369.112612 
L 358.370512 372.349722 
L 361.605804 374.856969 
L 364.841097 377.093781 
L 368.076389 379.040303 
L 370.772466 380.428108 
L 373.468543 381.593721 
L 376.16462 382.529954 
L 378.860698 383.231035 
L 381.556775 383.692643 
L 384.252852 383.911929 
L 386.948929 383.887544 
L 389.645006 383.619637 
L 392.341083 383.10986 
L 395.03716 382.361356 
L 397.733237 381.378739 
L 400.429314 380.168068 
L 403.125391 378.736808 
L 406.360684 376.740633 
L 409.595976 374.457303 
L 412.831269 371.907084 
L 416.605777 368.624832 
L 420.380285 365.049858 
L 424.694008 360.661269 
L 430.086162 354.823168 
L 437.635178 346.251682 
L 438.174393 345.631036 
L 438.174393 345.631036 
" style="fill:none;stroke:#000000;stroke-linecap:square;stroke-width:1.5;"/>
   </g>
   <g id="line2d_88">
    <path clip-path="url(#paddd52b063)" d="M 331.948956 530.695883 
L 341.115618 520.284993 
L 346.507773 514.480626 
L 350.821496 510.129077 
L 354.596004 506.593353 
L 358.370512 503.356244 
L 361.605804 500.848997 
L 364.841097 498.612185 
L 368.076389 496.665663 
L 370.772466 495.277857 
L 373.468543 494.112245 
L 376.16462 493.176012 
L 378.860698 492.47493 
L 381.556775 492.013323 
L 384.252852 491.794037 
L 386.948929 491.818422 
L 389.645006 492.086329 
L 392.341083 492.596106 
L 395.03716 493.34461 
L 397.733237 494.327227 
L 400.429314 495.537898 
L 403.125391 496.969158 
L 406.360684 498.965333 
L 409.595976 501.248663 
L 412.831269 503.798882 
L 416.605777 507.081134 
L 420.380285 510.656108 
L 424.694008 515.044697 
L 430.086162 520.882798 
L 437.635178 529.454283 
L 438.174393 530.07493 
L 438.174393 530.07493 
" style="fill:none;stroke:#000000;stroke-linecap:square;stroke-width:1.5;"/>
   </g>
   <g id="line2d_89">
    <path clip-path="url(#paddd52b063)" d="M 429.331261 520.046625 
L 429.843032 518.438503 
L 430.344681 516.827195 
L 430.836189 515.212765 
L 431.317536 513.595276 
L 431.788702 511.974793 
L 432.24967 510.351379 
L 432.700421 508.725099 
L 433.140938 507.096016 
L 433.571202 505.464196 
L 433.991197 503.829702 
L 434.400906 502.1926 
L 434.800314 500.552954 
L 435.189403 498.91083 
L 435.56816 497.266291 
L 435.936568 495.619403 
L 436.294613 493.970231 
L 436.642282 492.31884 
L 436.97956 490.665296 
L 437.306435 489.009664 
L 437.622892 487.352009 
L 437.92892 485.692397 
L 438.224507 484.030894 
L 438.509641 482.367565 
L 438.78431 480.702476 
L 439.048504 479.035693 
L 439.302212 477.367281 
L 439.545424 475.697308 
L 439.778131 474.025838 
L 440.000323 472.352937 
L 440.211993 470.678673 
L 440.41313 469.003111 
L 440.603728 467.326317 
L 440.783778 465.648358 
L 440.953274 463.9693 
L 441.11221 462.28921 
L 441.260577 460.608153 
L 441.398372 458.926197 
L 441.525588 457.243407 
L 441.64222 455.559851 
L 441.748265 453.875595 
L 441.843716 452.190705 
L 441.928572 450.505248 
L 442.002827 448.819291 
L 442.066481 447.132901 
L 442.119529 445.446143 
L 442.16197 443.759086 
L 442.193803 442.071795 
L 442.215025 440.384337 
L 442.225636 438.696779 
L 442.225636 437.009187 
L 442.215025 435.321629 
L 442.193803 433.634171 
L 442.16197 431.94688 
L 442.119529 430.259823 
L 442.066481 428.573065 
L 442.002827 426.886675 
L 441.928572 425.200718 
L 441.843716 423.515261 
L 441.748265 421.830371 
L 441.64222 420.146115 
L 441.525588 418.462559 
L 441.398372 416.779769 
L 441.260577 415.097813 
L 441.11221 413.416756 
L 440.953274 411.736666 
L 440.783778 410.057608 
L 440.603728 408.379649 
L 440.41313 406.702855 
L 440.211993 405.027293 
L 440.000323 403.353029 
L 439.778131 401.680128 
L 439.545424 400.008658 
L 439.302212 398.338685 
L 439.048504 396.670273 
L 438.78431 395.00349 
L 438.509641 393.338401 
L 438.224507 391.675072 
L 437.92892 390.013568 
L 437.622892 388.353957 
L 437.306435 386.696302 
L 436.97956 385.04067 
L 436.642282 383.387126 
L 436.294613 381.735735 
L 435.936568 380.086563 
L 435.56816 378.439675 
L 435.189403 376.795136 
L 434.800314 375.153011 
L 434.400906 373.513366 
L 433.991197 371.876264 
L 433.571202 370.24177 
L 433.140938 368.60995 
L 432.700421 366.980867 
L 432.24967 365.354587 
L 431.788702 363.731173 
L 431.317536 362.110689 
L 430.836189 360.493201 
L 430.344681 358.87877 
L 429.843032 357.267463 
L 429.331261 355.659341 
" style="fill:none;stroke:#0000ff;stroke-linecap:square;stroke-width:1.5;"/>
   </g>
   <g id="patch_33">
    <path d="M 326.435122 561.398438 
L 326.435122 314.307528 
" style="fill:none;stroke:#000000;stroke-linecap:square;stroke-linejoin:miter;stroke-width:0.8;"/>
   </g>
   <g id="patch_34">
    <path d="M 447.73947 561.398438 
L 447.73947 314.307528 
" style="fill:none;stroke:#000000;stroke-linecap:square;stroke-linejoin:miter;stroke-width:0.8;"/>
   </g>
   <g id="patch_35">
    <path d="M 326.435122 561.398438 
L 447.73947 561.398438 
" style="fill:none;stroke:#000000;stroke-linecap:square;stroke-linejoin:miter;stroke-width:0.8;"/>
   </g>
   <g id="patch_36">
    <path d="M 326.435122 314.307528 
L 447.73947 314.307528 
" style="fill:none;stroke:#000000;stroke-linecap:square;stroke-linejoin:miter;stroke-width:0.8;"/>
   </g>
  </g>
  <g id="axes_8">
   <g id="patch_37">
    <path d="M 472.00034 561.398438 
L 593.304688 561.398438 
L 593.304688 314.307528 
L 472.00034 314.307528 
z
" style="fill:#ffffff;"/>
   </g>
   <g id="PathCollection_8">
    <g clip-path="url(#pa0c48201b1)">
     <use style="fill:#1f77b4;stroke:#1f77b4;" x="570.825112" xlink:href="#m7219894028" y="351.605697"/>
    </g>
   </g>
   <g id="matplotlib.axis_15">
    <g id="xtick_24">
     <g id="line2d_90">
      <g>
       <use style="stroke:#000000;stroke-width:0.8;" x="475.508095" xlink:href="#m6cd0d874ed" y="561.398438"/>
      </g>
     </g>
     <g id="text_83">
      <!-- −10 -->
      <g transform="translate(464.955751 575.996875)scale(0.1 -0.1)">
       <use xlink:href="#DejaVuSans-2212"/>
       <use x="83.789062" xlink:href="#DejaVuSans-31"/>
       <use x="147.412109" xlink:href="#DejaVuSans-30"/>
      </g>
     </g>
    </g>
    <g id="xtick_25">
     <g id="line2d_91">
      <g>
       <use style="stroke:#000000;stroke-width:0.8;" x="532.109649" xlink:href="#m6cd0d874ed" y="561.398438"/>
      </g>
     </g>
     <g id="text_84">
      <!-- 0 -->
      <g transform="translate(528.928399 575.996875)scale(0.1 -0.1)">
       <use xlink:href="#DejaVuSans-30"/>
      </g>
     </g>
    </g>
    <g id="xtick_26">
     <g id="line2d_92">
      <g>
       <use style="stroke:#000000;stroke-width:0.8;" x="588.711203" xlink:href="#m6cd0d874ed" y="561.398438"/>
      </g>
     </g>
     <g id="text_85">
      <!-- 10 -->
      <g transform="translate(582.348703 575.996875)scale(0.1 -0.1)">
       <use xlink:href="#DejaVuSans-31"/>
       <use x="63.623047" xlink:href="#DejaVuSans-30"/>
      </g>
     </g>
    </g>
    <g id="text_86">
     <!-- 1e−6 -->
     <g transform="translate(566.046875 588.675)scale(0.1 -0.1)">
      <use xlink:href="#DejaVuSans-31"/>
      <use x="63.623047" xlink:href="#DejaVuSans-65"/>
      <use x="125.146484" xlink:href="#DejaVuSans-2212"/>
      <use x="208.935547" xlink:href="#DejaVuSans-36"/>
     </g>
    </g>
   </g>
   <g id="matplotlib.axis_16">
    <g id="ytick_46">
     <g id="line2d_93">
      <g>
       <use style="stroke:#000000;stroke-width:0.8;" x="472.00034" xlink:href="#m19cb1103a2" y="551.056091"/>
      </g>
     </g>
     <g id="text_87">
      <!-- −20 -->
      <g transform="translate(443.895652 554.85531)scale(0.1 -0.1)">
       <use xlink:href="#DejaVuSans-2212"/>
       <use x="83.789062" xlink:href="#DejaVuSans-32"/>
       <use x="147.412109" xlink:href="#DejaVuSans-30"/>
      </g>
     </g>
    </g>
    <g id="ytick_47">
     <g id="line2d_94">
      <g>
       <use style="stroke:#000000;stroke-width:0.8;" x="472.00034" xlink:href="#m19cb1103a2" y="522.755314"/>
      </g>
     </g>
     <g id="text_88">
      <!-- −15 -->
      <g transform="translate(443.895652 526.554533)scale(0.1 -0.1)">
       <use xlink:href="#DejaVuSans-2212"/>
       <use x="83.789062" xlink:href="#DejaVuSans-31"/>
       <use x="147.412109" xlink:href="#DejaVuSans-35"/>
      </g>
     </g>
    </g>
    <g id="ytick_48">
     <g id="line2d_95">
      <g>
       <use style="stroke:#000000;stroke-width:0.8;" x="472.00034" xlink:href="#m19cb1103a2" y="494.454537"/>
      </g>
     </g>
     <g id="text_89">
      <!-- −10 -->
      <g transform="translate(443.895652 498.253756)scale(0.1 -0.1)">
       <use xlink:href="#DejaVuSans-2212"/>
       <use x="83.789062" xlink:href="#DejaVuSans-31"/>
       <use x="147.412109" xlink:href="#DejaVuSans-30"/>
      </g>
     </g>
    </g>
    <g id="ytick_49">
     <g id="line2d_96">
      <g>
       <use style="stroke:#000000;stroke-width:0.8;" x="472.00034" xlink:href="#m19cb1103a2" y="466.15376"/>
      </g>
     </g>
     <g id="text_90">
      <!-- −5 -->
      <g transform="translate(450.258152 469.952979)scale(0.1 -0.1)">
       <use xlink:href="#DejaVuSans-2212"/>
       <use x="83.789062" xlink:href="#DejaVuSans-35"/>
      </g>
     </g>
    </g>
    <g id="ytick_50">
     <g id="line2d_97">
      <g>
       <use style="stroke:#000000;stroke-width:0.8;" x="472.00034" xlink:href="#m19cb1103a2" y="437.852983"/>
      </g>
     </g>
     <g id="text_91">
      <!-- 0 -->
      <g transform="translate(458.63784 441.652202)scale(0.1 -0.1)">
       <use xlink:href="#DejaVuSans-30"/>
      </g>
     </g>
    </g>
    <g id="ytick_51">
     <g id="line2d_98">
      <g>
       <use style="stroke:#000000;stroke-width:0.8;" x="472.00034" xlink:href="#m19cb1103a2" y="409.552206"/>
      </g>
     </g>
     <g id="text_92">
      <!-- 5 -->
      <g transform="translate(458.63784 413.351425)scale(0.1 -0.1)">
       <use xlink:href="#DejaVuSans-35"/>
      </g>
     </g>
    </g>
    <g id="ytick_52">
     <g id="line2d_99">
      <g>
       <use style="stroke:#000000;stroke-width:0.8;" x="472.00034" xlink:href="#m19cb1103a2" y="381.251429"/>
      </g>
     </g>
     <g id="text_93">
      <!-- 10 -->
      <g transform="translate(452.27534 385.050648)scale(0.1 -0.1)">
       <use xlink:href="#DejaVuSans-31"/>
       <use x="63.623047" xlink:href="#DejaVuSans-30"/>
      </g>
     </g>
    </g>
    <g id="ytick_53">
     <g id="line2d_100">
      <g>
       <use style="stroke:#000000;stroke-width:0.8;" x="472.00034" xlink:href="#m19cb1103a2" y="352.950652"/>
      </g>
     </g>
     <g id="text_94">
      <!-- 15 -->
      <g transform="translate(452.27534 356.749871)scale(0.1 -0.1)">
       <use xlink:href="#DejaVuSans-31"/>
       <use x="63.623047" xlink:href="#DejaVuSans-35"/>
      </g>
     </g>
    </g>
    <g id="ytick_54">
     <g id="line2d_101">
      <g>
       <use style="stroke:#000000;stroke-width:0.8;" x="472.00034" xlink:href="#m19cb1103a2" y="324.649875"/>
      </g>
     </g>
     <g id="text_95">
      <!-- 20 -->
      <g transform="translate(452.27534 328.449094)scale(0.1 -0.1)">
       <use xlink:href="#DejaVuSans-32"/>
       <use x="63.623047" xlink:href="#DejaVuSans-30"/>
      </g>
     </g>
    </g>
    <g id="text_96">
     <!-- 1e−6 -->
     <g transform="translate(472.00034 311.307528)scale(0.1 -0.1)">
      <use xlink:href="#DejaVuSans-31"/>
      <use x="63.623047" xlink:href="#DejaVuSans-65"/>
      <use x="125.146484" xlink:href="#DejaVuSans-2212"/>
      <use x="208.935547" xlink:href="#DejaVuSans-36"/>
     </g>
    </g>
   </g>
   <g id="line2d_102">
    <path clip-path="url(#pa0c48201b1)" d="M 476.07411 325.538933 
L 485.130359 339.5855 
L 490.790514 347.942227 
L 495.318639 354.224106 
L 499.280747 359.341367 
L 502.676841 363.396305 
L 506.072934 367.107327 
L 508.903012 369.913269 
L 511.733089 372.440148 
L 514.563167 374.672383 
L 517.393245 376.596213 
L 520.223322 378.199776 
L 522.487385 379.245324 
L 524.751447 380.075408 
L 527.015509 380.686752 
L 529.279571 381.076945 
L 531.543633 381.244446 
L 533.807695 381.188594 
L 536.071758 380.90961 
L 538.33582 380.408594 
L 540.599882 379.687523 
L 542.863944 378.749245 
L 545.128006 377.597461 
L 547.392068 376.236717 
L 550.222146 374.250195 
L 553.052224 371.95787 
L 555.882301 369.373876 
L 558.712379 366.514144 
L 562.108472 362.743429 
L 565.504566 358.634593 
L 569.466674 353.46241 
L 573.994799 347.129063 
L 579.088939 339.5855 
L 585.881125 329.090782 
L 587.579172 326.427773 
L 587.579172 326.427773 
" style="fill:none;stroke:#000000;stroke-linecap:square;stroke-width:1.5;"/>
   </g>
   <g id="line2d_103">
    <path clip-path="url(#pa0c48201b1)" d="M 476.07411 550.167033 
L 485.130359 536.120466 
L 490.790514 527.763739 
L 495.318639 521.48186 
L 499.280747 516.364599 
L 502.676841 512.309661 
L 506.072934 508.598639 
L 508.903012 505.792697 
L 511.733089 503.265818 
L 514.563167 501.033583 
L 517.393245 499.109753 
L 520.223322 497.50619 
L 522.487385 496.460642 
L 524.751447 495.630558 
L 527.015509 495.019214 
L 529.279571 494.629021 
L 531.543633 494.46152 
L 533.807695 494.517372 
L 536.071758 494.796356 
L 538.33582 495.297372 
L 540.599882 496.018442 
L 542.863944 496.956721 
L 545.128006 498.108505 
L 547.392068 499.469249 
L 550.222146 501.455771 
L 553.052224 503.748096 
L 555.882301 506.332089 
L 558.712379 509.191822 
L 562.108472 512.962537 
L 565.504566 517.071373 
L 569.466674 522.243556 
L 573.994799 528.576903 
L 579.088939 536.120466 
L 585.881125 546.615184 
L 587.579172 549.278193 
L 587.579172 549.278193 
" style="fill:none;stroke:#000000;stroke-linecap:square;stroke-width:1.5;"/>
   </g>
   <g id="line2d_104">
    <path clip-path="url(#pa0c48201b1)" d="M 570.825112 524.100269 
L 571.550895 522.458758 
L 572.262706 520.81114 
L 572.960493 519.157534 
L 573.644206 517.498059 
L 574.313796 515.832836 
L 574.969215 514.161983 
L 575.610414 512.485623 
L 576.237348 510.803876 
L 576.849972 509.116864 
L 577.448241 507.424707 
L 578.032112 505.727529 
L 578.601543 504.025451 
L 579.156493 502.318597 
L 579.696922 500.60709 
L 580.222791 498.891053 
L 580.734061 497.170611 
L 581.230697 495.445887 
L 581.712661 493.717006 
L 582.17992 491.984092 
L 582.63244 490.247272 
L 583.070187 488.506669 
L 583.493131 486.76241 
L 583.90124 485.014621 
L 584.294486 483.263428 
L 584.67284 481.508957 
L 585.036274 479.751335 
L 585.384763 477.990689 
L 585.718281 476.227145 
L 586.036804 474.460832 
L 586.34031 472.691876 
L 586.628776 470.920406 
L 586.902181 469.146549 
L 587.160506 467.370433 
L 587.403732 465.592186 
L 587.631841 463.811937 
L 587.844818 462.029815 
L 588.042646 460.245947 
L 588.225312 458.460463 
L 588.392802 456.673492 
L 588.545104 454.885162 
L 588.682207 453.095602 
L 588.804102 451.304943 
L 588.910778 449.513312 
L 589.00223 447.72084 
L 589.07845 445.927656 
L 589.139432 444.133889 
L 589.185173 442.339668 
L 589.215669 440.545124 
L 589.230917 438.750385 
L 589.230917 436.955581 
L 589.215669 435.160842 
L 589.185173 433.366298 
L 589.139432 431.572077 
L 589.07845 429.77831 
L 589.00223 427.985126 
L 588.910778 426.192653 
L 588.804102 424.401023 
L 588.682207 422.610363 
L 588.545104 420.820804 
L 588.392802 419.032474 
L 588.225312 417.245503 
L 588.042646 415.460019 
L 587.844818 413.676151 
L 587.631841 411.894029 
L 587.403732 410.11378 
L 587.160506 408.335533 
L 586.902181 406.559417 
L 586.628776 404.78556 
L 586.34031 403.01409 
L 586.036804 401.245134 
L 585.718281 399.47882 
L 585.384763 397.715277 
L 585.036274 395.954631 
L 584.67284 394.197009 
L 584.294486 392.442538 
L 583.90124 390.691345 
L 583.493131 388.943556 
L 583.070187 387.199297 
L 582.63244 385.458694 
L 582.17992 383.721874 
L 581.712661 381.98896 
L 581.230697 380.260079 
L 580.734061 378.535355 
L 580.222791 376.814913 
L 579.696922 375.098876 
L 579.156493 373.387369 
L 578.601543 371.680515 
L 578.032112 369.978437 
L 577.448241 368.281259 
L 576.849972 366.589102 
L 576.237348 364.90209 
L 575.610414 363.220342 
L 574.969215 361.543982 
L 574.313796 359.87313 
L 573.644206 358.207907 
L 572.960493 356.548432 
L 572.262706 354.894826 
L 571.550895 353.247208 
L 570.825112 351.605697 
" style="fill:none;stroke:#0000ff;stroke-linecap:square;stroke-width:1.5;"/>
   </g>
   <g id="patch_38">
    <path d="M 472.00034 561.398438 
L 472.00034 314.307528 
" style="fill:none;stroke:#000000;stroke-linecap:square;stroke-linejoin:miter;stroke-width:0.8;"/>
   </g>
   <g id="patch_39">
    <path d="M 593.304688 561.398438 
L 593.304688 314.307528 
" style="fill:none;stroke:#000000;stroke-linecap:square;stroke-linejoin:miter;stroke-width:0.8;"/>
   </g>
   <g id="patch_40">
    <path d="M 472.00034 561.398438 
L 593.304688 561.398438 
" style="fill:none;stroke:#000000;stroke-linecap:square;stroke-linejoin:miter;stroke-width:0.8;"/>
   </g>
   <g id="patch_41">
    <path d="M 472.00034 314.307528 
L 593.304688 314.307528 
" style="fill:none;stroke:#000000;stroke-linecap:square;stroke-linejoin:miter;stroke-width:0.8;"/>
   </g>
  </g>
 </g>
 <defs>
  <clipPath id="p71d1d8cd5c">
   <rect height="247.090909" width="121.304348" x="35.304688" y="17.798438"/>
  </clipPath>
  <clipPath id="p0c7b2d6b82">
   <rect height="247.090909" width="121.304348" x="180.869905" y="17.798438"/>
  </clipPath>
  <clipPath id="pa2541b3f22">
   <rect height="247.090909" width="121.304348" x="326.435122" y="17.798438"/>
  </clipPath>
  <clipPath id="p2e6abd91de">
   <rect height="247.090909" width="121.304348" x="472.00034" y="17.798438"/>
  </clipPath>
  <clipPath id="pf72e0022a3">
   <rect height="247.090909" width="121.304348" x="35.304688" y="314.307528"/>
  </clipPath>
  <clipPath id="pfc3c06b333">
   <rect height="247.090909" width="121.304348" x="180.869905" y="314.307528"/>
  </clipPath>
  <clipPath id="paddd52b063">
   <rect height="247.090909" width="121.304348" x="326.435122" y="314.307528"/>
  </clipPath>
  <clipPath id="pa0c48201b1">
   <rect height="247.090909" width="121.304348" x="472.00034" y="314.307528"/>
  </clipPath>
 </defs>
</svg>