<?xml version="1.0" encoding="utf-8" standalone="no"?>
<!DOCTYPE svg PUBLIC "-//W3C//DTD SVG 1.1//EN"
  "http://www.w3.org/Graphics/SVG/1.1/DTD/svg11.dtd">
<svg height="302.878125pt" version="1.1" viewBox="0 0 338.571875 302.878125" width="338.571875pt" xmlns="http://www.w3.org/2000/svg" xmlns:xlink="http://www.w3.org/1999/xlink">
 <metadata>
  <rdf:RDF xmlns:cc="http://creativecommons.org/ns#" xmlns:dc="http://purl.org/dc/elements/1.1/" xmlns:rdf="http://www.w3.org/1999/02/22-rdf-syntax-ns#">
   <cc:Work>
    <dc:type rdf:resource="http://purl.org/dc/dcmitype/StillImage"/>
    <dc:date>2021-09-14T16:13:34.351288</dc:date>
    <dc:format>image/svg+xml</dc:format>
    <dc:creator>
     <cc:Agent>
      <dc:title>Matplotlib v3.4.3, https://matplotlib.org/</dc:title>
     </cc:Agent>
    </dc:creator>
   </cc:Work>
  </rdf:RDF>
 </metadata>
 <defs>
  <style type="text/css">*{stroke-linecap:butt;stroke-linejoin:round;}</style>
 </defs>
 <g id="figure_1">
  <g id="patch_1">
   <path d="M 0 302.878125 
L 338.571875 302.878125 
L 338.571875 0 
L 0 0 
z
" style="fill:none;"/>
  </g>
  <g id="axes_1">
   <g id="patch_2">
    <path d="M 36.465625 279 
L 315.465625 279 
L 315.465625 7.2 
L 36.465625 7.2 
z
" style="fill:#ffffff;"/>
   </g>
   <g id="matplotlib.axis_1">
    <g id="xtick_1">
     <g id="line2d_1">
      <defs>
       <path d="M 0 0 
L 0 3.5 
" id="mfd5f126bde" style="stroke:#000000;stroke-width:0.8;"/>
      </defs>
      <g>
       <use style="stroke:#000000;stroke-width:0.8;" x="36.465625" xlink:href="#mfd5f126bde" y="279"/>
      </g>
     </g>
     <g id="text_1">
      <!-- 0 -->
      <g transform="translate(33.284375 293.598437)scale(0.1 -0.1)">
       <defs>
        <path d="M 2034 4250 
Q 1547 4250 1301 3770 
Q 1056 3291 1056 2328 
Q 1056 1369 1301 889 
Q 1547 409 2034 409 
Q 2525 409 2770 889 
Q 3016 1369 3016 2328 
Q 3016 3291 2770 3770 
Q 2525 4250 2034 4250 
z
M 2034 4750 
Q 2819 4750 3233 4129 
Q 3647 3509 3647 2328 
Q 3647 1150 3233 529 
Q 2819 -91 2034 -91 
Q 1250 -91 836 529 
Q 422 1150 422 2328 
Q 422 3509 836 4129 
Q 1250 4750 2034 4750 
z
" id="DejaVuSans-30" transform="scale(0.015625)"/>
       </defs>
       <use xlink:href="#DejaVuSans-30"/>
      </g>
     </g>
    </g>
    <g id="xtick_2">
     <g id="line2d_2">
      <g>
       <use style="stroke:#000000;stroke-width:0.8;" x="76.322768" xlink:href="#mfd5f126bde" y="279"/>
      </g>
     </g>
     <g id="text_2">
      <!-- 2000 -->
      <g transform="translate(63.597768 293.598437)scale(0.1 -0.1)">
       <defs>
        <path d="M 1228 531 
L 3431 531 
L 3431 0 
L 469 0 
L 469 531 
Q 828 903 1448 1529 
Q 2069 2156 2228 2338 
Q 2531 2678 2651 2914 
Q 2772 3150 2772 3378 
Q 2772 3750 2511 3984 
Q 2250 4219 1831 4219 
Q 1534 4219 1204 4116 
Q 875 4013 500 3803 
L 500 4441 
Q 881 4594 1212 4672 
Q 1544 4750 1819 4750 
Q 2544 4750 2975 4387 
Q 3406 4025 3406 3419 
Q 3406 3131 3298 2873 
Q 3191 2616 2906 2266 
Q 2828 2175 2409 1742 
Q 1991 1309 1228 531 
z
" id="DejaVuSans-32" transform="scale(0.015625)"/>
       </defs>
       <use xlink:href="#DejaVuSans-32"/>
       <use x="63.623047" xlink:href="#DejaVuSans-30"/>
       <use x="127.246094" xlink:href="#DejaVuSans-30"/>
       <use x="190.869141" xlink:href="#DejaVuSans-30"/>
      </g>
     </g>
    </g>
    <g id="xtick_3">
     <g id="line2d_3">
      <g>
       <use style="stroke:#000000;stroke-width:0.8;" x="116.179911" xlink:href="#mfd5f126bde" y="279"/>
      </g>
     </g>
     <g id="text_3">
      <!-- 4000 -->
      <g transform="translate(103.454911 293.598437)scale(0.1 -0.1)">
       <defs>
        <path d="M 2419 4116 
L 825 1625 
L 2419 1625 
L 2419 4116 
z
M 2253 4666 
L 3047 4666 
L 3047 1625 
L 3713 1625 
L 3713 1100 
L 3047 1100 
L 3047 0 
L 2419 0 
L 2419 1100 
L 313 1100 
L 313 1709 
L 2253 4666 
z
" id="DejaVuSans-34" transform="scale(0.015625)"/>
       </defs>
       <use xlink:href="#DejaVuSans-34"/>
       <use x="63.623047" xlink:href="#DejaVuSans-30"/>
       <use x="127.246094" xlink:href="#DejaVuSans-30"/>
       <use x="190.869141" xlink:href="#DejaVuSans-30"/>
      </g>
     </g>
    </g>
    <g id="xtick_4">
     <g id="line2d_4">
      <g>
       <use style="stroke:#000000;stroke-width:0.8;" x="156.037054" xlink:href="#mfd5f126bde" y="279"/>
      </g>
     </g>
     <g id="text_4">
      <!-- 6000 -->
      <g transform="translate(143.312054 293.598437)scale(0.1 -0.1)">
       <defs>
        <path d="M 2113 2584 
Q 1688 2584 1439 2293 
Q 1191 2003 1191 1497 
Q 1191 994 1439 701 
Q 1688 409 2113 409 
Q 2538 409 2786 701 
Q 3034 994 3034 1497 
Q 3034 2003 2786 2293 
Q 2538 2584 2113 2584 
z
M 3366 4563 
L 3366 3988 
Q 3128 4100 2886 4159 
Q 2644 4219 2406 4219 
Q 1781 4219 1451 3797 
Q 1122 3375 1075 2522 
Q 1259 2794 1537 2939 
Q 1816 3084 2150 3084 
Q 2853 3084 3261 2657 
Q 3669 2231 3669 1497 
Q 3669 778 3244 343 
Q 2819 -91 2113 -91 
Q 1303 -91 875 529 
Q 447 1150 447 2328 
Q 447 3434 972 4092 
Q 1497 4750 2381 4750 
Q 2619 4750 2861 4703 
Q 3103 4656 3366 4563 
z
" id="DejaVuSans-36" transform="scale(0.015625)"/>
       </defs>
       <use xlink:href="#DejaVuSans-36"/>
       <use x="63.623047" xlink:href="#DejaVuSans-30"/>
       <use x="127.246094" xlink:href="#DejaVuSans-30"/>
       <use x="190.869141" xlink:href="#DejaVuSans-30"/>
      </g>
     </g>
    </g>
    <g id="xtick_5">
     <g id="line2d_5">
      <g>
       <use style="stroke:#000000;stroke-width:0.8;" x="195.894196" xlink:href="#mfd5f126bde" y="279"/>
      </g>
     </g>
     <g id="text_5">
      <!-- 8000 -->
      <g transform="translate(183.169196 293.598437)scale(0.1 -0.1)">
       <defs>
        <path d="M 2034 2216 
Q 1584 2216 1326 1975 
Q 1069 1734 1069 1313 
Q 1069 891 1326 650 
Q 1584 409 2034 409 
Q 2484 409 2743 651 
Q 3003 894 3003 1313 
Q 3003 1734 2745 1975 
Q 2488 2216 2034 2216 
z
M 1403 2484 
Q 997 2584 770 2862 
Q 544 3141 544 3541 
Q 544 4100 942 4425 
Q 1341 4750 2034 4750 
Q 2731 4750 3128 4425 
Q 3525 4100 3525 3541 
Q 3525 3141 3298 2862 
Q 3072 2584 2669 2484 
Q 3125 2378 3379 2068 
Q 3634 1759 3634 1313 
Q 3634 634 3220 271 
Q 2806 -91 2034 -91 
Q 1263 -91 848 271 
Q 434 634 434 1313 
Q 434 1759 690 2068 
Q 947 2378 1403 2484 
z
M 1172 3481 
Q 1172 3119 1398 2916 
Q 1625 2713 2034 2713 
Q 2441 2713 2670 2916 
Q 2900 3119 2900 3481 
Q 2900 3844 2670 4047 
Q 2441 4250 2034 4250 
Q 1625 4250 1398 4047 
Q 1172 3844 1172 3481 
z
" id="DejaVuSans-38" transform="scale(0.015625)"/>
       </defs>
       <use xlink:href="#DejaVuSans-38"/>
       <use x="63.623047" xlink:href="#DejaVuSans-30"/>
       <use x="127.246094" xlink:href="#DejaVuSans-30"/>
       <use x="190.869141" xlink:href="#DejaVuSans-30"/>
      </g>
     </g>
    </g>
    <g id="xtick_6">
     <g id="line2d_6">
      <g>
       <use style="stroke:#000000;stroke-width:0.8;" x="235.751339" xlink:href="#mfd5f126bde" y="279"/>
      </g>
     </g>
     <g id="text_6">
      <!-- 10000 -->
      <g transform="translate(219.845089 293.598437)scale(0.1 -0.1)">
       <defs>
        <path d="M 794 531 
L 1825 531 
L 1825 4091 
L 703 3866 
L 703 4441 
L 1819 4666 
L 2450 4666 
L 2450 531 
L 3481 531 
L 3481 0 
L 794 0 
L 794 531 
z
" id="DejaVuSans-31" transform="scale(0.015625)"/>
       </defs>
       <use xlink:href="#DejaVuSans-31"/>
       <use x="63.623047" xlink:href="#DejaVuSans-30"/>
       <use x="127.246094" xlink:href="#DejaVuSans-30"/>
       <use x="190.869141" xlink:href="#DejaVuSans-30"/>
       <use x="254.492188" xlink:href="#DejaVuSans-30"/>
      </g>
     </g>
    </g>
    <g id="xtick_7">
     <g id="line2d_7">
      <g>
       <use style="stroke:#000000;stroke-width:0.8;" x="275.608482" xlink:href="#mfd5f126bde" y="279"/>
      </g>
     </g>
     <g id="text_7">
      <!-- 12000 -->
      <g transform="translate(259.702232 293.598437)scale(0.1 -0.1)">
       <use xlink:href="#DejaVuSans-31"/>
       <use x="63.623047" xlink:href="#DejaVuSans-32"/>
       <use x="127.246094" xlink:href="#DejaVuSans-30"/>
       <use x="190.869141" xlink:href="#DejaVuSans-30"/>
       <use x="254.492188" xlink:href="#DejaVuSans-30"/>
      </g>
     </g>
    </g>
    <g id="xtick_8">
     <g id="line2d_8">
      <g>
       <use style="stroke:#000000;stroke-width:0.8;" x="315.465625" xlink:href="#mfd5f126bde" y="279"/>
      </g>
     </g>
     <g id="text_8">
      <!-- 14000 -->
      <g transform="translate(299.559375 293.598437)scale(0.1 -0.1)">
       <use xlink:href="#DejaVuSans-31"/>
       <use x="63.623047" xlink:href="#DejaVuSans-34"/>
       <use x="127.246094" xlink:href="#DejaVuSans-30"/>
       <use x="190.869141" xlink:href="#DejaVuSans-30"/>
       <use x="254.492188" xlink:href="#DejaVuSans-30"/>
      </g>
     </g>
    </g>
   </g>
   <g id="matplotlib.axis_2">
    <g id="ytick_1">
     <g id="line2d_9">
      <defs>
       <path d="M 0 0 
L -3.5 0 
" id="mda7a3ad775" style="stroke:#000000;stroke-width:0.8;"/>
      </defs>
      <g>
       <use style="stroke:#000000;stroke-width:0.8;" x="36.465625" xlink:href="#mda7a3ad775" y="266.645455"/>
      </g>
     </g>
     <g id="text_9">
      <!-- 0.00 -->
      <g transform="translate(7.2 270.444673)scale(0.1 -0.1)">
       <defs>
        <path d="M 684 794 
L 1344 794 
L 1344 0 
L 684 0 
L 684 794 
z
" id="DejaVuSans-2e" transform="scale(0.015625)"/>
       </defs>
       <use xlink:href="#DejaVuSans-30"/>
       <use x="63.623047" xlink:href="#DejaVuSans-2e"/>
       <use x="95.410156" xlink:href="#DejaVuSans-30"/>
       <use x="159.033203" xlink:href="#DejaVuSans-30"/>
      </g>
     </g>
    </g>
    <g id="ytick_2">
     <g id="line2d_10">
      <g>
       <use style="stroke:#000000;stroke-width:0.8;" x="36.465625" xlink:href="#mda7a3ad775" y="227.351077"/>
      </g>
     </g>
     <g id="text_10">
      <!-- 0.05 -->
      <g transform="translate(7.2 231.150295)scale(0.1 -0.1)">
       <defs>
        <path d="M 691 4666 
L 3169 4666 
L 3169 4134 
L 1269 4134 
L 1269 2991 
Q 1406 3038 1543 3061 
Q 1681 3084 1819 3084 
Q 2600 3084 3056 2656 
Q 3513 2228 3513 1497 
Q 3513 744 3044 326 
Q 2575 -91 1722 -91 
Q 1428 -91 1123 -41 
Q 819 9 494 109 
L 494 744 
Q 775 591 1075 516 
Q 1375 441 1709 441 
Q 2250 441 2565 725 
Q 2881 1009 2881 1497 
Q 2881 1984 2565 2268 
Q 2250 2553 1709 2553 
Q 1456 2553 1204 2497 
Q 953 2441 691 2322 
L 691 4666 
z
" id="DejaVuSans-35" transform="scale(0.015625)"/>
       </defs>
       <use xlink:href="#DejaVuSans-30"/>
       <use x="63.623047" xlink:href="#DejaVuSans-2e"/>
       <use x="95.410156" xlink:href="#DejaVuSans-30"/>
       <use x="159.033203" xlink:href="#DejaVuSans-35"/>
      </g>
     </g>
    </g>
    <g id="ytick_3">
     <g id="line2d_11">
      <g>
       <use style="stroke:#000000;stroke-width:0.8;" x="36.465625" xlink:href="#mda7a3ad775" y="188.056699"/>
      </g>
     </g>
     <g id="text_11">
      <!-- 0.10 -->
      <g transform="translate(7.2 191.855918)scale(0.1 -0.1)">
       <use xlink:href="#DejaVuSans-30"/>
       <use x="63.623047" xlink:href="#DejaVuSans-2e"/>
       <use x="95.410156" xlink:href="#DejaVuSans-31"/>
       <use x="159.033203" xlink:href="#DejaVuSans-30"/>
      </g>
     </g>
    </g>
    <g id="ytick_4">
     <g id="line2d_12">
      <g>
       <use style="stroke:#000000;stroke-width:0.8;" x="36.465625" xlink:href="#mda7a3ad775" y="148.762321"/>
      </g>
     </g>
     <g id="text_12">
      <!-- 0.15 -->
      <g transform="translate(7.2 152.56154)scale(0.1 -0.1)">
       <use xlink:href="#DejaVuSans-30"/>
       <use x="63.623047" xlink:href="#DejaVuSans-2e"/>
       <use x="95.410156" xlink:href="#DejaVuSans-31"/>
       <use x="159.033203" xlink:href="#DejaVuSans-35"/>
      </g>
     </g>
    </g>
    <g id="ytick_5">
     <g id="line2d_13">
      <g>
       <use style="stroke:#000000;stroke-width:0.8;" x="36.465625" xlink:href="#mda7a3ad775" y="109.467943"/>
      </g>
     </g>
     <g id="text_13">
      <!-- 0.20 -->
      <g transform="translate(7.2 113.267162)scale(0.1 -0.1)">
       <use xlink:href="#DejaVuSans-30"/>
       <use x="63.623047" xlink:href="#DejaVuSans-2e"/>
       <use x="95.410156" xlink:href="#DejaVuSans-32"/>
       <use x="159.033203" xlink:href="#DejaVuSans-30"/>
      </g>
     </g>
    </g>
    <g id="ytick_6">
     <g id="line2d_14">
      <g>
       <use style="stroke:#000000;stroke-width:0.8;" x="36.465625" xlink:href="#mda7a3ad775" y="70.173565"/>
      </g>
     </g>
     <g id="text_14">
      <!-- 0.25 -->
      <g transform="translate(7.2 73.972784)scale(0.1 -0.1)">
       <use xlink:href="#DejaVuSans-30"/>
       <use x="63.623047" xlink:href="#DejaVuSans-2e"/>
       <use x="95.410156" xlink:href="#DejaVuSans-32"/>
       <use x="159.033203" xlink:href="#DejaVuSans-35"/>
      </g>
     </g>
    </g>
    <g id="ytick_7">
     <g id="line2d_15">
      <g>
       <use style="stroke:#000000;stroke-width:0.8;" x="36.465625" xlink:href="#mda7a3ad775" y="30.879187"/>
      </g>
     </g>
     <g id="text_15">
      <!-- 0.30 -->
      <g transform="translate(7.2 34.678406)scale(0.1 -0.1)">
       <defs>
        <path d="M 2597 2516 
Q 3050 2419 3304 2112 
Q 3559 1806 3559 1356 
Q 3559 666 3084 287 
Q 2609 -91 1734 -91 
Q 1441 -91 1130 -33 
Q 819 25 488 141 
L 488 750 
Q 750 597 1062 519 
Q 1375 441 1716 441 
Q 2309 441 2620 675 
Q 2931 909 2931 1356 
Q 2931 1769 2642 2001 
Q 2353 2234 1838 2234 
L 1294 2234 
L 1294 2753 
L 1863 2753 
Q 2328 2753 2575 2939 
Q 2822 3125 2822 3475 
Q 2822 3834 2567 4026 
Q 2313 4219 1838 4219 
Q 1578 4219 1281 4162 
Q 984 4106 628 3988 
L 628 4550 
Q 988 4650 1302 4700 
Q 1616 4750 1894 4750 
Q 2613 4750 3031 4423 
Q 3450 4097 3450 3541 
Q 3450 3153 3228 2886 
Q 3006 2619 2597 2516 
z
" id="DejaVuSans-33" transform="scale(0.015625)"/>
       </defs>
       <use xlink:href="#DejaVuSans-30"/>
       <use x="63.623047" xlink:href="#DejaVuSans-2e"/>
       <use x="95.410156" xlink:href="#DejaVuSans-33"/>
       <use x="159.033203" xlink:href="#DejaVuSans-30"/>
      </g>
     </g>
    </g>
   </g>
   <g id="line2d_16">
    <path clip-path="url(#pa251c978d4)" d="M -1 266.417858 
L 201.885944 266.417856 
L 202.903668 266.194407 
L 203.037323 265.971495 
L 204.713074 265.755178 
L 210.776252 265.158428 
L 212.210031 264.777167 
L 213.477392 264.394343 
L 219.701489 264.226886 
L 220.764732 263.888636 
L 222.280475 263.728054 
L 222.592384 263.568279 
L 224.271088 263.41275 
L 224.597197 263.258028 
L 225.292969 261.95712 
L 226.347011 261.806637 
L 228.338663 261.015222 
L 228.436306 260.667957 
L 233.980629 260.250877 
L 234.055249 260.117327 
L 235.277419 259.854631 
L 237.935159 259.728649 
L 238.233317 259.603225 
L 239.169197 259.47953 
L 239.283328 259.23236 
L 239.38045 259.109051 
L 240.100809 258.864364 
L 240.962238 258.743895 
L 243.272108 258.627417 
L 243.806598 258.305652 
L 244.519287 255.847967 
L 244.998415 255.847967 
L 245.806248 254.00236 
L 246.294214 253.890843 
L 247.164557 253.442451 
L 247.414456 251.154169 
L 251.241339 250.943183 
L 251.704841 250.426164 
L 254.220943 250.021514 
L 257.119593 249.829304 
L 257.17775 249.733483 
L 258.230527 248.807071 
L 263.761595 248.44468 
L 263.890142 247.767154 
L 265.742134 247.422212 
L 268.898242 246.052957 
L 269.075032 241.746303 
L 269.845693 241.5842 
L 270.306432 241.50363 
L 272.513022 240.67501 
L 273.364556 240.59752 
L 273.68478 240.135864 
L 275.04378 239.210837 
L 275.914947 239.135797 
L 277.940347 238.639183 
L 278.03068 238.492948 
L 279.540985 238.349118 
L 279.777357 235.756761 
L 279.987924 235.613981 
L 280.705977 234.931936 
L 281.449867 234.52441 
L 282.005092 234.384842 
L 282.057629 234.131707 
L 282.322985 234.062383 
L 283.163461 233.993764 
L 284.517775 233.420666 
L 285.84969 233.354241 
L 290.533532 232.841246 
L 292.627693 232.718358 
L 292.679729 232.218564 
L 293.988752 232.15824 
L 294.403162 230.604055 
L 294.893553 230.544362 
L 295.232563 224.033589 
L 295.463733 222.072892 
L 298.019957 221.781806 
L 298.191879 221.314178 
L 298.975123 221.142854 
L 300.806873 208.044167 
L 302.192085 207.801687 
L 302.410206 206.366251 
L 302.712917 206.311665 
L 303.03458 204.308888 
L 303.121269 130.356872 
L 303.612908 126.485511 
L 303.909896 115.123119 
L 305.001444 114.802304 
L 305.026381 114.749117 
L 305.443146 114.455239 
L 306.190721 114.402737 
L 306.255199 104.219379 
L 306.429016 104.042243 
L 306.850657 100.589484 
L 307.512585 100.434127 
L 307.654585 99.908333 
L 308.123637 83.917762 
L 308.980324 83.713371 
L 309.159074 79.35934 
L 309.376153 79.257931 
L 309.43738 78.783286 
L 309.660302 78.581064 
L 310.077754 64.899207 
L 310.457322 64.748674 
L 310.555669 64.487691 
L 311.269545 64.388181 
L 311.320434 62.626384 
L 311.342814 35.794999 
L 311.480757 35.547768 
L 311.683689 35.448831 
L 312.352854 34.908032 
L 312.642632 34.859125 
L 312.783586 30.67418 
L 314.050455 29.752298 
L 314.35938 29.608175 
L 314.461925 26.526893 
L 314.980073 26.288049 
L 315.175671 26.145124 
L 315.232549 25.174796 
L 315.258116 20.353473 
L 315.408019 20.258469 
L 315.444824 19.554545 
L 315.444824 19.554545 
" style="fill:none;stroke:#1f77b4;stroke-linecap:square;stroke-width:1.5;"/>
   </g>
   <g id="line2d_17">
    <path clip-path="url(#pa251c978d4)" d="M 339.571875 19.554545 
L 314.47996 19.650056 
L 314.274849 19.746122 
L 309.393857 20.339477 
L 308.998003 20.491912 
L 307.785368 20.748452 
L 307.620613 21.00671 
L 307.530168 21.058447 
L 305.24672 21.269367 
L 303.784745 21.53109 
L 303.116677 21.639775 
L 303.083154 21.844111 
L 302.501337 21.953424 
L 302.117076 22.218718 
L 300.973748 22.329723 
L 300.895065 22.646652 
L 297.676683 23.101296 
L 297.655169 23.159126 
L 296.463429 23.334584 
L 295.656014 23.745431 
L 295.61958 23.852363 
L 293.873071 24.272417 
L 293.691198 24.391549 
L 292.560644 24.61885 
L 292.240269 24.95206 
L 290.483967 25.450303 
L 290.123454 26.250322 
L 288.477366 26.619164 
L 288.362728 27.199611 
L 287.904179 27.522905 
L 287.297498 27.772542 
L 287.277554 27.837851 
L 286.606637 28.019564 
L 286.578572 28.148939 
L 285.473512 28.347923 
L 285.473404 28.836377 
L 285.129187 28.970341 
L 284.908139 29.281036 
L 284.512753 29.281036 
L 284.340265 29.597872 
L 284.228411 29.665622 
L 283.097178 29.93842 
L 282.845828 30.076052 
L 282.754251 30.145026 
L 282.702487 31.135711 
L 282.04962 31.671243 
L 281.939056 31.810484 
L 281.888425 31.949878 
L 281.062076 32.160508 
L 280.854777 32.469407 
L 280.721821 32.91822 
L 280.509632 33.130801 
L 280.221533 34.29014 
L 279.740572 34.630059 
L 279.736339 35.468818 
L 279.467317 35.612349 
L 279.412398 36.317476 
L 279.190506 36.389534 
L 279.133628 36.461642 
L 278.668716 36.606624 
L 278.558229 36.751848 
L 278.370102 37.173442 
L 278.301991 37.319118 
L 277.976753 37.465414 
L 277.956012 37.538582 
L 276.322486 38.131656 
L 276.270131 38.206378 
L 275.90762 38.506379 
L 275.508208 38.732265 
L 275.017713 38.884036 
L 274.238484 39.663509 
L 273.918654 40.370879 
L 273.863924 40.370879 
L 273.764401 40.767256 
L 273.597305 40.998926 
L 272.997255 41.387155 
L 272.939656 41.613295 
L 272.79649 41.94889 
L 272.528335 42.105538 
L 272.2405 42.893608 
L 272.126844 43.99393 
L 271.433936 44.529007 
L 271.393094 45.207517 
L 270.86285 45.526829 
L 270.668434 46.011155 
L 268.91332 46.905553 
L 268.89601 47.049275 
L 268.435451 47.378925 
L 267.916232 47.544987 
L 267.714697 47.961249 
L 267.631068 51.035846 
L 267.399788 51.203119 
L 267.043152 53.534063 
L 266.761981 53.871134 
L 266.189987 54.527031 
L 265.914275 54.830322 
L 265.830459 55.171724 
L 265.694652 55.39714 
L 265.508837 55.739725 
L 265.083016 56.256213 
L 264.981409 56.428803 
L 264.816086 56.688289 
L 264.114634 58.020415 
L 263.953876 58.195448 
L 263.835056 59.180579 
L 263.323833 59.581034 
L 263.219054 59.846042 
L 263.024129 60.465578 
L 262.829425 60.643083 
L 262.577509 60.910302 
L 262.32792 61.267439 
L 262.120175 61.357117 
L 261.989094 61.98003 
L 261.546285 62.340667 
L 261.5233 62.431061 
L 261.349216 62.612261 
L 261.247818 62.884221 
L 261.070407 62.975163 
L 260.760597 63.157745 
L 260.506558 63.615286 
L 260.381285 63.798724 
L 260.263529 63.890653 
L 260.159423 64.515458 
L 259.720684 65.253752 
L 259.48458 65.439537 
L 259.265168 65.718839 
L 259.224468 65.812061 
L 258.958047 65.905617 
L 258.714614 66.428361 
L 258.612118 66.794896 
L 258.377532 66.983453 
L 258.262614 67.360844 
L 258.242055 67.549772 
L 258.017646 67.644525 
L 257.780521 68.114969 
L 257.176363 68.783995 
L 257.106645 69.359295 
L 256.813855 69.551877 
L 256.794894 69.826734 
L 256.455105 70.116864 
L 256.446624 70.213661 
L 255.448628 70.897389 
L 255.34655 71.192094 
L 255.013693 71.389452 
L 254.662339 71.983369 
L 254.554229 72.72581 
L 254.400323 73.024346 
L 254.351558 73.323124 
L 254.131327 73.622604 
L 253.948001 73.92279 
L 253.628694 74.284208 
L 253.40854 74.888655 
L 253.020978 75.091529 
L 252.834598 75.904412 
L 252.141326 77.865631 
L 251.830693 78.681973 
L 251.682391 78.991948 
L 251.255272 80.236674 
L 251.121632 80.757195 
L 250.868188 80.966092 
L 250.581234 81.071065 
L 250.374343 81.701639 
L 250.126895 81.912882 
L 249.97902 82.407206 
L 249.892962 82.61914 
L 249.583608 83.395095 
L 249.405516 83.608517 
L 249.296086 83.928999 
L 248.960164 84.572265 
L 248.898077 84.787164 
L 248.660666 85.110443 
L 248.546029 85.611461 
L 248.143645 85.936776 
L 248.068157 86.127161 
L 247.748486 86.345503 
L 247.692749 86.454842 
L 247.32223 86.87496 
L 247.178225 87.095097 
L 247.000794 87.315923 
L 246.540926 87.870002 
L 246.457428 88.482893 
L 246.157137 89.597954 
L 246.048358 89.933668 
L 245.955696 90.522749 
L 245.819829 90.859506 
L 245.806935 91.084135 
L 245.483088 91.422145 
L 245.47472 91.535001 
L 245.269595 91.761352 
L 245.095245 92.101632 
L 244.511195 93.776433 
L 244.382913 94.349191 
L 244.222353 94.808562 
L 244.117738 95.153489 
L 243.820049 95.499963 
L 243.774938 95.929669 
L 243.310391 96.394359 
L 243.13833 96.744146 
L 243.041436 96.977882 
L 242.749633 97.777339 
L 242.569573 97.895035 
L 242.054143 99.550119 
L 241.987981 99.787406 
L 241.886263 100.025124 
L 241.805233 100.381958 
L 241.601451 100.620605 
L 241.08774 101.819703 
L 240.919687 102.301401 
L 240.14139 103.323692 
L 240.021502 103.690011 
L 239.393613 104.918441 
L 239.318414 105.28862 
L 239.017264 107.112545 
L 238.834652 107.361109 
L 238.655092 107.983588 
L 238.469189 108.358325 
L 238.246406 109.669039 
L 238.167279 109.794611 
L 238.092705 110.422885 
L 237.923231 110.674896 
L 237.321777 112.480861 
L 237.17061 112.862893 
L 236.149141 114.552652 
L 236.071095 115.026674 
L 235.859226 115.286613 
L 235.459436 116.590729 
L 235.369491 117.114322 
L 234.490287 120.870046 
L 234.248412 121.136379 
L 233.661392 123.408639 
L 233.570499 123.67771 
L 233.471833 124.350902 
L 233.229659 124.889561 
L 232.412597 126.934442 
L 232.372543 127.07149 
L 231.933429 127.759516 
L 231.838754 128.17375 
L 231.649077 128.450545 
L 231.581732 128.727771 
L 231.253693 129.086011 
L 231.13164 129.225696 
L 230.826764 130.859985 
L 230.502648 131.282531 
L 229.895369 133.26631 
L 229.716245 133.409087 
L 229.555749 134.124149 
L 229.470867 134.553816 
L 229.203609 135.41592 
L 228.741018 136.967401 
L 228.547093 137.258107 
L 228.44876 137.694643 
L 228.279827 138.13244 
L 228.169144 138.478616 
L 227.787206 138.7726 
L 227.687688 139.361653 
L 227.502753 140.247132 
L 227.19306 141.284996 
L 227.046761 141.879744 
L 226.89566 142.02896 
L 226.145246 144.881491 
L 226.121474 145.183559 
L 225.959125 145.486435 
L 225.928612 145.637947 
L 225.732975 145.941866 
L 225.670143 146.398027 
L 222.327295 159.111373 
L 222.054956 160.236999 
L 221.707761 161.854385 
L 221.341372 162.829807 
L 221.19057 163.809499 
L 220.776688 164.301768 
L 220.487627 165.127874 
L 220.435727 165.624299 
L 220.027298 166.289433 
L 219.916187 167.123122 
L 218.969961 170.31889 
L 218.687039 171.508402 
L 217.810474 173.569191 
L 216.983606 177.050759 
L 216.32755 179.053142 
L 216.042937 180.828037 
L 215.353817 182.619159 
L 214.208515 187.987378 
L 214.111468 188.722431 
L 213.779323 189.644386 
L 213.488875 191.31195 
L 213.329687 192.056405 
L 213.228994 192.802479 
L 212.918797 193.364368 
L 212.778201 194.678577 
L 211.582738 202.646707 
L 208.625176 217.400693 
L 208.30179 218.617434 
L 207.695212 222.296672 
L 206.887804 227.053753 
L 206.682173 227.471387 
L 205.971777 230.837044 
L 205.595571 233.809892 
L 204.577939 240.477372 
L 203.963223 243.969766 
L 203.534906 245.291614 
L 202.989888 249.291239 
L 202.591833 251.083319 
L 202.472106 252.658669 
L 201.061878 262.925454 
L 201.061878 262.925454 
" style="fill:none;stroke:#ff7f0e;stroke-linecap:square;stroke-width:1.5;"/>
   </g>
   <g id="patch_3">
    <path d="M 36.465625 279 
L 36.465625 7.2 
" style="fill:none;stroke:#000000;stroke-linecap:square;stroke-linejoin:miter;stroke-width:0.8;"/>
   </g>
   <g id="patch_4">
    <path d="M 315.465625 279 
L 315.465625 7.2 
" style="fill:none;stroke:#000000;stroke-linecap:square;stroke-linejoin:miter;stroke-width:0.8;"/>
   </g>
   <g id="patch_5">
    <path d="M 36.465625 279 
L 315.465625 279 
" style="fill:none;stroke:#000000;stroke-linecap:square;stroke-linejoin:miter;stroke-width:0.8;"/>
   </g>
   <g id="patch_6">
    <path d="M 36.465625 7.2 
L 315.465625 7.2 
" style="fill:none;stroke:#000000;stroke-linecap:square;stroke-linejoin:miter;stroke-width:0.8;"/>
   </g>
  </g>
 </g>
 <defs>
  <clipPath id="pa251c978d4">
   <rect height="271.8" width="279" x="36.465625" y="7.2"/>
  </clipPath>
 </defs>
</svg>