<?xml version="1.0" encoding="utf-8" standalone="no"?>
<!DOCTYPE svg PUBLIC "-//W3C//DTD SVG 1.1//EN"
  "http://www.w3.org/Graphics/SVG/1.1/DTD/svg11.dtd">
<svg height="326.154687pt" version="1.1" viewBox="0 0 321.504687 326.154687" width="321.504687pt" xmlns="http://www.w3.org/2000/svg" xmlns:xlink="http://www.w3.org/1999/xlink">
 <metadata>
  <rdf:RDF xmlns:cc="http://creativecommons.org/ns#" xmlns:dc="http://purl.org/dc/elements/1.1/" xmlns:rdf="http://www.w3.org/1999/02/22-rdf-syntax-ns#">
   <cc:Work>
    <dc:type rdf:resource="http://purl.org/dc/dcmitype/StillImage"/>
    <dc:date>2021-06-24T07:26:04.889518</dc:date>
    <dc:format>image/svg+xml</dc:format>
    <dc:creator>
     <cc:Agent>
      <dc:title>Matplotlib v3.4.2, https://matplotlib.org/</dc:title>
     </cc:Agent>
    </dc:creator>
   </cc:Work>
  </rdf:RDF>
 </metadata>
 <defs>
  <style type="text/css">*{stroke-linecap:butt;stroke-linejoin:round;}</style>
 </defs>
 <g id="figure_1">
  <g id="patch_1">
   <path d="M 0 326.154687 
L 321.504687 326.154687 
L 321.504687 0 
L 0 0 
z
" style="fill:none;"/>
  </g>
  <g id="axes_1">
   <g id="patch_2">
    <path d="M 35.304688 289.598437 
L 314.304688 289.598437 
L 314.304688 17.798437 
L 35.304688 17.798437 
z
" style="fill:#ffffff;"/>
   </g>
   <g id="PathCollection_1">
    <defs>
     <path d="M 0 3 
C 0.795609 3 1.55874 2.683901 2.12132 2.12132 
C 2.683901 1.55874 3 0.795609 3 0 
C 3 -0.795609 2.683901 -1.55874 2.12132 -2.12132 
C 1.55874 -2.683901 0.795609 -3 0 -3 
C -0.795609 -3 -1.55874 -2.683901 -2.12132 -2.12132 
C -2.683901 -1.55874 -3 -0.795609 -3 0 
C -3 0.795609 -2.683901 1.55874 -2.12132 2.12132 
C -1.55874 2.683901 -0.795609 3 0 3 
z
" id="mec2fbfae4a" style="stroke:#1f77b4;"/>
    </defs>
    <g clip-path="url(#pfaf3a0a7e1)">
     <use style="fill:#1f77b4;stroke:#1f77b4;" x="194.091005" xlink:href="#mec2fbfae4a" y="37.012715"/>
    </g>
   </g>
   <g id="matplotlib.axis_1">
    <g id="xtick_1">
     <g id="line2d_1">
      <defs>
       <path d="M 0 0 
L 0 3.5 
" id="m89ac01ded1" style="stroke:#000000;stroke-width:0.8;"/>
      </defs>
      <g>
       <use style="stroke:#000000;stroke-width:0.8;" x="66.437324" xlink:href="#m89ac01ded1" y="289.598437"/>
      </g>
     </g>
     <g id="text_1">
      <!-- −10 -->
      <g transform="translate(55.884981 304.196875)scale(0.1 -0.1)">
       <defs>
        <path d="M 678 2272 
L 4684 2272 
L 4684 1741 
L 678 1741 
L 678 2272 
z
" id="DejaVuSans-2212" transform="scale(0.015625)"/>
        <path d="M 794 531 
L 1825 531 
L 1825 4091 
L 703 3866 
L 703 4441 
L 1819 4666 
L 2450 4666 
L 2450 531 
L 3481 531 
L 3481 0 
L 794 0 
L 794 531 
z
" id="DejaVuSans-31" transform="scale(0.015625)"/>
        <path d="M 2034 4250 
Q 1547 4250 1301 3770 
Q 1056 3291 1056 2328 
Q 1056 1369 1301 889 
Q 1547 409 2034 409 
Q 2525 409 2770 889 
Q 3016 1369 3016 2328 
Q 3016 3291 2770 3770 
Q 2525 4250 2034 4250 
z
M 2034 4750 
Q 2819 4750 3233 4129 
Q 3647 3509 3647 2328 
Q 3647 1150 3233 529 
Q 2819 -91 2034 -91 
Q 1250 -91 836 529 
Q 422 1150 422 2328 
Q 422 3509 836 4129 
Q 1250 4750 2034 4750 
z
" id="DejaVuSans-30" transform="scale(0.015625)"/>
       </defs>
       <use xlink:href="#DejaVuSans-2212"/>
       <use x="83.789062" xlink:href="#DejaVuSans-31"/>
       <use x="147.412109" xlink:href="#DejaVuSans-30"/>
      </g>
     </g>
    </g>
    <g id="xtick_2">
     <g id="line2d_2">
      <g>
       <use style="stroke:#000000;stroke-width:0.8;" x="109.651163" xlink:href="#m89ac01ded1" y="289.598437"/>
      </g>
     </g>
     <g id="text_2">
      <!-- −5 -->
      <g transform="translate(102.28007 304.196875)scale(0.1 -0.1)">
       <defs>
        <path d="M 691 4666 
L 3169 4666 
L 3169 4134 
L 1269 4134 
L 1269 2991 
Q 1406 3038 1543 3061 
Q 1681 3084 1819 3084 
Q 2600 3084 3056 2656 
Q 3513 2228 3513 1497 
Q 3513 744 3044 326 
Q 2575 -91 1722 -91 
Q 1428 -91 1123 -41 
Q 819 9 494 109 
L 494 744 
Q 775 591 1075 516 
Q 1375 441 1709 441 
Q 2250 441 2565 725 
Q 2881 1009 2881 1497 
Q 2881 1984 2565 2268 
Q 2250 2553 1709 2553 
Q 1456 2553 1204 2497 
Q 953 2441 691 2322 
L 691 4666 
z
" id="DejaVuSans-35" transform="scale(0.015625)"/>
       </defs>
       <use xlink:href="#DejaVuSans-2212"/>
       <use x="83.789062" xlink:href="#DejaVuSans-35"/>
      </g>
     </g>
    </g>
    <g id="xtick_3">
     <g id="line2d_3">
      <g>
       <use style="stroke:#000000;stroke-width:0.8;" x="152.865002" xlink:href="#m89ac01ded1" y="289.598437"/>
      </g>
     </g>
     <g id="text_3">
      <!-- 0 -->
      <g transform="translate(149.683752 304.196875)scale(0.1 -0.1)">
       <use xlink:href="#DejaVuSans-30"/>
      </g>
     </g>
    </g>
    <g id="xtick_4">
     <g id="line2d_4">
      <g>
       <use style="stroke:#000000;stroke-width:0.8;" x="196.078841" xlink:href="#m89ac01ded1" y="289.598437"/>
      </g>
     </g>
     <g id="text_4">
      <!-- 5 -->
      <g transform="translate(192.897591 304.196875)scale(0.1 -0.1)">
       <use xlink:href="#DejaVuSans-35"/>
      </g>
     </g>
    </g>
    <g id="xtick_5">
     <g id="line2d_5">
      <g>
       <use style="stroke:#000000;stroke-width:0.8;" x="239.29268" xlink:href="#m89ac01ded1" y="289.598437"/>
      </g>
     </g>
     <g id="text_5">
      <!-- 10 -->
      <g transform="translate(232.93018 304.196875)scale(0.1 -0.1)">
       <use xlink:href="#DejaVuSans-31"/>
       <use x="63.623047" xlink:href="#DejaVuSans-30"/>
      </g>
     </g>
    </g>
    <g id="xtick_6">
     <g id="line2d_6">
      <g>
       <use style="stroke:#000000;stroke-width:0.8;" x="282.506519" xlink:href="#m89ac01ded1" y="289.598437"/>
      </g>
     </g>
     <g id="text_6">
      <!-- 15 -->
      <g transform="translate(276.144019 304.196875)scale(0.1 -0.1)">
       <use xlink:href="#DejaVuSans-31"/>
       <use x="63.623047" xlink:href="#DejaVuSans-35"/>
      </g>
     </g>
    </g>
    <g id="text_7">
     <!-- 1e−6 -->
     <g transform="translate(287.046875 316.875)scale(0.1 -0.1)">
      <defs>
       <path d="M 3597 1894 
L 3597 1613 
L 953 1613 
Q 991 1019 1311 708 
Q 1631 397 2203 397 
Q 2534 397 2845 478 
Q 3156 559 3463 722 
L 3463 178 
Q 3153 47 2828 -22 
Q 2503 -91 2169 -91 
Q 1331 -91 842 396 
Q 353 884 353 1716 
Q 353 2575 817 3079 
Q 1281 3584 2069 3584 
Q 2775 3584 3186 3129 
Q 3597 2675 3597 1894 
z
M 3022 2063 
Q 3016 2534 2758 2815 
Q 2500 3097 2075 3097 
Q 1594 3097 1305 2825 
Q 1016 2553 972 2059 
L 3022 2063 
z
" id="DejaVuSans-65" transform="scale(0.015625)"/>
       <path d="M 2113 2584 
Q 1688 2584 1439 2293 
Q 1191 2003 1191 1497 
Q 1191 994 1439 701 
Q 1688 409 2113 409 
Q 2538 409 2786 701 
Q 3034 994 3034 1497 
Q 3034 2003 2786 2293 
Q 2538 2584 2113 2584 
z
M 3366 4563 
L 3366 3988 
Q 3128 4100 2886 4159 
Q 2644 4219 2406 4219 
Q 1781 4219 1451 3797 
Q 1122 3375 1075 2522 
Q 1259 2794 1537 2939 
Q 1816 3084 2150 3084 
Q 2853 3084 3261 2657 
Q 3669 2231 3669 1497 
Q 3669 778 3244 343 
Q 2819 -91 2113 -91 
Q 1303 -91 875 529 
Q 447 1150 447 2328 
Q 447 3434 972 4092 
Q 1497 4750 2381 4750 
Q 2619 4750 2861 4703 
Q 3103 4656 3366 4563 
z
" id="DejaVuSans-36" transform="scale(0.015625)"/>
      </defs>
      <use xlink:href="#DejaVuSans-31"/>
      <use x="63.623047" xlink:href="#DejaVuSans-65"/>
      <use x="125.146484" xlink:href="#DejaVuSans-2212"/>
      <use x="208.935547" xlink:href="#DejaVuSans-36"/>
     </g>
    </g>
   </g>
   <g id="matplotlib.axis_2">
    <g id="ytick_1">
     <g id="line2d_7">
      <defs>
       <path d="M 0 0 
L -3.5 0 
" id="m725588ded0" style="stroke:#000000;stroke-width:0.8;"/>
      </defs>
      <g>
       <use style="stroke:#000000;stroke-width:0.8;" x="35.304688" xlink:href="#m725588ded0" y="283.339954"/>
      </g>
     </g>
     <g id="text_8">
      <!-- −15 -->
      <g transform="translate(7.2 287.139173)scale(0.1 -0.1)">
       <use xlink:href="#DejaVuSans-2212"/>
       <use x="83.789062" xlink:href="#DejaVuSans-31"/>
       <use x="147.412109" xlink:href="#DejaVuSans-35"/>
      </g>
     </g>
    </g>
    <g id="ytick_2">
     <g id="line2d_8">
      <g>
       <use style="stroke:#000000;stroke-width:0.8;" x="35.304688" xlink:href="#m725588ded0" y="240.126115"/>
      </g>
     </g>
     <g id="text_9">
      <!-- −10 -->
      <g transform="translate(7.2 243.925334)scale(0.1 -0.1)">
       <use xlink:href="#DejaVuSans-2212"/>
       <use x="83.789062" xlink:href="#DejaVuSans-31"/>
       <use x="147.412109" xlink:href="#DejaVuSans-30"/>
      </g>
     </g>
    </g>
    <g id="ytick_3">
     <g id="line2d_9">
      <g>
       <use style="stroke:#000000;stroke-width:0.8;" x="35.304688" xlink:href="#m725588ded0" y="196.912276"/>
      </g>
     </g>
     <g id="text_10">
      <!-- −5 -->
      <g transform="translate(13.5625 200.711495)scale(0.1 -0.1)">
       <use xlink:href="#DejaVuSans-2212"/>
       <use x="83.789062" xlink:href="#DejaVuSans-35"/>
      </g>
     </g>
    </g>
    <g id="ytick_4">
     <g id="line2d_10">
      <g>
       <use style="stroke:#000000;stroke-width:0.8;" x="35.304688" xlink:href="#m725588ded0" y="153.698437"/>
      </g>
     </g>
     <g id="text_11">
      <!-- 0 -->
      <g transform="translate(21.942187 157.497656)scale(0.1 -0.1)">
       <use xlink:href="#DejaVuSans-30"/>
      </g>
     </g>
    </g>
    <g id="ytick_5">
     <g id="line2d_11">
      <g>
       <use style="stroke:#000000;stroke-width:0.8;" x="35.304688" xlink:href="#m725588ded0" y="110.484599"/>
      </g>
     </g>
     <g id="text_12">
      <!-- 5 -->
      <g transform="translate(21.942187 114.283817)scale(0.1 -0.1)">
       <use xlink:href="#DejaVuSans-35"/>
      </g>
     </g>
    </g>
    <g id="ytick_6">
     <g id="line2d_12">
      <g>
       <use style="stroke:#000000;stroke-width:0.8;" x="35.304688" xlink:href="#m725588ded0" y="67.27076"/>
      </g>
     </g>
     <g id="text_13">
      <!-- 10 -->
      <g transform="translate(15.579687 71.069978)scale(0.1 -0.1)">
       <use xlink:href="#DejaVuSans-31"/>
       <use x="63.623047" xlink:href="#DejaVuSans-30"/>
      </g>
     </g>
    </g>
    <g id="ytick_7">
     <g id="line2d_13">
      <g>
       <use style="stroke:#000000;stroke-width:0.8;" x="35.304688" xlink:href="#m725588ded0" y="24.056921"/>
      </g>
     </g>
     <g id="text_14">
      <!-- 15 -->
      <g transform="translate(15.579687 27.85614)scale(0.1 -0.1)">
       <use xlink:href="#DejaVuSans-31"/>
       <use x="63.623047" xlink:href="#DejaVuSans-35"/>
      </g>
     </g>
    </g>
    <g id="text_15">
     <!-- 1e−6 -->
     <g transform="translate(35.304688 14.798437)scale(0.1 -0.1)">
      <use xlink:href="#DejaVuSans-31"/>
      <use x="63.623047" xlink:href="#DejaVuSans-65"/>
      <use x="125.146484" xlink:href="#DejaVuSans-2212"/>
      <use x="208.935547" xlink:href="#DejaVuSans-36"/>
     </g>
    </g>
   </g>
   <g id="line2d_14">
    <path clip-path="url(#pfaf3a0a7e1)" d="M 110.083302 30.152983 
L 110.947578 34.562417 
L 111.811855 37.550438 
L 113.10827 40.993218 
L 114.404686 43.760725 
L 116.133239 46.821223 
L 117.861793 49.398807 
L 119.590346 51.629246 
L 121.751038 54.046204 
L 123.91173 56.137194 
L 126.50456 58.299628 
L 129.097391 60.147592 
L 131.690221 61.727394 
L 134.283051 63.071623 
L 137.30802 64.373371 
L 140.332989 65.413716 
L 143.357958 66.212015 
L 146.382926 66.781838 
L 149.407895 67.132253 
L 152.432864 67.268599 
L 155.457833 67.192905 
L 158.482801 66.904047 
L 161.50777 66.397663 
L 164.532739 65.665812 
L 167.557707 64.696314 
L 170.582676 63.471638 
L 173.175507 62.200325 
L 175.768337 60.702154 
L 178.361167 58.947915 
L 180.953998 56.896595 
L 183.114689 54.917775 
L 185.275381 52.640189 
L 187.436073 49.985224 
L 189.164627 47.504162 
L 190.89318 44.582357 
L 192.189596 41.973735 
L 193.486011 38.800378 
L 194.350288 36.156796 
L 195.214564 32.656366 
L 195.214564 32.656366 
" style="fill:none;stroke:#000000;stroke-linecap:square;stroke-width:1.5;"/>
   </g>
   <g id="line2d_15">
    <path clip-path="url(#pfaf3a0a7e1)" d="M 110.083302 277.243892 
L 110.947578 272.834458 
L 111.811855 269.846437 
L 113.10827 266.403657 
L 114.404686 263.63615 
L 116.133239 260.575652 
L 117.861793 257.998068 
L 119.590346 255.767629 
L 121.751038 253.350671 
L 123.91173 251.259681 
L 126.50456 249.097247 
L 129.097391 247.249283 
L 131.690221 245.669481 
L 134.283051 244.325252 
L 137.30802 243.023504 
L 140.332989 241.983159 
L 143.357958 241.18486 
L 146.382926 240.615037 
L 149.407895 240.264622 
L 152.432864 240.128276 
L 155.457833 240.20397 
L 158.482801 240.492828 
L 161.50777 240.999212 
L 164.532739 241.731063 
L 167.557707 242.700561 
L 170.582676 243.925237 
L 173.175507 245.19655 
L 175.768337 246.694721 
L 178.361167 248.44896 
L 180.953998 250.50028 
L 183.114689 252.4791 
L 185.275381 254.756686 
L 187.436073 257.411651 
L 189.164627 259.892713 
L 190.89318 262.814518 
L 192.189596 265.42314 
L 193.486011 268.596497 
L 194.350288 271.240079 
L 195.214564 274.740509 
L 195.214564 274.740509 
" style="fill:none;stroke:#000000;stroke-linecap:square;stroke-width:1.5;"/>
   </g>
   <g id="line2d_16">
    <path clip-path="url(#pfaf3a0a7e1)" d="M 194.091005 270.38416 
L 195.827408 268.464074 
L 197.534807 266.518151 
L 199.212819 264.54683 
L 200.861064 262.550555 
L 202.479173 260.529775 
L 204.06678 258.484945 
L 205.623529 256.416526 
L 207.149069 254.324982 
L 208.643056 252.210785 
L 210.105155 250.07441 
L 211.535035 247.91634 
L 212.932376 245.737059 
L 214.296862 243.537058 
L 215.628187 241.316832 
L 216.926051 239.076882 
L 218.190161 236.817711 
L 219.420232 234.539828 
L 220.615989 232.243746 
L 221.777162 229.929982 
L 222.903489 227.599056 
L 223.994717 225.251494 
L 225.050601 222.887823 
L 226.070902 220.508577 
L 227.05539 218.11429 
L 228.003845 215.705502 
L 228.916052 213.282754 
L 229.791807 210.846593 
L 230.630912 208.397567 
L 231.433178 205.936227 
L 232.198425 203.463126 
L 232.926481 200.978823 
L 233.61718 198.483876 
L 234.270369 195.978847 
L 234.8859 193.464299 
L 235.463634 190.940799 
L 236.003441 188.408916 
L 236.5052 185.869218 
L 236.968798 183.322278 
L 237.39413 180.768668 
L 237.781102 178.208965 
L 238.129624 175.643744 
L 238.43962 173.073583 
L 238.711019 170.499059 
L 238.943761 167.920754 
L 239.137792 165.339247 
L 239.29307 162.755119 
L 239.409558 160.168953 
L 239.487232 157.581329 
L 239.526073 154.992832 
L 239.526073 152.404043 
L 239.487232 149.815546 
L 239.409558 147.227922 
L 239.29307 144.641756 
L 239.137792 142.057628 
L 238.943761 139.476121 
L 238.711019 136.897816 
L 238.43962 134.323292 
L 238.129624 131.753131 
L 237.781102 129.18791 
L 237.39413 126.628207 
L 236.968798 124.074597 
L 236.5052 121.527657 
L 236.003441 118.987959 
L 235.463634 116.456076 
L 234.8859 113.932576 
L 234.270369 111.418028 
L 233.61718 108.912999 
L 232.926481 106.418052 
L 232.198425 103.933749 
L 231.433178 101.460648 
L 230.630912 98.999308 
L 229.791807 96.550282 
L 228.916052 94.114121 
L 228.003845 91.691373 
L 227.05539 89.282585 
L 226.070902 86.888298 
L 225.050601 84.509052 
L 223.994717 82.145381 
L 222.903489 79.797819 
L 221.777162 77.466893 
L 220.615989 75.153129 
L 219.420232 72.857047 
L 218.190161 70.579164 
L 216.926051 68.319993 
L 215.628187 66.080043 
L 214.296862 63.859817 
L 212.932376 61.659816 
L 211.535035 59.480535 
L 210.105155 57.322465 
L 208.643056 55.18609 
L 207.149069 53.071893 
L 205.623529 50.980349 
L 204.06678 48.91193 
L 202.479173 46.8671 
L 200.861064 44.84632 
L 199.212819 42.850045 
L 197.534807 40.878724 
L 195.827408 38.932801 
L 194.091005 37.012715 
" style="fill:none;stroke:#0000ff;stroke-linecap:square;stroke-width:1.5;"/>
   </g>
   <g id="line2d_17">
    <path clip-path="url(#pfaf3a0a7e1)" d="M 239.29268 240.126115 
L 239.29268 67.27076 
" style="fill:none;stroke:#ff0000;stroke-dasharray:5.55,2.4;stroke-dashoffset:0;stroke-width:1.5;"/>
   </g>
   <g id="patch_3">
    <path d="M 35.304688 289.598437 
L 35.304688 17.798437 
" style="fill:none;stroke:#000000;stroke-linecap:square;stroke-linejoin:miter;stroke-width:0.8;"/>
   </g>
   <g id="patch_4">
    <path d="M 314.304688 289.598437 
L 314.304688 17.798437 
" style="fill:none;stroke:#000000;stroke-linecap:square;stroke-linejoin:miter;stroke-width:0.8;"/>
   </g>
   <g id="patch_5">
    <path d="M 35.304688 289.598437 
L 314.304688 289.598437 
" style="fill:none;stroke:#000000;stroke-linecap:square;stroke-linejoin:miter;stroke-width:0.8;"/>
   </g>
   <g id="patch_6">
    <path d="M 35.304688 17.798437 
L 314.304688 17.798437 
" style="fill:none;stroke:#000000;stroke-linecap:square;stroke-linejoin:miter;stroke-width:0.8;"/>
   </g>
  </g>
 </g>
 <defs>
  <clipPath id="pfaf3a0a7e1">
   <rect height="271.8" width="279" x="35.304688" y="17.798437"/>
  </clipPath>
 </defs>
</svg>