<?xml version="1.0" encoding="utf-8" standalone="no"?>
<!DOCTYPE svg PUBLIC "-//W3C//DTD SVG 1.1//EN"
  "http://www.w3.org/Graphics/SVG/1.1/DTD/svg11.dtd">
<svg xmlns:xlink="http://www.w3.org/1999/xlink" width="310.393434pt" height="310.72pt" viewBox="0 0 310.393434 310.72" xmlns="http://www.w3.org/2000/svg" version="1.1">
 <metadata>
  <rdf:RDF xmlns:dc="http://purl.org/dc/elements/1.1/" xmlns:cc="http://creativecommons.org/ns#" xmlns:rdf="http://www.w3.org/1999/02/22-rdf-syntax-ns#">
   <cc:Work>
    <dc:type rdf:resource="http://purl.org/dc/dcmitype/StillImage"/>
    <dc:date>2022-09-07T12:38:05.129150</dc:date>
    <dc:format>image/svg+xml</dc:format>
    <dc:creator>
     <cc:Agent>
      <dc:title>Matplotlib v3.5.3, https://matplotlib.org/</dc:title>
     </cc:Agent>
    </dc:creator>
   </cc:Work>
  </rdf:RDF>
 </metadata>
 <defs>
  <style type="text/css">*{stroke-linejoin: round; stroke-linecap: butt}</style>
 </defs>
 <g id="figure_1">
  <g id="patch_1">
   <path d="M 0 310.72 
L 310.393434 310.72 
L 310.393434 0 
L 0 0 
z
" style="fill: #ffffff"/>
  </g>
  <g id="axes_1">
   <g id="PathCollection_1">
    <path d="M 20.505808 299.238502 
C 22.942386 299.238502 25.279497 298.27044 27.002418 296.547519 
C 28.725339 294.824598 29.693401 292.487487 29.693401 290.050909 
C 29.693401 287.614331 28.725339 285.277221 27.002418 283.5543 
C 25.279497 281.831379 22.942386 280.863316 20.505808 280.863316 
C 18.06923 280.863316 15.732119 281.831379 14.009198 283.5543 
C 12.286277 285.277221 11.318215 287.614331 11.318215 290.050909 
C 11.318215 292.487487 12.286277 294.824598 14.009198 296.547519 
C 15.732119 298.27044 18.06923 299.238502 20.505808 299.238502 
z
" clip-path="url(#p568e885a81)" style="fill: #800000; stroke: #800000"/>
    <path d="M 20.505808 265.626112 
C 21.966153 265.626112 23.366883 265.045911 24.399503 264.013291 
C 25.432123 262.980671 26.012324 261.579941 26.012324 260.119596 
C 26.012324 258.659251 25.432123 257.258521 24.399503 256.225901 
C 23.366883 255.193281 21.966153 254.61308 20.505808 254.61308 
C 19.045463 254.61308 17.644733 255.193281 16.612113 256.225901 
C 15.579493 257.258521 14.999292 258.659251 14.999292 260.119596 
C 14.999292 261.579941 15.579493 262.980671 16.612113 264.013291 
C 17.644733 265.045911 19.045463 265.626112 20.505808 265.626112 
z
" clip-path="url(#p568e885a81)" style="fill: #800000; stroke: #800000"/>
    <path d="M 20.505808 238.819067 
C 22.794719 238.819067 24.99019 237.909673 26.608694 236.291169 
C 28.227198 234.672665 29.136592 232.477194 29.136592 230.188283 
C 29.136592 227.899372 28.227198 225.703901 26.608694 224.085397 
C 24.99019 222.466893 22.794719 221.557499 20.505808 221.557499 
C 18.216897 221.557499 16.021426 222.466893 14.402922 224.085397 
C 12.784418 225.703901 11.875024 227.899372 11.875024 230.188283 
C 11.875024 232.477194 12.784418 234.672665 14.402922 236.291169 
C 16.021426 237.909673 18.216897 238.819067 20.505808 238.819067 
z
" clip-path="url(#p568e885a81)" style="fill: #800000; stroke: #800000"/>
    <path d="M 20.505808 209.355826 
C 22.918853 209.355826 25.233391 208.397113 26.939671 206.690833 
C 28.645952 204.984552 29.604665 202.670015 29.604665 200.25697 
C 29.604665 197.843925 28.645952 195.529387 26.939671 193.823107 
C 25.233391 192.116826 22.918853 191.158113 20.505808 191.158113 
C 18.092763 191.158113 15.778225 192.116826 14.071945 193.823107 
C 12.365665 195.529387 11.406952 197.843925 11.406952 200.25697 
C 11.406952 202.670015 12.365665 204.984552 14.071945 206.690833 
C 15.778225 208.397113 18.092763 209.355826 20.505808 209.355826 
z
" clip-path="url(#p568e885a81)" style="fill: #800000; stroke: #800000"/>
    <path d="M 20.505808 178.372482 
C 22.639851 178.372482 24.686777 177.524618 26.195773 176.015622 
C 27.70477 174.506625 28.552634 172.4597 28.552634 170.325657 
C 28.552634 168.191613 27.70477 166.144688 26.195773 164.635691 
C 24.686777 163.126695 22.639851 162.278831 20.505808 162.278831 
C 18.371765 162.278831 16.324839 163.126695 14.815843 164.635691 
C 13.306847 166.144688 12.458982 168.191613 12.458982 170.325657 
C 12.458982 172.4597 13.306847 174.506625 14.815843 176.015622 
C 16.324839 177.524618 18.371765 178.372482 20.505808 178.372482 
z
" clip-path="url(#p568e885a81)" style="fill: #800000; stroke: #800000"/>
    <path d="M 20.505808 147.104509 
C 22.285365 147.104509 23.992275 146.397483 25.250611 145.139147 
C 26.508948 143.88081 27.215973 142.1739 27.215973 140.394343 
C 27.215973 138.614787 26.508948 136.907877 25.250611 135.64954 
C 23.992275 134.391204 22.285365 133.684178 20.505808 133.684178 
C 18.726251 133.684178 17.019341 134.391204 15.761005 135.64954 
C 14.502668 136.907877 13.795643 138.614787 13.795643 140.394343 
C 13.795643 142.1739 14.502668 143.88081 15.761005 145.139147 
C 17.019341 146.397483 18.726251 147.104509 20.505808 147.104509 
z
" clip-path="url(#p568e885a81)" style="fill: #800000; stroke: #800000"/>
    <path d="M 20.505808 117.028069 
C 22.246877 117.028069 23.91687 116.336335 25.147991 115.105214 
C 26.379113 113.874092 27.070847 112.204099 27.070847 110.46303 
C 27.070847 108.721962 26.379113 107.051968 25.147991 105.820847 
C 23.91687 104.589726 22.246877 103.897992 20.505808 103.897992 
C 18.764739 103.897992 17.094746 104.589726 15.863625 105.820847 
C 14.632503 107.051968 13.940769 108.721962 13.940769 110.46303 
C 13.940769 112.204099 14.632503 113.874092 15.863625 115.105214 
C 17.094746 116.336335 18.764739 117.028069 20.505808 117.028069 
z
" clip-path="url(#p568e885a81)" style="fill: #800000; stroke: #800000"/>
    <path d="M 20.505808 89.676896 
C 22.931138 89.676896 25.257459 88.713302 26.972426 86.998335 
C 28.687393 85.283368 29.650987 82.957047 29.650987 80.531717 
C 29.650987 78.106387 28.687393 75.780067 26.972426 74.065099 
C 25.257459 72.350132 22.931138 71.386539 20.505808 71.386539 
C 18.080478 71.386539 15.754157 72.350132 14.03919 74.065099 
C 12.324223 75.780067 11.36063 78.106387 11.36063 80.531717 
C 11.36063 82.957047 12.324223 85.283368 14.03919 86.998335 
C 15.754157 88.713302 18.080478 89.676896 20.505808 89.676896 
z
" clip-path="url(#p568e885a81)" style="fill: #800000; stroke: #800000"/>
    <path d="M 20.505808 57.004566 
C 22.204212 57.004566 23.833282 56.329783 25.034234 55.12883 
C 26.235187 53.927878 26.90997 52.298808 26.90997 50.600404 
C 26.90997 48.902 26.235187 47.27293 25.034234 46.071978 
C 23.833282 44.871025 22.204212 44.196242 20.505808 44.196242 
C 18.807405 44.196242 17.178335 44.871025 15.977382 46.071978 
C 14.776429 47.27293 14.101646 48.902 14.101646 50.600404 
C 14.101646 52.298808 14.776429 53.927878 15.977382 55.12883 
C 17.178335 56.329783 18.807405 57.004566 20.505808 57.004566 
z
" clip-path="url(#p568e885a81)" style="fill: #800000; stroke: #800000"/>
    <path d="M 20.505808 26.601416 
C 22.079079 26.601416 23.588125 25.976349 24.700595 24.863878 
C 25.813066 23.751408 26.438133 22.242362 26.438133 20.669091 
C 26.438133 19.09582 25.813066 17.586774 24.700595 16.474304 
C 23.588125 15.361833 22.079079 14.736766 20.505808 14.736766 
C 18.932537 14.736766 17.423491 15.361833 16.311021 16.474304 
C 15.19855 17.586774 14.573483 19.09582 14.573483 20.669091 
C 14.573483 22.242362 15.19855 23.751408 16.311021 24.863878 
C 17.423491 25.976349 18.932537 26.601416 20.505808 26.601416 
z
" clip-path="url(#p568e885a81)" style="fill: #800000; stroke: #800000"/>
    <path d="M 50.437121 298.89495 
C 52.782588 298.89495 55.032307 297.963086 56.690802 296.30459 
C 58.349298 294.646095 59.281162 292.396376 59.281162 290.050909 
C 59.281162 287.705442 58.349298 285.455724 56.690802 283.797228 
C 55.032307 282.138732 52.782588 281.206868 50.437121 281.206868 
C 48.091654 281.206868 45.841936 282.138732 44.18344 283.797228 
C 42.524944 285.455724 41.59308 287.705442 41.59308 290.050909 
C 41.59308 292.396376 42.524944 294.646095 44.18344 296.30459 
C 45.841936 297.963086 48.091654 298.89495 50.437121 298.89495 
z
" clip-path="url(#p568e885a81)" style="fill: #b20000; stroke: #b20000"/>
    <path d="M 50.437121 269.995478 
C 53.056236 269.995478 55.568431 268.954893 57.420424 267.102899 
C 59.272418 265.250905 60.313003 262.73871 60.313003 260.119596 
C 60.313003 257.500481 59.272418 254.988287 57.420424 253.136293 
C 55.568431 251.284299 53.056236 250.243714 50.437121 250.243714 
C 47.818007 250.243714 45.305812 251.284299 43.453818 253.136293 
C 41.601825 254.988287 40.561239 257.500481 40.561239 260.119596 
C 40.561239 262.73871 41.601825 265.250905 43.453818 267.102899 
C 45.305812 268.954893 47.818007 269.995478 50.437121 269.995478 
z
" clip-path="url(#p568e885a81)" style="fill: #b60000; stroke: #b60000"/>
    <path d="M 50.437121 235.583721 
C 51.868008 235.583721 53.240482 235.015224 54.252272 234.003434 
C 55.264062 232.991644 55.83256 231.61917 55.83256 230.188283 
C 55.83256 228.757396 55.264062 227.384922 54.252272 226.373132 
C 53.240482 225.361342 51.868008 224.792844 50.437121 224.792844 
C 49.006234 224.792844 47.63376 225.361342 46.62197 226.373132 
C 45.61018 227.384922 45.041683 228.757396 45.041683 230.188283 
C 45.041683 231.61917 45.61018 232.991644 46.62197 234.003434 
C 47.63376 235.015224 49.006234 235.583721 50.437121 235.583721 
z
" clip-path="url(#p568e885a81)" style="fill: #b60000; stroke: #b60000"/>
    <path d="M 50.437121 208.364845 
C 52.587355 208.364845 54.64981 207.510548 56.170255 205.990103 
C 57.6907 204.469658 58.544997 202.407203 58.544997 200.25697 
C 58.544997 198.106736 57.6907 196.044281 56.170255 194.523836 
C 54.64981 193.003391 52.587355 192.149094 50.437121 192.149094 
C 48.286888 192.149094 46.224432 193.003391 44.703988 194.523836 
C 43.183543 196.044281 42.329246 198.106736 42.329246 200.25697 
C 42.329246 202.407203 43.183543 204.469658 44.703988 205.990103 
C 46.224432 207.510548 48.286888 208.364845 50.437121 208.364845 
z
" clip-path="url(#p568e885a81)" style="fill: #b20000; stroke: #b20000"/>
    <path d="M 50.437121 179.673822 
C 52.916284 179.673822 55.29424 178.688841 57.047273 176.935808 
C 58.800305 175.182775 59.785287 172.804819 59.785287 170.325657 
C 59.785287 167.846494 58.800305 165.468538 57.047273 163.715505 
C 55.29424 161.962473 52.916284 160.977491 50.437121 160.977491 
C 47.957959 160.977491 45.580002 161.962473 43.82697 163.715505 
C 42.073937 165.468538 41.088955 167.846494 41.088955 170.325657 
C 41.088955 172.804819 42.073937 175.182775 43.82697 176.935808 
C 45.580002 178.688841 47.957959 179.673822 50.437121 179.673822 
z
" clip-path="url(#p568e885a81)" style="fill: #b20000; stroke: #b20000"/>
    <path d="M 50.437121 148.936489 
C 52.702525 148.936489 54.875448 148.036435 56.47733 146.434553 
C 58.079213 144.83267 58.979267 142.659747 58.979267 140.394343 
C 58.979267 138.12894 58.079213 135.956016 56.47733 134.354134 
C 54.875448 132.752252 52.702525 131.852198 50.437121 131.852198 
C 48.171718 131.852198 45.998794 132.752252 44.396912 134.354134 
C 42.79503 135.956016 41.894976 138.12894 41.894976 140.394343 
C 41.894976 142.659747 42.79503 144.83267 44.396912 146.434553 
C 45.998794 148.036435 48.171718 148.936489 50.437121 148.936489 
z
" clip-path="url(#p568e885a81)" style="fill: #bf0000; stroke: #bf0000"/>
    <path d="M 50.437121 119.454133 
C 52.821589 119.454133 55.108717 118.506773 56.794791 116.8207 
C 58.480864 115.134626 59.428223 112.847498 59.428223 110.46303 
C 59.428223 108.078562 58.480864 105.791435 56.794791 104.105361 
C 55.108717 102.419287 52.821589 101.471928 50.437121 101.471928 
C 48.052653 101.471928 45.765525 102.419287 44.079452 104.105361 
C 42.393378 105.791435 41.446019 108.078562 41.446019 110.46303 
C 41.446019 112.847498 42.393378 115.134626 44.079452 116.8207 
C 45.765525 118.506773 48.052653 119.454133 50.437121 119.454133 
z
" clip-path="url(#p568e885a81)" style="fill: #c40000; stroke: #c40000"/>
    <path d="M 50.437121 87.592909 
C 52.309771 87.592909 54.105974 86.848897 55.430138 85.524734 
C 56.754302 84.20057 57.498313 82.404367 57.498313 80.531717 
C 57.498313 78.659067 56.754302 76.862864 55.430138 75.5387 
C 54.105974 74.214537 52.309771 73.470525 50.437121 73.470525 
C 48.564471 73.470525 46.768268 74.214537 45.444104 75.5387 
C 44.119941 76.862864 43.375929 78.659067 43.375929 80.531717 
C 43.375929 82.404367 44.119941 84.20057 45.444104 85.524734 
C 46.768268 86.848897 48.564471 87.592909 50.437121 87.592909 
z
" clip-path="url(#p568e885a81)" style="fill: #c40000; stroke: #c40000"/>
    <path d="M 50.437121 60.34546 
C 53.02154 60.34546 55.500456 59.31866 57.327917 57.491199 
C 59.155377 55.663739 60.182178 53.184823 60.182178 50.600404 
C 60.182178 48.015985 59.155377 45.537069 57.327917 43.709609 
C 55.500456 41.882148 53.02154 40.855348 50.437121 40.855348 
C 47.852702 40.855348 45.373786 41.882148 43.546326 43.709609 
C 41.718865 45.537069 40.692065 48.015985 40.692065 50.600404 
C 40.692065 53.184823 41.718865 55.663739 43.546326 57.491199 
C 45.373786 59.31866 47.852702 60.34546 50.437121 60.34546 
z
" clip-path="url(#p568e885a81)" style="fill: #d10000; stroke: #d10000"/>
    <path d="M 50.437121 29.631374 
C 52.813947 29.631374 55.093743 28.687052 56.774413 27.006382 
C 58.455082 25.325713 59.399405 23.045916 59.399405 20.669091 
C 59.399405 18.292266 58.455082 16.012469 56.774413 14.3318 
C 55.093743 12.65113 52.813947 11.706808 50.437121 11.706808 
C 48.060296 11.706808 45.780499 12.65113 44.09983 14.3318 
C 42.419161 16.012469 41.474838 18.292266 41.474838 20.669091 
C 41.474838 23.045916 42.419161 25.325713 44.09983 27.006382 
C 45.780499 28.687052 48.060296 29.631374 50.437121 29.631374 
z
" clip-path="url(#p568e885a81)" style="fill: #d60000; stroke: #d60000"/>
    <path d="M 80.368434 298.292571 
C 82.554149 298.292571 84.650636 297.424177 86.196169 295.878644 
C 87.741702 294.33311 88.610096 292.236623 88.610096 290.050909 
C 88.610096 287.865195 87.741702 285.768708 86.196169 284.223174 
C 84.650636 282.677641 82.554149 281.809248 80.368434 281.809248 
C 78.18272 281.809248 76.086233 282.677641 74.5407 284.223174 
C 72.995166 285.768708 72.126773 287.865195 72.126773 290.050909 
C 72.126773 292.236623 72.995166 294.33311 74.5407 295.878644 
C 76.086233 297.424177 78.18272 298.292571 80.368434 298.292571 
z
" clip-path="url(#p568e885a81)" style="fill: #ed0400; stroke: #ed0400"/>
    <path d="M 80.368434 266.370339 
C 82.026151 266.370339 83.616194 265.711721 84.788377 264.539539 
C 85.960559 263.367356 86.619177 261.777312 86.619177 260.119596 
C 86.619177 258.46188 85.960559 256.871836 84.788377 255.699653 
C 83.616194 254.527471 82.026151 253.868853 80.368434 253.868853 
C 78.710718 253.868853 77.120674 254.527471 75.948492 255.699653 
C 74.776309 256.871836 74.117692 258.46188 74.117692 260.119596 
C 74.117692 261.777312 74.776309 263.367356 75.948492 264.539539 
C 77.120674 265.711721 78.710718 266.370339 80.368434 266.370339 
z
" clip-path="url(#p568e885a81)" style="fill: #f10800; stroke: #f10800"/>
    <path d="M 80.368434 237.653618 
C 82.348264 237.653618 84.247272 236.867023 85.647224 235.467072 
C 87.047175 234.067121 87.83377 232.168113 87.83377 230.188283 
C 87.83377 228.208453 87.047175 226.309445 85.647224 224.909494 
C 84.247272 223.509542 82.348264 222.722948 80.368434 222.722948 
C 78.388604 222.722948 76.489596 223.509542 75.089645 224.909494 
C 73.689694 226.309445 72.903099 228.208453 72.903099 230.188283 
C 72.903099 232.168113 73.689694 234.067121 75.089645 235.467072 
C 76.489596 236.867023 78.388604 237.653618 80.368434 237.653618 
z
" clip-path="url(#p568e885a81)" style="fill: #ff1300; stroke: #ff1300"/>
    <path d="M 80.368434 209.055153 
C 82.70174 209.055153 84.939793 208.128121 86.58969 206.478225 
C 88.239586 204.828329 89.166618 202.590275 89.166618 200.25697 
C 89.166618 197.923664 88.239586 195.685611 86.58969 194.035714 
C 84.939793 192.385818 82.70174 191.458786 80.368434 191.458786 
C 78.035129 191.458786 75.797075 192.385818 74.147179 194.035714 
C 72.497283 195.685611 71.570251 197.923664 71.570251 200.25697 
C 71.570251 202.590275 72.497283 204.828329 74.147179 206.478225 
C 75.797075 208.128121 78.035129 209.055153 80.368434 209.055153 
z
" clip-path="url(#p568e885a81)" style="fill: #e40000; stroke: #e40000"/>
    <path d="M 80.368434 178.11457 
C 82.434078 178.11457 84.415397 177.293881 85.876028 175.83325 
C 87.336659 174.372619 88.157348 172.391301 88.157348 170.325657 
C 88.157348 168.260013 87.336659 166.278694 85.876028 164.818063 
C 84.415397 163.357432 82.434078 162.536743 80.368434 162.536743 
C 78.30279 162.536743 76.321472 163.357432 74.860841 164.818063 
C 73.40021 166.278694 72.579521 168.260013 72.579521 170.325657 
C 72.579521 172.391301 73.40021 174.372619 74.860841 175.83325 
C 76.321472 177.293881 78.30279 178.11457 80.368434 178.11457 
z
" clip-path="url(#p568e885a81)" style="fill: #da0000; stroke: #da0000"/>
    <path d="M 80.368434 148.147 
C 82.424463 148.147 84.396559 147.330131 85.85039 145.876299 
C 87.304222 144.422468 88.121091 142.450372 88.121091 140.394343 
C 88.121091 138.338315 87.304222 136.366219 85.85039 134.912388 
C 84.396559 133.458556 82.424463 132.641687 80.368434 132.641687 
C 78.312406 132.641687 76.34031 133.458556 74.886478 134.912388 
C 73.432647 136.366219 72.615778 138.338315 72.615778 140.394343 
C 72.615778 142.450372 73.432647 144.422468 74.886478 145.876299 
C 76.34031 147.330131 78.312406 148.147 80.368434 148.147 
z
" clip-path="url(#p568e885a81)" style="fill: #e80000; stroke: #e80000"/>
    <path d="M 80.368434 119.027255 
C 82.639693 119.027255 84.818233 118.124874 86.424256 116.518852 
C 88.030278 114.912829 88.932659 112.734289 88.932659 110.46303 
C 88.932659 108.191771 88.030278 106.013232 86.424256 104.407209 
C 84.818233 102.801186 82.639693 101.898806 80.368434 101.898806 
C 78.097175 101.898806 75.918636 102.801186 74.312613 104.407209 
C 72.706591 106.013232 71.80421 108.191771 71.80421 110.46303 
C 71.80421 112.734289 72.706591 114.912829 74.312613 116.518852 
C 75.918636 118.124874 78.097175 119.027255 80.368434 119.027255 
z
" clip-path="url(#p568e885a81)" style="fill: #e80000; stroke: #e80000"/>
    <path d="M 80.368434 88.643795 
C 82.519783 88.643795 84.583307 87.789056 86.10454 86.267823 
C 87.625773 84.74659 88.480513 82.683065 88.480513 80.531717 
C 88.480513 78.380369 87.625773 76.316845 86.10454 74.795612 
C 84.583307 73.274379 82.519783 72.419639 80.368434 72.419639 
C 78.217086 72.419639 76.153562 73.274379 74.632329 74.795612 
C 73.111096 76.316845 72.256356 78.380369 72.256356 80.531717 
C 72.256356 82.683065 73.111096 84.74659 74.632329 86.267823 
C 76.153562 87.789056 78.217086 88.643795 80.368434 88.643795 
z
" clip-path="url(#p568e885a81)" style="fill: #ff1300; stroke: #ff1300"/>
    <path d="M 80.368434 59.300833 
C 82.675815 59.300833 84.889002 58.3841 86.520566 56.752536 
C 88.152131 55.120972 89.068863 52.907785 89.068863 50.600404 
C 89.068863 48.293023 88.152131 46.079837 86.520566 44.448272 
C 84.889002 42.816708 82.675815 41.899976 80.368434 41.899976 
C 78.061054 41.899976 75.847867 42.816708 74.216302 44.448272 
C 72.584738 46.079837 71.668006 48.293023 71.668006 50.600404 
C 71.668006 52.907785 72.584738 55.120972 74.216302 56.752536 
C 75.847867 58.3841 78.061054 59.300833 80.368434 59.300833 
z
" clip-path="url(#p568e885a81)" style="fill: #ed0400; stroke: #ed0400"/>
    <path d="M 80.368434 29.162643 
C 82.620951 29.162643 84.781513 28.267709 86.374283 26.674939 
C 87.967052 25.08217 88.861986 22.921607 88.861986 20.669091 
C 88.861986 18.416575 87.967052 16.256012 86.374283 14.663243 
C 84.781513 13.070473 82.620951 12.175539 80.368434 12.175539 
C 78.115918 12.175539 75.955356 13.070473 74.362586 14.663243 
C 72.769816 16.256012 71.874882 18.416575 71.874882 20.669091 
C 71.874882 22.921607 72.769816 25.08217 74.362586 26.674939 
C 75.955356 28.267709 78.115918 29.162643 80.368434 29.162643 
z
" clip-path="url(#p568e885a81)" style="fill: #f60b00; stroke: #f60b00"/>
    <path d="M 110.299747 299.370516 
C 112.771336 299.370516 115.142028 298.388544 116.889705 296.640867 
C 118.637382 294.893189 119.619355 292.522498 119.619355 290.050909 
C 119.619355 287.57932 118.637382 285.208629 116.889705 283.460952 
C 115.142028 281.713274 112.771336 280.731302 110.299747 280.731302 
C 107.828159 280.731302 105.457467 281.713274 103.70979 283.460952 
C 101.962113 285.208629 100.98014 287.57932 100.98014 290.050909 
C 100.98014 292.522498 101.962113 294.893189 103.70979 296.640867 
C 105.457467 298.388544 107.828159 299.370516 110.299747 299.370516 
z
" clip-path="url(#p568e885a81)" style="fill: #ff3000; stroke: #ff3000"/>
    <path d="M 110.299747 268.269382 
C 112.461096 268.269382 114.534212 267.410669 116.062516 265.882365 
C 117.590821 264.354061 118.449534 262.280944 118.449534 260.119596 
C 118.449534 257.958247 117.590821 255.885131 116.062516 254.356827 
C 114.534212 252.828523 112.461096 251.96981 110.299747 251.96981 
C 108.138399 251.96981 106.065283 252.828523 104.536978 254.356827 
C 103.008674 255.885131 102.149961 257.958247 102.149961 260.119596 
C 102.149961 262.280944 103.008674 264.354061 104.536978 265.882365 
C 106.065283 267.410669 108.138399 268.269382 110.299747 268.269382 
z
" clip-path="url(#p568e885a81)" style="fill: #ff3b00; stroke: #ff3b00"/>
    <path d="M 110.299747 239.89954 
C 112.875203 239.89954 115.345521 238.8763 117.166643 237.055178 
C 118.987765 235.234056 120.011004 232.763738 120.011004 230.188283 
C 120.011004 227.612827 118.987765 225.142509 117.166643 223.321387 
C 115.345521 221.500265 112.875203 220.477026 110.299747 220.477026 
C 107.724292 220.477026 105.253974 221.500265 103.432852 223.321387 
C 101.61173 225.142509 100.588491 227.612827 100.588491 230.188283 
C 100.588491 232.763738 101.61173 235.234056 103.432852 237.055178 
C 105.253974 238.8763 107.724292 239.89954 110.299747 239.89954 
z
" clip-path="url(#p568e885a81)" style="fill: #ff3400; stroke: #ff3400"/>
    <path d="M 110.299747 207.456424 
C 112.209065 207.456424 114.040439 206.697844 115.390531 205.347753 
C 116.740622 203.997661 117.499202 202.166287 117.499202 200.25697 
C 117.499202 198.347652 116.740622 196.516278 115.390531 195.166186 
C 114.040439 193.816095 112.209065 193.057515 110.299747 193.057515 
C 108.39043 193.057515 106.559056 193.816095 105.208964 195.166186 
C 103.858873 196.516278 103.100293 198.347652 103.100293 200.25697 
C 103.100293 202.166287 103.858873 203.997661 105.208964 205.347753 
C 106.559056 206.697844 108.39043 207.456424 110.299747 207.456424 
z
" clip-path="url(#p568e885a81)" style="fill: #ff3400; stroke: #ff3400"/>
    <path d="M 110.299747 176.270842 
C 111.876429 176.270842 113.388746 175.644419 114.503628 174.529537 
C 115.61851 173.414655 116.244933 171.902338 116.244933 170.325657 
C 116.244933 168.748975 115.61851 167.236658 114.503628 166.121776 
C 113.388746 165.006894 111.876429 164.380472 110.299747 164.380472 
C 108.723066 164.380472 107.210749 165.006894 106.095867 166.121776 
C 104.980985 167.236658 104.354562 168.748975 104.354562 170.325657 
C 104.354562 171.902338 104.980985 173.414655 106.095867 174.529537 
C 107.210749 175.644419 108.723066 176.270842 110.299747 176.270842 
z
" clip-path="url(#p568e885a81)" style="fill: #ff3400; stroke: #ff3400"/>
    <path d="M 110.299747 147.500421 
C 112.184301 147.500421 113.991922 146.75168 115.324503 145.419099 
C 116.657084 144.086518 117.405825 142.278897 117.405825 140.394343 
C 117.405825 138.50979 116.657084 136.702169 115.324503 135.369588 
C 113.991922 134.037007 112.184301 133.288266 110.299747 133.288266 
C 108.415194 133.288266 106.607573 134.037007 105.274992 135.369588 
C 103.942411 136.702169 103.19367 138.50979 103.19367 140.394343 
C 103.19367 142.278897 103.942411 144.086518 105.274992 145.419099 
C 106.607573 146.75168 108.415194 147.500421 110.299747 147.500421 
z
" clip-path="url(#p568e885a81)" style="fill: #ff3b00; stroke: #ff3b00"/>
    <path d="M 110.299747 116.549127 
C 111.913799 116.549127 113.461961 115.907857 114.603267 114.76655 
C 115.744574 113.625243 116.385844 112.077082 116.385844 110.46303 
C 116.385844 108.848979 115.744574 107.300817 114.603267 106.15951 
C 113.461961 105.018203 111.913799 104.376934 110.299747 104.376934 
C 108.685696 104.376934 107.137534 105.018203 105.996228 106.15951 
C 104.854921 107.300817 104.213651 108.848979 104.213651 110.46303 
C 104.213651 112.077082 104.854921 113.625243 105.996228 114.76655 
C 107.137534 115.907857 108.685696 116.549127 110.299747 116.549127 
z
" clip-path="url(#p568e885a81)" style="fill: #ff3f00; stroke: #ff3f00"/>
    <path d="M 110.299747 89.941584 
C 112.795273 89.941584 115.188925 88.950101 116.953528 87.185498 
C 118.718132 85.420895 119.709615 83.027243 119.709615 80.531717 
C 119.709615 78.036191 118.718132 75.64254 116.953528 73.877936 
C 115.188925 72.113333 112.795273 71.12185 110.299747 71.12185 
C 107.804222 71.12185 105.41057 72.113333 103.645967 73.877936 
C 101.881363 75.64254 100.88988 78.036191 100.88988 80.531717 
C 100.88988 83.027243 101.881363 85.420895 103.645967 87.185498 
C 105.41057 88.950101 107.804222 89.941584 110.299747 89.941584 
z
" clip-path="url(#p568e885a81)" style="fill: #ff4a00; stroke: #ff4a00"/>
    <path d="M 110.299747 56.275422 
C 111.80478 56.275422 113.248373 55.677467 114.312591 54.613248 
C 115.37681 53.549029 115.974766 52.105436 115.974766 50.600404 
C 115.974766 49.095372 115.37681 47.651779 114.312591 46.58756 
C 113.248373 45.523342 111.80478 44.925386 110.299747 44.925386 
C 108.794715 44.925386 107.351122 45.523342 106.286904 46.58756 
C 105.222685 47.651779 104.624729 49.095372 104.624729 50.600404 
C 104.624729 52.105436 105.222685 53.549029 106.286904 54.613248 
C 107.351122 55.677467 108.794715 56.275422 110.299747 56.275422 
z
" clip-path="url(#p568e885a81)" style="fill: #ff3b00; stroke: #ff3b00"/>
    <path d="M 110.299747 29.269088 
C 112.580493 29.269088 114.768133 28.362938 116.380864 26.750207 
C 117.993595 25.137476 118.899745 22.949837 118.899745 20.669091 
C 118.899745 18.388345 117.993595 16.200705 116.380864 14.587975 
C 114.768133 12.975244 112.580493 12.069094 110.299747 12.069094 
C 108.019002 12.069094 105.831362 12.975244 104.218631 14.587975 
C 102.6059 16.200705 101.69975 18.388345 101.69975 20.669091 
C 101.69975 22.949837 102.6059 25.137476 104.218631 26.750207 
C 105.831362 28.362938 108.019002 29.269088 110.299747 29.269088 
z
" clip-path="url(#p568e885a81)" style="fill: #ff2500; stroke: #ff2500"/>
    <path d="M 140.231061 298.314584 
C 142.422613 298.314584 144.5247 297.443871 146.074361 295.89421 
C 147.624023 294.344548 148.494735 292.242461 148.494735 290.050909 
C 148.494735 287.859357 147.624023 285.75727 146.074361 284.207609 
C 144.5247 282.657947 142.422613 281.787234 140.231061 281.787234 
C 138.039508 281.787234 135.937421 282.657947 134.38776 284.207609 
C 132.838099 285.75727 131.967386 287.859357 131.967386 290.050909 
C 131.967386 292.242461 132.838099 294.344548 134.38776 295.89421 
C 135.937421 297.443871 138.039508 298.314584 140.231061 298.314584 
z
" clip-path="url(#p568e885a81)" style="fill: #ff5500; stroke: #ff5500"/>
    <path d="M 140.231061 269.493421 
C 142.717028 269.493421 145.101511 268.505736 146.859356 266.747891 
C 148.6172 264.990047 149.604886 262.605563 149.604886 260.119596 
C 149.604886 257.633629 148.6172 255.249145 146.859356 253.491301 
C 145.101511 251.733456 142.717028 250.745771 140.231061 250.745771 
C 137.745093 250.745771 135.36061 251.733456 133.602765 253.491301 
C 131.844921 255.249145 130.857236 257.633629 130.857236 260.119596 
C 130.857236 262.605563 131.844921 264.990047 133.602765 266.747891 
C 135.36061 268.505736 137.745093 269.493421 140.231061 269.493421 
z
" clip-path="url(#p568e885a81)" style="fill: #ff5500; stroke: #ff5500"/>
    <path d="M 140.231061 236.758175 
C 141.973416 236.758175 143.644644 236.06593 144.876676 234.833898 
C 146.108708 233.601867 146.800953 231.930639 146.800953 230.188283 
C 146.800953 228.445927 146.108708 226.774699 144.876676 225.542667 
C 143.644644 224.310636 141.973416 223.61839 140.231061 223.61839 
C 138.488705 223.61839 136.817477 224.310636 135.585445 225.542667 
C 134.353413 226.774699 133.661168 228.445927 133.661168 230.188283 
C 133.661168 231.930639 134.353413 233.601867 135.585445 234.833898 
C 136.817477 236.06593 138.488705 236.758175 140.231061 236.758175 
z
" clip-path="url(#p568e885a81)" style="fill: #ff6800; stroke: #ff6800"/>
    <path d="M 140.231061 209.774092 
C 142.755031 209.774092 145.175966 208.771308 146.960682 206.986591 
C 148.745399 205.201875 149.748183 202.78094 149.748183 200.25697 
C 149.748183 197.732999 148.745399 195.312065 146.960682 193.527348 
C 145.175966 191.742632 142.755031 190.739848 140.231061 190.739848 
C 137.70709 190.739848 135.286155 191.742632 133.501439 193.527348 
C 131.716722 195.312065 130.713938 197.732999 130.713938 200.25697 
C 130.713938 202.78094 131.716722 205.201875 133.501439 206.986591 
C 135.286155 208.771308 137.70709 209.774092 140.231061 209.774092 
z
" clip-path="url(#p568e885a81)" style="fill: #ff6400; stroke: #ff6400"/>
    <path d="M 140.231061 177.685566 
C 142.182931 177.685566 144.055121 176.910079 145.435302 175.529898 
C 146.815483 174.149717 147.59097 172.277527 147.59097 170.325657 
C 147.59097 168.373786 146.815483 166.501596 145.435302 165.121415 
C 144.055121 163.741234 142.182931 162.965747 140.231061 162.965747 
C 138.27919 162.965747 136.407 163.741234 135.026819 165.121415 
C 133.646638 166.501596 132.871151 168.373786 132.871151 170.325657 
C 132.871151 172.277527 133.646638 174.149717 135.026819 175.529898 
C 136.407 176.910079 138.27919 177.685566 140.231061 177.685566 
z
" clip-path="url(#p568e885a81)" style="fill: #ff6f00; stroke: #ff6f00"/>
    <path d="M 140.231061 149.516313 
C 142.650235 149.516313 144.970652 148.555165 146.681267 146.84455 
C 148.391882 145.133935 149.35303 142.813518 149.35303 140.394343 
C 149.35303 137.975169 148.391882 135.654752 146.681267 133.944137 
C 144.970652 132.233522 142.650235 131.272374 140.231061 131.272374 
C 137.811886 131.272374 135.491469 132.233522 133.780854 133.944137 
C 132.070239 135.654752 131.109091 137.975169 131.109091 140.394343 
C 131.109091 142.813518 132.070239 145.133935 133.780854 146.84455 
C 135.491469 148.555165 137.811886 149.516313 140.231061 149.516313 
z
" clip-path="url(#p568e885a81)" style="fill: #ff7700; stroke: #ff7700"/>
    <path d="M 140.231061 117.54504 
C 142.109232 117.54504 143.91073 116.798835 145.238798 115.470768 
C 146.566865 114.1427 147.313071 112.341201 147.313071 110.46303 
C 147.313071 108.584859 146.566865 106.78336 145.238798 105.455293 
C 143.91073 104.127225 142.109232 103.38102 140.231061 103.38102 
C 138.35289 103.38102 136.551391 104.127225 135.223323 105.455293 
C 133.895256 106.78336 133.149051 108.584859 133.149051 110.46303 
C 133.149051 112.341201 133.895256 114.1427 135.223323 115.470768 
C 136.551391 116.798835 138.35289 117.54504 140.231061 117.54504 
z
" clip-path="url(#p568e885a81)" style="fill: #ff7300; stroke: #ff7300"/>
    <path d="M 140.231061 90.150844 
C 142.782083 90.150844 145.228965 89.137312 147.03281 87.333467 
C 148.836655 85.529622 149.850187 83.082739 149.850187 80.531717 
C 149.850187 77.980695 148.836655 75.533813 147.03281 73.729968 
C 145.228965 71.926123 142.782083 70.912591 140.231061 70.912591 
C 137.680038 70.912591 135.233156 71.926123 133.429311 73.729968 
C 131.625466 75.533813 130.611934 77.980695 130.611934 80.531717 
C 130.611934 83.082739 131.625466 85.529622 133.429311 87.333467 
C 135.233156 89.137312 137.680038 90.150844 140.231061 90.150844 
z
" clip-path="url(#p568e885a81)" style="fill: #ff6c00; stroke: #ff6c00"/>
    <path d="M 140.231061 57.831199 
C 142.14869 57.831199 143.988036 57.069317 145.344005 55.713348 
C 146.699974 54.35738 147.461856 52.518033 147.461856 50.600404 
C 147.461856 48.682775 146.699974 46.843428 145.344005 45.48746 
C 143.988036 44.131491 142.14869 43.369609 140.231061 43.369609 
C 138.313431 43.369609 136.474085 44.131491 135.118116 45.48746 
C 133.762148 46.843428 133.000265 48.682775 133.000265 50.600404 
C 133.000265 52.518033 133.762148 54.35738 135.118116 55.713348 
C 136.474085 57.069317 138.313431 57.831199 140.231061 57.831199 
z
" clip-path="url(#p568e885a81)" style="fill: #ff7e00; stroke: #ff7e00"/>
    <path d="M 140.231061 27.050171 
C 141.923343 27.050171 143.546541 26.37782 144.743166 25.181196 
C 145.93979 23.984572 146.612141 22.361373 146.612141 20.669091 
C 146.612141 18.976809 145.93979 17.35361 144.743166 16.156986 
C 143.546541 14.960362 141.923343 14.288011 140.231061 14.288011 
C 138.538778 14.288011 136.91558 14.960362 135.718956 16.156986 
C 134.522331 17.35361 133.84998 18.976809 133.84998 20.669091 
C 133.84998 22.361373 134.522331 23.984572 135.718956 25.181196 
C 136.91558 26.37782 138.538778 27.050171 140.231061 27.050171 
z
" clip-path="url(#p568e885a81)" style="fill: #ff6f00; stroke: #ff6f00"/>
    <path d="M 170.162374 297.608294 
C 172.166616 297.608294 174.089039 296.812 175.506252 295.394787 
C 176.923464 293.977574 177.719758 292.055151 177.719758 290.050909 
C 177.719758 288.046667 176.923464 286.124244 175.506252 284.707031 
C 174.089039 283.289818 172.166616 282.493525 170.162374 282.493525 
C 168.158132 282.493525 166.235709 283.289818 164.818496 284.707031 
C 163.401283 286.124244 162.604989 288.046667 162.604989 290.050909 
C 162.604989 292.055151 163.401283 293.977574 164.818496 295.394787 
C 166.235709 296.812 168.158132 297.608294 170.162374 297.608294 
z
" clip-path="url(#p568e885a81)" style="fill: #ff9400; stroke: #ff9400"/>
    <path d="M 170.162374 266.082942 
C 171.743872 266.082942 173.260808 265.454606 174.379096 264.336318 
C 175.497384 263.218031 176.12572 261.701094 176.12572 260.119596 
C 176.12572 258.538098 175.497384 257.021161 174.379096 255.902874 
C 173.260808 254.784586 171.743872 254.15625 170.162374 254.15625 
C 168.580876 254.15625 167.063939 254.784586 165.945651 255.902874 
C 164.827363 257.021161 164.199028 258.538098 164.199028 260.119596 
C 164.199028 261.701094 164.827363 263.218031 165.945651 264.336318 
C 167.063939 265.454606 168.580876 266.082942 170.162374 266.082942 
z
" clip-path="url(#p568e885a81)" style="fill: #ff9f00; stroke: #ff9f00"/>
    <path d="M 170.162374 239.569096 
C 172.650194 239.569096 175.036455 238.580674 176.79561 236.821519 
C 178.554765 235.062365 179.543187 232.676104 179.543187 230.188283 
C 179.543187 227.700462 178.554765 225.314201 176.79561 223.555046 
C 175.036455 221.795891 172.650194 220.80747 170.162374 220.80747 
C 167.674553 220.80747 165.288292 221.795891 163.529137 223.555046 
C 161.769982 225.314201 160.781561 227.700462 160.781561 230.188283 
C 160.781561 232.676104 161.769982 235.062365 163.529137 236.821519 
C 165.288292 238.580674 167.674553 239.569096 170.162374 239.569096 
z
" clip-path="url(#p568e885a81)" style="fill: #ffb200; stroke: #ffb200"/>
    <path d="M 170.162374 206.559277 
C 171.833765 206.559277 173.436926 205.895226 174.618778 204.713374 
C 175.80063 203.531522 176.464681 201.928361 176.464681 200.25697 
C 176.464681 198.585578 175.80063 196.982418 174.618778 195.800566 
C 173.436926 194.618713 171.833765 193.954662 170.162374 193.954662 
C 168.490982 193.954662 166.887822 194.618713 165.70597 195.800566 
C 164.524117 196.982418 163.860067 198.585578 163.860067 200.25697 
C 163.860067 201.928361 164.524117 203.531522 165.70597 204.713374 
C 166.887822 205.895226 168.490982 206.559277 170.162374 206.559277 
z
" clip-path="url(#p568e885a81)" style="fill: #ffa300; stroke: #ffa300"/>
    <path d="M 170.162374 177.842813 
C 172.155947 177.842813 174.068137 177.050758 175.477806 175.641089 
C 176.887475 174.23142 177.67953 172.31923 177.67953 170.325657 
C 177.67953 168.332083 176.887475 166.419893 175.477806 165.010224 
C 174.068137 163.600555 172.155947 162.8085 170.162374 162.8085 
C 168.168801 162.8085 166.25661 163.600555 164.846941 165.010224 
C 163.437272 166.419893 162.645217 168.332083 162.645217 170.325657 
C 162.645217 172.31923 163.437272 174.23142 164.846941 175.641089 
C 166.25661 177.050758 168.168801 177.842813 170.162374 177.842813 
z
" clip-path="url(#p568e885a81)" style="fill: #ff9100; stroke: #ff9100"/>
    <path d="M 170.162374 150.236848 
C 172.772636 150.236848 175.276341 149.19978 177.122075 147.354045 
C 178.96781 145.508311 180.004878 143.004606 180.004878 140.394343 
C 180.004878 137.784081 178.96781 135.280376 177.122075 133.434642 
C 175.276341 131.588907 172.772636 130.551839 170.162374 130.551839 
C 167.552111 130.551839 165.048407 131.588907 163.202672 133.434642 
C 161.356938 135.280376 160.319869 137.784081 160.319869 140.394343 
C 160.319869 143.004606 161.356938 145.508311 163.202672 147.354045 
C 165.048407 149.19978 167.552111 150.236848 170.162374 150.236848 
z
" clip-path="url(#p568e885a81)" style="fill: #ff8d00; stroke: #ff8d00"/>
    <path d="M 170.162374 120.46303 
C 172.814405 120.46303 175.358172 119.409367 177.233442 117.534098 
C 179.108711 115.658829 180.162374 113.115061 180.162374 110.46303 
C 180.162374 107.810999 179.108711 105.267232 177.233442 103.391962 
C 175.358172 101.516693 172.814405 100.46303 170.162374 100.46303 
C 167.510343 100.46303 164.966575 101.516693 163.091306 103.391962 
C 161.216037 105.267232 160.162374 107.810999 160.162374 110.46303 
C 160.162374 113.115061 161.216037 115.658829 163.091306 117.534098 
C 164.966575 119.409367 167.510343 120.46303 170.162374 120.46303 
z
" clip-path="url(#p568e885a81)" style="fill: #ff9100; stroke: #ff9100"/>
    <path d="M 170.162374 88.387292 
C 172.245697 88.387292 174.243973 87.559579 175.717104 86.086448 
C 177.190236 84.613316 178.017949 82.61504 178.017949 80.531717 
C 178.017949 78.448394 177.190236 76.450118 175.717104 74.976987 
C 174.243973 73.503855 172.245697 72.676142 170.162374 72.676142 
C 168.079051 72.676142 166.080775 73.503855 164.607643 74.976987 
C 163.134511 76.450118 162.306798 78.448394 162.306798 80.531717 
C 162.306798 82.61504 163.134511 84.613316 164.607643 86.086448 
C 166.080775 87.559579 168.079051 88.387292 170.162374 88.387292 
z
" clip-path="url(#p568e885a81)" style="fill: #ff9c00; stroke: #ff9c00"/>
    <path d="M 170.162374 60.000469 
C 172.6553 60.000469 175.046458 59.010019 176.809223 57.247254 
C 178.571989 55.484489 179.562439 53.09333 179.562439 50.600404 
C 179.562439 48.107478 178.571989 45.716319 176.809223 43.953554 
C 175.046458 42.190789 172.6553 41.200339 170.162374 41.200339 
C 167.669447 41.200339 165.278289 42.190789 163.515524 43.953554 
C 161.752759 45.716319 160.762309 48.107478 160.762309 50.600404 
C 160.762309 53.09333 161.752759 55.484489 163.515524 57.247254 
C 165.278289 59.010019 167.669447 60.000469 170.162374 60.000469 
z
" clip-path="url(#p568e885a81)" style="fill: #ffae00; stroke: #ffae00"/>
    <path d="M 170.162374 27.520488 
C 171.979385 27.520488 173.722222 26.798581 175.007043 25.51376 
C 176.291864 24.228939 177.013771 22.486103 177.013771 20.669091 
C 177.013771 18.852079 176.291864 17.109243 175.007043 15.824422 
C 173.722222 14.5396 171.979385 13.817694 170.162374 13.817694 
C 168.345362 13.817694 166.602526 14.5396 165.317705 15.824422 
C 164.032883 17.109243 163.310977 18.852079 163.310977 20.669091 
C 163.310977 22.486103 164.032883 24.228939 165.317705 25.51376 
C 166.602526 26.798581 168.345362 27.520488 170.162374 27.520488 
z
" clip-path="url(#p568e885a81)" style="fill: #ffb900; stroke: #ffb900"/>
    <path d="M 200.093687 298.528889 
C 202.342073 298.528889 204.498675 297.635595 206.088524 296.045746 
C 207.678373 294.455897 208.571667 292.299296 208.571667 290.050909 
C 208.571667 287.802523 207.678373 285.645921 206.088524 284.056072 
C 204.498675 282.466223 202.342073 281.572929 200.093687 281.572929 
C 197.8453 281.572929 195.688699 282.466223 194.09885 284.056072 
C 192.509001 285.645921 191.615707 287.802523 191.615707 290.050909 
C 191.615707 292.299296 192.509001 294.455897 194.09885 296.045746 
C 195.688699 297.635595 197.8453 298.528889 200.093687 298.528889 
z
" clip-path="url(#p568e885a81)" style="fill: #ffc800; stroke: #ffc800"/>
    <path d="M 200.093687 269.809245 
C 202.663412 269.809245 205.128233 268.788282 206.945303 266.971212 
C 208.762373 265.154142 209.783336 262.689321 209.783336 260.119596 
C 209.783336 257.549871 208.762373 255.085049 206.945303 253.26798 
C 205.128233 251.45091 202.663412 250.429947 200.093687 250.429947 
C 197.523962 250.429947 195.05914 251.45091 193.24207 253.26798 
C 191.425001 255.085049 190.404038 257.549871 190.404038 260.119596 
C 190.404038 262.689321 191.425001 265.154142 193.24207 266.971212 
C 195.05914 268.788282 197.523962 269.809245 200.093687 269.809245 
z
" clip-path="url(#p568e885a81)" style="fill: #ffdb00; stroke: #ffdb00"/>
    <path d="M 200.093687 238.394953 
C 202.270121 238.394953 204.357708 237.530247 205.896679 235.991275 
C 207.435651 234.452304 208.300357 232.364717 208.300357 230.188283 
C 208.300357 228.011848 207.435651 225.924262 205.896679 224.385291 
C 204.357708 222.846319 202.270121 221.981613 200.093687 221.981613 
C 197.917252 221.981613 195.829666 222.846319 194.290695 224.385291 
C 192.751723 225.924262 191.887017 228.011848 191.887017 230.188283 
C 191.887017 232.364717 192.751723 234.452304 194.290695 235.991275 
C 195.829666 237.530247 197.917252 238.394953 200.093687 238.394953 
z
" clip-path="url(#p568e885a81)" style="fill: #ffdb00; stroke: #ffdb00"/>
    <path d="M 200.093687 208.70442 
C 202.333977 208.70442 204.482812 207.814343 206.066936 206.230219 
C 207.65106 204.646095 208.541137 202.49726 208.541137 200.25697 
C 208.541137 198.01668 207.65106 195.867845 206.066936 194.283721 
C 204.482812 192.699596 202.333977 191.80952 200.093687 191.80952 
C 197.853397 191.80952 195.704562 192.699596 194.120438 194.283721 
C 192.536314 195.867845 191.646237 198.01668 191.646237 200.25697 
C 191.646237 202.49726 192.536314 204.646095 194.120438 206.230219 
C 195.704562 207.814343 197.853397 208.70442 200.093687 208.70442 
z
" clip-path="url(#p568e885a81)" style="fill: #ffe600; stroke: #ffe600"/>
    <path d="M 200.093687 175.952119 
C 201.585842 175.952119 203.017084 175.35928 204.072197 174.304167 
C 205.12731 173.249053 205.72015 171.817812 205.72015 170.325657 
C 205.72015 168.833501 205.12731 167.40226 204.072197 166.347147 
C 203.017084 165.292033 201.585842 164.699194 200.093687 164.699194 
C 198.601531 164.699194 197.17029 165.292033 196.115177 166.347147 
C 195.060064 167.40226 194.467224 168.833501 194.467224 170.325657 
C 194.467224 171.817812 195.060064 173.249053 196.115177 174.304167 
C 197.17029 175.35928 198.601531 175.952119 200.093687 175.952119 
z
" clip-path="url(#p568e885a81)" style="fill: #ffd000; stroke: #ffd000"/>
    <path d="M 200.093687 147.781273 
C 202.052723 147.781273 203.931787 147.002939 205.317035 145.617691 
C 206.702283 144.232443 207.480616 142.35338 207.480616 140.394343 
C 207.480616 138.435307 206.702283 136.556244 205.317035 135.170996 
C 203.931787 133.785748 202.052723 133.007414 200.093687 133.007414 
C 198.13465 133.007414 196.255587 133.785748 194.870339 135.170996 
C 193.485091 136.556244 192.706758 138.435307 192.706758 140.394343 
C 192.706758 142.35338 193.485091 144.232443 194.870339 145.617691 
C 196.255587 147.002939 198.13465 147.781273 200.093687 147.781273 
z
" clip-path="url(#p568e885a81)" style="fill: #ffb600; stroke: #ffb600"/>
    <path d="M 200.093687 116.34211 
C 201.652837 116.34211 203.148339 115.722653 204.250824 114.620168 
C 205.35331 113.517682 205.972767 112.022181 205.972767 110.46303 
C 205.972767 108.90388 205.35331 107.408379 204.250824 106.305893 
C 203.148339 105.203407 201.652837 104.58395 200.093687 104.58395 
C 198.534537 104.58395 197.039035 105.203407 195.936549 106.305893 
C 194.834064 107.408379 194.214607 108.90388 194.214607 110.46303 
C 194.214607 112.022181 194.834064 113.517682 195.936549 114.620168 
C 197.039035 115.722653 198.534537 116.34211 200.093687 116.34211 
z
" clip-path="url(#p568e885a81)" style="fill: #ffd000; stroke: #ffd000"/>
    <path d="M 200.093687 87.66189 
C 201.984631 87.66189 203.798381 86.91061 205.13548 85.573511 
C 206.472579 84.236411 207.223859 82.422661 207.223859 80.531717 
C 207.223859 78.640773 206.472579 76.827023 205.13548 75.489924 
C 203.798381 74.152825 201.984631 73.401545 200.093687 73.401545 
C 198.202743 73.401545 196.388993 74.152825 195.051894 75.489924 
C 193.714794 76.827023 192.963514 78.640773 192.963514 80.531717 
C 192.963514 82.422661 193.714794 84.236411 195.051894 85.573511 
C 196.388993 86.91061 198.202743 87.66189 200.093687 87.66189 
z
" clip-path="url(#p568e885a81)" style="fill: #ffde00; stroke: #ffde00"/>
    <path d="M 200.093687 57.857104 
C 202.018186 57.857104 203.864122 57.092492 205.224949 55.731666 
C 206.585775 54.370839 207.350387 52.524903 207.350387 50.600404 
C 207.350387 48.675905 206.585775 46.829969 205.224949 45.469142 
C 203.864122 44.108316 202.018186 43.343704 200.093687 43.343704 
C 198.169188 43.343704 196.323252 44.108316 194.962425 45.469142 
C 193.601599 46.829969 192.836987 48.675905 192.836987 50.600404 
C 192.836987 52.524903 193.601599 54.370839 194.962425 55.731666 
C 196.323252 57.092492 198.169188 57.857104 200.093687 57.857104 
z
" clip-path="url(#p568e885a81)" style="fill: #ffea00; stroke: #ffea00"/>
    <path d="M 200.093687 29.866522 
C 202.532874 29.866522 204.872487 28.897422 206.597252 27.172657 
C 208.322018 25.447891 209.291118 23.108278 209.291118 20.669091 
C 209.291118 18.229904 208.322018 15.890291 206.597252 14.165525 
C 204.872487 12.44076 202.532874 11.47166 200.093687 11.47166 
C 197.6545 11.47166 195.314887 12.44076 193.590121 14.165525 
C 191.865355 15.890291 190.896256 18.229904 190.896256 20.669091 
C 190.896256 23.108278 191.865355 25.447891 193.590121 27.172657 
C 195.314887 28.897422 197.6545 29.866522 200.093687 29.866522 
z
" clip-path="url(#p568e885a81)" style="fill: #f8f500; stroke: #f8f500"/>
    <path d="M 230.025 295.681709 
C 231.518306 295.681709 232.95065 295.088412 234.006577 294.032486 
C 235.062503 292.976559 235.6558 291.544215 235.6558 290.050909 
C 235.6558 288.557604 235.062503 287.125259 234.006577 286.069332 
C 232.95065 285.013406 231.518306 284.420109 230.025 284.420109 
C 228.531694 284.420109 227.09935 285.013406 226.043423 286.069332 
C 224.987497 287.125259 224.3942 288.557604 224.3942 290.050909 
C 224.3942 291.544215 224.987497 292.976559 226.043423 294.032486 
C 227.09935 295.088412 228.531694 295.681709 230.025 295.681709 
z
" clip-path="url(#p568e885a81)" style="fill: #e1ff16; stroke: #e1ff16"/>
    <path d="M 230.025 267.851207 
C 232.075447 267.851207 234.04219 267.036556 235.492075 265.586671 
C 236.94196 264.136786 237.756611 262.170043 237.756611 260.119596 
C 237.756611 258.069149 236.94196 256.102406 235.492075 254.652521 
C 234.04219 253.202636 232.075447 252.387985 230.025 252.387985 
C 227.974553 252.387985 226.00781 253.202636 224.557925 254.652521 
C 223.10804 256.102406 222.293389 258.069149 222.293389 260.119596 
C 222.293389 262.170043 223.10804 264.136786 224.557925 265.586671 
C 226.00781 267.036556 227.974553 267.851207 230.025 267.851207 
z
" clip-path="url(#p568e885a81)" style="fill: #e4ff13; stroke: #e4ff13"/>
    <path d="M 230.025 237.366138 
C 231.928589 237.366138 233.754469 236.609834 235.10051 235.263793 
C 236.446551 233.917752 237.202855 232.091872 237.202855 230.188283 
C 237.202855 228.284693 236.446551 226.458814 235.10051 225.112773 
C 233.754469 223.766732 231.928589 223.010428 230.025 223.010428 
C 228.121411 223.010428 226.295531 223.766732 224.94949 225.112773 
C 223.603449 226.458814 222.847145 228.284693 222.847145 230.188283 
C 222.847145 232.091872 223.603449 233.917752 224.94949 235.263793 
C 226.295531 236.609834 228.121411 237.366138 230.025 237.366138 
z
" clip-path="url(#p568e885a81)" style="fill: #e4ff13; stroke: #e4ff13"/>
    <path d="M 230.025 208.899615 
C 232.317056 208.899615 234.515544 207.988971 236.136273 206.368242 
C 237.757001 204.747514 238.667645 202.549026 238.667645 200.25697 
C 238.667645 197.964913 237.757001 195.766425 236.136273 194.145697 
C 234.515544 192.524968 232.317056 191.614325 230.025 191.614325 
C 227.732944 191.614325 225.534456 192.524968 223.913727 194.145697 
C 222.292999 195.766425 221.382355 197.964913 221.382355 200.25697 
C 221.382355 202.549026 222.292999 204.747514 223.913727 206.368242 
C 225.534456 207.988971 227.732944 208.899615 230.025 208.899615 
z
" clip-path="url(#p568e885a81)" style="fill: #e4ff13; stroke: #e4ff13"/>
    <path d="M 230.025 177.659545 
C 231.96997 177.659545 233.835541 176.8868 235.210842 175.511499 
C 236.586144 174.136197 237.358889 172.270627 237.358889 170.325657 
C 237.358889 168.380687 236.586144 166.515116 235.210842 165.139814 
C 233.835541 163.764513 231.96997 162.991768 230.025 162.991768 
C 228.08003 162.991768 226.214459 163.764513 224.839158 165.139814 
C 223.463856 166.515116 222.691111 168.380687 222.691111 170.325657 
C 222.691111 172.270627 223.463856 174.136197 224.839158 175.511499 
C 226.214459 176.8868 228.08003 177.659545 230.025 177.659545 
z
" clip-path="url(#p568e885a81)" style="fill: #d7ff1f; stroke: #d7ff1f"/>
    <path d="M 230.025 146.045189 
C 231.523622 146.045189 232.961066 145.44978 234.020751 144.390095 
C 235.080437 143.330409 235.675846 141.892965 235.675846 140.394343 
C 235.675846 138.895722 235.080437 137.458278 234.020751 136.398592 
C 232.961066 135.338907 231.523622 134.743498 230.025 134.743498 
C 228.526378 134.743498 227.088934 135.338907 226.029249 136.398592 
C 224.969563 137.458278 224.374154 138.895722 224.374154 140.394343 
C 224.374154 141.892965 224.969563 143.330409 226.029249 144.390095 
C 227.088934 145.44978 228.526378 146.045189 230.025 146.045189 
z
" clip-path="url(#p568e885a81)" style="fill: #e1ff16; stroke: #e1ff16"/>
    <path d="M 230.025 120.067081 
C 232.572024 120.067081 235.015072 119.055138 236.81609 117.25412 
C 238.617108 115.453102 239.629051 113.010054 239.629051 110.46303 
C 239.629051 107.916006 238.617108 105.472959 236.81609 103.671941 
C 235.015072 101.870923 232.572024 100.858979 230.025 100.858979 
C 227.477976 100.858979 225.034928 101.870923 223.23391 103.671941 
C 221.432892 105.472959 220.420949 107.916006 220.420949 110.46303 
C 220.420949 113.010054 221.432892 115.453102 223.23391 117.25412 
C 225.034928 119.055138 227.477976 120.067081 230.025 120.067081 
z
" clip-path="url(#p568e885a81)" style="fill: #d4ff23; stroke: #d4ff23"/>
    <path d="M 230.025 89.687567 
C 232.45316 89.687567 234.782195 88.722849 236.499163 87.00588 
C 238.216131 85.288912 239.180849 82.959877 239.180849 80.531717 
C 239.180849 78.103558 238.216131 75.774522 236.499163 74.057554 
C 234.782195 72.340586 232.45316 71.375868 230.025 71.375868 
C 227.59684 71.375868 225.267805 72.340586 223.550837 74.057554 
C 221.833869 75.774522 220.869151 78.103558 220.869151 80.531717 
C 220.869151 82.959877 221.833869 85.288912 223.550837 87.00588 
C 225.267805 88.722849 227.59684 89.687567 230.025 89.687567 
z
" clip-path="url(#p568e885a81)" style="fill: #d4ff23; stroke: #d4ff23"/>
    <path d="M 230.025 60.19763 
C 232.570214 60.19763 235.011525 59.186406 236.811263 57.386668 
C 238.611002 55.586929 239.622226 53.145618 239.622226 50.600404 
C 239.622226 48.05519 238.611002 45.613879 236.811263 43.814141 
C 235.011525 42.014402 232.570214 41.003178 230.025 41.003178 
C 227.479786 41.003178 225.038475 42.014402 223.238737 43.814141 
C 221.438998 45.613879 220.427774 48.05519 220.427774 50.600404 
C 220.427774 53.145618 221.438998 55.586929 223.238737 57.386668 
C 225.038475 59.186406 227.479786 60.19763 230.025 60.19763 
z
" clip-path="url(#p568e885a81)" style="fill: #d1ff26; stroke: #d1ff26"/>
    <path d="M 230.025 28.344653 
C 232.060583 28.344653 234.013067 27.535907 235.452442 26.096533 
C 236.891816 24.657158 237.700562 22.704674 237.700562 20.669091 
C 237.700562 18.633508 236.891816 16.681023 235.452442 15.241649 
C 234.013067 13.802275 232.060583 12.993529 230.025 12.993529 
C 227.989417 12.993529 226.036933 13.802275 224.597558 15.241649 
C 223.158184 16.681023 222.349438 18.633508 222.349438 20.669091 
C 222.349438 22.704674 223.158184 24.657158 224.597558 26.096533 
C 226.036933 27.535907 227.989417 28.344653 230.025 28.344653 
z
" clip-path="url(#p568e885a81)" style="fill: #d1ff26; stroke: #d1ff26"/>
    <path d="M 259.956313 298.563694 
C 262.21393 298.563694 264.379385 297.666733 265.975761 296.070357 
C 267.572137 294.473981 268.469098 292.308526 268.469098 290.050909 
C 268.469098 287.793292 267.572137 285.627837 265.975761 284.031461 
C 264.379385 282.435085 262.21393 281.538124 259.956313 281.538124 
C 257.698696 281.538124 255.533241 282.435085 253.936865 284.031461 
C 252.340489 285.627837 251.443528 287.793292 251.443528 290.050909 
C 251.443528 292.308526 252.340489 294.473981 253.936865 296.070357 
C 255.533241 297.666733 257.698696 298.563694 259.956313 298.563694 
z
" clip-path="url(#p568e885a81)" style="fill: #9dff5a; stroke: #9dff5a"/>
    <path d="M 259.956313 268.233133 
C 262.108048 268.233133 264.171944 267.378239 265.69345 265.856733 
C 267.214957 264.335226 268.06985 262.271331 268.06985 260.119596 
C 268.06985 257.967861 267.214957 255.903966 265.69345 254.382459 
C 264.171944 252.860953 262.108048 252.006059 259.956313 252.006059 
C 257.804578 252.006059 255.740683 252.860953 254.219176 254.382459 
C 252.69767 255.903966 251.842776 257.967861 251.842776 260.119596 
C 251.842776 262.271331 252.69767 264.335226 254.219176 265.856733 
C 255.740683 267.378239 257.804578 268.233133 259.956313 268.233133 
z
" clip-path="url(#p568e885a81)" style="fill: #b1ff46; stroke: #b1ff46"/>
    <path d="M 259.956313 238.668239 
C 262.205224 238.668239 264.362328 237.774737 265.952547 236.184517 
C 267.542767 234.594297 268.436269 232.437193 268.436269 230.188283 
C 268.436269 227.939372 267.542767 225.782268 265.952547 224.192049 
C 264.362328 222.601829 262.205224 221.708327 259.956313 221.708327 
C 257.707403 221.708327 255.550299 222.601829 253.960079 224.192049 
C 252.369859 225.782268 251.476357 227.939372 251.476357 230.188283 
C 251.476357 232.437193 252.369859 234.594297 253.960079 236.184517 
C 255.550299 237.774737 257.707403 238.668239 259.956313 238.668239 
z
" clip-path="url(#p568e885a81)" style="fill: #b7ff40; stroke: #b7ff40"/>
    <path d="M 259.956313 207.165149 
C 261.788384 207.165149 263.545664 206.43726 264.841133 205.14179 
C 266.136603 203.846321 266.864492 202.08904 266.864492 200.25697 
C 266.864492 198.424899 266.136603 196.667619 264.841133 195.372149 
C 263.545664 194.07668 261.788384 193.348791 259.956313 193.348791 
C 258.124243 193.348791 256.366962 194.07668 255.071493 195.372149 
C 253.776023 196.667619 253.048134 198.424899 253.048134 200.25697 
C 253.048134 202.08904 253.776023 203.846321 255.071493 205.14179 
C 256.366962 206.43726 258.124243 207.165149 259.956313 207.165149 
z
" clip-path="url(#p568e885a81)" style="fill: #adff49; stroke: #adff49"/>
    <path d="M 259.956313 177.432602 
C 261.841097 177.432602 263.648939 176.68377 264.981683 175.351026 
C 266.314426 174.018283 267.063259 172.210441 267.063259 170.325657 
C 267.063259 168.440872 266.314426 166.633031 264.981683 165.300287 
C 263.648939 163.967543 261.841097 163.218711 259.956313 163.218711 
C 258.071529 163.218711 256.263687 163.967543 254.930943 165.300287 
C 253.5982 166.633031 252.849367 168.440872 252.849367 170.325657 
C 252.849367 172.210441 253.5982 174.018283 254.930943 175.351026 
C 256.263687 176.68377 258.071529 177.432602 259.956313 177.432602 
z
" clip-path="url(#p568e885a81)" style="fill: #aaff4d; stroke: #aaff4d"/>
    <path d="M 259.956313 145.93119 
C 261.424702 145.93119 262.833147 145.347793 263.871455 144.309485 
C 264.909763 143.271178 265.49316 141.862732 265.49316 140.394343 
C 265.49316 138.925955 264.909763 137.517509 263.871455 136.479202 
C 262.833147 135.440894 261.424702 134.857497 259.956313 134.857497 
C 258.487924 134.857497 257.079479 135.440894 256.041171 136.479202 
C 255.002864 137.517509 254.419466 138.925955 254.419466 140.394343 
C 254.419466 141.862732 255.002864 143.271178 256.041171 144.309485 
C 257.079479 145.347793 258.487924 145.93119 259.956313 145.93119 
z
" clip-path="url(#p568e885a81)" style="fill: #aaff4d; stroke: #aaff4d"/>
    <path d="M 259.956313 117.581077 
C 261.844041 117.581077 263.654707 116.831075 264.989532 115.49625 
C 266.324358 114.161424 267.07436 112.350758 267.07436 110.46303 
C 267.07436 108.575302 266.324358 106.764636 264.989532 105.429811 
C 263.654707 104.094986 261.844041 103.344983 259.956313 103.344983 
C 258.068585 103.344983 256.257919 104.094986 254.923094 105.429811 
C 253.588268 106.764636 252.838266 108.575302 252.838266 110.46303 
C 252.838266 112.350758 253.588268 114.161424 254.923094 115.49625 
C 256.257919 116.831075 258.068585 117.581077 259.956313 117.581077 
z
" clip-path="url(#p568e885a81)" style="fill: #a7ff50; stroke: #a7ff50"/>
    <path d="M 259.956313 87.334037 
C 261.760309 87.334037 263.490662 86.617302 264.76628 85.341684 
C 266.041898 84.066066 266.758633 82.335713 266.758633 80.531717 
C 266.758633 78.727721 266.041898 76.997369 264.76628 75.721751 
C 263.490662 74.446133 261.760309 73.729397 259.956313 73.729397 
C 258.152317 73.729397 256.421965 74.446133 255.146347 75.721751 
C 253.870729 76.997369 253.153993 78.727721 253.153993 80.531717 
C 253.153993 82.335713 253.870729 84.066066 255.146347 85.341684 
C 256.421965 86.617302 258.152317 87.334037 259.956313 87.334037 
z
" clip-path="url(#p568e885a81)" style="fill: #aaff4d; stroke: #aaff4d"/>
    <path d="M 259.956313 58.907534 
C 262.15939 58.907534 264.272531 58.032242 265.830341 56.474432 
C 267.388151 54.916621 268.263443 52.803481 268.263443 50.600404 
C 268.263443 48.397327 267.388151 46.284187 265.830341 44.726376 
C 264.272531 43.168566 262.15939 42.293274 259.956313 42.293274 
C 257.753237 42.293274 255.640096 43.168566 254.082285 44.726376 
C 252.524475 46.284187 251.649183 48.397327 251.649183 50.600404 
C 251.649183 52.803481 252.524475 54.916621 254.082285 56.474432 
C 255.640096 58.032242 257.753237 58.907534 259.956313 58.907534 
z
" clip-path="url(#p568e885a81)" style="fill: #adff49; stroke: #adff49"/>
    <path d="M 259.956313 29.010542 
C 262.168492 29.010542 264.290363 28.131634 265.854609 26.567387 
C 267.418856 25.003141 268.297764 22.881269 268.297764 20.669091 
C 268.297764 18.456912 267.418856 16.335041 265.854609 14.770795 
C 264.290363 13.206548 262.168492 12.32764 259.956313 12.32764 
C 257.744135 12.32764 255.622263 13.206548 254.058017 14.770795 
C 252.49377 16.335041 251.614862 18.456912 251.614862 20.669091 
C 251.614862 22.881269 252.49377 25.003141 254.058017 26.567387 
C 255.622263 28.131634 257.744135 29.010542 259.956313 29.010542 
z
" clip-path="url(#p568e885a81)" style="fill: #a7ff50; stroke: #a7ff50"/>
    <path d="M 289.887626 297.992376 
C 291.993728 297.992376 294.013852 297.155613 295.503091 295.666374 
C 296.99233 294.177135 297.829093 292.157011 297.829093 290.050909 
C 297.829093 287.944808 296.99233 285.924683 295.503091 284.435444 
C 294.013852 282.946206 291.993728 282.109443 289.887626 282.109443 
C 287.781525 282.109443 285.7614 282.946206 284.272161 284.435444 
C 282.782923 285.924683 281.94616 287.944808 281.94616 290.050909 
C 281.94616 292.157011 282.782923 294.177135 284.272161 295.666374 
C 285.7614 297.155613 287.781525 297.992376 289.887626 297.992376 
z
" clip-path="url(#p568e885a81)" style="fill: #7dff7a; stroke: #7dff7a"/>
    <path d="M 289.887626 267.185491 
C 291.761523 267.185491 293.558923 266.440984 294.883968 265.115938 
C 296.209014 263.790893 296.953521 261.993493 296.953521 260.119596 
C 296.953521 258.245699 296.209014 256.448299 294.883968 255.123254 
C 293.558923 253.798208 291.761523 253.053701 289.887626 253.053701 
C 288.013729 253.053701 286.21633 253.798208 284.891284 255.123254 
C 283.566239 256.448299 282.821731 258.245699 282.821731 260.119596 
C 282.821731 261.993493 283.566239 263.790893 284.891284 265.115938 
C 286.21633 266.440984 288.013729 267.185491 289.887626 267.185491 
z
" clip-path="url(#p568e885a81)" style="fill: #7dff7a; stroke: #7dff7a"/>
    <path d="M 289.887626 235.972443 
C 291.421604 235.972443 292.89296 235.362988 293.977645 234.278302 
C 295.062331 233.193616 295.671787 231.72226 295.671787 230.188283 
C 295.671787 228.654306 295.062331 227.18295 293.977645 226.098264 
C 292.89296 225.013578 291.421604 224.404123 289.887626 224.404123 
C 288.353649 224.404123 286.882293 225.013578 285.797607 226.098264 
C 284.712922 227.18295 284.103466 228.654306 284.103466 230.188283 
C 284.103466 231.72226 284.712922 233.193616 285.797607 234.278302 
C 286.882293 235.362988 288.353649 235.972443 289.887626 235.972443 
z
" clip-path="url(#p568e885a81)" style="fill: #7dff7a; stroke: #7dff7a"/>
    <path d="M 289.887626 210.225188 
C 292.531229 210.225188 295.066912 209.174873 296.936221 207.305564 
C 298.80553 205.436255 299.855844 202.900572 299.855844 200.25697 
C 299.855844 197.613367 298.80553 195.077684 296.936221 193.208375 
C 295.066912 191.339066 292.531229 190.288752 289.887626 190.288752 
C 287.244024 190.288752 284.708341 191.339066 282.839032 193.208375 
C 280.969723 195.077684 279.919408 197.613367 279.919408 200.25697 
C 279.919408 202.900572 280.969723 205.436255 282.839032 207.305564 
C 284.708341 209.174873 287.244024 210.225188 289.887626 210.225188 
z
" clip-path="url(#p568e885a81)" style="fill: #7dff7a; stroke: #7dff7a"/>
    <path d="M 289.887626 177.626852 
C 291.823926 177.626852 293.68118 176.857552 295.050351 175.488381 
C 296.419522 174.119211 297.188822 172.261956 297.188822 170.325657 
C 297.188822 168.389357 296.419522 166.532102 295.050351 165.162932 
C 293.68118 163.793761 291.823926 163.024461 289.887626 163.024461 
C 287.951327 163.024461 286.094072 163.793761 284.724901 165.162932 
C 283.355731 166.532102 282.586431 168.389357 282.586431 170.325657 
C 282.586431 172.261956 283.355731 174.119211 284.724901 175.488381 
C 286.094072 176.857552 287.951327 177.626852 289.887626 177.626852 
z
" clip-path="url(#p568e885a81)" style="fill: #7dff7a; stroke: #7dff7a"/>
    <path d="M 289.887626 148.425668 
C 292.017558 148.425668 294.060541 147.579437 295.56663 146.073348 
C 297.07272 144.567258 297.918951 142.524276 297.918951 140.394343 
C 297.918951 138.264411 297.07272 136.221429 295.56663 134.715339 
C 294.060541 133.20925 292.017558 132.363019 289.887626 132.363019 
C 287.757694 132.363019 285.714712 133.20925 284.208622 134.715339 
C 282.702533 136.221429 281.856302 138.264411 281.856302 140.394343 
C 281.856302 142.524276 282.702533 144.567258 284.208622 146.073348 
C 285.714712 147.579437 287.757694 148.425668 289.887626 148.425668 
z
" clip-path="url(#p568e885a81)" style="fill: #7dff7a; stroke: #7dff7a"/>
    <path d="M 289.887626 120.424962 
C 292.529561 120.424962 295.063646 119.37531 296.931776 117.50718 
C 298.799906 115.63905 299.849558 113.104966 299.849558 110.46303 
C 299.849558 107.821095 298.799906 105.287011 296.931776 103.418881 
C 295.063646 101.55075 292.529561 100.501098 289.887626 100.501098 
C 287.245691 100.501098 284.711607 101.55075 282.843477 103.418881 
C 280.975346 105.287011 279.925694 107.821095 279.925694 110.46303 
C 279.925694 113.104966 280.975346 115.63905 282.843477 117.50718 
C 284.711607 119.37531 287.245691 120.424962 289.887626 120.424962 
z
" clip-path="url(#p568e885a81)" style="fill: #7dff7a; stroke: #7dff7a"/>
    <path d="M 289.887626 88.315728 
C 291.95197 88.315728 293.932042 87.495556 295.391753 86.035844 
C 296.851465 84.576133 297.671638 82.596061 297.671638 80.531717 
C 297.671638 78.467373 296.851465 76.487302 295.391753 75.02759 
C 293.932042 73.567878 291.95197 72.747706 289.887626 72.747706 
C 287.823282 72.747706 285.843211 73.567878 284.383499 75.02759 
C 282.923787 76.487302 282.103615 78.467373 282.103615 80.531717 
C 282.103615 82.596061 282.923787 84.576133 284.383499 86.035844 
C 285.843211 87.495556 287.823282 88.315728 289.887626 88.315728 
z
" clip-path="url(#p568e885a81)" style="fill: #7dff7a; stroke: #7dff7a"/>
    <path d="M 289.887626 57.795036 
C 291.795665 57.795036 293.625812 57.036964 294.974999 55.687777 
C 296.324186 54.33859 297.082258 52.508443 297.082258 50.600404 
C 297.082258 48.692365 296.324186 46.862218 294.974999 45.513031 
C 293.625812 44.163844 291.795665 43.405772 289.887626 43.405772 
C 287.979588 43.405772 286.14944 44.163844 284.800253 45.513031 
C 283.451066 46.862218 282.692994 48.692365 282.692994 50.600404 
C 282.692994 52.508443 283.451066 54.33859 284.800253 55.687777 
C 286.14944 57.036964 287.979588 57.795036 289.887626 57.795036 
z
" clip-path="url(#p568e885a81)" style="fill: #7dff7a; stroke: #7dff7a"/>
    <path d="M 289.887626 28.810693 
C 292.046804 28.810693 294.117839 27.952842 295.644608 26.426073 
C 297.171378 24.899303 298.029228 22.828269 298.029228 20.669091 
C 298.029228 18.509913 297.171378 16.438878 295.644608 14.912109 
C 294.117839 13.38534 292.046804 12.527489 289.887626 12.527489 
C 287.728448 12.527489 285.657414 13.38534 284.130644 14.912109 
C 282.603875 16.438878 281.746024 18.509913 281.746024 20.669091 
C 281.746024 22.828269 282.603875 24.899303 284.130644 26.426073 
C 285.657414 27.952842 287.728448 28.810693 289.887626 28.810693 
z
" clip-path="url(#p568e885a81)" style="fill: #7dff7a; stroke: #7dff7a"/>
   </g>
   <g id="LineCollection_1">
    <path d="M 20.505808 290.050909 
L 20.505808 260.119596 
" clip-path="url(#p568e885a81)" style="fill: none; stroke: #800000; stroke-width: 3"/>
    <path d="M 20.505808 260.119596 
L 20.505808 230.188283 
" clip-path="url(#p568e885a81)" style="fill: none; stroke: #800000; stroke-width: 3"/>
    <path d="M 20.505808 230.188283 
L 20.505808 200.25697 
" clip-path="url(#p568e885a81)" style="fill: none; stroke: #800000; stroke-width: 3"/>
    <path d="M 20.505808 200.25697 
L 20.505808 170.325657 
" clip-path="url(#p568e885a81)" style="fill: none; stroke: #800000; stroke-width: 3"/>
    <path d="M 20.505808 170.325657 
L 20.505808 140.394343 
" clip-path="url(#p568e885a81)" style="fill: none; stroke: #800000; stroke-width: 3"/>
    <path d="M 20.505808 140.394343 
L 20.505808 110.46303 
" clip-path="url(#p568e885a81)" style="fill: none; stroke: #800000; stroke-width: 3"/>
    <path d="M 20.505808 110.46303 
L 20.505808 80.531717 
" clip-path="url(#p568e885a81)" style="fill: none; stroke: #800000; stroke-width: 3"/>
    <path d="M 20.505808 80.531717 
L 20.505808 50.600404 
" clip-path="url(#p568e885a81)" style="fill: none; stroke: #800000; stroke-width: 3"/>
    <path d="M 20.505808 50.600404 
L 20.505808 20.669091 
" clip-path="url(#p568e885a81)" style="fill: none; stroke: #800000; stroke-width: 3"/>
    <path d="M 50.437121 290.050909 
L 50.437121 260.119596 
" clip-path="url(#p568e885a81)" style="fill: none; stroke: #b20000; stroke-width: 3"/>
    <path d="M 50.437121 260.119596 
L 50.437121 230.188283 
" clip-path="url(#p568e885a81)" style="fill: none; stroke: #b60000; stroke-width: 3"/>
    <path d="M 50.437121 230.188283 
L 50.437121 200.25697 
" clip-path="url(#p568e885a81)" style="fill: none; stroke: #b60000; stroke-width: 3"/>
    <path d="M 50.437121 200.25697 
L 50.437121 170.325657 
" clip-path="url(#p568e885a81)" style="fill: none; stroke: #b20000; stroke-width: 3"/>
    <path d="M 50.437121 170.325657 
L 50.437121 140.394343 
" clip-path="url(#p568e885a81)" style="fill: none; stroke: #b60000; stroke-width: 3"/>
    <path d="M 50.437121 140.394343 
L 50.437121 110.46303 
" clip-path="url(#p568e885a81)" style="fill: none; stroke: #c40000; stroke-width: 3"/>
    <path d="M 50.437121 110.46303 
L 50.437121 80.531717 
" clip-path="url(#p568e885a81)" style="fill: none; stroke: #c40000; stroke-width: 3"/>
    <path d="M 50.437121 80.531717 
L 50.437121 50.600404 
" clip-path="url(#p568e885a81)" style="fill: none; stroke: #cd0000; stroke-width: 3"/>
    <path d="M 50.437121 50.600404 
L 50.437121 20.669091 
" clip-path="url(#p568e885a81)" style="fill: none; stroke: #d60000; stroke-width: 3"/>
    <path d="M 80.368434 290.050909 
L 80.368434 260.119596 
" clip-path="url(#p568e885a81)" style="fill: none; stroke: #ed0400; stroke-width: 3"/>
    <path d="M 80.368434 260.119596 
L 80.368434 230.188283 
" clip-path="url(#p568e885a81)" style="fill: none; stroke: #f60b00; stroke-width: 3"/>
    <path d="M 80.368434 230.188283 
L 80.368434 200.25697 
" clip-path="url(#p568e885a81)" style="fill: none; stroke: #f10800; stroke-width: 3"/>
    <path d="M 80.368434 200.25697 
L 80.368434 170.325657 
" clip-path="url(#p568e885a81)" style="fill: none; stroke: #df0000; stroke-width: 3"/>
    <path d="M 80.368434 170.325657 
L 80.368434 140.394343 
" clip-path="url(#p568e885a81)" style="fill: none; stroke: #df0000; stroke-width: 3"/>
    <path d="M 80.368434 140.394343 
L 80.368434 110.46303 
" clip-path="url(#p568e885a81)" style="fill: none; stroke: #e80000; stroke-width: 3"/>
    <path d="M 80.368434 110.46303 
L 80.368434 80.531717 
" clip-path="url(#p568e885a81)" style="fill: none; stroke: #f60b00; stroke-width: 3"/>
    <path d="M 80.368434 80.531717 
L 80.368434 50.600404 
" clip-path="url(#p568e885a81)" style="fill: none; stroke: #f60b00; stroke-width: 3"/>
    <path d="M 80.368434 50.600404 
L 80.368434 20.669091 
" clip-path="url(#p568e885a81)" style="fill: none; stroke: #f10800; stroke-width: 3"/>
    <path d="M 110.299747 290.050909 
L 110.299747 260.119596 
" clip-path="url(#p568e885a81)" style="fill: none; stroke: #ff3400; stroke-width: 3"/>
    <path d="M 110.299747 260.119596 
L 110.299747 230.188283 
" clip-path="url(#p568e885a81)" style="fill: none; stroke: #ff3800; stroke-width: 3"/>
    <path d="M 110.299747 230.188283 
L 110.299747 200.25697 
" clip-path="url(#p568e885a81)" style="fill: none; stroke: #ff3400; stroke-width: 3"/>
    <path d="M 110.299747 200.25697 
L 110.299747 170.325657 
" clip-path="url(#p568e885a81)" style="fill: none; stroke: #ff3400; stroke-width: 3"/>
    <path d="M 110.299747 170.325657 
L 110.299747 140.394343 
" clip-path="url(#p568e885a81)" style="fill: none; stroke: #ff3800; stroke-width: 3"/>
    <path d="M 110.299747 140.394343 
L 110.299747 110.46303 
" clip-path="url(#p568e885a81)" style="fill: none; stroke: #ff3f00; stroke-width: 3"/>
    <path d="M 110.299747 110.46303 
L 110.299747 80.531717 
" clip-path="url(#p568e885a81)" style="fill: none; stroke: #ff4300; stroke-width: 3"/>
    <path d="M 110.299747 80.531717 
L 110.299747 50.600404 
" clip-path="url(#p568e885a81)" style="fill: none; stroke: #ff4300; stroke-width: 3"/>
    <path d="M 110.299747 50.600404 
L 110.299747 20.669091 
" clip-path="url(#p568e885a81)" style="fill: none; stroke: #ff3000; stroke-width: 3"/>
    <path d="M 140.231061 290.050909 
L 140.231061 260.119596 
" clip-path="url(#p568e885a81)" style="fill: none; stroke: #ff5500; stroke-width: 3"/>
    <path d="M 140.231061 260.119596 
L 140.231061 230.188283 
" clip-path="url(#p568e885a81)" style="fill: none; stroke: #ff6000; stroke-width: 3"/>
    <path d="M 140.231061 230.188283 
L 140.231061 200.25697 
" clip-path="url(#p568e885a81)" style="fill: none; stroke: #ff6800; stroke-width: 3"/>
    <path d="M 140.231061 200.25697 
L 140.231061 170.325657 
" clip-path="url(#p568e885a81)" style="fill: none; stroke: #ff6c00; stroke-width: 3"/>
    <path d="M 140.231061 170.325657 
L 140.231061 140.394343 
" clip-path="url(#p568e885a81)" style="fill: none; stroke: #ff7300; stroke-width: 3"/>
    <path d="M 140.231061 140.394343 
L 140.231061 110.46303 
" clip-path="url(#p568e885a81)" style="fill: none; stroke: #ff7700; stroke-width: 3"/>
    <path d="M 140.231061 110.46303 
L 140.231061 80.531717 
" clip-path="url(#p568e885a81)" style="fill: none; stroke: #ff6f00; stroke-width: 3"/>
    <path d="M 140.231061 80.531717 
L 140.231061 50.600404 
" clip-path="url(#p568e885a81)" style="fill: none; stroke: #ff7300; stroke-width: 3"/>
    <path d="M 140.231061 50.600404 
L 140.231061 20.669091 
" clip-path="url(#p568e885a81)" style="fill: none; stroke: #ff7700; stroke-width: 3"/>
    <path d="M 170.162374 290.050909 
L 170.162374 260.119596 
" clip-path="url(#p568e885a81)" style="fill: none; stroke: #ff9800; stroke-width: 3"/>
    <path d="M 170.162374 260.119596 
L 170.162374 230.188283 
" clip-path="url(#p568e885a81)" style="fill: none; stroke: #ffa700; stroke-width: 3"/>
    <path d="M 170.162374 230.188283 
L 170.162374 200.25697 
" clip-path="url(#p568e885a81)" style="fill: none; stroke: #ffab00; stroke-width: 3"/>
    <path d="M 170.162374 200.25697 
L 170.162374 170.325657 
" clip-path="url(#p568e885a81)" style="fill: none; stroke: #ff9800; stroke-width: 3"/>
    <path d="M 170.162374 170.325657 
L 170.162374 140.394343 
" clip-path="url(#p568e885a81)" style="fill: none; stroke: #ff8d00; stroke-width: 3"/>
    <path d="M 170.162374 140.394343 
L 170.162374 110.46303 
" clip-path="url(#p568e885a81)" style="fill: none; stroke: #ff9100; stroke-width: 3"/>
    <path d="M 170.162374 110.46303 
L 170.162374 80.531717 
" clip-path="url(#p568e885a81)" style="fill: none; stroke: #ff9800; stroke-width: 3"/>
    <path d="M 170.162374 80.531717 
L 170.162374 50.600404 
" clip-path="url(#p568e885a81)" style="fill: none; stroke: #ffa300; stroke-width: 3"/>
    <path d="M 170.162374 50.600404 
L 170.162374 20.669091 
" clip-path="url(#p568e885a81)" style="fill: none; stroke: #ffb200; stroke-width: 3"/>
    <path d="M 200.093687 290.050909 
L 200.093687 260.119596 
" clip-path="url(#p568e885a81)" style="fill: none; stroke: #ffd300; stroke-width: 3"/>
    <path d="M 200.093687 260.119596 
L 200.093687 230.188283 
" clip-path="url(#p568e885a81)" style="fill: none; stroke: #ffdb00; stroke-width: 3"/>
    <path d="M 200.093687 230.188283 
L 200.093687 200.25697 
" clip-path="url(#p568e885a81)" style="fill: none; stroke: #ffde00; stroke-width: 3"/>
    <path d="M 200.093687 200.25697 
L 200.093687 170.325657 
" clip-path="url(#p568e885a81)" style="fill: none; stroke: #ffdb00; stroke-width: 3"/>
    <path d="M 200.093687 170.325657 
L 200.093687 140.394343 
" clip-path="url(#p568e885a81)" style="fill: none; stroke: #ffc400; stroke-width: 3"/>
    <path d="M 200.093687 140.394343 
L 200.093687 110.46303 
" clip-path="url(#p568e885a81)" style="fill: none; stroke: #ffc400; stroke-width: 3"/>
    <path d="M 200.093687 110.46303 
L 200.093687 80.531717 
" clip-path="url(#p568e885a81)" style="fill: none; stroke: #ffd700; stroke-width: 3"/>
    <path d="M 200.093687 80.531717 
L 200.093687 50.600404 
" clip-path="url(#p568e885a81)" style="fill: none; stroke: #ffe600; stroke-width: 3"/>
    <path d="M 200.093687 50.600404 
L 200.093687 20.669091 
" clip-path="url(#p568e885a81)" style="fill: none; stroke: #feed00; stroke-width: 3"/>
    <path d="M 230.025 290.050909 
L 230.025 260.119596 
" clip-path="url(#p568e885a81)" style="fill: none; stroke: #e1ff16; stroke-width: 3"/>
    <path d="M 230.025 260.119596 
L 230.025 230.188283 
" clip-path="url(#p568e885a81)" style="fill: none; stroke: #e4ff13; stroke-width: 3"/>
    <path d="M 230.025 230.188283 
L 230.025 200.25697 
" clip-path="url(#p568e885a81)" style="fill: none; stroke: #e4ff13; stroke-width: 3"/>
    <path d="M 230.025 200.25697 
L 230.025 170.325657 
" clip-path="url(#p568e885a81)" style="fill: none; stroke: #deff19; stroke-width: 3"/>
    <path d="M 230.025 170.325657 
L 230.025 140.394343 
" clip-path="url(#p568e885a81)" style="fill: none; stroke: #deff19; stroke-width: 3"/>
    <path d="M 230.025 140.394343 
L 230.025 110.46303 
" clip-path="url(#p568e885a81)" style="fill: none; stroke: #dbff1c; stroke-width: 3"/>
    <path d="M 230.025 110.46303 
L 230.025 80.531717 
" clip-path="url(#p568e885a81)" style="fill: none; stroke: #d4ff23; stroke-width: 3"/>
    <path d="M 230.025 80.531717 
L 230.025 50.600404 
" clip-path="url(#p568e885a81)" style="fill: none; stroke: #d4ff23; stroke-width: 3"/>
    <path d="M 230.025 50.600404 
L 230.025 20.669091 
" clip-path="url(#p568e885a81)" style="fill: none; stroke: #d1ff26; stroke-width: 3"/>
    <path d="M 259.956313 290.050909 
L 259.956313 260.119596 
" clip-path="url(#p568e885a81)" style="fill: none; stroke: #a7ff50; stroke-width: 3"/>
    <path d="M 259.956313 260.119596 
L 259.956313 230.188283 
" clip-path="url(#p568e885a81)" style="fill: none; stroke: #b4ff43; stroke-width: 3"/>
    <path d="M 259.956313 230.188283 
L 259.956313 200.25697 
" clip-path="url(#p568e885a81)" style="fill: none; stroke: #b4ff43; stroke-width: 3"/>
    <path d="M 259.956313 200.25697 
L 259.956313 170.325657 
" clip-path="url(#p568e885a81)" style="fill: none; stroke: #adff49; stroke-width: 3"/>
    <path d="M 259.956313 170.325657 
L 259.956313 140.394343 
" clip-path="url(#p568e885a81)" style="fill: none; stroke: #aaff4d; stroke-width: 3"/>
    <path d="M 259.956313 140.394343 
L 259.956313 110.46303 
" clip-path="url(#p568e885a81)" style="fill: none; stroke: #aaff4d; stroke-width: 3"/>
    <path d="M 259.956313 110.46303 
L 259.956313 80.531717 
" clip-path="url(#p568e885a81)" style="fill: none; stroke: #aaff4d; stroke-width: 3"/>
    <path d="M 259.956313 80.531717 
L 259.956313 50.600404 
" clip-path="url(#p568e885a81)" style="fill: none; stroke: #adff49; stroke-width: 3"/>
    <path d="M 259.956313 50.600404 
L 259.956313 20.669091 
" clip-path="url(#p568e885a81)" style="fill: none; stroke: #aaff4d; stroke-width: 3"/>
    <path d="M 289.887626 290.050909 
L 289.887626 260.119596 
" clip-path="url(#p568e885a81)" style="fill: none; stroke: #7dff7a; stroke-width: 3"/>
    <path d="M 289.887626 260.119596 
L 289.887626 230.188283 
" clip-path="url(#p568e885a81)" style="fill: none; stroke: #7dff7a; stroke-width: 3"/>
    <path d="M 289.887626 230.188283 
L 289.887626 200.25697 
" clip-path="url(#p568e885a81)" style="fill: none; stroke: #7dff7a; stroke-width: 3"/>
    <path d="M 289.887626 200.25697 
L 289.887626 170.325657 
" clip-path="url(#p568e885a81)" style="fill: none; stroke: #7dff7a; stroke-width: 3"/>
    <path d="M 289.887626 170.325657 
L 289.887626 140.394343 
" clip-path="url(#p568e885a81)" style="fill: none; stroke: #7dff7a; stroke-width: 3"/>
    <path d="M 289.887626 140.394343 
L 289.887626 110.46303 
" clip-path="url(#p568e885a81)" style="fill: none; stroke: #7dff7a; stroke-width: 3"/>
    <path d="M 289.887626 110.46303 
L 289.887626 80.531717 
" clip-path="url(#p568e885a81)" style="fill: none; stroke: #7dff7a; stroke-width: 3"/>
    <path d="M 289.887626 80.531717 
L 289.887626 50.600404 
" clip-path="url(#p568e885a81)" style="fill: none; stroke: #7dff7a; stroke-width: 3"/>
    <path d="M 289.887626 50.600404 
L 289.887626 20.669091 
" clip-path="url(#p568e885a81)" style="fill: none; stroke: #7dff7a; stroke-width: 3"/>
    <path d="M 20.505808 290.050909 
L 50.437121 290.050909 
" clip-path="url(#p568e885a81)" style="fill: none; stroke: #960000; stroke-width: 3"/>
    <path d="M 20.505808 260.119596 
L 50.437121 260.119596 
" clip-path="url(#p568e885a81)" style="fill: none; stroke: #9b0000; stroke-width: 3"/>
    <path d="M 20.505808 230.188283 
L 50.437121 230.188283 
" clip-path="url(#p568e885a81)" style="fill: none; stroke: #9b0000; stroke-width: 3"/>
    <path d="M 20.505808 200.25697 
L 50.437121 200.25697 
" clip-path="url(#p568e885a81)" style="fill: none; stroke: #960000; stroke-width: 3"/>
    <path d="M 20.505808 170.325657 
L 50.437121 170.325657 
" clip-path="url(#p568e885a81)" style="fill: none; stroke: #960000; stroke-width: 3"/>
    <path d="M 20.505808 140.394343 
L 50.437121 140.394343 
" clip-path="url(#p568e885a81)" style="fill: none; stroke: #9f0000; stroke-width: 3"/>
    <path d="M 20.505808 110.46303 
L 50.437121 110.46303 
" clip-path="url(#p568e885a81)" style="fill: none; stroke: #9f0000; stroke-width: 3"/>
    <path d="M 20.505808 80.531717 
L 50.437121 80.531717 
" clip-path="url(#p568e885a81)" style="fill: none; stroke: #9f0000; stroke-width: 3"/>
    <path d="M 20.505808 50.600404 
L 50.437121 50.600404 
" clip-path="url(#p568e885a81)" style="fill: none; stroke: #a80000; stroke-width: 3"/>
    <path d="M 20.505808 20.669091 
L 50.437121 20.669091 
" clip-path="url(#p568e885a81)" style="fill: none; stroke: #a80000; stroke-width: 3"/>
    <path d="M 50.437121 290.050909 
L 80.368434 290.050909 
" clip-path="url(#p568e885a81)" style="fill: none; stroke: #cd0000; stroke-width: 3"/>
    <path d="M 50.437121 260.119596 
L 80.368434 260.119596 
" clip-path="url(#p568e885a81)" style="fill: none; stroke: #d60000; stroke-width: 3"/>
    <path d="M 50.437121 230.188283 
L 80.368434 230.188283 
" clip-path="url(#p568e885a81)" style="fill: none; stroke: #da0000; stroke-width: 3"/>
    <path d="M 50.437121 200.25697 
L 80.368434 200.25697 
" clip-path="url(#p568e885a81)" style="fill: none; stroke: #cd0000; stroke-width: 3"/>
    <path d="M 50.437121 170.325657 
L 80.368434 170.325657 
" clip-path="url(#p568e885a81)" style="fill: none; stroke: #c80000; stroke-width: 3"/>
    <path d="M 50.437121 140.394343 
L 80.368434 140.394343 
" clip-path="url(#p568e885a81)" style="fill: none; stroke: #d10000; stroke-width: 3"/>
    <path d="M 50.437121 110.46303 
L 80.368434 110.46303 
" clip-path="url(#p568e885a81)" style="fill: none; stroke: #d60000; stroke-width: 3"/>
    <path d="M 50.437121 80.531717 
L 80.368434 80.531717 
" clip-path="url(#p568e885a81)" style="fill: none; stroke: #e40000; stroke-width: 3"/>
    <path d="M 50.437121 50.600404 
L 80.368434 50.600404 
" clip-path="url(#p568e885a81)" style="fill: none; stroke: #df0000; stroke-width: 3"/>
    <path d="M 50.437121 20.669091 
L 80.368434 20.669091 
" clip-path="url(#p568e885a81)" style="fill: none; stroke: #e80000; stroke-width: 3"/>
    <path d="M 80.368434 290.050909 
L 110.299747 290.050909 
" clip-path="url(#p568e885a81)" style="fill: none; stroke: #ff1a00; stroke-width: 3"/>
    <path d="M 80.368434 260.119596 
L 110.299747 260.119596 
" clip-path="url(#p568e885a81)" style="fill: none; stroke: #ff2200; stroke-width: 3"/>
    <path d="M 80.368434 230.188283 
L 110.299747 230.188283 
" clip-path="url(#p568e885a81)" style="fill: none; stroke: #ff2500; stroke-width: 3"/>
    <path d="M 80.368434 200.25697 
L 110.299747 200.25697 
" clip-path="url(#p568e885a81)" style="fill: none; stroke: #ff1a00; stroke-width: 3"/>
    <path d="M 80.368434 170.325657 
L 110.299747 170.325657 
" clip-path="url(#p568e885a81)" style="fill: none; stroke: #ff1600; stroke-width: 3"/>
    <path d="M 80.368434 140.394343 
L 110.299747 140.394343 
" clip-path="url(#p568e885a81)" style="fill: none; stroke: #ff1e00; stroke-width: 3"/>
    <path d="M 80.368434 110.46303 
L 110.299747 110.46303 
" clip-path="url(#p568e885a81)" style="fill: none; stroke: #ff1e00; stroke-width: 3"/>
    <path d="M 80.368434 80.531717 
L 110.299747 80.531717 
" clip-path="url(#p568e885a81)" style="fill: none; stroke: #ff2d00; stroke-width: 3"/>
    <path d="M 80.368434 50.600404 
L 110.299747 50.600404 
" clip-path="url(#p568e885a81)" style="fill: none; stroke: #ff2200; stroke-width: 3"/>
    <path d="M 80.368434 20.669091 
L 110.299747 20.669091 
" clip-path="url(#p568e885a81)" style="fill: none; stroke: #ff1600; stroke-width: 3"/>
    <path d="M 110.299747 290.050909 
L 140.231061 290.050909 
" clip-path="url(#p568e885a81)" style="fill: none; stroke: #ff4300; stroke-width: 3"/>
    <path d="M 110.299747 260.119596 
L 140.231061 260.119596 
" clip-path="url(#p568e885a81)" style="fill: none; stroke: #ff4700; stroke-width: 3"/>
    <path d="M 110.299747 230.188283 
L 140.231061 230.188283 
" clip-path="url(#p568e885a81)" style="fill: none; stroke: #ff4e00; stroke-width: 3"/>
    <path d="M 110.299747 200.25697 
L 140.231061 200.25697 
" clip-path="url(#p568e885a81)" style="fill: none; stroke: #ff4e00; stroke-width: 3"/>
    <path d="M 110.299747 170.325657 
L 140.231061 170.325657 
" clip-path="url(#p568e885a81)" style="fill: none; stroke: #ff5200; stroke-width: 3"/>
    <path d="M 110.299747 140.394343 
L 140.231061 140.394343 
" clip-path="url(#p568e885a81)" style="fill: none; stroke: #ff5900; stroke-width: 3"/>
    <path d="M 110.299747 110.46303 
L 140.231061 110.46303 
" clip-path="url(#p568e885a81)" style="fill: none; stroke: #ff5900; stroke-width: 3"/>
    <path d="M 110.299747 80.531717 
L 140.231061 80.531717 
" clip-path="url(#p568e885a81)" style="fill: none; stroke: #ff5900; stroke-width: 3"/>
    <path d="M 110.299747 50.600404 
L 140.231061 50.600404 
" clip-path="url(#p568e885a81)" style="fill: none; stroke: #ff5d00; stroke-width: 3"/>
    <path d="M 110.299747 20.669091 
L 140.231061 20.669091 
" clip-path="url(#p568e885a81)" style="fill: none; stroke: #ff4a00; stroke-width: 3"/>
    <path d="M 140.231061 290.050909 
L 170.162374 290.050909 
" clip-path="url(#p568e885a81)" style="fill: none; stroke: #ff7300; stroke-width: 3"/>
    <path d="M 140.231061 260.119596 
L 170.162374 260.119596 
" clip-path="url(#p568e885a81)" style="fill: none; stroke: #ff7a00; stroke-width: 3"/>
    <path d="M 140.231061 230.188283 
L 170.162374 230.188283 
" clip-path="url(#p568e885a81)" style="fill: none; stroke: #ff8d00; stroke-width: 3"/>
    <path d="M 140.231061 200.25697 
L 170.162374 200.25697 
" clip-path="url(#p568e885a81)" style="fill: none; stroke: #ff8600; stroke-width: 3"/>
    <path d="M 140.231061 170.325657 
L 170.162374 170.325657 
" clip-path="url(#p568e885a81)" style="fill: none; stroke: #ff7e00; stroke-width: 3"/>
    <path d="M 140.231061 140.394343 
L 170.162374 140.394343 
" clip-path="url(#p568e885a81)" style="fill: none; stroke: #ff8200; stroke-width: 3"/>
    <path d="M 140.231061 110.46303 
L 170.162374 110.46303 
" clip-path="url(#p568e885a81)" style="fill: none; stroke: #ff8200; stroke-width: 3"/>
    <path d="M 140.231061 80.531717 
L 170.162374 80.531717 
" clip-path="url(#p568e885a81)" style="fill: none; stroke: #ff8200; stroke-width: 3"/>
    <path d="M 140.231061 50.600404 
L 170.162374 50.600404 
" clip-path="url(#p568e885a81)" style="fill: none; stroke: #ff9400; stroke-width: 3"/>
    <path d="M 140.231061 20.669091 
L 170.162374 20.669091 
" clip-path="url(#p568e885a81)" style="fill: none; stroke: #ff9400; stroke-width: 3"/>
    <path d="M 170.162374 290.050909 
L 200.093687 290.050909 
" clip-path="url(#p568e885a81)" style="fill: none; stroke: #ffae00; stroke-width: 3"/>
    <path d="M 170.162374 260.119596 
L 200.093687 260.119596 
" clip-path="url(#p568e885a81)" style="fill: none; stroke: #ffbd00; stroke-width: 3"/>
    <path d="M 170.162374 230.188283 
L 200.093687 230.188283 
" clip-path="url(#p568e885a81)" style="fill: none; stroke: #ffc400; stroke-width: 3"/>
    <path d="M 170.162374 200.25697 
L 200.093687 200.25697 
" clip-path="url(#p568e885a81)" style="fill: none; stroke: #ffc400; stroke-width: 3"/>
    <path d="M 170.162374 170.325657 
L 200.093687 170.325657 
" clip-path="url(#p568e885a81)" style="fill: none; stroke: #ffb200; stroke-width: 3"/>
    <path d="M 170.162374 140.394343 
L 200.093687 140.394343 
" clip-path="url(#p568e885a81)" style="fill: none; stroke: #ffa300; stroke-width: 3"/>
    <path d="M 170.162374 110.46303 
L 200.093687 110.46303 
" clip-path="url(#p568e885a81)" style="fill: none; stroke: #ffb200; stroke-width: 3"/>
    <path d="M 170.162374 80.531717 
L 200.093687 80.531717 
" clip-path="url(#p568e885a81)" style="fill: none; stroke: #ffbd00; stroke-width: 3"/>
    <path d="M 170.162374 50.600404 
L 200.093687 50.600404 
" clip-path="url(#p568e885a81)" style="fill: none; stroke: #ffcc00; stroke-width: 3"/>
    <path d="M 170.162374 20.669091 
L 200.093687 20.669091 
" clip-path="url(#p568e885a81)" style="fill: none; stroke: #ffd700; stroke-width: 3"/>
    <path d="M 200.093687 290.050909 
L 230.025 290.050909 
" clip-path="url(#p568e885a81)" style="fill: none; stroke: #feed00; stroke-width: 3"/>
    <path d="M 200.093687 260.119596 
L 230.025 260.119596 
" clip-path="url(#p568e885a81)" style="fill: none; stroke: #f8f500; stroke-width: 3"/>
    <path d="M 200.093687 230.188283 
L 230.025 230.188283 
" clip-path="url(#p568e885a81)" style="fill: none; stroke: #fbf100; stroke-width: 3"/>
    <path d="M 200.093687 200.25697 
L 230.025 200.25697 
" clip-path="url(#p568e885a81)" style="fill: none; stroke: #f4f802; stroke-width: 3"/>
    <path d="M 200.093687 170.325657 
L 230.025 170.325657 
" clip-path="url(#p568e885a81)" style="fill: none; stroke: #f8f500; stroke-width: 3"/>
    <path d="M 200.093687 140.394343 
L 230.025 140.394343 
" clip-path="url(#p568e885a81)" style="fill: none; stroke: #ffe200; stroke-width: 3"/>
    <path d="M 200.093687 110.46303 
L 230.025 110.46303 
" clip-path="url(#p568e885a81)" style="fill: none; stroke: #f4f802; stroke-width: 3"/>
    <path d="M 200.093687 80.531717 
L 230.025 80.531717 
" clip-path="url(#p568e885a81)" style="fill: none; stroke: #eeff09; stroke-width: 3"/>
    <path d="M 200.093687 50.600404 
L 230.025 50.600404 
" clip-path="url(#p568e885a81)" style="fill: none; stroke: #ebff0c; stroke-width: 3"/>
    <path d="M 200.093687 20.669091 
L 230.025 20.669091 
" clip-path="url(#p568e885a81)" style="fill: none; stroke: #e4ff13; stroke-width: 3"/>
    <path d="M 230.025 290.050909 
L 259.956313 290.050909 
" clip-path="url(#p568e885a81)" style="fill: none; stroke: #c1ff36; stroke-width: 3"/>
    <path d="M 230.025 260.119596 
L 259.956313 260.119596 
" clip-path="url(#p568e885a81)" style="fill: none; stroke: #caff2c; stroke-width: 3"/>
    <path d="M 230.025 230.188283 
L 259.956313 230.188283 
" clip-path="url(#p568e885a81)" style="fill: none; stroke: #ceff29; stroke-width: 3"/>
    <path d="M 230.025 200.25697 
L 259.956313 200.25697 
" clip-path="url(#p568e885a81)" style="fill: none; stroke: #caff2c; stroke-width: 3"/>
    <path d="M 230.025 170.325657 
L 259.956313 170.325657 
" clip-path="url(#p568e885a81)" style="fill: none; stroke: #c1ff36; stroke-width: 3"/>
    <path d="M 230.025 140.394343 
L 259.956313 140.394343 
" clip-path="url(#p568e885a81)" style="fill: none; stroke: #c7ff30; stroke-width: 3"/>
    <path d="M 230.025 110.46303 
L 259.956313 110.46303 
" clip-path="url(#p568e885a81)" style="fill: none; stroke: #beff39; stroke-width: 3"/>
    <path d="M 230.025 80.531717 
L 259.956313 80.531717 
" clip-path="url(#p568e885a81)" style="fill: none; stroke: #c1ff36; stroke-width: 3"/>
    <path d="M 230.025 50.600404 
L 259.956313 50.600404 
" clip-path="url(#p568e885a81)" style="fill: none; stroke: #c1ff36; stroke-width: 3"/>
    <path d="M 230.025 20.669091 
L 259.956313 20.669091 
" clip-path="url(#p568e885a81)" style="fill: none; stroke: #baff3c; stroke-width: 3"/>
    <path d="M 259.956313 290.050909 
L 289.887626 290.050909 
" clip-path="url(#p568e885a81)" style="fill: none; stroke: #8dff6a; stroke-width: 3"/>
    <path d="M 259.956313 260.119596 
L 289.887626 260.119596 
" clip-path="url(#p568e885a81)" style="fill: none; stroke: #97ff60; stroke-width: 3"/>
    <path d="M 259.956313 230.188283 
L 289.887626 230.188283 
" clip-path="url(#p568e885a81)" style="fill: none; stroke: #9aff5d; stroke-width: 3"/>
    <path d="M 259.956313 200.25697 
L 289.887626 200.25697 
" clip-path="url(#p568e885a81)" style="fill: none; stroke: #94ff63; stroke-width: 3"/>
    <path d="M 259.956313 170.325657 
L 289.887626 170.325657 
" clip-path="url(#p568e885a81)" style="fill: none; stroke: #94ff63; stroke-width: 3"/>
    <path d="M 259.956313 140.394343 
L 289.887626 140.394343 
" clip-path="url(#p568e885a81)" style="fill: none; stroke: #94ff63; stroke-width: 3"/>
    <path d="M 259.956313 110.46303 
L 289.887626 110.46303 
" clip-path="url(#p568e885a81)" style="fill: none; stroke: #90ff66; stroke-width: 3"/>
    <path d="M 259.956313 80.531717 
L 289.887626 80.531717 
" clip-path="url(#p568e885a81)" style="fill: none; stroke: #94ff63; stroke-width: 3"/>
    <path d="M 259.956313 50.600404 
L 289.887626 50.600404 
" clip-path="url(#p568e885a81)" style="fill: none; stroke: #94ff63; stroke-width: 3"/>
    <path d="M 259.956313 20.669091 
L 289.887626 20.669091 
" clip-path="url(#p568e885a81)" style="fill: none; stroke: #90ff66; stroke-width: 3"/>
   </g>
  </g>
 </g>
 <defs>
  <clipPath id="p568e885a81">
   <rect x="7.2" y="7.2" width="295.993434" height="296.32"/>
  </clipPath>
 </defs>
</svg>