<?xml version="1.0" encoding="utf-8" standalone="no"?>
<!DOCTYPE svg PUBLIC "-//W3C//DTD SVG 1.1//EN"
  "http://www.w3.org/Graphics/SVG/1.1/DTD/svg11.dtd">
<svg height="262.19625pt" version="1.1" viewBox="0 0 376.240625 262.19625" width="376.240625pt" xmlns="http://www.w3.org/2000/svg" xmlns:xlink="http://www.w3.org/1999/xlink">
 <metadata>
  <rdf:RDF xmlns:cc="http://creativecommons.org/ns#" xmlns:dc="http://purl.org/dc/elements/1.1/" xmlns:rdf="http://www.w3.org/1999/02/22-rdf-syntax-ns#">
   <cc:Work>
    <dc:type rdf:resource="http://purl.org/dc/dcmitype/StillImage"/>
    <dc:date>2021-06-24T07:31:43.236800</dc:date>
    <dc:format>image/svg+xml</dc:format>
    <dc:creator>
     <cc:Agent>
      <dc:title>Matplotlib v3.4.2, https://matplotlib.org/</dc:title>
     </cc:Agent>
    </dc:creator>
   </cc:Work>
  </rdf:RDF>
 </metadata>
 <defs>
  <style type="text/css">*{stroke-linecap:butt;stroke-linejoin:round;}</style>
 </defs>
 <g id="figure_1">
  <g id="patch_1">
   <path d="M 0 262.19625 
L 376.240625 262.19625 
L 376.240625 0 
L 0 0 
z
" style="fill:none;"/>
  </g>
  <g id="axes_1">
   <g id="patch_2">
    <path d="M 34.240625 224.64 
L 369.040625 224.64 
L 369.040625 7.2 
L 34.240625 7.2 
z
" style="fill:#ffffff;"/>
   </g>
   <g id="PathCollection_1">
    <defs>
     <path d="M 0 1.581139 
C 0.419323 1.581139 0.821528 1.41454 1.118034 1.118034 
C 1.41454 0.821528 1.581139 0.419323 1.581139 0 
C 1.581139 -0.419323 1.41454 -0.821528 1.118034 -1.118034 
C 0.821528 -1.41454 0.419323 -1.581139 0 -1.581139 
C -0.419323 -1.581139 -0.821528 -1.41454 -1.118034 -1.118034 
C -1.41454 -0.821528 -1.581139 -0.419323 -1.581139 0 
C -1.581139 0.419323 -1.41454 0.821528 -1.118034 1.118034 
C -0.821528 1.41454 -0.419323 1.581139 0 1.581139 
z
" id="mf5d411f189" style="stroke:#ff0000;"/>
    </defs>
    <g clip-path="url(#p291cb07f6f)">
     <use style="fill:#ff0000;stroke:#ff0000;" x="102.804261" xlink:href="#mf5d411f189" y="214.756364"/>
     <use style="fill:#ff0000;stroke:#ff0000;" x="102.804261" xlink:href="#mf5d411f189" y="178.815868"/>
     <use style="fill:#ff0000;stroke:#ff0000;" x="102.804261" xlink:href="#mf5d411f189" y="142.875372"/>
     <use style="fill:#ff0000;stroke:#ff0000;" x="102.804261" xlink:href="#mf5d411f189" y="106.934876"/>
     <use style="fill:#ff0000;stroke:#ff0000;" x="102.804261" xlink:href="#mf5d411f189" y="70.99438"/>
     <use style="fill:#ff0000;stroke:#ff0000;" x="138.744757" xlink:href="#mf5d411f189" y="214.756364"/>
     <use style="fill:#ff0000;stroke:#ff0000;" x="138.744757" xlink:href="#mf5d411f189" y="178.815868"/>
     <use style="fill:#ff0000;stroke:#ff0000;" x="138.744757" xlink:href="#mf5d411f189" y="142.875372"/>
     <use style="fill:#ff0000;stroke:#ff0000;" x="138.744757" xlink:href="#mf5d411f189" y="106.934876"/>
     <use style="fill:#ff0000;stroke:#ff0000;" x="138.744757" xlink:href="#mf5d411f189" y="70.99438"/>
     <use style="fill:#ff0000;stroke:#ff0000;" x="174.685253" xlink:href="#mf5d411f189" y="214.756364"/>
     <use style="fill:#ff0000;stroke:#ff0000;" x="174.685253" xlink:href="#mf5d411f189" y="178.815868"/>
     <use style="fill:#ff0000;stroke:#ff0000;" x="174.685253" xlink:href="#mf5d411f189" y="142.875372"/>
     <use style="fill:#ff0000;stroke:#ff0000;" x="174.685253" xlink:href="#mf5d411f189" y="106.934876"/>
     <use style="fill:#ff0000;stroke:#ff0000;" x="174.685253" xlink:href="#mf5d411f189" y="70.99438"/>
     <use style="fill:#ff0000;stroke:#ff0000;" x="210.625749" xlink:href="#mf5d411f189" y="214.756364"/>
     <use style="fill:#ff0000;stroke:#ff0000;" x="210.625749" xlink:href="#mf5d411f189" y="178.815868"/>
     <use style="fill:#ff0000;stroke:#ff0000;" x="210.625749" xlink:href="#mf5d411f189" y="142.875372"/>
     <use style="fill:#ff0000;stroke:#ff0000;" x="210.625749" xlink:href="#mf5d411f189" y="106.934876"/>
     <use style="fill:#ff0000;stroke:#ff0000;" x="210.625749" xlink:href="#mf5d411f189" y="70.99438"/>
     <use style="fill:#ff0000;stroke:#ff0000;" x="246.566245" xlink:href="#mf5d411f189" y="214.756364"/>
     <use style="fill:#ff0000;stroke:#ff0000;" x="246.566245" xlink:href="#mf5d411f189" y="178.815868"/>
     <use style="fill:#ff0000;stroke:#ff0000;" x="246.566245" xlink:href="#mf5d411f189" y="142.875372"/>
     <use style="fill:#ff0000;stroke:#ff0000;" x="246.566245" xlink:href="#mf5d411f189" y="106.934876"/>
     <use style="fill:#ff0000;stroke:#ff0000;" x="246.566245" xlink:href="#mf5d411f189" y="70.99438"/>
     <use style="fill:#ff0000;stroke:#ff0000;" x="300.476989" xlink:href="#mf5d411f189" y="17.083636"/>
    </g>
   </g>
   <g id="matplotlib.axis_1">
    <g id="xtick_1">
     <g id="line2d_1">
      <defs>
       <path d="M 0 0 
L 0 3.5 
" id="m58c003b16c" style="stroke:#000000;stroke-width:0.8;"/>
      </defs>
      <g>
       <use style="stroke:#000000;stroke-width:0.8;" x="84.834013" xlink:href="#m58c003b16c" y="224.64"/>
      </g>
     </g>
     <g id="text_1">
      <!-- 0 -->
      <g transform="translate(81.652763 239.238437)scale(0.1 -0.1)">
       <defs>
        <path d="M 2034 4250 
Q 1547 4250 1301 3770 
Q 1056 3291 1056 2328 
Q 1056 1369 1301 889 
Q 1547 409 2034 409 
Q 2525 409 2770 889 
Q 3016 1369 3016 2328 
Q 3016 3291 2770 3770 
Q 2525 4250 2034 4250 
z
M 2034 4750 
Q 2819 4750 3233 4129 
Q 3647 3509 3647 2328 
Q 3647 1150 3233 529 
Q 2819 -91 2034 -91 
Q 1250 -91 836 529 
Q 422 1150 422 2328 
Q 422 3509 836 4129 
Q 1250 4750 2034 4750 
z
" id="DejaVuSans-30" transform="scale(0.015625)"/>
       </defs>
       <use xlink:href="#DejaVuSans-30"/>
      </g>
     </g>
    </g>
    <g id="xtick_2">
     <g id="line2d_2">
      <g>
       <use style="stroke:#000000;stroke-width:0.8;" x="156.715005" xlink:href="#m58c003b16c" y="224.64"/>
      </g>
     </g>
     <g id="text_2">
      <!-- 2 -->
      <g transform="translate(153.533755 239.238437)scale(0.1 -0.1)">
       <defs>
        <path d="M 1228 531 
L 3431 531 
L 3431 0 
L 469 0 
L 469 531 
Q 828 903 1448 1529 
Q 2069 2156 2228 2338 
Q 2531 2678 2651 2914 
Q 2772 3150 2772 3378 
Q 2772 3750 2511 3984 
Q 2250 4219 1831 4219 
Q 1534 4219 1204 4116 
Q 875 4013 500 3803 
L 500 4441 
Q 881 4594 1212 4672 
Q 1544 4750 1819 4750 
Q 2544 4750 2975 4387 
Q 3406 4025 3406 3419 
Q 3406 3131 3298 2873 
Q 3191 2616 2906 2266 
Q 2828 2175 2409 1742 
Q 1991 1309 1228 531 
z
" id="DejaVuSans-32" transform="scale(0.015625)"/>
       </defs>
       <use xlink:href="#DejaVuSans-32"/>
      </g>
     </g>
    </g>
    <g id="xtick_3">
     <g id="line2d_3">
      <g>
       <use style="stroke:#000000;stroke-width:0.8;" x="228.595997" xlink:href="#m58c003b16c" y="224.64"/>
      </g>
     </g>
     <g id="text_3">
      <!-- 4 -->
      <g transform="translate(225.414747 239.238437)scale(0.1 -0.1)">
       <defs>
        <path d="M 2419 4116 
L 825 1625 
L 2419 1625 
L 2419 4116 
z
M 2253 4666 
L 3047 4666 
L 3047 1625 
L 3713 1625 
L 3713 1100 
L 3047 1100 
L 3047 0 
L 2419 0 
L 2419 1100 
L 313 1100 
L 313 1709 
L 2253 4666 
z
" id="DejaVuSans-34" transform="scale(0.015625)"/>
       </defs>
       <use xlink:href="#DejaVuSans-34"/>
      </g>
     </g>
    </g>
    <g id="xtick_4">
     <g id="line2d_4">
      <g>
       <use style="stroke:#000000;stroke-width:0.8;" x="300.476989" xlink:href="#m58c003b16c" y="224.64"/>
      </g>
     </g>
     <g id="text_4">
      <!-- 6 -->
      <g transform="translate(297.295739 239.238437)scale(0.1 -0.1)">
       <defs>
        <path d="M 2113 2584 
Q 1688 2584 1439 2293 
Q 1191 2003 1191 1497 
Q 1191 994 1439 701 
Q 1688 409 2113 409 
Q 2538 409 2786 701 
Q 3034 994 3034 1497 
Q 3034 2003 2786 2293 
Q 2538 2584 2113 2584 
z
M 3366 4563 
L 3366 3988 
Q 3128 4100 2886 4159 
Q 2644 4219 2406 4219 
Q 1781 4219 1451 3797 
Q 1122 3375 1075 2522 
Q 1259 2794 1537 2939 
Q 1816 3084 2150 3084 
Q 2853 3084 3261 2657 
Q 3669 2231 3669 1497 
Q 3669 778 3244 343 
Q 2819 -91 2113 -91 
Q 1303 -91 875 529 
Q 447 1150 447 2328 
Q 447 3434 972 4092 
Q 1497 4750 2381 4750 
Q 2619 4750 2861 4703 
Q 3103 4656 3366 4563 
z
" id="DejaVuSans-36" transform="scale(0.015625)"/>
       </defs>
       <use xlink:href="#DejaVuSans-36"/>
      </g>
     </g>
    </g>
    <g id="text_5">
     <!-- X -->
     <g transform="translate(198.215625 252.916562)scale(0.1 -0.1)">
      <defs>
       <path d="M 403 4666 
L 1081 4666 
L 2241 2931 
L 3406 4666 
L 4084 4666 
L 2584 2425 
L 4184 0 
L 3506 0 
L 2194 1984 
L 872 0 
L 191 0 
L 1856 2491 
L 403 4666 
z
" id="DejaVuSans-58" transform="scale(0.015625)"/>
      </defs>
      <use xlink:href="#DejaVuSans-58"/>
     </g>
    </g>
   </g>
   <g id="matplotlib.axis_2">
    <g id="ytick_1">
     <g id="line2d_5">
      <defs>
       <path d="M 0 0 
L -3.5 0 
" id="mef21cf5698" style="stroke:#000000;stroke-width:0.8;"/>
      </defs>
      <g>
       <use style="stroke:#000000;stroke-width:0.8;" x="34.240625" xlink:href="#mef21cf5698" y="196.786116"/>
      </g>
     </g>
     <g id="text_6">
      <!-- 1 -->
      <g transform="translate(20.878125 200.585334)scale(0.1 -0.1)">
       <defs>
        <path d="M 794 531 
L 1825 531 
L 1825 4091 
L 703 3866 
L 703 4441 
L 1819 4666 
L 2450 4666 
L 2450 531 
L 3481 531 
L 3481 0 
L 794 0 
L 794 531 
z
" id="DejaVuSans-31" transform="scale(0.015625)"/>
       </defs>
       <use xlink:href="#DejaVuSans-31"/>
      </g>
     </g>
    </g>
    <g id="ytick_2">
     <g id="line2d_6">
      <g>
       <use style="stroke:#000000;stroke-width:0.8;" x="34.240625" xlink:href="#mef21cf5698" y="160.84562"/>
      </g>
     </g>
     <g id="text_7">
      <!-- 2 -->
      <g transform="translate(20.878125 164.644839)scale(0.1 -0.1)">
       <use xlink:href="#DejaVuSans-32"/>
      </g>
     </g>
    </g>
    <g id="ytick_3">
     <g id="line2d_7">
      <g>
       <use style="stroke:#000000;stroke-width:0.8;" x="34.240625" xlink:href="#mef21cf5698" y="124.905124"/>
      </g>
     </g>
     <g id="text_8">
      <!-- 3 -->
      <g transform="translate(20.878125 128.704343)scale(0.1 -0.1)">
       <defs>
        <path d="M 2597 2516 
Q 3050 2419 3304 2112 
Q 3559 1806 3559 1356 
Q 3559 666 3084 287 
Q 2609 -91 1734 -91 
Q 1441 -91 1130 -33 
Q 819 25 488 141 
L 488 750 
Q 750 597 1062 519 
Q 1375 441 1716 441 
Q 2309 441 2620 675 
Q 2931 909 2931 1356 
Q 2931 1769 2642 2001 
Q 2353 2234 1838 2234 
L 1294 2234 
L 1294 2753 
L 1863 2753 
Q 2328 2753 2575 2939 
Q 2822 3125 2822 3475 
Q 2822 3834 2567 4026 
Q 2313 4219 1838 4219 
Q 1578 4219 1281 4162 
Q 984 4106 628 3988 
L 628 4550 
Q 988 4650 1302 4700 
Q 1616 4750 1894 4750 
Q 2613 4750 3031 4423 
Q 3450 4097 3450 3541 
Q 3450 3153 3228 2886 
Q 3006 2619 2597 2516 
z
" id="DejaVuSans-33" transform="scale(0.015625)"/>
       </defs>
       <use xlink:href="#DejaVuSans-33"/>
      </g>
     </g>
    </g>
    <g id="ytick_4">
     <g id="line2d_8">
      <g>
       <use style="stroke:#000000;stroke-width:0.8;" x="34.240625" xlink:href="#mef21cf5698" y="88.964628"/>
      </g>
     </g>
     <g id="text_9">
      <!-- 4 -->
      <g transform="translate(20.878125 92.763847)scale(0.1 -0.1)">
       <use xlink:href="#DejaVuSans-34"/>
      </g>
     </g>
    </g>
    <g id="ytick_5">
     <g id="line2d_9">
      <g>
       <use style="stroke:#000000;stroke-width:0.8;" x="34.240625" xlink:href="#mef21cf5698" y="53.024132"/>
      </g>
     </g>
     <g id="text_10">
      <!-- 5 -->
      <g transform="translate(20.878125 56.823351)scale(0.1 -0.1)">
       <defs>
        <path d="M 691 4666 
L 3169 4666 
L 3169 4134 
L 1269 4134 
L 1269 2991 
Q 1406 3038 1543 3061 
Q 1681 3084 1819 3084 
Q 2600 3084 3056 2656 
Q 3513 2228 3513 1497 
Q 3513 744 3044 326 
Q 2575 -91 1722 -91 
Q 1428 -91 1123 -41 
Q 819 9 494 109 
L 494 744 
Q 775 591 1075 516 
Q 1375 441 1709 441 
Q 2250 441 2565 725 
Q 2881 1009 2881 1497 
Q 2881 1984 2565 2268 
Q 2250 2553 1709 2553 
Q 1456 2553 1204 2497 
Q 953 2441 691 2322 
L 691 4666 
z
" id="DejaVuSans-35" transform="scale(0.015625)"/>
       </defs>
       <use xlink:href="#DejaVuSans-35"/>
      </g>
     </g>
    </g>
    <g id="ytick_6">
     <g id="line2d_10">
      <g>
       <use style="stroke:#000000;stroke-width:0.8;" x="34.240625" xlink:href="#mef21cf5698" y="17.083636"/>
      </g>
     </g>
     <g id="text_11">
      <!-- 6 -->
      <g transform="translate(20.878125 20.882855)scale(0.1 -0.1)">
       <use xlink:href="#DejaVuSans-36"/>
      </g>
     </g>
    </g>
    <g id="text_12">
     <!-- Y -->
     <g transform="translate(14.798437 118.973906)rotate(-90)scale(0.1 -0.1)">
      <defs>
       <path d="M -13 4666 
L 666 4666 
L 1959 2747 
L 3244 4666 
L 3922 4666 
L 2272 2222 
L 2272 0 
L 1638 0 
L 1638 2222 
L -13 4666 
z
" id="DejaVuSans-59" transform="scale(0.015625)"/>
      </defs>
      <use xlink:href="#DejaVuSans-59"/>
     </g>
    </g>
   </g>
   <g id="LineCollection_1">
    <path clip-path="url(#p291cb07f6f)" d="M 102.804261 214.756364 
L 102.804261 178.815868 
" style="fill:none;stroke:#0000ff;"/>
    <path clip-path="url(#p291cb07f6f)" d="M 102.804261 178.815868 
L 102.804261 142.875372 
" style="fill:none;stroke:#0000ff;"/>
    <path clip-path="url(#p291cb07f6f)" d="M 102.804261 142.875372 
L 102.804261 106.934876 
" style="fill:none;stroke:#0000ff;"/>
    <path clip-path="url(#p291cb07f6f)" d="M 102.804261 106.934876 
L 102.804261 70.99438 
" style="fill:none;stroke:#0000ff;"/>
    <path clip-path="url(#p291cb07f6f)" d="M 138.744757 214.756364 
L 138.744757 178.815868 
" style="fill:none;stroke:#0000ff;"/>
    <path clip-path="url(#p291cb07f6f)" d="M 138.744757 178.815868 
L 138.744757 142.875372 
" style="fill:none;stroke:#0000ff;"/>
    <path clip-path="url(#p291cb07f6f)" d="M 138.744757 142.875372 
L 138.744757 106.934876 
" style="fill:none;stroke:#0000ff;"/>
    <path clip-path="url(#p291cb07f6f)" d="M 138.744757 106.934876 
L 138.744757 70.99438 
" style="fill:none;stroke:#0000ff;"/>
    <path clip-path="url(#p291cb07f6f)" d="M 174.685253 214.756364 
L 174.685253 178.815868 
" style="fill:none;stroke:#0000ff;"/>
    <path clip-path="url(#p291cb07f6f)" d="M 174.685253 178.815868 
L 174.685253 142.875372 
" style="fill:none;stroke:#0000ff;"/>
    <path clip-path="url(#p291cb07f6f)" d="M 174.685253 142.875372 
L 174.685253 106.934876 
" style="fill:none;stroke:#0000ff;"/>
    <path clip-path="url(#p291cb07f6f)" d="M 174.685253 106.934876 
L 174.685253 70.99438 
" style="fill:none;stroke:#0000ff;"/>
    <path clip-path="url(#p291cb07f6f)" d="M 210.625749 214.756364 
L 210.625749 178.815868 
" style="fill:none;stroke:#0000ff;"/>
    <path clip-path="url(#p291cb07f6f)" d="M 210.625749 178.815868 
L 210.625749 142.875372 
" style="fill:none;stroke:#0000ff;"/>
    <path clip-path="url(#p291cb07f6f)" d="M 210.625749 142.875372 
L 210.625749 106.934876 
" style="fill:none;stroke:#0000ff;"/>
    <path clip-path="url(#p291cb07f6f)" d="M 210.625749 106.934876 
L 210.625749 70.99438 
" style="fill:none;stroke:#0000ff;"/>
    <path clip-path="url(#p291cb07f6f)" d="M 246.566245 214.756364 
L 246.566245 178.815868 
" style="fill:none;stroke:#0000ff;"/>
    <path clip-path="url(#p291cb07f6f)" d="M 246.566245 178.815868 
L 246.566245 142.875372 
" style="fill:none;stroke:#0000ff;"/>
    <path clip-path="url(#p291cb07f6f)" d="M 246.566245 142.875372 
L 246.566245 106.934876 
" style="fill:none;stroke:#0000ff;"/>
    <path clip-path="url(#p291cb07f6f)" d="M 246.566245 106.934876 
L 246.566245 70.99438 
" style="fill:none;stroke:#0000ff;"/>
    <path clip-path="url(#p291cb07f6f)" d="M 102.804261 214.756364 
L 138.744757 214.756364 
" style="fill:none;stroke:#0000ff;"/>
    <path clip-path="url(#p291cb07f6f)" d="M 102.804261 178.815868 
L 138.744757 178.815868 
" style="fill:none;stroke:#0000ff;"/>
    <path clip-path="url(#p291cb07f6f)" d="M 102.804261 142.875372 
L 138.744757 142.875372 
" style="fill:none;stroke:#0000ff;"/>
    <path clip-path="url(#p291cb07f6f)" d="M 102.804261 106.934876 
L 138.744757 106.934876 
" style="fill:none;stroke:#0000ff;"/>
    <path clip-path="url(#p291cb07f6f)" d="M 102.804261 70.99438 
L 138.744757 70.99438 
" style="fill:none;stroke:#0000ff;"/>
    <path clip-path="url(#p291cb07f6f)" d="M 138.744757 214.756364 
L 174.685253 214.756364 
" style="fill:none;stroke:#0000ff;"/>
    <path clip-path="url(#p291cb07f6f)" d="M 138.744757 178.815868 
L 174.685253 178.815868 
" style="fill:none;stroke:#0000ff;"/>
    <path clip-path="url(#p291cb07f6f)" d="M 138.744757 142.875372 
L 174.685253 142.875372 
" style="fill:none;stroke:#0000ff;"/>
    <path clip-path="url(#p291cb07f6f)" d="M 138.744757 106.934876 
L 174.685253 106.934876 
" style="fill:none;stroke:#0000ff;"/>
    <path clip-path="url(#p291cb07f6f)" d="M 138.744757 70.99438 
L 174.685253 70.99438 
" style="fill:none;stroke:#0000ff;"/>
    <path clip-path="url(#p291cb07f6f)" d="M 174.685253 214.756364 
L 210.625749 214.756364 
" style="fill:none;stroke:#0000ff;"/>
    <path clip-path="url(#p291cb07f6f)" d="M 174.685253 178.815868 
L 210.625749 178.815868 
" style="fill:none;stroke:#0000ff;"/>
    <path clip-path="url(#p291cb07f6f)" d="M 174.685253 142.875372 
L 210.625749 142.875372 
" style="fill:none;stroke:#0000ff;"/>
    <path clip-path="url(#p291cb07f6f)" d="M 174.685253 106.934876 
L 210.625749 106.934876 
" style="fill:none;stroke:#0000ff;"/>
    <path clip-path="url(#p291cb07f6f)" d="M 174.685253 70.99438 
L 210.625749 70.99438 
" style="fill:none;stroke:#0000ff;"/>
    <path clip-path="url(#p291cb07f6f)" d="M 210.625749 214.756364 
L 246.566245 214.756364 
" style="fill:none;stroke:#0000ff;"/>
    <path clip-path="url(#p291cb07f6f)" d="M 210.625749 178.815868 
L 246.566245 178.815868 
" style="fill:none;stroke:#0000ff;"/>
    <path clip-path="url(#p291cb07f6f)" d="M 210.625749 142.875372 
L 246.566245 142.875372 
" style="fill:none;stroke:#0000ff;"/>
    <path clip-path="url(#p291cb07f6f)" d="M 210.625749 106.934876 
L 246.566245 106.934876 
" style="fill:none;stroke:#0000ff;"/>
    <path clip-path="url(#p291cb07f6f)" d="M 210.625749 70.99438 
L 246.566245 70.99438 
" style="fill:none;stroke:#0000ff;"/>
    <path clip-path="url(#p291cb07f6f)" d="M 102.804261 70.99438 
L 300.476989 17.083636 
" style="fill:none;stroke:#0000ff;"/>
    <path clip-path="url(#p291cb07f6f)" d="M 210.625749 70.99438 
L 300.476989 17.083636 
" style="fill:none;stroke:#0000ff;"/>
    <path clip-path="url(#p291cb07f6f)" d="M 246.566245 106.934876 
L 300.476989 17.083636 
" style="fill:none;stroke:#0000ff;"/>
    <path clip-path="url(#p291cb07f6f)" d="M 246.566245 70.99438 
L 300.476989 17.083636 
" style="fill:none;stroke:#0000ff;"/>
   </g>
   <g id="patch_3">
    <path d="M 34.240625 224.64 
L 34.240625 7.2 
" style="fill:none;stroke:#000000;stroke-linecap:square;stroke-linejoin:miter;stroke-width:0.8;"/>
   </g>
   <g id="patch_4">
    <path d="M 369.040625 224.64 
L 369.040625 7.2 
" style="fill:none;stroke:#000000;stroke-linecap:square;stroke-linejoin:miter;stroke-width:0.8;"/>
   </g>
   <g id="patch_5">
    <path d="M 34.240625 224.64 
L 369.040625 224.64 
" style="fill:none;stroke:#000000;stroke-linecap:square;stroke-linejoin:miter;stroke-width:0.8;"/>
   </g>
   <g id="patch_6">
    <path d="M 34.240625 7.2 
L 369.040625 7.2 
" style="fill:none;stroke:#000000;stroke-linecap:square;stroke-linejoin:miter;stroke-width:0.8;"/>
   </g>
  </g>
 </g>
 <defs>
  <clipPath id="p291cb07f6f">
   <rect height="217.44" width="334.8" x="34.240625" y="7.2"/>
  </clipPath>
 </defs>
</svg>