<?xml version="1.0" encoding="utf-8" standalone="no"?>
<!DOCTYPE svg PUBLIC "-//W3C//DTD SVG 1.1//EN"
  "http://www.w3.org/Graphics/SVG/1.1/DTD/svg11.dtd">
<svg height="326.154687pt" version="1.1" viewBox="0 0 321.504687 326.154687" width="321.504687pt" xmlns="http://www.w3.org/2000/svg" xmlns:xlink="http://www.w3.org/1999/xlink">
 <metadata>
  <rdf:RDF xmlns:cc="http://creativecommons.org/ns#" xmlns:dc="http://purl.org/dc/elements/1.1/" xmlns:rdf="http://www.w3.org/1999/02/22-rdf-syntax-ns#">
   <cc:Work>
    <dc:type rdf:resource="http://purl.org/dc/dcmitype/StillImage"/>
    <dc:date>2021-06-24T07:26:05.217995</dc:date>
    <dc:format>image/svg+xml</dc:format>
    <dc:creator>
     <cc:Agent>
      <dc:title>Matplotlib v3.4.2, https://matplotlib.org/</dc:title>
     </cc:Agent>
    </dc:creator>
   </cc:Work>
  </rdf:RDF>
 </metadata>
 <defs>
  <style type="text/css">*{stroke-linecap:butt;stroke-linejoin:round;}</style>
 </defs>
 <g id="figure_1">
  <g id="patch_1">
   <path d="M 0 326.154687 
L 321.504687 326.154687 
L 321.504687 0 
L 0 0 
z
" style="fill:none;"/>
  </g>
  <g id="axes_1">
   <g id="patch_2">
    <path d="M 35.304688 289.598437 
L 314.304688 289.598437 
L 314.304688 17.798437 
L 35.304688 17.798437 
z
" style="fill:#ffffff;"/>
   </g>
   <g id="PathCollection_1">
    <defs>
     <path d="M 0 3 
C 0.795609 3 1.55874 2.683901 2.12132 2.12132 
C 2.683901 1.55874 3 0.795609 3 0 
C 3 -0.795609 2.683901 -1.55874 2.12132 -2.12132 
C 1.55874 -2.683901 0.795609 -3 0 -3 
C -0.795609 -3 -1.55874 -2.683901 -2.12132 -2.12132 
C -2.683901 -1.55874 -3 -0.795609 -3 0 
C -3 0.795609 -2.683901 1.55874 -2.12132 2.12132 
C -1.55874 2.683901 -0.795609 3 0 3 
z
" id="mf00a06b45c" style="stroke:#1f77b4;"/>
    </defs>
    <g clip-path="url(#p7a5f50cbec)">
     <use style="fill:#1f77b4;stroke:#1f77b4;" x="205.101972" xlink:href="#mf00a06b45c" y="55.002254"/>
    </g>
   </g>
   <g id="matplotlib.axis_1">
    <g id="xtick_1">
     <g id="line2d_1">
      <defs>
       <path d="M 0 0 
L 0 3.5 
" id="m42c300f5a9" style="stroke:#000000;stroke-width:0.8;"/>
      </defs>
      <g>
       <use style="stroke:#000000;stroke-width:0.8;" x="45.297196" xlink:href="#m42c300f5a9" y="289.598437"/>
      </g>
     </g>
     <g id="text_1">
      <!-- −15 -->
      <g transform="translate(34.744852 304.196875)scale(0.1 -0.1)">
       <defs>
        <path d="M 678 2272 
L 4684 2272 
L 4684 1741 
L 678 1741 
L 678 2272 
z
" id="DejaVuSans-2212" transform="scale(0.015625)"/>
        <path d="M 794 531 
L 1825 531 
L 1825 4091 
L 703 3866 
L 703 4441 
L 1819 4666 
L 2450 4666 
L 2450 531 
L 3481 531 
L 3481 0 
L 794 0 
L 794 531 
z
" id="DejaVuSans-31" transform="scale(0.015625)"/>
        <path d="M 691 4666 
L 3169 4666 
L 3169 4134 
L 1269 4134 
L 1269 2991 
Q 1406 3038 1543 3061 
Q 1681 3084 1819 3084 
Q 2600 3084 3056 2656 
Q 3513 2228 3513 1497 
Q 3513 744 3044 326 
Q 2575 -91 1722 -91 
Q 1428 -91 1123 -41 
Q 819 9 494 109 
L 494 744 
Q 775 591 1075 516 
Q 1375 441 1709 441 
Q 2250 441 2565 725 
Q 2881 1009 2881 1497 
Q 2881 1984 2565 2268 
Q 2250 2553 1709 2553 
Q 1456 2553 1204 2497 
Q 953 2441 691 2322 
L 691 4666 
z
" id="DejaVuSans-35" transform="scale(0.015625)"/>
       </defs>
       <use xlink:href="#DejaVuSans-2212"/>
       <use x="83.789062" xlink:href="#DejaVuSans-31"/>
       <use x="147.412109" xlink:href="#DejaVuSans-35"/>
      </g>
     </g>
    </g>
    <g id="xtick_2">
     <g id="line2d_2">
      <g>
       <use style="stroke:#000000;stroke-width:0.8;" x="88.511035" xlink:href="#m42c300f5a9" y="289.598437"/>
      </g>
     </g>
     <g id="text_2">
      <!-- −10 -->
      <g transform="translate(77.958691 304.196875)scale(0.1 -0.1)">
       <defs>
        <path d="M 2034 4250 
Q 1547 4250 1301 3770 
Q 1056 3291 1056 2328 
Q 1056 1369 1301 889 
Q 1547 409 2034 409 
Q 2525 409 2770 889 
Q 3016 1369 3016 2328 
Q 3016 3291 2770 3770 
Q 2525 4250 2034 4250 
z
M 2034 4750 
Q 2819 4750 3233 4129 
Q 3647 3509 3647 2328 
Q 3647 1150 3233 529 
Q 2819 -91 2034 -91 
Q 1250 -91 836 529 
Q 422 1150 422 2328 
Q 422 3509 836 4129 
Q 1250 4750 2034 4750 
z
" id="DejaVuSans-30" transform="scale(0.015625)"/>
       </defs>
       <use xlink:href="#DejaVuSans-2212"/>
       <use x="83.789062" xlink:href="#DejaVuSans-31"/>
       <use x="147.412109" xlink:href="#DejaVuSans-30"/>
      </g>
     </g>
    </g>
    <g id="xtick_3">
     <g id="line2d_3">
      <g>
       <use style="stroke:#000000;stroke-width:0.8;" x="131.724873" xlink:href="#m42c300f5a9" y="289.598437"/>
      </g>
     </g>
     <g id="text_3">
      <!-- −5 -->
      <g transform="translate(124.35378 304.196875)scale(0.1 -0.1)">
       <use xlink:href="#DejaVuSans-2212"/>
       <use x="83.789062" xlink:href="#DejaVuSans-35"/>
      </g>
     </g>
    </g>
    <g id="xtick_4">
     <g id="line2d_4">
      <g>
       <use style="stroke:#000000;stroke-width:0.8;" x="174.938712" xlink:href="#m42c300f5a9" y="289.598437"/>
      </g>
     </g>
     <g id="text_4">
      <!-- 0 -->
      <g transform="translate(171.757462 304.196875)scale(0.1 -0.1)">
       <use xlink:href="#DejaVuSans-30"/>
      </g>
     </g>
    </g>
    <g id="xtick_5">
     <g id="line2d_5">
      <g>
       <use style="stroke:#000000;stroke-width:0.8;" x="218.152551" xlink:href="#m42c300f5a9" y="289.598437"/>
      </g>
     </g>
     <g id="text_5">
      <!-- 5 -->
      <g transform="translate(214.971301 304.196875)scale(0.1 -0.1)">
       <use xlink:href="#DejaVuSans-35"/>
      </g>
     </g>
    </g>
    <g id="xtick_6">
     <g id="line2d_6">
      <g>
       <use style="stroke:#000000;stroke-width:0.8;" x="261.36639" xlink:href="#m42c300f5a9" y="289.598437"/>
      </g>
     </g>
     <g id="text_6">
      <!-- 10 -->
      <g transform="translate(255.00389 304.196875)scale(0.1 -0.1)">
       <use xlink:href="#DejaVuSans-31"/>
       <use x="63.623047" xlink:href="#DejaVuSans-30"/>
      </g>
     </g>
    </g>
    <g id="xtick_7">
     <g id="line2d_7">
      <g>
       <use style="stroke:#000000;stroke-width:0.8;" x="304.580229" xlink:href="#m42c300f5a9" y="289.598437"/>
      </g>
     </g>
     <g id="text_7">
      <!-- 15 -->
      <g transform="translate(298.217729 304.196875)scale(0.1 -0.1)">
       <use xlink:href="#DejaVuSans-31"/>
       <use x="63.623047" xlink:href="#DejaVuSans-35"/>
      </g>
     </g>
    </g>
    <g id="text_8">
     <!-- 1e−6 -->
     <g transform="translate(287.046875 316.875)scale(0.1 -0.1)">
      <defs>
       <path d="M 3597 1894 
L 3597 1613 
L 953 1613 
Q 991 1019 1311 708 
Q 1631 397 2203 397 
Q 2534 397 2845 478 
Q 3156 559 3463 722 
L 3463 178 
Q 3153 47 2828 -22 
Q 2503 -91 2169 -91 
Q 1331 -91 842 396 
Q 353 884 353 1716 
Q 353 2575 817 3079 
Q 1281 3584 2069 3584 
Q 2775 3584 3186 3129 
Q 3597 2675 3597 1894 
z
M 3022 2063 
Q 3016 2534 2758 2815 
Q 2500 3097 2075 3097 
Q 1594 3097 1305 2825 
Q 1016 2553 972 2059 
L 3022 2063 
z
" id="DejaVuSans-65" transform="scale(0.015625)"/>
       <path d="M 2113 2584 
Q 1688 2584 1439 2293 
Q 1191 2003 1191 1497 
Q 1191 994 1439 701 
Q 1688 409 2113 409 
Q 2538 409 2786 701 
Q 3034 994 3034 1497 
Q 3034 2003 2786 2293 
Q 2538 2584 2113 2584 
z
M 3366 4563 
L 3366 3988 
Q 3128 4100 2886 4159 
Q 2644 4219 2406 4219 
Q 1781 4219 1451 3797 
Q 1122 3375 1075 2522 
Q 1259 2794 1537 2939 
Q 1816 3084 2150 3084 
Q 2853 3084 3261 2657 
Q 3669 2231 3669 1497 
Q 3669 778 3244 343 
Q 2819 -91 2113 -91 
Q 1303 -91 875 529 
Q 447 1150 447 2328 
Q 447 3434 972 4092 
Q 1497 4750 2381 4750 
Q 2619 4750 2861 4703 
Q 3103 4656 3366 4563 
z
" id="DejaVuSans-36" transform="scale(0.015625)"/>
      </defs>
      <use xlink:href="#DejaVuSans-31"/>
      <use x="63.623047" xlink:href="#DejaVuSans-65"/>
      <use x="125.146484" xlink:href="#DejaVuSans-2212"/>
      <use x="208.935547" xlink:href="#DejaVuSans-36"/>
     </g>
    </g>
   </g>
   <g id="matplotlib.axis_2">
    <g id="ytick_1">
     <g id="line2d_8">
      <defs>
       <path d="M 0 0 
L -3.5 0 
" id="me8fb0af43e" style="stroke:#000000;stroke-width:0.8;"/>
      </defs>
      <g>
       <use style="stroke:#000000;stroke-width:0.8;" x="35.304688" xlink:href="#me8fb0af43e" y="283.339954"/>
      </g>
     </g>
     <g id="text_9">
      <!-- −15 -->
      <g transform="translate(7.2 287.139173)scale(0.1 -0.1)">
       <use xlink:href="#DejaVuSans-2212"/>
       <use x="83.789062" xlink:href="#DejaVuSans-31"/>
       <use x="147.412109" xlink:href="#DejaVuSans-35"/>
      </g>
     </g>
    </g>
    <g id="ytick_2">
     <g id="line2d_9">
      <g>
       <use style="stroke:#000000;stroke-width:0.8;" x="35.304688" xlink:href="#me8fb0af43e" y="240.126115"/>
      </g>
     </g>
     <g id="text_10">
      <!-- −10 -->
      <g transform="translate(7.2 243.925334)scale(0.1 -0.1)">
       <use xlink:href="#DejaVuSans-2212"/>
       <use x="83.789062" xlink:href="#DejaVuSans-31"/>
       <use x="147.412109" xlink:href="#DejaVuSans-30"/>
      </g>
     </g>
    </g>
    <g id="ytick_3">
     <g id="line2d_10">
      <g>
       <use style="stroke:#000000;stroke-width:0.8;" x="35.304688" xlink:href="#me8fb0af43e" y="196.912276"/>
      </g>
     </g>
     <g id="text_11">
      <!-- −5 -->
      <g transform="translate(13.5625 200.711495)scale(0.1 -0.1)">
       <use xlink:href="#DejaVuSans-2212"/>
       <use x="83.789062" xlink:href="#DejaVuSans-35"/>
      </g>
     </g>
    </g>
    <g id="ytick_4">
     <g id="line2d_11">
      <g>
       <use style="stroke:#000000;stroke-width:0.8;" x="35.304688" xlink:href="#me8fb0af43e" y="153.698437"/>
      </g>
     </g>
     <g id="text_12">
      <!-- 0 -->
      <g transform="translate(21.942187 157.497656)scale(0.1 -0.1)">
       <use xlink:href="#DejaVuSans-30"/>
      </g>
     </g>
    </g>
    <g id="ytick_5">
     <g id="line2d_12">
      <g>
       <use style="stroke:#000000;stroke-width:0.8;" x="35.304688" xlink:href="#me8fb0af43e" y="110.484599"/>
      </g>
     </g>
     <g id="text_13">
      <!-- 5 -->
      <g transform="translate(21.942187 114.283817)scale(0.1 -0.1)">
       <use xlink:href="#DejaVuSans-35"/>
      </g>
     </g>
    </g>
    <g id="ytick_6">
     <g id="line2d_13">
      <g>
       <use style="stroke:#000000;stroke-width:0.8;" x="35.304688" xlink:href="#me8fb0af43e" y="67.27076"/>
      </g>
     </g>
     <g id="text_14">
      <!-- 10 -->
      <g transform="translate(15.579687 71.069978)scale(0.1 -0.1)">
       <use xlink:href="#DejaVuSans-31"/>
       <use x="63.623047" xlink:href="#DejaVuSans-30"/>
      </g>
     </g>
    </g>
    <g id="ytick_7">
     <g id="line2d_14">
      <g>
       <use style="stroke:#000000;stroke-width:0.8;" x="35.304688" xlink:href="#me8fb0af43e" y="24.056921"/>
      </g>
     </g>
     <g id="text_15">
      <!-- 15 -->
      <g transform="translate(15.579687 27.85614)scale(0.1 -0.1)">
       <use xlink:href="#DejaVuSans-31"/>
       <use x="63.623047" xlink:href="#DejaVuSans-35"/>
      </g>
     </g>
    </g>
    <g id="text_16">
     <!-- 1e−6 -->
     <g transform="translate(35.304688 14.798437)scale(0.1 -0.1)">
      <use xlink:href="#DejaVuSans-31"/>
      <use x="63.623047" xlink:href="#DejaVuSans-65"/>
      <use x="125.146484" xlink:href="#DejaVuSans-2212"/>
      <use x="208.935547" xlink:href="#DejaVuSans-36"/>
     </g>
    </g>
   </g>
   <g id="line2d_15">
    <path clip-path="url(#p7a5f50cbec)" d="M 132.157012 30.152983 
L 133.021289 34.562417 
L 133.885565 37.550438 
L 135.181981 40.993218 
L 136.478396 43.760725 
L 138.206949 46.821223 
L 139.935503 49.398807 
L 141.664056 51.629246 
L 143.824748 54.046204 
L 145.98544 56.137194 
L 148.578271 58.299628 
L 151.171101 60.147592 
L 153.763931 61.727394 
L 156.356762 63.071623 
L 159.38173 64.373371 
L 162.406699 65.413716 
L 165.431668 66.212015 
L 168.456636 66.781838 
L 171.481605 67.132253 
L 174.506574 67.268599 
L 177.531543 67.192905 
L 180.556511 66.904047 
L 183.58148 66.397663 
L 186.606449 65.665812 
L 189.631418 64.696314 
L 192.656386 63.471638 
L 195.249217 62.200325 
L 197.842047 60.702154 
L 200.434877 58.947915 
L 203.027708 56.896595 
L 205.1884 54.917775 
L 207.349092 52.640189 
L 209.509783 49.985224 
L 211.238337 47.504162 
L 212.966891 44.582357 
L 214.263306 41.973735 
L 215.559721 38.800378 
L 216.423998 36.156796 
L 217.288274 32.656366 
L 217.288274 32.656366 
" style="fill:none;stroke:#000000;stroke-linecap:square;stroke-width:1.5;"/>
   </g>
   <g id="line2d_16">
    <path clip-path="url(#p7a5f50cbec)" d="M 132.157012 277.243892 
L 133.021289 272.834458 
L 133.885565 269.846437 
L 135.181981 266.403657 
L 136.478396 263.63615 
L 138.206949 260.575652 
L 139.935503 257.998068 
L 141.664056 255.767629 
L 143.824748 253.350671 
L 145.98544 251.259681 
L 148.578271 249.097247 
L 151.171101 247.249283 
L 153.763931 245.669481 
L 156.356762 244.325252 
L 159.38173 243.023504 
L 162.406699 241.983159 
L 165.431668 241.18486 
L 168.456636 240.615037 
L 171.481605 240.264622 
L 174.506574 240.128276 
L 177.531543 240.20397 
L 180.556511 240.492828 
L 183.58148 240.999212 
L 186.606449 241.731063 
L 189.631418 242.700561 
L 192.656386 243.925237 
L 195.249217 245.19655 
L 197.842047 246.694721 
L 200.434877 248.44896 
L 203.027708 250.50028 
L 205.1884 252.4791 
L 207.349092 254.756686 
L 209.509783 257.411651 
L 211.238337 259.892713 
L 212.966891 262.814518 
L 214.263306 265.42314 
L 215.559721 268.596497 
L 216.423998 271.240079 
L 217.288274 274.740509 
L 217.288274 274.740509 
" style="fill:none;stroke:#000000;stroke-linecap:square;stroke-width:1.5;"/>
   </g>
   <g id="line2d_17">
    <path clip-path="url(#p7a5f50cbec)" d="M 205.101972 252.394621 
L 205.593535 250.440897 
L 206.075263 248.484726 
L 206.547146 246.526156 
L 207.00917 244.565237 
L 207.461324 242.602018 
L 207.903597 240.63655 
L 208.335978 238.668882 
L 208.758455 236.699064 
L 209.171017 234.727146 
L 209.573656 232.753177 
L 209.966359 230.777208 
L 210.349118 228.799288 
L 210.721922 226.819469 
L 211.084762 224.837798 
L 211.43763 222.854328 
L 211.780515 220.869108 
L 212.11341 218.882188 
L 212.436306 216.893618 
L 212.749194 214.90345 
L 213.052068 212.911733 
L 213.344918 210.918517 
L 213.627738 208.923853 
L 213.900521 206.927792 
L 214.16326 204.930385 
L 214.415948 202.93168 
L 214.658578 200.93173 
L 214.891145 198.930585 
L 215.113643 196.928295 
L 215.326065 194.924911 
L 215.528408 192.920484 
L 215.720664 190.915065 
L 215.902831 188.908703 
L 216.074902 186.901451 
L 216.236874 184.893359 
L 216.388743 182.884477 
L 216.530505 180.874857 
L 216.662156 178.864549 
L 216.783692 176.853604 
L 216.895111 174.842073 
L 216.996411 172.830008 
L 217.087587 170.817458 
L 217.168639 168.804475 
L 217.239564 166.79111 
L 217.30036 164.777413 
L 217.351025 162.763436 
L 217.39156 160.74923 
L 217.421961 158.734845 
L 217.442229 156.720333 
L 217.452363 154.705745 
L 217.452363 152.69113 
L 217.442229 150.676542 
L 217.421961 148.66203 
L 217.39156 146.647645 
L 217.351025 144.633439 
L 217.30036 142.619462 
L 217.239564 140.605765 
L 217.168639 138.5924 
L 217.087587 136.579417 
L 216.996411 134.566867 
L 216.895111 132.554802 
L 216.783692 130.543271 
L 216.662156 128.532326 
L 216.530505 126.522018 
L 216.388743 124.512398 
L 216.236874 122.503516 
L 216.074902 120.495424 
L 215.902831 118.488172 
L 215.720664 116.48181 
L 215.528408 114.476391 
L 215.326065 112.471964 
L 215.113643 110.46858 
L 214.891145 108.46629 
L 214.658578 106.465145 
L 214.415948 104.465195 
L 214.16326 102.46649 
L 213.900521 100.469083 
L 213.627738 98.473022 
L 213.344918 96.478358 
L 213.052068 94.485142 
L 212.749194 92.493425 
L 212.436306 90.503257 
L 212.11341 88.514687 
L 211.780515 86.527767 
L 211.43763 84.542547 
L 211.084762 82.559077 
L 210.721922 80.577406 
L 210.349118 78.597587 
L 209.966359 76.619667 
L 209.573656 74.643698 
L 209.171017 72.669729 
L 208.758455 70.697811 
L 208.335978 68.727993 
L 207.903597 66.760325 
L 207.461324 64.794857 
L 207.00917 62.831638 
L 206.547146 60.870719 
L 206.075263 58.912149 
L 205.593535 56.955978 
L 205.101972 55.002254 
" style="fill:none;stroke:#0000ff;stroke-linecap:square;stroke-width:1.5;"/>
   </g>
   <g id="patch_3">
    <path d="M 35.304688 289.598437 
L 35.304688 17.798437 
" style="fill:none;stroke:#000000;stroke-linecap:square;stroke-linejoin:miter;stroke-width:0.8;"/>
   </g>
   <g id="patch_4">
    <path d="M 314.304688 289.598437 
L 314.304688 17.798437 
" style="fill:none;stroke:#000000;stroke-linecap:square;stroke-linejoin:miter;stroke-width:0.8;"/>
   </g>
   <g id="patch_5">
    <path d="M 35.304688 289.598437 
L 314.304688 289.598437 
" style="fill:none;stroke:#000000;stroke-linecap:square;stroke-linejoin:miter;stroke-width:0.8;"/>
   </g>
   <g id="patch_6">
    <path d="M 35.304688 17.798437 
L 314.304688 17.798437 
" style="fill:none;stroke:#000000;stroke-linecap:square;stroke-linejoin:miter;stroke-width:0.8;"/>
   </g>
  </g>
 </g>
 <defs>
  <clipPath id="p7a5f50cbec">
   <rect height="271.8" width="279" x="35.304688" y="17.798437"/>
  </clipPath>
 </defs>
</svg>