<?xml version="1.0" encoding="utf-8" standalone="no"?>
<!DOCTYPE svg PUBLIC "-//W3C//DTD SVG 1.1//EN"
  "http://www.w3.org/Graphics/SVG/1.1/DTD/svg11.dtd">
<svg xmlns:xlink="http://www.w3.org/1999/xlink" width="394.375pt" height="261.19625pt" viewBox="0 0 394.375 261.19625" xmlns="http://www.w3.org/2000/svg" version="1.1">
 <metadata>
  <rdf:RDF xmlns:dc="http://purl.org/dc/elements/1.1/" xmlns:cc="http://creativecommons.org/ns#" xmlns:rdf="http://www.w3.org/1999/02/22-rdf-syntax-ns#">
   <cc:Work>
    <dc:type rdf:resource="http://purl.org/dc/dcmitype/StillImage"/>
    <dc:date>2022-03-22T20:11:35.039780</dc:date>
    <dc:format>image/svg+xml</dc:format>
    <dc:creator>
     <cc:Agent>
      <dc:title>Matplotlib v3.5.1, https://matplotlib.org/</dc:title>
     </cc:Agent>
    </dc:creator>
   </cc:Work>
  </rdf:RDF>
 </metadata>
 <defs>
  <style type="text/css">*{stroke-linejoin: round; stroke-linecap: butt}</style>
 </defs>
 <g id="figure_1">
  <g id="patch_1">
   <path d="M 0 261.19625 
L 394.375 261.19625 
L 394.375 0 
L 0 0 
L 0 261.19625 
z
" style="fill: none"/>
  </g>
  <g id="axes_1">
   <g id="patch_2">
    <path d="M 52.375 224.64 
L 387.175 224.64 
L 387.175 7.2 
L 52.375 7.2 
z
" style="fill: #ffffff"/>
   </g>
   <g id="patch_3">
    <path d="M 132.168106 224.64 
L 141.759655 224.64 
L 141.759655 163.265377 
L 132.168106 163.265377 
z
" clip-path="url(#p9d6bd4faaf)" style="fill: #1f77b4; opacity: 0.5; stroke: #000000; stroke-linejoin: miter"/>
   </g>
   <g id="patch_4">
    <path d="M 141.759655 224.64 
L 151.351203 224.64 
L 151.351203 157.420175 
L 141.759655 157.420175 
z
" clip-path="url(#p9d6bd4faaf)" style="fill: #1f77b4; opacity: 0.5; stroke: #000000; stroke-linejoin: miter"/>
   </g>
   <g id="patch_5">
    <path d="M 151.351203 224.64 
L 160.942752 224.64 
L 160.942752 172.03318 
L 151.351203 172.03318 
z
" clip-path="url(#p9d6bd4faaf)" style="fill: #1f77b4; opacity: 0.5; stroke: #000000; stroke-linejoin: miter"/>
   </g>
   <g id="patch_6">
    <path d="M 160.942752 224.64 
L 170.5343 224.64 
L 170.5343 148.652372 
L 160.942752 148.652372 
z
" clip-path="url(#p9d6bd4faaf)" style="fill: #1f77b4; opacity: 0.5; stroke: #000000; stroke-linejoin: miter"/>
   </g>
   <g id="patch_7">
    <path d="M 170.5343 224.64 
L 180.125849 224.64 
L 180.125849 163.265377 
L 170.5343 163.265377 
z
" clip-path="url(#p9d6bd4faaf)" style="fill: #1f77b4; opacity: 0.5; stroke: #000000; stroke-linejoin: miter"/>
   </g>
   <g id="patch_8">
    <path d="M 180.125849 224.64 
L 189.717397 224.64 
L 189.717397 157.420175 
L 180.125849 157.420175 
z
" clip-path="url(#p9d6bd4faaf)" style="fill: #1f77b4; opacity: 0.5; stroke: #000000; stroke-linejoin: miter"/>
   </g>
   <g id="patch_9">
    <path d="M 189.717397 224.64 
L 199.308946 224.64 
L 199.308946 148.652372 
L 189.717397 148.652372 
z
" clip-path="url(#p9d6bd4faaf)" style="fill: #1f77b4; opacity: 0.5; stroke: #000000; stroke-linejoin: miter"/>
   </g>
   <g id="patch_10">
    <path d="M 199.308946 224.64 
L 208.900494 224.64 
L 208.900494 142.807169 
L 199.308946 142.807169 
z
" clip-path="url(#p9d6bd4faaf)" style="fill: #1f77b4; opacity: 0.5; stroke: #000000; stroke-linejoin: miter"/>
   </g>
   <g id="patch_11">
    <path d="M 208.900494 224.64 
L 218.492042 224.64 
L 218.492042 183.723585 
L 208.900494 183.723585 
z
" clip-path="url(#p9d6bd4faaf)" style="fill: #1f77b4; opacity: 0.5; stroke: #000000; stroke-linejoin: miter"/>
   </g>
   <g id="patch_12">
    <path d="M 218.492042 224.64 
L 228.083591 224.64 
L 228.083591 163.265377 
L 218.492042 163.265377 
z
" clip-path="url(#p9d6bd4faaf)" style="fill: #1f77b4; opacity: 0.5; stroke: #000000; stroke-linejoin: miter"/>
   </g>
   <g id="patch_13">
    <path d="M 228.083591 224.64 
L 237.675139 224.64 
L 237.675139 183.723585 
L 228.083591 183.723585 
z
" clip-path="url(#p9d6bd4faaf)" style="fill: #1f77b4; opacity: 0.5; stroke: #000000; stroke-linejoin: miter"/>
   </g>
   <g id="patch_14">
    <path d="M 237.675139 224.64 
L 247.266688 224.64 
L 247.266688 183.723585 
L 237.675139 183.723585 
z
" clip-path="url(#p9d6bd4faaf)" style="fill: #1f77b4; opacity: 0.5; stroke: #000000; stroke-linejoin: miter"/>
   </g>
   <g id="patch_15">
    <path d="M 247.266688 224.64 
L 256.858236 224.64 
L 256.858236 148.652372 
L 247.266688 148.652372 
z
" clip-path="url(#p9d6bd4faaf)" style="fill: #1f77b4; opacity: 0.5; stroke: #000000; stroke-linejoin: miter"/>
   </g>
   <g id="patch_16">
    <path d="M 256.858236 224.64 
L 266.449785 224.64 
L 266.449785 151.574973 
L 256.858236 151.574973 
z
" clip-path="url(#p9d6bd4faaf)" style="fill: #1f77b4; opacity: 0.5; stroke: #000000; stroke-linejoin: miter"/>
   </g>
   <g id="patch_17">
    <path d="M 266.449785 224.64 
L 276.041333 224.64 
L 276.041333 160.342776 
L 266.449785 160.342776 
z
" clip-path="url(#p9d6bd4faaf)" style="fill: #1f77b4; opacity: 0.5; stroke: #000000; stroke-linejoin: miter"/>
   </g>
   <g id="patch_18">
    <path d="M 276.041333 224.64 
L 285.632882 224.64 
L 285.632882 174.955781 
L 276.041333 174.955781 
z
" clip-path="url(#p9d6bd4faaf)" style="fill: #1f77b4; opacity: 0.5; stroke: #000000; stroke-linejoin: miter"/>
   </g>
   <g id="patch_19">
    <path d="M 285.632882 224.64 
L 295.22443 224.64 
L 295.22443 145.729771 
L 285.632882 145.729771 
z
" clip-path="url(#p9d6bd4faaf)" style="fill: #1f77b4; opacity: 0.5; stroke: #000000; stroke-linejoin: miter"/>
   </g>
   <g id="patch_20">
    <path d="M 295.22443 224.64 
L 304.815979 224.64 
L 304.815979 169.110579 
L 295.22443 169.110579 
z
" clip-path="url(#p9d6bd4faaf)" style="fill: #1f77b4; opacity: 0.5; stroke: #000000; stroke-linejoin: miter"/>
   </g>
   <g id="patch_21">
    <path d="M 304.815979 224.64 
L 314.407527 224.64 
L 314.407527 154.497574 
L 304.815979 154.497574 
z
" clip-path="url(#p9d6bd4faaf)" style="fill: #1f77b4; opacity: 0.5; stroke: #000000; stroke-linejoin: miter"/>
   </g>
   <g id="patch_22">
    <path d="M 314.407527 224.64 
L 323.999076 224.64 
L 323.999076 163.265377 
L 314.407527 163.265377 
z
" clip-path="url(#p9d6bd4faaf)" style="fill: #1f77b4; opacity: 0.5; stroke: #000000; stroke-linejoin: miter"/>
   </g>
   <g id="patch_23">
    <path d="M 323.999076 224.64 
L 333.590624 224.64 
L 333.590624 186.646186 
L 323.999076 186.646186 
z
" clip-path="url(#p9d6bd4faaf)" style="fill: #1f77b4; opacity: 0.5; stroke: #000000; stroke-linejoin: miter"/>
   </g>
   <g id="patch_24">
    <path d="M 333.590624 224.64 
L 343.182173 224.64 
L 343.182173 157.420175 
L 333.590624 157.420175 
z
" clip-path="url(#p9d6bd4faaf)" style="fill: #1f77b4; opacity: 0.5; stroke: #000000; stroke-linejoin: miter"/>
   </g>
   <g id="patch_25">
    <path d="M 343.182173 224.64 
L 352.773721 224.64 
L 352.773721 174.955781 
L 343.182173 174.955781 
z
" clip-path="url(#p9d6bd4faaf)" style="fill: #1f77b4; opacity: 0.5; stroke: #000000; stroke-linejoin: miter"/>
   </g>
   <g id="patch_26">
    <path d="M 352.773721 224.64 
L 362.36527 224.64 
L 362.36527 189.568787 
L 352.773721 189.568787 
z
" clip-path="url(#p9d6bd4faaf)" style="fill: #1f77b4; opacity: 0.5; stroke: #000000; stroke-linejoin: miter"/>
   </g>
   <g id="patch_27">
    <path d="M 362.36527 224.64 
L 371.956818 224.64 
L 371.956818 174.955781 
L 362.36527 174.955781 
z
" clip-path="url(#p9d6bd4faaf)" style="fill: #1f77b4; opacity: 0.5; stroke: #000000; stroke-linejoin: miter"/>
   </g>
   <g id="patch_28">
    <path d="M 67.593182 224.64 
L 70.796833 224.64 
L 70.796833 38.943421 
L 67.593182 38.943421 
z
" clip-path="url(#p9d6bd4faaf)" style="fill: #ff7f0e; opacity: 0.5; stroke: #000000; stroke-linejoin: miter"/>
   </g>
   <g id="patch_29">
    <path d="M 70.796833 224.64 
L 74.000484 224.64 
L 74.000484 62.277022 
L 70.796833 62.277022 
z
" clip-path="url(#p9d6bd4faaf)" style="fill: #ff7f0e; opacity: 0.5; stroke: #000000; stroke-linejoin: miter"/>
   </g>
   <g id="patch_30">
    <path d="M 74.000484 224.64 
L 77.204135 224.64 
L 77.204135 26.304386 
L 74.000484 26.304386 
z
" clip-path="url(#p9d6bd4faaf)" style="fill: #ff7f0e; opacity: 0.5; stroke: #000000; stroke-linejoin: miter"/>
   </g>
   <g id="patch_31">
    <path d="M 77.204135 224.64 
L 80.407787 224.64 
L 80.407787 50.610221 
L 77.204135 50.610221 
z
" clip-path="url(#p9d6bd4faaf)" style="fill: #ff7f0e; opacity: 0.5; stroke: #000000; stroke-linejoin: miter"/>
   </g>
   <g id="patch_32">
    <path d="M 80.407787 224.64 
L 83.611438 224.64 
L 83.611438 43.804588 
L 80.407787 43.804588 
z
" clip-path="url(#p9d6bd4faaf)" style="fill: #ff7f0e; opacity: 0.5; stroke: #000000; stroke-linejoin: miter"/>
   </g>
   <g id="patch_33">
    <path d="M 83.611438 224.64 
L 86.815089 224.64 
L 86.815089 67.138189 
L 83.611438 67.138189 
z
" clip-path="url(#p9d6bd4faaf)" style="fill: #ff7f0e; opacity: 0.5; stroke: #000000; stroke-linejoin: miter"/>
   </g>
   <g id="patch_34">
    <path d="M 86.815089 224.64 
L 90.01874 224.64 
L 90.01874 35.054487 
L 86.815089 35.054487 
z
" clip-path="url(#p9d6bd4faaf)" style="fill: #ff7f0e; opacity: 0.5; stroke: #000000; stroke-linejoin: miter"/>
   </g>
   <g id="patch_35">
    <path d="M 90.01874 224.64 
L 93.222391 224.64 
L 93.222391 20.470986 
L 90.01874 20.470986 
z
" clip-path="url(#p9d6bd4faaf)" style="fill: #ff7f0e; opacity: 0.5; stroke: #000000; stroke-linejoin: miter"/>
   </g>
   <g id="patch_36">
    <path d="M 93.222391 224.64 
L 96.426042 224.64 
L 96.426042 35.054487 
L 93.222391 35.054487 
z
" clip-path="url(#p9d6bd4faaf)" style="fill: #ff7f0e; opacity: 0.5; stroke: #000000; stroke-linejoin: miter"/>
   </g>
   <g id="patch_37">
    <path d="M 96.426042 224.64 
L 99.629694 224.64 
L 99.629694 56.443622 
L 96.426042 56.443622 
z
" clip-path="url(#p9d6bd4faaf)" style="fill: #ff7f0e; opacity: 0.5; stroke: #000000; stroke-linejoin: miter"/>
   </g>
   <g id="patch_38">
    <path d="M 99.629694 224.64 
L 102.833345 224.64 
L 102.833345 17.554286 
L 99.629694 17.554286 
z
" clip-path="url(#p9d6bd4faaf)" style="fill: #ff7f0e; opacity: 0.5; stroke: #000000; stroke-linejoin: miter"/>
   </g>
   <g id="patch_39">
    <path d="M 102.833345 224.64 
L 106.036996 224.64 
L 106.036996 57.415855 
L 102.833345 57.415855 
z
" clip-path="url(#p9d6bd4faaf)" style="fill: #ff7f0e; opacity: 0.5; stroke: #000000; stroke-linejoin: miter"/>
   </g>
   <g id="patch_40">
    <path d="M 106.036996 224.64 
L 109.240647 224.64 
L 109.240647 45.749054 
L 106.036996 45.749054 
z
" clip-path="url(#p9d6bd4faaf)" style="fill: #ff7f0e; opacity: 0.5; stroke: #000000; stroke-linejoin: miter"/>
   </g>
   <g id="patch_41">
    <path d="M 109.240647 224.64 
L 112.444298 224.64 
L 112.444298 58.388089 
L 109.240647 58.388089 
z
" clip-path="url(#p9d6bd4faaf)" style="fill: #ff7f0e; opacity: 0.5; stroke: #000000; stroke-linejoin: miter"/>
   </g>
   <g id="patch_42">
    <path d="M 112.444298 224.64 
L 115.647949 224.64 
L 115.647949 44.776821 
L 112.444298 44.776821 
z
" clip-path="url(#p9d6bd4faaf)" style="fill: #ff7f0e; opacity: 0.5; stroke: #000000; stroke-linejoin: miter"/>
   </g>
   <g id="patch_43">
    <path d="M 115.647949 224.64 
L 118.851601 224.64 
L 118.851601 37.971187 
L 115.647949 37.971187 
z
" clip-path="url(#p9d6bd4faaf)" style="fill: #ff7f0e; opacity: 0.5; stroke: #000000; stroke-linejoin: miter"/>
   </g>
   <g id="patch_44">
    <path d="M 118.851601 224.64 
L 122.055252 224.64 
L 122.055252 74.916056 
L 118.851601 74.916056 
z
" clip-path="url(#p9d6bd4faaf)" style="fill: #ff7f0e; opacity: 0.5; stroke: #000000; stroke-linejoin: miter"/>
   </g>
   <g id="patch_45">
    <path d="M 122.055252 224.64 
L 125.258903 224.64 
L 125.258903 42.832354 
L 122.055252 42.832354 
z
" clip-path="url(#p9d6bd4faaf)" style="fill: #ff7f0e; opacity: 0.5; stroke: #000000; stroke-linejoin: miter"/>
   </g>
   <g id="patch_46">
    <path d="M 125.258903 224.64 
L 128.462554 224.64 
L 128.462554 54.499155 
L 125.258903 54.499155 
z
" clip-path="url(#p9d6bd4faaf)" style="fill: #ff7f0e; opacity: 0.5; stroke: #000000; stroke-linejoin: miter"/>
   </g>
   <g id="patch_47">
    <path d="M 128.462554 224.64 
L 131.666205 224.64 
L 131.666205 44.776821 
L 128.462554 44.776821 
z
" clip-path="url(#p9d6bd4faaf)" style="fill: #ff7f0e; opacity: 0.5; stroke: #000000; stroke-linejoin: miter"/>
   </g>
   <g id="patch_48">
    <path d="M 131.666205 224.64 
L 134.869856 224.64 
L 134.869856 49.637988 
L 131.666205 49.637988 
z
" clip-path="url(#p9d6bd4faaf)" style="fill: #ff7f0e; opacity: 0.5; stroke: #000000; stroke-linejoin: miter"/>
   </g>
   <g id="patch_49">
    <path d="M 134.869856 224.64 
L 138.073508 224.64 
L 138.073508 51.582455 
L 134.869856 51.582455 
z
" clip-path="url(#p9d6bd4faaf)" style="fill: #ff7f0e; opacity: 0.5; stroke: #000000; stroke-linejoin: miter"/>
   </g>
   <g id="patch_50">
    <path d="M 138.073508 224.64 
L 141.277159 224.64 
L 141.277159 57.415855 
L 138.073508 57.415855 
z
" clip-path="url(#p9d6bd4faaf)" style="fill: #ff7f0e; opacity: 0.5; stroke: #000000; stroke-linejoin: miter"/>
   </g>
   <g id="patch_51">
    <path d="M 141.277159 224.64 
L 144.48081 224.64 
L 144.48081 29.221087 
L 141.277159 29.221087 
z
" clip-path="url(#p9d6bd4faaf)" style="fill: #ff7f0e; opacity: 0.5; stroke: #000000; stroke-linejoin: miter"/>
   </g>
   <g id="patch_52">
    <path d="M 144.48081 224.64 
L 147.684461 224.64 
L 147.684461 33.11002 
L 144.48081 33.11002 
z
" clip-path="url(#p9d6bd4faaf)" style="fill: #ff7f0e; opacity: 0.5; stroke: #000000; stroke-linejoin: miter"/>
   </g>
   <g id="matplotlib.axis_1">
    <g id="xtick_1">
     <g id="line2d_1">
      <defs>
       <path id="mf926bb8b87" d="M 0 0 
L 0 3.5 
" style="stroke: #000000; stroke-width: 0.8"/>
      </defs>
      <g>
       <use xlink:href="#mf926bb8b87" x="75.597375" y="224.64" style="stroke: #000000; stroke-width: 0.8"/>
      </g>
     </g>
     <g id="text_1">
      <!-- 0.25 -->
      <g transform="translate(64.464563 239.238437)scale(0.1 -0.1)">
       <defs>
        <path id="DejaVuSans-30" d="M 2034 4250 
Q 1547 4250 1301 3770 
Q 1056 3291 1056 2328 
Q 1056 1369 1301 889 
Q 1547 409 2034 409 
Q 2525 409 2770 889 
Q 3016 1369 3016 2328 
Q 3016 3291 2770 3770 
Q 2525 4250 2034 4250 
z
M 2034 4750 
Q 2819 4750 3233 4129 
Q 3647 3509 3647 2328 
Q 3647 1150 3233 529 
Q 2819 -91 2034 -91 
Q 1250 -91 836 529 
Q 422 1150 422 2328 
Q 422 3509 836 4129 
Q 1250 4750 2034 4750 
z
" transform="scale(0.015625)"/>
        <path id="DejaVuSans-2e" d="M 684 794 
L 1344 794 
L 1344 0 
L 684 0 
L 684 794 
z
" transform="scale(0.015625)"/>
        <path id="DejaVuSans-32" d="M 1228 531 
L 3431 531 
L 3431 0 
L 469 0 
L 469 531 
Q 828 903 1448 1529 
Q 2069 2156 2228 2338 
Q 2531 2678 2651 2914 
Q 2772 3150 2772 3378 
Q 2772 3750 2511 3984 
Q 2250 4219 1831 4219 
Q 1534 4219 1204 4116 
Q 875 4013 500 3803 
L 500 4441 
Q 881 4594 1212 4672 
Q 1544 4750 1819 4750 
Q 2544 4750 2975 4387 
Q 3406 4025 3406 3419 
Q 3406 3131 3298 2873 
Q 3191 2616 2906 2266 
Q 2828 2175 2409 1742 
Q 1991 1309 1228 531 
z
" transform="scale(0.015625)"/>
        <path id="DejaVuSans-35" d="M 691 4666 
L 3169 4666 
L 3169 4134 
L 1269 4134 
L 1269 2991 
Q 1406 3038 1543 3061 
Q 1681 3084 1819 3084 
Q 2600 3084 3056 2656 
Q 3513 2228 3513 1497 
Q 3513 744 3044 326 
Q 2575 -91 1722 -91 
Q 1428 -91 1123 -41 
Q 819 9 494 109 
L 494 744 
Q 775 591 1075 516 
Q 1375 441 1709 441 
Q 2250 441 2565 725 
Q 2881 1009 2881 1497 
Q 2881 1984 2565 2268 
Q 2250 2553 1709 2553 
Q 1456 2553 1204 2497 
Q 953 2441 691 2322 
L 691 4666 
z
" transform="scale(0.015625)"/>
       </defs>
       <use xlink:href="#DejaVuSans-30"/>
       <use xlink:href="#DejaVuSans-2e" x="63.623047"/>
       <use xlink:href="#DejaVuSans-32" x="95.410156"/>
       <use xlink:href="#DejaVuSans-35" x="159.033203"/>
      </g>
     </g>
    </g>
    <g id="xtick_2">
     <g id="line2d_2">
      <g>
       <use xlink:href="#mf926bb8b87" x="115.647357" y="224.64" style="stroke: #000000; stroke-width: 0.8"/>
      </g>
     </g>
     <g id="text_2">
      <!-- 0.50 -->
      <g transform="translate(104.514545 239.238437)scale(0.1 -0.1)">
       <use xlink:href="#DejaVuSans-30"/>
       <use xlink:href="#DejaVuSans-2e" x="63.623047"/>
       <use xlink:href="#DejaVuSans-35" x="95.410156"/>
       <use xlink:href="#DejaVuSans-30" x="159.033203"/>
      </g>
     </g>
    </g>
    <g id="xtick_3">
     <g id="line2d_3">
      <g>
       <use xlink:href="#mf926bb8b87" x="155.69734" y="224.64" style="stroke: #000000; stroke-width: 0.8"/>
      </g>
     </g>
     <g id="text_3">
      <!-- 0.75 -->
      <g transform="translate(144.564527 239.238437)scale(0.1 -0.1)">
       <defs>
        <path id="DejaVuSans-37" d="M 525 4666 
L 3525 4666 
L 3525 4397 
L 1831 0 
L 1172 0 
L 2766 4134 
L 525 4134 
L 525 4666 
z
" transform="scale(0.015625)"/>
       </defs>
       <use xlink:href="#DejaVuSans-30"/>
       <use xlink:href="#DejaVuSans-2e" x="63.623047"/>
       <use xlink:href="#DejaVuSans-37" x="95.410156"/>
       <use xlink:href="#DejaVuSans-35" x="159.033203"/>
      </g>
     </g>
    </g>
    <g id="xtick_4">
     <g id="line2d_4">
      <g>
       <use xlink:href="#mf926bb8b87" x="195.747322" y="224.64" style="stroke: #000000; stroke-width: 0.8"/>
      </g>
     </g>
     <g id="text_4">
      <!-- 1.00 -->
      <g transform="translate(184.614509 239.238437)scale(0.1 -0.1)">
       <defs>
        <path id="DejaVuSans-31" d="M 794 531 
L 1825 531 
L 1825 4091 
L 703 3866 
L 703 4441 
L 1819 4666 
L 2450 4666 
L 2450 531 
L 3481 531 
L 3481 0 
L 794 0 
L 794 531 
z
" transform="scale(0.015625)"/>
       </defs>
       <use xlink:href="#DejaVuSans-31"/>
       <use xlink:href="#DejaVuSans-2e" x="63.623047"/>
       <use xlink:href="#DejaVuSans-30" x="95.410156"/>
       <use xlink:href="#DejaVuSans-30" x="159.033203"/>
      </g>
     </g>
    </g>
    <g id="xtick_5">
     <g id="line2d_5">
      <g>
       <use xlink:href="#mf926bb8b87" x="235.797304" y="224.64" style="stroke: #000000; stroke-width: 0.8"/>
      </g>
     </g>
     <g id="text_5">
      <!-- 1.25 -->
      <g transform="translate(224.664492 239.238437)scale(0.1 -0.1)">
       <use xlink:href="#DejaVuSans-31"/>
       <use xlink:href="#DejaVuSans-2e" x="63.623047"/>
       <use xlink:href="#DejaVuSans-32" x="95.410156"/>
       <use xlink:href="#DejaVuSans-35" x="159.033203"/>
      </g>
     </g>
    </g>
    <g id="xtick_6">
     <g id="line2d_6">
      <g>
       <use xlink:href="#mf926bb8b87" x="275.847287" y="224.64" style="stroke: #000000; stroke-width: 0.8"/>
      </g>
     </g>
     <g id="text_6">
      <!-- 1.50 -->
      <g transform="translate(264.714474 239.238437)scale(0.1 -0.1)">
       <use xlink:href="#DejaVuSans-31"/>
       <use xlink:href="#DejaVuSans-2e" x="63.623047"/>
       <use xlink:href="#DejaVuSans-35" x="95.410156"/>
       <use xlink:href="#DejaVuSans-30" x="159.033203"/>
      </g>
     </g>
    </g>
    <g id="xtick_7">
     <g id="line2d_7">
      <g>
       <use xlink:href="#mf926bb8b87" x="315.897269" y="224.64" style="stroke: #000000; stroke-width: 0.8"/>
      </g>
     </g>
     <g id="text_7">
      <!-- 1.75 -->
      <g transform="translate(304.764456 239.238437)scale(0.1 -0.1)">
       <use xlink:href="#DejaVuSans-31"/>
       <use xlink:href="#DejaVuSans-2e" x="63.623047"/>
       <use xlink:href="#DejaVuSans-37" x="95.410156"/>
       <use xlink:href="#DejaVuSans-35" x="159.033203"/>
      </g>
     </g>
    </g>
    <g id="xtick_8">
     <g id="line2d_8">
      <g>
       <use xlink:href="#mf926bb8b87" x="355.947251" y="224.64" style="stroke: #000000; stroke-width: 0.8"/>
      </g>
     </g>
     <g id="text_8">
      <!-- 2.00 -->
      <g transform="translate(344.814439 239.238437)scale(0.1 -0.1)">
       <use xlink:href="#DejaVuSans-32"/>
       <use xlink:href="#DejaVuSans-2e" x="63.623047"/>
       <use xlink:href="#DejaVuSans-30" x="95.410156"/>
       <use xlink:href="#DejaVuSans-30" x="159.033203"/>
      </g>
     </g>
    </g>
    <g id="text_9">
     <!-- 1e−5 -->
     <g transform="translate(359.917188 251.916562)scale(0.1 -0.1)">
      <defs>
       <path id="DejaVuSans-65" d="M 3597 1894 
L 3597 1613 
L 953 1613 
Q 991 1019 1311 708 
Q 1631 397 2203 397 
Q 2534 397 2845 478 
Q 3156 559 3463 722 
L 3463 178 
Q 3153 47 2828 -22 
Q 2503 -91 2169 -91 
Q 1331 -91 842 396 
Q 353 884 353 1716 
Q 353 2575 817 3079 
Q 1281 3584 2069 3584 
Q 2775 3584 3186 3129 
Q 3597 2675 3597 1894 
z
M 3022 2063 
Q 3016 2534 2758 2815 
Q 2500 3097 2075 3097 
Q 1594 3097 1305 2825 
Q 1016 2553 972 2059 
L 3022 2063 
z
" transform="scale(0.015625)"/>
       <path id="DejaVuSans-2212" d="M 678 2272 
L 4684 2272 
L 4684 1741 
L 678 1741 
L 678 2272 
z
" transform="scale(0.015625)"/>
      </defs>
      <use xlink:href="#DejaVuSans-31"/>
      <use xlink:href="#DejaVuSans-65" x="63.623047"/>
      <use xlink:href="#DejaVuSans-2212" x="125.146484"/>
      <use xlink:href="#DejaVuSans-35" x="208.935547"/>
     </g>
    </g>
   </g>
   <g id="matplotlib.axis_2">
    <g id="ytick_1">
     <g id="line2d_9">
      <defs>
       <path id="m896c07465b" d="M 0 0 
L -3.5 0 
" style="stroke: #000000; stroke-width: 0.8"/>
      </defs>
      <g>
       <use xlink:href="#m896c07465b" x="52.375" y="224.64" style="stroke: #000000; stroke-width: 0.8"/>
      </g>
     </g>
     <g id="text_10">
      <!-- 0 -->
      <g transform="translate(39.0125 228.439219)scale(0.1 -0.1)">
       <use xlink:href="#DejaVuSans-30"/>
      </g>
     </g>
    </g>
    <g id="ytick_2">
     <g id="line2d_10">
      <g>
       <use xlink:href="#m896c07465b" x="52.375" y="179.844343" style="stroke: #000000; stroke-width: 0.8"/>
      </g>
     </g>
     <g id="text_11">
      <!-- 50000 -->
      <g transform="translate(13.5625 183.643561)scale(0.1 -0.1)">
       <use xlink:href="#DejaVuSans-35"/>
       <use xlink:href="#DejaVuSans-30" x="63.623047"/>
       <use xlink:href="#DejaVuSans-30" x="127.246094"/>
       <use xlink:href="#DejaVuSans-30" x="190.869141"/>
       <use xlink:href="#DejaVuSans-30" x="254.492188"/>
      </g>
     </g>
    </g>
    <g id="ytick_3">
     <g id="line2d_11">
      <g>
       <use xlink:href="#m896c07465b" x="52.375" y="135.048685" style="stroke: #000000; stroke-width: 0.8"/>
      </g>
     </g>
     <g id="text_12">
      <!-- 100000 -->
      <g transform="translate(7.2 138.847904)scale(0.1 -0.1)">
       <use xlink:href="#DejaVuSans-31"/>
       <use xlink:href="#DejaVuSans-30" x="63.623047"/>
       <use xlink:href="#DejaVuSans-30" x="127.246094"/>
       <use xlink:href="#DejaVuSans-30" x="190.869141"/>
       <use xlink:href="#DejaVuSans-30" x="254.492188"/>
       <use xlink:href="#DejaVuSans-30" x="318.115234"/>
      </g>
     </g>
    </g>
    <g id="ytick_4">
     <g id="line2d_12">
      <g>
       <use xlink:href="#m896c07465b" x="52.375" y="90.253028" style="stroke: #000000; stroke-width: 0.8"/>
      </g>
     </g>
     <g id="text_13">
      <!-- 150000 -->
      <g transform="translate(7.2 94.052247)scale(0.1 -0.1)">
       <use xlink:href="#DejaVuSans-31"/>
       <use xlink:href="#DejaVuSans-35" x="63.623047"/>
       <use xlink:href="#DejaVuSans-30" x="127.246094"/>
       <use xlink:href="#DejaVuSans-30" x="190.869141"/>
       <use xlink:href="#DejaVuSans-30" x="254.492188"/>
       <use xlink:href="#DejaVuSans-30" x="318.115234"/>
      </g>
     </g>
    </g>
    <g id="ytick_5">
     <g id="line2d_13">
      <g>
       <use xlink:href="#m896c07465b" x="52.375" y="45.457371" style="stroke: #000000; stroke-width: 0.8"/>
      </g>
     </g>
     <g id="text_14">
      <!-- 200000 -->
      <g transform="translate(7.2 49.256589)scale(0.1 -0.1)">
       <use xlink:href="#DejaVuSans-32"/>
       <use xlink:href="#DejaVuSans-30" x="63.623047"/>
       <use xlink:href="#DejaVuSans-30" x="127.246094"/>
       <use xlink:href="#DejaVuSans-30" x="190.869141"/>
       <use xlink:href="#DejaVuSans-30" x="254.492188"/>
       <use xlink:href="#DejaVuSans-30" x="318.115234"/>
      </g>
     </g>
    </g>
   </g>
   <g id="patch_53">
    <path d="M 52.375 224.64 
L 52.375 7.2 
" style="fill: none; stroke: #000000; stroke-width: 0.8; stroke-linejoin: miter; stroke-linecap: square"/>
   </g>
   <g id="patch_54">
    <path d="M 387.175 224.64 
L 387.175 7.2 
" style="fill: none; stroke: #000000; stroke-width: 0.8; stroke-linejoin: miter; stroke-linecap: square"/>
   </g>
   <g id="patch_55">
    <path d="M 52.375 224.64 
L 387.175 224.64 
" style="fill: none; stroke: #000000; stroke-width: 0.8; stroke-linejoin: miter; stroke-linecap: square"/>
   </g>
   <g id="patch_56">
    <path d="M 52.375 7.2 
L 387.175 7.2 
" style="fill: none; stroke: #000000; stroke-width: 0.8; stroke-linejoin: miter; stroke-linecap: square"/>
   </g>
  </g>
 </g>
 <defs>
  <clipPath id="p9d6bd4faaf">
   <rect x="52.375" y="7.2" width="334.8" height="217.44"/>
  </clipPath>
 </defs>
</svg>