<?xml version="1.0" encoding="utf-8" standalone="no"?>
<!DOCTYPE svg PUBLIC "-//W3C//DTD SVG 1.1//EN"
  "http://www.w3.org/Graphics/SVG/1.1/DTD/svg11.dtd">
<svg height="285.0395pt" version="1.1" viewBox="0 0 338.969343 285.0395" width="338.969343pt" xmlns="http://www.w3.org/2000/svg" xmlns:xlink="http://www.w3.org/1999/xlink">
 <metadata>
  <rdf:RDF xmlns:cc="http://creativecommons.org/ns#" xmlns:dc="http://purl.org/dc/elements/1.1/" xmlns:rdf="http://www.w3.org/1999/02/22-rdf-syntax-ns#">
   <cc:Work>
    <dc:type rdf:resource="http://purl.org/dc/dcmitype/StillImage"/>
    <dc:date>2021-09-14T16:13:19.585258</dc:date>
    <dc:format>image/svg+xml</dc:format>
    <dc:creator>
     <cc:Agent>
      <dc:title>Matplotlib v3.4.3, https://matplotlib.org/</dc:title>
     </cc:Agent>
    </dc:creator>
   </cc:Work>
  </rdf:RDF>
 </metadata>
 <defs>
  <style type="text/css">*{stroke-linecap:butt;stroke-linejoin:round;}</style>
 </defs>
 <g id="figure_1">
  <g id="patch_1">
   <path d="M 0 285.0395 
L 338.969343 285.0395 
L 338.969343 0 
L 0 0 
z
" style="fill:none;"/>
  </g>
  <g id="axes_1">
   <g id="patch_2">
    <path d="M 43.78125 247.48325 
L 322.78125 247.48325 
L 322.78125 43.63325 
L 43.78125 43.63325 
z
" style="fill:#ffffff;"/>
   </g>
   <g id="matplotlib.axis_1">
    <g id="xtick_1">
     <g id="line2d_1">
      <defs>
       <path d="M 0 0 
L 0 3.5 
" id="m2ee6372655" style="stroke:#000000;stroke-width:0.8;"/>
      </defs>
      <g>
       <use style="stroke:#000000;stroke-width:0.8;" x="86.521738" xlink:href="#m2ee6372655" y="247.48325"/>
      </g>
     </g>
     <g id="text_1">
      <!-- 15000 -->
      <g transform="translate(70.615488 262.081687)scale(0.1 -0.1)">
       <defs>
        <path d="M 794 531 
L 1825 531 
L 1825 4091 
L 703 3866 
L 703 4441 
L 1819 4666 
L 2450 4666 
L 2450 531 
L 3481 531 
L 3481 0 
L 794 0 
L 794 531 
z
" id="DejaVuSans-31" transform="scale(0.015625)"/>
        <path d="M 691 4666 
L 3169 4666 
L 3169 4134 
L 1269 4134 
L 1269 2991 
Q 1406 3038 1543 3061 
Q 1681 3084 1819 3084 
Q 2600 3084 3056 2656 
Q 3513 2228 3513 1497 
Q 3513 744 3044 326 
Q 2575 -91 1722 -91 
Q 1428 -91 1123 -41 
Q 819 9 494 109 
L 494 744 
Q 775 591 1075 516 
Q 1375 441 1709 441 
Q 2250 441 2565 725 
Q 2881 1009 2881 1497 
Q 2881 1984 2565 2268 
Q 2250 2553 1709 2553 
Q 1456 2553 1204 2497 
Q 953 2441 691 2322 
L 691 4666 
z
" id="DejaVuSans-35" transform="scale(0.015625)"/>
        <path d="M 2034 4250 
Q 1547 4250 1301 3770 
Q 1056 3291 1056 2328 
Q 1056 1369 1301 889 
Q 1547 409 2034 409 
Q 2525 409 2770 889 
Q 3016 1369 3016 2328 
Q 3016 3291 2770 3770 
Q 2525 4250 2034 4250 
z
M 2034 4750 
Q 2819 4750 3233 4129 
Q 3647 3509 3647 2328 
Q 3647 1150 3233 529 
Q 2819 -91 2034 -91 
Q 1250 -91 836 529 
Q 422 1150 422 2328 
Q 422 3509 836 4129 
Q 1250 4750 2034 4750 
z
" id="DejaVuSans-30" transform="scale(0.015625)"/>
       </defs>
       <use xlink:href="#DejaVuSans-31"/>
       <use x="63.623047" xlink:href="#DejaVuSans-35"/>
       <use x="127.246094" xlink:href="#DejaVuSans-30"/>
       <use x="190.869141" xlink:href="#DejaVuSans-30"/>
       <use x="254.492188" xlink:href="#DejaVuSans-30"/>
      </g>
     </g>
    </g>
    <g id="xtick_2">
     <g id="line2d_2">
      <g>
       <use style="stroke:#000000;stroke-width:0.8;" x="132.390009" xlink:href="#m2ee6372655" y="247.48325"/>
      </g>
     </g>
     <g id="text_2">
      <!-- 20000 -->
      <g transform="translate(116.483759 262.081687)scale(0.1 -0.1)">
       <defs>
        <path d="M 1228 531 
L 3431 531 
L 3431 0 
L 469 0 
L 469 531 
Q 828 903 1448 1529 
Q 2069 2156 2228 2338 
Q 2531 2678 2651 2914 
Q 2772 3150 2772 3378 
Q 2772 3750 2511 3984 
Q 2250 4219 1831 4219 
Q 1534 4219 1204 4116 
Q 875 4013 500 3803 
L 500 4441 
Q 881 4594 1212 4672 
Q 1544 4750 1819 4750 
Q 2544 4750 2975 4387 
Q 3406 4025 3406 3419 
Q 3406 3131 3298 2873 
Q 3191 2616 2906 2266 
Q 2828 2175 2409 1742 
Q 1991 1309 1228 531 
z
" id="DejaVuSans-32" transform="scale(0.015625)"/>
       </defs>
       <use xlink:href="#DejaVuSans-32"/>
       <use x="63.623047" xlink:href="#DejaVuSans-30"/>
       <use x="127.246094" xlink:href="#DejaVuSans-30"/>
       <use x="190.869141" xlink:href="#DejaVuSans-30"/>
       <use x="254.492188" xlink:href="#DejaVuSans-30"/>
      </g>
     </g>
    </g>
    <g id="xtick_3">
     <g id="line2d_3">
      <g>
       <use style="stroke:#000000;stroke-width:0.8;" x="178.25828" xlink:href="#m2ee6372655" y="247.48325"/>
      </g>
     </g>
     <g id="text_3">
      <!-- 25000 -->
      <g transform="translate(162.35203 262.081687)scale(0.1 -0.1)">
       <use xlink:href="#DejaVuSans-32"/>
       <use x="63.623047" xlink:href="#DejaVuSans-35"/>
       <use x="127.246094" xlink:href="#DejaVuSans-30"/>
       <use x="190.869141" xlink:href="#DejaVuSans-30"/>
       <use x="254.492188" xlink:href="#DejaVuSans-30"/>
      </g>
     </g>
    </g>
    <g id="xtick_4">
     <g id="line2d_4">
      <g>
       <use style="stroke:#000000;stroke-width:0.8;" x="224.126551" xlink:href="#m2ee6372655" y="247.48325"/>
      </g>
     </g>
     <g id="text_4">
      <!-- 30000 -->
      <g transform="translate(208.220301 262.081687)scale(0.1 -0.1)">
       <defs>
        <path d="M 2597 2516 
Q 3050 2419 3304 2112 
Q 3559 1806 3559 1356 
Q 3559 666 3084 287 
Q 2609 -91 1734 -91 
Q 1441 -91 1130 -33 
Q 819 25 488 141 
L 488 750 
Q 750 597 1062 519 
Q 1375 441 1716 441 
Q 2309 441 2620 675 
Q 2931 909 2931 1356 
Q 2931 1769 2642 2001 
Q 2353 2234 1838 2234 
L 1294 2234 
L 1294 2753 
L 1863 2753 
Q 2328 2753 2575 2939 
Q 2822 3125 2822 3475 
Q 2822 3834 2567 4026 
Q 2313 4219 1838 4219 
Q 1578 4219 1281 4162 
Q 984 4106 628 3988 
L 628 4550 
Q 988 4650 1302 4700 
Q 1616 4750 1894 4750 
Q 2613 4750 3031 4423 
Q 3450 4097 3450 3541 
Q 3450 3153 3228 2886 
Q 3006 2619 2597 2516 
z
" id="DejaVuSans-33" transform="scale(0.015625)"/>
       </defs>
       <use xlink:href="#DejaVuSans-33"/>
       <use x="63.623047" xlink:href="#DejaVuSans-30"/>
       <use x="127.246094" xlink:href="#DejaVuSans-30"/>
       <use x="190.869141" xlink:href="#DejaVuSans-30"/>
       <use x="254.492188" xlink:href="#DejaVuSans-30"/>
      </g>
     </g>
    </g>
    <g id="xtick_5">
     <g id="line2d_5">
      <g>
       <use style="stroke:#000000;stroke-width:0.8;" x="269.994822" xlink:href="#m2ee6372655" y="247.48325"/>
      </g>
     </g>
     <g id="text_5">
      <!-- 35000 -->
      <g transform="translate(254.088572 262.081687)scale(0.1 -0.1)">
       <use xlink:href="#DejaVuSans-33"/>
       <use x="63.623047" xlink:href="#DejaVuSans-35"/>
       <use x="127.246094" xlink:href="#DejaVuSans-30"/>
       <use x="190.869141" xlink:href="#DejaVuSans-30"/>
       <use x="254.492188" xlink:href="#DejaVuSans-30"/>
      </g>
     </g>
    </g>
    <g id="xtick_6">
     <g id="line2d_6">
      <g>
       <use style="stroke:#000000;stroke-width:0.8;" x="315.863093" xlink:href="#m2ee6372655" y="247.48325"/>
      </g>
     </g>
     <g id="text_6">
      <!-- 40000 -->
      <g transform="translate(299.956843 262.081687)scale(0.1 -0.1)">
       <defs>
        <path d="M 2419 4116 
L 825 1625 
L 2419 1625 
L 2419 4116 
z
M 2253 4666 
L 3047 4666 
L 3047 1625 
L 3713 1625 
L 3713 1100 
L 3047 1100 
L 3047 0 
L 2419 0 
L 2419 1100 
L 313 1100 
L 313 1709 
L 2253 4666 
z
" id="DejaVuSans-34" transform="scale(0.015625)"/>
       </defs>
       <use xlink:href="#DejaVuSans-34"/>
       <use x="63.623047" xlink:href="#DejaVuSans-30"/>
       <use x="127.246094" xlink:href="#DejaVuSans-30"/>
       <use x="190.869141" xlink:href="#DejaVuSans-30"/>
       <use x="254.492188" xlink:href="#DejaVuSans-30"/>
      </g>
     </g>
    </g>
    <g id="text_7">
     <!-- Capillary pressure [Pa] -->
     <g transform="translate(126.780469 275.759812)scale(0.1 -0.1)">
      <defs>
       <path d="M 4122 4306 
L 4122 3641 
Q 3803 3938 3442 4084 
Q 3081 4231 2675 4231 
Q 1875 4231 1450 3742 
Q 1025 3253 1025 2328 
Q 1025 1406 1450 917 
Q 1875 428 2675 428 
Q 3081 428 3442 575 
Q 3803 722 4122 1019 
L 4122 359 
Q 3791 134 3420 21 
Q 3050 -91 2638 -91 
Q 1578 -91 968 557 
Q 359 1206 359 2328 
Q 359 3453 968 4101 
Q 1578 4750 2638 4750 
Q 3056 4750 3426 4639 
Q 3797 4528 4122 4306 
z
" id="DejaVuSans-43" transform="scale(0.015625)"/>
       <path d="M 2194 1759 
Q 1497 1759 1228 1600 
Q 959 1441 959 1056 
Q 959 750 1161 570 
Q 1363 391 1709 391 
Q 2188 391 2477 730 
Q 2766 1069 2766 1631 
L 2766 1759 
L 2194 1759 
z
M 3341 1997 
L 3341 0 
L 2766 0 
L 2766 531 
Q 2569 213 2275 61 
Q 1981 -91 1556 -91 
Q 1019 -91 701 211 
Q 384 513 384 1019 
Q 384 1609 779 1909 
Q 1175 2209 1959 2209 
L 2766 2209 
L 2766 2266 
Q 2766 2663 2505 2880 
Q 2244 3097 1772 3097 
Q 1472 3097 1187 3025 
Q 903 2953 641 2809 
L 641 3341 
Q 956 3463 1253 3523 
Q 1550 3584 1831 3584 
Q 2591 3584 2966 3190 
Q 3341 2797 3341 1997 
z
" id="DejaVuSans-61" transform="scale(0.015625)"/>
       <path d="M 1159 525 
L 1159 -1331 
L 581 -1331 
L 581 3500 
L 1159 3500 
L 1159 2969 
Q 1341 3281 1617 3432 
Q 1894 3584 2278 3584 
Q 2916 3584 3314 3078 
Q 3713 2572 3713 1747 
Q 3713 922 3314 415 
Q 2916 -91 2278 -91 
Q 1894 -91 1617 61 
Q 1341 213 1159 525 
z
M 3116 1747 
Q 3116 2381 2855 2742 
Q 2594 3103 2138 3103 
Q 1681 3103 1420 2742 
Q 1159 2381 1159 1747 
Q 1159 1113 1420 752 
Q 1681 391 2138 391 
Q 2594 391 2855 752 
Q 3116 1113 3116 1747 
z
" id="DejaVuSans-70" transform="scale(0.015625)"/>
       <path d="M 603 3500 
L 1178 3500 
L 1178 0 
L 603 0 
L 603 3500 
z
M 603 4863 
L 1178 4863 
L 1178 4134 
L 603 4134 
L 603 4863 
z
" id="DejaVuSans-69" transform="scale(0.015625)"/>
       <path d="M 603 4863 
L 1178 4863 
L 1178 0 
L 603 0 
L 603 4863 
z
" id="DejaVuSans-6c" transform="scale(0.015625)"/>
       <path d="M 2631 2963 
Q 2534 3019 2420 3045 
Q 2306 3072 2169 3072 
Q 1681 3072 1420 2755 
Q 1159 2438 1159 1844 
L 1159 0 
L 581 0 
L 581 3500 
L 1159 3500 
L 1159 2956 
Q 1341 3275 1631 3429 
Q 1922 3584 2338 3584 
Q 2397 3584 2469 3576 
Q 2541 3569 2628 3553 
L 2631 2963 
z
" id="DejaVuSans-72" transform="scale(0.015625)"/>
       <path d="M 2059 -325 
Q 1816 -950 1584 -1140 
Q 1353 -1331 966 -1331 
L 506 -1331 
L 506 -850 
L 844 -850 
Q 1081 -850 1212 -737 
Q 1344 -625 1503 -206 
L 1606 56 
L 191 3500 
L 800 3500 
L 1894 763 
L 2988 3500 
L 3597 3500 
L 2059 -325 
z
" id="DejaVuSans-79" transform="scale(0.015625)"/>
       <path id="DejaVuSans-20" transform="scale(0.015625)"/>
       <path d="M 3597 1894 
L 3597 1613 
L 953 1613 
Q 991 1019 1311 708 
Q 1631 397 2203 397 
Q 2534 397 2845 478 
Q 3156 559 3463 722 
L 3463 178 
Q 3153 47 2828 -22 
Q 2503 -91 2169 -91 
Q 1331 -91 842 396 
Q 353 884 353 1716 
Q 353 2575 817 3079 
Q 1281 3584 2069 3584 
Q 2775 3584 3186 3129 
Q 3597 2675 3597 1894 
z
M 3022 2063 
Q 3016 2534 2758 2815 
Q 2500 3097 2075 3097 
Q 1594 3097 1305 2825 
Q 1016 2553 972 2059 
L 3022 2063 
z
" id="DejaVuSans-65" transform="scale(0.015625)"/>
       <path d="M 2834 3397 
L 2834 2853 
Q 2591 2978 2328 3040 
Q 2066 3103 1784 3103 
Q 1356 3103 1142 2972 
Q 928 2841 928 2578 
Q 928 2378 1081 2264 
Q 1234 2150 1697 2047 
L 1894 2003 
Q 2506 1872 2764 1633 
Q 3022 1394 3022 966 
Q 3022 478 2636 193 
Q 2250 -91 1575 -91 
Q 1294 -91 989 -36 
Q 684 19 347 128 
L 347 722 
Q 666 556 975 473 
Q 1284 391 1588 391 
Q 1994 391 2212 530 
Q 2431 669 2431 922 
Q 2431 1156 2273 1281 
Q 2116 1406 1581 1522 
L 1381 1569 
Q 847 1681 609 1914 
Q 372 2147 372 2553 
Q 372 3047 722 3315 
Q 1072 3584 1716 3584 
Q 2034 3584 2315 3537 
Q 2597 3491 2834 3397 
z
" id="DejaVuSans-73" transform="scale(0.015625)"/>
       <path d="M 544 1381 
L 544 3500 
L 1119 3500 
L 1119 1403 
Q 1119 906 1312 657 
Q 1506 409 1894 409 
Q 2359 409 2629 706 
Q 2900 1003 2900 1516 
L 2900 3500 
L 3475 3500 
L 3475 0 
L 2900 0 
L 2900 538 
Q 2691 219 2414 64 
Q 2138 -91 1772 -91 
Q 1169 -91 856 284 
Q 544 659 544 1381 
z
M 1991 3584 
L 1991 3584 
z
" id="DejaVuSans-75" transform="scale(0.015625)"/>
       <path d="M 550 4863 
L 1875 4863 
L 1875 4416 
L 1125 4416 
L 1125 -397 
L 1875 -397 
L 1875 -844 
L 550 -844 
L 550 4863 
z
" id="DejaVuSans-5b" transform="scale(0.015625)"/>
       <path d="M 1259 4147 
L 1259 2394 
L 2053 2394 
Q 2494 2394 2734 2622 
Q 2975 2850 2975 3272 
Q 2975 3691 2734 3919 
Q 2494 4147 2053 4147 
L 1259 4147 
z
M 628 4666 
L 2053 4666 
Q 2838 4666 3239 4311 
Q 3641 3956 3641 3272 
Q 3641 2581 3239 2228 
Q 2838 1875 2053 1875 
L 1259 1875 
L 1259 0 
L 628 0 
L 628 4666 
z
" id="DejaVuSans-50" transform="scale(0.015625)"/>
       <path d="M 1947 4863 
L 1947 -844 
L 622 -844 
L 622 -397 
L 1369 -397 
L 1369 4416 
L 622 4416 
L 622 4863 
L 1947 4863 
z
" id="DejaVuSans-5d" transform="scale(0.015625)"/>
      </defs>
      <use xlink:href="#DejaVuSans-43"/>
      <use x="69.824219" xlink:href="#DejaVuSans-61"/>
      <use x="131.103516" xlink:href="#DejaVuSans-70"/>
      <use x="194.580078" xlink:href="#DejaVuSans-69"/>
      <use x="222.363281" xlink:href="#DejaVuSans-6c"/>
      <use x="250.146484" xlink:href="#DejaVuSans-6c"/>
      <use x="277.929688" xlink:href="#DejaVuSans-61"/>
      <use x="339.208984" xlink:href="#DejaVuSans-72"/>
      <use x="380.322266" xlink:href="#DejaVuSans-79"/>
      <use x="439.501953" xlink:href="#DejaVuSans-20"/>
      <use x="471.289062" xlink:href="#DejaVuSans-70"/>
      <use x="534.765625" xlink:href="#DejaVuSans-72"/>
      <use x="573.628906" xlink:href="#DejaVuSans-65"/>
      <use x="635.152344" xlink:href="#DejaVuSans-73"/>
      <use x="687.251953" xlink:href="#DejaVuSans-73"/>
      <use x="739.351562" xlink:href="#DejaVuSans-75"/>
      <use x="802.730469" xlink:href="#DejaVuSans-72"/>
      <use x="841.59375" xlink:href="#DejaVuSans-65"/>
      <use x="903.117188" xlink:href="#DejaVuSans-20"/>
      <use x="934.904297" xlink:href="#DejaVuSans-5b"/>
      <use x="973.917969" xlink:href="#DejaVuSans-50"/>
      <use x="1029.720703" xlink:href="#DejaVuSans-61"/>
      <use x="1091" xlink:href="#DejaVuSans-5d"/>
     </g>
    </g>
   </g>
   <g id="matplotlib.axis_2">
    <g id="ytick_1">
     <g id="line2d_7">
      <defs>
       <path d="M 0 0 
L -3.5 0 
" id="m262302fec9" style="stroke:#000000;stroke-width:0.8;"/>
      </defs>
      <g>
       <use style="stroke:#000000;stroke-width:0.8;" x="43.78125" xlink:href="#m262302fec9" y="247.48325"/>
      </g>
     </g>
     <g id="text_8">
      <!-- 0.0 -->
      <g transform="translate(20.878125 251.282469)scale(0.1 -0.1)">
       <defs>
        <path d="M 684 794 
L 1344 794 
L 1344 0 
L 684 0 
L 684 794 
z
" id="DejaVuSans-2e" transform="scale(0.015625)"/>
       </defs>
       <use xlink:href="#DejaVuSans-30"/>
       <use x="63.623047" xlink:href="#DejaVuSans-2e"/>
       <use x="95.410156" xlink:href="#DejaVuSans-30"/>
      </g>
     </g>
    </g>
    <g id="ytick_2">
     <g id="line2d_8">
      <g>
       <use style="stroke:#000000;stroke-width:0.8;" x="43.78125" xlink:href="#m262302fec9" y="206.71325"/>
      </g>
     </g>
     <g id="text_9">
      <!-- 0.2 -->
      <g transform="translate(20.878125 210.512469)scale(0.1 -0.1)">
       <use xlink:href="#DejaVuSans-30"/>
       <use x="63.623047" xlink:href="#DejaVuSans-2e"/>
       <use x="95.410156" xlink:href="#DejaVuSans-32"/>
      </g>
     </g>
    </g>
    <g id="ytick_3">
     <g id="line2d_9">
      <g>
       <use style="stroke:#000000;stroke-width:0.8;" x="43.78125" xlink:href="#m262302fec9" y="165.94325"/>
      </g>
     </g>
     <g id="text_10">
      <!-- 0.4 -->
      <g transform="translate(20.878125 169.742469)scale(0.1 -0.1)">
       <use xlink:href="#DejaVuSans-30"/>
       <use x="63.623047" xlink:href="#DejaVuSans-2e"/>
       <use x="95.410156" xlink:href="#DejaVuSans-34"/>
      </g>
     </g>
    </g>
    <g id="ytick_4">
     <g id="line2d_10">
      <g>
       <use style="stroke:#000000;stroke-width:0.8;" x="43.78125" xlink:href="#m262302fec9" y="125.17325"/>
      </g>
     </g>
     <g id="text_11">
      <!-- 0.6 -->
      <g transform="translate(20.878125 128.972469)scale(0.1 -0.1)">
       <defs>
        <path d="M 2113 2584 
Q 1688 2584 1439 2293 
Q 1191 2003 1191 1497 
Q 1191 994 1439 701 
Q 1688 409 2113 409 
Q 2538 409 2786 701 
Q 3034 994 3034 1497 
Q 3034 2003 2786 2293 
Q 2538 2584 2113 2584 
z
M 3366 4563 
L 3366 3988 
Q 3128 4100 2886 4159 
Q 2644 4219 2406 4219 
Q 1781 4219 1451 3797 
Q 1122 3375 1075 2522 
Q 1259 2794 1537 2939 
Q 1816 3084 2150 3084 
Q 2853 3084 3261 2657 
Q 3669 2231 3669 1497 
Q 3669 778 3244 343 
Q 2819 -91 2113 -91 
Q 1303 -91 875 529 
Q 447 1150 447 2328 
Q 447 3434 972 4092 
Q 1497 4750 2381 4750 
Q 2619 4750 2861 4703 
Q 3103 4656 3366 4563 
z
" id="DejaVuSans-36" transform="scale(0.015625)"/>
       </defs>
       <use xlink:href="#DejaVuSans-30"/>
       <use x="63.623047" xlink:href="#DejaVuSans-2e"/>
       <use x="95.410156" xlink:href="#DejaVuSans-36"/>
      </g>
     </g>
    </g>
    <g id="ytick_5">
     <g id="line2d_11">
      <g>
       <use style="stroke:#000000;stroke-width:0.8;" x="43.78125" xlink:href="#m262302fec9" y="84.40325"/>
      </g>
     </g>
     <g id="text_12">
      <!-- 0.8 -->
      <g transform="translate(20.878125 88.202469)scale(0.1 -0.1)">
       <defs>
        <path d="M 2034 2216 
Q 1584 2216 1326 1975 
Q 1069 1734 1069 1313 
Q 1069 891 1326 650 
Q 1584 409 2034 409 
Q 2484 409 2743 651 
Q 3003 894 3003 1313 
Q 3003 1734 2745 1975 
Q 2488 2216 2034 2216 
z
M 1403 2484 
Q 997 2584 770 2862 
Q 544 3141 544 3541 
Q 544 4100 942 4425 
Q 1341 4750 2034 4750 
Q 2731 4750 3128 4425 
Q 3525 4100 3525 3541 
Q 3525 3141 3298 2862 
Q 3072 2584 2669 2484 
Q 3125 2378 3379 2068 
Q 3634 1759 3634 1313 
Q 3634 634 3220 271 
Q 2806 -91 2034 -91 
Q 1263 -91 848 271 
Q 434 634 434 1313 
Q 434 1759 690 2068 
Q 947 2378 1403 2484 
z
M 1172 3481 
Q 1172 3119 1398 2916 
Q 1625 2713 2034 2713 
Q 2441 2713 2670 2916 
Q 2900 3119 2900 3481 
Q 2900 3844 2670 4047 
Q 2441 4250 2034 4250 
Q 1625 4250 1398 4047 
Q 1172 3844 1172 3481 
z
" id="DejaVuSans-38" transform="scale(0.015625)"/>
       </defs>
       <use xlink:href="#DejaVuSans-30"/>
       <use x="63.623047" xlink:href="#DejaVuSans-2e"/>
       <use x="95.410156" xlink:href="#DejaVuSans-38"/>
      </g>
     </g>
    </g>
    <g id="ytick_6">
     <g id="line2d_12">
      <g>
       <use style="stroke:#000000;stroke-width:0.8;" x="43.78125" xlink:href="#m262302fec9" y="43.63325"/>
      </g>
     </g>
     <g id="text_13">
      <!-- 1.0 -->
      <g transform="translate(20.878125 47.432469)scale(0.1 -0.1)">
       <use xlink:href="#DejaVuSans-31"/>
       <use x="63.623047" xlink:href="#DejaVuSans-2e"/>
       <use x="95.410156" xlink:href="#DejaVuSans-30"/>
      </g>
     </g>
    </g>
    <g id="text_14">
     <!-- Saturation -->
     <g transform="translate(14.798438 171.622312)rotate(-90)scale(0.1 -0.1)">
      <defs>
       <path d="M 3425 4513 
L 3425 3897 
Q 3066 4069 2747 4153 
Q 2428 4238 2131 4238 
Q 1616 4238 1336 4038 
Q 1056 3838 1056 3469 
Q 1056 3159 1242 3001 
Q 1428 2844 1947 2747 
L 2328 2669 
Q 3034 2534 3370 2195 
Q 3706 1856 3706 1288 
Q 3706 609 3251 259 
Q 2797 -91 1919 -91 
Q 1588 -91 1214 -16 
Q 841 59 441 206 
L 441 856 
Q 825 641 1194 531 
Q 1563 422 1919 422 
Q 2459 422 2753 634 
Q 3047 847 3047 1241 
Q 3047 1584 2836 1778 
Q 2625 1972 2144 2069 
L 1759 2144 
Q 1053 2284 737 2584 
Q 422 2884 422 3419 
Q 422 4038 858 4394 
Q 1294 4750 2059 4750 
Q 2388 4750 2728 4690 
Q 3069 4631 3425 4513 
z
" id="DejaVuSans-53" transform="scale(0.015625)"/>
       <path d="M 1172 4494 
L 1172 3500 
L 2356 3500 
L 2356 3053 
L 1172 3053 
L 1172 1153 
Q 1172 725 1289 603 
Q 1406 481 1766 481 
L 2356 481 
L 2356 0 
L 1766 0 
Q 1100 0 847 248 
Q 594 497 594 1153 
L 594 3053 
L 172 3053 
L 172 3500 
L 594 3500 
L 594 4494 
L 1172 4494 
z
" id="DejaVuSans-74" transform="scale(0.015625)"/>
       <path d="M 1959 3097 
Q 1497 3097 1228 2736 
Q 959 2375 959 1747 
Q 959 1119 1226 758 
Q 1494 397 1959 397 
Q 2419 397 2687 759 
Q 2956 1122 2956 1747 
Q 2956 2369 2687 2733 
Q 2419 3097 1959 3097 
z
M 1959 3584 
Q 2709 3584 3137 3096 
Q 3566 2609 3566 1747 
Q 3566 888 3137 398 
Q 2709 -91 1959 -91 
Q 1206 -91 779 398 
Q 353 888 353 1747 
Q 353 2609 779 3096 
Q 1206 3584 1959 3584 
z
" id="DejaVuSans-6f" transform="scale(0.015625)"/>
       <path d="M 3513 2113 
L 3513 0 
L 2938 0 
L 2938 2094 
Q 2938 2591 2744 2837 
Q 2550 3084 2163 3084 
Q 1697 3084 1428 2787 
Q 1159 2491 1159 1978 
L 1159 0 
L 581 0 
L 581 3500 
L 1159 3500 
L 1159 2956 
Q 1366 3272 1645 3428 
Q 1925 3584 2291 3584 
Q 2894 3584 3203 3211 
Q 3513 2838 3513 2113 
z
" id="DejaVuSans-6e" transform="scale(0.015625)"/>
      </defs>
      <use xlink:href="#DejaVuSans-53"/>
      <use x="63.476562" xlink:href="#DejaVuSans-61"/>
      <use x="124.755859" xlink:href="#DejaVuSans-74"/>
      <use x="163.964844" xlink:href="#DejaVuSans-75"/>
      <use x="227.34375" xlink:href="#DejaVuSans-72"/>
      <use x="268.457031" xlink:href="#DejaVuSans-61"/>
      <use x="329.736328" xlink:href="#DejaVuSans-74"/>
      <use x="368.945312" xlink:href="#DejaVuSans-69"/>
      <use x="396.728516" xlink:href="#DejaVuSans-6f"/>
      <use x="457.910156" xlink:href="#DejaVuSans-6e"/>
     </g>
    </g>
   </g>
   <g id="line2d_13">
    <path clip-path="url(#p510ff607ac)" d="M 56.463068 246.187052 
L 74.579248 246.031608 
L 79.295315 245.68924 
L 88.780807 245.484556 
L 89.783987 245.299832 
L 91.698489 245.269511 
L 93.03115 244.677033 
L 93.336935 244.677033 
L 93.349162 244.563689 
L 95.127118 244.520842 
L 95.491983 244.159158 
L 98.495314 243.967801 
L 98.71084 243.706589 
L 99.266827 243.669134 
L 99.270131 242.584651 
L 102.299684 242.479224 
L 103.790588 242.367052 
L 105.777449 242.367052 
L 106.270972 241.469378 
L 107.403311 241.275065 
L 107.67498 241.024441 
L 108.652408 240.928831 
L 108.914819 240.379219 
L 109.07539 240.351811 
L 109.239295 240.161818 
L 109.817233 239.849185 
L 111.183358 239.828547 
L 111.45148 239.49947 
L 114.164882 239.386274 
L 114.381923 236.990364 
L 115.130422 236.931272 
L 115.451068 236.401716 
L 115.818579 236.39231 
L 116.140642 236.128726 
L 116.48222 234.521716 
L 117.102426 234.512524 
L 117.312572 234.125974 
L 120.458526 233.625389 
L 121.177045 233.571779 
L 121.424784 230.602357 
L 122.926084 230.425397 
L 123.113224 229.160531 
L 123.368778 229.135808 
L 123.498053 211.690859 
L 124.029343 211.64705 
L 124.181947 205.012569 
L 124.279515 205.00446 
L 124.41073 204.459856 
L 125.152986 204.346187 
L 125.313952 204.249775 
L 125.448559 203.555763 
L 125.818763 203.489983 
L 125.861695 202.330384 
L 126.601611 202.179788 
L 126.673261 202.156419 
L 126.898352 202.094071 
L 126.960826 201.592959 
L 127.058464 201.585224 
L 127.269312 200.757166 
L 127.383264 200.74178 
L 127.526815 200.527691 
L 128.636307 200.359992 
L 128.923625 200.21325 
L 129.581598 200.110487 
L 129.759956 199.826519 
L 130.175931 199.764317 
L 130.330351 199.531661 
L 130.606507 199.495148 
L 130.610536 195.039035 
L 130.852709 195.014925 
L 130.934453 194.791101 
L 131.498835 194.711834 
L 131.7813 193.942405 
L 132.280372 193.751431 
L 132.657671 193.359036 
L 132.783049 193.196964 
L 133.891074 192.919677 
L 134.825184 192.682764 
L 134.853785 192.586391 
L 134.989887 153.991102 
L 135.150324 153.791008 
L 135.408442 152.139325 
L 135.859167 152.021489 
L 135.971747 151.97152 
L 136.176825 151.938195 
L 136.233974 151.833697 
L 136.580347 151.696711 
L 136.815776 151.562174 
L 137.320154 151.309553 
L 137.458074 150.870778 
L 137.604562 150.838205 
L 137.817674 150.553697 
L 137.925625 150.514824 
L 137.925988 149.938338 
L 138.270881 149.893261 
L 138.376722 149.584739 
L 138.492006 149.437251 
L 138.772708 134.314781 
L 138.99383 134.243446 
L 139.05926 134.10525 
L 139.300396 133.97633 
L 139.73546 133.798308 
L 139.848698 133.599249 
L 139.952264 133.575541 
L 140.074808 133.436682 
L 140.222022 133.291871 
L 140.440057 133.248222 
L 140.939206 133.128538 
L 141.46413 132.859978 
L 141.6769 132.66065 
L 141.832135 132.5869 
L 141.931889 132.08633 
L 142.430181 131.972259 
L 142.570419 131.608554 
L 142.744594 131.5725 
L 142.834478 131.424897 
L 142.909032 131.406924 
L 143.145151 129.503373 
L 143.169211 129.442933 
L 143.266463 129.27307 
L 143.703196 129.095721 
L 143.746618 129.056608 
L 144.390692 128.913242 
L 144.824973 128.759967 
L 144.925768 128.683163 
L 145.111106 128.623019 
L 145.445388 128.530487 
L 145.511575 127.546317 
L 145.936562 127.416021 
L 146.443547 127.285228 
L 148.048286 126.640238 
L 148.183274 126.239852 
L 148.507959 126.118854 
L 148.855205 125.995347 
L 148.952965 125.949841 
L 149.055223 125.552216 
L 149.160336 125.530419 
L 149.345034 125.243575 
L 149.561096 125.18311 
L 149.731614 124.91021 
L 154.107094 123.662696 
L 155.007989 123.430642 
L 155.783904 123.301214 
L 155.863242 123.206815 
L 156.065052 123.160771 
L 156.360078 122.831201 
L 156.738446 122.796824 
L 156.844815 122.320811 
L 157.409985 122.203979 
L 157.549149 122.107332 
L 158.088782 121.998325 
L 158.181545 121.833237 
L 158.676858 121.70383 
L 158.798065 121.653476 
L 159.016137 121.615712 
L 159.926053 121.468069 
L 160.045799 121.409022 
L 162.904144 120.926736 
L 164.620632 120.491919 
L 164.72852 120.171229 
L 165.793409 119.985544 
L 165.923838 119.955569 
L 166.69069 119.791625 
L 168.982841 119.437739 
L 169.119741 119.297426 
L 170.335089 119.080306 
L 170.664688 119.052162 
L 172.342345 118.812829 
L 172.970182 118.730363 
L 173.725869 118.582638 
L 175.152839 118.326063 
L 176.406937 118.168446 
L 178.847366 117.955955 
L 182.509183 117.586109 
L 182.560036 117.485987 
L 184.247989 117.343596 
L 184.458643 117.313439 
L 189.671812 116.747044 
L 189.97199 116.683699 
L 190.574742 116.550747 
L 190.688853 116.535262 
L 191.364429 116.464998 
L 191.466378 116.301927 
L 193.502641 116.144754 
L 195.658679 115.969506 
L 195.701476 115.952045 
L 198.577422 115.75184 
L 202.188184 115.516994 
L 202.378006 115.4785 
L 218.274379 114.468187 
L 221.733216 114.321294 
L 251.033625 113.297069 
L 257.494059 113.14192 
L 258.52756 113.115273 
L 268.999574 112.88768 
L 281.032687 112.659606 
L 290.867901 112.502884 
L 310.099432 112.246732 
L 310.099432 112.246732 
" style="fill:none;stroke:#ff0000;stroke-linecap:square;stroke-width:1.5;"/>
    <defs>
     <path d="M 0 -3 
L -0.673542 -0.927051 
L -2.85317 -0.927051 
L -1.089814 0.354102 
L -1.763356 2.427051 
L -0 1.145898 
L 1.763356 2.427051 
L 1.089814 0.354102 
L 2.85317 -0.927051 
L 0.673542 -0.927051 
z
" id="m409c2ee00b" style="stroke:#ff0000;stroke-linejoin:bevel;"/>
    </defs>
    <g clip-path="url(#p510ff607ac)">
     <use style="fill:#ff0000;stroke:#ff0000;stroke-linejoin:bevel;" x="56.463068" xlink:href="#m409c2ee00b" y="246.187052"/>
     <use style="fill:#ff0000;stroke:#ff0000;stroke-linejoin:bevel;" x="126.070795" xlink:href="#m409c2ee00b" y="202.30677"/>
     <use style="fill:#ff0000;stroke:#ff0000;stroke-linejoin:bevel;" x="136.094471" xlink:href="#m409c2ee00b" y="151.958182"/>
     <use style="fill:#ff0000;stroke:#ff0000;stroke-linejoin:bevel;" x="140.603964" xlink:href="#m409c2ee00b" y="133.202487"/>
     <use style="fill:#ff0000;stroke:#ff0000;stroke-linejoin:bevel;" x="145.446506" xlink:href="#m409c2ee00b" y="127.696125"/>
     <use style="fill:#ff0000;stroke:#ff0000;stroke-linejoin:bevel;" x="149.84048" xlink:href="#m409c2ee00b" y="124.888632"/>
     <use style="fill:#ff0000;stroke:#ff0000;stroke-linejoin:bevel;" x="154.536644" xlink:href="#m409c2ee00b" y="123.564946"/>
     <use style="fill:#ff0000;stroke:#ff0000;stroke-linejoin:bevel;" x="159.659684" xlink:href="#m409c2ee00b" y="121.510024"/>
     <use style="fill:#ff0000;stroke:#ff0000;stroke-linejoin:bevel;" x="164.844411" xlink:href="#m409c2ee00b" y="120.149505"/>
     <use style="fill:#ff0000;stroke:#ff0000;stroke-linejoin:bevel;" x="170.2927" xlink:href="#m409c2ee00b" y="119.088364"/>
     <use style="fill:#ff0000;stroke:#ff0000;stroke-linejoin:bevel;" x="175.72921" xlink:href="#m409c2ee00b" y="118.269719"/>
     <use style="fill:#ff0000;stroke:#ff0000;stroke-linejoin:bevel;" x="182.239689" xlink:href="#m409c2ee00b" y="117.613595"/>
     <use style="fill:#ff0000;stroke:#ff0000;stroke-linejoin:bevel;" x="188.361358" xlink:href="#m409c2ee00b" y="116.895819"/>
     <use style="fill:#ff0000;stroke:#ff0000;stroke-linejoin:bevel;" x="194.864193" xlink:href="#m409c2ee00b" y="116.045484"/>
     <use style="fill:#ff0000;stroke:#ff0000;stroke-linejoin:bevel;" x="201.025661" xlink:href="#m409c2ee00b" y="115.573896"/>
     <use style="fill:#ff0000;stroke:#ff0000;stroke-linejoin:bevel;" x="207.893144" xlink:href="#m409c2ee00b" y="115.070597"/>
     <use style="fill:#ff0000;stroke:#ff0000;stroke-linejoin:bevel;" x="217.006402" xlink:href="#m409c2ee00b" y="114.515528"/>
     <use style="fill:#ff0000;stroke:#ff0000;stroke-linejoin:bevel;" x="225.209131" xlink:href="#m409c2ee00b" y="114.16046"/>
     <use style="fill:#ff0000;stroke:#ff0000;stroke-linejoin:bevel;" x="234.129657" xlink:href="#m409c2ee00b" y="113.815735"/>
     <use style="fill:#ff0000;stroke:#ff0000;stroke-linejoin:bevel;" x="242.387363" xlink:href="#m409c2ee00b" y="113.522164"/>
     <use style="fill:#ff0000;stroke:#ff0000;stroke-linejoin:bevel;" x="252.409012" xlink:href="#m409c2ee00b" y="113.254556"/>
     <use style="fill:#ff0000;stroke:#ff0000;stroke-linejoin:bevel;" x="262.555941" xlink:href="#m409c2ee00b" y="113.0128"/>
     <use style="fill:#ff0000;stroke:#ff0000;stroke-linejoin:bevel;" x="274.014035" xlink:href="#m409c2ee00b" y="112.793794"/>
     <use style="fill:#ff0000;stroke:#ff0000;stroke-linejoin:bevel;" x="284.747287" xlink:href="#m409c2ee00b" y="112.598699"/>
     <use style="fill:#ff0000;stroke:#ff0000;stroke-linejoin:bevel;" x="297.250681" xlink:href="#m409c2ee00b" y="112.421202"/>
     <use style="fill:#ff0000;stroke:#ff0000;stroke-linejoin:bevel;" x="308.876533" xlink:href="#m409c2ee00b" y="112.260721"/>
    </g>
   </g>
   <g id="line2d_14">
    <path clip-path="url(#p510ff607ac)" d="M 56.463068 247.475298 
L 78.625517 247.341143 
L 82.117042 247.296064 
L 91.698489 247.165849 
L 93.867963 246.917565 
L 95.829371 246.797929 
L 99.266827 246.620816 
L 99.270131 246.3021 
L 105.777449 246.157267 
L 106.270972 245.901826 
L 107.574392 245.774973 
L 107.67498 245.742632 
L 108.652408 245.701422 
L 109.07539 245.504618 
L 109.817233 245.332913 
L 111.183358 245.296835 
L 111.45148 245.169831 
L 114.164882 245.074915 
L 114.381923 244.345893 
L 115.130422 244.327847 
L 115.451068 244.171757 
L 116.140642 244.076586 
L 116.48222 243.603561 
L 117.102426 243.589845 
L 117.556757 243.442913 
L 121.177045 243.197167 
L 121.424784 242.316003 
L 122.926084 242.172449 
L 123.113224 241.793087 
L 123.368778 241.767906 
L 123.498053 236.182074 
L 124.029343 236.135775 
L 124.181947 233.891762 
L 124.369252 233.756129 
L 124.41073 233.702421 
L 125.313952 233.631082 
L 125.492629 233.395579 
L 125.818763 233.338513 
L 125.861695 232.986299 
L 126.898352 232.820411 
L 126.960826 232.626074 
L 127.058464 232.614376 
L 127.269312 232.313153 
L 128.584128 232.124789 
L 128.923625 232.030576 
L 129.581598 231.905402 
L 129.927517 231.804324 
L 130.467243 231.668913 
L 130.606507 231.628651 
L 130.610536 230.107454 
L 131.249858 229.980813 
L 131.592086 229.839472 
L 131.631062 229.668565 
L 132.280372 229.513499 
L 132.783049 229.315634 
L 133.842098 229.149224 
L 134.853785 228.914001 
L 134.989887 215.562218 
L 135.150324 215.481465 
L 135.408442 214.935584 
L 136.127437 214.801124 
L 136.580347 214.644895 
L 136.859397 214.52615 
L 137.208362 214.405165 
L 137.391953 214.280245 
L 137.56966 214.170522 
L 137.904612 213.985821 
L 137.925625 213.955002 
L 137.925988 213.773642 
L 138.292288 213.635109 
L 138.422965 213.55279 
L 138.492006 213.509739 
L 138.772708 208.360139 
L 139.019289 208.210902 
L 139.136785 208.189486 
L 140.730583 207.606732 
L 141.143416 207.474333 
L 142.93484 206.597543 
L 143.047891 205.961244 
L 143.478552 205.78119 
L 144.107416 205.599549 
L 144.816042 205.386977 
L 144.925768 205.315998 
L 145.445388 205.169001 
L 145.511575 204.868143 
L 145.936562 204.735637 
L 146.137933 204.659647 
L 146.754766 204.427389 
L 146.881839 204.368402 
L 147.948413 203.956922 
L 148.048286 203.922393 
L 148.183274 203.759604 
L 149.043119 203.392171 
L 149.160336 203.253099 
L 149.390686 203.143428 
L 149.561096 203.089919 
L 149.771324 202.930077 
L 151.137903 202.5401 
L 151.584277 202.392258 
L 152.071552 202.231043 
L 152.137952 202.186736 
L 152.800257 202.022908 
L 153.221447 201.827297 
L 153.812822 201.632872 
L 156.738446 200.735624 
L 156.844815 200.578098 
L 157.167983 200.461626 
L 160.480977 199.381986 
L 161.49599 199.18313 
L 164.620632 198.179414 
L 164.72852 198.017433 
L 165.570619 197.789178 
L 167.58247 197.178218 
L 168.812906 196.956098 
L 169.094186 196.817443 
L 171.401837 196.239807 
L 171.572551 196.205856 
L 172.52535 195.947288 
L 173.569006 195.709824 
L 177.765875 194.79632 
L 178.686874 194.646351 
L 188.054702 192.613967 
L 188.902593 192.453934 
L 189.12326 192.386681 
L 190.076496 192.226723 
L 191.300306 191.939314 
L 192.186354 191.736567 
L 192.34895 191.684182 
L 194.016128 191.367492 
L 197.287271 190.675046 
L 198.319129 190.499597 
L 203.11839 189.656683 
L 204.249859 189.440838 
L 204.265703 189.415755 
L 205.266202 189.230419 
L 205.392965 189.190608 
L 208.709432 188.623035 
L 208.783123 188.598138 
L 210.053062 188.444102 
L 210.05636 188.43554 
L 211.004089 188.306998 
L 211.222152 188.268854 
L 213.53275 187.941449 
L 214.846351 187.781245 
L 217.281007 187.521337 
L 219.941594 187.212563 
L 221.482559 187.009267 
L 241.217247 184.487739 
L 241.560074 184.457921 
L 243.527603 184.224633 
L 244.203877 184.106854 
L 245.697134 183.972238 
L 254.156619 183.211146 
L 254.317273 183.182386 
L 258.659172 182.81708 
L 261.404971 182.530151 
L 263.012214 182.377321 
L 263.227585 182.35043 
L 266.255896 182.089265 
L 266.256714 182.082657 
L 268.390994 181.942744 
L 268.738913 181.908488 
L 270.87872 181.751774 
L 271.166449 181.701717 
L 273.130239 181.53319 
L 297.697522 179.739077 
L 299.035176 179.615845 
L 299.035523 179.610966 
L 301.893776 179.414235 
L 310.099432 178.869768 
L 310.099432 178.869768 
" style="fill:none;stroke:#0000ff;stroke-linecap:square;stroke-width:1.5;"/>
    <defs>
     <path d="M 0 -3 
L -0.673542 -0.927051 
L -2.85317 -0.927051 
L -1.089814 0.354102 
L -1.763356 2.427051 
L -0 1.145898 
L 1.763356 2.427051 
L 1.089814 0.354102 
L 2.85317 -0.927051 
L 0.673542 -0.927051 
z
" id="m266c7c67e8" style="stroke:#0000ff;stroke-linejoin:bevel;"/>
    </defs>
    <g clip-path="url(#p510ff607ac)">
     <use style="fill:#0000ff;stroke:#0000ff;stroke-linejoin:bevel;" x="56.463068" xlink:href="#m266c7c67e8" y="247.475298"/>
     <use style="fill:#0000ff;stroke:#0000ff;stroke-linejoin:bevel;" x="126.070795" xlink:href="#m266c7c67e8" y="232.963195"/>
     <use style="fill:#0000ff;stroke:#0000ff;stroke-linejoin:bevel;" x="136.094471" xlink:href="#m266c7c67e8" y="214.808285"/>
     <use style="fill:#0000ff;stroke:#0000ff;stroke-linejoin:bevel;" x="140.603964" xlink:href="#m266c7c67e8" y="207.654281"/>
     <use style="fill:#0000ff;stroke:#0000ff;stroke-linejoin:bevel;" x="145.446506" xlink:href="#m266c7c67e8" y="204.915696"/>
     <use style="fill:#0000ff;stroke:#0000ff;stroke-linejoin:bevel;" x="149.84048" xlink:href="#m266c7c67e8" y="202.913848"/>
     <use style="fill:#0000ff;stroke:#0000ff;stroke-linejoin:bevel;" x="154.536644" xlink:href="#m266c7c67e8" y="201.373355"/>
     <use style="fill:#0000ff;stroke:#0000ff;stroke-linejoin:bevel;" x="159.659684" xlink:href="#m266c7c67e8" y="199.631656"/>
     <use style="fill:#0000ff;stroke:#0000ff;stroke-linejoin:bevel;" x="164.844411" xlink:href="#m266c7c67e8" y="197.97559"/>
     <use style="fill:#0000ff;stroke:#0000ff;stroke-linejoin:bevel;" x="170.2927" xlink:href="#m266c7c67e8" y="196.535745"/>
     <use style="fill:#0000ff;stroke:#0000ff;stroke-linejoin:bevel;" x="175.72921" xlink:href="#m266c7c67e8" y="195.159818"/>
     <use style="fill:#0000ff;stroke:#0000ff;stroke-linejoin:bevel;" x="182.239689" xlink:href="#m266c7c67e8" y="193.882134"/>
     <use style="fill:#0000ff;stroke:#0000ff;stroke-linejoin:bevel;" x="188.361358" xlink:href="#m266c7c67e8" y="192.582979"/>
     <use style="fill:#0000ff;stroke:#0000ff;stroke-linejoin:bevel;" x="194.864193" xlink:href="#m266c7c67e8" y="191.242105"/>
     <use style="fill:#0000ff;stroke:#0000ff;stroke-linejoin:bevel;" x="201.025661" xlink:href="#m266c7c67e8" y="189.96639"/>
     <use style="fill:#0000ff;stroke:#0000ff;stroke-linejoin:bevel;" x="207.893144" xlink:href="#m266c7c67e8" y="188.771397"/>
     <use style="fill:#0000ff;stroke:#0000ff;stroke-linejoin:bevel;" x="217.006402" xlink:href="#m266c7c67e8" y="187.555995"/>
     <use style="fill:#0000ff;stroke:#0000ff;stroke-linejoin:bevel;" x="225.209131" xlink:href="#m266c7c67e8" y="186.474142"/>
     <use style="fill:#0000ff;stroke:#0000ff;stroke-linejoin:bevel;" x="234.129657" xlink:href="#m266c7c67e8" y="185.3898"/>
     <use style="fill:#0000ff;stroke:#0000ff;stroke-linejoin:bevel;" x="242.387363" xlink:href="#m266c7c67e8" y="184.370089"/>
     <use style="fill:#0000ff;stroke:#0000ff;stroke-linejoin:bevel;" x="252.409012" xlink:href="#m266c7c67e8" y="183.360711"/>
     <use style="fill:#0000ff;stroke:#0000ff;stroke-linejoin:bevel;" x="262.555941" xlink:href="#m266c7c67e8" y="182.409886"/>
     <use style="fill:#0000ff;stroke:#0000ff;stroke-linejoin:bevel;" x="274.014035" xlink:href="#m266c7c67e8" y="181.493518"/>
     <use style="fill:#0000ff;stroke:#0000ff;stroke-linejoin:bevel;" x="284.747287" xlink:href="#m266c7c67e8" y="180.608057"/>
     <use style="fill:#0000ff;stroke:#0000ff;stroke-linejoin:bevel;" x="297.250681" xlink:href="#m266c7c67e8" y="179.759766"/>
     <use style="fill:#0000ff;stroke:#0000ff;stroke-linejoin:bevel;" x="308.876533" xlink:href="#m266c7c67e8" y="178.94121"/>
    </g>
   </g>
   <g id="line2d_15">
    <path clip-path="url(#p510ff607ac)" d="M 56.463068 246.1791 
L 74.579248 245.966512 
L 79.295315 245.520664 
L 88.397186 245.293377 
L 89.783987 245.005131 
L 91.698489 244.95211 
L 93.03115 244.198424 
L 93.336935 244.186878 
L 93.349162 244.040883 
L 93.867963 243.969147 
L 95.127118 243.944761 
L 95.491983 243.489844 
L 98.495314 243.214634 
L 98.71084 242.859548 
L 99.266827 242.806699 
L 99.270131 241.4035 
L 99.891599 241.397697 
L 101.483585 241.236603 
L 103.018548 241.126811 
L 103.070322 241.104965 
L 105.777449 241.041069 
L 106.270972 239.887954 
L 107.239125 239.798031 
L 107.67498 239.283823 
L 108.652408 239.147002 
L 108.914819 238.409975 
L 109.07539 238.373179 
L 109.239295 238.122803 
L 109.817233 237.698849 
L 111.183358 237.642133 
L 111.45148 237.186051 
L 113.721562 237.05097 
L 114.164882 236.97794 
L 114.381923 233.853007 
L 115.130422 233.775869 
L 115.451068 233.090223 
L 115.818579 233.075875 
L 116.140642 232.722062 
L 116.48222 230.642027 
L 117.102426 230.619119 
L 117.312572 230.101096 
L 117.949797 229.971119 
L 118.380303 229.666687 
L 119.370055 229.494758 
L 120.865731 229.360355 
L 120.873251 229.338647 
L 121.177045 229.285696 
L 121.424784 225.43511 
L 122.107832 225.280198 
L 122.119623 225.253301 
L 122.926084 225.114596 
L 123.113224 223.470368 
L 123.368778 223.420464 
L 123.498053 200.389683 
L 124.029343 200.299575 
L 124.181947 191.421081 
L 124.279515 191.400568 
L 124.41073 190.679026 
L 125.152986 190.526212 
L 125.313952 190.397608 
L 125.448559 189.476143 
L 125.818763 189.345246 
L 125.861695 187.833433 
L 126.311245 187.724953 
L 126.313691 187.62523 
L 126.814204 187.502007 
L 126.898352 187.431232 
L 126.960826 186.735783 
L 127.058464 186.71635 
L 127.269312 185.587069 
L 127.383264 185.555465 
L 127.526815 185.289329 
L 128.584128 185.055136 
L 128.731823 184.810512 
L 129.373957 184.614574 
L 129.581598 184.532639 
L 129.759956 184.154669 
L 130.175931 184.054089 
L 130.330351 183.743859 
L 130.606507 183.640549 
L 130.610536 177.663239 
L 130.852709 177.631184 
L 130.934453 177.336272 
L 131.430072 177.185198 
L 131.498835 177.155196 
L 131.7813 176.108105 
L 132.057168 176.008417 
L 132.25137 175.975626 
L 132.280372 175.78168 
L 132.657671 175.243173 
L 132.783049 175.029349 
L 133.15914 174.928492 
L 133.342128 174.734199 
L 133.842098 174.625328 
L 134.011875 174.462811 
L 134.311156 174.412145 
L 134.564228 174.1838 
L 134.825184 174.149986 
L 134.853785 174.017142 
L 134.989887 122.070071 
L 135.150324 121.789223 
L 135.408442 119.591659 
L 135.805227 119.47261 
L 135.895885 119.329849 
L 136.176825 119.241161 
L 136.233974 119.095082 
L 136.499831 118.940411 
L 136.67064 118.834323 
L 136.815776 118.633641 
L 137.320154 118.189349 
L 137.458074 117.591006 
L 137.604562 117.51802 
L 137.817674 117.096729 
L 137.925625 116.986576 
L 137.925988 116.228731 
L 138.270881 116.136342 
L 138.376722 115.703831 
L 138.492006 115.46374 
L 138.772708 95.19167 
L 138.99383 95.018175 
L 139.05926 94.815203 
L 139.171699 94.721299 
L 139.570585 94.409225 
L 139.73546 94.299853 
L 139.848698 94.035491 
L 139.952264 93.992599 
L 140.074808 93.794194 
L 140.138049 93.739664 
L 140.250438 93.529655 
L 141.46413 92.759949 
L 141.6769 92.472683 
L 141.832135 92.345035 
L 141.931889 91.666498 
L 142.10719 91.544029 
L 142.430181 91.43818 
L 142.570419 90.924548 
L 142.744594 90.830328 
L 142.834478 90.639769 
L 142.909032 90.601994 
L 143.145151 87.96053 
L 143.232685 87.725178 
L 143.266463 87.626408 
L 143.356129 87.601468 
L 143.500434 87.412936 
L 143.710498 87.276781 
L 144.824973 86.64276 
L 144.925768 86.51591 
L 145.111106 86.403602 
L 145.445388 86.216238 
L 145.511575 84.93121 
L 145.771548 84.799251 
L 146.18657 84.508382 
L 146.4591 84.339837 
L 146.567019 84.255352 
L 146.740086 84.153112 
L 146.925677 83.932447 
L 147.085335 83.869362 
L 147.411763 83.688849 
L 147.554889 83.445889 
L 147.691995 83.291022 
L 147.807572 83.207344 
L 148.048286 83.079381 
L 148.183274 82.516206 
L 148.507959 82.283168 
L 148.780205 82.159186 
L 148.952965 81.964004 
L 149.055223 81.355752 
L 149.300914 81.104332 
L 149.390686 80.898326 
L 149.561096 80.789778 
L 149.731614 80.381455 
L 150.00251 80.280472 
L 150.220646 80.079196 
L 150.408328 79.966686 
L 151.167921 79.580953 
L 151.584277 79.391458 
L 151.882201 79.287121 
L 152.001306 79.107603 
L 152.45539 78.900648 
L 152.572821 78.788793 
L 152.667589 78.768645 
L 152.913966 78.643498 
L 153.129961 78.419033 
L 153.763636 78.097001 
L 153.859348 77.933718 
L 154.096096 77.756475 
L 154.194139 77.613311 
L 154.545931 77.45155 
L 154.720667 77.269975 
L 155.282272 77.13723 
L 155.383455 76.974439 
L 155.783904 76.911644 
L 155.863242 76.770218 
L 156.065052 76.652664 
L 156.360078 76.131303 
L 156.738446 76.049198 
L 156.844815 75.415659 
L 157.126589 75.279403 
L 157.300122 75.108682 
L 157.468706 74.978943 
L 157.755123 74.824864 
L 158.088782 74.630192 
L 158.181545 74.362236 
L 158.634918 74.140985 
L 158.694818 74.048851 
L 159.118784 73.904849 
L 159.679589 73.644417 
L 159.980154 73.471279 
L 160.112802 73.380871 
L 161.289668 73.01848 
L 161.516034 72.904232 
L 161.863081 72.767249 
L 163.883586 71.611033 
L 164.105059 71.45825 
L 164.620632 71.188083 
L 164.72852 70.705412 
L 165.387223 70.451207 
L 165.793409 70.19543 
L 165.911943 70.109141 
L 165.987372 70.061097 
L 166.245185 69.976741 
L 166.448142 69.839619 
L 166.976081 69.582632 
L 168.246201 69.181841 
L 168.982841 68.836608 
L 169.119741 68.626426 
L 169.788007 68.371769 
L 169.91815 68.256752 
L 170.755726 67.964777 
L 171.401837 67.704955 
L 171.529177 67.670898 
L 173.77202 66.738266 
L 174.145256 66.49817 
L 176.717359 65.631806 
L 177.608599 65.433776 
L 178.03205 65.293151 
L 178.754674 65.116405 
L 179.399007 64.885639 
L 180.080835 64.726638 
L 180.122407 64.683075 
L 180.587809 64.497898 
L 181.559498 64.205506 
L 182.509183 63.919614 
L 182.560036 63.786806 
L 183.015744 63.653154 
L 183.058158 63.616868 
L 184.008659 63.364745 
L 184.153806 63.313487 
L 184.548513 63.170693 
L 185.271272 62.993306 
L 185.403145 62.86876 
L 186.026127 62.688995 
L 186.912527 62.409271 
L 187.497555 62.237299 
L 187.5546 62.200088 
L 188.429248 61.97657 
L 188.519932 61.859471 
L 189.035729 61.712655 
L 190.058715 61.444958 
L 190.154792 61.302978 
L 190.575904 61.14325 
L 190.688853 61.097444 
L 191.364429 60.914338 
L 191.466378 60.677708 
L 191.918491 60.5816 
L 192.428781 60.416905 
L 192.782187 60.351368 
L 195.41506 59.641705 
L 197.866183 58.894118 
L 198.386064 58.763766 
L 199.362409 58.490801 
L 201.025661 58.057037 
L 202.320021 57.774778 
L 202.962493 57.65289 
L 203.843929 57.423828 
L 203.924487 57.396187 
L 204.488846 57.241256 
L 204.895016 57.167845 
L 205.267636 57.028865 
L 205.500366 56.948599 
L 205.860018 56.803159 
L 206.313899 56.717429 
L 207.449964 56.507922 
L 207.848629 56.376714 
L 210.314046 55.866291 
L 210.626269 55.726844 
L 212.979669 55.32258 
L 213.236382 55.285124 
L 213.53275 55.173768 
L 213.793943 55.059173 
L 214.083944 55.011617 
L 218.815148 54.309425 
L 218.898678 54.280508 
L 222.464402 53.603526 
L 222.683754 53.55048 
L 223.952109 53.366425 
L 224.742507 53.222409 
L 232.731619 51.980425 
L 232.903098 51.916018 
L 233.998364 51.773724 
L 234.973262 51.626098 
L 236.008052 51.479203 
L 245.033609 49.991971 
L 246.366786 49.847305 
L 246.722406 49.781881 
L 250.275742 49.448178 
L 254.491551 48.892893 
L 256.783365 48.730102 
L 259.263562 48.363915 
L 261.404971 48.089593 
L 262.555941 47.939436 
L 263.227585 47.864447 
L 265.673556 47.60983 
L 266.579361 47.520163 
L 268.340997 47.370183 
L 268.738913 47.315585 
L 270.821559 47.149986 
L 270.891431 47.114211 
L 272.223083 46.961511 
L 272.264678 46.935116 
L 278.516165 46.368343 
L 282.301021 45.96273 
L 283.915275 45.812546 
L 285.572786 45.636259 
L 287.712824 45.405968 
L 290.126892 45.230866 
L 291.304509 45.145815 
L 293.63158 44.980484 
L 294.42643 44.912543 
L 296.909694 44.744353 
L 300.911316 44.379952 
L 302.591523 44.203963 
L 310.099432 43.63325 
L 310.099432 43.63325 
" style="fill:none;stroke:#008000;stroke-linecap:square;stroke-width:1.5;"/>
    <defs>
     <path d="M 0 -3 
L -0.673542 -0.927051 
L -2.85317 -0.927051 
L -1.089814 0.354102 
L -1.763356 2.427051 
L -0 1.145898 
L 1.763356 2.427051 
L 1.089814 0.354102 
L 2.85317 -0.927051 
L 0.673542 -0.927051 
z
" id="m9bb139c9c6" style="stroke:#008000;stroke-linejoin:bevel;"/>
    </defs>
    <g clip-path="url(#p510ff607ac)">
     <use style="fill:#008000;stroke:#008000;stroke-linejoin:bevel;" x="56.463068" xlink:href="#m9bb139c9c6" y="246.1791"/>
     <use style="fill:#008000;stroke:#008000;stroke-linejoin:bevel;" x="126.070795" xlink:href="#m9bb139c9c6" y="187.786715"/>
     <use style="fill:#008000;stroke:#008000;stroke-linejoin:bevel;" x="136.094471" xlink:href="#m9bb139c9c6" y="119.283216"/>
     <use style="fill:#008000;stroke:#008000;stroke-linejoin:bevel;" x="140.603964" xlink:href="#m9bb139c9c6" y="93.373518"/>
     <use style="fill:#008000;stroke:#008000;stroke-linejoin:bevel;" x="145.446506" xlink:href="#m9bb139c9c6" y="85.128572"/>
     <use style="fill:#008000;stroke:#008000;stroke-linejoin:bevel;" x="149.84048" xlink:href="#m9bb139c9c6" y="80.31923"/>
     <use style="fill:#008000;stroke:#008000;stroke-linejoin:bevel;" x="154.536644" xlink:href="#m9bb139c9c6" y="77.45505"/>
     <use style="fill:#008000;stroke:#008000;stroke-linejoin:bevel;" x="159.659684" xlink:href="#m9bb139c9c6" y="73.65843"/>
     <use style="fill:#008000;stroke:#008000;stroke-linejoin:bevel;" x="164.844411" xlink:href="#m9bb139c9c6" y="70.641845"/>
     <use style="fill:#008000;stroke:#008000;stroke-linejoin:bevel;" x="170.2927" xlink:href="#m9bb139c9c6" y="68.140859"/>
     <use style="fill:#008000;stroke:#008000;stroke-linejoin:bevel;" x="175.72921" xlink:href="#m9bb139c9c6" y="65.946287"/>
     <use style="fill:#008000;stroke:#008000;stroke-linejoin:bevel;" x="182.239689" xlink:href="#m9bb139c9c6" y="64.012479"/>
     <use style="fill:#008000;stroke:#008000;stroke-linejoin:bevel;" x="188.361358" xlink:href="#m9bb139c9c6" y="61.995548"/>
     <use style="fill:#008000;stroke:#008000;stroke-linejoin:bevel;" x="194.864193" xlink:href="#m9bb139c9c6" y="59.804338"/>
     <use style="fill:#008000;stroke:#008000;stroke-linejoin:bevel;" x="201.025661" xlink:href="#m9bb139c9c6" y="58.057037"/>
     <use style="fill:#008000;stroke:#008000;stroke-linejoin:bevel;" x="207.893144" xlink:href="#m9bb139c9c6" y="56.358744"/>
     <use style="fill:#008000;stroke:#008000;stroke-linejoin:bevel;" x="217.006402" xlink:href="#m9bb139c9c6" y="54.588273"/>
     <use style="fill:#008000;stroke:#008000;stroke-linejoin:bevel;" x="225.209131" xlink:href="#m9bb139c9c6" y="53.151352"/>
     <use style="fill:#008000;stroke:#008000;stroke-linejoin:bevel;" x="234.129657" xlink:href="#m9bb139c9c6" y="51.722285"/>
     <use style="fill:#008000;stroke:#008000;stroke-linejoin:bevel;" x="242.387363" xlink:href="#m9bb139c9c6" y="50.409003"/>
     <use style="fill:#008000;stroke:#008000;stroke-linejoin:bevel;" x="252.409012" xlink:href="#m9bb139c9c6" y="49.132017"/>
     <use style="fill:#008000;stroke:#008000;stroke-linejoin:bevel;" x="262.555941" xlink:href="#m9bb139c9c6" y="47.939436"/>
     <use style="fill:#008000;stroke:#008000;stroke-linejoin:bevel;" x="274.014035" xlink:href="#m9bb139c9c6" y="46.804062"/>
     <use style="fill:#008000;stroke:#008000;stroke-linejoin:bevel;" x="284.747287" xlink:href="#m9bb139c9c6" y="45.723506"/>
     <use style="fill:#008000;stroke:#008000;stroke-linejoin:bevel;" x="297.250681" xlink:href="#m9bb139c9c6" y="44.697718"/>
     <use style="fill:#008000;stroke:#008000;stroke-linejoin:bevel;" x="308.876533" xlink:href="#m9bb139c9c6" y="43.718681"/>
    </g>
   </g>
   <g id="line2d_16">
    <path clip-path="url(#p510ff607ac)" d="M 56.463068 246.187052 
L 74.579248 246.031608 
L 79.295315 245.68924 
L 88.780807 245.484556 
L 89.783987 245.299832 
L 91.698489 245.269511 
L 93.03115 244.677033 
L 93.336935 244.677033 
L 93.349162 244.563689 
L 95.127118 244.535273 
L 95.491983 244.173588 
L 98.495314 243.982231 
L 98.71084 243.721019 
L 99.266827 243.683564 
L 99.270131 242.599081 
L 102.299684 242.540421 
L 103.790588 242.440021 
L 105.777449 242.440021 
L 106.270972 241.553931 
L 107.403311 241.359617 
L 107.67498 241.119942 
L 108.652408 241.024332 
L 108.914819 240.50112 
L 109.07539 240.473712 
L 109.239295 240.28372 
L 109.817233 239.984019 
L 111.183358 239.973615 
L 111.45148 239.65477 
L 114.164882 239.551266 
L 114.381923 237.185073 
L 115.130422 237.135523 
L 115.451068 236.605967 
L 115.818579 236.605967 
L 116.140642 236.342383 
L 116.48222 234.781661 
L 117.102426 234.772469 
L 117.312572 234.385919 
L 119.370055 233.983996 
L 121.177045 233.87777 
L 121.424784 231.276032 
L 122.926084 231.167871 
L 123.113224 230.277786 
L 123.368778 230.2613 
L 123.498053 214.244195 
L 124.029343 214.20856 
L 124.181947 209.407489 
L 124.279515 209.407489 
L 124.41073 209.087116 
L 125.313952 209.079054 
L 125.448559 208.539285 
L 125.818763 208.539285 
L 125.861695 207.51041 
L 127.058464 207.486895 
L 127.269312 206.795272 
L 127.383264 206.787579 
L 127.526815 206.668281 
L 128.70484 206.599447 
L 128.849074 206.541534 
L 130.606507 206.505849 
L 130.610536 203.137091 
L 131.498835 203.137091 
L 131.757926 202.466276 
L 134.853785 202.419703 
L 134.989887 177.701057 
L 135.150324 177.701057 
L 135.408442 176.166902 
L 138.596416 176.160305 
L 138.659084 165.889422 
L 142.430181 165.793611 
L 142.570419 165.454005 
L 149.561096 165.401447 
L 149.711484 165.155559 
L 156.197183 165.108867 
L 156.292578 164.978748 
L 168.105348 164.895631 
L 168.273151 164.841957 
L 310.099432 164.732181 
L 310.099432 164.732181 
" style="fill:none;stroke:#ff0000;stroke-linecap:square;stroke-width:1.5;"/>
    <g clip-path="url(#p510ff607ac)">
     <use style="fill:#ff0000;stroke:#ff0000;stroke-linejoin:bevel;" x="56.463068" xlink:href="#m409c2ee00b" y="246.187052"/>
     <use style="fill:#ff0000;stroke:#ff0000;stroke-linejoin:bevel;" x="126.070795" xlink:href="#m409c2ee00b" y="207.49467"/>
     <use style="fill:#ff0000;stroke:#ff0000;stroke-linejoin:bevel;" x="136.094471" xlink:href="#m409c2ee00b" y="176.166902"/>
     <use style="fill:#ff0000;stroke:#ff0000;stroke-linejoin:bevel;" x="140.603964" xlink:href="#m409c2ee00b" y="165.883152"/>
     <use style="fill:#ff0000;stroke:#ff0000;stroke-linejoin:bevel;" x="145.446506" xlink:href="#m409c2ee00b" y="165.436045"/>
     <use style="fill:#ff0000;stroke:#ff0000;stroke-linejoin:bevel;" x="149.84048" xlink:href="#m409c2ee00b" y="165.155559"/>
     <use style="fill:#ff0000;stroke:#ff0000;stroke-linejoin:bevel;" x="154.536644" xlink:href="#m409c2ee00b" y="165.113883"/>
     <use style="fill:#ff0000;stroke:#ff0000;stroke-linejoin:bevel;" x="159.659684" xlink:href="#m409c2ee00b" y="164.917433"/>
     <use style="fill:#ff0000;stroke:#ff0000;stroke-linejoin:bevel;" x="164.844411" xlink:href="#m409c2ee00b" y="164.904092"/>
     <use style="fill:#ff0000;stroke:#ff0000;stroke-linejoin:bevel;" x="170.2927" xlink:href="#m409c2ee00b" y="164.841957"/>
     <use style="fill:#ff0000;stroke:#ff0000;stroke-linejoin:bevel;" x="175.72921" xlink:href="#m409c2ee00b" y="164.837956"/>
     <use style="fill:#ff0000;stroke:#ff0000;stroke-linejoin:bevel;" x="182.239689" xlink:href="#m409c2ee00b" y="164.830771"/>
     <use style="fill:#ff0000;stroke:#ff0000;stroke-linejoin:bevel;" x="188.361358" xlink:href="#m409c2ee00b" y="164.807689"/>
     <use style="fill:#ff0000;stroke:#ff0000;stroke-linejoin:bevel;" x="194.864193" xlink:href="#m409c2ee00b" y="164.798466"/>
     <use style="fill:#ff0000;stroke:#ff0000;stroke-linejoin:bevel;" x="201.025661" xlink:href="#m409c2ee00b" y="164.775356"/>
     <use style="fill:#ff0000;stroke:#ff0000;stroke-linejoin:bevel;" x="207.893144" xlink:href="#m409c2ee00b" y="164.770137"/>
     <use style="fill:#ff0000;stroke:#ff0000;stroke-linejoin:bevel;" x="217.006402" xlink:href="#m409c2ee00b" y="164.767628"/>
     <use style="fill:#ff0000;stroke:#ff0000;stroke-linejoin:bevel;" x="225.209131" xlink:href="#m409c2ee00b" y="164.765467"/>
     <use style="fill:#ff0000;stroke:#ff0000;stroke-linejoin:bevel;" x="234.129657" xlink:href="#m409c2ee00b" y="164.761629"/>
     <use style="fill:#ff0000;stroke:#ff0000;stroke-linejoin:bevel;" x="242.387363" xlink:href="#m409c2ee00b" y="164.757989"/>
     <use style="fill:#ff0000;stroke:#ff0000;stroke-linejoin:bevel;" x="252.409012" xlink:href="#m409c2ee00b" y="164.753068"/>
     <use style="fill:#ff0000;stroke:#ff0000;stroke-linejoin:bevel;" x="262.555941" xlink:href="#m409c2ee00b" y="164.745575"/>
     <use style="fill:#ff0000;stroke:#ff0000;stroke-linejoin:bevel;" x="274.014035" xlink:href="#m409c2ee00b" y="164.74286"/>
     <use style="fill:#ff0000;stroke:#ff0000;stroke-linejoin:bevel;" x="284.747287" xlink:href="#m409c2ee00b" y="164.740347"/>
     <use style="fill:#ff0000;stroke:#ff0000;stroke-linejoin:bevel;" x="297.250681" xlink:href="#m409c2ee00b" y="164.737037"/>
     <use style="fill:#ff0000;stroke:#ff0000;stroke-linejoin:bevel;" x="308.876533" xlink:href="#m409c2ee00b" y="164.732181"/>
    </g>
   </g>
   <g id="line2d_17">
    <path clip-path="url(#p510ff607ac)" d="M 56.463068 247.475298 
L 78.625517 247.341143 
L 82.117042 247.296064 
L 91.698489 247.165849 
L 93.867963 246.917565 
L 95.829371 246.797929 
L 99.266827 246.620816 
L 99.270131 246.3021 
L 105.777449 246.167703 
L 106.270972 245.912262 
L 107.574392 245.785409 
L 107.67498 245.753067 
L 108.652408 245.711857 
L 109.07539 245.515054 
L 109.817233 245.343349 
L 111.183358 245.307271 
L 111.45148 245.180267 
L 114.164882 245.085351 
L 114.381923 244.356329 
L 115.130422 244.338283 
L 115.451068 244.182193 
L 116.140642 244.087022 
L 116.48222 243.619302 
L 117.102426 243.605586 
L 117.556757 243.458654 
L 121.177045 243.22191 
L 121.424784 242.422309 
L 122.926084 242.292174 
L 123.113224 242.028983 
L 123.368778 242.012965 
L 123.498053 236.668483 
L 124.029343 236.626939 
L 124.181947 234.941907 
L 124.392649 234.815808 
L 124.626234 234.791963 
L 125.313952 234.77469 
L 125.448559 234.588309 
L 125.818763 234.531955 
L 125.861695 234.203602 
L 127.058464 234.040235 
L 127.269312 233.767871 
L 129.126116 233.537009 
L 130.606507 233.374726 
L 130.610536 232.157957 
L 131.498835 232.056635 
L 131.808549 231.788732 
L 134.853785 231.473128 
L 134.989887 222.319152 
L 135.150324 222.297329 
L 135.408442 221.777451 
L 136.67064 221.618758 
L 138.519314 221.197207 
L 138.596416 221.186487 
L 138.659084 217.472371 
L 139.430167 217.329469 
L 141.931889 216.906171 
L 142.430181 216.84406 
L 142.570419 216.706282 
L 146.518325 216.02277 
L 148.507959 215.61032 
L 148.984231 215.502451 
L 149.752462 215.3183 
L 150.00251 215.287891 
L 151.164118 215.107665 
L 151.257568 215.068253 
L 152.057717 214.962927 
L 152.243807 214.934961 
L 153.989384 214.64606 
L 154.545931 214.556002 
L 155.727966 214.450999 
L 161.516034 213.589016 
L 163.302148 213.390486 
L 163.695758 213.308303 
L 164.696896 213.125767 
L 164.830058 213.093585 
L 166.838791 212.793705 
L 171.627372 212.227608 
L 171.808179 212.197982 
L 172.823844 212.093606 
L 174.204975 211.925359 
L 175.605034 211.815051 
L 177.135772 211.665303 
L 178.837595 211.499117 
L 178.959226 211.479982 
L 179.399007 211.434517 
L 181.106061 211.254432 
L 181.802438 211.176599 
L 184.354058 210.974998 
L 185.403145 210.89199 
L 186.752749 210.780948 
L 188.506072 210.580074 
L 188.519932 210.566633 
L 190.385262 210.392872 
L 198.980774 209.6345 
L 201.157764 209.425249 
L 203.11839 209.314415 
L 205.081894 209.205408 
L 205.392965 209.155794 
L 207.449964 209.052839 
L 207.733783 209.028804 
L 209.133071 208.921456 
L 212.996049 208.68213 
L 220.241923 208.364924 
L 220.935327 208.333586 
L 255.01437 206.871405 
L 260.321826 206.656986 
L 262.224941 206.589457 
L 265.828657 206.480067 
L 265.858428 206.473272 
L 272.355183 206.278182 
L 278.224325 206.119519 
L 286.339854 205.905007 
L 286.74203 205.887841 
L 287.617434 205.86433 
L 299.261379 205.589315 
L 303.968249 205.488457 
L 309.850868 205.343868 
L 310.099432 205.334725 
L 310.099432 205.334725 
" style="fill:none;stroke:#0000ff;stroke-linecap:square;stroke-width:1.5;"/>
    <g clip-path="url(#p510ff607ac)">
     <use style="fill:#0000ff;stroke:#0000ff;stroke-linejoin:bevel;" x="56.463068" xlink:href="#m266c7c67e8" y="247.475298"/>
     <use style="fill:#0000ff;stroke:#0000ff;stroke-linejoin:bevel;" x="126.070795" xlink:href="#m266c7c67e8" y="234.18421"/>
     <use style="fill:#0000ff;stroke:#0000ff;stroke-linejoin:bevel;" x="136.094471" xlink:href="#m266c7c67e8" y="221.702392"/>
     <use style="fill:#0000ff;stroke:#0000ff;stroke-linejoin:bevel;" x="140.603964" xlink:href="#m266c7c67e8" y="217.143654"/>
     <use style="fill:#0000ff;stroke:#0000ff;stroke-linejoin:bevel;" x="145.446506" xlink:href="#m266c7c67e8" y="216.213802"/>
     <use style="fill:#0000ff;stroke:#0000ff;stroke-linejoin:bevel;" x="149.84048" xlink:href="#m266c7c67e8" y="215.300932"/>
     <use style="fill:#0000ff;stroke:#0000ff;stroke-linejoin:bevel;" x="154.536644" xlink:href="#m266c7c67e8" y="214.559503"/>
     <use style="fill:#0000ff;stroke:#0000ff;stroke-linejoin:bevel;" x="159.659684" xlink:href="#m266c7c67e8" y="213.812014"/>
     <use style="fill:#0000ff;stroke:#0000ff;stroke-linejoin:bevel;" x="164.844411" xlink:href="#m266c7c67e8" y="213.090679"/>
     <use style="fill:#0000ff;stroke:#0000ff;stroke-linejoin:bevel;" x="170.2927" xlink:href="#m266c7c67e8" y="212.414773"/>
     <use style="fill:#0000ff;stroke:#0000ff;stroke-linejoin:bevel;" x="175.72921" xlink:href="#m266c7c67e8" y="211.791489"/>
     <use style="fill:#0000ff;stroke:#0000ff;stroke-linejoin:bevel;" x="182.239689" xlink:href="#m266c7c67e8" y="211.163808"/>
     <use style="fill:#0000ff;stroke:#0000ff;stroke-linejoin:bevel;" x="188.361358" xlink:href="#m266c7c67e8" y="210.606628"/>
     <use style="fill:#0000ff;stroke:#0000ff;stroke-linejoin:bevel;" x="194.864193" xlink:href="#m266c7c67e8" y="209.980375"/>
     <use style="fill:#0000ff;stroke:#0000ff;stroke-linejoin:bevel;" x="201.025661" xlink:href="#m266c7c67e8" y="209.436348"/>
     <use style="fill:#0000ff;stroke:#0000ff;stroke-linejoin:bevel;" x="207.893144" xlink:href="#m266c7c67e8" y="209.008549"/>
     <use style="fill:#0000ff;stroke:#0000ff;stroke-linejoin:bevel;" x="217.006402" xlink:href="#m266c7c67e8" y="208.499854"/>
     <use style="fill:#0000ff;stroke:#0000ff;stroke-linejoin:bevel;" x="225.209131" xlink:href="#m266c7c67e8" y="208.080812"/>
     <use style="fill:#0000ff;stroke:#0000ff;stroke-linejoin:bevel;" x="234.129657" xlink:href="#m266c7c67e8" y="207.669571"/>
     <use style="fill:#0000ff;stroke:#0000ff;stroke-linejoin:bevel;" x="242.387363" xlink:href="#m266c7c67e8" y="207.29797"/>
     <use style="fill:#0000ff;stroke:#0000ff;stroke-linejoin:bevel;" x="252.409012" xlink:href="#m266c7c67e8" y="206.949079"/>
     <use style="fill:#0000ff;stroke:#0000ff;stroke-linejoin:bevel;" x="262.555941" xlink:href="#m266c7c67e8" y="206.578004"/>
     <use style="fill:#0000ff;stroke:#0000ff;stroke-linejoin:bevel;" x="274.014035" xlink:href="#m266c7c67e8" y="206.242448"/>
     <use style="fill:#0000ff;stroke:#0000ff;stroke-linejoin:bevel;" x="284.747287" xlink:href="#m266c7c67e8" y="205.969546"/>
     <use style="fill:#0000ff;stroke:#0000ff;stroke-linejoin:bevel;" x="297.250681" xlink:href="#m266c7c67e8" y="205.643108"/>
     <use style="fill:#0000ff;stroke:#0000ff;stroke-linejoin:bevel;" x="308.876533" xlink:href="#m266c7c67e8" y="205.358266"/>
    </g>
   </g>
   <g id="line2d_18">
    <path clip-path="url(#p510ff607ac)" d="M 56.463068 246.1791 
L 74.579248 245.966512 
L 79.295315 245.520664 
L 88.397186 245.293377 
L 89.783987 245.005131 
L 91.698489 244.95211 
L 93.03115 244.198424 
L 93.336935 244.186878 
L 93.349162 244.040883 
L 95.127118 243.959191 
L 95.491983 243.504275 
L 98.495314 243.229065 
L 98.71084 242.873979 
L 99.266827 242.82113 
L 99.270131 241.417931 
L 102.299684 241.297452 
L 103.790588 241.139329 
L 105.777449 241.124474 
L 106.270972 239.982942 
L 107.239125 239.893019 
L 107.67498 239.38976 
L 108.652408 239.25294 
L 108.914819 238.542312 
L 109.07539 238.505516 
L 109.239295 238.25514 
L 109.817233 237.844117 
L 111.183358 237.797636 
L 111.45148 237.351787 
L 113.721562 237.216707 
L 114.164882 237.153367 
L 114.381923 234.058151 
L 115.130422 233.990556 
L 115.451068 233.30491 
L 115.818579 233.299967 
L 116.140642 232.946154 
L 116.48222 230.917713 
L 117.102426 230.894805 
L 117.312572 230.376781 
L 117.949797 230.246804 
L 118.380303 229.942372 
L 119.370055 229.816891 
L 120.865731 229.682489 
L 120.873251 229.669381 
L 121.177045 229.616429 
L 121.424784 226.21509 
L 122.259407 226.093468 
L 122.328921 226.033384 
L 122.926084 225.976794 
L 123.113224 224.823519 
L 123.368778 224.791015 
L 123.498053 203.429428 
L 124.029343 203.352249 
L 124.181947 196.866146 
L 124.279515 196.858044 
L 124.41073 196.407501 
L 125.313952 196.370494 
L 125.448559 195.644343 
L 125.818763 195.58799 
L 125.861695 194.230762 
L 127.058464 194.04388 
L 127.269312 193.079893 
L 127.383264 193.060548 
L 127.526815 192.904882 
L 128.584128 192.788152 
L 128.731823 192.641857 
L 130.492296 192.416419 
L 130.606507 192.397325 
L 130.610536 187.811798 
L 131.498835 187.710476 
L 131.757926 186.791214 
L 132.280372 186.70956 
L 133.842098 186.582454 
L 134.011875 186.48712 
L 134.853785 186.409581 
L 134.989887 152.536959 
L 135.150324 152.515135 
L 135.408442 150.461103 
L 136.67064 150.30241 
L 138.519314 149.874262 
L 138.596416 149.863542 
L 138.659084 135.878543 
L 139.430167 135.735641 
L 142.430181 135.154421 
L 142.570419 134.677037 
L 144.436404 134.298988 
L 144.66542 134.269057 
L 145.446506 134.166597 
L 146.043004 134.060472 
L 146.695155 133.955367 
L 147.807572 133.677071 
L 148.730179 133.527673 
L 149.561096 133.351728 
L 149.731614 132.993784 
L 156.197183 131.987548 
L 156.292578 131.801708 
L 157.201976 131.692012 
L 157.736463 131.56409 
L 158.25541 131.457692 
L 158.476837 131.434064 
L 160.014353 131.167147 
L 161.377463 131.029039 
L 162.628503 130.918664 
L 163.73152 130.730717 
L 164.263948 130.621652 
L 164.416982 130.601191 
L 165.047316 130.490982 
L 166.303348 130.301752 
L 177.135772 129.020009 
L 178.837595 128.853823 
L 178.959226 128.831094 
L 179.256145 128.802544 
L 180.284928 128.692667 
L 180.540714 128.651966 
L 183.851362 128.373938 
L 184.153806 128.328331 
L 187.136609 128.060041 
L 190.232804 127.737319 
L 190.430719 127.706434 
L 192.843061 127.462447 
L 194.301032 127.351348 
L 196.255004 127.13912 
L 201.937938 126.665935 
L 204.428536 126.530689 
L 206.502881 126.398556 
L 211.141258 126.067339 
L 215.036368 125.866699 
L 218.586154 125.727803 
L 219.396637 125.684371 
L 221.723541 125.57521 
L 222.06566 125.533364 
L 224.1937 125.424108 
L 228.614751 125.225089 
L 230.693685 125.125605 
L 233.870505 124.980951 
L 236.524031 124.863727 
L 240.158613 124.687075 
L 240.578543 124.664495 
L 275.990502 123.443866 
L 279.527943 123.334392 
L 279.700026 123.325194 
L 284.826168 123.218469 
L 285.725899 123.195076 
L 289.889367 123.068787 
L 299.477476 122.838384 
L 300.762274 122.811577 
L 305.434002 122.702131 
L 308.609889 122.612852 
L 310.099432 122.583656 
L 310.099432 122.583656 
" style="fill:none;stroke:#008000;stroke-linecap:square;stroke-width:1.5;"/>
    <g clip-path="url(#p510ff607ac)">
     <use style="fill:#008000;stroke:#008000;stroke-linejoin:bevel;" x="56.463068" xlink:href="#m9bb139c9c6" y="246.1791"/>
     <use style="fill:#008000;stroke:#008000;stroke-linejoin:bevel;" x="126.070795" xlink:href="#m9bb139c9c6" y="194.19563"/>
     <use style="fill:#008000;stroke:#008000;stroke-linejoin:bevel;" x="136.094471" xlink:href="#m9bb139c9c6" y="150.386044"/>
     <use style="fill:#008000;stroke:#008000;stroke-linejoin:bevel;" x="140.603964" xlink:href="#m9bb139c9c6" y="135.543556"/>
     <use style="fill:#008000;stroke:#008000;stroke-linejoin:bevel;" x="145.446506" xlink:href="#m9bb139c9c6" y="134.166597"/>
     <use style="fill:#008000;stroke:#008000;stroke-linejoin:bevel;" x="149.84048" xlink:href="#m9bb139c9c6" y="132.973242"/>
     <use style="fill:#008000;stroke:#008000;stroke-linejoin:bevel;" x="154.536644" xlink:href="#m9bb139c9c6" y="132.190136"/>
     <use style="fill:#008000;stroke:#008000;stroke-linejoin:bevel;" x="159.659684" xlink:href="#m9bb139c9c6" y="131.246197"/>
     <use style="fill:#008000;stroke:#008000;stroke-linejoin:bevel;" x="164.844411" xlink:href="#m9bb139c9c6" y="130.511521"/>
     <use style="fill:#008000;stroke:#008000;stroke-linejoin:bevel;" x="170.2927" xlink:href="#m9bb139c9c6" y="129.77348"/>
     <use style="fill:#008000;stroke:#008000;stroke-linejoin:bevel;" x="175.72921" xlink:href="#m9bb139c9c6" y="129.146196"/>
     <use style="fill:#008000;stroke:#008000;stroke-linejoin:bevel;" x="182.239689" xlink:href="#m9bb139c9c6" y="128.511329"/>
     <use style="fill:#008000;stroke:#008000;stroke-linejoin:bevel;" x="188.361358" xlink:href="#m9bb139c9c6" y="127.931068"/>
     <use style="fill:#008000;stroke:#008000;stroke-linejoin:bevel;" x="194.864193" xlink:href="#m9bb139c9c6" y="127.295591"/>
     <use style="fill:#008000;stroke:#008000;stroke-linejoin:bevel;" x="201.025661" xlink:href="#m9bb139c9c6" y="126.728454"/>
     <use style="fill:#008000;stroke:#008000;stroke-linejoin:bevel;" x="207.893144" xlink:href="#m9bb139c9c6" y="126.295436"/>
     <use style="fill:#008000;stroke:#008000;stroke-linejoin:bevel;" x="217.006402" xlink:href="#m9bb139c9c6" y="125.784232"/>
     <use style="fill:#008000;stroke:#008000;stroke-linejoin:bevel;" x="225.209131" xlink:href="#m9bb139c9c6" y="125.363029"/>
     <use style="fill:#008000;stroke:#008000;stroke-linejoin:bevel;" x="234.129657" xlink:href="#m9bb139c9c6" y="124.94795"/>
     <use style="fill:#008000;stroke:#008000;stroke-linejoin:bevel;" x="242.387363" xlink:href="#m9bb139c9c6" y="124.572709"/>
     <use style="fill:#008000;stroke:#008000;stroke-linejoin:bevel;" x="252.409012" xlink:href="#m9bb139c9c6" y="124.218896"/>
     <use style="fill:#008000;stroke:#008000;stroke-linejoin:bevel;" x="262.555941" xlink:href="#m9bb139c9c6" y="123.840329"/>
     <use style="fill:#008000;stroke:#008000;stroke-linejoin:bevel;" x="274.014035" xlink:href="#m9bb139c9c6" y="123.502058"/>
     <use style="fill:#008000;stroke:#008000;stroke-linejoin:bevel;" x="284.747287" xlink:href="#m9bb139c9c6" y="123.226642"/>
     <use style="fill:#008000;stroke:#008000;stroke-linejoin:bevel;" x="297.250681" xlink:href="#m9bb139c9c6" y="122.896895"/>
     <use style="fill:#008000;stroke:#008000;stroke-linejoin:bevel;" x="308.876533" xlink:href="#m9bb139c9c6" y="122.607197"/>
    </g>
   </g>
   <g id="patch_3">
    <path d="M 43.78125 247.48325 
L 43.78125 43.63325 
" style="fill:none;stroke:#000000;stroke-linecap:square;stroke-linejoin:miter;stroke-width:0.8;"/>
   </g>
   <g id="patch_4">
    <path d="M 322.78125 247.48325 
L 322.78125 43.63325 
" style="fill:none;stroke:#000000;stroke-linecap:square;stroke-linejoin:miter;stroke-width:0.8;"/>
   </g>
   <g id="patch_5">
    <path d="M 43.78125 247.48325 
L 322.78125 247.48325 
" style="fill:none;stroke:#000000;stroke-linecap:square;stroke-linejoin:miter;stroke-width:0.8;"/>
   </g>
   <g id="patch_6">
    <path d="M 43.78125 43.63325 
L 322.78125 43.63325 
" style="fill:none;stroke:#000000;stroke-linecap:square;stroke-linejoin:miter;stroke-width:0.8;"/>
   </g>
   <g id="legend_1">
    <g id="patch_7">
     <path d="M 45.78125 39.55625 
L 257.26875 39.55625 
Q 259.26875 39.55625 259.26875 37.55625 
L 259.26875 9.2 
Q 259.26875 7.2 257.26875 7.2 
L 45.78125 7.2 
Q 43.78125 7.2 43.78125 9.2 
L 43.78125 37.55625 
Q 43.78125 39.55625 45.78125 39.55625 
z
" style="fill:#ffffff;opacity:0.8;stroke:#cccccc;stroke-linejoin:miter;"/>
    </g>
    <g id="line2d_19">
     <path d="M 47.78125 15.298437 
L 67.78125 15.298437 
" style="fill:none;stroke:#ff0000;stroke-linecap:square;stroke-width:1.5;"/>
    </g>
    <g id="line2d_20">
     <g>
      <use style="fill:#ff0000;stroke:#ff0000;stroke-linejoin:bevel;" x="57.78125" xlink:href="#m409c2ee00b" y="15.298437"/>
     </g>
    </g>
    <g id="text_15">
     <!-- pore -->
     <g transform="translate(75.78125 18.798437)scale(0.1 -0.1)">
      <use xlink:href="#DejaVuSans-70"/>
      <use x="63.476562" xlink:href="#DejaVuSans-6f"/>
      <use x="124.658203" xlink:href="#DejaVuSans-72"/>
      <use x="163.521484" xlink:href="#DejaVuSans-65"/>
     </g>
    </g>
    <g id="line2d_21">
     <path d="M 47.78125 29.976562 
L 67.78125 29.976562 
" style="fill:none;stroke:#0000ff;stroke-linecap:square;stroke-width:1.5;"/>
    </g>
    <g id="line2d_22">
     <g>
      <use style="fill:#0000ff;stroke:#0000ff;stroke-linejoin:bevel;" x="57.78125" xlink:href="#m266c7c67e8" y="29.976562"/>
     </g>
    </g>
    <g id="text_16">
     <!-- throat -->
     <g transform="translate(75.78125 33.476562)scale(0.1 -0.1)">
      <defs>
       <path d="M 3513 2113 
L 3513 0 
L 2938 0 
L 2938 2094 
Q 2938 2591 2744 2837 
Q 2550 3084 2163 3084 
Q 1697 3084 1428 2787 
Q 1159 2491 1159 1978 
L 1159 0 
L 581 0 
L 581 4863 
L 1159 4863 
L 1159 2956 
Q 1366 3272 1645 3428 
Q 1925 3584 2291 3584 
Q 2894 3584 3203 3211 
Q 3513 2838 3513 2113 
z
" id="DejaVuSans-68" transform="scale(0.015625)"/>
      </defs>
      <use xlink:href="#DejaVuSans-74"/>
      <use x="39.208984" xlink:href="#DejaVuSans-68"/>
      <use x="102.587891" xlink:href="#DejaVuSans-72"/>
      <use x="141.451172" xlink:href="#DejaVuSans-6f"/>
      <use x="202.632812" xlink:href="#DejaVuSans-61"/>
      <use x="263.912109" xlink:href="#DejaVuSans-74"/>
     </g>
    </g>
    <g id="line2d_23">
     <path d="M 126.092187 15.298437 
L 146.092187 15.298437 
" style="fill:none;stroke:#008000;stroke-linecap:square;stroke-width:1.5;"/>
    </g>
    <g id="line2d_24">
     <g>
      <use style="fill:#008000;stroke:#008000;stroke-linejoin:bevel;" x="136.092187" xlink:href="#m9bb139c9c6" y="15.298437"/>
     </g>
    </g>
    <g id="text_17">
     <!-- total -->
     <g transform="translate(154.092187 18.798437)scale(0.1 -0.1)">
      <use xlink:href="#DejaVuSans-74"/>
      <use x="39.208984" xlink:href="#DejaVuSans-6f"/>
      <use x="100.390625" xlink:href="#DejaVuSans-74"/>
      <use x="139.599609" xlink:href="#DejaVuSans-61"/>
      <use x="200.878906" xlink:href="#DejaVuSans-6c"/>
     </g>
    </g>
    <g id="line2d_25">
     <path d="M 126.092187 29.976562 
L 146.092187 29.976562 
" style="fill:none;stroke:#ff0000;stroke-linecap:square;stroke-width:1.5;"/>
    </g>
    <g id="line2d_26">
     <g>
      <use style="fill:#ff0000;stroke:#ff0000;stroke-linejoin:bevel;" x="136.092187" xlink:href="#m409c2ee00b" y="29.976562"/>
     </g>
    </g>
    <g id="text_18">
     <!-- pore -->
     <g transform="translate(154.092187 33.476562)scale(0.1 -0.1)">
      <use xlink:href="#DejaVuSans-70"/>
      <use x="63.476562" xlink:href="#DejaVuSans-6f"/>
      <use x="124.658203" xlink:href="#DejaVuSans-72"/>
      <use x="163.521484" xlink:href="#DejaVuSans-65"/>
     </g>
    </g>
    <g id="line2d_27">
     <path d="M 196.957812 15.298437 
L 216.957812 15.298437 
" style="fill:none;stroke:#0000ff;stroke-linecap:square;stroke-width:1.5;"/>
    </g>
    <g id="line2d_28">
     <g>
      <use style="fill:#0000ff;stroke:#0000ff;stroke-linejoin:bevel;" x="206.957812" xlink:href="#m266c7c67e8" y="15.298437"/>
     </g>
    </g>
    <g id="text_19">
     <!-- throat -->
     <g transform="translate(224.957812 18.798437)scale(0.1 -0.1)">
      <use xlink:href="#DejaVuSans-74"/>
      <use x="39.208984" xlink:href="#DejaVuSans-68"/>
      <use x="102.587891" xlink:href="#DejaVuSans-72"/>
      <use x="141.451172" xlink:href="#DejaVuSans-6f"/>
      <use x="202.632812" xlink:href="#DejaVuSans-61"/>
      <use x="263.912109" xlink:href="#DejaVuSans-74"/>
     </g>
    </g>
    <g id="line2d_29">
     <path d="M 196.957812 29.976562 
L 216.957812 29.976562 
" style="fill:none;stroke:#008000;stroke-linecap:square;stroke-width:1.5;"/>
    </g>
    <g id="line2d_30">
     <g>
      <use style="fill:#008000;stroke:#008000;stroke-linejoin:bevel;" x="206.957812" xlink:href="#m9bb139c9c6" y="29.976562"/>
     </g>
    </g>
    <g id="text_20">
     <!-- total -->
     <g transform="translate(224.957812 33.476562)scale(0.1 -0.1)">
      <use xlink:href="#DejaVuSans-74"/>
      <use x="39.208984" xlink:href="#DejaVuSans-6f"/>
      <use x="100.390625" xlink:href="#DejaVuSans-74"/>
      <use x="139.599609" xlink:href="#DejaVuSans-61"/>
      <use x="200.878906" xlink:href="#DejaVuSans-6c"/>
     </g>
    </g>
   </g>
  </g>
 </g>
 <defs>
  <clipPath id="p510ff607ac">
   <rect height="203.85" width="279" x="43.78125" y="43.63325"/>
  </clipPath>
 </defs>
</svg>