<?xml version="1.0" encoding="utf-8" standalone="no"?>
<!DOCTYPE svg PUBLIC "-//W3C//DTD SVG 1.1//EN"
  "http://www.w3.org/Graphics/SVG/1.1/DTD/svg11.dtd">
<!-- Created with matplotlib (https://matplotlib.org/) -->
<svg height="280.15625pt" version="1.1" viewBox="0 0 424.38125 280.15625" width="424.38125pt" xmlns="http://www.w3.org/2000/svg" xmlns:xlink="http://www.w3.org/1999/xlink">
 <defs>
  <style type="text/css">
*{stroke-linecap:butt;stroke-linejoin:round;}
  </style>
 </defs>
 <g id="figure_1">
  <g id="patch_1">
   <path d="M 0 280.15625 
L 424.38125 280.15625 
L 424.38125 0 
L 0 0 
z
" style="fill:none;"/>
  </g>
  <g id="axes_1">
   <g id="patch_2">
    <path d="M 43.78125 242.6 
L 417.18125 242.6 
L 417.18125 7.2 
L 43.78125 7.2 
z
" style="fill:#ffffff;"/>
   </g>
   <g id="PathCollection_1">
    <defs>
     <path d="M 0 11.18034 
C 2.965061 11.18034 5.80908 10.002309 7.905694 7.905694 
C 10.002309 5.80908 11.18034 2.965061 11.18034 0 
C 11.18034 -2.965061 10.002309 -5.80908 7.905694 -7.905694 
C 5.80908 -10.002309 2.965061 -11.18034 0 -11.18034 
C -2.965061 -11.18034 -5.80908 -10.002309 -7.905694 -7.905694 
C -10.002309 -5.80908 -11.18034 -2.965061 -11.18034 0 
C -11.18034 2.965061 -10.002309 5.80908 -7.905694 7.905694 
C -5.80908 10.002309 -2.965061 11.18034 0 11.18034 
z
" id="m56171d877a" style="stroke:#ff0000;"/>
    </defs>
    <g clip-path="url(#pdf29332a27)">
     <use style="fill:#ff0000;stroke:#ff0000;" x="297.328067" xlink:href="#m56171d877a" y="231.9"/>
     <use style="fill:#ff0000;stroke:#ff0000;" x="231.141179" xlink:href="#m56171d877a" y="182.397036"/>
     <use style="fill:#ff0000;stroke:#ff0000;" x="151.22689" xlink:href="#m56171d877a" y="215.502614"/>
     <use style="fill:#ff0000;stroke:#ff0000;" x="111.157057" xlink:href="#m56171d877a" y="112.672436"/>
     <use style="fill:#ff0000;stroke:#ff0000;" x="285.303101" xlink:href="#m56171d877a" y="166.123003"/>
     <use style="fill:#ff0000;stroke:#ff0000;" x="241.825013" xlink:href="#m56171d877a" y="202.442946"/>
     <use style="fill:#ff0000;stroke:#ff0000;" x="217.391628" xlink:href="#m56171d877a" y="131.639143"/>
     <use style="fill:#ff0000;stroke:#ff0000;" x="267.991015" xlink:href="#m56171d877a" y="91.11748"/>
     <use style="fill:#ff0000;stroke:#ff0000;" x="330.645055" xlink:href="#m56171d877a" y="159.485231"/>
     <use style="fill:#ff0000;stroke:#ff0000;" x="137.852742" xlink:href="#m56171d877a" y="35.889521"/>
     <use style="fill:#ff0000;stroke:#ff0000;" x="243.048193" xlink:href="#m56171d877a" y="38.168664"/>
     <use style="fill:#ff0000;stroke:#ff0000;" x="195.51307" xlink:href="#m56171d877a" y="53.850705"/>
     <use style="fill:#ff0000;stroke:#ff0000;" x="189.171043" xlink:href="#m56171d877a" y="196.90035"/>
     <use style="fill:#ff0000;stroke:#ff0000;" x="309.406331" xlink:href="#m56171d877a" y="200.263843"/>
     <use style="fill:#ff0000;stroke:#ff0000;" x="349.805443" xlink:href="#m56171d877a" y="126.231267"/>
     <use style="fill:#ff0000;stroke:#ff0000;" x="255.126574" xlink:href="#m56171d877a" y="17.9"/>
     <use style="fill:#ff0000;stroke:#ff0000;" x="119.729263" xlink:href="#m56171d877a" y="150.279291"/>
     <use style="fill:#ff0000;stroke:#ff0000;" x="190.434468" xlink:href="#m56171d877a" y="49.196843"/>
     <use style="fill:#ff0000;stroke:#ff0000;" x="186.603089" xlink:href="#m56171d877a" y="82.51648"/>
     <use style="fill:#ff0000;stroke:#ff0000;" x="323.674016" xlink:href="#m56171d877a" y="51.765996"/>
    </g>
   </g>
   <g id="matplotlib.axis_1">
    <g id="xtick_1">
     <g id="line2d_1">
      <defs>
       <path d="M 0 0 
L 0 3.5 
" id="md7a3efa4f1" style="stroke:#000000;stroke-width:0.8;"/>
      </defs>
      <g>
       <use style="stroke:#000000;stroke-width:0.8;" x="61.677488" xlink:href="#md7a3efa4f1" y="242.6"/>
      </g>
     </g>
     <g id="text_1">
      <!-- −0.2 -->
      <defs>
       <path d="M 10.59375 35.5 
L 73.1875 35.5 
L 73.1875 27.203125 
L 10.59375 27.203125 
z
" id="DejaVuSans-8722"/>
       <path d="M 31.78125 66.40625 
Q 24.171875 66.40625 20.328125 58.90625 
Q 16.5 51.421875 16.5 36.375 
Q 16.5 21.390625 20.328125 13.890625 
Q 24.171875 6.390625 31.78125 6.390625 
Q 39.453125 6.390625 43.28125 13.890625 
Q 47.125 21.390625 47.125 36.375 
Q 47.125 51.421875 43.28125 58.90625 
Q 39.453125 66.40625 31.78125 66.40625 
z
M 31.78125 74.21875 
Q 44.046875 74.21875 50.515625 64.515625 
Q 56.984375 54.828125 56.984375 36.375 
Q 56.984375 17.96875 50.515625 8.265625 
Q 44.046875 -1.421875 31.78125 -1.421875 
Q 19.53125 -1.421875 13.0625 8.265625 
Q 6.59375 17.96875 6.59375 36.375 
Q 6.59375 54.828125 13.0625 64.515625 
Q 19.53125 74.21875 31.78125 74.21875 
z
" id="DejaVuSans-48"/>
       <path d="M 10.6875 12.40625 
L 21 12.40625 
L 21 0 
L 10.6875 0 
z
" id="DejaVuSans-46"/>
       <path d="M 19.1875 8.296875 
L 53.609375 8.296875 
L 53.609375 0 
L 7.328125 0 
L 7.328125 8.296875 
Q 12.9375 14.109375 22.625 23.890625 
Q 32.328125 33.6875 34.8125 36.53125 
Q 39.546875 41.84375 41.421875 45.53125 
Q 43.3125 49.21875 43.3125 52.78125 
Q 43.3125 58.59375 39.234375 62.25 
Q 35.15625 65.921875 28.609375 65.921875 
Q 23.96875 65.921875 18.8125 64.3125 
Q 13.671875 62.703125 7.8125 59.421875 
L 7.8125 69.390625 
Q 13.765625 71.78125 18.9375 73 
Q 24.125 74.21875 28.421875 74.21875 
Q 39.75 74.21875 46.484375 68.546875 
Q 53.21875 62.890625 53.21875 53.421875 
Q 53.21875 48.921875 51.53125 44.890625 
Q 49.859375 40.875 45.40625 35.40625 
Q 44.1875 33.984375 37.640625 27.21875 
Q 31.109375 20.453125 19.1875 8.296875 
z
" id="DejaVuSans-50"/>
      </defs>
      <g transform="translate(49.536082 257.198437)scale(0.1 -0.1)">
       <use xlink:href="#DejaVuSans-8722"/>
       <use x="83.789062" xlink:href="#DejaVuSans-48"/>
       <use x="147.412109" xlink:href="#DejaVuSans-46"/>
       <use x="179.199219" xlink:href="#DejaVuSans-50"/>
      </g>
     </g>
    </g>
    <g id="xtick_2">
     <g id="line2d_2">
      <g>
       <use style="stroke:#000000;stroke-width:0.8;" x="110.199175" xlink:href="#md7a3efa4f1" y="242.6"/>
      </g>
     </g>
     <g id="text_2">
      <!-- 0.0 -->
      <g transform="translate(102.247612 257.198437)scale(0.1 -0.1)">
       <use xlink:href="#DejaVuSans-48"/>
       <use x="63.623047" xlink:href="#DejaVuSans-46"/>
       <use x="95.410156" xlink:href="#DejaVuSans-48"/>
      </g>
     </g>
    </g>
    <g id="xtick_3">
     <g id="line2d_3">
      <g>
       <use style="stroke:#000000;stroke-width:0.8;" x="158.720861" xlink:href="#md7a3efa4f1" y="242.6"/>
      </g>
     </g>
     <g id="text_3">
      <!-- 0.2 -->
      <g transform="translate(150.769299 257.198437)scale(0.1 -0.1)">
       <use xlink:href="#DejaVuSans-48"/>
       <use x="63.623047" xlink:href="#DejaVuSans-46"/>
       <use x="95.410156" xlink:href="#DejaVuSans-50"/>
      </g>
     </g>
    </g>
    <g id="xtick_4">
     <g id="line2d_4">
      <g>
       <use style="stroke:#000000;stroke-width:0.8;" x="207.242547" xlink:href="#md7a3efa4f1" y="242.6"/>
      </g>
     </g>
     <g id="text_4">
      <!-- 0.4 -->
      <defs>
       <path d="M 37.796875 64.3125 
L 12.890625 25.390625 
L 37.796875 25.390625 
z
M 35.203125 72.90625 
L 47.609375 72.90625 
L 47.609375 25.390625 
L 58.015625 25.390625 
L 58.015625 17.1875 
L 47.609375 17.1875 
L 47.609375 0 
L 37.796875 0 
L 37.796875 17.1875 
L 4.890625 17.1875 
L 4.890625 26.703125 
z
" id="DejaVuSans-52"/>
      </defs>
      <g transform="translate(199.290985 257.198437)scale(0.1 -0.1)">
       <use xlink:href="#DejaVuSans-48"/>
       <use x="63.623047" xlink:href="#DejaVuSans-46"/>
       <use x="95.410156" xlink:href="#DejaVuSans-52"/>
      </g>
     </g>
    </g>
    <g id="xtick_5">
     <g id="line2d_5">
      <g>
       <use style="stroke:#000000;stroke-width:0.8;" x="255.764234" xlink:href="#md7a3efa4f1" y="242.6"/>
      </g>
     </g>
     <g id="text_5">
      <!-- 0.6 -->
      <defs>
       <path d="M 33.015625 40.375 
Q 26.375 40.375 22.484375 35.828125 
Q 18.609375 31.296875 18.609375 23.390625 
Q 18.609375 15.53125 22.484375 10.953125 
Q 26.375 6.390625 33.015625 6.390625 
Q 39.65625 6.390625 43.53125 10.953125 
Q 47.40625 15.53125 47.40625 23.390625 
Q 47.40625 31.296875 43.53125 35.828125 
Q 39.65625 40.375 33.015625 40.375 
z
M 52.59375 71.296875 
L 52.59375 62.3125 
Q 48.875 64.0625 45.09375 64.984375 
Q 41.3125 65.921875 37.59375 65.921875 
Q 27.828125 65.921875 22.671875 59.328125 
Q 17.53125 52.734375 16.796875 39.40625 
Q 19.671875 43.65625 24.015625 45.921875 
Q 28.375 48.1875 33.59375 48.1875 
Q 44.578125 48.1875 50.953125 41.515625 
Q 57.328125 34.859375 57.328125 23.390625 
Q 57.328125 12.15625 50.6875 5.359375 
Q 44.046875 -1.421875 33.015625 -1.421875 
Q 20.359375 -1.421875 13.671875 8.265625 
Q 6.984375 17.96875 6.984375 36.375 
Q 6.984375 53.65625 15.1875 63.9375 
Q 23.390625 74.21875 37.203125 74.21875 
Q 40.921875 74.21875 44.703125 73.484375 
Q 48.484375 72.75 52.59375 71.296875 
z
" id="DejaVuSans-54"/>
      </defs>
      <g transform="translate(247.812671 257.198437)scale(0.1 -0.1)">
       <use xlink:href="#DejaVuSans-48"/>
       <use x="63.623047" xlink:href="#DejaVuSans-46"/>
       <use x="95.410156" xlink:href="#DejaVuSans-54"/>
      </g>
     </g>
    </g>
    <g id="xtick_6">
     <g id="line2d_6">
      <g>
       <use style="stroke:#000000;stroke-width:0.8;" x="304.28592" xlink:href="#md7a3efa4f1" y="242.6"/>
      </g>
     </g>
     <g id="text_6">
      <!-- 0.8 -->
      <defs>
       <path d="M 31.78125 34.625 
Q 24.75 34.625 20.71875 30.859375 
Q 16.703125 27.09375 16.703125 20.515625 
Q 16.703125 13.921875 20.71875 10.15625 
Q 24.75 6.390625 31.78125 6.390625 
Q 38.8125 6.390625 42.859375 10.171875 
Q 46.921875 13.96875 46.921875 20.515625 
Q 46.921875 27.09375 42.890625 30.859375 
Q 38.875 34.625 31.78125 34.625 
z
M 21.921875 38.8125 
Q 15.578125 40.375 12.03125 44.71875 
Q 8.5 49.078125 8.5 55.328125 
Q 8.5 64.0625 14.71875 69.140625 
Q 20.953125 74.21875 31.78125 74.21875 
Q 42.671875 74.21875 48.875 69.140625 
Q 55.078125 64.0625 55.078125 55.328125 
Q 55.078125 49.078125 51.53125 44.71875 
Q 48 40.375 41.703125 38.8125 
Q 48.828125 37.15625 52.796875 32.3125 
Q 56.78125 27.484375 56.78125 20.515625 
Q 56.78125 9.90625 50.3125 4.234375 
Q 43.84375 -1.421875 31.78125 -1.421875 
Q 19.734375 -1.421875 13.25 4.234375 
Q 6.78125 9.90625 6.78125 20.515625 
Q 6.78125 27.484375 10.78125 32.3125 
Q 14.796875 37.15625 21.921875 38.8125 
z
M 18.3125 54.390625 
Q 18.3125 48.734375 21.84375 45.5625 
Q 25.390625 42.390625 31.78125 42.390625 
Q 38.140625 42.390625 41.71875 45.5625 
Q 45.3125 48.734375 45.3125 54.390625 
Q 45.3125 60.0625 41.71875 63.234375 
Q 38.140625 66.40625 31.78125 66.40625 
Q 25.390625 66.40625 21.84375 63.234375 
Q 18.3125 60.0625 18.3125 54.390625 
z
" id="DejaVuSans-56"/>
      </defs>
      <g transform="translate(296.334358 257.198437)scale(0.1 -0.1)">
       <use xlink:href="#DejaVuSans-48"/>
       <use x="63.623047" xlink:href="#DejaVuSans-46"/>
       <use x="95.410156" xlink:href="#DejaVuSans-56"/>
      </g>
     </g>
    </g>
    <g id="xtick_7">
     <g id="line2d_7">
      <g>
       <use style="stroke:#000000;stroke-width:0.8;" x="352.807607" xlink:href="#md7a3efa4f1" y="242.6"/>
      </g>
     </g>
     <g id="text_7">
      <!-- 1.0 -->
      <defs>
       <path d="M 12.40625 8.296875 
L 28.515625 8.296875 
L 28.515625 63.921875 
L 10.984375 60.40625 
L 10.984375 69.390625 
L 28.421875 72.90625 
L 38.28125 72.90625 
L 38.28125 8.296875 
L 54.390625 8.296875 
L 54.390625 0 
L 12.40625 0 
z
" id="DejaVuSans-49"/>
      </defs>
      <g transform="translate(344.856044 257.198437)scale(0.1 -0.1)">
       <use xlink:href="#DejaVuSans-49"/>
       <use x="63.623047" xlink:href="#DejaVuSans-46"/>
       <use x="95.410156" xlink:href="#DejaVuSans-48"/>
      </g>
     </g>
    </g>
    <g id="xtick_8">
     <g id="line2d_8">
      <g>
       <use style="stroke:#000000;stroke-width:0.8;" x="401.329293" xlink:href="#md7a3efa4f1" y="242.6"/>
      </g>
     </g>
     <g id="text_8">
      <!-- 1.2 -->
      <g transform="translate(393.377731 257.198437)scale(0.1 -0.1)">
       <use xlink:href="#DejaVuSans-49"/>
       <use x="63.623047" xlink:href="#DejaVuSans-46"/>
       <use x="95.410156" xlink:href="#DejaVuSans-50"/>
      </g>
     </g>
    </g>
    <g id="text_9">
     <!-- X -->
     <defs>
      <path d="M 6.296875 72.90625 
L 16.890625 72.90625 
L 35.015625 45.796875 
L 53.21875 72.90625 
L 63.8125 72.90625 
L 40.375 37.890625 
L 65.375 0 
L 54.78125 0 
L 34.28125 31 
L 13.625 0 
L 2.984375 0 
L 29 38.921875 
z
" id="DejaVuSans-88"/>
     </defs>
     <g transform="translate(227.05625 270.876562)scale(0.1 -0.1)">
      <use xlink:href="#DejaVuSans-88"/>
     </g>
    </g>
   </g>
   <g id="matplotlib.axis_2">
    <g id="ytick_1">
     <g id="line2d_9">
      <defs>
       <path d="M 0 0 
L -3.5 0 
" id="m9bc95e383c" style="stroke:#000000;stroke-width:0.8;"/>
      </defs>
      <g>
       <use style="stroke:#000000;stroke-width:0.8;" x="43.78125" xlink:href="#m9bc95e383c" y="236.934598"/>
      </g>
     </g>
     <g id="text_10">
      <!-- 0.0 -->
      <g transform="translate(20.878125 240.733817)scale(0.1 -0.1)">
       <use xlink:href="#DejaVuSans-48"/>
       <use x="63.623047" xlink:href="#DejaVuSans-46"/>
       <use x="95.410156" xlink:href="#DejaVuSans-48"/>
      </g>
     </g>
    </g>
    <g id="ytick_2">
     <g id="line2d_10">
      <g>
       <use style="stroke:#000000;stroke-width:0.8;" x="43.78125" xlink:href="#m9bc95e383c" y="188.412911"/>
      </g>
     </g>
     <g id="text_11">
      <!-- 0.2 -->
      <g transform="translate(20.878125 192.21213)scale(0.1 -0.1)">
       <use xlink:href="#DejaVuSans-48"/>
       <use x="63.623047" xlink:href="#DejaVuSans-46"/>
       <use x="95.410156" xlink:href="#DejaVuSans-50"/>
      </g>
     </g>
    </g>
    <g id="ytick_3">
     <g id="line2d_11">
      <g>
       <use style="stroke:#000000;stroke-width:0.8;" x="43.78125" xlink:href="#m9bc95e383c" y="139.891225"/>
      </g>
     </g>
     <g id="text_12">
      <!-- 0.4 -->
      <g transform="translate(20.878125 143.690444)scale(0.1 -0.1)">
       <use xlink:href="#DejaVuSans-48"/>
       <use x="63.623047" xlink:href="#DejaVuSans-46"/>
       <use x="95.410156" xlink:href="#DejaVuSans-52"/>
      </g>
     </g>
    </g>
    <g id="ytick_4">
     <g id="line2d_12">
      <g>
       <use style="stroke:#000000;stroke-width:0.8;" x="43.78125" xlink:href="#m9bc95e383c" y="91.369539"/>
      </g>
     </g>
     <g id="text_13">
      <!-- 0.6 -->
      <g transform="translate(20.878125 95.168757)scale(0.1 -0.1)">
       <use xlink:href="#DejaVuSans-48"/>
       <use x="63.623047" xlink:href="#DejaVuSans-46"/>
       <use x="95.410156" xlink:href="#DejaVuSans-54"/>
      </g>
     </g>
    </g>
    <g id="ytick_5">
     <g id="line2d_13">
      <g>
       <use style="stroke:#000000;stroke-width:0.8;" x="43.78125" xlink:href="#m9bc95e383c" y="42.847852"/>
      </g>
     </g>
     <g id="text_14">
      <!-- 0.8 -->
      <g transform="translate(20.878125 46.647071)scale(0.1 -0.1)">
       <use xlink:href="#DejaVuSans-48"/>
       <use x="63.623047" xlink:href="#DejaVuSans-46"/>
       <use x="95.410156" xlink:href="#DejaVuSans-56"/>
      </g>
     </g>
    </g>
    <g id="text_15">
     <!-- Y -->
     <defs>
      <path d="M -0.203125 72.90625 
L 10.40625 72.90625 
L 30.609375 42.921875 
L 50.6875 72.90625 
L 61.28125 72.90625 
L 35.5 34.71875 
L 35.5 0 
L 25.59375 0 
L 25.59375 34.71875 
z
" id="DejaVuSans-89"/>
     </defs>
     <g transform="translate(14.798438 127.953906)rotate(-90)scale(0.1 -0.1)">
      <use xlink:href="#DejaVuSans-89"/>
     </g>
    </g>
   </g>
   <g id="LineCollection_1">
    <path clip-path="url(#pdf29332a27)" d="M 297.328067 231.9 
L 241.825013 202.442946 
" style="fill:none;stroke:#0000ff;"/>
    <path clip-path="url(#pdf29332a27)" d="M 297.328067 231.9 
L 309.406331 200.263843 
" style="fill:none;stroke:#0000ff;"/>
    <path clip-path="url(#pdf29332a27)" d="M 231.141179 182.397036 
L 285.303101 166.123003 
" style="fill:none;stroke:#0000ff;"/>
    <path clip-path="url(#pdf29332a27)" d="M 231.141179 182.397036 
L 241.825013 202.442946 
" style="fill:none;stroke:#0000ff;"/>
    <path clip-path="url(#pdf29332a27)" d="M 231.141179 182.397036 
L 217.391628 131.639143 
" style="fill:none;stroke:#0000ff;"/>
    <path clip-path="url(#pdf29332a27)" d="M 231.141179 182.397036 
L 189.171043 196.90035 
" style="fill:none;stroke:#0000ff;"/>
    <path clip-path="url(#pdf29332a27)" d="M 151.22689 215.502614 
L 189.171043 196.90035 
" style="fill:none;stroke:#0000ff;"/>
    <path clip-path="url(#pdf29332a27)" d="M 151.22689 215.502614 
L 119.729263 150.279291 
" style="fill:none;stroke:#0000ff;"/>
    <path clip-path="url(#pdf29332a27)" d="M 111.157057 112.672436 
L 137.852742 35.889521 
" style="fill:none;stroke:#0000ff;"/>
    <path clip-path="url(#pdf29332a27)" d="M 111.157057 112.672436 
L 119.729263 150.279291 
" style="fill:none;stroke:#0000ff;"/>
    <path clip-path="url(#pdf29332a27)" d="M 111.157057 112.672436 
L 186.603089 82.51648 
" style="fill:none;stroke:#0000ff;"/>
    <path clip-path="url(#pdf29332a27)" d="M 285.303101 166.123003 
L 241.825013 202.442946 
" style="fill:none;stroke:#0000ff;"/>
    <path clip-path="url(#pdf29332a27)" d="M 285.303101 166.123003 
L 217.391628 131.639143 
" style="fill:none;stroke:#0000ff;"/>
    <path clip-path="url(#pdf29332a27)" d="M 285.303101 166.123003 
L 267.991015 91.11748 
" style="fill:none;stroke:#0000ff;"/>
    <path clip-path="url(#pdf29332a27)" d="M 285.303101 166.123003 
L 330.645055 159.485231 
" style="fill:none;stroke:#0000ff;"/>
    <path clip-path="url(#pdf29332a27)" d="M 285.303101 166.123003 
L 309.406331 200.263843 
" style="fill:none;stroke:#0000ff;"/>
    <path clip-path="url(#pdf29332a27)" d="M 241.825013 202.442946 
L 189.171043 196.90035 
" style="fill:none;stroke:#0000ff;"/>
    <path clip-path="url(#pdf29332a27)" d="M 241.825013 202.442946 
L 309.406331 200.263843 
" style="fill:none;stroke:#0000ff;"/>
    <path clip-path="url(#pdf29332a27)" d="M 217.391628 131.639143 
L 267.991015 91.11748 
" style="fill:none;stroke:#0000ff;"/>
    <path clip-path="url(#pdf29332a27)" d="M 217.391628 131.639143 
L 189.171043 196.90035 
" style="fill:none;stroke:#0000ff;"/>
    <path clip-path="url(#pdf29332a27)" d="M 217.391628 131.639143 
L 119.729263 150.279291 
" style="fill:none;stroke:#0000ff;"/>
    <path clip-path="url(#pdf29332a27)" d="M 217.391628 131.639143 
L 186.603089 82.51648 
" style="fill:none;stroke:#0000ff;"/>
    <path clip-path="url(#pdf29332a27)" d="M 267.991015 91.11748 
L 330.645055 159.485231 
" style="fill:none;stroke:#0000ff;"/>
    <path clip-path="url(#pdf29332a27)" d="M 267.991015 91.11748 
L 243.048193 38.168664 
" style="fill:none;stroke:#0000ff;"/>
    <path clip-path="url(#pdf29332a27)" d="M 267.991015 91.11748 
L 195.51307 53.850705 
" style="fill:none;stroke:#0000ff;"/>
    <path clip-path="url(#pdf29332a27)" d="M 267.991015 91.11748 
L 349.805443 126.231267 
" style="fill:none;stroke:#0000ff;"/>
    <path clip-path="url(#pdf29332a27)" d="M 267.991015 91.11748 
L 186.603089 82.51648 
" style="fill:none;stroke:#0000ff;"/>
    <path clip-path="url(#pdf29332a27)" d="M 267.991015 91.11748 
L 323.674016 51.765996 
" style="fill:none;stroke:#0000ff;"/>
    <path clip-path="url(#pdf29332a27)" d="M 330.645055 159.485231 
L 309.406331 200.263843 
" style="fill:none;stroke:#0000ff;"/>
    <path clip-path="url(#pdf29332a27)" d="M 330.645055 159.485231 
L 349.805443 126.231267 
" style="fill:none;stroke:#0000ff;"/>
    <path clip-path="url(#pdf29332a27)" d="M 137.852742 35.889521 
L 190.434468 49.196843 
" style="fill:none;stroke:#0000ff;"/>
    <path clip-path="url(#pdf29332a27)" d="M 137.852742 35.889521 
L 186.603089 82.51648 
" style="fill:none;stroke:#0000ff;"/>
    <path clip-path="url(#pdf29332a27)" d="M 243.048193 38.168664 
L 195.51307 53.850705 
" style="fill:none;stroke:#0000ff;"/>
    <path clip-path="url(#pdf29332a27)" d="M 243.048193 38.168664 
L 255.126574 17.9 
" style="fill:none;stroke:#0000ff;"/>
    <path clip-path="url(#pdf29332a27)" d="M 243.048193 38.168664 
L 190.434468 49.196843 
" style="fill:none;stroke:#0000ff;"/>
    <path clip-path="url(#pdf29332a27)" d="M 243.048193 38.168664 
L 323.674016 51.765996 
" style="fill:none;stroke:#0000ff;"/>
    <path clip-path="url(#pdf29332a27)" d="M 195.51307 53.850705 
L 190.434468 49.196843 
" style="fill:none;stroke:#0000ff;"/>
    <path clip-path="url(#pdf29332a27)" d="M 195.51307 53.850705 
L 186.603089 82.51648 
" style="fill:none;stroke:#0000ff;"/>
    <path clip-path="url(#pdf29332a27)" d="M 189.171043 196.90035 
L 119.729263 150.279291 
" style="fill:none;stroke:#0000ff;"/>
    <path clip-path="url(#pdf29332a27)" d="M 349.805443 126.231267 
L 323.674016 51.765996 
" style="fill:none;stroke:#0000ff;"/>
    <path clip-path="url(#pdf29332a27)" d="M 255.126574 17.9 
L 190.434468 49.196843 
" style="fill:none;stroke:#0000ff;"/>
    <path clip-path="url(#pdf29332a27)" d="M 255.126574 17.9 
L 323.674016 51.765996 
" style="fill:none;stroke:#0000ff;"/>
    <path clip-path="url(#pdf29332a27)" d="M 119.729263 150.279291 
L 186.603089 82.51648 
" style="fill:none;stroke:#0000ff;"/>
    <path clip-path="url(#pdf29332a27)" d="M 190.434468 49.196843 
L 186.603089 82.51648 
" style="fill:none;stroke:#0000ff;"/>
   </g>
   <g id="patch_3">
    <path d="M 43.78125 242.6 
L 43.78125 7.2 
" style="fill:none;stroke:#000000;stroke-linecap:square;stroke-linejoin:miter;stroke-width:0.8;"/>
   </g>
   <g id="patch_4">
    <path d="M 417.18125 242.6 
L 417.18125 7.2 
" style="fill:none;stroke:#000000;stroke-linecap:square;stroke-linejoin:miter;stroke-width:0.8;"/>
   </g>
   <g id="patch_5">
    <path d="M 43.78125 242.6 
L 417.18125 242.6 
" style="fill:none;stroke:#000000;stroke-linecap:square;stroke-linejoin:miter;stroke-width:0.8;"/>
   </g>
   <g id="patch_6">
    <path d="M 43.78125 7.2 
L 417.18125 7.2 
" style="fill:none;stroke:#000000;stroke-linecap:square;stroke-linejoin:miter;stroke-width:0.8;"/>
   </g>
  </g>
 </g>
 <defs>
  <clipPath id="pdf29332a27">
   <rect height="235.4" width="373.4" x="43.78125" y="7.2"/>
  </clipPath>
 </defs>
</svg>