<?xml version="1.0" encoding="utf-8" standalone="no"?>
<!DOCTYPE svg PUBLIC "-//W3C//DTD SVG 1.1//EN"
  "http://www.w3.org/Graphics/SVG/1.1/DTD/svg11.dtd">
<svg height="326.154687pt" version="1.1" viewBox="0 0 323.370206 326.154687" width="323.370206pt" xmlns="http://www.w3.org/2000/svg" xmlns:xlink="http://www.w3.org/1999/xlink">
 <metadata>
  <rdf:RDF xmlns:cc="http://creativecommons.org/ns#" xmlns:dc="http://purl.org/dc/elements/1.1/" xmlns:rdf="http://www.w3.org/1999/02/22-rdf-syntax-ns#">
   <cc:Work>
    <dc:type rdf:resource="http://purl.org/dc/dcmitype/StillImage"/>
    <dc:date>2021-06-24T07:26:05.039898</dc:date>
    <dc:format>image/svg+xml</dc:format>
    <dc:creator>
     <cc:Agent>
      <dc:title>Matplotlib v3.4.2, https://matplotlib.org/</dc:title>
     </cc:Agent>
    </dc:creator>
   </cc:Work>
  </rdf:RDF>
 </metadata>
 <defs>
  <style type="text/css">*{stroke-linecap:butt;stroke-linejoin:round;}</style>
 </defs>
 <g id="figure_1">
  <g id="patch_1">
   <path d="M 0 326.154687 
L 323.370206 326.154687 
L 323.370206 0 
L 0 0 
z
" style="fill:none;"/>
  </g>
  <g id="axes_1">
   <g id="patch_2">
    <path d="M 35.304688 289.598437 
L 314.304688 289.598437 
L 314.304688 17.798437 
L 35.304688 17.798437 
z
" style="fill:#ffffff;"/>
   </g>
   <g id="PathCollection_1">
    <defs>
     <path d="M 0 3 
C 0.795609 3 1.55874 2.683901 2.12132 2.12132 
C 2.683901 1.55874 3 0.795609 3 0 
C 3 -0.795609 2.683901 -1.55874 2.12132 -2.12132 
C 1.55874 -2.683901 0.795609 -3 0 -3 
C -0.795609 -3 -1.55874 -2.683901 -2.12132 -2.12132 
C -2.683901 -1.55874 -3 -0.795609 -3 0 
C -3 0.795609 -2.683901 1.55874 -2.12132 2.12132 
C -1.55874 2.683901 -0.795609 3 0 3 
z
" id="ma0f67f5518" style="stroke:#1f77b4;"/>
    </defs>
    <g clip-path="url(#p1274385b29)">
     <use style="fill:#1f77b4;stroke:#1f77b4;" x="183.518816" xlink:href="#ma0f67f5518" y="30.152983"/>
    </g>
   </g>
   <g id="matplotlib.axis_1">
    <g id="xtick_1">
     <g id="line2d_1">
      <defs>
       <path d="M 0 0 
L 0 3.5 
" id="m64ef1b3314" style="stroke:#000000;stroke-width:0.8;"/>
      </defs>
      <g>
       <use style="stroke:#000000;stroke-width:0.8;" x="57.398199" xlink:href="#m64ef1b3314" y="289.598437"/>
      </g>
     </g>
     <g id="text_1">
      <!-- −10 -->
      <g transform="translate(46.845855 304.196875)scale(0.1 -0.1)">
       <defs>
        <path d="M 678 2272 
L 4684 2272 
L 4684 1741 
L 678 1741 
L 678 2272 
z
" id="DejaVuSans-2212" transform="scale(0.015625)"/>
        <path d="M 794 531 
L 1825 531 
L 1825 4091 
L 703 3866 
L 703 4441 
L 1819 4666 
L 2450 4666 
L 2450 531 
L 3481 531 
L 3481 0 
L 794 0 
L 794 531 
z
" id="DejaVuSans-31" transform="scale(0.015625)"/>
        <path d="M 2034 4250 
Q 1547 4250 1301 3770 
Q 1056 3291 1056 2328 
Q 1056 1369 1301 889 
Q 1547 409 2034 409 
Q 2525 409 2770 889 
Q 3016 1369 3016 2328 
Q 3016 3291 2770 3770 
Q 2525 4250 2034 4250 
z
M 2034 4750 
Q 2819 4750 3233 4129 
Q 3647 3509 3647 2328 
Q 3647 1150 3233 529 
Q 2819 -91 2034 -91 
Q 1250 -91 836 529 
Q 422 1150 422 2328 
Q 422 3509 836 4129 
Q 1250 4750 2034 4750 
z
" id="DejaVuSans-30" transform="scale(0.015625)"/>
       </defs>
       <use xlink:href="#DejaVuSans-2212"/>
       <use x="83.789062" xlink:href="#DejaVuSans-31"/>
       <use x="147.412109" xlink:href="#DejaVuSans-30"/>
      </g>
     </g>
    </g>
    <g id="xtick_2">
     <g id="line2d_2">
      <g>
       <use style="stroke:#000000;stroke-width:0.8;" x="99.46645" xlink:href="#m64ef1b3314" y="289.598437"/>
      </g>
     </g>
     <g id="text_2">
      <!-- −5 -->
      <g transform="translate(92.095356 304.196875)scale(0.1 -0.1)">
       <defs>
        <path d="M 691 4666 
L 3169 4666 
L 3169 4134 
L 1269 4134 
L 1269 2991 
Q 1406 3038 1543 3061 
Q 1681 3084 1819 3084 
Q 2600 3084 3056 2656 
Q 3513 2228 3513 1497 
Q 3513 744 3044 326 
Q 2575 -91 1722 -91 
Q 1428 -91 1123 -41 
Q 819 9 494 109 
L 494 744 
Q 775 591 1075 516 
Q 1375 441 1709 441 
Q 2250 441 2565 725 
Q 2881 1009 2881 1497 
Q 2881 1984 2565 2268 
Q 2250 2553 1709 2553 
Q 1456 2553 1204 2497 
Q 953 2441 691 2322 
L 691 4666 
z
" id="DejaVuSans-35" transform="scale(0.015625)"/>
       </defs>
       <use xlink:href="#DejaVuSans-2212"/>
       <use x="83.789062" xlink:href="#DejaVuSans-35"/>
      </g>
     </g>
    </g>
    <g id="xtick_3">
     <g id="line2d_3">
      <g>
       <use style="stroke:#000000;stroke-width:0.8;" x="141.534701" xlink:href="#m64ef1b3314" y="289.598437"/>
      </g>
     </g>
     <g id="text_3">
      <!-- 0 -->
      <g transform="translate(138.353451 304.196875)scale(0.1 -0.1)">
       <use xlink:href="#DejaVuSans-30"/>
      </g>
     </g>
    </g>
    <g id="xtick_4">
     <g id="line2d_4">
      <g>
       <use style="stroke:#000000;stroke-width:0.8;" x="183.602953" xlink:href="#m64ef1b3314" y="289.598437"/>
      </g>
     </g>
     <g id="text_4">
      <!-- 5 -->
      <g transform="translate(180.421703 304.196875)scale(0.1 -0.1)">
       <use xlink:href="#DejaVuSans-35"/>
      </g>
     </g>
    </g>
    <g id="xtick_5">
     <g id="line2d_5">
      <g>
       <use style="stroke:#000000;stroke-width:0.8;" x="225.671204" xlink:href="#m64ef1b3314" y="289.598437"/>
      </g>
     </g>
     <g id="text_5">
      <!-- 10 -->
      <g transform="translate(219.308704 304.196875)scale(0.1 -0.1)">
       <use xlink:href="#DejaVuSans-31"/>
       <use x="63.623047" xlink:href="#DejaVuSans-30"/>
      </g>
     </g>
    </g>
    <g id="xtick_6">
     <g id="line2d_6">
      <g>
       <use style="stroke:#000000;stroke-width:0.8;" x="267.739455" xlink:href="#m64ef1b3314" y="289.598437"/>
      </g>
     </g>
     <g id="text_6">
      <!-- 15 -->
      <g transform="translate(261.376955 304.196875)scale(0.1 -0.1)">
       <use xlink:href="#DejaVuSans-31"/>
       <use x="63.623047" xlink:href="#DejaVuSans-35"/>
      </g>
     </g>
    </g>
    <g id="xtick_7">
     <g id="line2d_7">
      <g>
       <use style="stroke:#000000;stroke-width:0.8;" x="309.807706" xlink:href="#m64ef1b3314" y="289.598437"/>
      </g>
     </g>
     <g id="text_7">
      <!-- 20 -->
      <g transform="translate(303.445206 304.196875)scale(0.1 -0.1)">
       <defs>
        <path d="M 1228 531 
L 3431 531 
L 3431 0 
L 469 0 
L 469 531 
Q 828 903 1448 1529 
Q 2069 2156 2228 2338 
Q 2531 2678 2651 2914 
Q 2772 3150 2772 3378 
Q 2772 3750 2511 3984 
Q 2250 4219 1831 4219 
Q 1534 4219 1204 4116 
Q 875 4013 500 3803 
L 500 4441 
Q 881 4594 1212 4672 
Q 1544 4750 1819 4750 
Q 2544 4750 2975 4387 
Q 3406 4025 3406 3419 
Q 3406 3131 3298 2873 
Q 3191 2616 2906 2266 
Q 2828 2175 2409 1742 
Q 1991 1309 1228 531 
z
" id="DejaVuSans-32" transform="scale(0.015625)"/>
       </defs>
       <use xlink:href="#DejaVuSans-32"/>
       <use x="63.623047" xlink:href="#DejaVuSans-30"/>
      </g>
     </g>
    </g>
    <g id="text_8">
     <!-- 1e−6 -->
     <g transform="translate(287.046875 316.875)scale(0.1 -0.1)">
      <defs>
       <path d="M 3597 1894 
L 3597 1613 
L 953 1613 
Q 991 1019 1311 708 
Q 1631 397 2203 397 
Q 2534 397 2845 478 
Q 3156 559 3463 722 
L 3463 178 
Q 3153 47 2828 -22 
Q 2503 -91 2169 -91 
Q 1331 -91 842 396 
Q 353 884 353 1716 
Q 353 2575 817 3079 
Q 1281 3584 2069 3584 
Q 2775 3584 3186 3129 
Q 3597 2675 3597 1894 
z
M 3022 2063 
Q 3016 2534 2758 2815 
Q 2500 3097 2075 3097 
Q 1594 3097 1305 2825 
Q 1016 2553 972 2059 
L 3022 2063 
z
" id="DejaVuSans-65" transform="scale(0.015625)"/>
       <path d="M 2113 2584 
Q 1688 2584 1439 2293 
Q 1191 2003 1191 1497 
Q 1191 994 1439 701 
Q 1688 409 2113 409 
Q 2538 409 2786 701 
Q 3034 994 3034 1497 
Q 3034 2003 2786 2293 
Q 2538 2584 2113 2584 
z
M 3366 4563 
L 3366 3988 
Q 3128 4100 2886 4159 
Q 2644 4219 2406 4219 
Q 1781 4219 1451 3797 
Q 1122 3375 1075 2522 
Q 1259 2794 1537 2939 
Q 1816 3084 2150 3084 
Q 2853 3084 3261 2657 
Q 3669 2231 3669 1497 
Q 3669 778 3244 343 
Q 2819 -91 2113 -91 
Q 1303 -91 875 529 
Q 447 1150 447 2328 
Q 447 3434 972 4092 
Q 1497 4750 2381 4750 
Q 2619 4750 2861 4703 
Q 3103 4656 3366 4563 
z
" id="DejaVuSans-36" transform="scale(0.015625)"/>
      </defs>
      <use xlink:href="#DejaVuSans-31"/>
      <use x="63.623047" xlink:href="#DejaVuSans-65"/>
      <use x="125.146484" xlink:href="#DejaVuSans-2212"/>
      <use x="208.935547" xlink:href="#DejaVuSans-36"/>
     </g>
    </g>
   </g>
   <g id="matplotlib.axis_2">
    <g id="ytick_1">
     <g id="line2d_8">
      <defs>
       <path d="M 0 0 
L -3.5 0 
" id="ma9c9fc7416" style="stroke:#000000;stroke-width:0.8;"/>
      </defs>
      <g>
       <use style="stroke:#000000;stroke-width:0.8;" x="35.304688" xlink:href="#ma9c9fc7416" y="279.903191"/>
      </g>
     </g>
     <g id="text_9">
      <!-- −15 -->
      <g transform="translate(7.2 283.70241)scale(0.1 -0.1)">
       <use xlink:href="#DejaVuSans-2212"/>
       <use x="83.789062" xlink:href="#DejaVuSans-31"/>
       <use x="147.412109" xlink:href="#DejaVuSans-35"/>
      </g>
     </g>
    </g>
    <g id="ytick_2">
     <g id="line2d_9">
      <g>
       <use style="stroke:#000000;stroke-width:0.8;" x="35.304688" xlink:href="#ma9c9fc7416" y="237.83494"/>
      </g>
     </g>
     <g id="text_10">
      <!-- −10 -->
      <g transform="translate(7.2 241.634159)scale(0.1 -0.1)">
       <use xlink:href="#DejaVuSans-2212"/>
       <use x="83.789062" xlink:href="#DejaVuSans-31"/>
       <use x="147.412109" xlink:href="#DejaVuSans-30"/>
      </g>
     </g>
    </g>
    <g id="ytick_3">
     <g id="line2d_10">
      <g>
       <use style="stroke:#000000;stroke-width:0.8;" x="35.304688" xlink:href="#ma9c9fc7416" y="195.766689"/>
      </g>
     </g>
     <g id="text_11">
      <!-- −5 -->
      <g transform="translate(13.5625 199.565907)scale(0.1 -0.1)">
       <use xlink:href="#DejaVuSans-2212"/>
       <use x="83.789062" xlink:href="#DejaVuSans-35"/>
      </g>
     </g>
    </g>
    <g id="ytick_4">
     <g id="line2d_11">
      <g>
       <use style="stroke:#000000;stroke-width:0.8;" x="35.304688" xlink:href="#ma9c9fc7416" y="153.698437"/>
      </g>
     </g>
     <g id="text_12">
      <!-- 0 -->
      <g transform="translate(21.942187 157.497656)scale(0.1 -0.1)">
       <use xlink:href="#DejaVuSans-30"/>
      </g>
     </g>
    </g>
    <g id="ytick_5">
     <g id="line2d_12">
      <g>
       <use style="stroke:#000000;stroke-width:0.8;" x="35.304688" xlink:href="#ma9c9fc7416" y="111.630186"/>
      </g>
     </g>
     <g id="text_13">
      <!-- 5 -->
      <g transform="translate(21.942187 115.429405)scale(0.1 -0.1)">
       <use xlink:href="#DejaVuSans-35"/>
      </g>
     </g>
    </g>
    <g id="ytick_6">
     <g id="line2d_13">
      <g>
       <use style="stroke:#000000;stroke-width:0.8;" x="35.304688" xlink:href="#ma9c9fc7416" y="69.561935"/>
      </g>
     </g>
     <g id="text_14">
      <!-- 10 -->
      <g transform="translate(15.579687 73.361154)scale(0.1 -0.1)">
       <use xlink:href="#DejaVuSans-31"/>
       <use x="63.623047" xlink:href="#DejaVuSans-30"/>
      </g>
     </g>
    </g>
    <g id="ytick_7">
     <g id="line2d_14">
      <g>
       <use style="stroke:#000000;stroke-width:0.8;" x="35.304688" xlink:href="#ma9c9fc7416" y="27.493684"/>
      </g>
     </g>
     <g id="text_15">
      <!-- 15 -->
      <g transform="translate(15.579687 31.292903)scale(0.1 -0.1)">
       <use xlink:href="#DejaVuSans-31"/>
       <use x="63.623047" xlink:href="#DejaVuSans-35"/>
      </g>
     </g>
    </g>
    <g id="text_16">
     <!-- 1e−6 -->
     <g transform="translate(35.304688 14.798437)scale(0.1 -0.1)">
      <use xlink:href="#DejaVuSans-31"/>
      <use x="63.623047" xlink:href="#DejaVuSans-65"/>
      <use x="125.146484" xlink:href="#DejaVuSans-2212"/>
      <use x="208.935547" xlink:href="#DejaVuSans-36"/>
     </g>
    </g>
   </g>
   <g id="line2d_15">
    <path clip-path="url(#p1274385b29)" d="M 99.887133 33.428141 
L 100.728498 37.720682 
L 101.569863 40.629491 
L 102.83191 43.981004 
L 104.093958 46.675146 
L 105.776688 49.65451 
L 107.459418 52.163763 
L 109.562831 54.834811 
L 111.666243 57.118217 
L 113.769656 59.098114 
L 116.293751 61.148285 
L 118.817846 62.901059 
L 121.341941 64.398835 
L 124.286718 65.863527 
L 127.231496 67.055737 
L 130.176274 67.999534 
L 133.121051 68.711984 
L 136.065829 69.204944 
L 139.010606 69.486144 
L 141.955384 69.559832 
L 144.900162 69.427101 
L 147.844939 69.085975 
L 150.789717 68.531257 
L 153.734494 67.754121 
L 156.679272 66.741356 
L 159.62405 65.474116 
L 162.148145 64.165522 
L 164.67224 62.6276 
L 167.196335 60.828626 
L 169.72043 58.723517 
L 171.823842 56.687959 
L 173.927255 54.335074 
L 175.609985 52.163763 
L 177.292715 49.65451 
L 178.975445 46.675146 
L 180.237493 43.981004 
L 181.49954 40.629491 
L 182.340905 37.720682 
L 182.761588 35.86516 
L 182.761588 35.86516 
" style="fill:none;stroke:#000000;stroke-linecap:square;stroke-width:1.5;"/>
   </g>
   <g id="line2d_16">
    <path clip-path="url(#p1274385b29)" d="M 99.887133 273.968734 
L 100.728498 269.676193 
L 101.569863 266.767384 
L 102.83191 263.415871 
L 104.093958 260.721729 
L 105.776688 257.742365 
L 107.459418 255.233112 
L 109.562831 252.562064 
L 111.666243 250.278658 
L 113.769656 248.298761 
L 116.293751 246.24859 
L 118.817846 244.495816 
L 121.341941 242.99804 
L 124.286718 241.533348 
L 127.231496 240.341138 
L 130.176274 239.397341 
L 133.121051 238.684891 
L 136.065829 238.191931 
L 139.010606 237.910731 
L 141.955384 237.837043 
L 144.900162 237.969774 
L 147.844939 238.3109 
L 150.789717 238.865618 
L 153.734494 239.642754 
L 156.679272 240.655519 
L 159.62405 241.922759 
L 162.148145 243.231353 
L 164.67224 244.769275 
L 167.196335 246.568249 
L 169.72043 248.673358 
L 171.823842 250.708916 
L 173.927255 253.061801 
L 175.609985 255.233112 
L 177.292715 257.742365 
L 178.975445 260.721729 
L 180.237493 263.415871 
L 181.49954 266.767384 
L 182.340905 269.676193 
L 182.761588 271.531715 
L 182.761588 271.531715 
" style="fill:none;stroke:#000000;stroke-linecap:square;stroke-width:1.5;"/>
   </g>
   <g id="line2d_17">
    <path clip-path="url(#p1274385b29)" d="M 183.518816 277.243892 
L 185.958212 275.586469 
L 188.364181 273.880888 
L 190.735775 272.127821 
L 193.072056 270.327962 
L 195.372101 268.482023 
L 197.635002 266.590731 
L 199.859863 264.654836 
L 202.045806 262.6751 
L 204.191968 260.652307 
L 206.2975 258.587257 
L 208.36157 256.480763 
L 210.383363 254.33366 
L 212.362081 252.146796 
L 214.296941 249.921034 
L 216.187179 247.657253 
L 218.032047 245.356349 
L 219.830818 243.019231 
L 221.58278 240.646821 
L 223.287242 238.240057 
L 224.943529 235.799891 
L 226.550987 233.327285 
L 228.108982 230.823218 
L 229.616897 228.288678 
L 231.074138 225.724668 
L 232.480127 223.132199 
L 233.83431 220.512296 
L 235.136151 217.865995 
L 236.385136 215.194341 
L 237.580772 212.49839 
L 238.722587 209.779206 
L 239.810128 207.037864 
L 240.842967 204.275448 
L 241.820696 201.493049 
L 242.742927 198.691765 
L 243.609297 195.872704 
L 244.419463 193.03698 
L 245.173106 190.185714 
L 245.869927 187.32003 
L 246.509652 184.441063 
L 247.092026 181.549949 
L 247.616821 178.647831 
L 248.083829 175.735855 
L 248.492866 172.815172 
L 248.843769 169.886936 
L 249.136401 166.952304 
L 249.370645 164.012435 
L 249.546409 161.06849 
L 249.663623 158.121634 
L 249.722242 155.173031 
L 249.722242 152.223844 
L 249.663623 149.275241 
L 249.546409 146.328385 
L 249.370645 143.38444 
L 249.136401 140.444571 
L 248.843769 137.509939 
L 248.492866 134.581703 
L 248.083829 131.66102 
L 247.616821 128.749044 
L 247.092026 125.846926 
L 246.509652 122.955812 
L 245.869927 120.076845 
L 245.173106 117.211161 
L 244.419463 114.359895 
L 243.609297 111.524171 
L 242.742927 108.70511 
L 241.820696 105.903826 
L 240.842967 103.121427 
L 239.810128 100.359011 
L 238.722587 97.617669 
L 237.580772 94.898485 
L 236.385136 92.202534 
L 235.136151 89.53088 
L 233.83431 86.884579 
L 232.480127 84.264676 
L 231.074138 81.672207 
L 229.616897 79.108197 
L 228.108982 76.573657 
L 226.550987 74.06959 
L 224.943529 71.596984 
L 223.287242 69.156818 
L 221.58278 66.750054 
L 219.830818 64.377644 
L 218.032047 62.040526 
L 216.187179 59.739622 
L 214.296941 57.475841 
L 212.362081 55.250079 
L 210.383363 53.063215 
L 208.36157 50.916112 
L 206.2975 48.809618 
L 204.191968 46.744568 
L 202.045806 44.721775 
L 199.859863 42.742039 
L 197.635002 40.806144 
L 195.372101 38.914852 
L 193.072056 37.068913 
L 190.735775 35.269054 
L 188.364181 33.515987 
L 185.958212 31.810406 
L 183.518816 30.152983 
" style="fill:none;stroke:#0000ff;stroke-linecap:square;stroke-width:1.5;"/>
   </g>
   <g id="patch_3">
    <path d="M 35.304688 289.598437 
L 35.304688 17.798437 
" style="fill:none;stroke:#000000;stroke-linecap:square;stroke-linejoin:miter;stroke-width:0.8;"/>
   </g>
   <g id="patch_4">
    <path d="M 314.304688 289.598437 
L 314.304688 17.798437 
" style="fill:none;stroke:#000000;stroke-linecap:square;stroke-linejoin:miter;stroke-width:0.8;"/>
   </g>
   <g id="patch_5">
    <path d="M 35.304687 289.598437 
L 314.304688 289.598437 
" style="fill:none;stroke:#000000;stroke-linecap:square;stroke-linejoin:miter;stroke-width:0.8;"/>
   </g>
   <g id="patch_6">
    <path d="M 35.304687 17.798437 
L 314.304688 17.798437 
" style="fill:none;stroke:#000000;stroke-linecap:square;stroke-linejoin:miter;stroke-width:0.8;"/>
   </g>
  </g>
 </g>
 <defs>
  <clipPath id="p1274385b29">
   <rect height="271.8" width="279" x="35.304688" y="17.798437"/>
  </clipPath>
 </defs>
</svg>