<?xml version="1.0" encoding="utf-8" standalone="no"?>
<!DOCTYPE svg PUBLIC "-//W3C//DTD SVG 1.1//EN"
  "http://www.w3.org/Graphics/SVG/1.1/DTD/svg11.dtd">
<svg xmlns:xlink="http://www.w3.org/1999/xlink" width="349.495342pt" height="216pt" viewBox="0 0 349.495342 216" xmlns="http://www.w3.org/2000/svg" version="1.1">
 <metadata>
  <rdf:RDF xmlns:dc="http://purl.org/dc/elements/1.1/" xmlns:cc="http://creativecommons.org/ns#" xmlns:rdf="http://www.w3.org/1999/02/22-rdf-syntax-ns#">
   <cc:Work>
    <dc:type rdf:resource="http://purl.org/dc/dcmitype/StillImage"/>
    <dc:date>2021-12-01T02:00:19.965888</dc:date>
    <dc:format>image/svg+xml</dc:format>
    <dc:creator>
     <cc:Agent>
      <dc:title>Matplotlib v3.5.0, https://matplotlib.org/</dc:title>
     </cc:Agent>
    </dc:creator>
   </cc:Work>
  </rdf:RDF>
 </metadata>
 <defs>
  <style type="text/css">*{stroke-linejoin: round; stroke-linecap: butt}</style>
 </defs>
 <g id="figure_1">
  <g id="patch_1">
   <path d="M 0 216 
L 349.495342 216 
L 349.495342 0 
L 0 0 
z
" style="fill: #ffffff"/>
  </g>
  <g id="axes_1">
   <g id="patch_2">
    <path d="M 29.936875 189.033828 
L 338.965342 189.033828 
L 338.965342 10.53 
L 29.936875 10.53 
z
" style="fill: #ffffff"/>
   </g>
   <g id="patch_3">
    <path d="M 43.983623 189.033828 
L 49.602323 189.033828 
L 49.602323 177.103748 
L 43.983623 177.103748 
z
" clip-path="url(#p0c7f984e24)" style="fill: #1f77b4"/>
   </g>
   <g id="patch_4">
    <path d="M 49.602323 189.033828 
L 55.221022 189.033828 
L 55.221022 168.156187 
L 49.602323 168.156187 
z
" clip-path="url(#p0c7f984e24)" style="fill: #1f77b4"/>
   </g>
   <g id="patch_5">
    <path d="M 55.221022 189.033828 
L 60.839722 189.033828 
L 60.839722 129.383426 
L 55.221022 129.383426 
z
" clip-path="url(#p0c7f984e24)" style="fill: #1f77b4"/>
   </g>
   <g id="patch_6">
    <path d="M 60.839722 189.033828 
L 66.458421 189.033828 
L 66.458421 117.453346 
L 60.839722 117.453346 
z
" clip-path="url(#p0c7f984e24)" style="fill: #1f77b4"/>
   </g>
   <g id="patch_7">
    <path d="M 66.458421 189.033828 
L 72.07712 189.033828 
L 72.07712 141.313506 
L 66.458421 141.313506 
z
" clip-path="url(#p0c7f984e24)" style="fill: #1f77b4"/>
   </g>
   <g id="patch_8">
    <path d="M 72.07712 189.033828 
L 77.69582 189.033828 
L 77.69582 105.523265 
L 72.07712 105.523265 
z
" clip-path="url(#p0c7f984e24)" style="fill: #1f77b4"/>
   </g>
   <g id="patch_9">
    <path d="M 77.69582 189.033828 
L 83.314519 189.033828 
L 83.314519 87.628145 
L 77.69582 87.628145 
z
" clip-path="url(#p0c7f984e24)" style="fill: #1f77b4"/>
   </g>
   <g id="patch_10">
    <path d="M 83.314519 189.033828 
L 88.933219 189.033828 
L 88.933219 117.453346 
L 83.314519 117.453346 
z
" clip-path="url(#p0c7f984e24)" style="fill: #1f77b4"/>
   </g>
   <g id="patch_11">
    <path d="M 88.933219 189.033828 
L 94.551918 189.033828 
L 94.551918 111.488305 
L 88.933219 111.488305 
z
" clip-path="url(#p0c7f984e24)" style="fill: #1f77b4"/>
   </g>
   <g id="patch_12">
    <path d="M 94.551918 189.033828 
L 100.170617 189.033828 
L 100.170617 27.977743 
L 94.551918 27.977743 
z
" clip-path="url(#p0c7f984e24)" style="fill: #1f77b4"/>
   </g>
   <g id="patch_13">
    <path d="M 100.170617 189.033828 
L 105.789317 189.033828 
L 105.789317 75.698064 
L 100.170617 75.698064 
z
" clip-path="url(#p0c7f984e24)" style="fill: #1f77b4"/>
   </g>
   <g id="patch_14">
    <path d="M 105.789317 189.033828 
L 111.408016 189.033828 
L 111.408016 48.855383 
L 105.789317 48.855383 
z
" clip-path="url(#p0c7f984e24)" style="fill: #1f77b4"/>
   </g>
   <g id="patch_15">
    <path d="M 111.408016 189.033828 
L 117.026716 189.033828 
L 117.026716 19.030182 
L 111.408016 19.030182 
z
" clip-path="url(#p0c7f984e24)" style="fill: #1f77b4"/>
   </g>
   <g id="patch_16">
    <path d="M 117.026716 189.033828 
L 122.645415 189.033828 
L 122.645415 51.837903 
L 117.026716 51.837903 
z
" clip-path="url(#p0c7f984e24)" style="fill: #1f77b4"/>
   </g>
   <g id="patch_17">
    <path d="M 122.645415 189.033828 
L 128.264114 189.033828 
L 128.264114 39.907823 
L 122.645415 39.907823 
z
" clip-path="url(#p0c7f984e24)" style="fill: #1f77b4"/>
   </g>
   <g id="patch_18">
    <path d="M 128.264114 189.033828 
L 133.882814 189.033828 
L 133.882814 57.802944 
L 128.264114 57.802944 
z
" clip-path="url(#p0c7f984e24)" style="fill: #1f77b4"/>
   </g>
   <g id="patch_19">
    <path d="M 133.882814 189.033828 
L 139.501513 189.033828 
L 139.501513 54.820424 
L 133.882814 54.820424 
z
" clip-path="url(#p0c7f984e24)" style="fill: #1f77b4"/>
   </g>
   <g id="patch_20">
    <path d="M 139.501513 189.033828 
L 145.120213 189.033828 
L 145.120213 72.715544 
L 139.501513 72.715544 
z
" clip-path="url(#p0c7f984e24)" style="fill: #1f77b4"/>
   </g>
   <g id="patch_21">
    <path d="M 145.120213 189.033828 
L 150.738912 189.033828 
L 150.738912 69.733024 
L 145.120213 69.733024 
z
" clip-path="url(#p0c7f984e24)" style="fill: #1f77b4"/>
   </g>
   <g id="patch_22">
    <path d="M 150.738912 189.033828 
L 156.357611 189.033828 
L 156.357611 54.820424 
L 150.738912 54.820424 
z
" clip-path="url(#p0c7f984e24)" style="fill: #1f77b4"/>
   </g>
   <g id="patch_23">
    <path d="M 156.357611 189.033828 
L 161.976311 189.033828 
L 161.976311 96.575705 
L 156.357611 96.575705 
z
" clip-path="url(#p0c7f984e24)" style="fill: #1f77b4"/>
   </g>
   <g id="patch_24">
    <path d="M 161.976311 189.033828 
L 167.59501 189.033828 
L 167.59501 102.540745 
L 161.976311 102.540745 
z
" clip-path="url(#p0c7f984e24)" style="fill: #1f77b4"/>
   </g>
   <g id="patch_25">
    <path d="M 167.59501 189.033828 
L 173.21371 189.033828 
L 173.21371 93.593185 
L 167.59501 93.593185 
z
" clip-path="url(#p0c7f984e24)" style="fill: #1f77b4"/>
   </g>
   <g id="patch_26">
    <path d="M 173.21371 189.033828 
L 178.832409 189.033828 
L 178.832409 141.313506 
L 173.21371 141.313506 
z
" clip-path="url(#p0c7f984e24)" style="fill: #1f77b4"/>
   </g>
   <g id="patch_27">
    <path d="M 178.832409 189.033828 
L 184.451108 189.033828 
L 184.451108 114.470826 
L 178.832409 114.470826 
z
" clip-path="url(#p0c7f984e24)" style="fill: #1f77b4"/>
   </g>
   <g id="patch_28">
    <path d="M 184.451108 189.033828 
L 190.069808 189.033828 
L 190.069808 132.365946 
L 184.451108 132.365946 
z
" clip-path="url(#p0c7f984e24)" style="fill: #1f77b4"/>
   </g>
   <g id="patch_29">
    <path d="M 190.069808 189.033828 
L 195.688507 189.033828 
L 195.688507 120.435866 
L 190.069808 120.435866 
z
" clip-path="url(#p0c7f984e24)" style="fill: #1f77b4"/>
   </g>
   <g id="patch_30">
    <path d="M 195.688507 189.033828 
L 201.307206 189.033828 
L 201.307206 132.365946 
L 195.688507 132.365946 
z
" clip-path="url(#p0c7f984e24)" style="fill: #1f77b4"/>
   </g>
   <g id="patch_31">
    <path d="M 201.307206 189.033828 
L 206.925906 189.033828 
L 206.925906 147.278547 
L 201.307206 147.278547 
z
" clip-path="url(#p0c7f984e24)" style="fill: #1f77b4"/>
   </g>
   <g id="patch_32">
    <path d="M 206.925906 189.033828 
L 212.544605 189.033828 
L 212.544605 150.261067 
L 206.925906 150.261067 
z
" clip-path="url(#p0c7f984e24)" style="fill: #1f77b4"/>
   </g>
   <g id="patch_33">
    <path d="M 212.544605 189.033828 
L 218.163305 189.033828 
L 218.163305 144.296027 
L 212.544605 144.296027 
z
" clip-path="url(#p0c7f984e24)" style="fill: #1f77b4"/>
   </g>
   <g id="patch_34">
    <path d="M 218.163305 189.033828 
L 223.782004 189.033828 
L 223.782004 159.208627 
L 218.163305 159.208627 
z
" clip-path="url(#p0c7f984e24)" style="fill: #1f77b4"/>
   </g>
   <g id="patch_35">
    <path d="M 223.782004 189.033828 
L 229.400703 189.033828 
L 229.400703 147.278547 
L 223.782004 147.278547 
z
" clip-path="url(#p0c7f984e24)" style="fill: #1f77b4"/>
   </g>
   <g id="patch_36">
    <path d="M 229.400703 189.033828 
L 235.019403 189.033828 
L 235.019403 162.191147 
L 229.400703 162.191147 
z
" clip-path="url(#p0c7f984e24)" style="fill: #1f77b4"/>
   </g>
   <g id="patch_37">
    <path d="M 235.019403 189.033828 
L 240.638102 189.033828 
L 240.638102 174.121228 
L 235.019403 174.121228 
z
" clip-path="url(#p0c7f984e24)" style="fill: #1f77b4"/>
   </g>
   <g id="patch_38">
    <path d="M 240.638102 189.033828 
L 246.256802 189.033828 
L 246.256802 165.173667 
L 240.638102 165.173667 
z
" clip-path="url(#p0c7f984e24)" style="fill: #1f77b4"/>
   </g>
   <g id="patch_39">
    <path d="M 246.256802 189.033828 
L 251.875501 189.033828 
L 251.875501 180.086268 
L 246.256802 180.086268 
z
" clip-path="url(#p0c7f984e24)" style="fill: #1f77b4"/>
   </g>
   <g id="patch_40">
    <path d="M 251.875501 189.033828 
L 257.4942 189.033828 
L 257.4942 177.103748 
L 251.875501 177.103748 
z
" clip-path="url(#p0c7f984e24)" style="fill: #1f77b4"/>
   </g>
   <g id="patch_41">
    <path d="M 257.4942 189.033828 
L 263.1129 189.033828 
L 263.1129 174.121228 
L 257.4942 174.121228 
z
" clip-path="url(#p0c7f984e24)" style="fill: #1f77b4"/>
   </g>
   <g id="patch_42">
    <path d="M 263.1129 189.033828 
L 268.731599 189.033828 
L 268.731599 180.086268 
L 263.1129 180.086268 
z
" clip-path="url(#p0c7f984e24)" style="fill: #1f77b4"/>
   </g>
   <g id="patch_43">
    <path d="M 268.731599 189.033828 
L 274.350299 189.033828 
L 274.350299 174.121228 
L 268.731599 174.121228 
z
" clip-path="url(#p0c7f984e24)" style="fill: #1f77b4"/>
   </g>
   <g id="patch_44">
    <path d="M 274.350299 189.033828 
L 279.968998 189.033828 
L 279.968998 186.051308 
L 274.350299 186.051308 
z
" clip-path="url(#p0c7f984e24)" style="fill: #1f77b4"/>
   </g>
   <g id="patch_45">
    <path d="M 279.968998 189.033828 
L 285.587697 189.033828 
L 285.587697 183.068788 
L 279.968998 183.068788 
z
" clip-path="url(#p0c7f984e24)" style="fill: #1f77b4"/>
   </g>
   <g id="patch_46">
    <path d="M 285.587697 189.033828 
L 291.206397 189.033828 
L 291.206397 183.068788 
L 285.587697 183.068788 
z
" clip-path="url(#p0c7f984e24)" style="fill: #1f77b4"/>
   </g>
   <g id="patch_47">
    <path d="M 291.206397 189.033828 
L 296.825096 189.033828 
L 296.825096 180.086268 
L 291.206397 180.086268 
z
" clip-path="url(#p0c7f984e24)" style="fill: #1f77b4"/>
   </g>
   <g id="patch_48">
    <path d="M 296.825096 189.033828 
L 302.443796 189.033828 
L 302.443796 186.051308 
L 296.825096 186.051308 
z
" clip-path="url(#p0c7f984e24)" style="fill: #1f77b4"/>
   </g>
   <g id="patch_49">
    <path d="M 302.443796 189.033828 
L 308.062495 189.033828 
L 308.062495 189.033828 
L 302.443796 189.033828 
z
" clip-path="url(#p0c7f984e24)" style="fill: #1f77b4"/>
   </g>
   <g id="patch_50">
    <path d="M 308.062495 189.033828 
L 313.681194 189.033828 
L 313.681194 189.033828 
L 308.062495 189.033828 
z
" clip-path="url(#p0c7f984e24)" style="fill: #1f77b4"/>
   </g>
   <g id="patch_51">
    <path d="M 313.681194 189.033828 
L 319.299894 189.033828 
L 319.299894 189.033828 
L 313.681194 189.033828 
z
" clip-path="url(#p0c7f984e24)" style="fill: #1f77b4"/>
   </g>
   <g id="patch_52">
    <path d="M 319.299894 189.033828 
L 324.918593 189.033828 
L 324.918593 186.051308 
L 319.299894 186.051308 
z
" clip-path="url(#p0c7f984e24)" style="fill: #1f77b4"/>
   </g>
   <g id="matplotlib.axis_1">
    <g id="xtick_1">
     <g id="line2d_1">
      <defs>
       <path id="m1fa24ecc36" d="M 0 0 
L 0 3.5 
" style="stroke: #000000; stroke-width: 0.8"/>
      </defs>
      <g>
       <use xlink:href="#m1fa24ecc36" x="43.007417" y="189.033828" style="stroke: #000000; stroke-width: 0.8"/>
      </g>
     </g>
     <g id="text_1">
      <!-- 0.00000 -->
      <g transform="translate(22.847769 203.442305)scale(0.0975 -0.0975)">
       <defs>
        <path id="DejaVuSans-30" d="M 2034 4250 
Q 1547 4250 1301 3770 
Q 1056 3291 1056 2328 
Q 1056 1369 1301 889 
Q 1547 409 2034 409 
Q 2525 409 2770 889 
Q 3016 1369 3016 2328 
Q 3016 3291 2770 3770 
Q 2525 4250 2034 4250 
z
M 2034 4750 
Q 2819 4750 3233 4129 
Q 3647 3509 3647 2328 
Q 3647 1150 3233 529 
Q 2819 -91 2034 -91 
Q 1250 -91 836 529 
Q 422 1150 422 2328 
Q 422 3509 836 4129 
Q 1250 4750 2034 4750 
z
" transform="scale(0.015625)"/>
        <path id="DejaVuSans-2e" d="M 684 794 
L 1344 794 
L 1344 0 
L 684 0 
L 684 794 
z
" transform="scale(0.015625)"/>
       </defs>
       <use xlink:href="#DejaVuSans-30"/>
       <use xlink:href="#DejaVuSans-2e" x="63.623047"/>
       <use xlink:href="#DejaVuSans-30" x="95.410156"/>
       <use xlink:href="#DejaVuSans-30" x="159.033203"/>
       <use xlink:href="#DejaVuSans-30" x="222.65625"/>
       <use xlink:href="#DejaVuSans-30" x="286.279297"/>
       <use xlink:href="#DejaVuSans-30" x="349.902344"/>
      </g>
     </g>
    </g>
    <g id="xtick_2">
     <g id="line2d_2">
      <g>
       <use xlink:href="#m1fa24ecc36" x="96.945262" y="189.033828" style="stroke: #000000; stroke-width: 0.8"/>
      </g>
     </g>
     <g id="text_2">
      <!-- 0.00005 -->
      <g transform="translate(76.785613 203.442305)scale(0.0975 -0.0975)">
       <defs>
        <path id="DejaVuSans-35" d="M 691 4666 
L 3169 4666 
L 3169 4134 
L 1269 4134 
L 1269 2991 
Q 1406 3038 1543 3061 
Q 1681 3084 1819 3084 
Q 2600 3084 3056 2656 
Q 3513 2228 3513 1497 
Q 3513 744 3044 326 
Q 2575 -91 1722 -91 
Q 1428 -91 1123 -41 
Q 819 9 494 109 
L 494 744 
Q 775 591 1075 516 
Q 1375 441 1709 441 
Q 2250 441 2565 725 
Q 2881 1009 2881 1497 
Q 2881 1984 2565 2268 
Q 2250 2553 1709 2553 
Q 1456 2553 1204 2497 
Q 953 2441 691 2322 
L 691 4666 
z
" transform="scale(0.015625)"/>
       </defs>
       <use xlink:href="#DejaVuSans-30"/>
       <use xlink:href="#DejaVuSans-2e" x="63.623047"/>
       <use xlink:href="#DejaVuSans-30" x="95.410156"/>
       <use xlink:href="#DejaVuSans-30" x="159.033203"/>
       <use xlink:href="#DejaVuSans-30" x="222.65625"/>
       <use xlink:href="#DejaVuSans-30" x="286.279297"/>
       <use xlink:href="#DejaVuSans-35" x="349.902344"/>
      </g>
     </g>
    </g>
    <g id="xtick_3">
     <g id="line2d_3">
      <g>
       <use xlink:href="#m1fa24ecc36" x="150.883106" y="189.033828" style="stroke: #000000; stroke-width: 0.8"/>
      </g>
     </g>
     <g id="text_3">
      <!-- 0.00010 -->
      <g transform="translate(130.723458 203.442305)scale(0.0975 -0.0975)">
       <defs>
        <path id="DejaVuSans-31" d="M 794 531 
L 1825 531 
L 1825 4091 
L 703 3866 
L 703 4441 
L 1819 4666 
L 2450 4666 
L 2450 531 
L 3481 531 
L 3481 0 
L 794 0 
L 794 531 
z
" transform="scale(0.015625)"/>
       </defs>
       <use xlink:href="#DejaVuSans-30"/>
       <use xlink:href="#DejaVuSans-2e" x="63.623047"/>
       <use xlink:href="#DejaVuSans-30" x="95.410156"/>
       <use xlink:href="#DejaVuSans-30" x="159.033203"/>
       <use xlink:href="#DejaVuSans-30" x="222.65625"/>
       <use xlink:href="#DejaVuSans-31" x="286.279297"/>
       <use xlink:href="#DejaVuSans-30" x="349.902344"/>
      </g>
     </g>
    </g>
    <g id="xtick_4">
     <g id="line2d_4">
      <g>
       <use xlink:href="#m1fa24ecc36" x="204.82095" y="189.033828" style="stroke: #000000; stroke-width: 0.8"/>
      </g>
     </g>
     <g id="text_4">
      <!-- 0.00015 -->
      <g transform="translate(184.661302 203.442305)scale(0.0975 -0.0975)">
       <use xlink:href="#DejaVuSans-30"/>
       <use xlink:href="#DejaVuSans-2e" x="63.623047"/>
       <use xlink:href="#DejaVuSans-30" x="95.410156"/>
       <use xlink:href="#DejaVuSans-30" x="159.033203"/>
       <use xlink:href="#DejaVuSans-30" x="222.65625"/>
       <use xlink:href="#DejaVuSans-31" x="286.279297"/>
       <use xlink:href="#DejaVuSans-35" x="349.902344"/>
      </g>
     </g>
    </g>
    <g id="xtick_5">
     <g id="line2d_5">
      <g>
       <use xlink:href="#m1fa24ecc36" x="258.758795" y="189.033828" style="stroke: #000000; stroke-width: 0.8"/>
      </g>
     </g>
     <g id="text_5">
      <!-- 0.00020 -->
      <g transform="translate(238.599146 203.442305)scale(0.0975 -0.0975)">
       <defs>
        <path id="DejaVuSans-32" d="M 1228 531 
L 3431 531 
L 3431 0 
L 469 0 
L 469 531 
Q 828 903 1448 1529 
Q 2069 2156 2228 2338 
Q 2531 2678 2651 2914 
Q 2772 3150 2772 3378 
Q 2772 3750 2511 3984 
Q 2250 4219 1831 4219 
Q 1534 4219 1204 4116 
Q 875 4013 500 3803 
L 500 4441 
Q 881 4594 1212 4672 
Q 1544 4750 1819 4750 
Q 2544 4750 2975 4387 
Q 3406 4025 3406 3419 
Q 3406 3131 3298 2873 
Q 3191 2616 2906 2266 
Q 2828 2175 2409 1742 
Q 1991 1309 1228 531 
z
" transform="scale(0.015625)"/>
       </defs>
       <use xlink:href="#DejaVuSans-30"/>
       <use xlink:href="#DejaVuSans-2e" x="63.623047"/>
       <use xlink:href="#DejaVuSans-30" x="95.410156"/>
       <use xlink:href="#DejaVuSans-30" x="159.033203"/>
       <use xlink:href="#DejaVuSans-30" x="222.65625"/>
       <use xlink:href="#DejaVuSans-32" x="286.279297"/>
       <use xlink:href="#DejaVuSans-30" x="349.902344"/>
      </g>
     </g>
    </g>
    <g id="xtick_6">
     <g id="line2d_6">
      <g>
       <use xlink:href="#m1fa24ecc36" x="312.696639" y="189.033828" style="stroke: #000000; stroke-width: 0.8"/>
      </g>
     </g>
     <g id="text_6">
      <!-- 0.00025 -->
      <g transform="translate(292.536991 203.442305)scale(0.0975 -0.0975)">
       <use xlink:href="#DejaVuSans-30"/>
       <use xlink:href="#DejaVuSans-2e" x="63.623047"/>
       <use xlink:href="#DejaVuSans-30" x="95.410156"/>
       <use xlink:href="#DejaVuSans-30" x="159.033203"/>
       <use xlink:href="#DejaVuSans-30" x="222.65625"/>
       <use xlink:href="#DejaVuSans-32" x="286.279297"/>
       <use xlink:href="#DejaVuSans-35" x="349.902344"/>
      </g>
     </g>
    </g>
   </g>
   <g id="matplotlib.axis_2">
    <g id="ytick_1">
     <g id="line2d_7">
      <defs>
       <path id="m24f0697f0d" d="M 0 0 
L -3.5 0 
" style="stroke: #000000; stroke-width: 0.8"/>
      </defs>
      <g>
       <use xlink:href="#m24f0697f0d" x="29.936875" y="189.033828" style="stroke: #000000; stroke-width: 0.8"/>
      </g>
     </g>
     <g id="text_7">
      <!-- 0 -->
      <g transform="translate(16.733437 192.738066)scale(0.0975 -0.0975)">
       <use xlink:href="#DejaVuSans-30"/>
      </g>
     </g>
    </g>
    <g id="ytick_2">
     <g id="line2d_8">
      <g>
       <use xlink:href="#m24f0697f0d" x="29.936875" y="159.208627" style="stroke: #000000; stroke-width: 0.8"/>
      </g>
     </g>
     <g id="text_8">
      <!-- 10 -->
      <g transform="translate(10.53 162.912865)scale(0.0975 -0.0975)">
       <use xlink:href="#DejaVuSans-31"/>
       <use xlink:href="#DejaVuSans-30" x="63.623047"/>
      </g>
     </g>
    </g>
    <g id="ytick_3">
     <g id="line2d_9">
      <g>
       <use xlink:href="#m24f0697f0d" x="29.936875" y="129.383426" style="stroke: #000000; stroke-width: 0.8"/>
      </g>
     </g>
     <g id="text_9">
      <!-- 20 -->
      <g transform="translate(10.53 133.087664)scale(0.0975 -0.0975)">
       <use xlink:href="#DejaVuSans-32"/>
       <use xlink:href="#DejaVuSans-30" x="63.623047"/>
      </g>
     </g>
    </g>
    <g id="ytick_4">
     <g id="line2d_10">
      <g>
       <use xlink:href="#m24f0697f0d" x="29.936875" y="99.558225" style="stroke: #000000; stroke-width: 0.8"/>
      </g>
     </g>
     <g id="text_10">
      <!-- 30 -->
      <g transform="translate(10.53 103.262463)scale(0.0975 -0.0975)">
       <defs>
        <path id="DejaVuSans-33" d="M 2597 2516 
Q 3050 2419 3304 2112 
Q 3559 1806 3559 1356 
Q 3559 666 3084 287 
Q 2609 -91 1734 -91 
Q 1441 -91 1130 -33 
Q 819 25 488 141 
L 488 750 
Q 750 597 1062 519 
Q 1375 441 1716 441 
Q 2309 441 2620 675 
Q 2931 909 2931 1356 
Q 2931 1769 2642 2001 
Q 2353 2234 1838 2234 
L 1294 2234 
L 1294 2753 
L 1863 2753 
Q 2328 2753 2575 2939 
Q 2822 3125 2822 3475 
Q 2822 3834 2567 4026 
Q 2313 4219 1838 4219 
Q 1578 4219 1281 4162 
Q 984 4106 628 3988 
L 628 4550 
Q 988 4650 1302 4700 
Q 1616 4750 1894 4750 
Q 2613 4750 3031 4423 
Q 3450 4097 3450 3541 
Q 3450 3153 3228 2886 
Q 3006 2619 2597 2516 
z
" transform="scale(0.015625)"/>
       </defs>
       <use xlink:href="#DejaVuSans-33"/>
       <use xlink:href="#DejaVuSans-30" x="63.623047"/>
      </g>
     </g>
    </g>
    <g id="ytick_5">
     <g id="line2d_11">
      <g>
       <use xlink:href="#m24f0697f0d" x="29.936875" y="69.733024" style="stroke: #000000; stroke-width: 0.8"/>
      </g>
     </g>
     <g id="text_11">
      <!-- 40 -->
      <g transform="translate(10.53 73.437262)scale(0.0975 -0.0975)">
       <defs>
        <path id="DejaVuSans-34" d="M 2419 4116 
L 825 1625 
L 2419 1625 
L 2419 4116 
z
M 2253 4666 
L 3047 4666 
L 3047 1625 
L 3713 1625 
L 3713 1100 
L 3047 1100 
L 3047 0 
L 2419 0 
L 2419 1100 
L 313 1100 
L 313 1709 
L 2253 4666 
z
" transform="scale(0.015625)"/>
       </defs>
       <use xlink:href="#DejaVuSans-34"/>
       <use xlink:href="#DejaVuSans-30" x="63.623047"/>
      </g>
     </g>
    </g>
    <g id="ytick_6">
     <g id="line2d_12">
      <g>
       <use xlink:href="#m24f0697f0d" x="29.936875" y="39.907823" style="stroke: #000000; stroke-width: 0.8"/>
      </g>
     </g>
     <g id="text_12">
      <!-- 50 -->
      <g transform="translate(10.53 43.612061)scale(0.0975 -0.0975)">
       <use xlink:href="#DejaVuSans-35"/>
       <use xlink:href="#DejaVuSans-30" x="63.623047"/>
      </g>
     </g>
    </g>
   </g>
   <g id="patch_53">
    <path d="M 29.936875 189.033828 
L 29.936875 10.53 
" style="fill: none; stroke: #000000; stroke-width: 0.8; stroke-linejoin: miter; stroke-linecap: square"/>
   </g>
   <g id="patch_54">
    <path d="M 338.965342 189.033828 
L 338.965342 10.53 
" style="fill: none; stroke: #000000; stroke-width: 0.8; stroke-linejoin: miter; stroke-linecap: square"/>
   </g>
   <g id="patch_55">
    <path d="M 29.936875 189.033828 
L 338.965342 189.033828 
" style="fill: none; stroke: #000000; stroke-width: 0.8; stroke-linejoin: miter; stroke-linecap: square"/>
   </g>
   <g id="patch_56">
    <path d="M 29.936875 10.53 
L 338.965342 10.53 
" style="fill: none; stroke: #000000; stroke-width: 0.8; stroke-linejoin: miter; stroke-linecap: square"/>
   </g>
  </g>
 </g>
 <defs>
  <clipPath id="p0c7f984e24">
   <rect x="29.936875" y="10.53" width="309.028467" height="178.503828"/>
  </clipPath>
 </defs>
</svg>
