<?xml version="1.0" encoding="utf-8" standalone="no"?>
<!DOCTYPE svg PUBLIC "-//W3C//DTD SVG 1.1//EN"
  "http://www.w3.org/Graphics/SVG/1.1/DTD/svg11.dtd">
<svg xmlns:xlink="http://www.w3.org/1999/xlink" width="349.495342pt" height="216pt" viewBox="0 0 349.495342 216" xmlns="http://www.w3.org/2000/svg" version="1.1">
 <metadata>
  <rdf:RDF xmlns:dc="http://purl.org/dc/elements/1.1/" xmlns:cc="http://creativecommons.org/ns#" xmlns:rdf="http://www.w3.org/1999/02/22-rdf-syntax-ns#">
   <cc:Work>
    <dc:type rdf:resource="http://purl.org/dc/dcmitype/StillImage"/>
    <dc:date>2021-12-14T01:57:41.581258</dc:date>
    <dc:format>image/svg+xml</dc:format>
    <dc:creator>
     <cc:Agent>
      <dc:title>Matplotlib v3.5.1, https://matplotlib.org/</dc:title>
     </cc:Agent>
    </dc:creator>
   </cc:Work>
  </rdf:RDF>
 </metadata>
 <defs>
  <style type="text/css">*{stroke-linejoin: round; stroke-linecap: butt}</style>
 </defs>
 <g id="figure_1">
  <g id="patch_1">
   <path d="M 0 216 
L 349.495342 216 
L 349.495342 0 
L 0 0 
z
" style="fill: #ffffff"/>
  </g>
  <g id="axes_1">
   <g id="patch_2">
    <path d="M 297.481725 85.59204 
Q 287.265711 88.165274 280.302208 89.919257 
" clip-path="url(#p1f48843a5d)" style="fill: none; stroke: #d3d3d3; stroke-width: 3; stroke-linecap: round"/>
    <path d="M 302.13897 94.731308 
L 280.302208 89.919257 
L 297.253906 75.337078 
L 302.13897 94.731308 
z
" clip-path="url(#p1f48843a5d)" style="fill: #d3d3d3; stroke: #d3d3d3; stroke-width: 3; stroke-linecap: round"/>
   </g>
   <g id="patch_3">
    <path d="M 307.230274 178.348184 
Q 287.268509 146.728962 269.09728 117.945932 
" clip-path="url(#p1f48843a5d)" style="fill: none; stroke: #d3d3d3; stroke-width: 3; stroke-linecap: round"/>
    <path d="M 271.31809 140.196055 
L 269.09728 117.945932 
L 288.229865 129.519357 
L 271.31809 140.196055 
z
" clip-path="url(#p1f48843a5d)" style="fill: #d3d3d3; stroke: #d3d3d3; stroke-width: 3; stroke-linecap: round"/>
   </g>
   <g id="patch_4">
    <path d="M 269.58339 78.941786 
Q 287.267911 57.471637 302.819973 38.59043 
" clip-path="url(#p1f48843a5d)" style="fill: none; stroke: #d3d3d3; stroke-width: 3; stroke-linecap: round"/>
    <path d="M 282.385714 47.670135 
L 302.819973 38.59043 
L 297.823182 60.385661 
L 282.385714 47.670135 
z
" clip-path="url(#p1f48843a5d)" style="fill: #d3d3d3; stroke: #d3d3d3; stroke-width: 3; stroke-linecap: round"/>
   </g>
   <g id="patch_5">
    <path d="M 277.57576 93.578227 
Q 287.269183 92.433993 293.63163 91.682954 
" clip-path="url(#p1f48843a5d)" style="fill: none; stroke: #d3d3d3; stroke-width: 3; stroke-linecap: round"/>
    <path d="M 272.597247 84.096473 
L 293.63163 91.682954 
L 274.941815 103.958573 
L 272.597247 84.096473 
z
" clip-path="url(#p1f48843a5d)" style="fill: #d3d3d3; stroke: #d3d3d3; stroke-width: 3; stroke-linecap: round"/>
   </g>
   <g id="patch_6">
    <path d="M 233.010823 96.199629 
Q 223.752542 96.199629 217.848363 96.199629 
" clip-path="url(#p1f48843a5d)" style="fill: none; stroke: #d3d3d3; stroke-width: 3; stroke-linecap: round"/>
    <path d="M 237.848363 106.199629 
L 217.848363 96.199629 
L 237.848363 86.199629 
L 237.848363 106.199629 
z
" clip-path="url(#p1f48843a5d)" style="fill: #d3d3d3; stroke: #d3d3d3; stroke-width: 3; stroke-linecap: round"/>
   </g>
   <g id="patch_7">
    <path d="M 233.006903 96.199629 
Q 210.15515 96.199629 190.657498 96.199629 
" clip-path="url(#p1f48843a5d)" style="fill: none; stroke: #d3d3d3; stroke-width: 3; stroke-linecap: round"/>
    <path d="M 210.657498 106.199629 
L 190.657498 96.199629 
L 210.657498 86.199629 
L 210.657498 106.199629 
z
" clip-path="url(#p1f48843a5d)" style="fill: #d3d3d3; stroke: #d3d3d3; stroke-width: 3; stroke-linecap: round"/>
   </g>
   <g id="patch_8">
    <path d="M 233.010823 96.199629 
Q 223.752542 96.199629 217.848363 96.199629 
" clip-path="url(#p1f48843a5d)" style="fill: none; stroke: #d3d3d3; stroke-width: 3; stroke-linecap: round"/>
    <path d="M 237.848363 106.199629 
L 217.848363 96.199629 
L 237.848363 86.199629 
L 237.848363 106.199629 
z
" clip-path="url(#p1f48843a5d)" style="fill: #d3d3d3; stroke: #d3d3d3; stroke-width: 3; stroke-linecap: round"/>
   </g>
   <g id="patch_9">
    <path d="M 233.010823 96.199629 
Q 223.752542 96.199629 217.848363 96.199629 
" clip-path="url(#p1f48843a5d)" style="fill: none; stroke: #d3d3d3; stroke-width: 3; stroke-linecap: round"/>
    <path d="M 237.848363 106.199629 
L 217.848363 96.199629 
L 237.848363 86.199629 
L 237.848363 106.199629 
z
" clip-path="url(#p1f48843a5d)" style="fill: #d3d3d3; stroke: #d3d3d3; stroke-width: 3; stroke-linecap: round"/>
   </g>
   <g id="patch_10">
    <path d="M 169.777688 96.199629 
Q 167.314673 96.199629 168.205759 96.199629 
" clip-path="url(#p1f48843a5d)" style="fill: none; stroke: #d3d3d3; stroke-width: 3; stroke-linecap: round"/>
    <path d="M 188.205759 106.199629 
L 168.205759 96.199629 
L 188.205759 86.199629 
L 188.205759 106.199629 
z
" clip-path="url(#p1f48843a5d)" style="fill: #d3d3d3; stroke: #d3d3d3; stroke-width: 3; stroke-linecap: round"/>
   </g>
   <g id="patch_11">
    <path d="M 164.854852 96.199629 
Q 164.897323 96.199629 161.585693 96.199629 
" clip-path="url(#p1f48843a5d)" style="fill: none; stroke: #d3d3d3; stroke-width: 3; stroke-linecap: round"/>
    <path d="M 141.585693 86.199629 
L 161.585693 96.199629 
L 141.585693 106.199629 
L 141.585693 86.199629 
z
" clip-path="url(#p1f48843a5d)" style="fill: #d3d3d3; stroke: #d3d3d3; stroke-width: 3; stroke-linecap: round"/>
   </g>
   <g id="patch_12">
    <path d="M 120.13054 96.199629 
Q 86.409409 96.199629 56.04238 96.199629 
" clip-path="url(#p1f48843a5d)" style="fill: none; stroke: #d3d3d3; stroke-width: 3; stroke-linecap: round"/>
    <path d="M 76.04238 106.199629 
L 56.04238 96.199629 
L 76.04238 86.199629 
L 76.04238 106.199629 
z
" clip-path="url(#p1f48843a5d)" style="fill: #d3d3d3; stroke: #d3d3d3; stroke-width: 3; stroke-linecap: round"/>
   </g>
   <g id="patch_13">
    <path d="M 142.493006 96.199629 
Q 134.804521 96.199629 130.470138 96.199629 
" clip-path="url(#p1f48843a5d)" style="fill: none; stroke: #d3d3d3; stroke-width: 3; stroke-linecap: round"/>
    <path d="M 150.470138 106.199629 
L 130.470138 96.199629 
L 150.470138 86.199629 
L 150.470138 106.199629 
z
" clip-path="url(#p1f48843a5d)" style="fill: #d3d3d3; stroke: #d3d3d3; stroke-width: 3; stroke-linecap: round"/>
   </g>
   <g id="patch_14">
    <path d="M 164.850993 96.199629 
Q 167.314008 96.199629 166.422921 96.199629 
" clip-path="url(#p1f48843a5d)" style="fill: none; stroke: #d3d3d3; stroke-width: 3; stroke-linecap: round"/>
    <path d="M 146.422921 86.199629 
L 166.422921 96.199629 
L 146.422921 106.199629 
L 146.422921 86.199629 
z
" clip-path="url(#p1f48843a5d)" style="fill: #d3d3d3; stroke: #d3d3d3; stroke-width: 3; stroke-linecap: round"/>
   </g>
   <g id="patch_15">
    <path d="M 164.850993 96.199629 
Q 167.314008 96.199629 166.422921 96.199629 
" clip-path="url(#p1f48843a5d)" style="fill: none; stroke: #d3d3d3; stroke-width: 3; stroke-linecap: round"/>
    <path d="M 146.422921 86.199629 
L 166.422921 96.199629 
L 146.422921 106.199629 
L 146.422921 86.199629 
z
" clip-path="url(#p1f48843a5d)" style="fill: #d3d3d3; stroke: #d3d3d3; stroke-width: 3; stroke-linecap: round"/>
   </g>
   <g id="patch_16">
    <path d="M 142.578899 96.199629 
Q 134.847467 96.199629 130.470138 96.199629 
" clip-path="url(#p1f48843a5d)" style="fill: none; stroke: #d3d3d3; stroke-width: 3; stroke-linecap: round"/>
    <path d="M 150.470138 106.199629 
L 130.470138 96.199629 
L 150.470138 86.199629 
L 150.470138 106.199629 
z
" clip-path="url(#p1f48843a5d)" style="fill: #d3d3d3; stroke: #d3d3d3; stroke-width: 3; stroke-linecap: round"/>
   </g>
   <g id="PathCollection_1">
    <defs>
     <path id="m99bc0aa1ec" d="M 0 22.36068 
C 5.930122 22.36068 11.618159 20.004617 15.811388 15.811388 
C 20.004617 11.618159 22.36068 5.930122 22.36068 0 
C 22.36068 -5.930122 20.004617 -11.618159 15.811388 -15.811388 
C 11.618159 -20.004617 5.930122 -22.36068 0 -22.36068 
C -5.930122 -22.36068 -11.618159 -20.004617 -15.811388 -15.811388 
C -20.004617 -11.618159 -22.36068 -5.930122 -22.36068 0 
C -22.36068 5.930122 -20.004617 11.618159 -15.811388 15.811388 
C -11.618159 20.004617 -5.930122 22.36068 0 22.36068 
z
" style="stroke: #1f78b4"/>
    </defs>
    <g clip-path="url(#p1f48843a5d)">
     <use xlink:href="#m99bc0aa1ec" x="319.167233" y="80.129843" style="fill: #1f78b4; stroke: #1f78b4"/>
     <use xlink:href="#m99bc0aa1ec" x="319.167233" y="197.256198" style="fill: #1f78b4; stroke: #1f78b4"/>
     <use xlink:href="#m99bc0aa1ec" x="255.36846" y="96.199629" style="fill: #1f78b4; stroke: #1f78b4"/>
     <use xlink:href="#m99bc0aa1ec" x="319.167233" y="18.743802" style="fill: #1f78b4; stroke: #1f78b4"/>
     <use xlink:href="#m99bc0aa1ec" x="319.167233" y="88.668672" style="fill: #1f78b4; stroke: #1f78b4"/>
     <use xlink:href="#m99bc0aa1ec" x="192.135674" y="96.199629" style="fill: #1f78b4; stroke: #1f78b4"/>
     <use xlink:href="#m99bc0aa1ec" x="142.493006" y="96.199629" style="fill: #1f78b4; stroke: #1f78b4"/>
     <use xlink:href="#m99bc0aa1ec" x="164.939795" y="96.199629" style="fill: #1f78b4; stroke: #1f78b4"/>
     <use xlink:href="#m99bc0aa1ec" x="30.328108" y="96.199629" style="fill: #1f78b4; stroke: #1f78b4"/>
     <use xlink:href="#m99bc0aa1ec" x="127.116036" y="96.199629" style="fill: #1f78b4; stroke: #1f78b4"/>
     <use xlink:href="#m99bc0aa1ec" x="192.135674" y="96.199629" style="fill: #1f78b4; stroke: #1f78b4"/>
     <use xlink:href="#m99bc0aa1ec" x="192.135674" y="96.199629" style="fill: #1f78b4; stroke: #1f78b4"/>
    </g>
   </g>
   <g id="text_1">
    <g clip-path="url(#p1f48843a5d)">
     <!-- pore.seed -->
     <g transform="translate(229.222233 88.959843)scale(0.32 -0.32)">
      <defs>
       <path id="DejaVuSans-Bold-70" d="M 1656 506 
L 1656 -1331 
L 538 -1331 
L 538 3500 
L 1656 3500 
L 1656 2988 
Q 1888 3294 2169 3439 
Q 2450 3584 2816 3584 
Q 3463 3584 3878 3070 
Q 4294 2556 4294 1747 
Q 4294 938 3878 423 
Q 3463 -91 2816 -91 
Q 2450 -91 2169 54 
Q 1888 200 1656 506 
z
M 2400 2772 
Q 2041 2772 1848 2508 
Q 1656 2244 1656 1747 
Q 1656 1250 1848 986 
Q 2041 722 2400 722 
Q 2759 722 2948 984 
Q 3138 1247 3138 1747 
Q 3138 2247 2948 2509 
Q 2759 2772 2400 2772 
z
" transform="scale(0.015625)"/>
       <path id="DejaVuSans-Bold-6f" d="M 2203 2784 
Q 1831 2784 1636 2517 
Q 1441 2250 1441 1747 
Q 1441 1244 1636 976 
Q 1831 709 2203 709 
Q 2569 709 2762 976 
Q 2956 1244 2956 1747 
Q 2956 2250 2762 2517 
Q 2569 2784 2203 2784 
z
M 2203 3584 
Q 3106 3584 3614 3096 
Q 4122 2609 4122 1747 
Q 4122 884 3614 396 
Q 3106 -91 2203 -91 
Q 1297 -91 786 396 
Q 275 884 275 1747 
Q 275 2609 786 3096 
Q 1297 3584 2203 3584 
z
" transform="scale(0.015625)"/>
       <path id="DejaVuSans-Bold-72" d="M 3138 2547 
Q 2991 2616 2845 2648 
Q 2700 2681 2553 2681 
Q 2122 2681 1889 2404 
Q 1656 2128 1656 1613 
L 1656 0 
L 538 0 
L 538 3500 
L 1656 3500 
L 1656 2925 
Q 1872 3269 2151 3426 
Q 2431 3584 2822 3584 
Q 2878 3584 2943 3579 
Q 3009 3575 3134 3559 
L 3138 2547 
z
" transform="scale(0.015625)"/>
       <path id="DejaVuSans-Bold-65" d="M 4031 1759 
L 4031 1441 
L 1416 1441 
Q 1456 1047 1700 850 
Q 1944 653 2381 653 
Q 2734 653 3104 758 
Q 3475 863 3866 1075 
L 3866 213 
Q 3469 63 3072 -14 
Q 2675 -91 2278 -91 
Q 1328 -91 801 392 
Q 275 875 275 1747 
Q 275 2603 792 3093 
Q 1309 3584 2216 3584 
Q 3041 3584 3536 3087 
Q 4031 2591 4031 1759 
z
M 2881 2131 
Q 2881 2450 2695 2645 
Q 2509 2841 2209 2841 
Q 1884 2841 1681 2658 
Q 1478 2475 1428 2131 
L 2881 2131 
z
" transform="scale(0.015625)"/>
       <path id="DejaVuSans-Bold-2e" d="M 653 1209 
L 1778 1209 
L 1778 0 
L 653 0 
L 653 1209 
z
" transform="scale(0.015625)"/>
       <path id="DejaVuSans-Bold-73" d="M 3272 3391 
L 3272 2541 
Q 2913 2691 2578 2766 
Q 2244 2841 1947 2841 
Q 1628 2841 1473 2761 
Q 1319 2681 1319 2516 
Q 1319 2381 1436 2309 
Q 1553 2238 1856 2203 
L 2053 2175 
Q 2913 2066 3209 1816 
Q 3506 1566 3506 1031 
Q 3506 472 3093 190 
Q 2681 -91 1863 -91 
Q 1516 -91 1145 -36 
Q 775 19 384 128 
L 384 978 
Q 719 816 1070 734 
Q 1422 653 1784 653 
Q 2113 653 2278 743 
Q 2444 834 2444 1013 
Q 2444 1163 2330 1236 
Q 2216 1309 1875 1350 
L 1678 1375 
Q 931 1469 631 1722 
Q 331 1975 331 2491 
Q 331 3047 712 3315 
Q 1094 3584 1881 3584 
Q 2191 3584 2531 3537 
Q 2872 3491 3272 3391 
z
" transform="scale(0.015625)"/>
       <path id="DejaVuSans-Bold-64" d="M 2919 2988 
L 2919 4863 
L 4044 4863 
L 4044 0 
L 2919 0 
L 2919 506 
Q 2688 197 2409 53 
Q 2131 -91 1766 -91 
Q 1119 -91 703 423 
Q 288 938 288 1747 
Q 288 2556 703 3070 
Q 1119 3584 1766 3584 
Q 2128 3584 2408 3439 
Q 2688 3294 2919 2988 
z
M 2181 722 
Q 2541 722 2730 984 
Q 2919 1247 2919 1747 
Q 2919 2247 2730 2509 
Q 2541 2772 2181 2772 
Q 1825 2772 1636 2509 
Q 1447 2247 1447 1747 
Q 1447 1247 1636 984 
Q 1825 722 2181 722 
z
" transform="scale(0.015625)"/>
      </defs>
      <use xlink:href="#DejaVuSans-Bold-70"/>
      <use xlink:href="#DejaVuSans-Bold-6f" x="71.582031"/>
      <use xlink:href="#DejaVuSans-Bold-72" x="140.283203"/>
      <use xlink:href="#DejaVuSans-Bold-65" x="189.599609"/>
      <use xlink:href="#DejaVuSans-Bold-2e" x="257.421875"/>
      <use xlink:href="#DejaVuSans-Bold-73" x="295.410156"/>
      <use xlink:href="#DejaVuSans-Bold-65" x="354.931641"/>
      <use xlink:href="#DejaVuSans-Bold-65" x="422.753906"/>
      <use xlink:href="#DejaVuSans-Bold-64" x="490.576172"/>
     </g>
    </g>
   </g>
   <g id="text_2">
    <g clip-path="url(#p1f48843a5d)">
     <!-- pore.max_size -->
     <g transform="translate(190.939733 205.641198)scale(0.32 -0.32)">
      <defs>
       <path id="DejaVuSans-Bold-6d" d="M 3781 2919 
Q 3994 3244 4286 3414 
Q 4578 3584 4928 3584 
Q 5531 3584 5847 3212 
Q 6163 2841 6163 2131 
L 6163 0 
L 5038 0 
L 5038 1825 
Q 5041 1866 5042 1909 
Q 5044 1953 5044 2034 
Q 5044 2406 4934 2573 
Q 4825 2741 4581 2741 
Q 4263 2741 4089 2478 
Q 3916 2216 3909 1719 
L 3909 0 
L 2784 0 
L 2784 1825 
Q 2784 2406 2684 2573 
Q 2584 2741 2328 2741 
Q 2006 2741 1831 2477 
Q 1656 2213 1656 1722 
L 1656 0 
L 531 0 
L 531 3500 
L 1656 3500 
L 1656 2988 
Q 1863 3284 2130 3434 
Q 2397 3584 2719 3584 
Q 3081 3584 3359 3409 
Q 3638 3234 3781 2919 
z
" transform="scale(0.015625)"/>
       <path id="DejaVuSans-Bold-61" d="M 2106 1575 
Q 1756 1575 1579 1456 
Q 1403 1338 1403 1106 
Q 1403 894 1545 773 
Q 1688 653 1941 653 
Q 2256 653 2472 879 
Q 2688 1106 2688 1447 
L 2688 1575 
L 2106 1575 
z
M 3816 1997 
L 3816 0 
L 2688 0 
L 2688 519 
Q 2463 200 2181 54 
Q 1900 -91 1497 -91 
Q 953 -91 614 226 
Q 275 544 275 1050 
Q 275 1666 698 1953 
Q 1122 2241 2028 2241 
L 2688 2241 
L 2688 2328 
Q 2688 2594 2478 2717 
Q 2269 2841 1825 2841 
Q 1466 2841 1156 2769 
Q 847 2697 581 2553 
L 581 3406 
Q 941 3494 1303 3539 
Q 1666 3584 2028 3584 
Q 2975 3584 3395 3211 
Q 3816 2838 3816 1997 
z
" transform="scale(0.015625)"/>
       <path id="DejaVuSans-Bold-78" d="M 1422 1791 
L 159 3500 
L 1344 3500 
L 2059 2463 
L 2784 3500 
L 3969 3500 
L 2706 1797 
L 4031 0 
L 2847 0 
L 2059 1106 
L 1281 0 
L 97 0 
L 1422 1791 
z
" transform="scale(0.015625)"/>
       <path id="DejaVuSans-Bold-5f" d="M 3200 -916 
L 3200 -1509 
L 0 -1509 
L 0 -916 
L 3200 -916 
z
" transform="scale(0.015625)"/>
       <path id="DejaVuSans-Bold-69" d="M 538 3500 
L 1656 3500 
L 1656 0 
L 538 0 
L 538 3500 
z
M 538 4863 
L 1656 4863 
L 1656 3950 
L 538 3950 
L 538 4863 
z
" transform="scale(0.015625)"/>
       <path id="DejaVuSans-Bold-7a" d="M 366 3500 
L 3419 3500 
L 3419 2719 
L 1575 800 
L 3419 800 
L 3419 0 
L 288 0 
L 288 781 
L 2131 2700 
L 366 2700 
L 366 3500 
z
" transform="scale(0.015625)"/>
      </defs>
      <use xlink:href="#DejaVuSans-Bold-70"/>
      <use xlink:href="#DejaVuSans-Bold-6f" x="71.582031"/>
      <use xlink:href="#DejaVuSans-Bold-72" x="140.283203"/>
      <use xlink:href="#DejaVuSans-Bold-65" x="189.599609"/>
      <use xlink:href="#DejaVuSans-Bold-2e" x="257.421875"/>
      <use xlink:href="#DejaVuSans-Bold-6d" x="295.410156"/>
      <use xlink:href="#DejaVuSans-Bold-61" x="399.609375"/>
      <use xlink:href="#DejaVuSans-Bold-78" x="467.089844"/>
      <use xlink:href="#DejaVuSans-Bold-5f" x="531.591797"/>
      <use xlink:href="#DejaVuSans-Bold-73" x="581.591797"/>
      <use xlink:href="#DejaVuSans-Bold-69" x="641.113281"/>
      <use xlink:href="#DejaVuSans-Bold-7a" x="675.390625"/>
      <use xlink:href="#DejaVuSans-Bold-65" x="733.59375"/>
     </g>
    </g>
   </g>
   <g id="text_3">
    <g clip-path="url(#p1f48843a5d)">
     <!-- pore.diameter -->
     <g transform="translate(126.45346 105.029629)scale(0.32 -0.32)">
      <defs>
       <path id="DejaVuSans-Bold-74" d="M 1759 4494 
L 1759 3500 
L 2913 3500 
L 2913 2700 
L 1759 2700 
L 1759 1216 
Q 1759 972 1856 886 
Q 1953 800 2241 800 
L 2816 800 
L 2816 0 
L 1856 0 
Q 1194 0 917 276 
Q 641 553 641 1216 
L 641 2700 
L 84 2700 
L 84 3500 
L 641 3500 
L 641 4494 
L 1759 4494 
z
" transform="scale(0.015625)"/>
      </defs>
      <use xlink:href="#DejaVuSans-Bold-70"/>
      <use xlink:href="#DejaVuSans-Bold-6f" x="71.582031"/>
      <use xlink:href="#DejaVuSans-Bold-72" x="140.283203"/>
      <use xlink:href="#DejaVuSans-Bold-65" x="189.599609"/>
      <use xlink:href="#DejaVuSans-Bold-2e" x="257.421875"/>
      <use xlink:href="#DejaVuSans-Bold-64" x="295.410156"/>
      <use xlink:href="#DejaVuSans-Bold-69" x="366.992188"/>
      <use xlink:href="#DejaVuSans-Bold-61" x="401.269531"/>
      <use xlink:href="#DejaVuSans-Bold-6d" x="468.75"/>
      <use xlink:href="#DejaVuSans-Bold-65" x="572.949219"/>
      <use xlink:href="#DejaVuSans-Bold-74" x="640.771484"/>
      <use xlink:href="#DejaVuSans-Bold-65" x="688.574219"/>
      <use xlink:href="#DejaVuSans-Bold-72" x="756.396484"/>
     </g>
    </g>
   </g>
   <g id="text_4">
    <g clip-path="url(#p1f48843a5d)">
     <!-- pore.cross_sectional_area -->
     <g transform="translate(86.494733 27.128802)scale(0.32 -0.32)">
      <defs>
       <path id="DejaVuSans-Bold-63" d="M 3366 3391 
L 3366 2478 
Q 3138 2634 2908 2709 
Q 2678 2784 2431 2784 
Q 1963 2784 1702 2511 
Q 1441 2238 1441 1747 
Q 1441 1256 1702 982 
Q 1963 709 2431 709 
Q 2694 709 2930 787 
Q 3166 866 3366 1019 
L 3366 103 
Q 3103 6 2833 -42 
Q 2563 -91 2291 -91 
Q 1344 -91 809 395 
Q 275 881 275 1747 
Q 275 2613 809 3098 
Q 1344 3584 2291 3584 
Q 2566 3584 2833 3536 
Q 3100 3488 3366 3391 
z
" transform="scale(0.015625)"/>
       <path id="DejaVuSans-Bold-6e" d="M 4056 2131 
L 4056 0 
L 2931 0 
L 2931 347 
L 2931 1631 
Q 2931 2084 2911 2256 
Q 2891 2428 2841 2509 
Q 2775 2619 2662 2680 
Q 2550 2741 2406 2741 
Q 2056 2741 1856 2470 
Q 1656 2200 1656 1722 
L 1656 0 
L 538 0 
L 538 3500 
L 1656 3500 
L 1656 2988 
Q 1909 3294 2193 3439 
Q 2478 3584 2822 3584 
Q 3428 3584 3742 3212 
Q 4056 2841 4056 2131 
z
" transform="scale(0.015625)"/>
       <path id="DejaVuSans-Bold-6c" d="M 538 4863 
L 1656 4863 
L 1656 0 
L 538 0 
L 538 4863 
z
" transform="scale(0.015625)"/>
      </defs>
      <use xlink:href="#DejaVuSans-Bold-70"/>
      <use xlink:href="#DejaVuSans-Bold-6f" x="71.582031"/>
      <use xlink:href="#DejaVuSans-Bold-72" x="140.283203"/>
      <use xlink:href="#DejaVuSans-Bold-65" x="189.599609"/>
      <use xlink:href="#DejaVuSans-Bold-2e" x="257.421875"/>
      <use xlink:href="#DejaVuSans-Bold-63" x="295.410156"/>
      <use xlink:href="#DejaVuSans-Bold-72" x="354.6875"/>
      <use xlink:href="#DejaVuSans-Bold-6f" x="404.003906"/>
      <use xlink:href="#DejaVuSans-Bold-73" x="472.705078"/>
      <use xlink:href="#DejaVuSans-Bold-73" x="532.226562"/>
      <use xlink:href="#DejaVuSans-Bold-5f" x="591.748047"/>
      <use xlink:href="#DejaVuSans-Bold-73" x="641.748047"/>
      <use xlink:href="#DejaVuSans-Bold-65" x="701.269531"/>
      <use xlink:href="#DejaVuSans-Bold-63" x="769.091797"/>
      <use xlink:href="#DejaVuSans-Bold-74" x="828.369141"/>
      <use xlink:href="#DejaVuSans-Bold-69" x="876.171875"/>
      <use xlink:href="#DejaVuSans-Bold-6f" x="910.449219"/>
      <use xlink:href="#DejaVuSans-Bold-6e" x="979.150391"/>
      <use xlink:href="#DejaVuSans-Bold-61" x="1050.341797"/>
      <use xlink:href="#DejaVuSans-Bold-6c" x="1117.822266"/>
      <use xlink:href="#DejaVuSans-Bold-5f" x="1152.099609"/>
      <use xlink:href="#DejaVuSans-Bold-61" x="1202.099609"/>
      <use xlink:href="#DejaVuSans-Bold-72" x="1269.580078"/>
      <use xlink:href="#DejaVuSans-Bold-65" x="1318.896484"/>
      <use xlink:href="#DejaVuSans-Bold-61" x="1386.71875"/>
     </g>
    </g>
   </g>
   <g id="text_5">
    <g clip-path="url(#p1f48843a5d)">
     <!-- pore.volume -->
     <g transform="translate(206.079733 97.498672)scale(0.32 -0.32)">
      <defs>
       <path id="DejaVuSans-Bold-76" d="M 97 3500 
L 1216 3500 
L 2088 1081 
L 2956 3500 
L 4078 3500 
L 2700 0 
L 1472 0 
L 97 3500 
z
" transform="scale(0.015625)"/>
       <path id="DejaVuSans-Bold-75" d="M 500 1363 
L 500 3500 
L 1625 3500 
L 1625 3150 
Q 1625 2866 1622 2436 
Q 1619 2006 1619 1863 
Q 1619 1441 1641 1255 
Q 1663 1069 1716 984 
Q 1784 875 1895 815 
Q 2006 756 2150 756 
Q 2500 756 2700 1025 
Q 2900 1294 2900 1772 
L 2900 3500 
L 4019 3500 
L 4019 0 
L 2900 0 
L 2900 506 
Q 2647 200 2364 54 
Q 2081 -91 1741 -91 
Q 1134 -91 817 281 
Q 500 653 500 1363 
z
" transform="scale(0.015625)"/>
      </defs>
      <use xlink:href="#DejaVuSans-Bold-70"/>
      <use xlink:href="#DejaVuSans-Bold-6f" x="71.582031"/>
      <use xlink:href="#DejaVuSans-Bold-72" x="140.283203"/>
      <use xlink:href="#DejaVuSans-Bold-65" x="189.599609"/>
      <use xlink:href="#DejaVuSans-Bold-2e" x="257.421875"/>
      <use xlink:href="#DejaVuSans-Bold-76" x="295.410156"/>
      <use xlink:href="#DejaVuSans-Bold-6f" x="360.595703"/>
      <use xlink:href="#DejaVuSans-Bold-6c" x="429.296875"/>
      <use xlink:href="#DejaVuSans-Bold-75" x="463.574219"/>
      <use xlink:href="#DejaVuSans-Bold-6d" x="534.765625"/>
      <use xlink:href="#DejaVuSans-Bold-65" x="638.964844"/>
     </g>
    </g>
   </g>
   <g id="text_6">
    <g clip-path="url(#p1f48843a5d)">
     <!-- throat.max_size -->
     <g transform="translate(48.730674 104.584629)scale(0.32 -0.32)">
      <defs>
       <path id="DejaVuSans-Bold-68" d="M 4056 2131 
L 4056 0 
L 2931 0 
L 2931 347 
L 2931 1625 
Q 2931 2084 2911 2256 
Q 2891 2428 2841 2509 
Q 2775 2619 2662 2680 
Q 2550 2741 2406 2741 
Q 2056 2741 1856 2470 
Q 1656 2200 1656 1722 
L 1656 0 
L 538 0 
L 538 4863 
L 1656 4863 
L 1656 2988 
Q 1909 3294 2193 3439 
Q 2478 3584 2822 3584 
Q 3428 3584 3742 3212 
Q 4056 2841 4056 2131 
z
" transform="scale(0.015625)"/>
      </defs>
      <use xlink:href="#DejaVuSans-Bold-74"/>
      <use xlink:href="#DejaVuSans-Bold-68" x="47.802734"/>
      <use xlink:href="#DejaVuSans-Bold-72" x="118.994141"/>
      <use xlink:href="#DejaVuSans-Bold-6f" x="168.310547"/>
      <use xlink:href="#DejaVuSans-Bold-61" x="237.011719"/>
      <use xlink:href="#DejaVuSans-Bold-74" x="304.492188"/>
      <use xlink:href="#DejaVuSans-Bold-2e" x="352.294922"/>
      <use xlink:href="#DejaVuSans-Bold-6d" x="390.283203"/>
      <use xlink:href="#DejaVuSans-Bold-61" x="494.482422"/>
      <use xlink:href="#DejaVuSans-Bold-78" x="561.962891"/>
      <use xlink:href="#DejaVuSans-Bold-5f" x="626.464844"/>
      <use xlink:href="#DejaVuSans-Bold-73" x="676.464844"/>
      <use xlink:href="#DejaVuSans-Bold-69" x="735.986328"/>
      <use xlink:href="#DejaVuSans-Bold-7a" x="770.263672"/>
      <use xlink:href="#DejaVuSans-Bold-65" x="828.466797"/>
     </g>
    </g>
   </g>
   <g id="text_7">
    <g clip-path="url(#p1f48843a5d)">
     <!-- throat.diameter -->
     <g transform="translate(-1.599494 105.029629)scale(0.32 -0.32)">
      <use xlink:href="#DejaVuSans-Bold-74"/>
      <use xlink:href="#DejaVuSans-Bold-68" x="47.802734"/>
      <use xlink:href="#DejaVuSans-Bold-72" x="118.994141"/>
      <use xlink:href="#DejaVuSans-Bold-6f" x="168.310547"/>
      <use xlink:href="#DejaVuSans-Bold-61" x="237.011719"/>
      <use xlink:href="#DejaVuSans-Bold-74" x="304.492188"/>
      <use xlink:href="#DejaVuSans-Bold-2e" x="352.294922"/>
      <use xlink:href="#DejaVuSans-Bold-64" x="390.283203"/>
      <use xlink:href="#DejaVuSans-Bold-69" x="461.865234"/>
      <use xlink:href="#DejaVuSans-Bold-61" x="496.142578"/>
      <use xlink:href="#DejaVuSans-Bold-6d" x="563.623047"/>
      <use xlink:href="#DejaVuSans-Bold-65" x="667.822266"/>
      <use xlink:href="#DejaVuSans-Bold-74" x="735.644531"/>
      <use xlink:href="#DejaVuSans-Bold-65" x="783.447266"/>
      <use xlink:href="#DejaVuSans-Bold-72" x="851.269531"/>
     </g>
    </g>
   </g>
   <g id="text_8">
    <g clip-path="url(#p1f48843a5d)">
     <!-- throat.length -->
     <g transform="translate(44.279795 104.904629)scale(0.32 -0.32)">
      <defs>
       <path id="DejaVuSans-Bold-67" d="M 2919 594 
Q 2688 288 2409 144 
Q 2131 0 1766 0 
Q 1125 0 706 504 
Q 288 1009 288 1791 
Q 288 2575 706 3076 
Q 1125 3578 1766 3578 
Q 2131 3578 2409 3434 
Q 2688 3291 2919 2981 
L 2919 3500 
L 4044 3500 
L 4044 353 
Q 4044 -491 3511 -936 
Q 2978 -1381 1966 -1381 
Q 1638 -1381 1331 -1331 
Q 1025 -1281 716 -1178 
L 716 -306 
Q 1009 -475 1290 -558 
Q 1572 -641 1856 -641 
Q 2406 -641 2662 -400 
Q 2919 -159 2919 353 
L 2919 594 
z
M 2181 2772 
Q 1834 2772 1640 2515 
Q 1447 2259 1447 1791 
Q 1447 1309 1634 1061 
Q 1822 813 2181 813 
Q 2531 813 2725 1069 
Q 2919 1325 2919 1791 
Q 2919 2259 2725 2515 
Q 2531 2772 2181 2772 
z
" transform="scale(0.015625)"/>
      </defs>
      <use xlink:href="#DejaVuSans-Bold-74"/>
      <use xlink:href="#DejaVuSans-Bold-68" x="47.802734"/>
      <use xlink:href="#DejaVuSans-Bold-72" x="118.994141"/>
      <use xlink:href="#DejaVuSans-Bold-6f" x="168.310547"/>
      <use xlink:href="#DejaVuSans-Bold-61" x="237.011719"/>
      <use xlink:href="#DejaVuSans-Bold-74" x="304.492188"/>
      <use xlink:href="#DejaVuSans-Bold-2e" x="352.294922"/>
      <use xlink:href="#DejaVuSans-Bold-6c" x="390.283203"/>
      <use xlink:href="#DejaVuSans-Bold-65" x="424.560547"/>
      <use xlink:href="#DejaVuSans-Bold-6e" x="492.382812"/>
      <use xlink:href="#DejaVuSans-Bold-67" x="563.574219"/>
      <use xlink:href="#DejaVuSans-Bold-74" x="635.15625"/>
      <use xlink:href="#DejaVuSans-Bold-68" x="682.958984"/>
     </g>
    </g>
   </g>
   <g id="text_9">
    <g clip-path="url(#p1f48843a5d)">
     <!-- throat.cross_sectional_area -->
     <g transform="translate(-217.521892 104.584629)scale(0.32 -0.32)">
      <use xlink:href="#DejaVuSans-Bold-74"/>
      <use xlink:href="#DejaVuSans-Bold-68" x="47.802734"/>
      <use xlink:href="#DejaVuSans-Bold-72" x="118.994141"/>
      <use xlink:href="#DejaVuSans-Bold-6f" x="168.310547"/>
      <use xlink:href="#DejaVuSans-Bold-61" x="237.011719"/>
      <use xlink:href="#DejaVuSans-Bold-74" x="304.492188"/>
      <use xlink:href="#DejaVuSans-Bold-2e" x="352.294922"/>
      <use xlink:href="#DejaVuSans-Bold-63" x="390.283203"/>
      <use xlink:href="#DejaVuSans-Bold-72" x="449.560547"/>
      <use xlink:href="#DejaVuSans-Bold-6f" x="498.876953"/>
      <use xlink:href="#DejaVuSans-Bold-73" x="567.578125"/>
      <use xlink:href="#DejaVuSans-Bold-73" x="627.099609"/>
      <use xlink:href="#DejaVuSans-Bold-5f" x="686.621094"/>
      <use xlink:href="#DejaVuSans-Bold-73" x="736.621094"/>
      <use xlink:href="#DejaVuSans-Bold-65" x="796.142578"/>
      <use xlink:href="#DejaVuSans-Bold-63" x="863.964844"/>
      <use xlink:href="#DejaVuSans-Bold-74" x="923.242188"/>
      <use xlink:href="#DejaVuSans-Bold-69" x="971.044922"/>
      <use xlink:href="#DejaVuSans-Bold-6f" x="1005.322266"/>
      <use xlink:href="#DejaVuSans-Bold-6e" x="1074.023438"/>
      <use xlink:href="#DejaVuSans-Bold-61" x="1145.214844"/>
      <use xlink:href="#DejaVuSans-Bold-6c" x="1212.695312"/>
      <use xlink:href="#DejaVuSans-Bold-5f" x="1246.972656"/>
      <use xlink:href="#DejaVuSans-Bold-61" x="1296.972656"/>
      <use xlink:href="#DejaVuSans-Bold-72" x="1364.453125"/>
      <use xlink:href="#DejaVuSans-Bold-65" x="1413.769531"/>
      <use xlink:href="#DejaVuSans-Bold-61" x="1481.591797"/>
     </g>
    </g>
   </g>
   <g id="text_10">
    <g clip-path="url(#p1f48843a5d)">
     <!-- throat.volume -->
     <g transform="translate(-1.148964 105.029629)scale(0.32 -0.32)">
      <use xlink:href="#DejaVuSans-Bold-74"/>
      <use xlink:href="#DejaVuSans-Bold-68" x="47.802734"/>
      <use xlink:href="#DejaVuSans-Bold-72" x="118.994141"/>
      <use xlink:href="#DejaVuSans-Bold-6f" x="168.310547"/>
      <use xlink:href="#DejaVuSans-Bold-61" x="237.011719"/>
      <use xlink:href="#DejaVuSans-Bold-74" x="304.492188"/>
      <use xlink:href="#DejaVuSans-Bold-2e" x="352.294922"/>
      <use xlink:href="#DejaVuSans-Bold-76" x="390.283203"/>
      <use xlink:href="#DejaVuSans-Bold-6f" x="455.46875"/>
      <use xlink:href="#DejaVuSans-Bold-6c" x="524.169922"/>
      <use xlink:href="#DejaVuSans-Bold-75" x="558.447266"/>
      <use xlink:href="#DejaVuSans-Bold-6d" x="629.638672"/>
      <use xlink:href="#DejaVuSans-Bold-65" x="733.837891"/>
     </g>
    </g>
   </g>
   <g id="text_11">
    <g clip-path="url(#p1f48843a5d)">
     <!-- throat.diffusive_size_factors -->
     <g transform="translate(-63.311826 104.584629)scale(0.32 -0.32)">
      <defs>
       <path id="DejaVuSans-Bold-66" d="M 2841 4863 
L 2841 4128 
L 2222 4128 
Q 1984 4128 1890 4042 
Q 1797 3956 1797 3744 
L 1797 3500 
L 2753 3500 
L 2753 2700 
L 1797 2700 
L 1797 0 
L 678 0 
L 678 2700 
L 122 2700 
L 122 3500 
L 678 3500 
L 678 3744 
Q 678 4316 997 4589 
Q 1316 4863 1984 4863 
L 2841 4863 
z
" transform="scale(0.015625)"/>
      </defs>
      <use xlink:href="#DejaVuSans-Bold-74"/>
      <use xlink:href="#DejaVuSans-Bold-68" x="47.802734"/>
      <use xlink:href="#DejaVuSans-Bold-72" x="118.994141"/>
      <use xlink:href="#DejaVuSans-Bold-6f" x="168.310547"/>
      <use xlink:href="#DejaVuSans-Bold-61" x="237.011719"/>
      <use xlink:href="#DejaVuSans-Bold-74" x="304.492188"/>
      <use xlink:href="#DejaVuSans-Bold-2e" x="352.294922"/>
      <use xlink:href="#DejaVuSans-Bold-64" x="390.283203"/>
      <use xlink:href="#DejaVuSans-Bold-69" x="461.865234"/>
      <use xlink:href="#DejaVuSans-Bold-66" x="496.142578"/>
      <use xlink:href="#DejaVuSans-Bold-66" x="539.648438"/>
      <use xlink:href="#DejaVuSans-Bold-75" x="583.154297"/>
      <use xlink:href="#DejaVuSans-Bold-73" x="654.345703"/>
      <use xlink:href="#DejaVuSans-Bold-69" x="713.867188"/>
      <use xlink:href="#DejaVuSans-Bold-76" x="748.144531"/>
      <use xlink:href="#DejaVuSans-Bold-65" x="813.330078"/>
      <use xlink:href="#DejaVuSans-Bold-5f" x="881.152344"/>
      <use xlink:href="#DejaVuSans-Bold-73" x="931.152344"/>
      <use xlink:href="#DejaVuSans-Bold-69" x="990.673828"/>
      <use xlink:href="#DejaVuSans-Bold-7a" x="1024.951172"/>
      <use xlink:href="#DejaVuSans-Bold-65" x="1083.154297"/>
      <use xlink:href="#DejaVuSans-Bold-5f" x="1150.976562"/>
      <use xlink:href="#DejaVuSans-Bold-66" x="1200.976562"/>
      <use xlink:href="#DejaVuSans-Bold-61" x="1244.482422"/>
      <use xlink:href="#DejaVuSans-Bold-63" x="1311.962891"/>
      <use xlink:href="#DejaVuSans-Bold-74" x="1371.240234"/>
      <use xlink:href="#DejaVuSans-Bold-6f" x="1419.042969"/>
      <use xlink:href="#DejaVuSans-Bold-72" x="1487.744141"/>
      <use xlink:href="#DejaVuSans-Bold-73" x="1537.060547"/>
     </g>
    </g>
   </g>
   <g id="text_12">
    <g clip-path="url(#p1f48843a5d)">
     <!-- throat.hydraulic_size_factors -->
     <g transform="translate(-68.579326 104.584629)scale(0.32 -0.32)">
      <defs>
       <path id="DejaVuSans-Bold-79" d="M 78 3500 
L 1197 3500 
L 2138 1125 
L 2938 3500 
L 4056 3500 
L 2584 -331 
Q 2363 -916 2067 -1148 
Q 1772 -1381 1288 -1381 
L 641 -1381 
L 641 -647 
L 991 -647 
Q 1275 -647 1404 -556 
Q 1534 -466 1606 -231 
L 1638 -134 
L 78 3500 
z
" transform="scale(0.015625)"/>
      </defs>
      <use xlink:href="#DejaVuSans-Bold-74"/>
      <use xlink:href="#DejaVuSans-Bold-68" x="47.802734"/>
      <use xlink:href="#DejaVuSans-Bold-72" x="118.994141"/>
      <use xlink:href="#DejaVuSans-Bold-6f" x="168.310547"/>
      <use xlink:href="#DejaVuSans-Bold-61" x="237.011719"/>
      <use xlink:href="#DejaVuSans-Bold-74" x="304.492188"/>
      <use xlink:href="#DejaVuSans-Bold-2e" x="352.294922"/>
      <use xlink:href="#DejaVuSans-Bold-68" x="390.283203"/>
      <use xlink:href="#DejaVuSans-Bold-79" x="461.474609"/>
      <use xlink:href="#DejaVuSans-Bold-64" x="526.660156"/>
      <use xlink:href="#DejaVuSans-Bold-72" x="598.242188"/>
      <use xlink:href="#DejaVuSans-Bold-61" x="647.558594"/>
      <use xlink:href="#DejaVuSans-Bold-75" x="715.039062"/>
      <use xlink:href="#DejaVuSans-Bold-6c" x="786.230469"/>
      <use xlink:href="#DejaVuSans-Bold-69" x="820.507812"/>
      <use xlink:href="#DejaVuSans-Bold-63" x="854.785156"/>
      <use xlink:href="#DejaVuSans-Bold-5f" x="914.0625"/>
      <use xlink:href="#DejaVuSans-Bold-73" x="964.0625"/>
      <use xlink:href="#DejaVuSans-Bold-69" x="1023.583984"/>
      <use xlink:href="#DejaVuSans-Bold-7a" x="1057.861328"/>
      <use xlink:href="#DejaVuSans-Bold-65" x="1116.064453"/>
      <use xlink:href="#DejaVuSans-Bold-5f" x="1183.886719"/>
      <use xlink:href="#DejaVuSans-Bold-66" x="1233.886719"/>
      <use xlink:href="#DejaVuSans-Bold-61" x="1277.392578"/>
      <use xlink:href="#DejaVuSans-Bold-63" x="1344.873047"/>
      <use xlink:href="#DejaVuSans-Bold-74" x="1404.150391"/>
      <use xlink:href="#DejaVuSans-Bold-6f" x="1451.953125"/>
      <use xlink:href="#DejaVuSans-Bold-72" x="1520.654297"/>
      <use xlink:href="#DejaVuSans-Bold-73" x="1569.970703"/>
     </g>
    </g>
   </g>
  </g>
 </g>
 <defs>
  <clipPath id="p1f48843a5d">
   <rect x="0" y="0" width="349.495342" height="216"/>
  </clipPath>
 </defs>
</svg>
