<?xml version="1.0" encoding="utf-8" standalone="no"?>
<!DOCTYPE svg PUBLIC "-//W3C//DTD SVG 1.1//EN"
  "http://www.w3.org/Graphics/SVG/1.1/DTD/svg11.dtd">
<svg xmlns:xlink="http://www.w3.org/1999/xlink" width="349.495342pt" height="216pt" viewBox="0 0 349.495342 216" xmlns="http://www.w3.org/2000/svg" version="1.1">
 <metadata>
  <rdf:RDF xmlns:dc="http://purl.org/dc/elements/1.1/" xmlns:cc="http://creativecommons.org/ns#" xmlns:rdf="http://www.w3.org/1999/02/22-rdf-syntax-ns#">
   <cc:Work>
    <dc:type rdf:resource="http://purl.org/dc/dcmitype/StillImage"/>
    <dc:date>2022-09-21T01:42:39.561213</dc:date>
    <dc:format>image/svg+xml</dc:format>
    <dc:creator>
     <cc:Agent>
      <dc:title>Matplotlib v3.6.0, https://matplotlib.org/</dc:title>
     </cc:Agent>
    </dc:creator>
   </cc:Work>
  </rdf:RDF>
 </metadata>
 <defs>
  <style type="text/css">*{stroke-linejoin: round; stroke-linecap: butt}</style>
 </defs>
 <g id="figure_1">
  <g id="patch_1">
   <path d="M 0 216 
L 349.495342 216 
L 349.495342 0 
L 0 0 
z
" style="fill: #ffffff"/>
  </g>
  <g id="axes_1">
   <g id="patch_2">
    <path d="M 36.140313 189.033828 
L 324.365969 189.033828 
L 324.365969 10.53 
L 36.140313 10.53 
z
" style="fill: #ffffff"/>
   </g>
   <g id="patch_3">
    <path d="M 49.241479 189.033828 
L 54.481945 189.033828 
L 54.481945 188.189439 
L 49.241479 188.189439 
z
" clip-path="url(#p8ef075f8f0)" style="fill: #1f77b4"/>
   </g>
   <g id="patch_4">
    <path d="M 54.481945 189.033828 
L 59.722412 189.033828 
L 59.722412 188.470902 
L 54.481945 188.470902 
z
" clip-path="url(#p8ef075f8f0)" style="fill: #1f77b4"/>
   </g>
   <g id="patch_5">
    <path d="M 59.722412 189.033828 
L 64.962878 189.033828 
L 64.962878 188.470902 
L 59.722412 188.470902 
z
" clip-path="url(#p8ef075f8f0)" style="fill: #1f77b4"/>
   </g>
   <g id="patch_6">
    <path d="M 64.962878 189.033828 
L 70.203345 189.033828 
L 70.203345 188.189439 
L 64.962878 188.189439 
z
" clip-path="url(#p8ef075f8f0)" style="fill: #1f77b4"/>
   </g>
   <g id="patch_7">
    <path d="M 70.203345 189.033828 
L 75.443811 189.033828 
L 75.443811 188.470902 
L 70.203345 188.470902 
z
" clip-path="url(#p8ef075f8f0)" style="fill: #1f77b4"/>
   </g>
   <g id="patch_8">
    <path d="M 75.443811 189.033828 
L 80.684278 189.033828 
L 80.684278 186.782124 
L 75.443811 186.782124 
z
" clip-path="url(#p8ef075f8f0)" style="fill: #1f77b4"/>
   </g>
   <g id="patch_9">
    <path d="M 80.684278 189.033828 
L 85.924744 189.033828 
L 85.924744 185.374809 
L 80.684278 185.374809 
z
" clip-path="url(#p8ef075f8f0)" style="fill: #1f77b4"/>
   </g>
   <g id="patch_10">
    <path d="M 85.924744 189.033828 
L 91.16521 189.033828 
L 91.16521 183.123105 
L 85.924744 183.123105 
z
" clip-path="url(#p8ef075f8f0)" style="fill: #1f77b4"/>
   </g>
   <g id="patch_11">
    <path d="M 91.16521 189.033828 
L 96.405677 189.033828 
L 96.405677 183.123105 
L 91.16521 183.123105 
z
" clip-path="url(#p8ef075f8f0)" style="fill: #1f77b4"/>
   </g>
   <g id="patch_12">
    <path d="M 96.405677 189.033828 
L 101.646143 189.033828 
L 101.646143 178.90116 
L 96.405677 178.90116 
z
" clip-path="url(#p8ef075f8f0)" style="fill: #1f77b4"/>
   </g>
   <g id="patch_13">
    <path d="M 101.646143 189.033828 
L 106.88661 189.033828 
L 106.88661 176.649457 
L 101.646143 176.649457 
z
" clip-path="url(#p8ef075f8f0)" style="fill: #1f77b4"/>
   </g>
   <g id="patch_14">
    <path d="M 106.88661 189.033828 
L 112.127076 189.033828 
L 112.127076 169.894345 
L 106.88661 169.894345 
z
" clip-path="url(#p8ef075f8f0)" style="fill: #1f77b4"/>
   </g>
   <g id="patch_15">
    <path d="M 112.127076 189.033828 
L 117.367543 189.033828 
L 117.367543 161.731918 
L 112.127076 161.731918 
z
" clip-path="url(#p8ef075f8f0)" style="fill: #1f77b4"/>
   </g>
   <g id="patch_16">
    <path d="M 117.367543 189.033828 
L 122.608009 189.033828 
L 122.608009 156.947047 
L 117.367543 156.947047 
z
" clip-path="url(#p8ef075f8f0)" style="fill: #1f77b4"/>
   </g>
   <g id="patch_17">
    <path d="M 122.608009 189.033828 
L 127.848476 189.033828 
L 127.848476 148.503158 
L 122.608009 148.503158 
z
" clip-path="url(#p8ef075f8f0)" style="fill: #1f77b4"/>
   </g>
   <g id="patch_18">
    <path d="M 127.848476 189.033828 
L 133.088942 189.033828 
L 133.088942 131.896841 
L 127.848476 131.896841 
z
" clip-path="url(#p8ef075f8f0)" style="fill: #1f77b4"/>
   </g>
   <g id="patch_19">
    <path d="M 133.088942 189.033828 
L 138.329409 189.033828 
L 138.329409 119.793933 
L 133.088942 119.793933 
z
" clip-path="url(#p8ef075f8f0)" style="fill: #1f77b4"/>
   </g>
   <g id="patch_20">
    <path d="M 138.329409 189.033828 
L 143.569875 189.033828 
L 143.569875 97.276893 
L 138.329409 97.276893 
z
" clip-path="url(#p8ef075f8f0)" style="fill: #1f77b4"/>
   </g>
   <g id="patch_21">
    <path d="M 143.569875 189.033828 
L 148.810342 189.033828 
L 148.810342 85.455448 
L 143.569875 85.455448 
z
" clip-path="url(#p8ef075f8f0)" style="fill: #1f77b4"/>
   </g>
   <g id="patch_22">
    <path d="M 148.810342 189.033828 
L 154.050808 189.033828 
L 154.050808 72.50815 
L 148.810342 72.50815 
z
" clip-path="url(#p8ef075f8f0)" style="fill: #1f77b4"/>
   </g>
   <g id="patch_23">
    <path d="M 154.050808 189.033828 
L 159.291275 189.033828 
L 159.291275 54.213056 
L 154.050808 54.213056 
z
" clip-path="url(#p8ef075f8f0)" style="fill: #1f77b4"/>
   </g>
   <g id="patch_24">
    <path d="M 159.291275 189.033828 
L 164.531741 189.033828 
L 164.531741 54.494519 
L 159.291275 54.494519 
z
" clip-path="url(#p8ef075f8f0)" style="fill: #1f77b4"/>
   </g>
   <g id="patch_25">
    <path d="M 164.531741 189.033828 
L 169.772208 189.033828 
L 169.772208 43.517462 
L 164.531741 43.517462 
z
" clip-path="url(#p8ef075f8f0)" style="fill: #1f77b4"/>
   </g>
   <g id="patch_26">
    <path d="M 169.772208 189.033828 
L 175.012674 189.033828 
L 175.012674 36.199425 
L 169.772208 36.199425 
z
" clip-path="url(#p8ef075f8f0)" style="fill: #1f77b4"/>
   </g>
   <g id="patch_27">
    <path d="M 175.012674 189.033828 
L 180.253141 189.033828 
L 180.253141 26.34822 
L 175.012674 26.34822 
z
" clip-path="url(#p8ef075f8f0)" style="fill: #1f77b4"/>
   </g>
   <g id="patch_28">
    <path d="M 180.253141 189.033828 
L 185.493607 189.033828 
L 185.493607 21.844812 
L 180.253141 21.844812 
z
" clip-path="url(#p8ef075f8f0)" style="fill: #1f77b4"/>
   </g>
   <g id="patch_29">
    <path d="M 185.493607 189.033828 
L 190.734073 189.033828 
L 190.734073 19.030182 
L 185.493607 19.030182 
z
" clip-path="url(#p8ef075f8f0)" style="fill: #1f77b4"/>
   </g>
   <g id="patch_30">
    <path d="M 190.734073 189.033828 
L 195.97454 189.033828 
L 195.97454 19.874571 
L 190.734073 19.874571 
z
" clip-path="url(#p8ef075f8f0)" style="fill: #1f77b4"/>
   </g>
   <g id="patch_31">
    <path d="M 195.97454 189.033828 
L 201.215006 189.033828 
L 201.215006 39.576981 
L 195.97454 39.576981 
z
" clip-path="url(#p8ef075f8f0)" style="fill: #1f77b4"/>
   </g>
   <g id="patch_32">
    <path d="M 201.215006 189.033828 
L 206.455473 189.033828 
L 206.455473 35.355036 
L 201.215006 35.355036 
z
" clip-path="url(#p8ef075f8f0)" style="fill: #1f77b4"/>
   </g>
   <g id="patch_33">
    <path d="M 206.455473 189.033828 
L 211.695939 189.033828 
L 211.695939 66.315965 
L 206.455473 66.315965 
z
" clip-path="url(#p8ef075f8f0)" style="fill: #1f77b4"/>
   </g>
   <g id="patch_34">
    <path d="M 211.695939 189.033828 
L 216.936406 189.033828 
L 216.936406 73.352539 
L 211.695939 73.352539 
z
" clip-path="url(#p8ef075f8f0)" style="fill: #1f77b4"/>
   </g>
   <g id="patch_35">
    <path d="M 216.936406 189.033828 
L 222.176872 189.033828 
L 222.176872 90.240319 
L 216.936406 90.240319 
z
" clip-path="url(#p8ef075f8f0)" style="fill: #1f77b4"/>
   </g>
   <g id="patch_36">
    <path d="M 222.176872 189.033828 
L 227.417339 189.033828 
L 227.417339 115.853451 
L 222.176872 115.853451 
z
" clip-path="url(#p8ef075f8f0)" style="fill: #1f77b4"/>
   </g>
   <g id="patch_37">
    <path d="M 227.417339 189.033828 
L 232.657805 189.033828 
L 232.657805 129.082211 
L 227.417339 129.082211 
z
" clip-path="url(#p8ef075f8f0)" style="fill: #1f77b4"/>
   </g>
   <g id="patch_38">
    <path d="M 232.657805 189.033828 
L 237.898272 189.033828 
L 237.898272 139.777805 
L 232.657805 139.777805 
z
" clip-path="url(#p8ef075f8f0)" style="fill: #1f77b4"/>
   </g>
   <g id="patch_39">
    <path d="M 237.898272 189.033828 
L 243.138738 189.033828 
L 243.138738 145.688528 
L 237.898272 145.688528 
z
" clip-path="url(#p8ef075f8f0)" style="fill: #1f77b4"/>
   </g>
   <g id="patch_40">
    <path d="M 243.138738 189.033828 
L 248.379205 189.033828 
L 248.379205 158.917288 
L 243.138738 158.917288 
z
" clip-path="url(#p8ef075f8f0)" style="fill: #1f77b4"/>
   </g>
   <g id="patch_41">
    <path d="M 248.379205 189.033828 
L 253.619671 189.033828 
L 253.619671 161.731918 
L 248.379205 161.731918 
z
" clip-path="url(#p8ef075f8f0)" style="fill: #1f77b4"/>
   </g>
   <g id="patch_42">
    <path d="M 253.619671 189.033828 
L 258.860138 189.033828 
L 258.860138 173.553364 
L 253.619671 173.553364 
z
" clip-path="url(#p8ef075f8f0)" style="fill: #1f77b4"/>
   </g>
   <g id="patch_43">
    <path d="M 258.860138 189.033828 
L 264.100604 189.033828 
L 264.100604 173.271901 
L 258.860138 173.271901 
z
" clip-path="url(#p8ef075f8f0)" style="fill: #1f77b4"/>
   </g>
   <g id="patch_44">
    <path d="M 264.100604 189.033828 
L 269.341071 189.033828 
L 269.341071 180.027012 
L 264.100604 180.027012 
z
" clip-path="url(#p8ef075f8f0)" style="fill: #1f77b4"/>
   </g>
   <g id="patch_45">
    <path d="M 269.341071 189.033828 
L 274.581537 189.033828 
L 274.581537 182.560179 
L 269.341071 182.560179 
z
" clip-path="url(#p8ef075f8f0)" style="fill: #1f77b4"/>
   </g>
   <g id="patch_46">
    <path d="M 274.581537 189.033828 
L 279.822004 189.033828 
L 279.822004 187.626513 
L 274.581537 187.626513 
z
" clip-path="url(#p8ef075f8f0)" style="fill: #1f77b4"/>
   </g>
   <g id="patch_47">
    <path d="M 279.822004 189.033828 
L 285.06247 189.033828 
L 285.06247 187.907976 
L 279.822004 187.907976 
z
" clip-path="url(#p8ef075f8f0)" style="fill: #1f77b4"/>
   </g>
   <g id="patch_48">
    <path d="M 285.06247 189.033828 
L 290.302937 189.033828 
L 290.302937 187.626513 
L 285.06247 187.626513 
z
" clip-path="url(#p8ef075f8f0)" style="fill: #1f77b4"/>
   </g>
   <g id="patch_49">
    <path d="M 290.302937 189.033828 
L 295.543403 189.033828 
L 295.543403 187.063587 
L 290.302937 187.063587 
z
" clip-path="url(#p8ef075f8f0)" style="fill: #1f77b4"/>
   </g>
   <g id="patch_50">
    <path d="M 295.543403 189.033828 
L 300.783869 189.033828 
L 300.783869 188.470902 
L 295.543403 188.470902 
z
" clip-path="url(#p8ef075f8f0)" style="fill: #1f77b4"/>
   </g>
   <g id="patch_51">
    <path d="M 300.783869 189.033828 
L 306.024336 189.033828 
L 306.024336 189.033828 
L 300.783869 189.033828 
z
" clip-path="url(#p8ef075f8f0)" style="fill: #1f77b4"/>
   </g>
   <g id="patch_52">
    <path d="M 306.024336 189.033828 
L 311.264802 189.033828 
L 311.264802 188.752365 
L 306.024336 188.752365 
z
" clip-path="url(#p8ef075f8f0)" style="fill: #1f77b4"/>
   </g>
   <g id="matplotlib.axis_1">
    <g id="xtick_1">
     <g id="line2d_1">
      <defs>
       <path id="m7ae741fcec" d="M 0 0 
L 0 3.5 
" style="stroke: #000000; stroke-width: 0.8"/>
      </defs>
      <g>
       <use xlink:href="#m7ae741fcec" x="42.819733" y="189.033828" style="stroke: #000000; stroke-width: 0.8"/>
      </g>
     </g>
     <g id="text_1">
      <!-- 0.0006 -->
      <g transform="translate(25.761804 203.442305) scale(0.0975 -0.0975)">
       <defs>
        <path id="DejaVuSans-30" d="M 2034 4250 
Q 1547 4250 1301 3770 
Q 1056 3291 1056 2328 
Q 1056 1369 1301 889 
Q 1547 409 2034 409 
Q 2525 409 2770 889 
Q 3016 1369 3016 2328 
Q 3016 3291 2770 3770 
Q 2525 4250 2034 4250 
z
M 2034 4750 
Q 2819 4750 3233 4129 
Q 3647 3509 3647 2328 
Q 3647 1150 3233 529 
Q 2819 -91 2034 -91 
Q 1250 -91 836 529 
Q 422 1150 422 2328 
Q 422 3509 836 4129 
Q 1250 4750 2034 4750 
z
" transform="scale(0.015625)"/>
        <path id="DejaVuSans-2e" d="M 684 794 
L 1344 794 
L 1344 0 
L 684 0 
L 684 794 
z
" transform="scale(0.015625)"/>
        <path id="DejaVuSans-36" d="M 2113 2584 
Q 1688 2584 1439 2293 
Q 1191 2003 1191 1497 
Q 1191 994 1439 701 
Q 1688 409 2113 409 
Q 2538 409 2786 701 
Q 3034 994 3034 1497 
Q 3034 2003 2786 2293 
Q 2538 2584 2113 2584 
z
M 3366 4563 
L 3366 3988 
Q 3128 4100 2886 4159 
Q 2644 4219 2406 4219 
Q 1781 4219 1451 3797 
Q 1122 3375 1075 2522 
Q 1259 2794 1537 2939 
Q 1816 3084 2150 3084 
Q 2853 3084 3261 2657 
Q 3669 2231 3669 1497 
Q 3669 778 3244 343 
Q 2819 -91 2113 -91 
Q 1303 -91 875 529 
Q 447 1150 447 2328 
Q 447 3434 972 4092 
Q 1497 4750 2381 4750 
Q 2619 4750 2861 4703 
Q 3103 4656 3366 4563 
z
" transform="scale(0.015625)"/>
       </defs>
       <use xlink:href="#DejaVuSans-30"/>
       <use xlink:href="#DejaVuSans-2e" x="63.623047"/>
       <use xlink:href="#DejaVuSans-30" x="95.410156"/>
       <use xlink:href="#DejaVuSans-30" x="159.033203"/>
       <use xlink:href="#DejaVuSans-30" x="222.65625"/>
       <use xlink:href="#DejaVuSans-36" x="286.279297"/>
      </g>
     </g>
    </g>
    <g id="xtick_2">
     <g id="line2d_2">
      <g>
       <use xlink:href="#m7ae741fcec" x="77.705299" y="189.033828" style="stroke: #000000; stroke-width: 0.8"/>
      </g>
     </g>
     <g id="text_2">
      <!-- 0.0007 -->
      <g transform="translate(60.647369 203.442305) scale(0.0975 -0.0975)">
       <defs>
        <path id="DejaVuSans-37" d="M 525 4666 
L 3525 4666 
L 3525 4397 
L 1831 0 
L 1172 0 
L 2766 4134 
L 525 4134 
L 525 4666 
z
" transform="scale(0.015625)"/>
       </defs>
       <use xlink:href="#DejaVuSans-30"/>
       <use xlink:href="#DejaVuSans-2e" x="63.623047"/>
       <use xlink:href="#DejaVuSans-30" x="95.410156"/>
       <use xlink:href="#DejaVuSans-30" x="159.033203"/>
       <use xlink:href="#DejaVuSans-30" x="222.65625"/>
       <use xlink:href="#DejaVuSans-37" x="286.279297"/>
      </g>
     </g>
    </g>
    <g id="xtick_3">
     <g id="line2d_3">
      <g>
       <use xlink:href="#m7ae741fcec" x="112.590865" y="189.033828" style="stroke: #000000; stroke-width: 0.8"/>
      </g>
     </g>
     <g id="text_3">
      <!-- 0.0008 -->
      <g transform="translate(95.532935 203.442305) scale(0.0975 -0.0975)">
       <defs>
        <path id="DejaVuSans-38" d="M 2034 2216 
Q 1584 2216 1326 1975 
Q 1069 1734 1069 1313 
Q 1069 891 1326 650 
Q 1584 409 2034 409 
Q 2484 409 2743 651 
Q 3003 894 3003 1313 
Q 3003 1734 2745 1975 
Q 2488 2216 2034 2216 
z
M 1403 2484 
Q 997 2584 770 2862 
Q 544 3141 544 3541 
Q 544 4100 942 4425 
Q 1341 4750 2034 4750 
Q 2731 4750 3128 4425 
Q 3525 4100 3525 3541 
Q 3525 3141 3298 2862 
Q 3072 2584 2669 2484 
Q 3125 2378 3379 2068 
Q 3634 1759 3634 1313 
Q 3634 634 3220 271 
Q 2806 -91 2034 -91 
Q 1263 -91 848 271 
Q 434 634 434 1313 
Q 434 1759 690 2068 
Q 947 2378 1403 2484 
z
M 1172 3481 
Q 1172 3119 1398 2916 
Q 1625 2713 2034 2713 
Q 2441 2713 2670 2916 
Q 2900 3119 2900 3481 
Q 2900 3844 2670 4047 
Q 2441 4250 2034 4250 
Q 1625 4250 1398 4047 
Q 1172 3844 1172 3481 
z
" transform="scale(0.015625)"/>
       </defs>
       <use xlink:href="#DejaVuSans-30"/>
       <use xlink:href="#DejaVuSans-2e" x="63.623047"/>
       <use xlink:href="#DejaVuSans-30" x="95.410156"/>
       <use xlink:href="#DejaVuSans-30" x="159.033203"/>
       <use xlink:href="#DejaVuSans-30" x="222.65625"/>
       <use xlink:href="#DejaVuSans-38" x="286.279297"/>
      </g>
     </g>
    </g>
    <g id="xtick_4">
     <g id="line2d_4">
      <g>
       <use xlink:href="#m7ae741fcec" x="147.476431" y="189.033828" style="stroke: #000000; stroke-width: 0.8"/>
      </g>
     </g>
     <g id="text_4">
      <!-- 0.0009 -->
      <g transform="translate(130.418501 203.442305) scale(0.0975 -0.0975)">
       <defs>
        <path id="DejaVuSans-39" d="M 703 97 
L 703 672 
Q 941 559 1184 500 
Q 1428 441 1663 441 
Q 2288 441 2617 861 
Q 2947 1281 2994 2138 
Q 2813 1869 2534 1725 
Q 2256 1581 1919 1581 
Q 1219 1581 811 2004 
Q 403 2428 403 3163 
Q 403 3881 828 4315 
Q 1253 4750 1959 4750 
Q 2769 4750 3195 4129 
Q 3622 3509 3622 2328 
Q 3622 1225 3098 567 
Q 2575 -91 1691 -91 
Q 1453 -91 1209 -44 
Q 966 3 703 97 
z
M 1959 2075 
Q 2384 2075 2632 2365 
Q 2881 2656 2881 3163 
Q 2881 3666 2632 3958 
Q 2384 4250 1959 4250 
Q 1534 4250 1286 3958 
Q 1038 3666 1038 3163 
Q 1038 2656 1286 2365 
Q 1534 2075 1959 2075 
z
" transform="scale(0.015625)"/>
       </defs>
       <use xlink:href="#DejaVuSans-30"/>
       <use xlink:href="#DejaVuSans-2e" x="63.623047"/>
       <use xlink:href="#DejaVuSans-30" x="95.410156"/>
       <use xlink:href="#DejaVuSans-30" x="159.033203"/>
       <use xlink:href="#DejaVuSans-30" x="222.65625"/>
       <use xlink:href="#DejaVuSans-39" x="286.279297"/>
      </g>
     </g>
    </g>
    <g id="xtick_5">
     <g id="line2d_5">
      <g>
       <use xlink:href="#m7ae741fcec" x="182.361997" y="189.033828" style="stroke: #000000; stroke-width: 0.8"/>
      </g>
     </g>
     <g id="text_5">
      <!-- 0.0010 -->
      <g transform="translate(165.304067 203.442305) scale(0.0975 -0.0975)">
       <defs>
        <path id="DejaVuSans-31" d="M 794 531 
L 1825 531 
L 1825 4091 
L 703 3866 
L 703 4441 
L 1819 4666 
L 2450 4666 
L 2450 531 
L 3481 531 
L 3481 0 
L 794 0 
L 794 531 
z
" transform="scale(0.015625)"/>
       </defs>
       <use xlink:href="#DejaVuSans-30"/>
       <use xlink:href="#DejaVuSans-2e" x="63.623047"/>
       <use xlink:href="#DejaVuSans-30" x="95.410156"/>
       <use xlink:href="#DejaVuSans-30" x="159.033203"/>
       <use xlink:href="#DejaVuSans-31" x="222.65625"/>
       <use xlink:href="#DejaVuSans-30" x="286.279297"/>
      </g>
     </g>
    </g>
    <g id="xtick_6">
     <g id="line2d_6">
      <g>
       <use xlink:href="#m7ae741fcec" x="217.247562" y="189.033828" style="stroke: #000000; stroke-width: 0.8"/>
      </g>
     </g>
     <g id="text_6">
      <!-- 0.0011 -->
      <g transform="translate(200.189633 203.442305) scale(0.0975 -0.0975)">
       <use xlink:href="#DejaVuSans-30"/>
       <use xlink:href="#DejaVuSans-2e" x="63.623047"/>
       <use xlink:href="#DejaVuSans-30" x="95.410156"/>
       <use xlink:href="#DejaVuSans-30" x="159.033203"/>
       <use xlink:href="#DejaVuSans-31" x="222.65625"/>
       <use xlink:href="#DejaVuSans-31" x="286.279297"/>
      </g>
     </g>
    </g>
    <g id="xtick_7">
     <g id="line2d_7">
      <g>
       <use xlink:href="#m7ae741fcec" x="252.133128" y="189.033828" style="stroke: #000000; stroke-width: 0.8"/>
      </g>
     </g>
     <g id="text_7">
      <!-- 0.0012 -->
      <g transform="translate(235.075199 203.442305) scale(0.0975 -0.0975)">
       <defs>
        <path id="DejaVuSans-32" d="M 1228 531 
L 3431 531 
L 3431 0 
L 469 0 
L 469 531 
Q 828 903 1448 1529 
Q 2069 2156 2228 2338 
Q 2531 2678 2651 2914 
Q 2772 3150 2772 3378 
Q 2772 3750 2511 3984 
Q 2250 4219 1831 4219 
Q 1534 4219 1204 4116 
Q 875 4013 500 3803 
L 500 4441 
Q 881 4594 1212 4672 
Q 1544 4750 1819 4750 
Q 2544 4750 2975 4387 
Q 3406 4025 3406 3419 
Q 3406 3131 3298 2873 
Q 3191 2616 2906 2266 
Q 2828 2175 2409 1742 
Q 1991 1309 1228 531 
z
" transform="scale(0.015625)"/>
       </defs>
       <use xlink:href="#DejaVuSans-30"/>
       <use xlink:href="#DejaVuSans-2e" x="63.623047"/>
       <use xlink:href="#DejaVuSans-30" x="95.410156"/>
       <use xlink:href="#DejaVuSans-30" x="159.033203"/>
       <use xlink:href="#DejaVuSans-31" x="222.65625"/>
       <use xlink:href="#DejaVuSans-32" x="286.279297"/>
      </g>
     </g>
    </g>
    <g id="xtick_8">
     <g id="line2d_8">
      <g>
       <use xlink:href="#m7ae741fcec" x="287.018694" y="189.033828" style="stroke: #000000; stroke-width: 0.8"/>
      </g>
     </g>
     <g id="text_8">
      <!-- 0.0013 -->
      <g transform="translate(269.960764 203.442305) scale(0.0975 -0.0975)">
       <defs>
        <path id="DejaVuSans-33" d="M 2597 2516 
Q 3050 2419 3304 2112 
Q 3559 1806 3559 1356 
Q 3559 666 3084 287 
Q 2609 -91 1734 -91 
Q 1441 -91 1130 -33 
Q 819 25 488 141 
L 488 750 
Q 750 597 1062 519 
Q 1375 441 1716 441 
Q 2309 441 2620 675 
Q 2931 909 2931 1356 
Q 2931 1769 2642 2001 
Q 2353 2234 1838 2234 
L 1294 2234 
L 1294 2753 
L 1863 2753 
Q 2328 2753 2575 2939 
Q 2822 3125 2822 3475 
Q 2822 3834 2567 4026 
Q 2313 4219 1838 4219 
Q 1578 4219 1281 4162 
Q 984 4106 628 3988 
L 628 4550 
Q 988 4650 1302 4700 
Q 1616 4750 1894 4750 
Q 2613 4750 3031 4423 
Q 3450 4097 3450 3541 
Q 3450 3153 3228 2886 
Q 3006 2619 2597 2516 
z
" transform="scale(0.015625)"/>
       </defs>
       <use xlink:href="#DejaVuSans-30"/>
       <use xlink:href="#DejaVuSans-2e" x="63.623047"/>
       <use xlink:href="#DejaVuSans-30" x="95.410156"/>
       <use xlink:href="#DejaVuSans-30" x="159.033203"/>
       <use xlink:href="#DejaVuSans-31" x="222.65625"/>
       <use xlink:href="#DejaVuSans-33" x="286.279297"/>
      </g>
     </g>
    </g>
    <g id="xtick_9">
     <g id="line2d_9">
      <g>
       <use xlink:href="#m7ae741fcec" x="321.90426" y="189.033828" style="stroke: #000000; stroke-width: 0.8"/>
      </g>
     </g>
     <g id="text_9">
      <!-- 0.0014 -->
      <g transform="translate(304.84633 203.442305) scale(0.0975 -0.0975)">
       <defs>
        <path id="DejaVuSans-34" d="M 2419 4116 
L 825 1625 
L 2419 1625 
L 2419 4116 
z
M 2253 4666 
L 3047 4666 
L 3047 1625 
L 3713 1625 
L 3713 1100 
L 3047 1100 
L 3047 0 
L 2419 0 
L 2419 1100 
L 313 1100 
L 313 1709 
L 2253 4666 
z
" transform="scale(0.015625)"/>
       </defs>
       <use xlink:href="#DejaVuSans-30"/>
       <use xlink:href="#DejaVuSans-2e" x="63.623047"/>
       <use xlink:href="#DejaVuSans-30" x="95.410156"/>
       <use xlink:href="#DejaVuSans-30" x="159.033203"/>
       <use xlink:href="#DejaVuSans-31" x="222.65625"/>
       <use xlink:href="#DejaVuSans-34" x="286.279297"/>
      </g>
     </g>
    </g>
   </g>
   <g id="matplotlib.axis_2">
    <g id="ytick_1">
     <g id="line2d_10">
      <defs>
       <path id="mf5cd73def1" d="M 0 0 
L -3.5 0 
" style="stroke: #000000; stroke-width: 0.8"/>
      </defs>
      <g>
       <use xlink:href="#mf5cd73def1" x="36.140313" y="189.033828" style="stroke: #000000; stroke-width: 0.8"/>
      </g>
     </g>
     <g id="text_10">
      <!-- 0 -->
      <g transform="translate(22.936875 192.738066) scale(0.0975 -0.0975)">
       <use xlink:href="#DejaVuSans-30"/>
      </g>
     </g>
    </g>
    <g id="ytick_2">
     <g id="line2d_11">
      <g>
       <use xlink:href="#mf5cd73def1" x="36.140313" y="160.887529" style="stroke: #000000; stroke-width: 0.8"/>
      </g>
     </g>
     <g id="text_11">
      <!-- 100 -->
      <g transform="translate(10.53 164.591767) scale(0.0975 -0.0975)">
       <use xlink:href="#DejaVuSans-31"/>
       <use xlink:href="#DejaVuSans-30" x="63.623047"/>
       <use xlink:href="#DejaVuSans-30" x="127.246094"/>
      </g>
     </g>
    </g>
    <g id="ytick_3">
     <g id="line2d_12">
      <g>
       <use xlink:href="#mf5cd73def1" x="36.140313" y="132.74123" style="stroke: #000000; stroke-width: 0.8"/>
      </g>
     </g>
     <g id="text_12">
      <!-- 200 -->
      <g transform="translate(10.53 136.445468) scale(0.0975 -0.0975)">
       <use xlink:href="#DejaVuSans-32"/>
       <use xlink:href="#DejaVuSans-30" x="63.623047"/>
       <use xlink:href="#DejaVuSans-30" x="127.246094"/>
      </g>
     </g>
    </g>
    <g id="ytick_4">
     <g id="line2d_13">
      <g>
       <use xlink:href="#mf5cd73def1" x="36.140313" y="104.594931" style="stroke: #000000; stroke-width: 0.8"/>
      </g>
     </g>
     <g id="text_13">
      <!-- 300 -->
      <g transform="translate(10.53 108.299169) scale(0.0975 -0.0975)">
       <use xlink:href="#DejaVuSans-33"/>
       <use xlink:href="#DejaVuSans-30" x="63.623047"/>
       <use xlink:href="#DejaVuSans-30" x="127.246094"/>
      </g>
     </g>
    </g>
    <g id="ytick_5">
     <g id="line2d_14">
      <g>
       <use xlink:href="#mf5cd73def1" x="36.140313" y="76.448632" style="stroke: #000000; stroke-width: 0.8"/>
      </g>
     </g>
     <g id="text_14">
      <!-- 400 -->
      <g transform="translate(10.53 80.15287) scale(0.0975 -0.0975)">
       <use xlink:href="#DejaVuSans-34"/>
       <use xlink:href="#DejaVuSans-30" x="63.623047"/>
       <use xlink:href="#DejaVuSans-30" x="127.246094"/>
      </g>
     </g>
    </g>
    <g id="ytick_6">
     <g id="line2d_15">
      <g>
       <use xlink:href="#mf5cd73def1" x="36.140313" y="48.302333" style="stroke: #000000; stroke-width: 0.8"/>
      </g>
     </g>
     <g id="text_15">
      <!-- 500 -->
      <g transform="translate(10.53 52.006572) scale(0.0975 -0.0975)">
       <defs>
        <path id="DejaVuSans-35" d="M 691 4666 
L 3169 4666 
L 3169 4134 
L 1269 4134 
L 1269 2991 
Q 1406 3038 1543 3061 
Q 1681 3084 1819 3084 
Q 2600 3084 3056 2656 
Q 3513 2228 3513 1497 
Q 3513 744 3044 326 
Q 2575 -91 1722 -91 
Q 1428 -91 1123 -41 
Q 819 9 494 109 
L 494 744 
Q 775 591 1075 516 
Q 1375 441 1709 441 
Q 2250 441 2565 725 
Q 2881 1009 2881 1497 
Q 2881 1984 2565 2268 
Q 2250 2553 1709 2553 
Q 1456 2553 1204 2497 
Q 953 2441 691 2322 
L 691 4666 
z
" transform="scale(0.015625)"/>
       </defs>
       <use xlink:href="#DejaVuSans-35"/>
       <use xlink:href="#DejaVuSans-30" x="63.623047"/>
       <use xlink:href="#DejaVuSans-30" x="127.246094"/>
      </g>
     </g>
    </g>
    <g id="ytick_7">
     <g id="line2d_16">
      <g>
       <use xlink:href="#mf5cd73def1" x="36.140313" y="20.156034" style="stroke: #000000; stroke-width: 0.8"/>
      </g>
     </g>
     <g id="text_16">
      <!-- 600 -->
      <g transform="translate(10.53 23.860273) scale(0.0975 -0.0975)">
       <use xlink:href="#DejaVuSans-36"/>
       <use xlink:href="#DejaVuSans-30" x="63.623047"/>
       <use xlink:href="#DejaVuSans-30" x="127.246094"/>
      </g>
     </g>
    </g>
   </g>
   <g id="patch_53">
    <path d="M 36.140313 189.033828 
L 36.140313 10.53 
" style="fill: none; stroke: #000000; stroke-width: 0.8; stroke-linejoin: miter; stroke-linecap: square"/>
   </g>
   <g id="patch_54">
    <path d="M 324.365969 189.033828 
L 324.365969 10.53 
" style="fill: none; stroke: #000000; stroke-width: 0.8; stroke-linejoin: miter; stroke-linecap: square"/>
   </g>
   <g id="patch_55">
    <path d="M 36.140313 189.033828 
L 324.365969 189.033828 
" style="fill: none; stroke: #000000; stroke-width: 0.8; stroke-linejoin: miter; stroke-linecap: square"/>
   </g>
   <g id="patch_56">
    <path d="M 36.140313 10.53 
L 324.365969 10.53 
" style="fill: none; stroke: #000000; stroke-width: 0.8; stroke-linejoin: miter; stroke-linecap: square"/>
   </g>
  </g>
 </g>
 <defs>
  <clipPath id="p8ef075f8f0">
   <rect x="36.140313" y="10.53" width="288.225656" height="178.503828"/>
  </clipPath>
 </defs>
</svg>
