<?xml version="1.0" encoding="utf-8" standalone="no"?>
<!DOCTYPE svg PUBLIC "-//W3C//DTD SVG 1.1//EN"
  "http://www.w3.org/Graphics/SVG/1.1/DTD/svg11.dtd">
<svg xmlns:xlink="http://www.w3.org/1999/xlink" width="360pt" height="360pt" viewBox="0 0 360 360" xmlns="http://www.w3.org/2000/svg" version="1.1">
 <metadata>
  <rdf:RDF xmlns:dc="http://purl.org/dc/elements/1.1/" xmlns:cc="http://creativecommons.org/ns#" xmlns:rdf="http://www.w3.org/1999/02/22-rdf-syntax-ns#">
   <cc:Work>
    <dc:type rdf:resource="http://purl.org/dc/dcmitype/StillImage"/>
    <dc:date>2021-11-30T01:18:13.578228</dc:date>
    <dc:format>image/svg+xml</dc:format>
    <dc:creator>
     <cc:Agent>
      <dc:title>Matplotlib v3.5.0, https://matplotlib.org/</dc:title>
     </cc:Agent>
    </dc:creator>
   </cc:Work>
  </rdf:RDF>
 </metadata>
 <defs>
  <style type="text/css">*{stroke-linejoin: round; stroke-linecap: butt}</style>
 </defs>
 <g id="figure_1">
  <g id="patch_1">
   <path d="M 0 360 
L 360 360 
L 360 0 
L 0 0 
z
" style="fill: #ffffff"/>
  </g>
  <g id="patch_2">
   <path d="M 10.53 349.47 
L 349.47 349.47 
L 349.47 10.53 
L 10.53 10.53 
z
" style="fill: #ffffff"/>
  </g>
  <g id="pane3d_1">
   <g id="patch_3">
    <path d="M 36.122307 265.898258 
L 148.051365 172.077103 
L 146.495444 36.770225 
L 29.210004 122.359797 
" style="fill: #f2f2f2; opacity: 0.5; stroke: #f2f2f2; stroke-linejoin: miter"/>
   </g>
  </g>
  <g id="pane3d_2">
   <g id="patch_4">
    <path d="M 148.051365 172.077103 
L 327.657565 224.281535 
L 334.067077 84.314167 
L 146.495444 36.770225 
" style="fill: #e6e6e6; opacity: 0.5; stroke: #e6e6e6; stroke-linejoin: miter"/>
   </g>
  </g>
  <g id="pane3d_3">
   <g id="patch_5">
    <path d="M 36.122307 265.898258 
L 226.513652 328.080071 
L 327.657565 224.281535 
L 148.051365 172.077103 
" style="fill: #ececec; opacity: 0.5; stroke: #ececec; stroke-linejoin: miter"/>
   </g>
  </g>
  <g id="axis3d_1">
   <g id="line2d_1">
    <path d="M 36.122307 265.898258 
L 226.513652 328.080071 
" style="fill: none; stroke: #000000; stroke-width: 0.8; stroke-linecap: square"/>
   </g>
   <g id="text_1">
    <!-- X -->
    <g transform="translate(109.206525 334.069108)scale(0.0975 -0.0975)">
     <defs>
      <path id="DejaVuSans-58" d="M 403 4666 
L 1081 4666 
L 2241 2931 
L 3406 4666 
L 4084 4666 
L 2584 2425 
L 4184 0 
L 3506 0 
L 2194 1984 
L 872 0 
L 191 0 
L 1856 2491 
L 403 4666 
z
" transform="scale(0.015625)"/>
     </defs>
     <use xlink:href="#DejaVuSans-58"/>
    </g>
   </g>
   <g id="Line3DCollection_1">
    <path d="M 39.738235 267.07922 
L 151.477265 173.072877 
L 150.065879 37.675227 
" style="fill: none; stroke: #b0b0b0; stroke-width: 0.8"/>
    <path d="M 61.590965 274.216322 
L 172.169327 179.087242 
L 171.637027 43.142884 
" style="fill: none; stroke: #b0b0b0; stroke-width: 0.8"/>
    <path d="M 83.716769 281.442609 
L 193.09857 185.170547 
L 193.4661 48.675917 
" style="fill: none; stroke: #b0b0b0; stroke-width: 0.8"/>
    <path d="M 106.120798 288.759765 
L 214.269095 191.323983 
L 215.557753 54.275507 
" style="fill: none; stroke: #b0b0b0; stroke-width: 0.8"/>
    <path d="M 128.808334 296.169514 
L 235.685099 197.54877 
L 237.916751 59.942862 
" style="fill: none; stroke: #b0b0b0; stroke-width: 0.8"/>
    <path d="M 151.784791 303.673625 
L 257.350877 203.846156 
L 260.547978 65.679218 
" style="fill: none; stroke: #b0b0b0; stroke-width: 0.8"/>
    <path d="M 175.055725 311.273912 
L 279.270823 210.217419 
L 283.456435 71.485844 
" style="fill: none; stroke: #b0b0b0; stroke-width: 0.8"/>
    <path d="M 198.626833 318.972236 
L 301.449437 216.663866 
L 306.647248 77.364039 
" style="fill: none; stroke: #b0b0b0; stroke-width: 0.8"/>
    <path d="M 222.50396 326.770506 
L 323.891325 223.186837 
L 330.125669 83.315134 
" style="fill: none; stroke: #b0b0b0; stroke-width: 0.8"/>
   </g>
   <g id="xtick_1">
    <g id="line2d_2">
     <path d="M 40.711075 266.260767 
L 37.78839 268.71963 
" style="fill: none; stroke: #000000; stroke-width: 0.8; stroke-linecap: square"/>
    </g>
    <g id="text_2">
     <!-- 0.50 -->
     <g transform="translate(21.354602 290.143019)scale(0.0975 -0.0975)">
      <defs>
       <path id="DejaVuSans-30" d="M 2034 4250 
Q 1547 4250 1301 3770 
Q 1056 3291 1056 2328 
Q 1056 1369 1301 889 
Q 1547 409 2034 409 
Q 2525 409 2770 889 
Q 3016 1369 3016 2328 
Q 3016 3291 2770 3770 
Q 2525 4250 2034 4250 
z
M 2034 4750 
Q 2819 4750 3233 4129 
Q 3647 3509 3647 2328 
Q 3647 1150 3233 529 
Q 2819 -91 2034 -91 
Q 1250 -91 836 529 
Q 422 1150 422 2328 
Q 422 3509 836 4129 
Q 1250 4750 2034 4750 
z
" transform="scale(0.015625)"/>
       <path id="DejaVuSans-2e" d="M 684 794 
L 1344 794 
L 1344 0 
L 684 0 
L 684 794 
z
" transform="scale(0.015625)"/>
       <path id="DejaVuSans-35" d="M 691 4666 
L 3169 4666 
L 3169 4134 
L 1269 4134 
L 1269 2991 
Q 1406 3038 1543 3061 
Q 1681 3084 1819 3084 
Q 2600 3084 3056 2656 
Q 3513 2228 3513 1497 
Q 3513 744 3044 326 
Q 2575 -91 1722 -91 
Q 1428 -91 1123 -41 
Q 819 9 494 109 
L 494 744 
Q 775 591 1075 516 
Q 1375 441 1709 441 
Q 2250 441 2565 725 
Q 2881 1009 2881 1497 
Q 2881 1984 2565 2268 
Q 2250 2553 1709 2553 
Q 1456 2553 1204 2497 
Q 953 2441 691 2322 
L 691 4666 
z
" transform="scale(0.015625)"/>
      </defs>
      <use xlink:href="#DejaVuSans-30"/>
      <use xlink:href="#DejaVuSans-2e" x="63.623047"/>
      <use xlink:href="#DejaVuSans-35" x="95.410156"/>
      <use xlink:href="#DejaVuSans-30" x="159.033203"/>
     </g>
    </g>
   </g>
   <g id="xtick_2">
    <g id="line2d_3">
     <path d="M 62.554184 273.387677 
L 59.660376 275.877181 
" style="fill: none; stroke: #000000; stroke-width: 0.8; stroke-linecap: square"/>
    </g>
    <g id="text_3">
     <!-- 0.75 -->
     <g transform="translate(43.224424 297.398509)scale(0.0975 -0.0975)">
      <defs>
       <path id="DejaVuSans-37" d="M 525 4666 
L 3525 4666 
L 3525 4397 
L 1831 0 
L 1172 0 
L 2766 4134 
L 525 4134 
L 525 4666 
z
" transform="scale(0.015625)"/>
      </defs>
      <use xlink:href="#DejaVuSans-30"/>
      <use xlink:href="#DejaVuSans-2e" x="63.623047"/>
      <use xlink:href="#DejaVuSans-37" x="95.410156"/>
      <use xlink:href="#DejaVuSans-35" x="159.033203"/>
     </g>
    </g>
   </g>
   <g id="xtick_3">
    <g id="line2d_4">
     <path d="M 84.67005 280.603581 
L 81.806073 283.124302 
" style="fill: none; stroke: #000000; stroke-width: 0.8; stroke-linecap: square"/>
    </g>
    <g id="text_4">
     <!-- 1.00 -->
     <g transform="translate(65.36834 304.744931)scale(0.0975 -0.0975)">
      <defs>
       <path id="DejaVuSans-31" d="M 794 531 
L 1825 531 
L 1825 4091 
L 703 3866 
L 703 4441 
L 1819 4666 
L 2450 4666 
L 2450 531 
L 3481 531 
L 3481 0 
L 794 0 
L 794 531 
z
" transform="scale(0.015625)"/>
      </defs>
      <use xlink:href="#DejaVuSans-31"/>
      <use xlink:href="#DejaVuSans-2e" x="63.623047"/>
      <use xlink:href="#DejaVuSans-30" x="95.410156"/>
      <use xlink:href="#DejaVuSans-30" x="159.033203"/>
     </g>
    </g>
   </g>
   <g id="xtick_4">
    <g id="line2d_5">
     <path d="M 107.063816 287.910157 
L 104.23065 290.462687 
" style="fill: none; stroke: #000000; stroke-width: 0.8; stroke-linecap: square"/>
    </g>
    <g id="text_5">
     <!-- 1.25 -->
     <g transform="translate(87.791533 312.184007)scale(0.0975 -0.0975)">
      <defs>
       <path id="DejaVuSans-32" d="M 1228 531 
L 3431 531 
L 3431 0 
L 469 0 
L 469 531 
Q 828 903 1448 1529 
Q 2069 2156 2228 2338 
Q 2531 2678 2651 2914 
Q 2772 3150 2772 3378 
Q 2772 3750 2511 3984 
Q 2250 4219 1831 4219 
Q 1534 4219 1204 4116 
Q 875 4013 500 3803 
L 500 4441 
Q 881 4594 1212 4672 
Q 1544 4750 1819 4750 
Q 2544 4750 2975 4387 
Q 3406 4025 3406 3419 
Q 3406 3131 3298 2873 
Q 3191 2616 2906 2266 
Q 2828 2175 2409 1742 
Q 1991 1309 1228 531 
z
" transform="scale(0.015625)"/>
      </defs>
      <use xlink:href="#DejaVuSans-31"/>
      <use xlink:href="#DejaVuSans-2e" x="63.623047"/>
      <use xlink:href="#DejaVuSans-32" x="95.410156"/>
      <use xlink:href="#DejaVuSans-35" x="159.033203"/>
     </g>
    </g>
   </g>
   <g id="xtick_5">
    <g id="line2d_6">
     <path d="M 129.74075 295.309125 
L 126.939408 297.894069 
" style="fill: none; stroke: #000000; stroke-width: 0.8; stroke-linecap: square"/>
    </g>
    <g id="text_6">
     <!-- 1.50 -->
     <g transform="translate(110.499322 319.717499)scale(0.0975 -0.0975)">
      <use xlink:href="#DejaVuSans-31"/>
      <use xlink:href="#DejaVuSans-2e" x="63.623047"/>
      <use xlink:href="#DejaVuSans-35" x="95.410156"/>
      <use xlink:href="#DejaVuSans-30" x="159.033203"/>
     </g>
    </g>
   </g>
   <g id="xtick_6">
    <g id="line2d_7">
     <path d="M 152.706259 302.802248 
L 149.937784 305.420228 
" style="fill: none; stroke: #000000; stroke-width: 0.8; stroke-linecap: square"/>
    </g>
    <g id="text_7">
     <!-- 1.75 -->
     <g transform="translate(133.497159 327.347217)scale(0.0975 -0.0975)">
      <use xlink:href="#DejaVuSans-31"/>
      <use xlink:href="#DejaVuSans-2e" x="63.623047"/>
      <use xlink:href="#DejaVuSans-37" x="95.410156"/>
      <use xlink:href="#DejaVuSans-35" x="159.033203"/>
     </g>
    </g>
   </g>
   <g id="xtick_7">
    <g id="line2d_8">
     <path d="M 175.965887 310.391336 
L 173.231354 313.042989 
" style="fill: none; stroke: #000000; stroke-width: 0.8; stroke-linecap: square"/>
    </g>
    <g id="text_8">
     <!-- 2.00 -->
     <g transform="translate(156.790637 335.075016)scale(0.0975 -0.0975)">
      <use xlink:href="#DejaVuSans-32"/>
      <use xlink:href="#DejaVuSans-2e" x="63.623047"/>
      <use xlink:href="#DejaVuSans-30" x="95.410156"/>
      <use xlink:href="#DejaVuSans-30" x="159.033203"/>
     </g>
    </g>
   </g>
   <g id="xtick_8">
    <g id="line2d_9">
     <path d="M 199.52532 318.078243 
L 196.825839 320.764223 
" style="fill: none; stroke: #000000; stroke-width: 0.8; stroke-linecap: square"/>
    </g>
    <g id="text_9">
     <!-- 2.25 -->
     <g transform="translate(180.385494 342.9028)scale(0.0975 -0.0975)">
      <use xlink:href="#DejaVuSans-32"/>
      <use xlink:href="#DejaVuSans-2e" x="63.623047"/>
      <use xlink:href="#DejaVuSans-32" x="95.410156"/>
      <use xlink:href="#DejaVuSans-35" x="159.033203"/>
     </g>
    </g>
   </g>
   <g id="xtick_9">
    <g id="line2d_10">
     <path d="M 223.390391 325.864872 
L 220.727106 328.585851 
" style="fill: none; stroke: #000000; stroke-width: 0.8; stroke-linecap: square"/>
    </g>
    <g id="text_10">
     <!-- 2.50 -->
     <g transform="translate(204.287616 350.832522)scale(0.0975 -0.0975)">
      <use xlink:href="#DejaVuSans-32"/>
      <use xlink:href="#DejaVuSans-2e" x="63.623047"/>
      <use xlink:href="#DejaVuSans-35" x="95.410156"/>
      <use xlink:href="#DejaVuSans-30" x="159.033203"/>
     </g>
    </g>
   </g>
  </g>
  <g id="axis3d_2">
   <g id="line2d_11">
    <path d="M 327.657565 224.281535 
L 226.513652 328.080071 
" style="fill: none; stroke: #000000; stroke-width: 0.8; stroke-linecap: square"/>
   </g>
   <g id="text_11">
    <!-- Y -->
    <g transform="translate(303.335534 304.550976)scale(0.0975 -0.0975)">
     <defs>
      <path id="DejaVuSans-59" d="M -13 4666 
L 666 4666 
L 1959 2747 
L 3244 4666 
L 3922 4666 
L 2272 2222 
L 2272 0 
L 1638 0 
L 1638 2222 
L -13 4666 
z
" transform="scale(0.015625)"/>
     </defs>
     <use xlink:href="#DejaVuSans-59"/>
    </g>
   </g>
   <g id="Line3DCollection_2">
    <path d="M 31.769382 120.49208 
L 38.555744 263.858504 
L 228.722127 325.813632 
" style="fill: none; stroke: #b0b0b0; stroke-width: 0.8"/>
    <path d="M 46.928025 109.429992 
L 52.976719 251.770556 
L 241.801229 312.391256 
" style="fill: none; stroke: #b0b0b0; stroke-width: 0.8"/>
    <path d="M 61.755894 98.609289 
L 67.0967 239.934908 
L 254.592913 299.263842 
" style="fill: none; stroke: #b0b0b0; stroke-width: 0.8"/>
    <path d="M 76.2637 88.022153 
L 80.925013 228.343742 
L 267.10655 286.421772 
" style="fill: none; stroke: #b0b0b0; stroke-width: 0.8"/>
    <path d="M 90.461693 77.661104 
L 94.470603 216.98956 
L 279.351108 273.855843 
" style="fill: none; stroke: #b0b0b0; stroke-width: 0.8"/>
    <path d="M 104.359694 67.518976 
L 107.742052 205.865168 
L 291.335175 261.557242 
" style="fill: none; stroke: #b0b0b0; stroke-width: 0.8"/>
    <path d="M 117.967111 57.588903 
L 120.747601 194.963659 
L 303.066975 249.51753 
" style="fill: none; stroke: #b0b0b0; stroke-width: 0.8"/>
    <path d="M 131.292963 47.864303 
L 133.495159 184.278403 
L 314.55439 237.728616 
" style="fill: none; stroke: #b0b0b0; stroke-width: 0.8"/>
    <path d="M 144.3459 38.338864 
L 145.992329 173.803027 
L 325.804979 226.182744 
" style="fill: none; stroke: #b0b0b0; stroke-width: 0.8"/>
   </g>
   <g id="xtick_10">
    <g id="line2d_12">
     <path d="M 227.119258 325.291426 
L 231.932028 326.8594 
" style="fill: none; stroke: #000000; stroke-width: 0.8; stroke-linecap: square"/>
    </g>
    <g id="text_12">
     <!-- 0.50 -->
     <g transform="translate(230.796991 346.700851)scale(0.0975 -0.0975)">
      <use xlink:href="#DejaVuSans-30"/>
      <use xlink:href="#DejaVuSans-2e" x="63.623047"/>
      <use xlink:href="#DejaVuSans-35" x="95.410156"/>
      <use xlink:href="#DejaVuSans-30" x="159.033203"/>
     </g>
    </g>
   </g>
   <g id="xtick_11">
    <g id="line2d_13">
     <path d="M 240.210569 311.880587 
L 244.986634 313.413907 
" style="fill: none; stroke: #000000; stroke-width: 0.8; stroke-linecap: square"/>
    </g>
    <g id="text_13">
     <!-- 0.75 -->
     <g transform="translate(243.738488 333.122396)scale(0.0975 -0.0975)">
      <use xlink:href="#DejaVuSans-30"/>
      <use xlink:href="#DejaVuSans-2e" x="63.623047"/>
      <use xlink:href="#DejaVuSans-37" x="95.410156"/>
      <use xlink:href="#DejaVuSans-35" x="159.033203"/>
     </g>
    </g>
   </g>
   <g id="xtick_12">
    <g id="line2d_14">
     <path d="M 253.014316 298.764331 
L 257.754116 300.264133 
" style="fill: none; stroke: #000000; stroke-width: 0.8; stroke-linecap: square"/>
    </g>
    <g id="text_14">
     <!-- 1.00 -->
     <g transform="translate(256.39546 319.842469)scale(0.0975 -0.0975)">
      <use xlink:href="#DejaVuSans-31"/>
      <use xlink:href="#DejaVuSans-2e" x="63.623047"/>
      <use xlink:href="#DejaVuSans-30" x="95.410156"/>
      <use xlink:href="#DejaVuSans-30" x="159.033203"/>
     </g>
    </g>
   </g>
   <g id="xtick_13">
    <g id="line2d_15">
     <path d="M 265.53987 285.933057 
L 270.243846 287.40043 
" style="fill: none; stroke: #000000; stroke-width: 0.8; stroke-linecap: square"/>
    </g>
    <g id="text_15">
     <!-- 1.25 -->
     <g transform="translate(268.777187 306.851334)scale(0.0975 -0.0975)">
      <use xlink:href="#DejaVuSans-31"/>
      <use xlink:href="#DejaVuSans-2e" x="63.623047"/>
      <use xlink:href="#DejaVuSans-32" x="95.410156"/>
      <use xlink:href="#DejaVuSans-35" x="159.033203"/>
     </g>
    </g>
   </g>
   <g id="xtick_14">
    <g id="line2d_16">
     <path d="M 277.7962 273.377578 
L 282.464789 274.813561 
" style="fill: none; stroke: #000000; stroke-width: 0.8; stroke-linecap: square"/>
    </g>
    <g id="text_16">
     <!-- 1.50 -->
     <g transform="translate(280.892553 294.13967)scale(0.0975 -0.0975)">
      <use xlink:href="#DejaVuSans-31"/>
      <use xlink:href="#DejaVuSans-2e" x="63.623047"/>
      <use xlink:href="#DejaVuSans-35" x="95.410156"/>
      <use xlink:href="#DejaVuSans-30" x="159.033203"/>
     </g>
    </g>
   </g>
   <g id="xtick_15">
    <g id="line2d_17">
     <path d="M 289.791895 261.089096 
L 294.425529 262.494686 
" style="fill: none; stroke: #000000; stroke-width: 0.8; stroke-linecap: square"/>
    </g>
    <g id="text_17">
     <!-- 1.75 -->
     <g transform="translate(292.750059 281.698557)scale(0.0975 -0.0975)">
      <use xlink:href="#DejaVuSans-31"/>
      <use xlink:href="#DejaVuSans-2e" x="63.623047"/>
      <use xlink:href="#DejaVuSans-37" x="95.410156"/>
      <use xlink:href="#DejaVuSans-35" x="159.033203"/>
     </g>
    </g>
   </g>
   <g id="xtick_16">
    <g id="line2d_18">
     <path d="M 301.535181 249.059184 
L 306.134289 250.435336 
" style="fill: none; stroke: #000000; stroke-width: 0.8; stroke-linecap: square"/>
    </g>
    <g id="text_18">
     <!-- 2.00 -->
     <g transform="translate(304.357853 269.519448)scale(0.0975 -0.0975)">
      <use xlink:href="#DejaVuSans-32"/>
      <use xlink:href="#DejaVuSans-2e" x="63.623047"/>
      <use xlink:href="#DejaVuSans-30" x="95.410156"/>
      <use xlink:href="#DejaVuSans-30" x="159.033203"/>
     </g>
    </g>
   </g>
   <g id="xtick_17">
    <g id="line2d_19">
     <path d="M 313.033941 237.279766 
L 317.598949 238.627395 
" style="fill: none; stroke: #000000; stroke-width: 0.8; stroke-linecap: square"/>
    </g>
    <g id="text_19">
     <!-- 2.25 -->
     <g transform="translate(315.72374 257.594151)scale(0.0975 -0.0975)">
      <use xlink:href="#DejaVuSans-32"/>
      <use xlink:href="#DejaVuSans-2e" x="63.623047"/>
      <use xlink:href="#DejaVuSans-32" x="95.410156"/>
      <use xlink:href="#DejaVuSans-35" x="159.033203"/>
     </g>
    </g>
   </g>
   <g id="xtick_18">
    <g id="line2d_20">
     <path d="M 324.295734 225.743099 
L 328.827064 227.063082 
" style="fill: none; stroke: #000000; stroke-width: 0.8; stroke-linecap: square"/>
    </g>
    <g id="text_20">
     <!-- 2.50 -->
     <g transform="translate(326.855203 245.914816)scale(0.0975 -0.0975)">
      <use xlink:href="#DejaVuSans-32"/>
      <use xlink:href="#DejaVuSans-2e" x="63.623047"/>
      <use xlink:href="#DejaVuSans-35" x="95.410156"/>
      <use xlink:href="#DejaVuSans-30" x="159.033203"/>
     </g>
    </g>
   </g>
  </g>
  <g id="axis3d_3">
   <g id="line2d_21">
    <path d="M 327.657565 224.281535 
L 334.067077 84.314167 
" style="fill: none; stroke: #000000; stroke-width: 0.8; stroke-linecap: square"/>
   </g>
   <g id="text_21">
    <!-- Z -->
    <g transform="translate(367.886195 153.104392)scale(0.0975 -0.0975)">
     <defs>
      <path id="DejaVuSans-5a" d="M 359 4666 
L 4025 4666 
L 4025 4184 
L 1075 531 
L 4097 531 
L 4097 0 
L 288 0 
L 288 481 
L 3238 4134 
L 359 4134 
L 359 4666 
z
" transform="scale(0.015625)"/>
     </defs>
     <use xlink:href="#DejaVuSans-5a"/>
    </g>
   </g>
   <g id="Line3DCollection_3">
    <path d="M 327.780364 221.599915 
L 148.021493 169.4794 
L 35.990094 263.152764 
" style="fill: none; stroke: #b0b0b0; stroke-width: 0.8"/>
    <path d="M 328.521609 205.413029 
L 147.841233 153.803521 
L 35.191843 246.576557 
" style="fill: none; stroke: #b0b0b0; stroke-width: 0.8"/>
    <path d="M 329.270567 189.057696 
L 147.659187 137.97229 
L 34.384968 229.821287 
" style="fill: none; stroke: #b0b0b0; stroke-width: 0.8"/>
    <path d="M 330.02736 172.531271 
L 147.475327 121.983386 
L 33.56933 212.884037 
" style="fill: none; stroke: #b0b0b0; stroke-width: 0.8"/>
    <path d="M 330.792111 155.831057 
L 147.289627 105.834442 
L 32.744785 195.761827 
" style="fill: none; stroke: #b0b0b0; stroke-width: 0.8"/>
    <path d="M 331.564947 138.954298 
L 147.102059 89.523043 
L 31.911187 178.451611 
" style="fill: none; stroke: #b0b0b0; stroke-width: 0.8"/>
    <path d="M 332.345996 121.898178 
L 146.912594 73.046726 
L 31.068384 160.950274 
" style="fill: none; stroke: #b0b0b0; stroke-width: 0.8"/>
    <path d="M 333.135391 104.659824 
L 146.721205 56.402975 
L 30.216225 143.254633 
" style="fill: none; stroke: #b0b0b0; stroke-width: 0.8"/>
    <path d="M 333.933264 87.2363 
L 146.52786 39.589227 
L 29.354552 125.361436 
" style="fill: none; stroke: #b0b0b0; stroke-width: 0.8"/>
   </g>
   <g id="xtick_19">
    <g id="line2d_22">
     <path d="M 326.271632 221.162462 
L 330.801421 222.47586 
" style="fill: none; stroke: #000000; stroke-width: 0.8; stroke-linecap: square"/>
    </g>
    <g id="text_22">
     <!-- 0.50 -->
     <g transform="translate(335.201621 226.405805)scale(0.0975 -0.0975)">
      <use xlink:href="#DejaVuSans-30"/>
      <use xlink:href="#DejaVuSans-2e" x="63.623047"/>
      <use xlink:href="#DejaVuSans-35" x="95.410156"/>
      <use xlink:href="#DejaVuSans-30" x="159.033203"/>
     </g>
    </g>
   </g>
   <g id="xtick_20">
    <g id="line2d_23">
     <path d="M 327.004774 204.979761 
L 331.558907 206.280602 
" style="fill: none; stroke: #000000; stroke-width: 0.8; stroke-linecap: square"/>
    </g>
    <g id="text_23">
     <!-- 0.75 -->
     <g transform="translate(336.035485 210.243837)scale(0.0975 -0.0975)">
      <use xlink:href="#DejaVuSans-30"/>
      <use xlink:href="#DejaVuSans-2e" x="63.623047"/>
      <use xlink:href="#DejaVuSans-37" x="95.410156"/>
      <use xlink:href="#DejaVuSans-35" x="159.033203"/>
     </g>
    </g>
   </g>
   <g id="xtick_21">
    <g id="line2d_24">
     <path d="M 327.745543 188.628722 
L 332.324282 189.916674 
" style="fill: none; stroke: #000000; stroke-width: 0.8; stroke-linecap: square"/>
    </g>
    <g id="text_24">
     <!-- 1.00 -->
     <g transform="translate(336.878007 193.914082)scale(0.0975 -0.0975)">
      <use xlink:href="#DejaVuSans-31"/>
      <use xlink:href="#DejaVuSans-2e" x="63.623047"/>
      <use xlink:href="#DejaVuSans-30" x="95.410156"/>
      <use xlink:href="#DejaVuSans-30" x="159.033203"/>
     </g>
    </g>
   </g>
   <g id="xtick_22">
    <g id="line2d_25">
     <path d="M 328.494058 172.106707 
L 333.09767 173.381427 
" style="fill: none; stroke: #000000; stroke-width: 0.8; stroke-linecap: square"/>
    </g>
    <g id="text_25">
     <!-- 1.25 -->
     <g transform="translate(337.72932 177.413913)scale(0.0975 -0.0975)">
      <use xlink:href="#DejaVuSans-31"/>
      <use xlink:href="#DejaVuSans-2e" x="63.623047"/>
      <use xlink:href="#DejaVuSans-32" x="95.410156"/>
      <use xlink:href="#DejaVuSans-35" x="159.033203"/>
     </g>
    </g>
   </g>
   <g id="xtick_23">
    <g id="line2d_26">
     <path d="M 329.250442 155.411018 
L 333.879197 156.672157 
" style="fill: none; stroke: #000000; stroke-width: 0.8; stroke-linecap: square"/>
    </g>
    <g id="text_26">
     <!-- 1.50 -->
     <g transform="translate(338.589564 160.740647)scale(0.0975 -0.0975)">
      <use xlink:href="#DejaVuSans-31"/>
      <use xlink:href="#DejaVuSans-2e" x="63.623047"/>
      <use xlink:href="#DejaVuSans-35" x="95.410156"/>
      <use xlink:href="#DejaVuSans-30" x="159.033203"/>
     </g>
    </g>
   </g>
   <g id="xtick_24">
    <g id="line2d_27">
     <path d="M 330.014818 138.538903 
L 334.668993 139.786102 
" style="fill: none; stroke: #000000; stroke-width: 0.8; stroke-linecap: square"/>
    </g>
    <g id="text_27">
     <!-- 1.75 -->
     <g transform="translate(339.458881 143.891547)scale(0.0975 -0.0975)">
      <use xlink:href="#DejaVuSans-31"/>
      <use xlink:href="#DejaVuSans-2e" x="63.623047"/>
      <use xlink:href="#DejaVuSans-37" x="95.410156"/>
      <use xlink:href="#DejaVuSans-35" x="159.033203"/>
     </g>
    </g>
   </g>
   <g id="xtick_25">
    <g id="line2d_28">
     <path d="M 330.787314 121.487552 
L 335.46719 122.72044 
" style="fill: none; stroke: #000000; stroke-width: 0.8; stroke-linecap: square"/>
    </g>
    <g id="text_28">
     <!-- 2.00 -->
     <g transform="translate(340.337413 126.863817)scale(0.0975 -0.0975)">
      <use xlink:href="#DejaVuSans-32"/>
      <use xlink:href="#DejaVuSans-2e" x="63.623047"/>
      <use xlink:href="#DejaVuSans-30" x="95.410156"/>
      <use xlink:href="#DejaVuSans-30" x="159.033203"/>
     </g>
    </g>
   </g>
   <g id="xtick_26">
    <g id="line2d_29">
     <path d="M 331.56806 104.254091 
L 336.273922 105.472293 
" style="fill: none; stroke: #000000; stroke-width: 0.8; stroke-linecap: square"/>
    </g>
    <g id="text_29">
     <!-- 2.25 -->
     <g transform="translate(341.22531 109.654601)scale(0.0975 -0.0975)">
      <use xlink:href="#DejaVuSans-32"/>
      <use xlink:href="#DejaVuSans-2e" x="63.623047"/>
      <use xlink:href="#DejaVuSans-32" x="95.410156"/>
      <use xlink:href="#DejaVuSans-35" x="159.033203"/>
     </g>
    </g>
   </g>
   <g id="xtick_27">
    <g id="line2d_30">
     <path d="M 332.35719 86.835589 
L 337.089327 88.038716 
" style="fill: none; stroke: #000000; stroke-width: 0.8; stroke-linecap: square"/>
    </g>
    <g id="text_30">
     <!-- 2.50 -->
     <g transform="translate(342.12272 92.260982)scale(0.0975 -0.0975)">
      <use xlink:href="#DejaVuSans-32"/>
      <use xlink:href="#DejaVuSans-2e" x="63.623047"/>
      <use xlink:href="#DejaVuSans-35" x="95.410156"/>
      <use xlink:href="#DejaVuSans-30" x="159.033203"/>
     </g>
    </g>
   </g>
  </g>
  <g id="axes_1">
   <g id="Line3DCollection_4">
    <path d="M 113.192703 218.927278 
L 111.632115 150.507472 
" clip-path="url(#p79d3177330)" style="fill: none; stroke: #0000ff"/>
    <path d="M 166.236874 173.741192 
L 165.852671 107.241072 
" clip-path="url(#p79d3177330)" style="fill: none; stroke: #0000ff"/>
    <path d="M 204.192997 246.820734 
L 204.63285 177.254668 
" clip-path="url(#p79d3177330)" style="fill: none; stroke: #0000ff"/>
    <path d="M 254.699824 199.366003 
L 256.204881 131.767714 
" clip-path="url(#p79d3177330)" style="fill: none; stroke: #0000ff"/>
    <path d="M 113.192703 218.927278 
L 166.236874 173.741192 
" clip-path="url(#p79d3177330)" style="fill: none; stroke: #0000ff"/>
    <path d="M 111.632115 150.507472 
L 165.852671 107.241072 
" clip-path="url(#p79d3177330)" style="fill: none; stroke: #0000ff"/>
    <path d="M 204.192997 246.820734 
L 254.699824 199.366003 
" clip-path="url(#p79d3177330)" style="fill: none; stroke: #0000ff"/>
    <path d="M 204.63285 177.254668 
L 256.204881 131.767714 
" clip-path="url(#p79d3177330)" style="fill: none; stroke: #0000ff"/>
    <path d="M 113.192703 218.927278 
L 204.192997 246.820734 
" clip-path="url(#p79d3177330)" style="fill: none; stroke: #0000ff"/>
    <path d="M 111.632115 150.507472 
L 204.63285 177.254668 
" clip-path="url(#p79d3177330)" style="fill: none; stroke: #0000ff"/>
    <path d="M 166.236874 173.741192 
L 254.699824 199.366003 
" clip-path="url(#p79d3177330)" style="fill: none; stroke: #0000ff"/>
    <path d="M 165.852671 107.241072 
L 256.204881 131.767714 
" clip-path="url(#p79d3177330)" style="fill: none; stroke: #0000ff"/>
    <path d="M 113.192703 218.927278 
L 69.357947 205.491026 
" clip-path="url(#p79d3177330)" style="fill: none; stroke: #0000ff"/>
    <path d="M 111.632115 150.507472 
L 66.870492 137.63394 
" clip-path="url(#p79d3177330)" style="fill: none; stroke: #0000ff"/>
    <path d="M 166.236874 173.741192 
L 123.558705 161.378729 
" clip-path="url(#p79d3177330)" style="fill: none; stroke: #0000ff"/>
    <path d="M 165.852671 107.241072 
L 122.295877 95.417323 
" clip-path="url(#p79d3177330)" style="fill: none; stroke: #0000ff"/>
    <path d="M 204.192997 246.820734 
L 251.44398 261.304129 
" clip-path="url(#p79d3177330)" style="fill: none; stroke: #0000ff"/>
    <path d="M 204.63285 177.254668 
L 252.963197 191.154572 
" clip-path="url(#p79d3177330)" style="fill: none; stroke: #0000ff"/>
    <path d="M 254.699824 199.366003 
L 300.560909 212.650452 
" clip-path="url(#p79d3177330)" style="fill: none; stroke: #0000ff"/>
    <path d="M 256.204881 131.767714 
L 303.081571 144.492669 
" clip-path="url(#p79d3177330)" style="fill: none; stroke: #0000ff"/>
    <path d="M 113.192703 218.927278 
L 84.931238 243.002026 
" clip-path="url(#p79d3177330)" style="fill: none; stroke: #0000ff"/>
    <path d="M 111.632115 150.507472 
L 82.704146 173.591136 
" clip-path="url(#p79d3177330)" style="fill: none; stroke: #0000ff"/>
    <path d="M 204.192997 246.820734 
L 177.240517 272.144494 
" clip-path="url(#p79d3177330)" style="fill: none; stroke: #0000ff"/>
    <path d="M 204.63285 177.254668 
L 177.072132 201.563447 
" clip-path="url(#p79d3177330)" style="fill: none; stroke: #0000ff"/>
    <path d="M 166.236874 173.741192 
L 191.159445 152.510708 
" clip-path="url(#p79d3177330)" style="fill: none; stroke: #0000ff"/>
    <path d="M 165.852671 107.241072 
L 191.294419 86.93931 
" clip-path="url(#p79d3177330)" style="fill: none; stroke: #0000ff"/>
    <path d="M 254.699824 199.366003 
L 278.394042 177.103611 
" clip-path="url(#p79d3177330)" style="fill: none; stroke: #0000ff"/>
    <path d="M 256.204881 131.767714 
L 280.365362 110.457971 
" clip-path="url(#p79d3177330)" style="fill: none; stroke: #0000ff"/>
    <path d="M 111.632115 150.507472 
L 110.825952 115.163388 
" clip-path="url(#p79d3177330)" style="fill: none; stroke: #0000ff"/>
    <path d="M 165.852671 107.241072 
L 165.65447 72.935321 
" clip-path="url(#p79d3177330)" style="fill: none; stroke: #0000ff"/>
    <path d="M 204.63285 177.254668 
L 204.860258 141.288252 
" clip-path="url(#p79d3177330)" style="fill: none; stroke: #0000ff"/>
    <path d="M 256.204881 131.767714 
L 256.9819 96.868559 
" clip-path="url(#p79d3177330)" style="fill: none; stroke: #0000ff"/>
    <path d="M 113.192703 218.927278 
L 113.948223 252.051015 
" clip-path="url(#p79d3177330)" style="fill: none; stroke: #0000ff"/>
    <path d="M 166.236874 173.741192 
L 166.423124 205.978437 
" clip-path="url(#p79d3177330)" style="fill: none; stroke: #0000ff"/>
    <path d="M 204.192997 246.820734 
L 203.980229 280.471736 
" clip-path="url(#p79d3177330)" style="fill: none; stroke: #0000ff"/>
    <path d="M 254.699824 199.366003 
L 253.970769 232.110886 
" clip-path="url(#p79d3177330)" style="fill: none; stroke: #0000ff"/>
   </g>
   <g id="Line3DCollection_5">
    <path d="M 42.041005 262.291075 
L 38.930246 194.933133 
" clip-path="url(#p79d3177330)" style="fill: none; stroke: #008000"/>
    <path d="M 38.930246 194.933133 
L 35.680679 124.569574 
" clip-path="url(#p79d3177330)" style="fill: none; stroke: #008000"/>
    <path d="M 97.915912 215.400153 
L 96.10366 149.878732 
" clip-path="url(#p79d3177330)" style="fill: none; stroke: #008000"/>
    <path d="M 96.10366 149.878732 
L 94.213997 81.558529 
" clip-path="url(#p79d3177330)" style="fill: none; stroke: #008000"/>
    <path d="M 149.39307 172.199877 
L 148.686803 108.441607 
" clip-path="url(#p79d3177330)" style="fill: none; stroke: #008000"/>
    <path d="M 148.686803 108.441607 
L 147.951603 42.071437 
" clip-path="url(#p79d3177330)" style="fill: none; stroke: #008000"/>
    <path d="M 131.088063 291.233757 
L 129.890476 222.782481 
" clip-path="url(#p79d3177330)" style="fill: none; stroke: #008000"/>
    <path d="M 129.890476 222.782481 
L 128.638038 151.196033 
" clip-path="url(#p79d3177330)" style="fill: none; stroke: #008000"/>
    <path d="M 184.58027 241.992548 
L 184.58027 175.41973 
" clip-path="url(#p79d3177330)" style="fill: none; stroke: #008000"/>
    <path d="M 184.58027 175.41973 
L 184.58027 105.931314 
" clip-path="url(#p79d3177330)" style="fill: none; stroke: #008000"/>
    <path d="M 233.764381 196.717074 
L 234.775013 131.949807 
" clip-path="url(#p79d3177330)" style="fill: none; stroke: #008000"/>
    <path d="M 234.775013 131.949807 
L 235.82805 64.465033 
" clip-path="url(#p79d3177330)" style="fill: none; stroke: #008000"/>
    <path d="M 224.755122 321.678063 
L 225.678428 252.109935 
" clip-path="url(#p79d3177330)" style="fill: none; stroke: #008000"/>
    <path d="M 225.678428 252.109935 
L 226.645171 179.268935 
" clip-path="url(#p79d3177330)" style="fill: none; stroke: #008000"/>
    <path d="M 275.547666 269.905302 
L 277.546424 202.256747 
" clip-path="url(#p79d3177330)" style="fill: none; stroke: #008000"/>
    <path d="M 277.546424 202.256747 
L 279.63499 131.568624 
" clip-path="url(#p79d3177330)" style="fill: none; stroke: #008000"/>
    <path d="M 322.152168 222.401407 
L 325.047689 156.600664 
" clip-path="url(#p79d3177330)" style="fill: none; stroke: #008000"/>
    <path d="M 325.047689 156.600664 
L 328.067717 87.97051 
" clip-path="url(#p79d3177330)" style="fill: none; stroke: #008000"/>
    <path d="M 42.041005 262.291075 
L 97.915912 215.400153 
" clip-path="url(#p79d3177330)" style="fill: none; stroke: #008000"/>
    <path d="M 38.930246 194.933133 
L 96.10366 149.878732 
" clip-path="url(#p79d3177330)" style="fill: none; stroke: #008000"/>
    <path d="M 35.680679 124.569574 
L 94.213997 81.558529 
" clip-path="url(#p79d3177330)" style="fill: none; stroke: #008000"/>
    <path d="M 97.915912 215.400153 
L 149.39307 172.199877 
" clip-path="url(#p79d3177330)" style="fill: none; stroke: #008000"/>
    <path d="M 96.10366 149.878732 
L 148.686803 108.441607 
" clip-path="url(#p79d3177330)" style="fill: none; stroke: #008000"/>
    <path d="M 94.213997 81.558529 
L 147.951603 42.071437 
" clip-path="url(#p79d3177330)" style="fill: none; stroke: #008000"/>
    <path d="M 131.088063 291.233757 
L 184.58027 241.992548 
" clip-path="url(#p79d3177330)" style="fill: none; stroke: #008000"/>
    <path d="M 129.890476 222.782481 
L 184.58027 175.41973 
" clip-path="url(#p79d3177330)" style="fill: none; stroke: #008000"/>
    <path d="M 128.638038 151.196033 
L 184.58027 105.931314 
" clip-path="url(#p79d3177330)" style="fill: none; stroke: #008000"/>
    <path d="M 184.58027 241.992548 
L 233.764381 196.717074 
" clip-path="url(#p79d3177330)" style="fill: none; stroke: #008000"/>
    <path d="M 184.58027 175.41973 
L 234.775013 131.949807 
" clip-path="url(#p79d3177330)" style="fill: none; stroke: #008000"/>
    <path d="M 184.58027 105.931314 
L 235.82805 64.465033 
" clip-path="url(#p79d3177330)" style="fill: none; stroke: #008000"/>
    <path d="M 224.755122 321.678063 
L 275.547666 269.905302 
" clip-path="url(#p79d3177330)" style="fill: none; stroke: #008000"/>
    <path d="M 225.678428 252.109935 
L 277.546424 202.256747 
" clip-path="url(#p79d3177330)" style="fill: none; stroke: #008000"/>
    <path d="M 226.645171 179.268935 
L 279.63499 131.568624 
" clip-path="url(#p79d3177330)" style="fill: none; stroke: #008000"/>
    <path d="M 275.547666 269.905302 
L 322.152168 222.401407 
" clip-path="url(#p79d3177330)" style="fill: none; stroke: #008000"/>
    <path d="M 277.546424 202.256747 
L 325.047689 156.600664 
" clip-path="url(#p79d3177330)" style="fill: none; stroke: #008000"/>
    <path d="M 279.63499 131.568624 
L 328.067717 87.97051 
" clip-path="url(#p79d3177330)" style="fill: none; stroke: #008000"/>
    <path d="M 42.041005 262.291075 
L 131.088063 291.233757 
" clip-path="url(#p79d3177330)" style="fill: none; stroke: #008000"/>
    <path d="M 38.930246 194.933133 
L 129.890476 222.782481 
" clip-path="url(#p79d3177330)" style="fill: none; stroke: #008000"/>
    <path d="M 35.680679 124.569574 
L 128.638038 151.196033 
" clip-path="url(#p79d3177330)" style="fill: none; stroke: #008000"/>
    <path d="M 97.915912 215.400153 
L 184.58027 241.992548 
" clip-path="url(#p79d3177330)" style="fill: none; stroke: #008000"/>
    <path d="M 96.10366 149.878732 
L 184.58027 175.41973 
" clip-path="url(#p79d3177330)" style="fill: none; stroke: #008000"/>
    <path d="M 94.213997 81.558529 
L 184.58027 105.931314 
" clip-path="url(#p79d3177330)" style="fill: none; stroke: #008000"/>
    <path d="M 149.39307 172.199877 
L 233.764381 196.717074 
" clip-path="url(#p79d3177330)" style="fill: none; stroke: #008000"/>
    <path d="M 148.686803 108.441607 
L 234.775013 131.949807 
" clip-path="url(#p79d3177330)" style="fill: none; stroke: #008000"/>
    <path d="M 147.951603 42.071437 
L 235.82805 64.465033 
" clip-path="url(#p79d3177330)" style="fill: none; stroke: #008000"/>
    <path d="M 131.088063 291.233757 
L 224.755122 321.678063 
" clip-path="url(#p79d3177330)" style="fill: none; stroke: #008000"/>
    <path d="M 129.890476 222.782481 
L 225.678428 252.109935 
" clip-path="url(#p79d3177330)" style="fill: none; stroke: #008000"/>
    <path d="M 128.638038 151.196033 
L 226.645171 179.268935 
" clip-path="url(#p79d3177330)" style="fill: none; stroke: #008000"/>
    <path d="M 184.58027 241.992548 
L 275.547666 269.905302 
" clip-path="url(#p79d3177330)" style="fill: none; stroke: #008000"/>
    <path d="M 184.58027 175.41973 
L 277.546424 202.256747 
" clip-path="url(#p79d3177330)" style="fill: none; stroke: #008000"/>
    <path d="M 184.58027 105.931314 
L 279.63499 131.568624 
" clip-path="url(#p79d3177330)" style="fill: none; stroke: #008000"/>
    <path d="M 233.764381 196.717074 
L 322.152168 222.401407 
" clip-path="url(#p79d3177330)" style="fill: none; stroke: #008000"/>
    <path d="M 234.775013 131.949807 
L 325.047689 156.600664 
" clip-path="url(#p79d3177330)" style="fill: none; stroke: #008000"/>
    <path d="M 235.82805 64.465033 
L 328.067717 87.97051 
" clip-path="url(#p79d3177330)" style="fill: none; stroke: #008000"/>
   </g>
   <g id="Path3DCollection_1">
    <defs>
     <path id="C0_0_0c97ed6fab" d="M 0 2.5 
C 0.663008 2.5 1.29895 2.236584 1.767767 1.767767 
C 2.236584 1.29895 2.5 0.663008 2.5 -0 
C 2.5 -0.663008 2.236584 -1.29895 1.767767 -1.767767 
C 1.29895 -2.236584 0.663008 -2.5 0 -2.5 
C -0.663008 -2.5 -1.29895 -2.236584 -1.767767 -1.767767 
C -2.236584 -1.29895 -2.5 -0.663008 -2.5 0 
C -2.5 0.663008 -2.236584 1.29895 -1.767767 1.767767 
C -1.29895 2.236584 -0.663008 2.5 0 2.5 
z
"/>
    </defs>
    <g clip-path="url(#p79d3177330)">
     <use xlink:href="#C0_0_0c97ed6fab" x="149.39307" y="172.199877" style="fill: #ff0000; stroke: #ff0000"/>
    </g>
    <g clip-path="url(#p79d3177330)">
     <use xlink:href="#C0_0_0c97ed6fab" x="148.686803" y="108.441607" style="fill: #ff0000; stroke: #ff0000"/>
    </g>
    <g clip-path="url(#p79d3177330)">
     <use xlink:href="#C0_0_0c97ed6fab" x="191.159445" y="152.510708" style="fill: #ff0000; stroke: #ff0000"/>
    </g>
    <g clip-path="url(#p79d3177330)">
     <use xlink:href="#C0_0_0c97ed6fab" x="233.764381" y="196.717074" style="fill: #ff0000; stroke: #ff0000"/>
    </g>
    <g clip-path="url(#p79d3177330)">
     <use xlink:href="#C0_0_0c97ed6fab" x="123.558705" y="161.378729" style="fill: #ff0000; stroke: #ff0000"/>
    </g>
    <g clip-path="url(#p79d3177330)">
     <use xlink:href="#C0_0_0c97ed6fab" x="166.423124" y="205.978437" style="fill: #ff0000; stroke: #ff0000"/>
    </g>
    <g clip-path="url(#p79d3177330)">
     <use xlink:href="#C0_0_0c97ed6fab" x="97.915912" y="215.400153" style="fill: #ff0000; stroke: #ff0000"/>
    </g>
    <g clip-path="url(#p79d3177330)">
     <use xlink:href="#C0_0_0c97ed6fab" x="147.951603" y="42.071437" style="fill: #ff0000; stroke: #ff0000"/>
    </g>
    <g clip-path="url(#p79d3177330)">
     <use xlink:href="#C0_0_0c97ed6fab" x="166.236874" y="173.741192" style="fill: #ff0000; stroke: #ff0000"/>
    </g>
    <g clip-path="url(#p79d3177330)">
     <use xlink:href="#C0_0_0c97ed6fab" x="191.294419" y="86.93931" style="fill: #ff0000; stroke: #ff0000"/>
    </g>
    <g clip-path="url(#p79d3177330)">
     <use xlink:href="#C0_0_0c97ed6fab" x="234.775013" y="131.949807" style="fill: #ff0000; stroke: #ff0000"/>
    </g>
    <g clip-path="url(#p79d3177330)">
     <use xlink:href="#C0_0_0c97ed6fab" x="278.394042" y="177.103611" style="fill: #ff0000; stroke: #ff0000"/>
    </g>
    <g clip-path="url(#p79d3177330)">
     <use xlink:href="#C0_0_0c97ed6fab" x="322.152168" y="222.401407" style="fill: #ff0000; stroke: #ff0000"/>
    </g>
    <g clip-path="url(#p79d3177330)">
     <use xlink:href="#C0_0_0c97ed6fab" x="122.295877" y="95.417323" style="fill: #ff0000; stroke: #ff0000"/>
    </g>
    <g clip-path="url(#p79d3177330)">
     <use xlink:href="#C0_0_0c97ed6fab" x="253.970769" y="232.110886" style="fill: #ff0000; stroke: #ff0000"/>
    </g>
    <g clip-path="url(#p79d3177330)">
     <use xlink:href="#C0_0_0c97ed6fab" x="96.10366" y="149.878732" style="fill: #ff0000; stroke: #ff0000"/>
    </g>
    <g clip-path="url(#p79d3177330)">
     <use xlink:href="#C0_0_0c97ed6fab" x="165.852671" y="107.241072" style="fill: #ff0000; stroke: #ff0000"/>
    </g>
    <g clip-path="url(#p79d3177330)">
     <use xlink:href="#C0_0_0c97ed6fab" x="184.58027" y="241.992548" style="fill: #ff0000; stroke: #ff0000"/>
    </g>
    <g clip-path="url(#p79d3177330)">
     <use xlink:href="#C0_0_0c97ed6fab" x="235.82805" y="64.465033" style="fill: #ff0000; stroke: #ff0000"/>
    </g>
    <g clip-path="url(#p79d3177330)">
     <use xlink:href="#C0_0_0c97ed6fab" x="280.365362" y="110.457971" style="fill: #ff0000; stroke: #ff0000"/>
    </g>
    <g clip-path="url(#p79d3177330)">
     <use xlink:href="#C0_0_0c97ed6fab" x="254.699824" y="199.366003" style="fill: #ff0000; stroke: #ff0000"/>
    </g>
    <g clip-path="url(#p79d3177330)">
     <use xlink:href="#C0_0_0c97ed6fab" x="325.047689" y="156.600664" style="fill: #ff0000; stroke: #ff0000"/>
    </g>
    <g clip-path="url(#p79d3177330)">
     <use xlink:href="#C0_0_0c97ed6fab" x="69.357947" y="205.491026" style="fill: #ff0000; stroke: #ff0000"/>
    </g>
    <g clip-path="url(#p79d3177330)">
     <use xlink:href="#C0_0_0c97ed6fab" x="113.948223" y="252.051015" style="fill: #ff0000; stroke: #ff0000"/>
    </g>
    <g clip-path="url(#p79d3177330)">
     <use xlink:href="#C0_0_0c97ed6fab" x="165.65447" y="72.935321" style="fill: #ff0000; stroke: #ff0000"/>
    </g>
    <g clip-path="url(#p79d3177330)">
     <use xlink:href="#C0_0_0c97ed6fab" x="300.560909" y="212.650452" style="fill: #ff0000; stroke: #ff0000"/>
    </g>
    <g clip-path="url(#p79d3177330)">
     <use xlink:href="#C0_0_0c97ed6fab" x="42.041005" y="262.291075" style="fill: #ff0000; stroke: #ff0000"/>
    </g>
    <g clip-path="url(#p79d3177330)">
     <use xlink:href="#C0_0_0c97ed6fab" x="94.213997" y="81.558529" style="fill: #ff0000; stroke: #ff0000"/>
    </g>
    <g clip-path="url(#p79d3177330)">
     <use xlink:href="#C0_0_0c97ed6fab" x="113.192703" y="218.927278" style="fill: #ff0000; stroke: #ff0000"/>
    </g>
    <g clip-path="url(#p79d3177330)">
     <use xlink:href="#C0_0_0c97ed6fab" x="184.58027" y="175.41973" style="fill: #ff0000; stroke: #ff0000"/>
    </g>
    <g clip-path="url(#p79d3177330)">
     <use xlink:href="#C0_0_0c97ed6fab" x="256.204881" y="131.767714" style="fill: #ff0000; stroke: #ff0000"/>
    </g>
    <g clip-path="url(#p79d3177330)">
     <use xlink:href="#C0_0_0c97ed6fab" x="328.067717" y="87.97051" style="fill: #ff0000; stroke: #ff0000"/>
    </g>
    <g clip-path="url(#p79d3177330)">
     <use xlink:href="#C0_0_0c97ed6fab" x="275.547666" y="269.905302" style="fill: #ff0000; stroke: #ff0000"/>
    </g>
    <g clip-path="url(#p79d3177330)">
     <use xlink:href="#C0_0_0c97ed6fab" x="66.870492" y="137.63394" style="fill: #ff0000; stroke: #ff0000"/>
    </g>
    <g clip-path="url(#p79d3177330)">
     <use xlink:href="#C0_0_0c97ed6fab" x="203.980229" y="280.471736" style="fill: #ff0000; stroke: #ff0000"/>
    </g>
    <g clip-path="url(#p79d3177330)">
     <use xlink:href="#C0_0_0c97ed6fab" x="256.9819" y="96.868559" style="fill: #ff0000; stroke: #ff0000"/>
    </g>
    <g clip-path="url(#p79d3177330)">
     <use xlink:href="#C0_0_0c97ed6fab" x="303.081571" y="144.492669" style="fill: #ff0000; stroke: #ff0000"/>
    </g>
    <g clip-path="url(#p79d3177330)">
     <use xlink:href="#C0_0_0c97ed6fab" x="38.930246" y="194.933133" style="fill: #ff0000; stroke: #ff0000"/>
    </g>
    <g clip-path="url(#p79d3177330)">
     <use xlink:href="#C0_0_0c97ed6fab" x="111.632115" y="150.507472" style="fill: #ff0000; stroke: #ff0000"/>
    </g>
    <g clip-path="url(#p79d3177330)">
     <use xlink:href="#C0_0_0c97ed6fab" x="84.931238" y="243.002026" style="fill: #ff0000; stroke: #ff0000"/>
    </g>
    <g clip-path="url(#p79d3177330)">
     <use xlink:href="#C0_0_0c97ed6fab" x="184.58027" y="105.931314" style="fill: #ff0000; stroke: #ff0000"/>
    </g>
    <g clip-path="url(#p79d3177330)">
     <use xlink:href="#C0_0_0c97ed6fab" x="131.088063" y="291.233757" style="fill: #ff0000; stroke: #ff0000"/>
    </g>
    <g clip-path="url(#p79d3177330)">
     <use xlink:href="#C0_0_0c97ed6fab" x="204.192997" y="246.820734" style="fill: #ff0000; stroke: #ff0000"/>
    </g>
    <g clip-path="url(#p79d3177330)">
     <use xlink:href="#C0_0_0c97ed6fab" x="277.546424" y="202.256747" style="fill: #ff0000; stroke: #ff0000"/>
    </g>
    <g clip-path="url(#p79d3177330)">
     <use xlink:href="#C0_0_0c97ed6fab" x="110.825952" y="115.163388" style="fill: #ff0000; stroke: #ff0000"/>
    </g>
    <g clip-path="url(#p79d3177330)">
     <use xlink:href="#C0_0_0c97ed6fab" x="251.44398" y="261.304129" style="fill: #ff0000; stroke: #ff0000"/>
    </g>
    <g clip-path="url(#p79d3177330)">
     <use xlink:href="#C0_0_0c97ed6fab" x="35.680679" y="124.569574" style="fill: #ff0000; stroke: #ff0000"/>
    </g>
    <g clip-path="url(#p79d3177330)">
     <use xlink:href="#C0_0_0c97ed6fab" x="82.704146" y="173.591136" style="fill: #ff0000; stroke: #ff0000"/>
    </g>
    <g clip-path="url(#p79d3177330)">
     <use xlink:href="#C0_0_0c97ed6fab" x="129.890476" y="222.782481" style="fill: #ff0000; stroke: #ff0000"/>
    </g>
    <g clip-path="url(#p79d3177330)">
     <use xlink:href="#C0_0_0c97ed6fab" x="177.240517" y="272.144494" style="fill: #ff0000; stroke: #ff0000"/>
    </g>
    <g clip-path="url(#p79d3177330)">
     <use xlink:href="#C0_0_0c97ed6fab" x="204.63285" y="177.254668" style="fill: #ff0000; stroke: #ff0000"/>
    </g>
    <g clip-path="url(#p79d3177330)">
     <use xlink:href="#C0_0_0c97ed6fab" x="224.755122" y="321.678063" style="fill: #ff0000; stroke: #ff0000"/>
    </g>
    <g clip-path="url(#p79d3177330)">
     <use xlink:href="#C0_0_0c97ed6fab" x="279.63499" y="131.568624" style="fill: #ff0000; stroke: #ff0000"/>
    </g>
    <g clip-path="url(#p79d3177330)">
     <use xlink:href="#C0_0_0c97ed6fab" x="204.860258" y="141.288252" style="fill: #ff0000; stroke: #ff0000"/>
    </g>
    <g clip-path="url(#p79d3177330)">
     <use xlink:href="#C0_0_0c97ed6fab" x="252.963197" y="191.154572" style="fill: #ff0000; stroke: #ff0000"/>
    </g>
    <g clip-path="url(#p79d3177330)">
     <use xlink:href="#C0_0_0c97ed6fab" x="128.638038" y="151.196033" style="fill: #ff0000; stroke: #ff0000"/>
    </g>
    <g clip-path="url(#p79d3177330)">
     <use xlink:href="#C0_0_0c97ed6fab" x="177.072132" y="201.563447" style="fill: #ff0000; stroke: #ff0000"/>
    </g>
    <g clip-path="url(#p79d3177330)">
     <use xlink:href="#C0_0_0c97ed6fab" x="225.678428" y="252.109935" style="fill: #ff0000; stroke: #ff0000"/>
    </g>
    <g clip-path="url(#p79d3177330)">
     <use xlink:href="#C0_0_0c97ed6fab" x="226.645171" y="179.268935" style="fill: #ff0000; stroke: #ff0000"/>
    </g>
   </g>
  </g>
 </g>
 <defs>
  <clipPath id="p79d3177330">
   <rect x="10.53" y="10.53" width="338.94" height="338.94"/>
  </clipPath>
 </defs>
</svg>
